# Blender 5.2.1 LTS
# www.blender.org
mtllib ButtonMain.mtl
o Cube.090
v -0.080959 0.035049 0.080959
v -0.080959 0.035049 -0.060959
v 0.060959 0.035049 0.080959
v 0.060959 0.035049 -0.060959
v -0.080959 0.035049 0.068058
v -0.080959 0.035049 0.055156
v -0.080959 0.035049 0.042254
v -0.080959 0.035049 0.029353
v -0.080959 0.035049 0.016451
v -0.080959 0.035049 0.003549
v -0.080959 0.035049 -0.009353
v -0.080959 0.035049 -0.022254
v -0.080959 0.035049 -0.035156
v -0.080959 0.035049 -0.048058
v -0.068058 0.035049 -0.060959
v -0.055156 0.035049 -0.060959
v -0.042254 0.035049 -0.060959
v -0.029353 0.035049 -0.060959
v -0.016451 0.035049 -0.060959
v -0.003549 0.035049 -0.060959
v 0.009353 0.035049 -0.060959
v 0.022254 0.035049 -0.060959
v 0.035156 0.035049 -0.060959
v 0.048058 0.035049 -0.060959
v 0.060959 0.035049 -0.048058
v 0.060959 0.035049 -0.035156
v 0.060959 0.035049 -0.022254
v 0.060959 0.035049 -0.009353
v 0.060959 0.035049 0.003549
v 0.060959 0.035049 0.016451
v 0.060959 0.035049 0.029353
v 0.060959 0.035049 0.042254
v 0.060959 0.035049 0.055156
v 0.060959 0.035049 0.068058
v 0.048058 0.035049 0.080959
v 0.035156 0.035049 0.080959
v 0.022254 0.035049 0.080959
v 0.009353 0.035049 0.080959
v -0.003549 0.035049 0.080959
v -0.016451 0.035049 0.080959
v -0.029353 0.035049 0.080959
v -0.042254 0.035049 0.080959
v -0.055156 0.035049 0.080959
v -0.068058 0.035049 0.080959
v 0.018013 0.026725 -0.018013
v 0.022451 0.026725 -0.012723
v 0.025904 0.026725 -0.006742
v 0.028266 0.026725 -0.000253
v 0.029465 0.026725 0.006547
v 0.029465 0.026725 0.013453
v 0.028266 0.026725 0.020253
v 0.025904 0.026725 0.026742
v 0.022451 0.026725 0.032723
v 0.018013 0.026725 0.038013
v 0.012723 0.026725 -0.022451
v 0.016990 0.026725 -0.016990
v 0.016990 0.026725 -0.009278
v 0.016990 0.026725 -0.001567
v 0.016990 0.026725 0.006144
v 0.016990 0.026725 0.013856
v 0.016990 0.026725 0.021567
v 0.016990 0.026725 0.029278
v 0.016990 0.026725 0.036990
v 0.012723 0.026725 0.042451
v 0.006742 0.026725 -0.025904
v 0.009278 0.026725 -0.016990
v 0.009278 0.026725 -0.009278
v 0.009278 0.026725 -0.001567
v 0.009278 0.026725 0.006144
v 0.009278 0.026725 0.013856
v 0.009278 0.026725 0.021567
v 0.009278 0.026725 0.029278
v 0.009278 0.026725 0.036990
v 0.006742 0.026725 0.045904
v 0.000253 0.026725 -0.028266
v 0.001567 0.026725 -0.016990
v 0.001567 0.026725 -0.009278
v 0.001567 0.026725 -0.001567
v 0.001567 0.026725 0.006144
v 0.001567 0.026725 0.013856
v 0.001567 0.026725 0.021567
v 0.001567 0.026725 0.029278
v 0.001567 0.026725 0.036990
v 0.000253 0.026725 0.048266
v -0.006547 0.026725 -0.029465
v -0.006144 0.026725 -0.016990
v -0.006144 0.026725 -0.009278
v -0.006144 0.026725 -0.001567
v -0.006144 0.026725 0.006144
v -0.006144 0.026725 0.013856
v -0.006144 0.026725 0.021567
v -0.006144 0.026725 0.029278
v -0.006144 0.026725 0.036990
v -0.006547 0.026725 0.049465
v -0.013453 0.026725 -0.029465
v -0.013856 0.026725 -0.016990
v -0.013856 0.026725 -0.009278
v -0.013856 0.026725 -0.001567
v -0.013856 0.026725 0.006144
v -0.013856 0.026725 0.013856
v -0.013856 0.026725 0.021567
v -0.013856 0.026725 0.029278
v -0.013856 0.026725 0.036990
v -0.013453 0.026725 0.049465
v -0.020253 0.026725 -0.028266
v -0.021567 0.026725 -0.016990
v -0.021567 0.026725 -0.009278
v -0.021567 0.026725 -0.001567
v -0.021567 0.026725 0.006144
v -0.021567 0.026725 0.013856
v -0.021567 0.026725 0.021567
v -0.021567 0.026725 0.029278
v -0.021567 0.026725 0.036990
v -0.020253 0.026725 0.048266
v -0.026742 0.026725 -0.025904
v -0.029278 0.026725 -0.016990
v -0.029278 0.026725 -0.009278
v -0.029278 0.026725 -0.001567
v -0.029278 0.026725 0.006144
v -0.029278 0.026725 0.013856
v -0.029278 0.026725 0.021567
v -0.029278 0.026725 0.029278
v -0.029278 0.026725 0.036990
v -0.026742 0.026725 0.045904
v -0.032723 0.026725 -0.022451
v -0.036990 0.026725 -0.016990
v -0.036990 0.026725 -0.009278
v -0.036990 0.026725 -0.001567
v -0.036990 0.026725 0.006144
v -0.036990 0.026725 0.013856
v -0.036990 0.026725 0.021567
v -0.036990 0.026725 0.029278
v -0.036990 0.026725 0.036990
v -0.032723 0.026725 0.042451
v -0.038013 0.026725 -0.018013
v -0.042451 0.026725 -0.012723
v -0.045904 0.026725 -0.006742
v -0.048266 0.026725 -0.000253
v -0.049465 0.026725 0.006547
v -0.049465 0.026725 0.013453
v -0.048266 0.026725 0.020253
v -0.045904 0.026725 0.026742
v -0.042451 0.026725 0.032723
v -0.038013 0.026725 0.038013
v 0.022123 0.035049 -0.022123
v 0.027213 0.035049 -0.016057
v 0.031173 0.035049 -0.009199
v 0.033881 0.035049 -0.001758
v 0.035256 0.035049 0.006041
v 0.035256 0.035049 0.013959
v 0.033881 0.035049 0.021758
v 0.031173 0.035049 0.029199
v 0.027213 0.035049 0.036057
v 0.022123 0.035049 0.042123
v -0.042123 0.035049 -0.022123
v -0.047213 0.035049 -0.016057
v -0.051173 0.035049 -0.009199
v -0.053881 0.035049 -0.001758
v -0.055256 0.035049 0.006041
v -0.055256 0.035049 0.013959
v -0.053881 0.035049 0.021758
v -0.051173 0.035049 0.029199
v -0.047213 0.035049 0.036057
v -0.042123 0.035049 0.042123
v 0.016057 0.035049 -0.027213
v 0.016057 0.035049 0.047213
v 0.009199 0.035049 -0.031173
v 0.009199 0.035049 0.051173
v 0.001758 0.035049 -0.033881
v 0.001758 0.035049 0.053881
v -0.006041 0.035049 -0.035256
v -0.006041 0.035049 0.055256
v -0.013959 0.035049 -0.035256
v -0.013959 0.035049 0.055256
v -0.021758 0.035049 -0.033881
v -0.021758 0.035049 0.053881
v -0.029199 0.035049 -0.031173
v -0.029199 0.035049 0.051173
v -0.036057 0.035049 -0.027213
v -0.036057 0.035049 0.047213
v -0.064745 -0.017770 0.098699
v -0.098699 -0.017770 0.064745
v -0.098699 -0.017770 -0.044745
v -0.064745 -0.017770 -0.078699
v 0.078699 -0.017770 0.064745
v 0.044745 -0.017770 0.098699
v 0.044745 -0.017770 -0.078699
v 0.078699 -0.017770 -0.044745
v -0.098699 0.035049 0.064745
v -0.064745 0.035049 0.098699
v -0.080963 0.035049 0.080963
v -0.064745 0.035049 -0.078699
v -0.098699 0.035049 -0.044745
v -0.080963 0.035049 -0.060963
v 0.078699 0.035049 -0.044745
v 0.044745 0.035049 -0.078699
v 0.060963 0.035049 -0.060963
v 0.044745 0.035049 0.098699
v 0.078699 0.035049 0.064745
v 0.060963 0.035049 0.080963
vn -0.0000 1.0000 -0.0000
vn -0.6289 0.5711 0.5277
vn -0.7109 0.5711 0.4105
vn -0.7714 0.5711 0.2808
vn -0.8084 0.5711 0.1425
vn -0.8209 0.5711 -0.0000
vn -0.8084 0.5711 -0.1425
vn -0.7714 0.5711 -0.2808
vn -0.7109 0.5711 -0.4105
vn -0.6289 0.5711 -0.5277
vn 0.6289 0.5711 0.5277
vn 0.7109 0.5711 0.4105
vn 0.7714 0.5711 0.2808
vn 0.8084 0.5711 0.1425
vn 0.8209 0.5711 -0.0000
vn 0.8084 0.5711 -0.1425
vn 0.7714 0.5711 -0.2808
vn 0.7109 0.5711 -0.4105
vn 0.6289 0.5711 -0.5277
vn -0.5277 0.5711 0.6289
vn -0.5277 0.5711 -0.6289
vn -0.4105 0.5711 0.7109
vn -0.4105 0.5711 -0.7109
vn -0.2808 0.5711 0.7714
vn -0.2808 0.5711 -0.7714
vn -0.1425 0.5711 0.8084
vn -0.1425 0.5711 -0.8084
vn -0.0000 0.5711 0.8209
vn -0.0000 0.5711 -0.8209
vn 0.1425 0.5711 0.8084
vn 0.1425 0.5711 -0.8084
vn 0.2808 0.5711 0.7714
vn 0.2808 0.5711 -0.7714
vn 0.4105 0.5711 0.7109
vn 0.4105 0.5711 -0.7109
vn 0.5277 0.5711 0.6289
vn 0.5277 0.5711 -0.6289
vn -0.7071 -0.0000 0.7071
vn -0.7071 -0.0000 -0.7071
vn 0.7071 -0.0000 -0.7071
vn 0.7071 -0.0000 0.7071
vn -0.0000 -1.0000 -0.0000
vn -1.0000 -0.0000 -0.0000
vn -0.0000 -0.0000 1.0000
vn -0.0000 -0.0000 -1.0000
vn 1.0000 -0.0000 -0.0000
vt 0.831818 0.706818
vt 0.850000 0.706818
vt 0.850000 0.725000
vt 0.831818 0.725000
vt 0.650000 0.706818
vt 0.668182 0.706818
vt 0.668182 0.725000
vt 0.650000 0.725000
vt 0.686364 0.706818
vt 0.686364 0.725000
vt 0.704545 0.706818
vt 0.704545 0.725000
vt 0.722727 0.706818
vt 0.722727 0.725000
vt 0.740909 0.706818
vt 0.740909 0.725000
vt 0.759091 0.706818
vt 0.759091 0.725000
vt 0.777273 0.706818
vt 0.777273 0.725000
vt 0.795455 0.706818
vt 0.795455 0.725000
vt 0.813636 0.706818
vt 0.813636 0.725000
vt 0.650000 0.525000
vt 0.668182 0.525000
vt 0.668182 0.543182
vt 0.650000 0.543182
vt 0.668182 0.561364
vt 0.650000 0.561364
vt 0.668182 0.579545
vt 0.650000 0.579545
vt 0.668182 0.597727
vt 0.650000 0.597727
vt 0.668182 0.615909
vt 0.650000 0.615909
vt 0.668182 0.634091
vt 0.650000 0.634091
vt 0.668182 0.652273
vt 0.650000 0.652273
vt 0.668182 0.670455
vt 0.650000 0.670455
vt 0.668182 0.688636
vt 0.650000 0.688636
vt 0.686364 0.525000
vt 0.686364 0.543182
vt 0.671619 0.546619
vt 0.687566 0.544386
vt 0.686364 0.561364
vt 0.669386 0.562566
vt 0.686364 0.579545
vt 0.668848 0.580127
vt 0.686364 0.597727
vt 0.668682 0.598024
vt 0.686364 0.615909
vt 0.668627 0.616003
vt 0.686364 0.634091
vt 0.668635 0.633995
vt 0.686364 0.652273
vt 0.668712 0.651956
vt 0.686364 0.670455
vt 0.668963 0.669771
vt 0.686364 0.688636
vt 0.671376 0.685585
vt 0.687566 0.705614
vt 0.671619 0.703381
vt 0.704545 0.525000
vt 0.704545 0.543182
vt 0.705127 0.543849
vt 0.704545 0.561364
vt 0.704545 0.579545
vt 0.704545 0.597727
vt 0.704545 0.615909
vt 0.704545 0.634091
vt 0.704545 0.652273
vt 0.704545 0.670455
vt 0.704545 0.688636
vt 0.705127 0.706151
vt 0.722727 0.525000
vt 0.722727 0.543182
vt 0.723024 0.543682
vt 0.722727 0.561364
vt 0.722727 0.579545
vt 0.722727 0.597727
vt 0.722727 0.615909
vt 0.722727 0.634091
vt 0.722727 0.652273
vt 0.722727 0.670455
vt 0.722727 0.688636
vt 0.723024 0.706318
vt 0.740909 0.525000
vt 0.740909 0.543182
vt 0.741003 0.543627
vt 0.740909 0.561364
vt 0.740909 0.579545
vt 0.740909 0.597727
vt 0.740909 0.615909
vt 0.740909 0.634091
vt 0.740909 0.652273
vt 0.740909 0.670455
vt 0.740909 0.688636
vt 0.741003 0.706373
vt 0.759091 0.525000
vt 0.759091 0.543182
vt 0.758996 0.543635
vt 0.759091 0.561364
vt 0.759091 0.579545
vt 0.759091 0.597727
vt 0.759091 0.615909
vt 0.759091 0.634091
vt 0.759091 0.652273
vt 0.759091 0.670455
vt 0.759091 0.688636
vt 0.758996 0.706365
vt 0.777273 0.525000
vt 0.777273 0.543182
vt 0.776956 0.543713
vt 0.777273 0.561364
vt 0.777273 0.579545
vt 0.777273 0.597727
vt 0.777273 0.615909
vt 0.777273 0.634091
vt 0.777273 0.652273
vt 0.777273 0.670455
vt 0.777273 0.688636
vt 0.776956 0.706288
vt 0.795455 0.525000
vt 0.795455 0.543182
vt 0.794771 0.543964
vt 0.795454 0.561364
vt 0.795455 0.579545
vt 0.795455 0.597727
vt 0.795455 0.615909
vt 0.795455 0.634091
vt 0.795455 0.652273
vt 0.795455 0.670455
vt 0.795455 0.688636
vt 0.794772 0.706036
vt 0.813636 0.525000
vt 0.813636 0.543182
vt 0.810586 0.546376
vt 0.813636 0.561364
vt 0.813636 0.579545
vt 0.813636 0.597727
vt 0.813636 0.615909
vt 0.813636 0.634091
vt 0.813636 0.652273
vt 0.813636 0.670455
vt 0.813636 0.688636
vt 0.810586 0.703624
vt 0.831818 0.525000
vt 0.831818 0.543182
vt 0.828381 0.546619
vt 0.830613 0.562566
vt 0.831151 0.580127
vt 0.831318 0.598024
vt 0.831373 0.616003
vt 0.831365 0.633996
vt 0.831288 0.651956
vt 0.831037 0.669772
vt 0.828624 0.685586
vt 0.828381 0.703381
vt 0.850000 0.525000
vt 0.850000 0.543182
vt 0.850000 0.561364
vt 0.831818 0.561364
vt 0.850000 0.579545
vt 0.831818 0.579545
vt 0.850000 0.597727
vt 0.831818 0.597727
vt 0.850000 0.615909
vt 0.831818 0.615909
vt 0.850000 0.634091
vt 0.831818 0.634091
vt 0.850000 0.652273
vt 0.831818 0.652273
vt 0.850000 0.670455
vt 0.831818 0.670455
vt 0.850000 0.688636
vt 0.831818 0.688636
vt 0.875000 0.702150
vt 0.839112 0.738037
vt 0.850004 0.725005
vt 0.839112 0.511963
vt 0.875000 0.547850
vt 0.850004 0.524996
vt 0.630981 0.541869
vt 0.648925 0.476075
vt 0.649996 0.524996
vt 0.648925 0.773925
vt 0.630981 0.708131
vt 0.649996 0.725004
vt 0.375000 0.000000
vt 0.625000 0.000000
vt 0.625000 0.047850
vt 0.375000 0.047850
vt 0.625000 0.297850
vt 0.375000 0.297850
vt 0.375000 0.202150
vt 0.625000 0.202150
vt 0.375000 0.547850
vt 0.359050 0.468100
vt 0.359050 0.781900
vt 0.375000 0.702150
vt 0.125000 0.547850
vt 0.172850 0.500000
vt 0.172850 0.750000
vt 0.125000 0.702150
vt 0.625000 0.952150
vt 0.375000 0.952150
s 0
f 164/1/1 5/2/1 1/3/1 44/4/1
f 34/5/1 154/6/1 35/7/1 3/8/1
f 154/6/1 166/9/1 36/10/1 35/7/1
f 166/9/1 168/11/1 37/12/1 36/10/1
f 168/11/1 170/13/1 38/14/1 37/12/1
f 170/13/1 172/15/1 39/16/1 38/14/1
f 172/15/1 174/17/1 40/18/1 39/16/1
f 174/17/1 176/19/1 41/20/1 40/18/1
f 176/19/1 178/21/1 42/22/1 41/20/1
f 178/21/1 180/23/1 43/24/1 42/22/1
f 180/23/1 164/1/1 44/4/1 43/24/1
f 4/25/1 24/26/1 145/27/1 25/28/1
f 25/28/1 145/27/1 146/29/1 26/30/1
f 26/30/1 146/29/1 147/31/1 27/32/1
f 27/32/1 147/31/1 148/33/1 28/34/1
f 28/34/1 148/33/1 149/35/1 29/36/1
f 29/36/1 149/35/1 150/37/1 30/38/1
f 30/38/1 150/37/1 151/39/1 31/40/1
f 31/40/1 151/39/1 152/41/1 32/42/1
f 32/42/1 152/41/1 153/43/1 33/44/1
f 33/44/1 153/43/1 154/6/1 34/5/1
f 24/26/1 23/45/1 165/46/1 145/27/1
f 45/47/1 55/48/1 56/49/1 46/50/1
f 46/50/1 56/49/1 57/51/1 47/52/1
f 47/52/1 57/51/1 58/53/1 48/54/1
f 48/54/1 58/53/1 59/55/1 49/56/1
f 49/56/1 59/55/1 60/57/1 50/58/1
f 50/58/1 60/57/1 61/59/1 51/60/1
f 51/60/1 61/59/1 62/61/1 52/62/1
f 52/62/1 62/61/1 63/63/1 53/64/1
f 53/64/1 63/63/1 64/65/1 54/66/1
f 23/45/1 22/67/1 167/68/1 165/46/1
f 55/48/1 65/69/1 66/70/1 56/49/1
f 56/49/1 66/70/1 67/71/1 57/51/1
f 57/51/1 67/71/1 68/72/1 58/53/1
f 58/53/1 68/72/1 69/73/1 59/55/1
f 59/55/1 69/73/1 70/74/1 60/57/1
f 60/57/1 70/74/1 71/75/1 61/59/1
f 61/59/1 71/75/1 72/76/1 62/61/1
f 62/61/1 72/76/1 73/77/1 63/63/1
f 63/63/1 73/77/1 74/78/1 64/65/1
f 22/67/1 21/79/1 169/80/1 167/68/1
f 65/69/1 75/81/1 76/82/1 66/70/1
f 66/70/1 76/82/1 77/83/1 67/71/1
f 67/71/1 77/83/1 78/84/1 68/72/1
f 68/72/1 78/84/1 79/85/1 69/73/1
f 69/73/1 79/85/1 80/86/1 70/74/1
f 70/74/1 80/86/1 81/87/1 71/75/1
f 71/75/1 81/87/1 82/88/1 72/76/1
f 72/76/1 82/88/1 83/89/1 73/77/1
f 73/77/1 83/89/1 84/90/1 74/78/1
f 21/79/1 20/91/1 171/92/1 169/80/1
f 75/81/1 85/93/1 86/94/1 76/82/1
f 76/82/1 86/94/1 87/95/1 77/83/1
f 77/83/1 87/95/1 88/96/1 78/84/1
f 78/84/1 88/96/1 89/97/1 79/85/1
f 79/85/1 89/97/1 90/98/1 80/86/1
f 80/86/1 90/98/1 91/99/1 81/87/1
f 81/87/1 91/99/1 92/100/1 82/88/1
f 82/88/1 92/100/1 93/101/1 83/89/1
f 83/89/1 93/101/1 94/102/1 84/90/1
f 20/91/1 19/103/1 173/104/1 171/92/1
f 85/93/1 95/105/1 96/106/1 86/94/1
f 86/94/1 96/106/1 97/107/1 87/95/1
f 87/95/1 97/107/1 98/108/1 88/96/1
f 88/96/1 98/108/1 99/109/1 89/97/1
f 89/97/1 99/109/1 100/110/1 90/98/1
f 90/98/1 100/110/1 101/111/1 91/99/1
f 91/99/1 101/111/1 102/112/1 92/100/1
f 92/100/1 102/112/1 103/113/1 93/101/1
f 93/101/1 103/113/1 104/114/1 94/102/1
f 19/103/1 18/115/1 175/116/1 173/104/1
f 95/105/1 105/117/1 106/118/1 96/106/1
f 96/106/1 106/118/1 107/119/1 97/107/1
f 97/107/1 107/119/1 108/120/1 98/108/1
f 98/108/1 108/120/1 109/121/1 99/109/1
f 99/109/1 109/121/1 110/122/1 100/110/1
f 100/110/1 110/122/1 111/123/1 101/111/1
f 101/111/1 111/123/1 112/124/1 102/112/1
f 102/112/1 112/124/1 113/125/1 103/113/1
f 103/113/1 113/125/1 114/126/1 104/114/1
f 18/115/1 17/127/1 177/128/1 175/116/1
f 105/117/1 115/129/1 116/130/1 106/118/1
f 106/118/1 116/130/1 117/131/1 107/119/1
f 107/119/1 117/131/1 118/132/1 108/120/1
f 108/120/1 118/132/1 119/133/1 109/121/1
f 109/121/1 119/133/1 120/134/1 110/122/1
f 110/122/1 120/134/1 121/135/1 111/123/1
f 111/123/1 121/135/1 122/136/1 112/124/1
f 112/124/1 122/136/1 123/137/1 113/125/1
f 113/125/1 123/137/1 124/138/1 114/126/1
f 17/127/1 16/139/1 179/140/1 177/128/1
f 115/129/1 125/141/1 126/142/1 116/130/1
f 116/130/1 126/142/1 127/143/1 117/131/1
f 117/131/1 127/143/1 128/144/1 118/132/1
f 118/132/1 128/144/1 129/145/1 119/133/1
f 119/133/1 129/145/1 130/146/1 120/134/1
f 120/134/1 130/146/1 131/147/1 121/135/1
f 121/135/1 131/147/1 132/148/1 122/136/1
f 122/136/1 132/148/1 133/149/1 123/137/1
f 123/137/1 133/149/1 134/150/1 124/138/1
f 16/139/1 15/151/1 155/152/1 179/140/1
f 125/141/1 135/153/1 136/154/1 126/142/1
f 126/142/1 136/154/1 137/155/1 127/143/1
f 127/143/1 137/155/1 138/156/1 128/144/1
f 128/144/1 138/156/1 139/157/1 129/145/1
f 129/145/1 139/157/1 140/158/1 130/146/1
f 130/146/1 140/158/1 141/159/1 131/147/1
f 131/147/1 141/159/1 142/160/1 132/148/1
f 132/148/1 142/160/1 143/161/1 133/149/1
f 133/149/1 143/161/1 144/162/1 134/150/1
f 15/151/1 2/163/1 14/164/1 155/152/1
f 155/152/1 14/164/1 13/165/1 156/166/1
f 156/166/1 13/165/1 12/167/1 157/168/1
f 157/168/1 12/167/1 11/169/1 158/170/1
f 158/170/1 11/169/1 10/171/1 159/172/1
f 159/172/1 10/171/1 9/173/1 160/174/1
f 160/174/1 9/173/1 8/175/1 161/176/1
f 161/176/1 8/175/1 7/177/1 162/178/1
f 162/178/1 7/177/1 6/179/1 163/180/1
f 163/180/1 6/179/1 5/2/1 164/1/1
f 45/47/2 46/50/2 146/29/2 145/27/2
f 46/50/3 47/52/3 147/31/3 146/29/3
f 47/52/4 48/54/4 148/33/4 147/31/4
f 48/54/5 49/56/5 149/35/5 148/33/5
f 49/56/6 50/58/6 150/37/6 149/35/6
f 50/58/7 51/60/7 151/39/7 150/37/7
f 51/60/8 52/62/8 152/41/8 151/39/8
f 52/62/9 53/64/9 153/43/9 152/41/9
f 53/64/10 54/66/10 154/6/10 153/43/10
f 136/154/11 135/153/11 155/152/11 156/166/11
f 137/155/12 136/154/12 156/166/12 157/168/12
f 138/156/13 137/155/13 157/168/13 158/170/13
f 139/157/14 138/156/14 158/170/14 159/172/14
f 140/158/15 139/157/15 159/172/15 160/174/15
f 141/159/16 140/158/16 160/174/16 161/176/16
f 142/160/17 141/159/17 161/176/17 162/178/17
f 143/161/18 142/160/18 162/178/18 163/180/18
f 144/162/19 143/161/19 163/180/19 164/1/19
f 55/48/20 45/47/20 145/27/20 165/46/20
f 54/66/21 64/65/21 166/9/21 154/6/21
f 65/69/22 55/48/22 165/46/22 167/68/22
f 64/65/23 74/78/23 168/11/23 166/9/23
f 75/81/24 65/69/24 167/68/24 169/80/24
f 74/78/25 84/90/25 170/13/25 168/11/25
f 85/93/26 75/81/26 169/80/26 171/92/26
f 84/90/27 94/102/27 172/15/27 170/13/27
f 95/105/28 85/93/28 171/92/28 173/104/28
f 94/102/29 104/114/29 174/17/29 172/15/29
f 105/117/30 95/105/30 173/104/30 175/116/30
f 104/114/31 114/126/31 176/19/31 174/17/31
f 115/129/32 105/117/32 175/116/32 177/128/32
f 114/126/33 124/138/33 178/21/33 176/19/33
f 125/141/34 115/129/34 177/128/34 179/140/34
f 124/138/35 134/150/35 180/23/35 178/21/35
f 135/153/36 125/141/36 179/140/36 155/152/36
f 134/150/37 144/162/37 164/1/37 180/23/37
f 189/181/1 190/182/1 191/183/1
f 192/184/1 193/185/1 194/186/1
f 195/187/1 196/188/1 197/189/1
f 198/190/1 199/191/1 200/192/1
f 181/193/38 190/194/38 189/195/38 182/196/38
f 192/197/39 184/198/39 183/199/39 193/200/39
f 195/187/40 188/201/40 187/202/40 196/188/40
f 198/190/41 186/203/41 185/204/41 199/191/41
f 183/205/42 184/206/42 187/202/42 188/201/42 185/204/42 186/203/42 181/207/42 182/208/42
f 182/196/43 189/195/43 193/200/43 183/199/43
f 186/203/44 198/190/44 190/209/44 181/210/44
f 184/198/45 192/197/45 196/188/45 187/202/45
f 188/201/46 195/187/46 199/191/46 185/204/46
f 3/8/1 35/7/1 36/10/1 37/12/1 38/14/1 39/16/1 40/18/1 41/20/1 42/22/1 43/24/1 44/4/1 1/3/1 191/183/1 190/182/1 198/190/1 200/192/1
f 1/3/1 5/2/1 6/179/1 7/177/1 8/175/1 9/173/1 10/171/1 11/169/1 12/167/1 13/165/1 14/164/1 2/163/1 194/186/1 193/185/1 189/181/1 191/183/1
f 2/163/1 15/151/1 16/139/1 17/127/1 18/115/1 19/103/1 20/91/1 21/79/1 22/67/1 23/45/1 24/26/1 4/25/1 197/189/1 196/188/1 192/184/1 194/186/1
f 4/25/1 25/28/1 26/30/1 27/32/1 28/34/1 29/36/1 30/38/1 31/40/1 32/42/1 33/44/1 34/5/1 3/8/1 200/192/1 199/191/1 195/187/1 197/189/1
