# Blender 5.2.1 LTS
# www.blender.org
mtllib ButtonBody.mtl
o Cube.089
v -0.091629 -0.068895 0.180000
v -0.180000 -0.068895 0.091629
v -0.180000 -0.068895 -0.091629
v -0.091629 -0.068895 -0.180000
v 0.180000 -0.068895 0.091629
v 0.091629 -0.068895 0.180000
v 0.091629 -0.068895 -0.180000
v 0.180000 -0.068895 -0.091629
v -0.152279 0.006298 0.075916
v -0.167165 -0.008588 0.082082
v -0.075916 0.006298 0.152278
v -0.082082 -0.008588 0.167165
v -0.075916 0.006298 -0.152279
v -0.082082 -0.008588 -0.167165
v -0.152279 0.006298 -0.075916
v -0.167165 -0.008588 -0.082083
v 0.075916 0.006298 0.152278
v 0.082082 -0.008588 0.167165
v 0.152279 0.006298 0.075916
v 0.167165 -0.008588 0.082082
v 0.152279 0.006298 -0.075916
v 0.167165 -0.008588 -0.082083
v 0.075916 0.006298 -0.152279
v 0.082082 -0.008588 -0.167165
v -0.091629 -0.005867 0.180000
v -0.180000 -0.005867 0.091629
v -0.180000 -0.005867 -0.091629
v -0.091629 -0.005867 -0.180000
v 0.091629 -0.005867 -0.180000
v 0.180000 -0.005867 -0.091629
v 0.180000 -0.005867 0.091629
v 0.091629 -0.005867 0.180000
v -0.083320 -0.001465 0.175599
v -0.076611 0.014732 0.159401
v -0.159401 0.014732 0.076611
v -0.175599 -0.001465 0.083320
v -0.175599 -0.001465 -0.083320
v -0.159401 0.014732 -0.076611
v -0.076611 0.014732 -0.159401
v -0.083320 -0.001465 -0.175599
v 0.083320 -0.001465 -0.175599
v 0.076611 0.014732 -0.159401
v 0.159401 0.014732 -0.076611
v 0.175599 -0.001465 -0.083320
v 0.175599 -0.001465 0.083320
v 0.159401 0.014732 0.076611
v 0.076611 0.014732 0.159401
v 0.083320 -0.001465 0.175599
v -0.155000 0.019133 0.081273
v -0.155000 0.019133 -0.081274
v 0.081273 0.019133 0.155000
v -0.081273 0.019133 0.155000
v 0.155000 0.019133 -0.081274
v 0.155000 0.019133 0.081273
v -0.081273 0.019133 -0.155000
v 0.081273 0.019133 -0.155000
v -0.078526 0.019133 0.148367
v -0.148367 0.019133 0.078526
v -0.148367 0.019133 -0.078526
v -0.078526 0.019133 -0.148367
v 0.078526 0.019133 -0.148367
v 0.148367 0.019133 -0.078526
v 0.148367 0.019133 0.078526
v 0.078526 0.019133 0.148367
v -0.070110 0.019133 0.128049
v -0.128049 0.019133 0.070110
v -0.128049 0.019133 -0.070110
v -0.070110 0.019133 -0.128049
v 0.070110 0.019133 -0.128049
v 0.128049 0.019133 -0.070110
v 0.128049 0.019133 0.070110
v 0.070110 0.019133 0.128049
v -0.060151 0.003192 0.106434
v -0.106434 0.003192 0.060151
v -0.106434 0.003192 -0.060151
v -0.060151 0.003192 -0.106434
v 0.060151 0.003192 -0.106434
v 0.106434 0.003192 -0.060151
v 0.106434 0.003192 0.060151
v 0.060151 0.003192 0.106434
v -0.050439 0.003192 0.082987
v -0.082987 0.003192 0.050439
v -0.082987 0.003192 -0.050439
v -0.050439 0.003192 -0.082987
v 0.050439 0.003192 -0.082987
v 0.082987 0.003192 -0.050439
v 0.082987 0.003192 0.050439
v 0.050439 0.003192 0.082987
vn -0.0000 -1.0000 -0.0000
vn -0.5000 0.7071 0.5000
vn -0.5000 0.7071 -0.5000
vn 0.5000 0.7071 -0.5000
vn 0.5000 0.7071 0.5000
vn -0.7071 0.7071 -0.0000
vn -0.0000 0.7071 0.7071
vn 0.7071 0.7071 -0.0000
vn -0.0000 0.7071 -0.7071
vn -0.7071 -0.0000 0.7071
vn -1.0000 -0.0000 -0.0000
vn -0.0000 -0.0000 1.0000
vn -0.7071 -0.0000 -0.7071
vn -0.0000 -0.0000 -1.0000
vn 0.7071 -0.0000 0.7071
vn 1.0000 -0.0000 -0.0000
vn 0.7071 -0.0000 -0.7071
vn 0.9563 -0.1387 0.2574
vn -0.2574 -0.1387 -0.9563
vn -0.2574 -0.1387 0.9563
vn 0.9563 -0.1387 -0.2574
vn -0.9563 -0.1387 -0.2574
vn 0.2574 -0.1387 0.9563
vn 0.2574 -0.1387 -0.9563
vn -0.9563 -0.1387 0.2574
vn -0.7640 -0.6452 -0.0000
vn 0.6452 0.7640 -0.0000
vn -0.0000 -0.6452 0.7640
vn -0.0000 0.7640 -0.6452
vn -0.6452 0.7640 -0.0000
vn 0.7640 -0.6452 -0.0000
vn -0.0000 0.7640 0.6452
vn -0.0000 -0.6452 -0.7640
vn -0.0000 1.0000 -0.0000
vn 0.4109 0.8138 -0.4109
vn 0.4109 0.8138 0.4109
vn -0.4109 0.8138 0.4109
vn -0.4109 0.8138 -0.4109
vn 0.5935 0.8048 -0.0000
vn -0.0000 0.8048 -0.5935
vn -0.5935 0.8048 -0.0000
vn -0.0000 0.8048 0.5935
vt 0.125000 0.561369
vt 0.186369 0.500000
vt 0.354544 0.459087
vt 0.375000 0.561369
vt 0.375000 0.688631
vt 0.354544 0.790913
vt 0.186369 0.750000
vt 0.125000 0.688631
vt 0.803174 0.735130
vt 0.856591 0.681663
vt 0.875000 0.688631
vt 0.813631 0.750000
vt 0.856591 0.568337
vt 0.803174 0.514870
vt 0.813631 0.500000
vt 0.875000 0.561369
vt 0.661934 0.486620
vt 0.637389 0.564747
vt 0.567130 0.561369
vt 0.594951 0.459087
vt 0.637389 0.685253
vt 0.661934 0.763380
vt 0.594951 0.790913
vt 0.567130 0.688631
vt 0.860315 0.677886
vt 0.860315 0.572114
vt 0.871276 0.567958
vt 0.871276 0.682042
vt 0.655937 0.767490
vt 0.797737 0.739597
vt 0.803202 0.748568
vt 0.616813 0.783768
vt 0.581341 0.682689
vt 0.581341 0.567311
vt 0.623178 0.569432
vt 0.623177 0.680568
vt 0.616813 0.466232
vt 0.803202 0.501432
vt 0.797737 0.510403
vt 0.655937 0.482510
vt 0.375000 0.000000
vt 0.567130 0.000000
vt 0.567130 0.061369
vt 0.375000 0.061369
vt 0.567130 0.188631
vt 0.375000 0.188631
vt 0.567130 0.938631
vt 0.375000 0.938631
vt 0.567130 0.311369
vt 0.375000 0.311369
vt 0.804511 0.748760
vt 0.798469 0.739014
vt 0.859832 0.678376
vt 0.871759 0.682897
vt 0.871759 0.567103
vt 0.859832 0.571624
vt 0.798469 0.510986
vt 0.804511 0.501240
vt 0.614022 0.465312
vt 0.656688 0.483039
vt 0.625020 0.568829
vt 0.579498 0.566534
vt 0.579498 0.683466
vt 0.625020 0.681171
vt 0.656688 0.766961
vt 0.614022 0.784688
vt 0.800608 0.730963
vt 0.851652 0.679857
vt 0.851651 0.570143
vt 0.800608 0.519037
vt 0.665926 0.493559
vt 0.640902 0.565985
vt 0.640902 0.684015
vt 0.665926 0.756441
vt 0.000000 0.000000
vt 0.793092 0.717807
vt 0.836424 0.674363
vt 0.836424 0.575637
vt 0.793092 0.532193
vt 0.677343 0.514089
vt 0.652229 0.570406
vt 0.652229 0.679594
vt 0.677343 0.735911
vt 0.787911 0.707726
vt 0.825137 0.670342
vt 0.825137 0.579658
vt 0.787911 0.542275
vt 0.684959 0.528492
vt 0.661081 0.574259
vt 0.661081 0.675741
vt 0.684959 0.721508
vt 0.779724 0.690355
vt 0.806241 0.663614
vt 0.806241 0.586386
vt 0.779724 0.559646
vt 0.696349 0.551395
vt 0.676775 0.581541
vt 0.676775 0.668459
vt 0.696349 0.698605
s 0
f 3/1/1 4/2/1 7/3/1 8/4/1 5/5/1 6/6/1 1/7/1 2/8/1
f 52/9/2 49/10/2 26/11/2 25/12/2
f 50/13/3 55/14/3 28/15/3 27/16/3
f 56/17/4 53/18/4 30/19/4 29/20/4
f 54/21/5 51/22/5 32/23/5 31/24/5
f 9/25/6 15/26/6 16/27/6 10/28/6
f 17/29/7 11/30/7 12/31/7 18/32/7
f 20/33/8 22/34/8 21/35/8 19/36/8
f 24/37/9 14/38/9 13/39/9 23/40/9
f 1/41/10 25/42/10 26/43/10 2/44/10
f 2/44/11 26/43/11 27/45/11 3/46/11
f 6/6/12 32/23/12 25/47/12 1/48/12
f 28/49/13 4/50/13 3/46/13 27/45/13
f 4/50/14 28/49/14 29/20/14 7/3/14
f 32/23/15 6/6/15 5/5/15 31/24/15
f 8/4/16 30/19/16 31/24/16 5/5/16
f 30/19/17 8/4/17 7/3/17 29/20/17
f 33/51/7 34/52/7 52/9/7 25/12/7
f 35/53/6 36/54/6 26/11/6 49/10/6
f 37/55/6 38/56/6 50/13/6 27/16/6
f 39/57/9 40/58/9 28/15/9 55/14/9
f 41/59/9 42/60/9 56/17/9 29/20/9
f 43/61/8 44/62/8 30/19/8 53/18/8
f 45/63/8 46/64/8 54/21/8 31/24/8
f 47/65/7 48/66/7 32/23/7 51/22/7
f 38/56/6 35/53/6 49/10/6 50/13/6
f 36/54/6 37/55/6 27/16/6 26/11/6
f 34/52/7 47/65/7 51/22/7 52/9/7
f 48/66/7 33/51/7 25/12/7 32/23/7
f 44/62/8 45/63/8 31/24/8 30/19/8
f 46/64/8 43/61/8 53/18/8 54/21/8
f 40/58/9 41/59/9 29/20/9 28/15/9
f 42/60/9 39/57/9 55/14/9 56/17/9
f 12/31/18 11/30/18 34/52/18 33/51/18
f 9/25/19 10/28/19 36/54/19 35/53/19
f 16/27/20 15/26/20 38/56/20 37/55/20
f 13/39/21 14/38/21 40/58/21 39/57/21
f 24/37/22 23/40/22 42/60/22 41/59/22
f 21/35/23 22/34/23 44/62/23 43/61/23
f 20/33/24 19/36/24 46/64/24 45/63/24
f 17/29/25 18/32/25 48/66/25 47/65/25
f 15/26/26 9/25/26 35/53/26 38/56/26
f 10/28/27 16/27/27 37/55/27 36/54/27
f 11/30/28 17/29/28 47/65/28 34/52/28
f 18/32/29 12/31/29 33/51/29 48/66/29
f 22/34/30 20/33/30 45/63/30 44/62/30
f 19/36/31 21/35/31 43/61/31 46/64/31
f 14/38/32 24/37/32 41/59/32 40/58/32
f 23/40/33 13/39/33 39/57/33 42/60/33
f 57/67/34 58/68/34 49/10/34 52/9/34
f 59/69/34 60/70/34 55/14/34 50/13/34
f 61/71/34 62/72/34 53/18/34 56/17/34
f 63/73/34 64/74/34 51/22/34 54/21/34
f 52/9/34 51/22/34 64/74/34 57/67/34
f 62/75/34 54/75/34 53/75/34
f 63/75/34 54/75/34 62/75/34
f 60/75/34 56/75/34 55/75/34
f 60/75/34 61/75/34 56/75/34
f 49/75/34 59/75/34 50/75/34
f 49/75/34 58/75/34 59/75/34
f 65/76/34 66/77/34 58/68/34 57/67/34
f 67/78/34 68/79/34 60/70/34 59/69/34
f 69/80/34 70/81/34 62/72/34 61/71/34
f 71/82/34 72/83/34 64/74/34 63/73/34
f 66/77/34 67/78/34 59/69/34 58/68/34
f 72/83/34 65/76/34 57/67/34 64/74/34
f 70/81/34 71/82/34 63/73/34 62/72/34
f 68/79/34 69/80/34 61/71/34 60/70/34
f 73/84/35 74/85/35 66/77/35 65/76/35
f 75/86/36 76/87/36 68/79/36 67/78/36
f 77/88/37 78/89/37 70/81/37 69/80/37
f 79/90/38 80/91/38 72/83/38 71/82/38
f 74/85/39 75/86/39 67/78/39 66/77/39
f 80/91/40 73/84/40 65/76/40 72/83/40
f 78/89/41 79/90/41 71/82/41 70/81/41
f 76/87/42 77/88/42 69/80/42 68/79/42
f 81/92/34 82/93/34 74/85/34 73/84/34
f 83/94/34 84/95/34 76/87/34 75/86/34
f 85/96/34 86/97/34 78/89/34 77/88/34
f 87/98/34 88/99/34 80/91/34 79/90/34
f 82/93/34 83/94/34 75/86/34 74/85/34
f 88/99/34 81/92/34 73/84/34 80/91/34
f 86/97/34 87/98/34 79/90/34 78/89/34
f 84/95/34 85/96/34 77/88/34 76/87/34
