# Blender 5.2.1 LTS
# www.blender.org
mtllib ButtonIdk.mtl
o Cube.092
v -0.081274 0.019133 -0.155000
v 0.081273 0.019133 -0.155000
v -0.078526 0.019133 -0.148367
v 0.078526 0.019133 -0.148367
v -0.063213 0.019133 -0.155000
v -0.045152 0.019133 -0.155000
v -0.027091 0.019133 -0.155000
v -0.009030 0.019133 -0.155000
v 0.009030 0.019133 -0.155000
v 0.027091 0.019133 -0.155000
v 0.045152 0.019133 -0.155000
v 0.063213 0.019133 -0.155000
v -0.061076 0.019133 -0.148367
v -0.043626 0.019133 -0.148367
v -0.026175 0.019133 -0.148367
v -0.008725 0.019133 -0.148367
v 0.008725 0.019133 -0.148367
v 0.026175 0.019133 -0.148367
v 0.043626 0.019133 -0.148367
v 0.061076 0.019133 -0.148367
v -0.079625 0.025926 -0.153898
v 0.079625 0.025926 -0.153898
v 0.077790 0.025926 -0.149469
v -0.077790 0.025926 -0.149469
v 0.060503 0.025926 -0.149469
v 0.043217 0.025926 -0.149469
v 0.025930 0.025926 -0.149469
v 0.008643 0.025926 -0.149469
v -0.008643 0.025926 -0.149469
v -0.025930 0.025926 -0.149469
v -0.043217 0.025926 -0.149469
v -0.060503 0.025926 -0.149469
v -0.061930 0.025926 -0.153898
v -0.044236 0.025926 -0.153898
v -0.026542 0.025926 -0.153898
v -0.008847 0.025926 -0.153898
v 0.008847 0.025926 -0.153898
v 0.026541 0.025926 -0.153898
v 0.044236 0.025926 -0.153898
v 0.061930 0.025926 -0.153898
v 0.079467 0.019133 -0.155000
v 0.076781 0.019133 -0.148367
v 0.076061 0.025926 -0.149469
v 0.077855 0.025926 -0.153898
v 0.063523 0.025926 -0.153898
v 0.064838 0.019133 -0.155000
v 0.062646 0.019133 -0.148367
v 0.062059 0.025926 -0.149469
v 0.061407 0.019133 -0.155000
v 0.059331 0.019133 -0.148367
v 0.060161 0.025926 -0.153898
v 0.058775 0.025926 -0.149469
v 0.043346 0.019133 -0.155000
v 0.041881 0.019133 -0.148367
v 0.042466 0.025926 -0.153898
v 0.041488 0.025926 -0.149469
v 0.045828 0.025926 -0.153898
v 0.046777 0.019133 -0.155000
v 0.045196 0.019133 -0.148367
v 0.044772 0.025926 -0.149469
v 0.025285 0.019133 -0.155000
v 0.024430 0.019133 -0.148367
v 0.024772 0.025926 -0.153898
v 0.024201 0.025926 -0.149469
v 0.028134 0.025926 -0.153898
v 0.028717 0.019133 -0.155000
v 0.027746 0.019133 -0.148367
v 0.027486 0.025926 -0.149469
v 0.007224 0.019133 -0.155000
v 0.006980 0.019133 -0.148367
v 0.007078 0.025926 -0.153898
v 0.006915 0.025926 -0.149469
v 0.010440 0.025926 -0.153898
v 0.010656 0.019133 -0.155000
v 0.010296 0.019133 -0.148367
v 0.010199 0.025926 -0.149469
v -0.007255 0.025926 -0.153898
v -0.007405 0.019133 -0.155000
v -0.007155 0.019133 -0.148367
v -0.007088 0.025926 -0.149469
v -0.010837 0.019133 -0.155000
v -0.010470 0.019133 -0.148367
v -0.010617 0.025926 -0.153898
v -0.010372 0.025926 -0.149469
v -0.024949 0.025926 -0.153898
v -0.025466 0.019133 -0.155000
v -0.024605 0.019133 -0.148367
v -0.024374 0.025926 -0.149469
v -0.028897 0.019133 -0.155000
v -0.027920 0.019133 -0.148367
v -0.028311 0.025926 -0.153898
v -0.027659 0.025926 -0.149469
v -0.042643 0.025926 -0.153898
v -0.043527 0.019133 -0.155000
v -0.042055 0.019133 -0.148367
v -0.041661 0.025926 -0.149469
v -0.046958 0.019133 -0.155000
v -0.045371 0.019133 -0.148367
v -0.046005 0.025926 -0.153898
v -0.044945 0.025926 -0.149469
v -0.060338 0.025926 -0.153898
v -0.061587 0.019133 -0.155000
v -0.059505 0.019133 -0.148367
v -0.058948 0.025926 -0.149469
v -0.065019 0.019133 -0.155000
v -0.062821 0.019133 -0.148367
v -0.063700 0.025926 -0.153898
v -0.062232 0.025926 -0.149469
v -0.078032 0.025926 -0.153898
v -0.079648 0.019133 -0.155000
v -0.076956 0.019133 -0.148367
v -0.076234 0.025926 -0.149469
v 0.077698 0.026776 -0.149607
v 0.077032 0.027624 -0.150604
v 0.077465 0.027376 -0.149956
v -0.077032 0.027624 -0.150604
v -0.077698 0.026776 -0.149607
v -0.077465 0.027376 -0.149956
v 0.077926 0.027624 -0.152763
v 0.079418 0.026776 -0.153761
v 0.078896 0.027376 -0.153412
v -0.077926 0.027624 -0.152763
v -0.079418 0.026776 -0.153761
v -0.078896 0.027376 -0.153411
v -0.061333 0.027624 -0.152763
v -0.061770 0.026776 -0.153761
v -0.061575 0.027376 -0.153411
v -0.043809 0.027624 -0.152763
v -0.044121 0.026776 -0.153761
v -0.043982 0.027376 -0.153411
v -0.026285 0.027624 -0.152763
v -0.026473 0.026776 -0.153761
v -0.026390 0.027376 -0.153411
v -0.008762 0.027624 -0.152763
v -0.008824 0.026776 -0.153761
v -0.008797 0.027376 -0.153412
v 0.008762 0.027624 -0.152763
v 0.008824 0.026776 -0.153761
v 0.008796 0.027376 -0.153412
v 0.026285 0.027624 -0.152763
v 0.026473 0.026776 -0.153761
v 0.026389 0.027376 -0.153412
v 0.043809 0.027624 -0.152763
v 0.044121 0.026776 -0.153761
v 0.043982 0.027376 -0.153412
v 0.061333 0.027624 -0.152763
v 0.061770 0.026776 -0.153761
v 0.061575 0.027376 -0.153412
v -0.060432 0.026776 -0.149607
v -0.060637 0.027624 -0.150604
v -0.060462 0.027376 -0.149956
v -0.043166 0.026776 -0.149607
v -0.043312 0.027624 -0.150604
v -0.043187 0.027376 -0.149956
v -0.025899 0.026776 -0.149607
v -0.025987 0.027624 -0.150604
v -0.025912 0.027376 -0.149956
v -0.008633 0.026776 -0.149607
v -0.008662 0.027624 -0.150604
v -0.008638 0.027376 -0.149956
v 0.008633 0.026776 -0.149607
v 0.008662 0.027624 -0.150604
v 0.008637 0.027376 -0.149956
v 0.025899 0.026776 -0.149607
v 0.025987 0.027624 -0.150604
v 0.025912 0.027376 -0.149956
v 0.043165 0.026776 -0.149607
v 0.043312 0.027624 -0.150604
v 0.043187 0.027376 -0.149956
v 0.060432 0.026776 -0.149607
v 0.060637 0.027624 -0.150604
v 0.060462 0.027376 -0.149956
v 0.077653 0.026776 -0.153761
v 0.077104 0.027624 -0.152763
v 0.077409 0.027376 -0.153412
v 0.076229 0.027624 -0.150604
v 0.075971 0.026776 -0.149607
v 0.076010 0.027376 -0.149956
v 0.063358 0.026776 -0.153761
v 0.062910 0.027624 -0.152763
v 0.063159 0.027376 -0.153412
v 0.062196 0.027624 -0.150604
v 0.061986 0.026776 -0.149607
v 0.062017 0.027376 -0.149956
v 0.060005 0.026776 -0.153761
v 0.059580 0.027624 -0.152763
v 0.059816 0.027376 -0.153412
v 0.058905 0.027624 -0.150604
v 0.058705 0.026776 -0.149607
v 0.058735 0.027376 -0.149956
v 0.042356 0.026776 -0.153761
v 0.042057 0.027624 -0.152763
v 0.042223 0.027376 -0.153412
v 0.041580 0.027624 -0.150604
v 0.041439 0.026776 -0.149607
v 0.041460 0.027376 -0.149956
v 0.045710 0.026776 -0.153761
v 0.045386 0.027624 -0.152763
v 0.045566 0.027376 -0.153412
v 0.044871 0.027624 -0.150604
v 0.044719 0.026776 -0.149607
v 0.044742 0.027376 -0.149956
v 0.024708 0.026776 -0.153761
v 0.024533 0.027624 -0.152763
v 0.024630 0.027376 -0.153412
v 0.024255 0.027624 -0.150604
v 0.024173 0.026776 -0.149607
v 0.024185 0.027376 -0.149956
v 0.028061 0.026776 -0.153761
v 0.027863 0.027624 -0.152763
v 0.027973 0.027376 -0.153412
v 0.027547 0.027624 -0.150604
v 0.027453 0.026776 -0.149607
v 0.027467 0.027376 -0.149956
v 0.007059 0.026776 -0.153761
v 0.007009 0.027624 -0.152763
v 0.007037 0.027376 -0.153412
v 0.006930 0.027624 -0.150604
v 0.006906 0.026776 -0.149607
v 0.006910 0.027376 -0.149956
v 0.010413 0.026776 -0.153761
v 0.010339 0.027624 -0.152763
v 0.010380 0.027376 -0.153412
v 0.010222 0.027624 -0.150604
v 0.010187 0.026776 -0.149607
v 0.010192 0.027376 -0.149956
v -0.007236 0.026776 -0.153761
v -0.007185 0.027624 -0.152763
v -0.007213 0.027376 -0.153412
v -0.007103 0.027624 -0.150604
v -0.007079 0.026776 -0.149607
v -0.007083 0.027376 -0.149956
v -0.010589 0.026776 -0.153761
v -0.010514 0.027624 -0.152763
v -0.010556 0.027376 -0.153412
v -0.010395 0.027624 -0.150604
v -0.010360 0.026776 -0.149607
v -0.010365 0.027376 -0.149956
v -0.024884 0.026776 -0.153761
v -0.024708 0.027624 -0.152763
v -0.024806 0.027376 -0.153411
v -0.024428 0.027624 -0.150604
v -0.024345 0.026776 -0.149607
v -0.024358 0.027376 -0.149956
v -0.028238 0.026776 -0.153761
v -0.028038 0.027624 -0.152763
v -0.028149 0.027376 -0.153411
v -0.027720 0.027624 -0.150604
v -0.027626 0.026776 -0.149607
v -0.027640 0.027376 -0.149956
v -0.042533 0.026776 -0.153761
v -0.042232 0.027624 -0.152763
v -0.042399 0.027376 -0.153411
v -0.041753 0.027624 -0.150604
v -0.041612 0.026776 -0.149607
v -0.041633 0.027376 -0.149956
v -0.045886 0.026776 -0.153761
v -0.045561 0.027624 -0.152763
v -0.045742 0.027376 -0.153411
v -0.045045 0.027624 -0.150604
v -0.044892 0.026776 -0.149607
v -0.044915 0.027376 -0.149956
v -0.060181 0.026776 -0.153761
v -0.059756 0.027624 -0.152763
v -0.059992 0.027376 -0.153411
v -0.059078 0.027624 -0.150604
v -0.058878 0.026776 -0.149607
v -0.058908 0.027376 -0.149956
v -0.063535 0.026776 -0.153761
v -0.063085 0.027624 -0.152763
v -0.063335 0.027376 -0.153411
v -0.062370 0.027624 -0.150604
v -0.062158 0.026776 -0.149607
v -0.062190 0.027376 -0.149956
v -0.077830 0.026776 -0.153761
v -0.077279 0.027624 -0.152763
v -0.077585 0.027376 -0.153411
v -0.076403 0.027624 -0.150604
v -0.076144 0.026776 -0.149607
v -0.076182 0.027376 -0.149956
v 0.081273 0.019133 0.155000
v -0.081273 0.019133 0.155000
v 0.078526 0.019133 0.148367
v -0.078526 0.019133 0.148367
v 0.063213 0.019133 0.155000
v 0.045152 0.019133 0.155000
v 0.027091 0.019133 0.155000
v 0.009030 0.019133 0.155000
v -0.009030 0.019133 0.155000
v -0.027091 0.019133 0.155000
v -0.045152 0.019133 0.155000
v -0.063213 0.019133 0.155000
v 0.061076 0.019133 0.148367
v 0.043626 0.019133 0.148367
v 0.026175 0.019133 0.148367
v 0.008725 0.019133 0.148367
v -0.008725 0.019133 0.148367
v -0.026175 0.019133 0.148367
v -0.043626 0.019133 0.148367
v -0.061076 0.019133 0.148367
v 0.079625 0.025926 0.153898
v -0.079625 0.025926 0.153898
v -0.077790 0.025926 0.149469
v 0.077790 0.025926 0.149469
v -0.060503 0.025926 0.149469
v -0.043217 0.025926 0.149469
v -0.025930 0.025926 0.149469
v -0.008643 0.025926 0.149469
v 0.008643 0.025926 0.149469
v 0.025930 0.025926 0.149469
v 0.043217 0.025926 0.149469
v 0.060503 0.025926 0.149469
v 0.061930 0.025926 0.153898
v 0.044236 0.025926 0.153898
v 0.026542 0.025926 0.153898
v 0.008847 0.025926 0.153898
v -0.008847 0.025926 0.153898
v -0.026542 0.025926 0.153898
v -0.044236 0.025926 0.153898
v -0.061930 0.025926 0.153898
v -0.079467 0.019133 0.155000
v -0.076781 0.019133 0.148367
v -0.076061 0.025926 0.149469
v -0.077855 0.025926 0.153898
v -0.063523 0.025926 0.153898
v -0.064838 0.019133 0.155000
v -0.062646 0.019133 0.148367
v -0.062059 0.025926 0.149469
v -0.061407 0.019133 0.155000
v -0.059331 0.019133 0.148367
v -0.060161 0.025926 0.153898
v -0.058775 0.025926 0.149469
v -0.043346 0.019133 0.155000
v -0.041881 0.019133 0.148367
v -0.042466 0.025926 0.153898
v -0.041488 0.025926 0.149469
v -0.045828 0.025926 0.153898
v -0.046777 0.019133 0.155000
v -0.045196 0.019133 0.148367
v -0.044772 0.025926 0.149469
v -0.025285 0.019133 0.155000
v -0.024430 0.019133 0.148367
v -0.024772 0.025926 0.153898
v -0.024201 0.025926 0.149469
v -0.028134 0.025926 0.153898
v -0.028717 0.019133 0.155000
v -0.027746 0.019133 0.148367
v -0.027486 0.025926 0.149469
v -0.007224 0.019133 0.155000
v -0.006980 0.019133 0.148367
v -0.007078 0.025926 0.153898
v -0.006915 0.025926 0.149469
v -0.010440 0.025926 0.153898
v -0.010656 0.019133 0.155000
v -0.010296 0.019133 0.148367
v -0.010199 0.025926 0.149469
v 0.007255 0.025926 0.153898
v 0.007405 0.019133 0.155000
v 0.007155 0.019133 0.148367
v 0.007088 0.025926 0.149469
v 0.010836 0.019133 0.155000
v 0.010470 0.019133 0.148367
v 0.010617 0.025926 0.153898
v 0.010372 0.025926 0.149469
v 0.024949 0.025926 0.153898
v 0.025466 0.019133 0.155000
v 0.024605 0.019133 0.148367
v 0.024374 0.025926 0.149469
v 0.028897 0.019133 0.155000
v 0.027920 0.019133 0.148367
v 0.028311 0.025926 0.153898
v 0.027659 0.025926 0.149469
v 0.042643 0.025926 0.153898
v 0.043526 0.019133 0.155000
v 0.042055 0.019133 0.148367
v 0.041661 0.025926 0.149469
v 0.046958 0.019133 0.155000
v 0.045371 0.019133 0.148367
v 0.046005 0.025926 0.153898
v 0.044945 0.025926 0.149469
v 0.060338 0.025926 0.153898
v 0.061587 0.019133 0.155000
v 0.059505 0.019133 0.148367
v 0.058947 0.025926 0.149469
v 0.065019 0.019133 0.155000
v 0.062821 0.019133 0.148367
v 0.063700 0.025926 0.153898
v 0.062232 0.025926 0.149469
v 0.078032 0.025926 0.153898
v 0.079648 0.019133 0.155000
v 0.076956 0.019133 0.148367
v 0.076234 0.025926 0.149469
v -0.077698 0.026776 0.149607
v -0.077032 0.027624 0.150604
v -0.077465 0.027376 0.149956
v 0.077032 0.027624 0.150604
v 0.077698 0.026776 0.149607
v 0.077465 0.027376 0.149956
v -0.077926 0.027624 0.152763
v -0.079418 0.026776 0.153760
v -0.078896 0.027376 0.153411
v 0.077926 0.027624 0.152763
v 0.079418 0.026776 0.153760
v 0.078896 0.027376 0.153411
v 0.061333 0.027624 0.152763
v 0.061770 0.026776 0.153760
v 0.061575 0.027376 0.153411
v 0.043809 0.027624 0.152763
v 0.044121 0.026776 0.153760
v 0.043982 0.027376 0.153411
v 0.026285 0.027624 0.152763
v 0.026473 0.026776 0.153760
v 0.026389 0.027376 0.153411
v 0.008762 0.027624 0.152763
v 0.008824 0.026776 0.153760
v 0.008796 0.027376 0.153411
v -0.008762 0.027624 0.152763
v -0.008824 0.026776 0.153760
v -0.008796 0.027376 0.153411
v -0.026285 0.027624 0.152763
v -0.026473 0.026776 0.153760
v -0.026389 0.027376 0.153411
v -0.043809 0.027624 0.152763
v -0.044121 0.026776 0.153760
v -0.043982 0.027376 0.153411
v -0.061333 0.027624 0.152763
v -0.061770 0.026776 0.153760
v -0.061575 0.027376 0.153411
v 0.060432 0.026776 0.149607
v 0.060637 0.027624 0.150604
v 0.060462 0.027376 0.149956
v 0.043165 0.026776 0.149607
v 0.043312 0.027624 0.150604
v 0.043187 0.027376 0.149956
v 0.025899 0.026776 0.149607
v 0.025987 0.027624 0.150604
v 0.025912 0.027376 0.149956
v 0.008633 0.026776 0.149607
v 0.008662 0.027624 0.150604
v 0.008637 0.027376 0.149956
v -0.008633 0.026776 0.149607
v -0.008662 0.027624 0.150604
v -0.008637 0.027376 0.149956
v -0.025899 0.026776 0.149607
v -0.025987 0.027624 0.150604
v -0.025912 0.027376 0.149956
v -0.043165 0.026776 0.149607
v -0.043312 0.027624 0.150604
v -0.043187 0.027376 0.149956
v -0.060432 0.026776 0.149607
v -0.060637 0.027624 0.150604
v -0.060462 0.027376 0.149956
v -0.077653 0.026776 0.153760
v -0.077104 0.027624 0.152763
v -0.077409 0.027376 0.153411
v -0.076229 0.027624 0.150604
v -0.075971 0.026776 0.149607
v -0.076010 0.027376 0.149956
v -0.063358 0.026776 0.153760
v -0.062910 0.027624 0.152763
v -0.063159 0.027376 0.153411
v -0.062196 0.027624 0.150604
v -0.061986 0.026776 0.149607
v -0.062017 0.027376 0.149956
v -0.060005 0.026776 0.153760
v -0.059580 0.027624 0.152763
v -0.059816 0.027376 0.153411
v -0.058905 0.027624 0.150604
v -0.058705 0.026776 0.149607
v -0.058735 0.027376 0.149956
v -0.042356 0.026776 0.153760
v -0.042057 0.027624 0.152763
v -0.042223 0.027376 0.153411
v -0.041580 0.027624 0.150604
v -0.041439 0.026776 0.149607
v -0.041460 0.027376 0.149956
v -0.045710 0.026776 0.153760
v -0.045386 0.027624 0.152763
v -0.045566 0.027376 0.153411
v -0.044871 0.027624 0.150604
v -0.044719 0.026776 0.149607
v -0.044742 0.027376 0.149956
v -0.024708 0.026776 0.153760
v -0.024533 0.027624 0.152763
v -0.024630 0.027376 0.153411
v -0.024255 0.027624 0.150604
v -0.024173 0.026776 0.149607
v -0.024185 0.027376 0.149956
v -0.028061 0.026776 0.153760
v -0.027863 0.027624 0.152763
v -0.027973 0.027376 0.153411
v -0.027547 0.027624 0.150604
v -0.027453 0.026776 0.149607
v -0.027467 0.027376 0.149956
v -0.007059 0.026776 0.153760
v -0.007009 0.027624 0.152763
v -0.007037 0.027376 0.153411
v -0.006930 0.027624 0.150604
v -0.006906 0.026776 0.149607
v -0.006910 0.027376 0.149956
v -0.010413 0.026776 0.153760
v -0.010339 0.027624 0.152763
v -0.010380 0.027376 0.153411
v -0.010222 0.027624 0.150604
v -0.010187 0.026776 0.149607
v -0.010192 0.027376 0.149956
v 0.007236 0.026776 0.153760
v 0.007185 0.027624 0.152763
v 0.007213 0.027376 0.153411
v 0.007103 0.027624 0.150604
v 0.007079 0.026776 0.149607
v 0.007083 0.027376 0.149956
v 0.010589 0.026776 0.153760
v 0.010514 0.027624 0.152763
v 0.010556 0.027376 0.153411
v 0.010395 0.027624 0.150604
v 0.010360 0.026776 0.149607
v 0.010365 0.027376 0.149956
v 0.024884 0.026776 0.153760
v 0.024708 0.027624 0.152763
v 0.024806 0.027376 0.153411
v 0.024428 0.027624 0.150604
v 0.024345 0.026776 0.149607
v 0.024358 0.027376 0.149956
v 0.028238 0.026776 0.153760
v 0.028038 0.027624 0.152763
v 0.028149 0.027376 0.153411
v 0.027720 0.027624 0.150604
v 0.027626 0.026776 0.149607
v 0.027640 0.027376 0.149956
v 0.042533 0.026776 0.153760
v 0.042232 0.027624 0.152763
v 0.042399 0.027376 0.153411
v 0.041753 0.027624 0.150604
v 0.041612 0.026776 0.149607
v 0.041633 0.027376 0.149956
v 0.045886 0.026776 0.153760
v 0.045561 0.027624 0.152763
v 0.045742 0.027376 0.153411
v 0.045045 0.027624 0.150604
v 0.044892 0.026776 0.149607
v 0.044915 0.027376 0.149956
v 0.060181 0.026776 0.153760
v 0.059756 0.027624 0.152763
v 0.059992 0.027376 0.153411
v 0.059078 0.027624 0.150604
v 0.058878 0.026776 0.149607
v 0.058907 0.027376 0.149956
v 0.063535 0.026776 0.153760
v 0.063085 0.027624 0.152763
v 0.063335 0.027376 0.153411
v 0.062370 0.027624 0.150604
v 0.062158 0.026776 0.149607
v 0.062190 0.027376 0.149956
v 0.077830 0.026776 0.153760
v 0.077279 0.027624 0.152763
v 0.077585 0.027376 0.153411
v 0.076403 0.027624 0.150604
v 0.076144 0.026776 0.149607
v 0.076182 0.027376 0.149956
v 0.155000 0.019133 -0.081274
v 0.155000 0.019133 0.081273
v 0.148367 0.019133 -0.078526
v 0.148367 0.019133 0.078526
v 0.155000 0.019133 -0.063213
v 0.155000 0.019133 -0.045152
v 0.155000 0.019133 -0.027091
v 0.155000 0.019133 -0.009031
v 0.155000 0.019133 0.009030
v 0.155000 0.019133 0.027091
v 0.155000 0.019133 0.045152
v 0.155000 0.019133 0.063213
v 0.148367 0.019133 -0.061076
v 0.148367 0.019133 -0.043626
v 0.148367 0.019133 -0.026176
v 0.148367 0.019133 -0.008725
v 0.148367 0.019133 0.008725
v 0.148367 0.019133 0.026175
v 0.148367 0.019133 0.043625
v 0.148367 0.019133 0.061076
v 0.153898 0.025926 -0.079625
v 0.153898 0.025926 0.079624
v 0.149469 0.025926 0.077790
v 0.149469 0.025926 -0.077790
v 0.149469 0.025926 0.060503
v 0.149469 0.025926 0.043216
v 0.149469 0.025926 0.025930
v 0.149469 0.025926 0.008643
v 0.149469 0.025926 -0.008643
v 0.149469 0.025926 -0.025930
v 0.149469 0.025926 -0.043217
v 0.149469 0.025926 -0.060503
v 0.153898 0.025926 -0.061930
v 0.153898 0.025926 -0.044236
v 0.153898 0.025926 -0.026542
v 0.153898 0.025926 -0.008847
v 0.153898 0.025926 0.008847
v 0.153898 0.025926 0.026541
v 0.153898 0.025926 0.044236
v 0.153898 0.025926 0.061930
v 0.155000 0.019133 0.079467
v 0.148367 0.019133 0.076781
v 0.149469 0.025926 0.076061
v 0.153898 0.025926 0.077855
v 0.153898 0.025926 0.063523
v 0.155000 0.019133 0.064838
v 0.148367 0.019133 0.062646
v 0.149469 0.025926 0.062059
v 0.155000 0.019133 0.061406
v 0.148367 0.019133 0.059331
v 0.153898 0.025926 0.060161
v 0.149469 0.025926 0.058774
v 0.155000 0.019133 0.043346
v 0.148367 0.019133 0.041880
v 0.153898 0.025926 0.042466
v 0.149469 0.025926 0.041488
v 0.153898 0.025926 0.045828
v 0.155000 0.019133 0.046777
v 0.148367 0.019133 0.045196
v 0.149469 0.025926 0.044772
v 0.155000 0.019133 0.025285
v 0.148367 0.019133 0.024430
v 0.153898 0.025926 0.024772
v 0.149469 0.025926 0.024201
v 0.153898 0.025926 0.028134
v 0.155000 0.019133 0.028716
v 0.148367 0.019133 0.027746
v 0.149469 0.025926 0.027486
v 0.155000 0.019133 0.007224
v 0.148367 0.019133 0.006980
v 0.153898 0.025926 0.007078
v 0.149469 0.025926 0.006914
v 0.153898 0.025926 0.010440
v 0.155000 0.019133 0.010656
v 0.148367 0.019133 0.010295
v 0.149469 0.025926 0.010199
v 0.153898 0.025926 -0.007255
v 0.155000 0.019133 -0.007405
v 0.148367 0.019133 -0.007155
v 0.149469 0.025926 -0.007088
v 0.155000 0.019133 -0.010837
v 0.148367 0.019133 -0.010470
v 0.153898 0.025926 -0.010617
v 0.149469 0.025926 -0.010372
v 0.153898 0.025926 -0.024949
v 0.155000 0.019133 -0.025466
v 0.148367 0.019133 -0.024605
v 0.149469 0.025926 -0.024374
v 0.155000 0.019133 -0.028897
v 0.148367 0.019133 -0.027921
v 0.153898 0.025926 -0.028311
v 0.149469 0.025926 -0.027659
v 0.153898 0.025926 -0.042644
v 0.155000 0.019133 -0.043527
v 0.148367 0.019133 -0.042055
v 0.149469 0.025926 -0.041661
v 0.155000 0.019133 -0.046958
v 0.148367 0.019133 -0.045371
v 0.153898 0.025926 -0.046005
v 0.149469 0.025926 -0.044945
v 0.153898 0.025926 -0.060338
v 0.155000 0.019133 -0.061587
v 0.148367 0.019133 -0.059506
v 0.149469 0.025926 -0.058948
v 0.155000 0.019133 -0.065019
v 0.148367 0.019133 -0.062821
v 0.153898 0.025926 -0.063700
v 0.149469 0.025926 -0.062232
v 0.153898 0.025926 -0.078032
v 0.155000 0.019133 -0.079648
v 0.148367 0.019133 -0.076956
v 0.149469 0.025926 -0.076234
v 0.149607 0.026776 0.077698
v 0.150604 0.027624 0.077031
v 0.149956 0.027376 0.077464
v 0.150604 0.027624 -0.077032
v 0.149607 0.026776 -0.077698
v 0.149956 0.027376 -0.077465
v 0.152763 0.027624 0.077926
v 0.153760 0.026776 0.079418
v 0.153411 0.027376 0.078896
v 0.152763 0.027624 -0.077926
v 0.153760 0.026776 -0.079418
v 0.153411 0.027376 -0.078896
v 0.152763 0.027624 -0.061333
v 0.153760 0.026776 -0.061770
v 0.153411 0.027376 -0.061576
v 0.152763 0.027624 -0.043809
v 0.153760 0.026776 -0.044121
v 0.153411 0.027376 -0.043983
v 0.152763 0.027624 -0.026286
v 0.153760 0.026776 -0.026473
v 0.153411 0.027376 -0.026390
v 0.152763 0.027624 -0.008762
v 0.153760 0.026776 -0.008824
v 0.153411 0.027376 -0.008797
v 0.152763 0.027624 0.008762
v 0.153760 0.026776 0.008824
v 0.153411 0.027376 0.008796
v 0.152763 0.027624 0.026285
v 0.153760 0.026776 0.026473
v 0.153411 0.027376 0.026389
v 0.152763 0.027624 0.043809
v 0.153760 0.026776 0.044121
v 0.153411 0.027376 0.043982
v 0.152763 0.027624 0.061333
v 0.153760 0.026776 0.061770
v 0.153411 0.027376 0.061575
v 0.149607 0.026776 -0.060432
v 0.150604 0.027624 -0.060637
v 0.149956 0.027376 -0.060462
v 0.149607 0.026776 -0.043166
v 0.150604 0.027624 -0.043312
v 0.149956 0.027376 -0.043187
v 0.149607 0.026776 -0.025899
v 0.150604 0.027624 -0.025987
v 0.149956 0.027376 -0.025913
v 0.149607 0.026776 -0.008633
v 0.150604 0.027624 -0.008663
v 0.149956 0.027376 -0.008638
v 0.149607 0.026776 0.008633
v 0.150604 0.027624 0.008662
v 0.149956 0.027376 0.008637
v 0.149607 0.026776 0.025899
v 0.150604 0.027624 0.025987
v 0.149956 0.027376 0.025912
v 0.149607 0.026776 0.043165
v 0.150604 0.027624 0.043312
v 0.149956 0.027376 0.043187
v 0.149607 0.026776 0.060431
v 0.150604 0.027624 0.060637
v 0.149956 0.027376 0.060462
v 0.153760 0.026776 0.077653
v 0.152763 0.027624 0.077104
v 0.153411 0.027376 0.077409
v 0.150604 0.027624 0.076229
v 0.149607 0.026776 0.075971
v 0.149956 0.027376 0.076009
v 0.153760 0.026776 0.063358
v 0.152763 0.027624 0.062910
v 0.153411 0.027376 0.063159
v 0.150604 0.027624 0.062196
v 0.149607 0.026776 0.061985
v 0.149956 0.027376 0.062017
v 0.153760 0.026776 0.060005
v 0.152763 0.027624 0.059580
v 0.153411 0.027376 0.059816
v 0.150604 0.027624 0.058904
v 0.149607 0.026776 0.058705
v 0.149956 0.027376 0.058735
v 0.153760 0.026776 0.042356
v 0.152763 0.027624 0.042057
v 0.153411 0.027376 0.042223
v 0.150604 0.027624 0.041580
v 0.149607 0.026776 0.041439
v 0.149956 0.027376 0.041460
v 0.153760 0.026776 0.045709
v 0.152763 0.027624 0.045386
v 0.153411 0.027376 0.045566
v 0.150604 0.027624 0.044871
v 0.149607 0.026776 0.044719
v 0.149956 0.027376 0.044742
v 0.153760 0.026776 0.024708
v 0.152763 0.027624 0.024533
v 0.153411 0.027376 0.024630
v 0.150604 0.027624 0.024255
v 0.149607 0.026776 0.024172
v 0.149956 0.027376 0.024185
v 0.153760 0.026776 0.028061
v 0.152763 0.027624 0.027862
v 0.153411 0.027376 0.027973
v 0.150604 0.027624 0.027546
v 0.149607 0.026776 0.027453
v 0.149956 0.027376 0.027467
v 0.153760 0.026776 0.007059
v 0.152763 0.027624 0.007009
v 0.153411 0.027376 0.007037
v 0.150604 0.027624 0.006930
v 0.149607 0.026776 0.006906
v 0.149956 0.027376 0.006910
v 0.153760 0.026776 0.010412
v 0.152763 0.027624 0.010339
v 0.153411 0.027376 0.010380
v 0.150604 0.027624 0.010222
v 0.149607 0.026776 0.010187
v 0.149956 0.027376 0.010192
v 0.153760 0.026776 -0.007236
v 0.152763 0.027624 -0.007185
v 0.153411 0.027376 -0.007213
v 0.150604 0.027624 -0.007103
v 0.149607 0.026776 -0.007079
v 0.149956 0.027376 -0.007083
v 0.153760 0.026776 -0.010589
v 0.152763 0.027624 -0.010514
v 0.153411 0.027376 -0.010556
v 0.150604 0.027624 -0.010395
v 0.149607 0.026776 -0.010360
v 0.149956 0.027376 -0.010365
v 0.153760 0.026776 -0.024885
v 0.152763 0.027624 -0.024708
v 0.153411 0.027376 -0.024806
v 0.150604 0.027624 -0.024428
v 0.149607 0.026776 -0.024345
v 0.149956 0.027376 -0.024358
v 0.153760 0.026776 -0.028238
v 0.152763 0.027624 -0.028038
v 0.153411 0.027376 -0.028149
v 0.150604 0.027624 -0.027720
v 0.149607 0.026776 -0.027626
v 0.149956 0.027376 -0.027640
v 0.153760 0.026776 -0.042533
v 0.152763 0.027624 -0.042232
v 0.153411 0.027376 -0.042399
v 0.150604 0.027624 -0.041753
v 0.149607 0.026776 -0.041612
v 0.149956 0.027376 -0.041633
v 0.153760 0.026776 -0.045886
v 0.152763 0.027624 -0.045562
v 0.153411 0.027376 -0.045742
v 0.150604 0.027624 -0.045045
v 0.149607 0.026776 -0.044892
v 0.149956 0.027376 -0.044915
v 0.153760 0.026776 -0.060182
v 0.152763 0.027624 -0.059756
v 0.153411 0.027376 -0.059992
v 0.150604 0.027624 -0.059078
v 0.149607 0.026776 -0.058878
v 0.149956 0.027376 -0.058908
v 0.153760 0.026776 -0.063535
v 0.152763 0.027624 -0.063085
v 0.153411 0.027376 -0.063335
v 0.150604 0.027624 -0.062370
v 0.149607 0.026776 -0.062158
v 0.149956 0.027376 -0.062190
v 0.153760 0.026776 -0.077830
v 0.152763 0.027624 -0.077279
v 0.153411 0.027376 -0.077585
v 0.150604 0.027624 -0.076403
v 0.149607 0.026776 -0.076144
v 0.149956 0.027376 -0.076183
v -0.155000 0.019133 0.081273
v -0.155000 0.019133 -0.081274
v -0.148367 0.019133 0.078526
v -0.148367 0.019133 -0.078526
v -0.155000 0.019133 0.063213
v -0.155000 0.019133 0.045152
v -0.155000 0.019133 0.027091
v -0.155000 0.019133 0.009030
v -0.155000 0.019133 -0.009030
v -0.155000 0.019133 -0.027091
v -0.155000 0.019133 -0.045152
v -0.155000 0.019133 -0.063213
v -0.148367 0.019133 0.061076
v -0.148367 0.019133 0.043626
v -0.148367 0.019133 0.026175
v -0.148367 0.019133 0.008725
v -0.148367 0.019133 -0.008725
v -0.148367 0.019133 -0.026175
v -0.148367 0.019133 -0.043626
v -0.148367 0.019133 -0.061076
v -0.153898 0.025926 0.079625
v -0.153898 0.025926 -0.079625
v -0.149469 0.025926 -0.077790
v -0.149469 0.025926 0.077790
v -0.149469 0.025926 -0.060503
v -0.149469 0.025926 -0.043217
v -0.149469 0.025926 -0.025930
v -0.149469 0.025926 -0.008643
v -0.149469 0.025926 0.008643
v -0.149469 0.025926 0.025930
v -0.149469 0.025926 0.043217
v -0.149469 0.025926 0.060503
v -0.153898 0.025926 0.061930
v -0.153898 0.025926 0.044236
v -0.153898 0.025926 0.026541
v -0.153898 0.025926 0.008847
v -0.153898 0.025926 -0.008847
v -0.153898 0.025926 -0.026542
v -0.153898 0.025926 -0.044236
v -0.153898 0.025926 -0.061930
v -0.155000 0.019133 -0.079467
v -0.148367 0.019133 -0.076781
v -0.149469 0.025926 -0.076061
v -0.153898 0.025926 -0.077855
v -0.153898 0.025926 -0.063523
v -0.155000 0.019133 -0.064838
v -0.148367 0.019133 -0.062646
v -0.149469 0.025926 -0.062059
v -0.155000 0.019133 -0.061407
v -0.148367 0.019133 -0.059331
v -0.153898 0.025926 -0.060161
v -0.149469 0.025926 -0.058775
v -0.155000 0.019133 -0.043346
v -0.148367 0.019133 -0.041881
v -0.153898 0.025926 -0.042467
v -0.149469 0.025926 -0.041488
v -0.153898 0.025926 -0.045828
v -0.155000 0.019133 -0.046777
v -0.148367 0.019133 -0.045196
v -0.149469 0.025926 -0.044773
v -0.155000 0.019133 -0.025285
v -0.148367 0.019133 -0.024430
v -0.153898 0.025926 -0.024772
v -0.149469 0.025926 -0.024201
v -0.153898 0.025926 -0.028134
v -0.155000 0.019133 -0.028717
v -0.148367 0.019133 -0.027746
v -0.149469 0.025926 -0.027486
v -0.155000 0.019133 -0.007224
v -0.148367 0.019133 -0.006980
v -0.153898 0.025926 -0.007078
v -0.149469 0.025926 -0.006915
v -0.153898 0.025926 -0.010440
v -0.155000 0.019133 -0.010656
v -0.148367 0.019133 -0.010296
v -0.149469 0.025926 -0.010199
v -0.153898 0.025926 0.007255
v -0.155000 0.019133 0.007405
v -0.148367 0.019133 0.007155
v -0.149469 0.025926 0.007087
v -0.155000 0.019133 0.010836
v -0.148367 0.019133 0.010470
v -0.153898 0.025926 0.010617
v -0.149469 0.025926 0.010372
v -0.153898 0.025926 0.024949
v -0.155000 0.019133 0.025466
v -0.148367 0.019133 0.024605
v -0.149469 0.025926 0.024374
v -0.155000 0.019133 0.028897
v -0.148367 0.019133 0.027920
v -0.153898 0.025926 0.028311
v -0.149469 0.025926 0.027659
v -0.153898 0.025926 0.042643
v -0.155000 0.019133 0.043526
v -0.148367 0.019133 0.042055
v -0.149469 0.025926 0.041661
v -0.155000 0.019133 0.046958
v -0.148367 0.019133 0.045371
v -0.153898 0.025926 0.046005
v -0.149469 0.025926 0.044945
v -0.153898 0.025926 0.060338
v -0.155000 0.019133 0.061587
v -0.148367 0.019133 0.059505
v -0.149469 0.025926 0.058947
v -0.155000 0.019133 0.065019
v -0.148367 0.019133 0.062821
v -0.153898 0.025926 0.063700
v -0.149469 0.025926 0.062232
v -0.153898 0.025926 0.078032
v -0.155000 0.019133 0.079648
v -0.148367 0.019133 0.076956
v -0.149469 0.025926 0.076234
v -0.149607 0.026776 -0.077698
v -0.150604 0.027624 -0.077032
v -0.149956 0.027376 -0.077465
v -0.150604 0.027624 0.077032
v -0.149607 0.026776 0.077698
v -0.149956 0.027376 0.077465
v -0.152763 0.027624 -0.077926
v -0.153760 0.026776 -0.079418
v -0.153411 0.027376 -0.078896
v -0.152763 0.027624 0.077926
v -0.153760 0.026776 0.079418
v -0.153411 0.027376 0.078896
v -0.152763 0.027624 0.061333
v -0.153760 0.026776 0.061770
v -0.153411 0.027376 0.061575
v -0.152763 0.027624 0.043809
v -0.153760 0.026776 0.044121
v -0.153411 0.027376 0.043982
v -0.152763 0.027624 0.026285
v -0.153760 0.026776 0.026473
v -0.153411 0.027376 0.026389
v -0.152763 0.027624 0.008762
v -0.153760 0.026776 0.008824
v -0.153411 0.027376 0.008796
v -0.152763 0.027624 -0.008762
v -0.153760 0.026776 -0.008824
v -0.153411 0.027376 -0.008797
v -0.152763 0.027624 -0.026286
v -0.153760 0.026776 -0.026473
v -0.153411 0.027376 -0.026390
v -0.152763 0.027624 -0.043809
v -0.153760 0.026776 -0.044121
v -0.153411 0.027376 -0.043983
v -0.152763 0.027624 -0.061333
v -0.153760 0.026776 -0.061770
v -0.153411 0.027376 -0.061576
v -0.149607 0.026776 0.060432
v -0.150604 0.027624 0.060637
v -0.149956 0.027376 0.060462
v -0.149607 0.026776 0.043165
v -0.150604 0.027624 0.043312
v -0.149956 0.027376 0.043187
v -0.149607 0.026776 0.025899
v -0.150604 0.027624 0.025987
v -0.149956 0.027376 0.025912
v -0.149607 0.026776 0.008633
v -0.150604 0.027624 0.008662
v -0.149956 0.027376 0.008637
v -0.149607 0.026776 -0.008633
v -0.150604 0.027624 -0.008663
v -0.149956 0.027376 -0.008638
v -0.149607 0.026776 -0.025899
v -0.150604 0.027624 -0.025987
v -0.149956 0.027376 -0.025912
v -0.149607 0.026776 -0.043166
v -0.150604 0.027624 -0.043312
v -0.149956 0.027376 -0.043187
v -0.149607 0.026776 -0.060432
v -0.150604 0.027624 -0.060637
v -0.149956 0.027376 -0.060462
v -0.153760 0.026776 -0.077654
v -0.152763 0.027624 -0.077104
v -0.153411 0.027376 -0.077409
v -0.150604 0.027624 -0.076230
v -0.149607 0.026776 -0.075971
v -0.149956 0.027376 -0.076010
v -0.153760 0.026776 -0.063358
v -0.152763 0.027624 -0.062910
v -0.153411 0.027376 -0.063159
v -0.150604 0.027624 -0.062196
v -0.149607 0.026776 -0.061986
v -0.149956 0.027376 -0.062017
v -0.153760 0.026776 -0.060005
v -0.152763 0.027624 -0.059580
v -0.153411 0.027376 -0.059816
v -0.150604 0.027624 -0.058905
v -0.149607 0.026776 -0.058705
v -0.149956 0.027376 -0.058735
v -0.153760 0.026776 -0.042357
v -0.152763 0.027624 -0.042057
v -0.153411 0.027376 -0.042223
v -0.150604 0.027624 -0.041580
v -0.149607 0.026776 -0.041439
v -0.149956 0.027376 -0.041460
v -0.153760 0.026776 -0.045710
v -0.152763 0.027624 -0.045386
v -0.153411 0.027376 -0.045566
v -0.150604 0.027624 -0.044872
v -0.149607 0.026776 -0.044720
v -0.149956 0.027376 -0.044742
v -0.153760 0.026776 -0.024708
v -0.152763 0.027624 -0.024533
v -0.153411 0.027376 -0.024630
v -0.150604 0.027624 -0.024255
v -0.149607 0.026776 -0.024173
v -0.149956 0.027376 -0.024185
v -0.153760 0.026776 -0.028061
v -0.152763 0.027624 -0.027863
v -0.153411 0.027376 -0.027973
v -0.150604 0.027624 -0.027547
v -0.149607 0.026776 -0.027453
v -0.149956 0.027376 -0.027467
v -0.153760 0.026776 -0.007059
v -0.152763 0.027624 -0.007010
v -0.153411 0.027376 -0.007037
v -0.150604 0.027624 -0.006930
v -0.149607 0.026776 -0.006907
v -0.149956 0.027376 -0.006910
v -0.153760 0.026776 -0.010413
v -0.152763 0.027624 -0.010339
v -0.153411 0.027376 -0.010380
v -0.150604 0.027624 -0.010222
v -0.149607 0.026776 -0.010187
v -0.149956 0.027376 -0.010192
v -0.153760 0.026776 0.007236
v -0.152763 0.027624 0.007185
v -0.153411 0.027376 0.007213
v -0.150604 0.027624 0.007103
v -0.149607 0.026776 0.007079
v -0.149956 0.027376 0.007083
v -0.153760 0.026776 0.010589
v -0.152763 0.027624 0.010514
v -0.153411 0.027376 0.010556
v -0.150604 0.027624 0.010395
v -0.149607 0.026776 0.010360
v -0.149956 0.027376 0.010365
v -0.153760 0.026776 0.024884
v -0.152763 0.027624 0.024708
v -0.153411 0.027376 0.024806
v -0.150604 0.027624 0.024428
v -0.149607 0.026776 0.024345
v -0.149956 0.027376 0.024358
v -0.153760 0.026776 0.028238
v -0.152763 0.027624 0.028038
v -0.153411 0.027376 0.028149
v -0.150604 0.027624 0.027720
v -0.149607 0.026776 0.027626
v -0.149956 0.027376 0.027640
v -0.153760 0.026776 0.042533
v -0.152763 0.027624 0.042232
v -0.153411 0.027376 0.042399
v -0.150604 0.027624 0.041753
v -0.149607 0.026776 0.041611
v -0.149956 0.027376 0.041632
v -0.153760 0.026776 0.045886
v -0.152763 0.027624 0.045561
v -0.153411 0.027376 0.045742
v -0.150604 0.027624 0.045045
v -0.149607 0.026776 0.044892
v -0.149956 0.027376 0.044915
v -0.153760 0.026776 0.060181
v -0.152763 0.027624 0.059756
v -0.153411 0.027376 0.059992
v -0.150604 0.027624 0.059078
v -0.149607 0.026776 0.058878
v -0.149956 0.027376 0.058907
v -0.153760 0.026776 0.063535
v -0.152763 0.027624 0.063085
v -0.153411 0.027376 0.063335
v -0.150604 0.027624 0.062369
v -0.149607 0.026776 0.062158
v -0.149956 0.027376 0.062190
v -0.153760 0.026776 0.077830
v -0.152763 0.027624 0.077279
v -0.153411 0.027376 0.077585
v -0.150604 0.027624 0.076403
v -0.149607 0.026776 0.076144
v -0.149956 0.027376 0.076182
vn -0.0000 0.1601 -0.9871
vn -0.0000 0.1601 0.9871
vn 0.9120 0.1601 0.3777
vn -0.9120 0.1601 0.3777
vn -0.9154 -0.1571 -0.3707
vn -0.0000 -1.0000 -0.0000
vn 0.9681 0.0978 0.2308
vn 0.9412 0.1318 0.3110
vn -0.9724 -0.0910 -0.2148
vn -0.9468 -0.1256 -0.2963
vn -0.9903 -0.0541 -0.1276
vn 0.9983 0.0230 0.0542
vn 0.9876 0.0613 0.1445
vn -0.9982 0.0234 0.0551
vn 0.9992 -0.0160 -0.0377
vn -0.9992 -0.0156 -0.0368
vn 0.9722 -0.0914 -0.2157
vn 0.9902 -0.0545 -0.1285
vn -0.9678 0.0982 0.2316
vn -0.9874 0.0616 0.1454
vn -0.9409 0.1321 0.3118
vn 0.9150 -0.1574 -0.3714
vn 0.9465 -0.1259 -0.2971
vn -0.0000 0.9337 -0.3580
vn -0.0000 0.5029 -0.8644
vn -0.0000 0.5029 0.8643
vn -0.0000 0.9337 0.3580
vn 0.3308 0.9337 0.1370
vn 0.7985 0.5029 0.3308
vn -0.3308 0.9337 0.1370
vn -0.7985 0.5029 0.3308
vn -0.0000 0.5029 -0.8643
vn -0.0000 0.5029 0.8644
vn -0.0000 1.0000 -0.0000
vn -0.9120 0.1601 -0.3777
vn 0.9120 0.1601 -0.3777
vn 0.9154 -0.1571 0.3707
vn -0.9681 0.0978 -0.2308
vn -0.9412 0.1318 -0.3110
vn 0.9724 -0.0910 0.2148
vn 0.9468 -0.1256 0.2963
vn 0.9903 -0.0541 0.1276
vn -0.9983 0.0230 -0.0542
vn -0.9876 0.0613 -0.1445
vn 0.9982 0.0234 -0.0551
vn -0.9992 -0.0160 0.0377
vn 0.9992 -0.0156 0.0368
vn -0.9722 -0.0914 0.2157
vn -0.9902 -0.0545 0.1285
vn 0.9678 0.0982 -0.2316
vn 0.9874 0.0616 -0.1454
vn 0.9409 0.1321 -0.3118
vn -0.9150 -0.1574 0.3714
vn -0.9465 -0.1259 0.2971
vn -0.3308 0.9337 -0.1370
vn -0.7985 0.5029 -0.3308
vn 0.3308 0.9337 -0.1370
vn 0.7985 0.5029 -0.3308
vn -0.9120 0.1601 -0.3778
vn 0.9871 0.1601 -0.0000
vn -0.9871 0.1601 -0.0000
vn -0.3777 0.1601 0.9120
vn -0.3777 0.1601 -0.9120
vn 0.3707 -0.1571 -0.9154
vn -0.2308 0.0978 0.9681
vn -0.3110 0.1318 0.9412
vn 0.2148 -0.0910 -0.9724
vn 0.2963 -0.1256 -0.9468
vn 0.1276 -0.0541 -0.9903
vn -0.0542 0.0230 0.9983
vn -0.1445 0.0613 0.9876
vn -0.0551 0.0234 -0.9982
vn 0.0377 -0.0160 0.9992
vn 0.0368 -0.0156 -0.9992
vn 0.2157 -0.0914 0.9722
vn 0.1285 -0.0545 0.9902
vn -0.2316 0.0982 -0.9678
vn -0.1454 0.0616 -0.9874
vn -0.3118 0.1321 -0.9409
vn 0.3714 -0.1574 0.9150
vn 0.2971 -0.1259 0.9465
vn 0.3580 0.9337 -0.0000
vn 0.8644 0.5029 -0.0000
vn -0.8643 0.5029 -0.0000
vn -0.3580 0.9337 -0.0000
vn -0.1370 0.9337 0.3308
vn -0.3308 0.5029 0.7985
vn -0.1370 0.9337 -0.3308
vn -0.3308 0.5029 -0.7985
vn 0.8643 0.5029 -0.0000
vn -0.3778 0.1601 0.9120
vn 0.3777 0.1601 -0.9120
vn 0.3777 0.1601 0.9120
vn -0.3707 -0.1571 0.9154
vn 0.2308 0.0978 -0.9681
vn 0.3110 0.1318 -0.9412
vn -0.2148 -0.0910 0.9724
vn -0.2963 -0.1256 0.9468
vn -0.1276 -0.0541 0.9903
vn 0.0542 0.0230 -0.9983
vn 0.1445 0.0613 -0.9876
vn 0.0551 0.0234 0.9982
vn -0.0377 -0.0160 -0.9992
vn -0.0368 -0.0156 0.9992
vn -0.2157 -0.0914 -0.9722
vn -0.1285 -0.0545 -0.9902
vn 0.2316 0.0982 0.9678
vn 0.1454 0.0616 0.9874
vn 0.3118 0.1321 0.9409
vn -0.3714 -0.1574 -0.9150
vn -0.2971 -0.1259 -0.9465
vn -0.8644 0.5029 -0.0000
vn 0.1370 0.9337 -0.3308
vn 0.3308 0.5029 -0.7986
vn 0.1370 0.9337 0.3308
vn 0.3308 0.5029 0.7985
vt 0.800183 0.734943
vt 0.801715 0.734641
vt 0.803174 0.735130
vt 0.801601 0.735447
vt 0.667631 0.757136
vt 0.666294 0.757392
vt 0.665926 0.756441
vt 0.667271 0.756189
vt 0.800004 0.731857
vt 0.800608 0.730963
vt 0.663629 0.762025
vt 0.661934 0.763380
vt 0.786485 0.734438
vt 0.785148 0.734693
vt 0.785644 0.733794
vt 0.786988 0.733542
vt 0.771628 0.737275
vt 0.770291 0.737531
vt 0.770679 0.736625
vt 0.772023 0.736373
vt 0.756771 0.740113
vt 0.755434 0.740368
vt 0.755714 0.739456
vt 0.757058 0.739204
vt 0.741914 0.742950
vt 0.740577 0.743206
vt 0.740750 0.742287
vt 0.742094 0.742035
vt 0.727058 0.745788
vt 0.725720 0.746043
vt 0.725785 0.745117
vt 0.727129 0.744865
vt 0.712201 0.748625
vt 0.710863 0.748881
vt 0.710820 0.747948
vt 0.712165 0.747696
vt 0.697344 0.751463
vt 0.696006 0.751718
vt 0.695855 0.750779
vt 0.697200 0.750527
vt 0.682487 0.754300
vt 0.681150 0.754556
vt 0.680891 0.753610
vt 0.682235 0.753358
vt 0.677440 0.759285
vt 0.678973 0.758981
vt 0.677628 0.760241
vt 0.676053 0.760560
vt 0.692783 0.756242
vt 0.694316 0.755939
vt 0.693321 0.757102
vt 0.691747 0.757421
vt 0.708125 0.753199
vt 0.709658 0.752896
vt 0.709014 0.753964
vt 0.707440 0.754282
vt 0.723468 0.750157
vt 0.725001 0.749854
vt 0.724707 0.750825
vt 0.723134 0.751143
vt 0.738811 0.747114
vt 0.740344 0.746812
vt 0.740401 0.747686
vt 0.738827 0.748004
vt 0.754154 0.744072
vt 0.755687 0.743769
vt 0.756094 0.744547
vt 0.754521 0.744865
vt 0.769497 0.741029
vt 0.771029 0.740727
vt 0.771787 0.741408
vt 0.770214 0.741726
vt 0.784839 0.737987
vt 0.786372 0.737684
vt 0.787480 0.738269
vt 0.785908 0.738587
vt 0.798517 0.732142
vt 0.799116 0.731242
vt 0.787753 0.737410
vt 0.788896 0.737983
vt 0.783661 0.734979
vt 0.784151 0.734073
vt 0.768804 0.737816
vt 0.769186 0.736904
vt 0.772410 0.740453
vt 0.773203 0.741122
vt 0.753947 0.740654
vt 0.754222 0.739735
vt 0.757067 0.743495
vt 0.757509 0.744261
vt 0.739090 0.743491
vt 0.739257 0.742566
vt 0.741725 0.746538
vt 0.741816 0.747401
vt 0.726382 0.749580
vt 0.726122 0.750540
vt 0.724233 0.746328
vt 0.724293 0.745396
vt 0.711039 0.752623
vt 0.710429 0.753679
vt 0.709376 0.749166
vt 0.709328 0.748227
vt 0.695696 0.755665
vt 0.694735 0.756818
vt 0.694520 0.752003
vt 0.694363 0.751058
vt 0.680353 0.758708
vt 0.679042 0.759957
vt 0.679663 0.754841
vt 0.679399 0.753889
vt 0.665010 0.761751
vt 0.663348 0.763096
vt 0.799500 0.734279
vt 0.800211 0.734139
vt 0.801155 0.734456
vt 0.799800 0.734831
vt 0.801532 0.734581
vt 0.800001 0.734885
vt 0.798449 0.732248
vt 0.799929 0.731968
vt 0.799819 0.732131
vt 0.798435 0.732343
vt 0.799387 0.732772
vt 0.798699 0.732901
vt 0.666667 0.758377
vt 0.665377 0.760627
vt 0.664280 0.761504
vt 0.666405 0.757688
vt 0.663842 0.761854
vt 0.666339 0.757512
vt 0.678209 0.758112
vt 0.679732 0.757807
vt 0.679325 0.758663
vt 0.677790 0.758974
vt 0.679142 0.758823
vt 0.677607 0.759131
vt 0.693371 0.755133
vt 0.694893 0.754829
vt 0.694575 0.755646
vt 0.693041 0.755956
vt 0.694440 0.755793
vt 0.692906 0.756100
vt 0.708532 0.752154
vt 0.710053 0.751850
vt 0.709826 0.752628
vt 0.708292 0.752938
vt 0.709739 0.752763
vt 0.708206 0.753069
vt 0.723693 0.749174
vt 0.725214 0.748872
vt 0.725077 0.749611
vt 0.723544 0.749921
vt 0.725038 0.749732
vt 0.723505 0.750039
vt 0.738855 0.746195
vt 0.740375 0.745893
vt 0.740327 0.746593
vt 0.738795 0.746903
vt 0.740337 0.746702
vt 0.738804 0.747008
vt 0.754016 0.743216
vt 0.755536 0.742915
vt 0.755578 0.743576
vt 0.754046 0.743885
vt 0.755635 0.743672
vt 0.754103 0.743978
vt 0.769177 0.740237
vt 0.770696 0.739936
vt 0.770829 0.740559
vt 0.769298 0.740867
vt 0.770934 0.740642
vt 0.769402 0.740947
vt 0.784339 0.737258
vt 0.785857 0.736958
vt 0.786079 0.737542
vt 0.784549 0.737849
vt 0.786233 0.737611
vt 0.784701 0.737916
vt 0.679700 0.754956
vt 0.681182 0.754674
vt 0.681170 0.754801
vt 0.679691 0.755080
vt 0.680792 0.755651
vt 0.679302 0.755937
vt 0.694543 0.752118
vt 0.696025 0.751836
vt 0.696013 0.751959
vt 0.694534 0.752238
vt 0.695716 0.752772
vt 0.694226 0.753057
vt 0.709387 0.749279
vt 0.710869 0.748997
vt 0.710855 0.749117
vt 0.709377 0.749395
vt 0.710640 0.749893
vt 0.709151 0.750178
vt 0.724230 0.746440
vt 0.725712 0.746159
vt 0.725698 0.746276
vt 0.724220 0.746553
vt 0.725565 0.747014
vt 0.724076 0.747299
vt 0.739074 0.743602
vt 0.740556 0.743321
vt 0.740540 0.743434
vt 0.739063 0.743711
vt 0.740489 0.744135
vt 0.739000 0.744419
vt 0.753918 0.740763
vt 0.755399 0.740482
vt 0.755383 0.740593
vt 0.753906 0.740869
vt 0.755413 0.741256
vt 0.753925 0.741540
vt 0.768762 0.737924
vt 0.770243 0.737644
vt 0.770225 0.737751
vt 0.768749 0.738027
vt 0.770337 0.738378
vt 0.768850 0.738660
vt 0.783605 0.735086
vt 0.785086 0.734806
vt 0.785068 0.734910
vt 0.783592 0.735185
vt 0.785261 0.735499
vt 0.783774 0.735781
vt 0.787226 0.736685
vt 0.787458 0.737263
vt 0.787613 0.737335
vt 0.786421 0.734552
vt 0.786402 0.734656
vt 0.786604 0.735240
vt 0.772065 0.739664
vt 0.772207 0.740281
vt 0.772314 0.740366
vt 0.771577 0.737390
vt 0.771559 0.737498
vt 0.771680 0.738119
vt 0.756904 0.742643
vt 0.756956 0.743299
vt 0.757015 0.743397
vt 0.756733 0.740229
vt 0.756716 0.740340
vt 0.756755 0.740999
vt 0.741742 0.745622
vt 0.741705 0.746317
vt 0.741716 0.746427
vt 0.741890 0.743067
vt 0.741873 0.743182
vt 0.741830 0.743878
vt 0.726581 0.748601
vt 0.726454 0.749335
vt 0.726417 0.749458
vt 0.727046 0.745906
vt 0.727030 0.746024
vt 0.726905 0.746757
vt 0.711420 0.751580
vt 0.711202 0.752353
vt 0.711118 0.752488
vt 0.712202 0.748744
vt 0.712187 0.748867
vt 0.711981 0.749637
vt 0.696258 0.754560
vt 0.695951 0.755371
vt 0.695819 0.755519
vt 0.697359 0.751583
vt 0.697343 0.751709
vt 0.697056 0.752516
vt 0.681097 0.757539
vt 0.680700 0.758389
vt 0.680519 0.758550
vt 0.682515 0.754421
vt 0.682500 0.754551
vt 0.682131 0.755396
vt 0.665936 0.760518
vt 0.665448 0.761407
vt 0.665220 0.761581
vt 0.667672 0.757259
vt 0.667658 0.757393
vt 0.667207 0.758275
s 0
f 44/1/1 22/2/1 2/3/1 41/4/1
f 112/5/2 24/6/2 3/7/2 111/8/2
f 22/2/3 23/9/3 4/10/3 2/3/3
f 24/6/4 21/11/4 1/12/4 3/7/4
f 48/13/2 25/14/2 20/15/2 47/16/2
f 60/17/2 26/18/2 19/19/2 59/20/2
f 68/21/2 27/22/2 18/23/2 67/24/2
f 76/25/2 28/26/2 17/27/2 75/28/2
f 80/29/2 29/30/2 16/31/2 79/32/2
f 88/33/2 30/34/2 15/35/2 87/36/2
f 96/37/2 31/38/2 14/39/2 95/40/2
f 104/41/2 32/42/2 13/43/2 103/44/2
f 107/45/1 33/46/1 5/47/1 105/48/1
f 99/49/1 34/50/1 6/51/1 97/52/1
f 91/53/1 35/54/1 7/55/1 89/56/1
f 83/57/1 36/58/1 8/59/1 81/60/1
f 71/61/1 37/62/1 9/63/1 69/64/1
f 63/65/1 38/66/1 10/67/1 61/68/1
f 55/69/1 39/70/1 11/71/1 53/72/1
f 51/73/1 40/74/1 12/75/1 49/76/1
f 23/9/2 43/77/2 42/78/2 4/10/2
f 40/74/1 45/79/1 46/80/1 12/75/1
f 25/14/2 52/81/2 50/82/2 20/15/2
f 26/18/2 56/83/2 54/84/2 19/19/2
f 39/70/1 57/85/1 58/86/1 11/71/1
f 27/22/2 64/87/2 62/88/2 18/23/2
f 38/66/1 65/89/1 66/90/1 10/67/1
f 28/26/2 72/91/2 70/92/2 17/27/2
f 37/62/1 73/93/1 74/94/1 9/63/1
f 36/58/1 77/95/1 78/96/1 8/59/1
f 29/30/2 84/97/2 82/98/2 16/31/2
f 35/54/1 85/99/1 86/100/1 7/55/1
f 30/34/2 92/101/2 90/102/2 15/35/2
f 34/50/1 93/103/1 94/104/1 6/51/1
f 31/38/2 100/105/2 98/106/2 14/39/2
f 33/46/1 101/107/1 102/108/1 5/47/1
f 32/42/2 108/109/2 106/110/2 13/43/2
f 21/11/1 109/111/1 110/112/1 1/12/1
f 44/1/5 41/4/5 42/78/5 43/77/5
f 45/79/6 44/1/6 43/77/6 48/13/6
f 58/86/7 57/85/7 60/17/7 59/20/7
f 57/85/6 51/73/6 52/81/6 60/17/6
f 46/80/8 45/79/8 48/13/8 47/16/8
f 55/69/9 53/72/9 54/84/9 56/83/9
f 51/73/10 49/76/10 50/82/10 52/81/10
f 73/93/6 63/65/6 64/87/6 76/25/6
f 63/65/11 61/68/11 62/88/11 64/87/11
f 65/89/6 55/69/6 56/83/6 68/21/6
f 74/94/12 73/93/12 76/25/12 75/28/12
f 66/90/13 65/89/13 68/21/13 67/24/13
f 83/57/14 81/60/14 82/98/14 84/97/14
f 78/96/15 77/95/15 80/29/15 79/32/15
f 71/61/16 69/64/16 70/92/16 72/91/16
f 85/99/6 83/57/6 84/97/6 88/33/6
f 77/95/6 71/61/6 72/91/6 80/29/6
f 94/104/17 93/103/17 96/37/17 95/40/17
f 93/103/6 91/53/6 92/101/6 96/37/6
f 86/100/18 85/99/18 88/33/18 87/36/18
f 99/49/19 97/52/19 98/106/19 100/105/19
f 91/53/20 89/56/20 90/102/20 92/101/20
f 109/111/6 107/45/6 108/109/6 112/5/6
f 107/45/21 105/48/21 106/110/21 108/109/21
f 101/107/6 99/49/6 100/105/6 104/41/6
f 110/112/22 109/111/22 112/5/22 111/8/22
f 102/108/23 101/107/23 104/41/23 103/44/23
f 174/113/24 119/114/24 121/115/24 175/116/24
f 175/116/25 121/115/25 120/117/25 173/118/25
f 177/119/26 113/120/26 115/121/26 178/122/26
f 178/122/27 115/121/27 114/123/27 176/124/27
f 119/114/28 114/123/28 115/121/28 121/115/28
f 121/115/29 115/121/29 113/120/29 120/117/29
f 116/125/30 122/126/30 124/127/30 118/128/30
f 118/128/31 124/127/31 123/129/31 117/130/31
f 270/131/24 125/132/24 127/133/24 271/134/24
f 271/134/25 127/133/25 126/135/25 269/136/25
f 258/137/24 128/138/24 130/139/24 259/140/24
f 259/140/32 130/139/32 129/141/32 257/142/32
f 246/143/24 131/144/24 133/145/24 247/146/24
f 247/146/32 133/145/32 132/147/32 245/148/32
f 234/149/24 134/150/24 136/151/24 235/152/24
f 235/152/32 136/151/32 135/153/32 233/154/32
f 216/155/24 137/156/24 139/157/24 217/158/24
f 217/158/32 139/157/32 138/159/32 215/160/32
f 204/161/24 140/162/24 142/163/24 205/164/24
f 205/164/32 142/163/32 141/165/32 203/166/32
f 192/167/24 143/168/24 145/169/24 193/170/24
f 193/170/32 145/169/32 144/171/32 191/172/32
f 186/173/24 146/174/24 148/175/24 187/176/24
f 187/176/32 148/175/32 147/177/32 185/178/32
f 273/179/26 149/180/26 151/181/26 274/182/26
f 274/182/27 151/181/27 150/183/27 272/184/27
f 261/185/33 152/186/33 154/187/33 262/188/33
f 262/188/27 154/187/27 153/189/27 260/190/27
f 249/191/26 155/192/26 157/193/26 250/194/26
f 250/194/27 157/193/27 156/195/27 248/196/27
f 237/197/26 158/198/26 160/199/26 238/200/26
f 238/200/27 160/199/27 159/201/27 236/202/27
f 219/203/33 161/204/33 163/205/33 220/206/33
f 220/206/27 163/205/27 162/207/27 218/208/27
f 207/209/26 164/210/26 166/211/26 208/212/26
f 208/212/27 166/211/27 165/213/27 206/214/27
f 195/215/26 167/216/26 169/217/26 196/218/26
f 196/218/27 169/217/27 168/219/27 194/220/27
f 189/221/26 170/222/26 172/223/26 190/224/26
f 190/224/27 172/223/27 171/225/27 188/226/27
f 180/227/24 174/113/24 175/116/24 181/228/24
f 181/228/32 175/116/32 173/118/32 179/229/32
f 183/230/26 177/119/26 178/122/26 184/231/26
f 184/231/27 178/122/27 176/124/27 182/232/27
f 146/174/24 180/227/24 181/228/24 148/175/24
f 148/175/32 181/228/32 179/229/32 147/177/32
f 170/222/33 183/230/33 184/231/33 172/223/33
f 172/223/27 184/231/27 182/232/27 171/225/27
f 198/233/24 186/173/24 187/176/24 199/234/24
f 199/234/32 187/176/32 185/178/32 197/235/32
f 201/236/33 189/221/33 190/224/33 202/237/33
f 202/237/27 190/224/27 188/226/27 200/238/27
f 210/239/24 192/167/24 193/170/24 211/240/24
f 211/240/32 193/170/32 191/172/32 209/241/32
f 213/242/33 195/215/33 196/218/33 214/243/33
f 214/243/27 196/218/27 194/220/27 212/244/27
f 143/168/24 198/233/24 199/234/24 145/169/24
f 145/169/32 199/234/32 197/235/32 144/171/32
f 167/216/26 201/236/26 202/237/26 169/217/26
f 169/217/27 202/237/27 200/238/27 168/219/27
f 222/245/24 204/161/24 205/164/24 223/246/24
f 223/246/32 205/164/32 203/166/32 221/247/32
f 225/248/26 207/209/26 208/212/26 226/249/26
f 226/249/27 208/212/27 206/214/27 224/250/27
f 140/162/24 210/239/24 211/240/24 142/163/24
f 142/163/32 211/240/32 209/241/32 141/165/32
f 164/210/26 213/242/26 214/243/26 166/211/26
f 166/211/27 214/243/27 212/244/27 165/213/27
f 228/251/24 216/155/24 217/158/24 229/252/24
f 229/252/25 217/158/25 215/160/25 227/253/25
f 231/254/33 219/203/33 220/206/33 232/255/33
f 232/255/27 220/206/27 218/208/27 230/256/27
f 137/156/24 222/245/24 223/246/24 139/157/24
f 139/157/32 223/246/32 221/247/32 138/159/32
f 161/204/26 225/248/26 226/249/26 163/205/26
f 163/205/27 226/249/27 224/250/27 162/207/27
f 134/150/24 228/251/24 229/252/24 136/151/24
f 136/151/32 229/252/32 227/253/32 135/153/32
f 158/198/26 231/254/26 232/255/26 160/199/26
f 160/199/27 232/255/27 230/256/27 159/201/27
f 240/257/24 234/149/24 235/152/24 241/258/24
f 241/258/32 235/152/32 233/154/32 239/259/32
f 243/260/26 237/197/26 238/200/26 244/261/26
f 244/261/27 238/200/27 236/202/27 242/262/27
f 131/144/24 240/257/24 241/258/24 133/145/24
f 133/145/32 241/258/32 239/259/32 132/147/32
f 155/192/33 243/260/33 244/261/33 157/193/33
f 157/193/27 244/261/27 242/262/27 156/195/27
f 252/263/24 246/143/24 247/146/24 253/264/24
f 253/264/32 247/146/32 245/148/32 251/265/32
f 255/266/33 249/191/33 250/194/33 256/267/33
f 256/267/27 250/194/27 248/196/27 254/268/27
f 128/138/24 252/263/24 253/264/24 130/139/24
f 130/139/25 253/264/25 251/265/25 129/141/25
f 152/186/33 255/266/33 256/267/33 154/187/33
f 154/187/27 256/267/27 254/268/27 153/189/27
f 264/269/24 258/137/24 259/140/24 265/270/24
f 265/270/32 259/140/32 257/142/32 263/271/32
f 267/272/26 261/185/26 262/188/26 268/273/26
f 268/273/27 262/188/27 260/190/27 266/274/27
f 125/132/24 264/269/24 265/270/24 127/133/24
f 127/133/32 265/270/32 263/271/32 126/135/32
f 149/180/26 267/272/26 268/273/26 151/181/26
f 151/181/27 268/273/27 266/274/27 150/183/27
f 276/275/24 270/131/24 271/134/24 277/276/24
f 277/276/25 271/134/25 269/136/25 275/277/25
f 279/278/33 273/179/33 274/182/33 280/279/33
f 280/279/27 274/182/27 272/184/27 278/280/27
f 122/126/24 276/275/24 277/276/24 124/127/24
f 124/127/25 277/276/25 275/277/25 123/129/25
f 117/130/33 279/278/33 280/279/33 118/128/33
f 118/128/27 280/279/27 278/280/27 116/125/27
f 113/120/2 177/119/2 43/77/2 23/9/2
f 176/124/34 114/123/34 119/114/34 174/113/34
f 120/117/3 113/120/3 23/9/3 22/2/3
f 116/125/34 278/280/34 276/275/34 122/126/34
f 117/130/4 123/129/4 21/11/4 24/6/4
f 279/278/2 117/130/2 24/6/2 112/5/2
f 173/118/1 120/117/1 22/2/1 44/1/1
f 123/129/1 275/277/1 109/111/1 21/11/1
f 269/136/1 126/135/1 33/46/1 107/45/1
f 126/135/1 263/271/1 101/107/1 33/46/1
f 272/184/34 150/183/34 125/132/34 270/131/34
f 150/183/34 266/274/34 264/269/34 125/132/34
f 257/142/1 129/141/1 34/50/1 99/49/1
f 129/141/1 251/265/1 93/103/1 34/50/1
f 260/190/34 153/189/34 128/138/34 258/137/34
f 153/189/34 254/268/34 252/263/34 128/138/34
f 245/148/1 132/147/1 35/54/1 91/53/1
f 132/147/1 239/259/1 85/99/1 35/54/1
f 248/196/34 156/195/34 131/144/34 246/143/34
f 156/195/34 242/262/34 240/257/34 131/144/34
f 233/154/1 135/153/1 36/58/1 83/57/1
f 135/153/1 227/253/1 77/95/1 36/58/1
f 236/202/34 159/201/34 134/150/34 234/149/34
f 159/201/34 230/256/34 228/251/34 134/150/34
f 215/160/1 138/159/1 37/62/1 71/61/1
f 138/159/1 221/247/1 73/93/1 37/62/1
f 218/208/34 162/207/34 137/156/34 216/155/34
f 162/207/34 224/250/34 222/245/34 137/156/34
f 203/166/1 141/165/1 38/66/1 63/65/1
f 141/165/1 209/241/1 65/89/1 38/66/1
f 206/214/34 165/213/34 140/162/34 204/161/34
f 165/213/34 212/244/34 210/239/34 140/162/34
f 191/172/1 144/171/1 39/70/1 55/69/1
f 144/171/1 197/235/1 57/85/1 39/70/1
f 194/220/34 168/219/34 143/168/34 192/167/34
f 168/219/34 200/238/34 198/233/34 143/168/34
f 185/178/1 147/177/1 40/74/1 51/73/1
f 147/177/1 179/229/1 45/79/1 40/74/1
f 188/226/34 171/225/34 146/174/34 186/173/34
f 171/225/34 182/232/34 180/227/34 146/174/34
f 149/180/2 273/179/2 108/109/2 32/42/2
f 267/272/2 149/180/2 32/42/2 104/41/2
f 152/186/2 261/185/2 100/105/2 31/38/2
f 255/266/2 152/186/2 31/38/2 96/37/2
f 155/192/2 249/191/2 92/101/2 30/34/2
f 243/260/2 155/192/2 30/34/2 88/33/2
f 158/198/2 237/197/2 84/97/2 29/30/2
f 231/254/2 158/198/2 29/30/2 80/29/2
f 161/204/2 219/203/2 72/91/2 28/26/2
f 225/248/2 161/204/2 28/26/2 76/25/2
f 164/210/2 207/209/2 64/87/2 27/22/2
f 213/242/2 164/210/2 27/22/2 68/21/2
f 167/216/2 195/215/2 56/83/2 26/18/2
f 201/236/2 167/216/2 26/18/2 60/17/2
f 170/222/2 189/221/2 52/81/2 25/14/2
f 183/230/2 170/222/2 25/14/2 48/13/2
f 182/232/34 176/124/34 174/113/34 180/227/34
f 179/229/1 173/118/1 44/1/1 45/79/1
f 177/119/2 183/230/2 48/13/2 43/77/2
f 200/238/34 188/226/34 186/173/34 198/233/34
f 197/235/1 185/178/1 51/73/1 57/85/1
f 189/221/2 201/236/2 60/17/2 52/81/2
f 212/244/34 194/220/34 192/167/34 210/239/34
f 209/241/1 191/172/1 55/69/1 65/89/1
f 195/215/2 213/242/2 68/21/2 56/83/2
f 224/250/34 206/214/34 204/161/34 222/245/34
f 221/247/1 203/166/1 63/65/1 73/93/1
f 207/209/2 225/248/2 76/25/2 64/87/2
f 230/256/34 218/208/34 216/155/34 228/251/34
f 227/253/1 215/160/1 71/61/1 77/95/1
f 219/203/2 231/254/2 80/29/2 72/91/2
f 242/262/34 236/202/34 234/149/34 240/257/34
f 239/259/1 233/154/1 83/57/1 85/99/1
f 237/197/2 243/260/2 88/33/2 84/97/2
f 254/268/34 248/196/34 246/143/34 252/263/34
f 251/265/1 245/148/1 91/53/1 93/103/1
f 249/191/2 255/266/2 96/37/2 92/101/2
f 266/274/34 260/190/34 258/137/34 264/269/34
f 263/271/1 257/142/1 99/49/1 101/107/1
f 261/185/2 267/272/2 104/41/2 100/105/2
f 278/280/34 272/184/34 270/131/34 276/275/34
f 275/277/1 269/136/1 107/45/1 109/111/1
f 273/179/2 279/278/2 112/5/2 108/109/2
f 324/1/2 302/2/2 282/3/2 321/4/2
f 392/5/1 304/6/1 283/7/1 391/8/1
f 302/2/35 303/9/35 284/10/35 282/3/35
f 304/6/36 301/11/36 281/12/36 283/7/36
f 328/13/1 305/14/1 300/15/1 327/16/1
f 340/17/1 306/18/1 299/19/1 339/20/1
f 348/21/1 307/22/1 298/23/1 347/24/1
f 356/25/1 308/26/1 297/27/1 355/28/1
f 360/29/1 309/30/1 296/31/1 359/32/1
f 368/33/1 310/34/1 295/35/1 367/36/1
f 376/37/1 311/38/1 294/39/1 375/40/1
f 384/41/1 312/42/1 293/43/1 383/44/1
f 387/45/2 313/46/2 285/47/2 385/48/2
f 379/49/2 314/50/2 286/51/2 377/52/2
f 371/53/2 315/54/2 287/55/2 369/56/2
f 363/57/2 316/58/2 288/59/2 361/60/2
f 351/61/2 317/62/2 289/63/2 349/64/2
f 343/65/2 318/66/2 290/67/2 341/68/2
f 335/69/2 319/70/2 291/71/2 333/72/2
f 331/73/2 320/74/2 292/75/2 329/76/2
f 303/9/1 323/77/1 322/78/1 284/10/1
f 320/74/2 325/79/2 326/80/2 292/75/2
f 305/14/1 332/81/1 330/82/1 300/15/1
f 306/18/1 336/83/1 334/84/1 299/19/1
f 319/70/2 337/85/2 338/86/2 291/71/2
f 307/22/1 344/87/1 342/88/1 298/23/1
f 318/66/2 345/89/2 346/90/2 290/67/2
f 308/26/1 352/91/1 350/92/1 297/27/1
f 317/62/2 353/93/2 354/94/2 289/63/2
f 316/58/2 357/95/2 358/96/2 288/59/2
f 309/30/1 364/97/1 362/98/1 296/31/1
f 315/54/2 365/99/2 366/100/2 287/55/2
f 310/34/1 372/101/1 370/102/1 295/35/1
f 314/50/2 373/103/2 374/104/2 286/51/2
f 311/38/1 380/105/1 378/106/1 294/39/1
f 313/46/2 381/107/2 382/108/2 285/47/2
f 312/42/1 388/109/1 386/110/1 293/43/1
f 301/11/2 389/111/2 390/112/2 281/12/2
f 324/1/37 321/4/37 322/78/37 323/77/37
f 325/79/6 324/1/6 323/77/6 328/13/6
f 338/86/38 337/85/38 340/17/38 339/20/38
f 337/85/6 331/73/6 332/81/6 340/17/6
f 326/80/39 325/79/39 328/13/39 327/16/39
f 335/69/40 333/72/40 334/84/40 336/83/40
f 331/73/41 329/76/41 330/82/41 332/81/41
f 353/93/6 343/65/6 344/87/6 356/25/6
f 343/65/42 341/68/42 342/88/42 344/87/42
f 345/89/6 335/69/6 336/83/6 348/21/6
f 354/94/43 353/93/43 356/25/43 355/28/43
f 346/90/44 345/89/44 348/21/44 347/24/44
f 363/57/45 361/60/45 362/98/45 364/97/45
f 358/96/46 357/95/46 360/29/46 359/32/46
f 351/61/47 349/64/47 350/92/47 352/91/47
f 365/99/6 363/57/6 364/97/6 368/33/6
f 357/95/6 351/61/6 352/91/6 360/29/6
f 374/104/48 373/103/48 376/37/48 375/40/48
f 373/103/6 371/53/6 372/101/6 376/37/6
f 366/100/49 365/99/49 368/33/49 367/36/49
f 379/49/50 377/52/50 378/106/50 380/105/50
f 371/53/51 369/56/51 370/102/51 372/101/51
f 389/111/6 387/45/6 388/109/6 392/5/6
f 387/45/52 385/48/52 386/110/52 388/109/52
f 381/107/6 379/49/6 380/105/6 384/41/6
f 390/112/53 389/111/53 392/5/53 391/8/53
f 382/108/54 381/107/54 384/41/54 383/44/54
f 454/113/27 399/114/27 401/115/27 455/116/27
f 455/116/33 401/115/33 400/117/33 453/118/33
f 457/119/32 393/120/32 395/121/32 458/122/32
f 458/122/24 395/121/24 394/123/24 456/124/24
f 399/114/55 394/123/55 395/121/55 401/115/55
f 401/115/56 395/121/56 393/120/56 400/117/56
f 396/125/57 402/126/57 404/127/57 398/128/57
f 398/128/58 404/127/58 403/129/58 397/130/58
f 550/131/27 405/132/27 407/133/27 551/134/27
f 551/134/26 407/133/26 406/135/26 549/136/26
f 538/137/27 408/138/27 410/139/27 539/140/27
f 539/140/33 410/139/33 409/141/33 537/142/33
f 526/143/27 411/144/27 413/145/27 527/146/27
f 527/146/33 413/145/33 412/147/33 525/148/33
f 514/149/27 414/150/27 416/151/27 515/152/27
f 515/152/33 416/151/33 415/153/33 513/154/33
f 496/155/27 417/156/27 419/157/27 497/158/27
f 497/158/26 419/157/26 418/159/26 495/160/26
f 484/161/27 420/162/27 422/163/27 485/164/27
f 485/164/33 422/163/33 421/165/33 483/166/33
f 472/167/27 423/168/27 425/169/27 473/170/27
f 473/170/33 425/169/33 424/171/33 471/172/33
f 466/173/27 426/174/27 428/175/27 467/176/27
f 467/176/33 428/175/33 427/177/33 465/178/33
f 553/179/25 429/180/25 431/181/25 554/182/25
f 554/182/24 431/181/24 430/183/24 552/184/24
f 541/185/25 432/186/25 434/187/25 542/188/25
f 542/188/24 434/187/24 433/189/24 540/190/24
f 529/191/25 435/192/25 437/193/25 530/194/25
f 530/194/24 437/193/24 436/195/24 528/196/24
f 517/197/32 438/198/32 440/199/32 518/200/32
f 518/200/24 440/199/24 439/201/24 516/202/24
f 499/203/25 441/204/25 443/205/25 500/206/25
f 500/206/24 443/205/24 442/207/24 498/208/24
f 487/209/32 444/210/32 446/211/32 488/212/32
f 488/212/24 446/211/24 445/213/24 486/214/24
f 475/215/32 447/216/32 449/217/32 476/218/32
f 476/218/24 449/217/24 448/219/24 474/220/24
f 469/221/32 450/222/32 452/223/32 470/224/32
f 470/224/24 452/223/24 451/225/24 468/226/24
f 460/227/27 454/113/27 455/116/27 461/228/27
f 461/228/26 455/116/26 453/118/26 459/229/26
f 463/230/25 457/119/25 458/122/25 464/231/25
f 464/231/24 458/122/24 456/124/24 462/232/24
f 426/174/27 460/227/27 461/228/27 428/175/27
f 428/175/33 461/228/33 459/229/33 427/177/33
f 450/222/25 463/230/25 464/231/25 452/223/25
f 452/223/24 464/231/24 462/232/24 451/225/24
f 478/233/27 466/173/27 467/176/27 479/234/27
f 479/234/26 467/176/26 465/178/26 477/235/26
f 481/236/25 469/221/25 470/224/25 482/237/25
f 482/237/24 470/224/24 468/226/24 480/238/24
f 490/239/27 472/167/27 473/170/27 491/240/27
f 491/240/26 473/170/26 471/172/26 489/241/26
f 493/242/25 475/215/25 476/218/25 494/243/25
f 494/243/24 476/218/24 474/220/24 492/244/24
f 423/168/27 478/233/27 479/234/27 425/169/27
f 425/169/33 479/234/33 477/235/33 424/171/33
f 447/216/32 481/236/32 482/237/32 449/217/32
f 449/217/24 482/237/24 480/238/24 448/219/24
f 502/245/27 484/161/27 485/164/27 503/246/27
f 503/246/26 485/164/26 483/166/26 501/247/26
f 505/248/32 487/209/32 488/212/32 506/249/32
f 506/249/24 488/212/24 486/214/24 504/250/24
f 420/162/27 490/239/27 491/240/27 422/163/27
f 422/163/33 491/240/33 489/241/33 421/165/33
f 444/210/32 493/242/32 494/243/32 446/211/32
f 446/211/24 494/243/24 492/244/24 445/213/24
f 508/251/27 496/155/27 497/158/27 509/252/27
f 509/252/26 497/158/26 495/160/26 507/253/26
f 511/254/25 499/203/25 500/206/25 512/255/25
f 512/255/24 500/206/24 498/208/24 510/256/24
f 417/156/27 502/245/27 503/246/27 419/157/27
f 419/157/26 503/246/26 501/247/26 418/159/26
f 441/204/32 505/248/32 506/249/32 443/205/32
f 443/205/24 506/249/24 504/250/24 442/207/24
f 414/150/27 508/251/27 509/252/27 416/151/27
f 416/151/26 509/252/26 507/253/26 415/153/26
f 438/198/32 511/254/32 512/255/32 440/199/32
f 440/199/24 512/255/24 510/256/24 439/201/24
f 520/257/27 514/149/27 515/152/27 521/258/27
f 521/258/26 515/152/26 513/154/26 519/259/26
f 523/260/32 517/197/32 518/200/32 524/261/32
f 524/261/24 518/200/24 516/202/24 522/262/24
f 411/144/27 520/257/27 521/258/27 413/145/27
f 413/145/26 521/258/26 519/259/26 412/147/26
f 435/192/25 523/260/25 524/261/25 437/193/25
f 437/193/24 524/261/24 522/262/24 436/195/24
f 532/263/27 526/143/27 527/146/27 533/264/27
f 533/264/26 527/146/26 525/148/26 531/265/26
f 535/266/25 529/191/25 530/194/25 536/267/25
f 536/267/24 530/194/24 528/196/24 534/268/24
f 408/138/27 532/263/27 533/264/27 410/139/27
f 410/139/26 533/264/26 531/265/26 409/141/26
f 432/186/25 535/266/25 536/267/25 434/187/25
f 434/187/24 536/267/24 534/268/24 433/189/24
f 544/269/27 538/137/27 539/140/27 545/270/27
f 545/270/33 539/140/33 537/142/33 543/271/33
f 547/272/25 541/185/25 542/188/25 548/273/25
f 548/273/24 542/188/24 540/190/24 546/274/24
f 405/132/27 544/269/27 545/270/27 407/133/27
f 407/133/33 545/270/33 543/271/33 406/135/33
f 429/180/32 547/272/32 548/273/32 431/181/32
f 431/181/24 548/273/24 546/274/24 430/183/24
f 556/275/27 550/131/27 551/134/27 557/276/27
f 557/276/26 551/134/26 549/136/26 555/277/26
f 559/278/32 553/179/32 554/182/32 560/279/32
f 560/279/24 554/182/24 552/184/24 558/280/24
f 402/126/27 556/275/27 557/276/27 404/127/27
f 404/127/33 557/276/33 555/277/33 403/129/33
f 397/130/32 559/278/32 560/279/32 398/128/32
f 398/128/24 560/279/24 558/280/24 396/125/24
f 393/120/1 457/119/1 323/77/1 303/9/1
f 456/124/34 394/123/34 399/114/34 454/113/34
f 400/117/59 393/120/59 303/9/59 302/2/59
f 396/125/34 558/280/34 556/275/34 402/126/34
f 397/130/36 403/129/36 301/11/36 304/6/36
f 559/278/1 397/130/1 304/6/1 392/5/1
f 453/118/2 400/117/2 302/2/2 324/1/2
f 403/129/2 555/277/2 389/111/2 301/11/2
f 549/136/2 406/135/2 313/46/2 387/45/2
f 406/135/2 543/271/2 381/107/2 313/46/2
f 552/184/34 430/183/34 405/132/34 550/131/34
f 430/183/34 546/274/34 544/269/34 405/132/34
f 537/142/2 409/141/2 314/50/2 379/49/2
f 409/141/2 531/265/2 373/103/2 314/50/2
f 540/190/34 433/189/34 408/138/34 538/137/34
f 433/189/34 534/268/34 532/263/34 408/138/34
f 525/148/2 412/147/2 315/54/2 371/53/2
f 412/147/2 519/259/2 365/99/2 315/54/2
f 528/196/34 436/195/34 411/144/34 526/143/34
f 436/195/34 522/262/34 520/257/34 411/144/34
f 513/154/2 415/153/2 316/58/2 363/57/2
f 415/153/2 507/253/2 357/95/2 316/58/2
f 516/202/34 439/201/34 414/150/34 514/149/34
f 439/201/34 510/256/34 508/251/34 414/150/34
f 495/160/2 418/159/2 317/62/2 351/61/2
f 418/159/2 501/247/2 353/93/2 317/62/2
f 498/208/34 442/207/34 417/156/34 496/155/34
f 442/207/34 504/250/34 502/245/34 417/156/34
f 483/166/2 421/165/2 318/66/2 343/65/2
f 421/165/2 489/241/2 345/89/2 318/66/2
f 486/214/34 445/213/34 420/162/34 484/161/34
f 445/213/34 492/244/34 490/239/34 420/162/34
f 471/172/2 424/171/2 319/70/2 335/69/2
f 424/171/2 477/235/2 337/85/2 319/70/2
f 474/220/34 448/219/34 423/168/34 472/167/34
f 448/219/34 480/238/34 478/233/34 423/168/34
f 465/178/2 427/177/2 320/74/2 331/73/2
f 427/177/2 459/229/2 325/79/2 320/74/2
f 468/226/34 451/225/34 426/174/34 466/173/34
f 451/225/34 462/232/34 460/227/34 426/174/34
f 429/180/1 553/179/1 388/109/1 312/42/1
f 547/272/1 429/180/1 312/42/1 384/41/1
f 432/186/1 541/185/1 380/105/1 311/38/1
f 535/266/1 432/186/1 311/38/1 376/37/1
f 435/192/1 529/191/1 372/101/1 310/34/1
f 523/260/1 435/192/1 310/34/1 368/33/1
f 438/198/1 517/197/1 364/97/1 309/30/1
f 511/254/1 438/198/1 309/30/1 360/29/1
f 441/204/1 499/203/1 352/91/1 308/26/1
f 505/248/1 441/204/1 308/26/1 356/25/1
f 444/210/1 487/209/1 344/87/1 307/22/1
f 493/242/1 444/210/1 307/22/1 348/21/1
f 447/216/1 475/215/1 336/83/1 306/18/1
f 481/236/1 447/216/1 306/18/1 340/17/1
f 450/222/1 469/221/1 332/81/1 305/14/1
f 463/230/1 450/222/1 305/14/1 328/13/1
f 462/232/34 456/124/34 454/113/34 460/227/34
f 459/229/2 453/118/2 324/1/2 325/79/2
f 457/119/1 463/230/1 328/13/1 323/77/1
f 480/238/34 468/226/34 466/173/34 478/233/34
f 477/235/2 465/178/2 331/73/2 337/85/2
f 469/221/1 481/236/1 340/17/1 332/81/1
f 492/244/34 474/220/34 472/167/34 490/239/34
f 489/241/2 471/172/2 335/69/2 345/89/2
f 475/215/1 493/242/1 348/21/1 336/83/1
f 504/250/34 486/214/34 484/161/34 502/245/34
f 501/247/2 483/166/2 343/65/2 353/93/2
f 487/209/1 505/248/1 356/25/1 344/87/1
f 510/256/34 498/208/34 496/155/34 508/251/34
f 507/253/2 495/160/2 351/61/2 357/95/2
f 499/203/1 511/254/1 360/29/1 352/91/1
f 522/262/34 516/202/34 514/149/34 520/257/34
f 519/259/2 513/154/2 363/57/2 365/99/2
f 517/197/1 523/260/1 368/33/1 364/97/1
f 534/268/34 528/196/34 526/143/34 532/263/34
f 531/265/2 525/148/2 371/53/2 373/103/2
f 529/191/1 535/266/1 376/37/1 372/101/1
f 546/274/34 540/190/34 538/137/34 544/269/34
f 543/271/2 537/142/2 379/49/2 381/107/2
f 541/185/1 547/272/1 384/41/1 380/105/1
f 558/280/34 552/184/34 550/131/34 556/275/34
f 555/277/2 549/136/2 387/45/2 389/111/2
f 553/179/1 559/278/1 392/5/1 388/109/1
f 604/1/60 582/2/60 562/3/60 601/4/60
f 672/5/61 584/6/61 563/7/61 671/8/61
f 582/2/62 583/9/62 564/10/62 562/3/62
f 584/6/63 581/11/63 561/12/63 563/7/63
f 608/13/61 585/14/61 580/15/61 607/16/61
f 620/17/61 586/18/61 579/19/61 619/20/61
f 628/21/61 587/22/61 578/23/61 627/24/61
f 636/25/61 588/26/61 577/27/61 635/28/61
f 640/29/61 589/30/61 576/31/61 639/32/61
f 648/33/61 590/34/61 575/35/61 647/36/61
f 656/37/61 591/38/61 574/39/61 655/40/61
f 664/41/61 592/42/61 573/43/61 663/44/61
f 667/45/60 593/46/60 565/47/60 665/48/60
f 659/49/60 594/50/60 566/51/60 657/52/60
f 651/53/60 595/54/60 567/55/60 649/56/60
f 643/57/60 596/58/60 568/59/60 641/60/60
f 631/61/60 597/62/60 569/63/60 629/64/60
f 623/65/60 598/66/60 570/67/60 621/68/60
f 615/69/60 599/70/60 571/71/60 613/72/60
f 611/73/60 600/74/60 572/75/60 609/76/60
f 583/9/61 603/77/61 602/78/61 564/10/61
f 600/74/60 605/79/60 606/80/60 572/75/60
f 585/14/61 612/81/61 610/82/61 580/15/61
f 586/18/61 616/83/61 614/84/61 579/19/61
f 599/70/60 617/85/60 618/86/60 571/71/60
f 587/22/61 624/87/61 622/88/61 578/23/61
f 598/66/60 625/89/60 626/90/60 570/67/60
f 588/26/61 632/91/61 630/92/61 577/27/61
f 597/62/60 633/93/60 634/94/60 569/63/60
f 596/58/60 637/95/60 638/96/60 568/59/60
f 589/30/61 644/97/61 642/98/61 576/31/61
f 595/54/60 645/99/60 646/100/60 567/55/60
f 590/34/61 652/101/61 650/102/61 575/35/61
f 594/50/60 653/103/60 654/104/60 566/51/60
f 591/38/61 660/105/61 658/106/61 574/39/61
f 593/46/60 661/107/60 662/108/60 565/47/60
f 592/42/61 668/109/61 666/110/61 573/43/61
f 581/11/60 669/111/60 670/112/60 561/12/60
f 604/1/64 601/4/64 602/78/64 603/77/64
f 605/79/6 604/1/6 603/77/6 608/13/6
f 618/86/65 617/85/65 620/17/65 619/20/65
f 617/85/6 611/73/6 612/81/6 620/17/6
f 606/80/66 605/79/66 608/13/66 607/16/66
f 615/69/67 613/72/67 614/84/67 616/83/67
f 611/73/68 609/76/68 610/82/68 612/81/68
f 633/93/6 623/65/6 624/87/6 636/25/6
f 623/65/69 621/68/69 622/88/69 624/87/69
f 625/89/6 615/69/6 616/83/6 628/21/6
f 634/94/70 633/93/70 636/25/70 635/28/70
f 626/90/71 625/89/71 628/21/71 627/24/71
f 643/57/72 641/60/72 642/98/72 644/97/72
f 638/96/73 637/95/73 640/29/73 639/32/73
f 631/61/74 629/64/74 630/92/74 632/91/74
f 645/99/6 643/57/6 644/97/6 648/33/6
f 637/95/6 631/61/6 632/91/6 640/29/6
f 654/104/75 653/103/75 656/37/75 655/40/75
f 653/103/6 651/53/6 652/101/6 656/37/6
f 646/100/76 645/99/76 648/33/76 647/36/76
f 659/49/77 657/52/77 658/106/77 660/105/77
f 651/53/78 649/56/78 650/102/78 652/101/78
f 669/111/6 667/45/6 668/109/6 672/5/6
f 667/45/79 665/48/79 666/110/79 668/109/79
f 661/107/6 659/49/6 660/105/6 664/41/6
f 670/112/80 669/111/80 672/5/80 671/8/80
f 662/108/81 661/107/81 664/41/81 663/44/81
f 734/113/82 679/114/82 681/115/82 735/116/82
f 735/116/83 681/115/83 680/117/83 733/118/83
f 737/119/84 673/120/84 675/121/84 738/122/84
f 738/122/85 675/121/85 674/123/85 736/124/85
f 679/114/86 674/123/86 675/121/86 681/115/86
f 681/115/87 675/121/87 673/120/87 680/117/87
f 676/125/88 682/126/88 684/127/88 678/128/88
f 678/128/89 684/127/89 683/129/89 677/130/89
f 830/131/82 685/132/82 687/133/82 831/134/82
f 831/134/90 687/133/90 686/135/90 829/136/90
f 818/137/82 688/138/82 690/139/82 819/140/82
f 819/140/90 690/139/90 689/141/90 817/142/90
f 806/143/82 691/144/82 693/145/82 807/146/82
f 807/146/90 693/145/90 692/147/90 805/148/90
f 794/149/82 694/150/82 696/151/82 795/152/82
f 795/152/90 696/151/90 695/153/90 793/154/90
f 776/155/82 697/156/82 699/157/82 777/158/82
f 777/158/90 699/157/90 698/159/90 775/160/90
f 764/161/82 700/162/82 702/163/82 765/164/82
f 765/164/83 702/163/83 701/165/83 763/166/83
f 752/167/82 703/168/82 705/169/82 753/170/82
f 753/170/90 705/169/90 704/171/90 751/172/90
f 746/173/82 706/174/82 708/175/82 747/176/82
f 747/176/90 708/175/90 707/177/90 745/178/90
f 833/179/84 709/180/84 711/181/84 834/182/84
f 834/182/85 711/181/85 710/183/85 832/184/85
f 821/185/84 712/186/84 714/187/84 822/188/84
f 822/188/85 714/187/85 713/189/85 820/190/85
f 809/191/84 715/192/84 717/193/84 810/194/84
f 810/194/85 717/193/85 716/195/85 808/196/85
f 797/197/84 718/198/84 720/199/84 798/200/84
f 798/200/85 720/199/85 719/201/85 796/202/85
f 779/203/84 721/204/84 723/205/84 780/206/84
f 780/206/85 723/205/85 722/207/85 778/208/85
f 767/209/84 724/210/84 726/211/84 768/212/84
f 768/212/85 726/211/85 725/213/85 766/214/85
f 755/215/84 727/216/84 729/217/84 756/218/84
f 756/218/85 729/217/85 728/219/85 754/220/85
f 749/221/84 730/222/84 732/223/84 750/224/84
f 750/224/85 732/223/85 731/225/85 748/226/85
f 740/227/82 734/113/82 735/116/82 741/228/82
f 741/228/90 735/116/90 733/118/90 739/229/90
f 743/230/84 737/119/84 738/122/84 744/231/84
f 744/231/85 738/122/85 736/124/85 742/232/85
f 706/174/82 740/227/82 741/228/82 708/175/82
f 708/175/90 741/228/90 739/229/90 707/177/90
f 730/222/84 743/230/84 744/231/84 732/223/84
f 732/223/85 744/231/85 742/232/85 731/225/85
f 758/233/82 746/173/82 747/176/82 759/234/82
f 759/234/90 747/176/90 745/178/90 757/235/90
f 761/236/84 749/221/84 750/224/84 762/237/84
f 762/237/85 750/224/85 748/226/85 760/238/85
f 770/239/82 752/167/82 753/170/82 771/240/82
f 771/240/90 753/170/90 751/172/90 769/241/90
f 773/242/84 755/215/84 756/218/84 774/243/84
f 774/243/85 756/218/85 754/220/85 772/244/85
f 703/168/82 758/233/82 759/234/82 705/169/82
f 705/169/90 759/234/90 757/235/90 704/171/90
f 727/216/84 761/236/84 762/237/84 729/217/84
f 729/217/85 762/237/85 760/238/85 728/219/85
f 782/245/82 764/161/82 765/164/82 783/246/82
f 783/246/90 765/164/90 763/166/90 781/247/90
f 785/248/84 767/209/84 768/212/84 786/249/84
f 786/249/85 768/212/85 766/214/85 784/250/85
f 700/162/82 770/239/82 771/240/82 702/163/82
f 702/163/90 771/240/90 769/241/90 701/165/90
f 724/210/84 773/242/84 774/243/84 726/211/84
f 726/211/85 774/243/85 772/244/85 725/213/85
f 788/251/82 776/155/82 777/158/82 789/252/82
f 789/252/90 777/158/90 775/160/90 787/253/90
f 791/254/84 779/203/84 780/206/84 792/255/84
f 792/255/85 780/206/85 778/208/85 790/256/85
f 697/156/82 782/245/82 783/246/82 699/157/82
f 699/157/90 783/246/90 781/247/90 698/159/90
f 721/204/84 785/248/84 786/249/84 723/205/84
f 723/205/85 786/249/85 784/250/85 722/207/85
f 694/150/82 788/251/82 789/252/82 696/151/82
f 696/151/90 789/252/90 787/253/90 695/153/90
f 718/198/84 791/254/84 792/255/84 720/199/84
f 720/199/85 792/255/85 790/256/85 719/201/85
f 800/257/82 794/149/82 795/152/82 801/258/82
f 801/258/90 795/152/90 793/154/90 799/259/90
f 803/260/84 797/197/84 798/200/84 804/261/84
f 804/261/85 798/200/85 796/202/85 802/262/85
f 691/144/82 800/257/82 801/258/82 693/145/82
f 693/145/90 801/258/90 799/259/90 692/147/90
f 715/192/84 803/260/84 804/261/84 717/193/84
f 717/193/85 804/261/85 802/262/85 716/195/85
f 812/263/82 806/143/82 807/146/82 813/264/82
f 813/264/90 807/146/90 805/148/90 811/265/90
f 815/266/84 809/191/84 810/194/84 816/267/84
f 816/267/85 810/194/85 808/196/85 814/268/85
f 688/138/82 812/263/82 813/264/82 690/139/82
f 690/139/90 813/264/90 811/265/90 689/141/90
f 712/186/84 815/266/84 816/267/84 714/187/84
f 714/187/85 816/267/85 814/268/85 713/189/85
f 824/269/82 818/137/82 819/140/82 825/270/82
f 825/270/90 819/140/90 817/142/90 823/271/90
f 827/272/84 821/185/84 822/188/84 828/273/84
f 828/273/85 822/188/85 820/190/85 826/274/85
f 685/132/82 824/269/82 825/270/82 687/133/82
f 687/133/90 825/270/90 823/271/90 686/135/90
f 709/180/84 827/272/84 828/273/84 711/181/84
f 711/181/85 828/273/85 826/274/85 710/183/85
f 836/275/82 830/131/82 831/134/82 837/276/82
f 837/276/90 831/134/90 829/136/90 835/277/90
f 839/278/84 833/179/84 834/182/84 840/279/84
f 840/279/85 834/182/85 832/184/85 838/280/85
f 682/126/82 836/275/82 837/276/82 684/127/82
f 684/127/90 837/276/90 835/277/90 683/129/90
f 677/130/84 839/278/84 840/279/84 678/128/84
f 678/128/85 840/279/85 838/280/85 676/125/85
f 673/120/61 737/119/61 603/77/61 583/9/61
f 736/124/34 674/123/34 679/114/34 734/113/34
f 680/117/91 673/120/91 583/9/91 582/2/91
f 676/125/34 838/280/34 836/275/34 682/126/34
f 677/130/63 683/129/63 581/11/63 584/6/63
f 839/278/61 677/130/61 584/6/61 672/5/61
f 733/118/60 680/117/60 582/2/60 604/1/60
f 683/129/60 835/277/60 669/111/60 581/11/60
f 829/136/60 686/135/60 593/46/60 667/45/60
f 686/135/60 823/271/60 661/107/60 593/46/60
f 832/184/34 710/183/34 685/132/34 830/131/34
f 710/183/34 826/274/34 824/269/34 685/132/34
f 817/142/60 689/141/60 594/50/60 659/49/60
f 689/141/60 811/265/60 653/103/60 594/50/60
f 820/190/34 713/189/34 688/138/34 818/137/34
f 713/189/34 814/268/34 812/263/34 688/138/34
f 805/148/60 692/147/60 595/54/60 651/53/60
f 692/147/60 799/259/60 645/99/60 595/54/60
f 808/196/34 716/195/34 691/144/34 806/143/34
f 716/195/34 802/262/34 800/257/34 691/144/34
f 793/154/60 695/153/60 596/58/60 643/57/60
f 695/153/60 787/253/60 637/95/60 596/58/60
f 796/202/34 719/201/34 694/150/34 794/149/34
f 719/201/34 790/256/34 788/251/34 694/150/34
f 775/160/60 698/159/60 597/62/60 631/61/60
f 698/159/60 781/247/60 633/93/60 597/62/60
f 778/208/34 722/207/34 697/156/34 776/155/34
f 722/207/34 784/250/34 782/245/34 697/156/34
f 763/166/60 701/165/60 598/66/60 623/65/60
f 701/165/60 769/241/60 625/89/60 598/66/60
f 766/214/34 725/213/34 700/162/34 764/161/34
f 725/213/34 772/244/34 770/239/34 700/162/34
f 751/172/60 704/171/60 599/70/60 615/69/60
f 704/171/60 757/235/60 617/85/60 599/70/60
f 754/220/34 728/219/34 703/168/34 752/167/34
f 728/219/34 760/238/34 758/233/34 703/168/34
f 745/178/60 707/177/60 600/74/60 611/73/60
f 707/177/60 739/229/60 605/79/60 600/74/60
f 748/226/34 731/225/34 706/174/34 746/173/34
f 731/225/34 742/232/34 740/227/34 706/174/34
f 709/180/61 833/179/61 668/109/61 592/42/61
f 827/272/61 709/180/61 592/42/61 664/41/61
f 712/186/61 821/185/61 660/105/61 591/38/61
f 815/266/61 712/186/61 591/38/61 656/37/61
f 715/192/61 809/191/61 652/101/61 590/34/61
f 803/260/61 715/192/61 590/34/61 648/33/61
f 718/198/61 797/197/61 644/97/61 589/30/61
f 791/254/61 718/198/61 589/30/61 640/29/61
f 721/204/61 779/203/61 632/91/61 588/26/61
f 785/248/61 721/204/61 588/26/61 636/25/61
f 724/210/61 767/209/61 624/87/61 587/22/61
f 773/242/61 724/210/61 587/22/61 628/21/61
f 727/216/61 755/215/61 616/83/61 586/18/61
f 761/236/61 727/216/61 586/18/61 620/17/61
f 730/222/61 749/221/61 612/81/61 585/14/61
f 743/230/61 730/222/61 585/14/61 608/13/61
f 742/232/34 736/124/34 734/113/34 740/227/34
f 739/229/60 733/118/60 604/1/60 605/79/60
f 737/119/61 743/230/61 608/13/61 603/77/61
f 760/238/34 748/226/34 746/173/34 758/233/34
f 757/235/60 745/178/60 611/73/60 617/85/60
f 749/221/61 761/236/61 620/17/61 612/81/61
f 772/244/34 754/220/34 752/167/34 770/239/34
f 769/241/60 751/172/60 615/69/60 625/89/60
f 755/215/61 773/242/61 628/21/61 616/83/61
f 784/250/34 766/214/34 764/161/34 782/245/34
f 781/247/60 763/166/60 623/65/60 633/93/60
f 767/209/61 785/248/61 636/25/61 624/87/61
f 790/256/34 778/208/34 776/155/34 788/251/34
f 787/253/60 775/160/60 631/61/60 637/95/60
f 779/203/61 791/254/61 640/29/61 632/91/61
f 802/262/34 796/202/34 794/149/34 800/257/34
f 799/259/60 793/154/60 643/57/60 645/99/60
f 797/197/61 803/260/61 648/33/61 644/97/61
f 814/268/34 808/196/34 806/143/34 812/263/34
f 811/265/60 805/148/60 651/53/60 653/103/60
f 809/191/61 815/266/61 656/37/61 652/101/61
f 826/274/34 820/190/34 818/137/34 824/269/34
f 823/271/60 817/142/60 659/49/60 661/107/60
f 821/185/61 827/272/61 664/41/61 660/105/61
f 838/280/34 832/184/34 830/131/34 836/275/34
f 835/277/60 829/136/60 667/45/60 669/111/60
f 833/179/61 839/278/61 672/5/61 668/109/61
f 884/1/61 862/2/61 842/3/61 881/4/61
f 952/5/60 864/6/60 843/7/60 951/8/60
f 862/2/92 863/9/92 844/10/92 842/3/92
f 864/6/93 861/11/93 841/12/93 843/7/93
f 888/13/60 865/14/60 860/15/60 887/16/60
f 900/17/60 866/18/60 859/19/60 899/20/60
f 908/21/60 867/22/60 858/23/60 907/24/60
f 916/25/60 868/26/60 857/27/60 915/28/60
f 920/29/60 869/30/60 856/31/60 919/32/60
f 928/33/60 870/34/60 855/35/60 927/36/60
f 936/37/60 871/38/60 854/39/60 935/40/60
f 944/41/60 872/42/60 853/43/60 943/44/60
f 947/45/61 873/46/61 845/47/61 945/48/61
f 939/49/61 874/50/61 846/51/61 937/52/61
f 931/53/61 875/54/61 847/55/61 929/56/61
f 923/57/61 876/58/61 848/59/61 921/60/61
f 911/61/61 877/62/61 849/63/61 909/64/61
f 903/65/61 878/66/61 850/67/61 901/68/61
f 895/69/61 879/70/61 851/71/61 893/72/61
f 891/73/61 880/74/61 852/75/61 889/76/61
f 863/9/60 883/77/60 882/78/60 844/10/60
f 880/74/61 885/79/61 886/80/61 852/75/61
f 865/14/60 892/81/60 890/82/60 860/15/60
f 866/18/60 896/83/60 894/84/60 859/19/60
f 879/70/61 897/85/61 898/86/61 851/71/61
f 867/22/60 904/87/60 902/88/60 858/23/60
f 878/66/61 905/89/61 906/90/61 850/67/61
f 868/26/60 912/91/60 910/92/60 857/27/60
f 877/62/61 913/93/61 914/94/61 849/63/61
f 876/58/61 917/95/61 918/96/61 848/59/61
f 869/30/60 924/97/60 922/98/60 856/31/60
f 875/54/61 925/99/61 926/100/61 847/55/61
f 870/34/60 932/101/60 930/102/60 855/35/60
f 874/50/61 933/103/61 934/104/61 846/51/61
f 871/38/60 940/105/60 938/106/60 854/39/60
f 873/46/61 941/107/61 942/108/61 845/47/61
f 872/42/60 948/109/60 946/110/60 853/43/60
f 861/11/61 949/111/61 950/112/61 841/12/61
f 884/1/94 881/4/94 882/78/94 883/77/94
f 885/79/6 884/1/6 883/77/6 888/13/6
f 898/86/95 897/85/95 900/17/95 899/20/95
f 897/85/6 891/73/6 892/81/6 900/17/6
f 886/80/96 885/79/96 888/13/96 887/16/96
f 895/69/97 893/72/97 894/84/97 896/83/97
f 891/73/98 889/76/98 890/82/98 892/81/98
f 913/93/6 903/65/6 904/87/6 916/25/6
f 903/65/99 901/68/99 902/88/99 904/87/99
f 905/89/6 895/69/6 896/83/6 908/21/6
f 914/94/100 913/93/100 916/25/100 915/28/100
f 906/90/101 905/89/101 908/21/101 907/24/101
f 923/57/102 921/60/102 922/98/102 924/97/102
f 918/96/103 917/95/103 920/29/103 919/32/103
f 911/61/104 909/64/104 910/92/104 912/91/104
f 925/99/6 923/57/6 924/97/6 928/33/6
f 917/95/6 911/61/6 912/91/6 920/29/6
f 934/104/105 933/103/105 936/37/105 935/40/105
f 933/103/6 931/53/6 932/101/6 936/37/6
f 926/100/106 925/99/106 928/33/106 927/36/106
f 939/49/107 937/52/107 938/106/107 940/105/107
f 931/53/108 929/56/108 930/102/108 932/101/108
f 949/111/6 947/45/6 948/109/6 952/5/6
f 947/45/109 945/48/109 946/110/109 948/109/109
f 941/107/6 939/49/6 940/105/6 944/41/6
f 950/112/110 949/111/110 952/5/110 951/8/110
f 942/108/111 941/107/111 944/41/111 943/44/111
f 1014/113/85 959/114/85 961/115/85 1015/116/85
f 1015/116/112 961/115/112 960/117/112 1013/118/112
f 1017/119/90 953/120/90 955/121/90 1018/122/90
f 1018/122/82 955/121/82 954/123/82 1016/124/82
f 959/114/113 954/123/113 955/121/113 961/115/113
f 961/115/114 955/121/114 953/120/114 960/117/114
f 956/125/115 962/126/115 964/127/115 958/128/115
f 958/128/116 964/127/116 963/129/116 957/130/116
f 1110/131/85 965/132/85 967/133/85 1111/134/85
f 1111/134/84 967/133/84 966/135/84 1109/136/84
f 1098/137/85 968/138/85 970/139/85 1099/140/85
f 1099/140/84 970/139/84 969/141/84 1097/142/84
f 1086/143/85 971/144/85 973/145/85 1087/146/85
f 1087/146/84 973/145/84 972/147/84 1085/148/84
f 1074/149/85 974/150/85 976/151/85 1075/152/85
f 1075/152/84 976/151/84 975/153/84 1073/154/84
f 1056/155/85 977/156/85 979/157/85 1057/158/85
f 1057/158/84 979/157/84 978/159/84 1055/160/84
f 1044/161/85 980/162/85 982/163/85 1045/164/85
f 1045/164/84 982/163/84 981/165/84 1043/166/84
f 1032/167/85 983/168/85 985/169/85 1033/170/85
f 1033/170/84 985/169/84 984/171/84 1031/172/84
f 1026/173/85 986/174/85 988/175/85 1027/176/85
f 1027/176/84 988/175/84 987/177/84 1025/178/84
f 1113/179/90 989/180/90 991/181/90 1114/182/90
f 1114/182/82 991/181/82 990/183/82 1112/184/82
f 1101/185/90 992/186/90 994/187/90 1102/188/90
f 1102/188/82 994/187/82 993/189/82 1100/190/82
f 1089/191/90 995/192/90 997/193/90 1090/194/90
f 1090/194/82 997/193/82 996/195/82 1088/196/82
f 1077/197/90 998/198/90 1000/199/90 1078/200/90
f 1078/200/82 1000/199/82 999/201/82 1076/202/82
f 1059/203/90 1001/204/90 1003/205/90 1060/206/90
f 1060/206/82 1003/205/82 1002/207/82 1058/208/82
f 1047/209/90 1004/210/90 1006/211/90 1048/212/90
f 1048/212/82 1006/211/82 1005/213/82 1046/214/82
f 1035/215/90 1007/216/90 1009/217/90 1036/218/90
f 1036/218/82 1009/217/82 1008/219/82 1034/220/82
f 1029/221/90 1010/222/90 1012/223/90 1030/224/90
f 1030/224/82 1012/223/82 1011/225/82 1028/226/82
f 1020/227/85 1014/113/85 1015/116/85 1021/228/85
f 1021/228/84 1015/116/84 1013/118/84 1019/229/84
f 1023/230/90 1017/119/90 1018/122/90 1024/231/90
f 1024/231/82 1018/122/82 1016/124/82 1022/232/82
f 986/174/85 1020/227/85 1021/228/85 988/175/85
f 988/175/84 1021/228/84 1019/229/84 987/177/84
f 1010/222/90 1023/230/90 1024/231/90 1012/223/90
f 1012/223/82 1024/231/82 1022/232/82 1011/225/82
f 1038/233/85 1026/173/85 1027/176/85 1039/234/85
f 1039/234/84 1027/176/84 1025/178/84 1037/235/84
f 1041/236/90 1029/221/90 1030/224/90 1042/237/90
f 1042/237/82 1030/224/82 1028/226/82 1040/238/82
f 1050/239/85 1032/167/85 1033/170/85 1051/240/85
f 1051/240/84 1033/170/84 1031/172/84 1049/241/84
f 1053/242/90 1035/215/90 1036/218/90 1054/243/90
f 1054/243/82 1036/218/82 1034/220/82 1052/244/82
f 983/168/85 1038/233/85 1039/234/85 985/169/85
f 985/169/84 1039/234/84 1037/235/84 984/171/84
f 1007/216/90 1041/236/90 1042/237/90 1009/217/90
f 1009/217/82 1042/237/82 1040/238/82 1008/219/82
f 1062/245/85 1044/161/85 1045/164/85 1063/246/85
f 1063/246/84 1045/164/84 1043/166/84 1061/247/84
f 1065/248/90 1047/209/90 1048/212/90 1066/249/90
f 1066/249/82 1048/212/82 1046/214/82 1064/250/82
f 980/162/85 1050/239/85 1051/240/85 982/163/85
f 982/163/84 1051/240/84 1049/241/84 981/165/84
f 1004/210/90 1053/242/90 1054/243/90 1006/211/90
f 1006/211/82 1054/243/82 1052/244/82 1005/213/82
f 1068/251/85 1056/155/85 1057/158/85 1069/252/85
f 1069/252/84 1057/158/84 1055/160/84 1067/253/84
f 1071/254/90 1059/203/90 1060/206/90 1072/255/90
f 1072/255/82 1060/206/82 1058/208/82 1070/256/82
f 977/156/85 1062/245/85 1063/246/85 979/157/85
f 979/157/84 1063/246/84 1061/247/84 978/159/84
f 1001/204/90 1065/248/90 1066/249/90 1003/205/90
f 1003/205/82 1066/249/82 1064/250/82 1002/207/82
f 974/150/85 1068/251/85 1069/252/85 976/151/85
f 976/151/84 1069/252/84 1067/253/84 975/153/84
f 998/198/90 1071/254/90 1072/255/90 1000/199/90
f 1000/199/82 1072/255/82 1070/256/82 999/201/82
f 1080/257/85 1074/149/85 1075/152/85 1081/258/85
f 1081/258/84 1075/152/84 1073/154/84 1079/259/84
f 1083/260/90 1077/197/90 1078/200/90 1084/261/90
f 1084/261/82 1078/200/82 1076/202/82 1082/262/82
f 971/144/85 1080/257/85 1081/258/85 973/145/85
f 973/145/84 1081/258/84 1079/259/84 972/147/84
f 995/192/90 1083/260/90 1084/261/90 997/193/90
f 997/193/82 1084/261/82 1082/262/82 996/195/82
f 1092/263/85 1086/143/85 1087/146/85 1093/264/85
f 1093/264/84 1087/146/84 1085/148/84 1091/265/84
f 1095/266/90 1089/191/90 1090/194/90 1096/267/90
f 1096/267/82 1090/194/82 1088/196/82 1094/268/82
f 968/138/85 1092/263/85 1093/264/85 970/139/85
f 970/139/84 1093/264/84 1091/265/84 969/141/84
f 992/186/90 1095/266/90 1096/267/90 994/187/90
f 994/187/82 1096/267/82 1094/268/82 993/189/82
f 1104/269/85 1098/137/85 1099/140/85 1105/270/85
f 1105/270/84 1099/140/84 1097/142/84 1103/271/84
f 1107/272/90 1101/185/90 1102/188/90 1108/273/90
f 1108/273/82 1102/188/82 1100/190/82 1106/274/82
f 965/132/85 1104/269/85 1105/270/85 967/133/85
f 967/133/84 1105/270/84 1103/271/84 966/135/84
f 989/180/90 1107/272/90 1108/273/90 991/181/90
f 991/181/82 1108/273/82 1106/274/82 990/183/82
f 1116/275/85 1110/131/85 1111/134/85 1117/276/85
f 1117/276/84 1111/134/84 1109/136/84 1115/277/84
f 1119/278/90 1113/179/90 1114/182/90 1120/279/90
f 1120/279/82 1114/182/82 1112/184/82 1118/280/82
f 962/126/85 1116/275/85 1117/276/85 964/127/85
f 964/127/112 1117/276/112 1115/277/112 963/129/112
f 957/130/90 1119/278/90 1120/279/90 958/128/90
f 958/128/82 1120/279/82 1118/280/82 956/125/82
f 953/120/60 1017/119/60 883/77/60 863/9/60
f 1016/124/34 954/123/34 959/114/34 1014/113/34
f 960/117/92 953/120/92 863/9/92 862/2/92
f 956/125/34 1118/280/34 1116/275/34 962/126/34
f 957/130/93 963/129/93 861/11/93 864/6/93
f 1119/278/60 957/130/60 864/6/60 952/5/60
f 1013/118/61 960/117/61 862/2/61 884/1/61
f 963/129/61 1115/277/61 949/111/61 861/11/61
f 1109/136/61 966/135/61 873/46/61 947/45/61
f 966/135/61 1103/271/61 941/107/61 873/46/61
f 1112/184/34 990/183/34 965/132/34 1110/131/34
f 990/183/34 1106/274/34 1104/269/34 965/132/34
f 1097/142/61 969/141/61 874/50/61 939/49/61
f 969/141/61 1091/265/61 933/103/61 874/50/61
f 1100/190/34 993/189/34 968/138/34 1098/137/34
f 993/189/34 1094/268/34 1092/263/34 968/138/34
f 1085/148/61 972/147/61 875/54/61 931/53/61
f 972/147/61 1079/259/61 925/99/61 875/54/61
f 1088/196/34 996/195/34 971/144/34 1086/143/34
f 996/195/34 1082/262/34 1080/257/34 971/144/34
f 1073/154/61 975/153/61 876/58/61 923/57/61
f 975/153/61 1067/253/61 917/95/61 876/58/61
f 1076/202/34 999/201/34 974/150/34 1074/149/34
f 999/201/34 1070/256/34 1068/251/34 974/150/34
f 1055/160/61 978/159/61 877/62/61 911/61/61
f 978/159/61 1061/247/61 913/93/61 877/62/61
f 1058/208/34 1002/207/34 977/156/34 1056/155/34
f 1002/207/34 1064/250/34 1062/245/34 977/156/34
f 1043/166/61 981/165/61 878/66/61 903/65/61
f 981/165/61 1049/241/61 905/89/61 878/66/61
f 1046/214/34 1005/213/34 980/162/34 1044/161/34
f 1005/213/34 1052/244/34 1050/239/34 980/162/34
f 1031/172/61 984/171/61 879/70/61 895/69/61
f 984/171/61 1037/235/61 897/85/61 879/70/61
f 1034/220/34 1008/219/34 983/168/34 1032/167/34
f 1008/219/34 1040/238/34 1038/233/34 983/168/34
f 1025/178/61 987/177/61 880/74/61 891/73/61
f 987/177/61 1019/229/61 885/79/61 880/74/61
f 1028/226/34 1011/225/34 986/174/34 1026/173/34
f 1011/225/34 1022/232/34 1020/227/34 986/174/34
f 989/180/60 1113/179/60 948/109/60 872/42/60
f 1107/272/60 989/180/60 872/42/60 944/41/60
f 992/186/60 1101/185/60 940/105/60 871/38/60
f 1095/266/60 992/186/60 871/38/60 936/37/60
f 995/192/60 1089/191/60 932/101/60 870/34/60
f 1083/260/60 995/192/60 870/34/60 928/33/60
f 998/198/60 1077/197/60 924/97/60 869/30/60
f 1071/254/60 998/198/60 869/30/60 920/29/60
f 1001/204/60 1059/203/60 912/91/60 868/26/60
f 1065/248/60 1001/204/60 868/26/60 916/25/60
f 1004/210/60 1047/209/60 904/87/60 867/22/60
f 1053/242/60 1004/210/60 867/22/60 908/21/60
f 1007/216/60 1035/215/60 896/83/60 866/18/60
f 1041/236/60 1007/216/60 866/18/60 900/17/60
f 1010/222/60 1029/221/60 892/81/60 865/14/60
f 1023/230/60 1010/222/60 865/14/60 888/13/60
f 1022/232/34 1016/124/34 1014/113/34 1020/227/34
f 1019/229/61 1013/118/61 884/1/61 885/79/61
f 1017/119/60 1023/230/60 888/13/60 883/77/60
f 1040/238/34 1028/226/34 1026/173/34 1038/233/34
f 1037/235/61 1025/178/61 891/73/61 897/85/61
f 1029/221/60 1041/236/60 900/17/60 892/81/60
f 1052/244/34 1034/220/34 1032/167/34 1050/239/34
f 1049/241/61 1031/172/61 895/69/61 905/89/61
f 1035/215/60 1053/242/60 908/21/60 896/83/60
f 1064/250/34 1046/214/34 1044/161/34 1062/245/34
f 1061/247/61 1043/166/61 903/65/61 913/93/61
f 1047/209/60 1065/248/60 916/25/60 904/87/60
f 1070/256/34 1058/208/34 1056/155/34 1068/251/34
f 1067/253/61 1055/160/61 911/61/61 917/95/61
f 1059/203/60 1071/254/60 920/29/60 912/91/60
f 1082/262/34 1076/202/34 1074/149/34 1080/257/34
f 1079/259/61 1073/154/61 923/57/61 925/99/61
f 1077/197/60 1083/260/60 928/33/60 924/97/60
f 1094/268/34 1088/196/34 1086/143/34 1092/263/34
f 1091/265/61 1085/148/61 931/53/61 933/103/61
f 1089/191/60 1095/266/60 936/37/60 932/101/60
f 1106/274/34 1100/190/34 1098/137/34 1104/269/34
f 1103/271/61 1097/142/61 939/49/61 941/107/61
f 1101/185/60 1107/272/60 944/41/60 940/105/60
f 1118/280/34 1112/184/34 1110/131/34 1116/275/34
f 1115/277/61 1109/136/61 947/45/61 949/111/61
f 1113/179/60 1119/278/60 952/5/60 948/109/60
