# Blender 5.2.1 LTS
# www.blender.org
mtllib AlarmMain.mtl
o Cube.103
v -0.007865 -0.061042 -0.068844
v -0.007865 0.061042 -0.068844
v 0.007865 -0.061042 -0.068844
v 0.007865 0.061042 -0.068844
v -0.007865 -0.018915 -0.243250
v -0.007865 -0.061042 -0.183069
v -0.007865 -0.027480 -0.242045
v -0.007865 -0.035292 -0.238659
v -0.007865 -0.042491 -0.233162
v -0.007865 -0.048802 -0.225763
v -0.007865 -0.053981 -0.216748
v -0.007865 -0.057829 -0.206463
v -0.007865 -0.060199 -0.195303
v -0.007865 0.061042 -0.183069
v -0.007865 0.018915 -0.243250
v -0.007865 0.060199 -0.195303
v -0.007865 0.057829 -0.206463
v -0.007865 0.053981 -0.216748
v -0.007865 0.048802 -0.225763
v -0.007865 0.042491 -0.233162
v -0.007865 0.035292 -0.238659
v -0.007865 0.027480 -0.242045
v 0.007865 -0.061042 -0.183069
v 0.007865 -0.018915 -0.243250
v 0.007865 -0.060199 -0.195303
v 0.007865 -0.057829 -0.206463
v 0.007865 -0.053981 -0.216748
v 0.007865 -0.048802 -0.225763
v 0.007865 -0.042491 -0.233162
v 0.007865 -0.035292 -0.238659
v 0.007865 -0.027480 -0.242045
v 0.007865 0.018915 -0.243250
v 0.007865 0.061042 -0.183069
v 0.007865 0.027480 -0.242045
v 0.007865 0.035292 -0.238659
v 0.007865 0.042491 -0.233162
v 0.007865 0.048802 -0.225763
v 0.007865 0.053981 -0.216748
v 0.007865 0.057829 -0.206463
v 0.007865 0.060199 -0.195303
v -0.020000 -0.070000 -0.056047
v -0.020000 0.070000 -0.056047
v 0.020000 0.070000 -0.056047
v 0.020000 -0.070000 -0.056047
v 0.020000 -0.069027 -0.197812
v 0.020000 -0.070000 -0.183697
v -0.020000 -0.070000 -0.183697
v -0.020000 -0.069027 -0.197812
v 0.020000 -0.066145 -0.211384
v -0.020000 -0.066145 -0.211384
v 0.020000 -0.061465 -0.223893
v -0.020000 -0.061465 -0.223893
v 0.020000 -0.055167 -0.234856
v -0.020000 -0.055167 -0.234856
v 0.020000 -0.047492 -0.243854
v -0.020000 -0.047492 -0.243854
v 0.020000 -0.038736 -0.250539
v -0.020000 -0.038736 -0.250539
v 0.020000 -0.029236 -0.254657
v -0.020000 -0.029236 -0.254657
v 0.020000 -0.019356 -0.256047
v -0.020000 -0.019356 -0.256047
v -0.020000 0.069027 -0.197812
v -0.020000 0.070000 -0.183697
v 0.020000 0.070000 -0.183697
v 0.020000 0.069027 -0.197812
v -0.020000 0.066145 -0.211384
v 0.020000 0.066145 -0.211384
v -0.020000 0.061465 -0.223893
v 0.020000 0.061465 -0.223893
v -0.020000 0.055167 -0.234856
v 0.020000 0.055167 -0.234856
v -0.020000 0.047492 -0.243854
v 0.020000 0.047492 -0.243854
v -0.020000 0.038736 -0.250539
v 0.020000 0.038736 -0.250539
v -0.020000 0.029236 -0.254657
v 0.020000 0.029236 -0.254657
v -0.020000 0.019356 -0.256047
v 0.020000 0.019356 -0.256047
v -0.020000 -0.061042 -0.068844
v -0.020000 0.061042 -0.068844
v 0.020000 0.061042 -0.068844
v 0.020000 -0.061042 -0.068844
v 0.020000 -0.060199 -0.195303
v 0.020000 -0.061042 -0.183069
v -0.020000 -0.061042 -0.183069
v -0.020000 -0.060199 -0.195303
v 0.020000 -0.057829 -0.206463
v -0.020000 -0.057829 -0.206463
v 0.020000 -0.053981 -0.216748
v -0.020000 -0.053981 -0.216748
v 0.020000 -0.048802 -0.225763
v -0.020000 -0.048802 -0.225763
v 0.020000 -0.042491 -0.233162
v -0.020000 -0.042491 -0.233162
v 0.020000 -0.035292 -0.238659
v -0.020000 -0.035292 -0.238659
v 0.020000 -0.027480 -0.242045
v -0.020000 -0.027480 -0.242045
v 0.020000 -0.018915 -0.243250
v -0.020000 -0.018915 -0.243250
v -0.020000 0.060199 -0.195303
v -0.020000 0.061042 -0.183069
v 0.020000 0.061042 -0.183069
v 0.020000 0.060199 -0.195303
v -0.020000 0.057829 -0.206463
v 0.020000 0.057829 -0.206463
v -0.020000 0.053981 -0.216748
v 0.020000 0.053981 -0.216748
v -0.020000 0.048802 -0.225763
v 0.020000 0.048802 -0.225763
v -0.020000 0.042491 -0.233162
v 0.020000 0.042491 -0.233162
v -0.020000 0.035292 -0.238659
v 0.020000 0.035292 -0.238659
v -0.020000 0.027480 -0.242045
v 0.020000 0.027480 -0.242045
v -0.020000 0.018915 -0.243250
v 0.020000 0.018915 -0.243250
vn -0.0000 -0.0000 1.0000
vn -0.0000 -0.9994 -0.0344
vn -0.0000 -0.9904 -0.1379
vn -0.0000 -0.9604 -0.2785
vn -0.0000 -0.9058 -0.4237
vn -0.0000 -0.8192 -0.5735
vn -0.0000 -0.6905 -0.7234
vn -0.0000 -0.5093 -0.8606
vn -0.0000 -0.2733 -0.9619
vn -0.0000 -0.0700 -0.9975
vn -0.0000 0.9994 -0.0344
vn -0.0000 0.9904 -0.1379
vn -0.0000 0.9604 -0.2785
vn -0.0000 0.9058 -0.4237
vn -0.0000 0.8192 -0.5735
vn -0.0000 0.6905 -0.7234
vn -0.0000 0.5093 -0.8606
vn -0.0000 0.2733 -0.9619
vn -0.0000 0.0700 -0.9975
vn -0.0000 -1.0000 -0.0000
vn -0.0000 1.0000 -0.0000
vn -1.0000 -0.0000 -0.0000
vn 1.0000 -0.0000 -0.0000
vn -0.0000 -0.0000 -1.0000
vn -0.0000 0.9904 0.1379
vn -0.0000 0.9994 0.0344
vn -0.0000 0.9604 0.2785
vn -0.0000 0.9058 0.4237
vn -0.0000 0.8192 0.5735
vn -0.0000 0.6905 0.7234
vn -0.0000 0.5093 0.8606
vn -0.0000 0.2733 0.9619
vn -0.0000 0.0700 0.9975
vn -0.0000 -0.9904 0.1379
vn -0.0000 -0.9994 0.0344
vn -0.0000 -0.9604 0.2785
vn -0.0000 -0.9058 0.4237
vn -0.0000 -0.8192 0.5735
vn -0.0000 -0.6905 0.7234
vn -0.0000 -0.5093 0.8606
vn -0.0000 -0.2733 0.9619
vn -0.0000 -0.0700 0.9975
vt 0.375000 0.750000
vt 0.625000 0.750000
vt 0.625000 1.000000
vt 0.375000 1.000000
vt 0.375000 0.590437
vt 0.125000 0.590437
vt 0.125000 0.572793
vt 0.375579 0.572793
vt 0.125000 0.555828
vt 0.377295 0.555828
vt 0.125000 0.540193
vt 0.380080 0.540193
vt 0.125000 0.500000
vt 0.383829 0.508829
vt 0.388244 0.236756
vt 0.415193 0.244920
vt 0.415193 0.505080
vt 0.430828 0.247705
vt 0.430828 0.502295
vt 0.447793 0.249421
vt 0.447793 0.500579
vt 0.465437 0.250000
vt 0.465437 0.500000
vt 0.875000 0.590437
vt 0.625000 0.590437
vt 0.624421 0.572793
vt 0.875000 0.572793
vt 0.622705 0.555828
vt 0.875000 0.555828
vt 0.619920 0.540193
vt 0.875000 0.540193
vt 0.616171 0.508829
vt 0.875000 0.500000
vt 0.611756 0.236756
vt 0.584807 0.505080
vt 0.584807 0.244920
vt 0.569172 0.502295
vt 0.569172 0.247705
vt 0.552207 0.500579
vt 0.552207 0.249421
vt 0.534563 0.500000
vt 0.534563 0.250000
vt 0.125000 0.750000
vt 0.875000 0.750000
vt 0.609008 0.016060
vt 0.390992 0.016060
vt 0.375000 0.000000
vt 0.625000 0.000000
vt 0.390988 0.733930
vt 0.609012 0.733930
vt 0.390260 0.575188
vt 0.390050 0.590707
vt 0.390815 0.159213
vt 0.392189 0.174689
vt 0.376738 0.177207
vt 0.375000 0.159563
vt 0.392100 0.560571
vt 0.396013 0.189170
vt 0.381884 0.194172
vt 0.395977 0.545140
vt 0.401230 0.204049
vt 0.390241 0.209807
vt 0.404565 0.529413
vt 0.408206 0.219018
vt 0.420298 0.520826
vt 0.421753 0.228362
vt 0.435734 0.516942
vt 0.436268 0.232796
vt 0.450366 0.515084
vt 0.450633 0.234788
vt 0.465915 0.514835
vt 0.466069 0.235077
vt 0.607811 0.174689
vt 0.609185 0.159213
vt 0.625000 0.159563
vt 0.623262 0.177207
vt 0.609950 0.590707
vt 0.609739 0.575188
vt 0.603987 0.189170
vt 0.618116 0.194172
vt 0.607900 0.560571
vt 0.598770 0.204049
vt 0.609759 0.209807
vt 0.604023 0.545140
vt 0.591793 0.219018
vt 0.595435 0.529413
vt 0.578247 0.228362
vt 0.579702 0.520826
vt 0.563732 0.232796
vt 0.564266 0.516942
vt 0.549367 0.234788
vt 0.549634 0.515084
vt 0.533931 0.235077
vt 0.534085 0.514835
s 1
f 44/1/1 43/2/1 42/3/1 41/4/1
f 46/5/2 47/6/2 48/7/3 45/8/3
f 45/8/3 48/7/3 50/9/4 49/10/4
f 49/10/4 50/9/4 52/11/5 51/12/5
f 51/12/5 52/11/5 54/13/6 53/14/6
f 53/14/6 54/15/6 56/16/7 55/17/7
f 55/17/7 56/16/7 58/18/8 57/19/8
f 57/19/8 58/18/8 60/20/9 59/21/9
f 59/21/9 60/20/9 62/22/10 61/23/10
f 64/24/11 65/25/11 66/26/12 63/27/12
f 63/27/12 66/26/12 68/28/13 67/29/13
f 67/29/13 68/28/13 70/30/14 69/31/14
f 69/31/14 70/30/14 72/32/15 71/33/15
f 71/34/15 72/32/15 74/35/16 73/36/16
f 73/36/16 74/35/16 76/37/17 75/38/17
f 75/38/17 76/37/17 78/39/18 77/40/18
f 77/40/18 78/39/18 80/41/19 79/42/19
f 47/6/2 46/5/2 44/1/20 41/43/20
f 62/22/10 79/42/19 80/41/19 61/23/10
f 65/25/11 64/24/11 42/44/21 43/2/21
f 82/45/22 81/46/22 41/47/22 42/48/22
f 84/49/23 83/50/23 43/2/23 44/1/23
f 85/51/23 86/52/23 46/5/23 45/8/23
f 87/53/22 88/54/22 48/55/22 47/56/22
f 89/57/23 85/51/23 45/8/23 49/10/23
f 88/54/22 90/58/22 50/59/22 48/55/22
f 91/60/23 89/57/23 49/10/23 51/12/23
f 90/58/22 92/61/22 52/62/22 50/59/22
f 93/63/23 91/60/23 51/12/23 53/14/23
f 92/61/22 94/64/22 54/15/22 52/62/22
f 95/65/23 93/63/23 53/14/23 55/17/23
f 94/64/22 96/66/22 56/16/22 54/15/22
f 97/67/23 95/65/23 55/17/23 57/19/23
f 96/66/22 98/68/22 58/18/22 56/16/22
f 99/69/23 97/67/23 57/19/23 59/21/23
f 98/68/22 100/70/22 60/20/22 58/18/22
f 101/71/23 99/69/23 59/21/23 61/23/23
f 100/70/22 102/72/22 62/22/22 60/20/22
f 103/73/22 104/74/22 64/75/22 63/76/22
f 105/77/23 106/78/23 66/26/23 65/25/23
f 107/79/22 103/73/22 63/76/22 67/80/22
f 106/78/23 108/81/23 68/28/23 66/26/23
f 109/82/22 107/79/22 67/80/22 69/83/22
f 108/81/23 110/84/23 70/30/23 68/28/23
f 111/85/22 109/82/22 69/83/22 71/34/22
f 110/84/23 112/86/23 72/32/23 70/30/23
f 113/87/22 111/85/22 71/34/22 73/36/22
f 112/86/23 114/88/23 74/35/23 72/32/23
f 115/89/22 113/87/22 73/36/22 75/38/22
f 114/88/23 116/90/23 76/37/23 74/35/23
f 117/91/22 115/89/22 75/38/22 77/40/22
f 116/90/23 118/92/23 78/39/23 76/37/23
f 119/93/22 117/91/22 77/40/22 79/42/22
f 118/92/23 120/94/23 80/41/23 78/39/23
f 81/46/22 87/53/22 47/56/22 41/47/22
f 86/52/23 84/49/23 44/1/23 46/5/23
f 104/74/22 82/45/22 42/48/22 64/75/22
f 102/72/22 119/93/22 79/42/22 62/22/22
f 120/94/23 101/71/23 61/23/23 80/41/23
f 83/50/23 105/77/23 65/25/23 43/2/23
f 2/45/24 1/46/24 81/46/24 82/45/24
f 3/49/24 4/50/24 83/50/24 84/49/24
f 25/51/25 23/52/26 86/52/26 85/51/25
f 6/53/26 13/54/25 88/54/25 87/53/26
f 26/57/27 25/51/25 85/51/25 89/57/27
f 13/54/25 12/58/27 90/58/27 88/54/25
f 27/60/28 26/57/27 89/57/27 91/60/28
f 12/58/27 11/61/28 92/61/28 90/58/27
f 28/63/29 27/60/28 91/60/28 93/63/29
f 11/61/28 10/64/29 94/64/29 92/61/28
f 29/65/30 28/63/29 93/63/29 95/65/30
f 10/64/29 9/66/30 96/66/30 94/64/29
f 30/67/31 29/65/30 95/65/30 97/67/31
f 9/66/30 8/68/31 98/68/31 96/66/30
f 31/69/32 30/67/31 97/67/31 99/69/32
f 8/68/31 7/70/32 100/70/32 98/68/31
f 24/71/33 31/69/32 99/69/32 101/71/33
f 7/70/32 5/72/33 102/72/33 100/70/32
f 16/73/34 14/74/35 104/74/35 103/73/34
f 33/77/35 40/78/34 106/78/34 105/77/35
f 17/79/36 16/73/34 103/73/34 107/79/36
f 40/78/34 39/81/36 108/81/36 106/78/34
f 18/82/37 17/79/36 107/79/36 109/82/37
f 39/81/36 38/84/37 110/84/37 108/81/36
f 19/85/38 18/82/37 109/82/37 111/85/38
f 38/84/37 37/86/38 112/86/38 110/84/37
f 20/87/39 19/85/38 111/85/38 113/87/39
f 37/86/38 36/88/39 114/88/39 112/86/38
f 21/89/40 20/87/39 113/87/39 115/89/40
f 36/88/39 35/90/40 116/90/40 114/88/39
f 22/91/41 21/89/40 115/89/40 117/91/41
f 35/90/40 34/92/41 118/92/41 116/90/40
f 15/93/42 22/91/41 117/91/41 119/93/42
f 34/92/41 32/94/42 120/94/42 118/92/41
f 1/46/21 6/53/26 87/53/26 81/46/21
f 23/52/26 3/49/21 84/49/21 86/52/26
f 14/74/35 2/45/20 82/45/20 104/74/35
f 5/72/33 15/93/42 119/93/42 102/72/33
f 32/94/42 24/71/33 101/71/33 120/94/42
f 4/50/20 33/77/35 105/77/35 83/50/20
