# Blender 5.2.1 LTS
# www.blender.org
mtllib Body.mtl
o Cube.101
v -0.300000 -0.150000 0.060000
v -0.150000 -0.300000 0.060000
v -0.150000 0.300000 0.060000
v -0.300000 0.150000 0.060000
v 0.150000 -0.300000 0.060000
v 0.300000 -0.150000 0.060000
v 0.300000 0.150000 0.060000
v 0.150000 0.300000 0.060000
v -0.112301 -0.072252 -0.060000
v -0.072252 -0.112301 -0.060000
v -0.072252 0.112301 -0.060000
v -0.112301 0.072252 -0.060000
v 0.072252 -0.112301 -0.060000
v 0.112301 -0.072252 -0.060000
v 0.112301 0.072252 -0.060000
v 0.072252 0.112301 -0.060000
v -0.257700 -0.158414 -0.060000
v -0.158414 -0.257700 -0.060000
v -0.158414 0.257700 -0.060000
v -0.257700 0.158414 -0.060000
v 0.158414 -0.257700 -0.060000
v 0.257700 -0.158414 -0.060000
v 0.257700 0.158414 -0.060000
v 0.158414 0.257700 -0.060000
v -0.221874 -0.143575 -0.060000
v -0.143575 -0.221874 -0.060000
v -0.143575 0.221874 -0.060000
v -0.221874 0.143575 -0.060000
v 0.143575 -0.221874 -0.060000
v 0.221874 -0.143575 -0.060000
v 0.221874 0.143575 -0.060000
v 0.143575 0.221874 -0.060000
v -0.216252 -0.115310 -0.060000
v -0.115310 -0.216252 -0.060000
v -0.115310 0.216252 -0.060000
v -0.216252 0.115310 -0.060000
v 0.115310 -0.216252 -0.060000
v 0.216252 -0.115310 -0.060000
v 0.216252 0.115310 -0.060000
v 0.115310 0.216252 -0.060000
v -0.300000 -0.150000 -0.040957
v -0.280957 -0.142112 -0.060000
v -0.298550 -0.149400 -0.048244
v -0.294422 -0.147690 -0.054422
v -0.288244 -0.145131 -0.058550
v -0.142112 -0.280957 -0.060000
v -0.150000 -0.300000 -0.040957
v -0.145131 -0.288244 -0.058550
v -0.147690 -0.294422 -0.054422
v -0.149400 -0.298550 -0.048244
v -0.150000 0.300000 -0.040957
v -0.142112 0.280957 -0.060000
v -0.149400 0.298550 -0.048244
v -0.147690 0.294422 -0.054422
v -0.145131 0.288244 -0.058550
v -0.280957 0.142112 -0.060000
v -0.300000 0.150000 -0.040957
v -0.288244 0.145131 -0.058550
v -0.294422 0.147690 -0.054422
v -0.298550 0.149400 -0.048244
v 0.150000 -0.300000 -0.040957
v 0.142112 -0.280957 -0.060000
v 0.149400 -0.298550 -0.048244
v 0.147690 -0.294422 -0.054422
v 0.145131 -0.288244 -0.058550
v 0.280957 -0.142112 -0.060000
v 0.300000 -0.150000 -0.040957
v 0.288244 -0.145131 -0.058550
v 0.294422 -0.147690 -0.054422
v 0.298550 -0.149400 -0.048244
v 0.300000 0.150000 -0.040957
v 0.280957 0.142112 -0.060000
v 0.298550 0.149400 -0.048244
v 0.294422 0.147690 -0.054422
v 0.288244 0.145131 -0.058550
v 0.142112 0.280957 -0.060000
v 0.150000 0.300000 -0.040957
v 0.145131 0.288244 -0.058550
v 0.147690 0.294422 -0.054422
v 0.149400 0.298550 -0.048244
vn -0.0000 -0.0000 1.0000
vn -0.0000 -0.0000 -1.0000
vn -0.1045 -0.0433 -0.9936
vn -0.0433 -0.1045 -0.9936
vn -0.1523 -0.3676 -0.9174
vn -0.3676 -0.1523 -0.9174
vn -0.2698 -0.6513 -0.7092
vn -0.6513 -0.2698 -0.7092
vn -0.3525 -0.8510 -0.3894
vn -0.8510 -0.3525 -0.3894
vn -0.3806 -0.9189 -0.1032
vn -0.9189 -0.3806 -0.1032
vn -0.0433 0.1045 -0.9936
vn -0.1045 0.0433 -0.9936
vn -0.3676 0.1523 -0.9174
vn -0.1523 0.3676 -0.9174
vn -0.6513 0.2698 -0.7092
vn -0.2698 0.6513 -0.7092
vn -0.8510 0.3525 -0.3894
vn -0.3525 0.8510 -0.3894
vn -0.9189 0.3806 -0.1032
vn -0.3806 0.9189 -0.1032
vn 0.0433 -0.1045 -0.9936
vn 0.1045 -0.0433 -0.9936
vn 0.3676 -0.1523 -0.9174
vn 0.1523 -0.3676 -0.9174
vn 0.6513 -0.2698 -0.7092
vn 0.2698 -0.6513 -0.7092
vn 0.8510 -0.3525 -0.3894
vn 0.3525 -0.8510 -0.3894
vn 0.9189 -0.3806 -0.1032
vn 0.3806 -0.9189 -0.1032
vn 0.1045 0.0433 -0.9936
vn 0.0433 0.1045 -0.9936
vn 0.1523 0.3676 -0.9174
vn 0.3676 0.1523 -0.9174
vn 0.2698 0.6513 -0.7092
vn 0.6513 0.2698 -0.7092
vn 0.3525 0.8510 -0.3894
vn 0.8510 0.3525 -0.3894
vn 0.3806 0.9189 -0.1032
vn 0.9189 0.3806 -0.1032
vn -0.3827 -0.9239 -0.0000
vn -0.9239 -0.3827 -0.0000
vn -0.9239 0.3827 -0.0000
vn 0.3827 -0.9239 -0.0000
vn -0.3827 0.9239 -0.0000
vn 0.3827 0.9239 -0.0000
vn 0.9239 -0.3827 -0.0000
vn 0.9239 0.3827 -0.0000
vt 0.333333 0.770833
vt 0.437500 0.750000
vt 0.562500 0.750000
vt 0.666667 0.770833
vt 0.625000 0.937500
vt 0.562500 1.000000
vt 0.437500 1.000000
vt 0.375000 0.937500
vt 0.404880 0.318525
vt 0.439411 0.283925
vt 0.451319 0.286364
vt 0.405713 0.332097
vt 0.560589 0.277662
vt 0.595120 0.300462
vt 0.594287 0.315003
vt 0.548681 0.281906
vt 0.431826 0.477138
vt 0.383468 0.459906
vt 0.387104 0.447159
vt 0.446010 0.473004
vt 0.616532 0.457902
vt 0.568174 0.476564
vt 0.553991 0.472528
vt 0.612896 0.444023
vt 0.468117 0.332189
vt 0.449239 0.351365
vt 0.550761 0.344807
vt 0.531883 0.328131
vt 0.444463 0.417612
vt 0.464484 0.432339
vt 0.535516 0.431006
vt 0.555537 0.414635
vt 0.440604 0.258309
vt 0.382022 0.316916
vt 0.379340 0.315221
vt 0.439411 0.255134
vt 0.375180 0.312801
vt 0.437915 0.250227
vt 0.125681 0.500000
vt 0.187721 0.499920
vt 0.187557 0.524488
vt 0.125177 0.524491
vt 0.187500 0.539674
vt 0.125000 0.539674
vt 0.617978 0.288794
vt 0.559396 0.257386
vt 0.560589 0.254575
vt 0.620660 0.285891
vt 0.562359 0.250170
vt 0.624653 0.281531
vt 0.562463 0.225536
vt 0.624823 0.253643
vt 0.562500 0.210326
vt 0.625000 0.236617
vt 0.345439 0.472017
vt 0.439556 0.493733
vt 0.438784 0.496116
vt 0.340791 0.474769
vt 0.437414 0.499887
vt 0.333700 0.478999
vt 0.437478 0.524484
vt 0.333335 0.507750
vt 0.437500 0.539674
vt 0.333333 0.525453
vt 0.560444 0.493596
vt 0.654561 0.471332
vt 0.659209 0.474350
vt 0.561216 0.496028
vt 0.666300 0.478939
vt 0.562586 0.499887
vt 0.666665 0.507750
vt 0.562522 0.524484
vt 0.666667 0.525453
vt 0.562500 0.539674
vt 0.437750 0.225509
vt 0.437500 0.210326
vt 0.811377 0.499840
vt 0.812208 0.524484
vt 0.812500 0.539674
vt 0.433682 0.268181
vt 0.391559 0.310330
vt 0.187500 0.750000
vt 0.125000 0.750000
vt 0.437500 0.000000
vt 0.562500 0.000000
vt 0.812500 0.750000
vt 0.625000 0.000000
vt 0.608441 0.286642
vt 0.566318 0.263394
vt 0.361041 0.472992
vt 0.427611 0.489293
vt 0.572389 0.489059
vt 0.638959 0.472192
s 1
usemtl Material.172
f 5/1/1 6/2/1 7/3/1 8/4/1 3/5/1 4/6/1 1/7/1 2/8/1
f 26/9/2 25/10/2 33/11/2 34/12/2
f 28/13/2 27/14/2 35/15/2 36/16/2
f 30/17/2 29/18/2 37/19/2 38/20/2
f 32/21/2 31/22/2 39/23/2 40/24/2
f 9/25/2 10/26/2 34/12/2 33/11/2
f 11/27/2 12/28/2 36/16/2 35/15/2
f 13/29/2 14/30/2 38/20/2 37/19/2
f 15/31/2 16/32/2 40/24/2 39/23/2
f 10/26/2 13/29/2 37/19/2 34/12/2
f 12/28/2 9/25/2 33/11/2 36/16/2
f 16/32/2 11/27/2 35/15/2 40/24/2
f 14/30/2 15/31/2 39/23/2 38/20/2
f 42/33/3 46/34/4 48/35/5 45/36/6
f 45/36/6 48/35/5 49/37/7 44/38/8
f 44/39/8 49/40/7 50/41/9 43/42/10
f 43/42/10 50/41/9 47/43/11 41/44/12
f 52/45/13 56/46/14 58/47/15 55/48/16
f 55/48/16 58/47/15 59/49/17 54/50/18
f 54/50/18 59/49/17 60/51/19 53/52/20
f 53/52/20 60/51/19 57/53/21 51/54/22
f 62/55/23 66/56/24 68/57/25 65/58/26
f 65/58/26 68/57/25 69/59/27 64/60/28
f 64/60/28 69/59/27 70/61/29 63/62/30
f 63/62/30 70/61/29 67/63/31 61/64/32
f 72/65/33 76/66/34 78/67/35 75/68/36
f 75/68/36 78/67/35 79/69/37 74/70/38
f 74/70/38 79/69/37 80/71/39 73/72/40
f 73/72/40 80/71/39 77/73/41 71/74/42
f 46/34/4 62/55/23 65/58/26 48/35/5
f 48/35/5 65/58/26 64/60/28 49/37/7
f 49/40/7 64/60/28 63/62/30 50/41/9
f 50/41/9 63/62/30 61/64/32 47/43/11
f 56/46/14 42/33/3 45/36/6 58/47/15
f 58/47/15 45/36/6 44/38/8 59/49/17
f 59/49/17 44/38/8 43/75/10 60/51/19
f 60/51/19 43/75/10 41/76/12 57/53/21
f 76/66/34 52/45/13 55/48/16 78/67/35
f 78/67/35 55/48/16 54/50/18 79/69/37
f 79/69/37 54/77/18 53/78/20 80/71/39
f 80/71/39 53/78/20 51/79/22 77/73/41
f 71/74/42 67/63/31 70/61/29 73/72/40
f 73/72/40 70/61/29 69/59/27 74/70/38
f 74/70/38 69/59/27 68/57/25 75/68/36
f 75/68/36 68/57/25 66/56/24 72/65/33
f 17/80/2 18/81/2 46/34/4 42/33/3
f 47/43/11 2/82/43 1/83/44 41/44/12
f 1/84/44 4/85/45 57/53/21 41/76/12
f 36/16/2 33/11/2 42/33/3 56/46/14
f 25/10/2 17/80/2 42/33/3 33/11/2
f 47/43/11 61/64/32 5/1/46 2/82/43
f 34/12/2 37/19/2 62/55/23 46/34/4
f 18/81/2 26/9/2 34/12/2 46/34/4
f 77/73/41 51/79/22 3/86/47 8/4/48
f 3/87/47 51/54/22 57/53/21 4/85/45
f 40/24/2 35/15/2 52/45/13 76/66/34
f 27/14/2 19/88/2 52/45/13 35/15/2
f 19/88/2 20/89/2 56/46/14 52/45/13
f 20/89/2 28/13/2 36/16/2 56/46/14
f 5/1/46 61/64/32 67/63/31 6/2/49
f 29/18/2 21/90/2 62/55/23 37/19/2
f 21/90/2 22/91/2 66/56/24 62/55/23
f 67/63/31 71/74/42 7/3/50 6/2/49
f 38/20/2 39/23/2 72/65/33 66/56/24
f 22/91/2 30/17/2 38/20/2 66/56/24
f 23/92/2 24/93/2 76/66/34 72/65/33
f 77/73/41 8/4/48 7/3/50 71/74/42
f 31/22/2 23/92/2 72/65/33 39/23/2
f 24/93/2 32/21/2 40/24/2 76/66/34
