# Blender 5.2.1 LTS
# www.blender.org
mtllib Detail.mtl
o Cube.102
v -0.257700 -0.158414 -0.060000
v -0.158414 -0.257700 -0.060000
v -0.158414 0.257700 -0.060000
v -0.257700 0.158414 -0.060000
v 0.158414 -0.257700 -0.060000
v 0.257700 -0.158414 -0.060000
v 0.257700 0.158414 -0.060000
v 0.158414 0.257700 -0.060000
v -0.221874 -0.143575 -0.060000
v -0.143575 -0.221874 -0.060000
v -0.143575 0.221874 -0.060000
v -0.221874 0.143575 -0.060000
v 0.143575 -0.221874 -0.060000
v 0.221874 -0.143575 -0.060000
v 0.221874 0.143575 -0.060000
v 0.143575 0.221874 -0.060000
v -0.143575 -0.221874 -0.061612
v -0.149079 -0.222969 -0.066279
v -0.145187 -0.222195 -0.064912
v -0.222969 -0.149079 -0.066279
v -0.221874 -0.143575 -0.061612
v -0.222195 -0.145187 -0.064912
v -0.221874 0.143575 -0.061612
v -0.222969 0.149079 -0.066279
v -0.222195 0.145187 -0.064912
v -0.149079 0.222969 -0.066279
v -0.143575 0.221874 -0.061612
v -0.145187 0.222195 -0.064912
v 0.221874 -0.143575 -0.061612
v 0.222969 -0.149079 -0.066279
v 0.222195 -0.145187 -0.064912
v 0.149079 -0.222969 -0.066279
v 0.143575 -0.221874 -0.061612
v 0.145187 -0.222195 -0.064912
v 0.143575 0.221874 -0.061612
v 0.149079 0.222969 -0.066279
v 0.145187 0.222195 -0.064912
v 0.222969 0.149079 -0.066279
v 0.221874 0.143575 -0.061612
v 0.222195 0.145187 -0.064912
v -0.257700 -0.158414 -0.061612
v -0.249461 -0.160053 -0.066279
v -0.255287 -0.158894 -0.064912
v -0.160053 -0.249461 -0.066279
v -0.158414 -0.257700 -0.061612
v -0.158894 -0.255287 -0.064912
v -0.158414 0.257700 -0.061612
v -0.160053 0.249461 -0.066279
v -0.158894 0.255287 -0.064912
v -0.249461 0.160053 -0.066279
v -0.257700 0.158414 -0.061612
v -0.255287 0.158894 -0.064912
v 0.158414 -0.257700 -0.061612
v 0.160053 -0.249461 -0.066279
v 0.158894 -0.255287 -0.064912
v 0.249461 -0.160053 -0.066279
v 0.257700 -0.158414 -0.061612
v 0.255287 -0.158894 -0.064912
v 0.257700 0.158414 -0.061612
v 0.249461 0.160053 -0.066279
v 0.255287 0.158894 -0.064912
v 0.160053 0.249461 -0.066279
v 0.158414 0.257700 -0.061612
v 0.158894 0.255287 -0.064912
vn -0.9808 0.1951 -0.0000
vn 0.1951 -0.9808 -0.0000
vn 0.1951 0.9808 -0.0000
vn -0.9808 -0.1951 -0.0000
vn -0.1951 -0.9808 -0.0000
vn 0.9808 0.1951 -0.0000
vn 0.9808 -0.1951 -0.0000
vn -0.1951 0.9808 -0.0000
vn 0.9583 0.1906 -0.2128
vn 0.2194 0.0436 -0.9747
vn 0.7110 0.1414 -0.6889
vn 0.0436 0.2194 -0.9747
vn 0.1906 0.9583 -0.2128
vn 0.1414 0.7110 -0.6889
vn 0.1906 -0.9583 -0.2128
vn 0.0436 -0.2194 -0.9747
vn 0.1414 -0.7110 -0.6889
vn 0.2194 -0.0436 -0.9747
vn 0.9583 -0.1906 -0.2128
vn 0.7110 -0.1414 -0.6889
vn -0.1906 0.9583 -0.2128
vn -0.0436 0.2194 -0.9747
vn -0.1414 0.7110 -0.6889
vn -0.2194 0.0436 -0.9747
vn -0.9583 0.1906 -0.2128
vn -0.7110 0.1414 -0.6889
vn -0.9583 -0.1906 -0.2128
vn -0.2194 -0.0436 -0.9747
vn -0.7110 -0.1414 -0.6889
vn -0.0436 -0.2194 -0.9747
vn -0.1906 -0.9583 -0.2128
vn -0.1414 -0.7110 -0.6889
vn -0.9433 0.1876 -0.2739
vn -0.1771 0.0352 -0.9836
vn -0.6459 0.1285 -0.7526
vn 0.0352 -0.1771 -0.9836
vn 0.1876 -0.9433 -0.2739
vn 0.1285 -0.6459 -0.7526
vn 0.1876 0.9433 -0.2739
vn 0.0352 0.1771 -0.9836
vn 0.1285 0.6459 -0.7526
vn -0.1771 -0.0352 -0.9836
vn -0.9433 -0.1876 -0.2739
vn -0.6459 -0.1285 -0.7526
vn -0.1876 -0.9433 -0.2739
vn -0.0352 -0.1771 -0.9836
vn -0.1285 -0.6459 -0.7526
vn 0.1771 0.0352 -0.9836
vn 0.9433 0.1876 -0.2739
vn 0.6459 0.1285 -0.7526
vn 0.9433 -0.1876 -0.2739
vn 0.1771 -0.0352 -0.9836
vn 0.6459 -0.1285 -0.7526
vn -0.0352 0.1771 -0.9836
vn -0.1876 0.9433 -0.2739
vn -0.1285 0.6459 -0.7526
vt 0.432903 0.271758
vt 0.394820 0.309871
vt 0.392218 0.310239
vt 0.433526 0.268903
vt 0.391559 0.310330
vt 0.433682 0.268181
vt 0.605180 0.287573
vt 0.567097 0.266122
vt 0.566474 0.263939
vt 0.607782 0.286837
vt 0.566318 0.263394
vt 0.608441 0.286642
vt 0.366326 0.471906
vt 0.425796 0.487091
vt 0.427238 0.488854
vt 0.362117 0.472765
vt 0.427611 0.489294
vt 0.361041 0.472992
vt 0.574204 0.486785
vt 0.633674 0.470978
vt 0.637883 0.471938
vt 0.572762 0.488607
vt 0.638959 0.472192
vt 0.572389 0.489059
vt 0.439411 0.283925
vt 0.404880 0.318525
vt 0.404866 0.318285
vt 0.439202 0.283882
vt 0.404693 0.315907
vt 0.437117 0.283424
vt 0.595120 0.300462
vt 0.560589 0.277662
vt 0.560798 0.277588
vt 0.595134 0.300205
vt 0.562883 0.276751
vt 0.595307 0.297713
vt 0.383468 0.459906
vt 0.431826 0.477138
vt 0.431577 0.477210
vt 0.383404 0.460132
vt 0.428986 0.478026
vt 0.382838 0.462307
vt 0.568174 0.476564
vt 0.616532 0.457902
vt 0.616596 0.458147
vt 0.568423 0.476634
vt 0.617162 0.460504
vt 0.571014 0.477451
vt 0.391559 0.310330
vt 0.595120 0.300462
vt 0.383468 0.459906
vt 0.431826 0.477138
vt 0.427611 0.489293
vt 0.568174 0.476564
vt 0.616532 0.457902
vt 0.638959 0.472192
vt 0.572389 0.489059
s 1
usemtl Material.173
f 42/1/34 44/2/36 46/3/38 43/4/35
f 43/4/35 46/3/38 45/5/37 41/6/33
f 48/7/40 50/8/42 52/9/44 49/10/41
f 49/10/41 52/9/44 51/11/43 47/12/39
f 54/13/46 56/14/48 58/15/50 55/16/47
f 55/16/47 58/15/50 57/17/49 53/18/45
f 60/19/52 62/20/54 64/21/56 61/22/53
f 61/22/53 64/21/56 63/23/55 59/24/51
f 21/25/13 17/26/9 19/27/11 22/28/14
f 22/28/14 19/27/11 18/29/10 20/30/12
f 27/31/19 23/32/15 25/33/17 28/34/20
f 28/34/20 25/33/17 24/35/16 26/36/18
f 33/37/25 29/38/21 31/39/23 34/40/26
f 34/40/26 31/39/23 30/41/22 32/42/24
f 39/43/31 35/44/27 37/45/29 40/46/32
f 40/46/32 37/45/29 36/47/28 38/48/30
f 41/6/33 21/25/13 22/28/14 43/4/35
f 43/4/35 22/28/14 20/30/12 42/1/34
f 17/26/9 45/5/37 46/3/38 19/27/11
f 19/27/11 46/3/38 44/2/36 18/29/10
f 47/12/39 27/31/19 28/34/20 49/10/41
f 49/10/41 28/34/20 26/36/18 48/7/40
f 23/32/15 51/11/43 52/9/44 25/33/17
f 25/33/17 52/9/44 50/8/42 24/35/16
f 53/18/45 33/37/25 34/40/26 55/16/47
f 55/16/47 34/40/26 32/42/24 54/13/46
f 29/38/21 57/17/49 58/15/50 31/39/23
f 31/39/23 58/15/50 56/14/48 30/41/22
f 59/24/51 39/43/31 40/46/32 61/22/53
f 61/22/53 40/46/32 38/48/30 60/19/52
f 35/44/27 63/23/55 64/21/56 37/45/29
f 37/45/29 64/21/56 62/20/54 36/47/28
f 17/26/9 21/25/13 9/25/3 10/26/6
f 20/30/12 18/29/10 44/2/36 42/1/34
f 45/5/37 17/26/9 10/26/6 2/49/2
f 21/25/13 41/6/33 1/6/1 9/25/3
f 23/32/15 27/31/19 11/50/7 12/32/2
f 26/36/18 24/35/16 50/8/42 48/7/40
f 51/11/43 23/32/15 12/32/2 4/11/4
f 27/31/19 47/12/39 3/12/3 11/50/7
f 29/38/21 33/37/25 13/51/1 14/52/8
f 32/42/24 30/41/22 56/14/48 54/13/46
f 57/17/49 29/38/21 14/52/8 6/53/6
f 33/37/25 53/18/45 5/18/5 13/51/1
f 35/44/27 39/43/31 15/54/5 16/55/4
f 38/48/30 36/47/28 62/20/54 60/19/52
f 63/23/55 35/44/27 16/55/4 8/56/8
f 39/43/31 59/24/51 7/57/7 15/54/5
f 41/6/33 45/5/37 2/49/2 1/6/1
f 47/12/39 51/11/43 4/11/4 3/12/3
f 53/18/45 57/17/49 6/53/6 5/18/5
f 59/24/51 63/23/55 8/56/8 7/57/7
