# Blender 5.2.1 LTS
# www.blender.org
mtllib Glass.mtl
o Cube.100
v -0.210000 -0.105000 -0.058000
v -0.105000 -0.210000 -0.058000
v -0.105000 0.210000 -0.058000
v -0.210000 0.105000 -0.058000
v -0.105000 -0.210000 -0.342000
v -0.210000 -0.105000 -0.342000
v -0.210000 0.105000 -0.342000
v -0.105000 0.210000 -0.342000
v 0.105000 -0.210000 -0.058000
v 0.210000 -0.105000 -0.058000
v 0.210000 0.105000 -0.058000
v 0.105000 0.210000 -0.058000
v 0.210000 -0.105000 -0.342000
v 0.105000 -0.210000 -0.342000
v 0.105000 0.210000 -0.342000
v 0.210000 0.105000 -0.342000
v -0.126000 -0.063000 -0.462000
v -0.063000 -0.126000 -0.462000
v -0.063000 0.126000 -0.462000
v -0.126000 0.063000 -0.462000
v 0.063000 -0.126000 -0.462000
v 0.126000 -0.063000 -0.462000
v 0.126000 0.063000 -0.462000
v 0.063000 0.126000 -0.462000
vn -0.3678 -0.8790 -0.3034
vn -0.3827 -0.9239 -0.0000
vn -0.9239 -0.3827 -0.0000
vn -0.8790 -0.3678 -0.3034
vn -0.3827 0.9239 -0.0000
vn -0.3678 0.8790 -0.3034
vn -0.8790 0.3678 -0.3034
vn -0.9239 0.3827 -0.0000
vn 0.3827 -0.9239 -0.0000
vn 0.3678 -0.8790 -0.3034
vn 0.8790 -0.3678 -0.3034
vn 0.9239 -0.3827 -0.0000
vn 0.3678 0.8790 -0.3034
vn 0.3827 0.9239 -0.0000
vn 0.9239 0.3827 -0.0000
vn 0.8790 0.3678 -0.3034
vn -0.0000 -0.0000 1.0000
vn 0.4818 -0.1919 -0.8550
vn 0.4818 0.1919 -0.8550
vn -0.1919 -0.4818 -0.8550
vn -0.4818 -0.1919 -0.8550
vn -0.4818 0.1919 -0.8550
vn -0.1919 0.4818 -0.8550
vn 0.1919 0.4818 -0.8550
vn 0.1919 -0.4818 -0.8550
vt 0.187500 0.500000
vt 0.187500 0.750000
vt 0.125000 0.750000
vt 0.125000 0.500000
vt 0.625000 0.000000
vt 0.625000 0.281250
vt 0.562500 0.250000
vt 0.562500 0.000000
vt 0.333333 0.770833
vt 0.333333 0.479167
vt 0.437500 0.500000
vt 0.437500 0.750000
vt 0.666667 0.479167
vt 0.666667 0.770833
vt 0.562500 0.750000
vt 0.562500 0.500000
vt 0.437500 0.000000
vt 0.437500 0.250000
vt 0.625000 0.937500
vt 0.562500 1.000000
vt 0.437500 1.000000
vt 0.375000 0.937500
vt 0.812500 0.500000
vt 0.812500 0.750000
vt 0.375000 0.312500
s 1
usemtl Material.171
f 5/1/1 2/2/2 1/3/3 6/4/4
f 3/5/5 8/6/6 7/7/7 4/8/8
f 9/9/9 14/10/10 13/11/11 10/12/12
f 15/13/13 12/14/14 11/15/15 16/16/16
f 5/1/1 14/10/10 9/9/9 2/2/2
f 1/17/3 4/8/8 7/7/7 6/18/4
f 9/9/17 10/12/17 11/15/17 12/14/17 3/19/17 4/20/17 1/21/17 2/22/17
f 15/13/13 8/23/6 3/24/5 12/14/14
f 16/16/16 13/11/11 22/11/18 23/16/19
f 13/11/11 16/16/16 11/15/15 10/12/12
f 18/25/20 17/18/21 20/7/22 19/6/23 24/13/24 23/16/19 22/11/18 21/10/25
f 15/13/13 16/16/16 23/16/19 24/13/24
f 13/11/11 14/10/10 21/10/25 22/11/18
f 6/18/4 7/7/7 20/7/22 17/18/21
f 7/7/7 8/6/6 19/6/23 20/7/22
f 8/23/6 15/13/13 24/13/24 19/23/23
f 5/1/1 6/4/4 17/4/21 18/1/20
f 14/10/10 5/1/1 18/1/20 21/10/25
