# Blender 5.2.1 LTS
# www.blender.org
mtllib Neon.mtl
o Cube.104
v -0.007865 -0.061042 -0.068844
v -0.007865 0.061042 -0.068844
v 0.007865 -0.061042 -0.068844
v 0.007865 0.061042 -0.068844
v -0.007865 -0.018915 -0.243250
v -0.007865 -0.061042 -0.183069
v -0.007865 -0.027480 -0.242045
v -0.007865 -0.035292 -0.238659
v -0.007865 -0.042491 -0.233162
v -0.007865 -0.048802 -0.225763
v -0.007865 -0.053981 -0.216748
v -0.007865 -0.057829 -0.206463
v -0.007865 -0.060199 -0.195303
v -0.007865 0.061042 -0.183069
v -0.007865 0.018915 -0.243250
v -0.007865 0.060199 -0.195303
v -0.007865 0.057829 -0.206463
v -0.007865 0.053981 -0.216748
v -0.007865 0.048802 -0.225763
v -0.007865 0.042491 -0.233162
v -0.007865 0.035292 -0.238659
v -0.007865 0.027480 -0.242045
v 0.007865 -0.061042 -0.183069
v 0.007865 -0.018915 -0.243250
v 0.007865 -0.060199 -0.195303
v 0.007865 -0.057829 -0.206463
v 0.007865 -0.053981 -0.216748
v 0.007865 -0.048802 -0.225763
v 0.007865 -0.042491 -0.233162
v 0.007865 -0.035292 -0.238659
v 0.007865 -0.027480 -0.242045
v 0.007865 0.018915 -0.243250
v 0.007865 0.061042 -0.183069
v 0.007865 0.027480 -0.242045
v 0.007865 0.035292 -0.238659
v 0.007865 0.042491 -0.233162
v 0.007865 0.048802 -0.225763
v 0.007865 0.053981 -0.216748
v 0.007865 0.057829 -0.206463
v 0.007865 0.060199 -0.195303
vn -1.0000 -0.0000 -0.0000
vn 1.0000 -0.0000 -0.0000
vt 0.390992 0.016060
vt 0.609008 0.016060
vt 0.609185 0.159213
vt 0.607811 0.174689
vt 0.603987 0.189170
vt 0.598770 0.204049
vt 0.591793 0.219018
vt 0.578247 0.228362
vt 0.563732 0.232796
vt 0.549367 0.234788
vt 0.533931 0.235077
vt 0.466069 0.235077
vt 0.450633 0.234788
vt 0.436268 0.232796
vt 0.421753 0.228362
vt 0.408206 0.219018
vt 0.401230 0.204049
vt 0.396013 0.189170
vt 0.392189 0.174689
vt 0.390815 0.159213
vt 0.390050 0.590707
vt 0.390260 0.575188
vt 0.392100 0.560571
vt 0.395977 0.545140
vt 0.404565 0.529413
vt 0.420298 0.520826
vt 0.435734 0.516942
vt 0.450366 0.515084
vt 0.465915 0.514835
vt 0.534085 0.514835
vt 0.549634 0.515084
vt 0.564266 0.516942
vt 0.579702 0.520826
vt 0.595435 0.529413
vt 0.604023 0.545140
vt 0.607900 0.560571
vt 0.609739 0.575188
vt 0.609950 0.590707
vt 0.609012 0.733930
vt 0.390988 0.733930
s 0
usemtl Material.174
f 1/1/1 2/2/1 14/3/1 16/4/1 17/5/1 18/6/1 19/7/1 20/8/1 21/9/1 22/10/1 15/11/1 5/12/1 7/13/1 8/14/1 9/15/1 10/16/1 11/17/1 12/18/1 13/19/1 6/20/1
f 23/21/2 25/22/2 26/23/2 27/24/2 28/25/2 29/26/2 30/27/2 31/28/2 24/29/2 32/30/2 34/31/2 35/32/2 36/33/2 37/34/2 38/35/2 39/36/2 40/37/2 33/38/2 4/39/2 3/40/2
