# Blender 5.2.1 LTS
# www.blender.org
mtllib Rotatio.mtl
o Cube.105
v -0.112301 -0.072252 -0.060000
v -0.072252 -0.112301 -0.060000
v -0.072252 0.112301 -0.060000
v -0.112301 0.072252 -0.060000
v 0.072252 -0.112301 -0.060000
v 0.112301 -0.072252 -0.060000
v 0.112301 0.072252 -0.060000
v 0.072252 0.112301 -0.060000
vn -0.0000 -0.0000 -1.0000
vt 0.449239 0.351365
vt 0.468117 0.332189
vt 0.531883 0.328131
vt 0.550761 0.344807
vt 0.555537 0.414635
vt 0.535516 0.431006
vt 0.464484 0.432339
vt 0.444463 0.417612
s 0
usemtl Material.175
f 2/1/1 1/2/1 4/3/1 3/4/1 8/5/1 7/6/1 6/7/1 5/8/1
