# Blender 5.2.0 LTS
# www.blender.org
mtllib aa.mtl
o Cube.028
v 92.994766 11.003579 -1.413970
v 92.994766 11.215335 -1.413970
v 92.994766 11.427091 -1.413970
v 92.994766 11.638847 -1.413970
v 92.994766 11.850603 -1.413970
v 92.994766 12.062359 -1.413970
v 92.994766 12.274115 -1.413970
v 92.994766 12.485870 -1.413970
v 92.994766 12.697627 -1.413970
v 92.994766 12.909383 -1.413970
v 94.785873 11.003579 -1.564271
v 94.785873 11.215335 -1.564271
v 94.785873 11.427091 -1.564271
v 94.785873 11.638847 -1.564271
v 94.785873 11.850603 -1.564271
v 94.785873 12.062359 -1.564271
v 94.785873 12.274115 -1.564271
v 94.785873 12.485870 -1.564271
v 94.785873 12.697627 -1.564271
v 94.785873 12.909383 -1.564271
v 94.523468 11.003579 -1.612800
v 94.523468 11.215335 -1.612800
v 94.523468 11.427091 -1.612800
v 94.523468 11.638847 -1.612800
v 94.523468 11.850603 -1.612800
v 94.523468 12.062359 -1.612800
v 94.523468 12.274115 -1.612800
v 94.523468 12.485870 -1.612800
v 94.523468 12.697627 -1.612800
v 94.523468 12.909383 -1.612800
v 95.612801 11.003579 0.523464
v 95.612801 11.215335 0.523464
v 95.612801 11.427091 0.523464
v 95.612801 11.638847 0.523464
v 95.612801 11.850603 0.523464
v 95.612801 12.062359 0.523464
v 95.612801 12.274115 0.523464
v 95.612801 12.485870 0.523464
v 95.612801 12.697627 0.523464
v 95.612801 12.909383 0.523464
v 94.785873 11.003579 1.564271
v 94.785873 11.215335 1.564271
v 94.785873 11.427091 1.564271
v 94.785873 11.638847 1.564271
v 94.785873 11.850603 1.564271
v 94.785873 12.062359 1.564271
v 94.785873 12.274115 1.564271
v 94.785873 12.485870 1.564271
v 94.785873 12.697627 1.564271
v 94.785873 12.909383 1.564271
v 95.005234 11.003579 1.413970
v 95.005234 11.215335 1.413970
v 95.005234 11.427091 1.413970
v 95.005234 11.638847 1.413970
v 95.005234 11.850603 1.413970
v 95.005234 12.062359 1.413970
v 95.005234 12.274115 1.413970
v 95.005234 12.485870 1.413970
v 95.005234 12.697627 1.413970
v 95.005234 12.909383 1.413970
v 93.214127 11.003579 1.564271
v 93.214127 11.215335 1.564271
v 93.214127 11.427091 1.564271
v 93.214127 11.638847 1.564271
v 93.214127 11.850603 1.564271
v 93.214127 12.062359 1.564271
v 93.214127 12.274115 1.564271
v 93.214127 12.485870 1.564271
v 93.214127 12.697627 1.564271
v 93.214127 12.909383 1.564271
v 93.476532 11.003579 1.612800
v 93.476532 11.215335 1.612800
v 93.476532 11.427091 1.612800
v 93.476532 11.638847 1.612800
v 93.476532 11.850603 1.612800
v 93.476532 12.062359 1.612800
v 93.476532 12.274115 1.612800
v 93.476532 12.485870 1.612800
v 93.476532 12.697627 1.612800
v 93.476532 12.909383 1.612800
v 95.564270 11.003579 -0.785872
v 95.564270 11.215335 -0.785872
v 95.564270 11.427091 -0.785872
v 95.564270 11.638847 -0.785872
v 95.564270 11.850603 -0.785872
v 95.564270 12.062359 -0.785872
v 95.564270 12.274115 -0.785872
v 95.564270 12.485870 -0.785872
v 95.564270 12.697627 -0.785872
v 95.564270 12.909383 -0.785872
v 95.413971 11.003579 -1.005230
v 95.413971 11.215335 -1.005230
v 95.413971 11.427091 -1.005230
v 95.413971 11.638847 -1.005230
v 95.413971 11.850603 -1.005230
v 95.413971 12.062359 -1.005230
v 95.413971 12.274115 -1.005230
v 95.413971 12.485870 -1.005230
v 95.413971 12.697627 -1.005230
v 95.413971 12.909383 -1.005230
v 92.387199 11.003579 -0.523464
v 92.387199 11.215335 -0.523464
v 92.387199 11.427091 -0.523464
v 92.387199 11.638847 -0.523464
v 92.387199 11.850603 -0.523464
v 92.387199 12.062359 -0.523464
v 92.387199 12.274115 -0.523464
v 92.387199 12.485870 -0.523464
v 92.387199 12.697627 -0.523464
v 92.387199 12.909383 -0.523464
v 92.435730 11.003579 0.785872
v 92.435730 11.215335 0.785872
v 92.435730 11.427091 0.785872
v 92.435730 11.638847 0.785872
v 92.435730 11.850603 0.785872
v 92.435730 12.062359 0.785872
v 92.435730 12.274115 0.785872
v 92.435730 12.485870 0.785872
v 92.435730 12.697627 0.785872
v 92.435730 12.909383 0.785872
v 92.586029 11.003579 1.005230
v 92.586029 11.215335 1.005230
v 92.586029 11.427091 1.005230
v 92.586029 11.638847 1.005230
v 92.586029 11.850603 1.005230
v 92.586029 12.062359 1.005230
v 92.586029 12.274115 1.005230
v 92.586029 12.485870 1.005230
v 92.586029 12.697627 1.005230
v 92.586029 12.909383 1.005230
v 93.214127 12.909383 -1.564271
v 93.214127 12.697627 -1.564271
v 93.214127 12.485870 -1.564271
v 93.214127 12.274115 -1.564271
v 93.214127 12.062359 -1.564271
v 93.214127 11.850603 -1.564271
v 93.214127 11.638847 -1.564271
v 93.214127 11.427092 -1.564271
v 93.214127 11.215336 -1.564271
v 93.214127 11.003579 -1.564271
v 93.476532 12.909383 -1.612800
v 93.476532 12.697627 -1.612800
v 93.476532 12.485870 -1.612800
v 93.476532 12.274115 -1.612800
v 93.476532 12.062359 -1.612800
v 93.476532 11.850603 -1.612800
v 93.476532 11.638847 -1.612800
v 93.476532 11.427092 -1.612800
v 93.476532 11.215336 -1.612800
v 93.476532 11.003579 -1.612800
v 95.005234 12.909383 -1.413970
v 95.005234 12.697627 -1.413970
v 95.005234 12.485870 -1.413970
v 95.005234 12.274115 -1.413970
v 95.005234 12.062359 -1.413970
v 95.005234 11.850603 -1.413970
v 95.005234 11.638847 -1.413970
v 95.005234 11.427092 -1.413970
v 95.005234 11.215336 -1.413970
v 95.005234 11.003579 -1.413970
v 95.564270 12.909383 0.785872
v 95.564270 12.697627 0.785872
v 95.564270 12.485870 0.785872
v 95.564270 12.274115 0.785872
v 95.564270 12.062359 0.785872
v 95.564270 11.850603 0.785872
v 95.564270 11.638847 0.785872
v 95.564270 11.427092 0.785872
v 95.564270 11.215336 0.785872
v 95.564270 11.003579 0.785872
v 95.413971 12.909383 1.005231
v 95.413971 12.697627 1.005231
v 95.413971 12.485870 1.005231
v 95.413971 12.274115 1.005231
v 95.413971 12.062359 1.005231
v 95.413971 11.850603 1.005231
v 95.413971 11.638847 1.005231
v 95.413971 11.427092 1.005231
v 95.413971 11.215336 1.005231
v 95.413971 11.003579 1.005231
v 94.523468 12.909383 1.612800
v 94.523468 12.697627 1.612800
v 94.523468 12.485870 1.612800
v 94.523468 12.274115 1.612800
v 94.523468 12.062359 1.612800
v 94.523468 11.850603 1.612800
v 94.523468 11.638847 1.612800
v 94.523468 11.427092 1.612800
v 94.523468 11.215336 1.612800
v 94.523468 11.003579 1.612800
v 92.994766 12.909383 1.413970
v 92.994766 12.697627 1.413970
v 92.994766 12.485870 1.413970
v 92.994766 12.274115 1.413970
v 92.994766 12.062359 1.413970
v 92.994766 11.850603 1.413970
v 92.994766 11.638847 1.413970
v 92.994766 11.427092 1.413970
v 92.994766 11.215336 1.413970
v 92.994766 11.003579 1.413970
v 95.612801 12.909383 -0.523464
v 95.612801 12.697627 -0.523464
v 95.612801 12.485870 -0.523464
v 95.612801 12.274115 -0.523464
v 95.612801 12.062359 -0.523464
v 95.612801 11.850603 -0.523464
v 95.612801 11.638847 -0.523464
v 95.612801 11.427092 -0.523464
v 95.612801 11.215336 -0.523464
v 95.612801 11.003579 -0.523464
v 92.435730 12.909383 -0.785872
v 92.435730 12.697627 -0.785872
v 92.435730 12.485870 -0.785872
v 92.435730 12.274115 -0.785872
v 92.435730 12.062359 -0.785872
v 92.435730 11.850603 -0.785872
v 92.435730 11.638847 -0.785872
v 92.435730 11.427092 -0.785872
v 92.435730 11.215336 -0.785872
v 92.435730 11.003579 -0.785872
v 92.586029 12.909383 -1.005231
v 92.586029 12.697627 -1.005231
v 92.586029 12.485870 -1.005231
v 92.586029 12.274115 -1.005231
v 92.586029 12.062359 -1.005231
v 92.586029 11.850603 -1.005231
v 92.586029 11.638847 -1.005231
v 92.586029 11.427092 -1.005231
v 92.586029 11.215336 -1.005231
v 92.586029 11.003579 -1.005231
v 92.387199 12.909383 0.523464
v 92.387199 12.697627 0.523464
v 92.387199 12.485870 0.523464
v 92.387199 12.274115 0.523464
v 92.387199 12.062359 0.523464
v 92.387199 11.850603 0.523464
v 92.387199 11.638847 0.523464
v 92.387199 11.427092 0.523464
v 92.387199 11.215336 0.523464
v 92.387199 11.003579 0.523464
v 95.509583 12.909383 -1.084636
v 95.084633 12.909383 -1.509583
v 95.509583 12.697627 -1.084636
v 95.084633 12.697627 -1.509583
v 95.509583 12.485870 -1.084636
v 95.084633 12.485870 -1.509583
v 95.509583 12.274115 -1.084636
v 95.084633 12.274115 -1.509583
v 95.509583 12.062359 -1.084636
v 95.084633 12.062359 -1.509583
v 95.509583 11.850603 -1.084636
v 95.084633 11.850603 -1.509583
v 95.509583 11.638847 -1.084636
v 95.084633 11.638847 -1.509583
v 95.509583 11.427091 -1.084636
v 95.084633 11.427092 -1.509583
v 95.509583 11.215335 -1.084636
v 95.084633 11.215336 -1.509583
v 95.509583 11.003579 -1.084636
v 95.084633 11.003579 -1.509583
v 95.736565 12.909383 0.534813
v 95.736565 12.909383 -0.534813
v 95.736565 12.697627 0.534813
v 95.736565 12.697627 -0.534813
v 95.736565 12.485870 0.534813
v 95.736565 12.485870 -0.534813
v 95.736565 12.274115 0.534813
v 95.736565 12.274115 -0.534813
v 95.736565 12.062359 0.534813
v 95.736565 12.062359 -0.534813
v 95.736565 11.850603 0.534813
v 95.736565 11.850603 -0.534813
v 95.736565 11.638847 0.534813
v 95.736565 11.638847 -0.534813
v 95.736565 11.427091 0.534813
v 95.736565 11.427092 -0.534813
v 95.736565 11.215335 0.534813
v 95.736565 11.215336 -0.534813
v 95.736565 11.003579 0.534813
v 95.736565 11.003579 -0.534813
v 95.084633 12.909383 1.509583
v 95.509583 12.909383 1.084636
v 95.084633 12.697627 1.509583
v 95.509583 12.697627 1.084636
v 95.084633 12.485870 1.509583
v 95.509583 12.485870 1.084636
v 95.084633 12.274115 1.509583
v 95.509583 12.274115 1.084636
v 95.084633 12.062359 1.509583
v 95.509583 12.062359 1.084636
v 95.084633 11.850603 1.509583
v 95.509583 11.850603 1.084636
v 95.084633 11.638847 1.509583
v 95.509583 11.638847 1.084636
v 95.084633 11.427091 1.509583
v 95.509583 11.427092 1.084636
v 95.084633 11.215335 1.509583
v 95.509583 11.215336 1.084636
v 95.084633 11.003579 1.509583
v 95.509583 11.003579 1.084636
v 94.534813 12.909383 -1.736567
v 93.465187 12.909383 -1.736567
v 94.534813 12.697627 -1.736567
v 93.465187 12.697627 -1.736567
v 94.534813 12.485870 -1.736567
v 93.465187 12.485870 -1.736567
v 94.534813 12.274115 -1.736567
v 93.465187 12.274115 -1.736567
v 94.534813 12.062359 -1.736567
v 93.465187 12.062359 -1.736567
v 94.534813 11.850603 -1.736567
v 93.465187 11.850603 -1.736567
v 94.534813 11.638847 -1.736567
v 93.465187 11.638847 -1.736567
v 94.534813 11.427091 -1.736567
v 93.465187 11.427092 -1.736567
v 94.534813 11.215335 -1.736567
v 93.465187 11.215336 -1.736567
v 94.534813 11.003579 -1.736567
v 93.465187 11.003579 -1.736567
v 92.915367 12.909383 -1.509583
v 92.490417 12.909383 -1.084636
v 92.915367 12.697627 -1.509583
v 92.490417 12.697627 -1.084636
v 92.915367 12.485870 -1.509583
v 92.490417 12.485870 -1.084636
v 92.915367 12.274115 -1.509583
v 92.490417 12.274115 -1.084636
v 92.915367 12.062359 -1.509583
v 92.490417 12.062359 -1.084636
v 92.915367 11.850603 -1.509583
v 92.490417 11.850603 -1.084636
v 92.915367 11.638847 -1.509583
v 92.490417 11.638847 -1.084636
v 92.915367 11.427091 -1.509583
v 92.490417 11.427092 -1.084636
v 92.915367 11.215335 -1.509583
v 92.490417 11.215336 -1.084636
v 92.915367 11.003579 -1.509583
v 92.490417 11.003579 -1.084636
v 93.465187 12.909383 1.736567
v 94.534813 12.909383 1.736567
v 93.465187 12.697627 1.736567
v 94.534813 12.697627 1.736567
v 93.465187 12.485870 1.736567
v 94.534813 12.485870 1.736567
v 93.465187 12.274115 1.736567
v 94.534813 12.274115 1.736567
v 93.465187 12.062359 1.736567
v 94.534813 12.062359 1.736567
v 93.465187 11.850603 1.736567
v 94.534813 11.850603 1.736567
v 93.465187 11.638847 1.736567
v 94.534813 11.638847 1.736567
v 93.465187 11.427091 1.736567
v 94.534813 11.427092 1.736567
v 93.465187 11.215335 1.736567
v 94.534813 11.215336 1.736567
v 93.465187 11.003579 1.736567
v 94.534813 11.003579 1.736567
v 92.263435 12.909383 -0.534813
v 92.263435 12.909383 0.534813
v 92.263435 12.697627 -0.534813
v 92.263435 12.697627 0.534813
v 92.263435 12.485870 -0.534813
v 92.263435 12.485870 0.534813
v 92.263435 12.274115 -0.534813
v 92.263435 12.274115 0.534813
v 92.263435 12.062359 -0.534813
v 92.263435 12.062359 0.534813
v 92.263435 11.850603 -0.534813
v 92.263435 11.850603 0.534813
v 92.263435 11.638847 -0.534813
v 92.263435 11.638847 0.534813
v 92.263435 11.427091 -0.534813
v 92.263435 11.427092 0.534813
v 92.263435 11.215335 -0.534813
v 92.263435 11.215336 0.534813
v 92.263435 11.003579 -0.534813
v 92.263435 11.003579 0.534813
v 92.490417 12.909383 1.084636
v 92.915367 12.909383 1.509583
v 92.490417 12.697627 1.084636
v 92.915367 12.697627 1.509583
v 92.490417 12.485870 1.084636
v 92.915367 12.485870 1.509583
v 92.490417 12.274115 1.084636
v 92.915367 12.274115 1.509583
v 92.490417 12.062359 1.084636
v 92.915367 12.062359 1.509583
v 92.490417 11.850603 1.084636
v 92.915367 11.850603 1.509583
v 92.490417 11.638847 1.084636
v 92.915367 11.638847 1.509583
v 92.490417 11.427091 1.084636
v 92.915367 11.427092 1.509583
v 92.490417 11.215335 1.084636
v 92.915367 11.215336 1.509583
v 92.490417 11.003579 1.084636
v 92.915367 11.003579 1.509583
v 92.320862 12.909383 0.833331
v 92.320862 12.697627 0.833331
v 92.320862 12.485870 0.833331
v 92.320862 12.274115 0.833331
v 92.320862 12.062359 0.833331
v 92.320862 11.850603 0.833331
v 92.320862 11.638847 0.833331
v 92.320862 11.427091 0.833331
v 92.320862 11.215335 0.833331
v 92.320862 11.003579 0.833331
v 92.320862 12.909383 -0.833331
v 92.320862 12.697627 -0.833331
v 92.320862 12.485870 -0.833331
v 92.320862 12.274115 -0.833331
v 92.320862 12.062359 -0.833331
v 92.320862 11.850603 -0.833331
v 92.320862 11.638847 -0.833331
v 92.320862 11.427092 -0.833331
v 92.320862 11.215336 -0.833331
v 92.320862 11.003579 -0.833331
v 95.679138 12.909383 -0.833331
v 95.679138 12.697627 -0.833331
v 95.679138 12.485870 -0.833331
v 95.679138 12.274115 -0.833331
v 95.679138 12.062359 -0.833331
v 95.679138 11.850603 -0.833331
v 95.679138 11.638847 -0.833331
v 95.679138 11.427091 -0.833331
v 95.679138 11.215335 -0.833331
v 95.679138 11.003579 -0.833331
v 93.166672 12.909383 1.679140
v 93.166672 12.697627 1.679140
v 93.166672 12.485870 1.679140
v 93.166672 12.274115 1.679140
v 93.166672 12.062359 1.679140
v 93.166672 11.850603 1.679140
v 93.166672 11.638847 1.679140
v 93.166672 11.427091 1.679140
v 93.166672 11.215335 1.679140
v 93.166672 11.003579 1.679140
v 94.833328 12.909383 1.679140
v 94.833328 12.697627 1.679140
v 94.833328 12.485870 1.679140
v 94.833328 12.274115 1.679140
v 94.833328 12.062359 1.679140
v 94.833328 11.850603 1.679140
v 94.833328 11.638847 1.679140
v 94.833328 11.427091 1.679140
v 94.833328 11.215335 1.679140
v 94.833328 11.003579 1.679140
v 95.679138 12.909383 0.833331
v 95.679138 12.697627 0.833331
v 95.679138 12.485870 0.833331
v 95.679138 12.274115 0.833331
v 95.679138 12.062359 0.833331
v 95.679138 11.850603 0.833331
v 95.679138 11.638847 0.833331
v 95.679138 11.427092 0.833331
v 95.679138 11.215336 0.833331
v 95.679138 11.003579 0.833331
v 94.833328 12.909383 -1.679140
v 94.833328 12.697627 -1.679140
v 94.833328 12.485870 -1.679140
v 94.833328 12.274115 -1.679140
v 94.833328 12.062359 -1.679140
v 94.833328 11.850603 -1.679140
v 94.833328 11.638847 -1.679140
v 94.833328 11.427091 -1.679140
v 94.833328 11.215335 -1.679140
v 94.833328 11.003579 -1.679140
v 93.166672 12.909383 -1.679140
v 93.166672 12.697627 -1.679140
v 93.166672 12.485870 -1.679140
v 93.166672 12.274115 -1.679140
v 93.166672 12.062359 -1.679140
v 93.166672 11.850603 -1.679140
v 93.166672 11.638847 -1.679140
v 93.166672 11.427092 -1.679140
v 93.166672 11.215336 -1.679140
v 93.166672 11.003579 -1.679140
v 95.501892 12.848813 -1.078293
v 95.078293 12.848813 -1.501889
v 95.501892 12.758196 -1.078293
v 95.078293 12.758196 -1.501889
v 95.501892 12.425301 -1.078293
v 95.078293 12.425301 -1.501889
v 95.501892 12.334684 -1.078293
v 95.078293 12.334684 -1.501889
v 95.501892 12.001789 -1.078293
v 95.078293 12.001789 -1.501889
v 95.501892 11.911173 -1.078293
v 95.078293 11.911173 -1.501889
v 95.501892 11.578278 -1.078293
v 95.078293 11.578278 -1.501889
v 95.501892 11.487660 -1.078293
v 95.078293 11.487661 -1.501889
v 95.501892 11.154765 -1.078293
v 95.078293 11.154766 -1.501889
v 95.501892 11.064149 -1.078293
v 95.078293 11.064149 -1.501889
v 95.726639 12.848813 0.533867
v 95.726639 12.848813 -0.533867
v 95.726639 12.758196 0.533867
v 95.726639 12.758196 -0.533867
v 95.726639 12.425301 0.533867
v 95.726639 12.425301 -0.533867
v 95.726639 12.334684 0.533867
v 95.726639 12.334684 -0.533867
v 95.726639 12.001789 0.533867
v 95.726639 12.001789 -0.533867
v 95.726639 11.911173 0.533867
v 95.726639 11.911173 -0.533867
v 95.726639 11.578278 0.533867
v 95.726639 11.578278 -0.533867
v 95.726639 11.487660 0.533867
v 95.726639 11.487661 -0.533867
v 95.726639 11.154765 0.533867
v 95.726639 11.154766 -0.533867
v 95.726639 11.064149 0.533867
v 95.726639 11.064149 -0.533867
v 95.078293 12.848813 1.501889
v 95.501892 12.848813 1.078293
v 95.078293 12.758196 1.501889
v 95.501892 12.758196 1.078293
v 95.078293 12.425301 1.501889
v 95.501892 12.425301 1.078293
v 95.078293 12.334684 1.501889
v 95.501892 12.334684 1.078293
v 95.078293 12.001789 1.501889
v 95.501892 12.001789 1.078293
v 95.078293 11.911173 1.501889
v 95.501892 11.911173 1.078293
v 95.078293 11.578278 1.501889
v 95.501892 11.578278 1.078293
v 95.078293 11.487660 1.501889
v 95.501892 11.487661 1.078293
v 95.078293 11.154765 1.501889
v 95.501892 11.154766 1.078293
v 95.078293 11.064149 1.501889
v 95.501892 11.064149 1.078293
v 94.533867 12.848813 -1.726641
v 93.466133 12.848813 -1.726641
v 94.533867 12.758196 -1.726641
v 93.466133 12.758196 -1.726641
v 94.533867 12.425301 -1.726641
v 93.466133 12.425301 -1.726641
v 94.533867 12.334684 -1.726641
v 93.466133 12.334684 -1.726641
v 94.533867 12.001789 -1.726641
v 93.466133 12.001789 -1.726641
v 94.533867 11.911173 -1.726641
v 93.466133 11.911173 -1.726641
v 94.533867 11.578278 -1.726641
v 93.466133 11.578278 -1.726641
v 94.533867 11.487660 -1.726641
v 93.466133 11.487661 -1.726641
v 94.533867 11.154765 -1.726641
v 93.466133 11.154766 -1.726641
v 94.533867 11.064149 -1.726641
v 93.466133 11.064149 -1.726641
v 92.921707 12.848813 -1.501889
v 92.498108 12.848813 -1.078293
v 92.921707 12.758196 -1.501889
v 92.498108 12.758196 -1.078293
v 92.921707 12.425301 -1.501889
v 92.498108 12.425301 -1.078293
v 92.921707 12.334684 -1.501889
v 92.498108 12.334684 -1.078293
v 92.921707 12.001789 -1.501889
v 92.498108 12.001789 -1.078293
v 92.921707 11.911173 -1.501889
v 92.498108 11.911173 -1.078293
v 92.921707 11.578278 -1.501889
v 92.498108 11.578278 -1.078293
v 92.921707 11.487660 -1.501889
v 92.498108 11.487661 -1.078293
v 92.921707 11.154765 -1.501889
v 92.498108 11.154766 -1.078293
v 92.921707 11.064149 -1.501889
v 92.498108 11.064149 -1.078293
v 93.466133 12.848813 1.726641
v 94.533867 12.848813 1.726641
v 93.466133 12.758196 1.726641
v 94.533867 12.758196 1.726641
v 93.466133 12.425301 1.726641
v 94.533867 12.425301 1.726641
v 93.466133 12.334684 1.726641
v 94.533867 12.334684 1.726641
v 93.466133 12.001789 1.726641
v 94.533867 12.001789 1.726641
v 93.466133 11.911173 1.726641
v 94.533867 11.911173 1.726641
v 93.466133 11.578278 1.726641
v 94.533867 11.578278 1.726641
v 93.466133 11.487660 1.726641
v 94.533867 11.487661 1.726641
v 93.466133 11.154765 1.726641
v 94.533867 11.154766 1.726641
v 93.466133 11.064149 1.726641
v 94.533867 11.064149 1.726641
v 92.273361 12.848813 -0.533867
v 92.273361 12.848813 0.533867
v 92.273361 12.758196 -0.533867
v 92.273361 12.758196 0.533867
v 92.273361 12.425301 -0.533867
v 92.273361 12.425301 0.533867
v 92.273361 12.334684 -0.533867
v 92.273361 12.334684 0.533867
v 92.273361 12.001789 -0.533867
v 92.273361 12.001789 0.533867
v 92.273361 11.911173 -0.533867
v 92.273361 11.911173 0.533867
v 92.273361 11.578278 -0.533867
v 92.273361 11.578278 0.533867
v 92.273361 11.487660 -0.533867
v 92.273361 11.487661 0.533867
v 92.273361 11.154765 -0.533867
v 92.273361 11.154766 0.533867
v 92.273361 11.064149 -0.533867
v 92.273361 11.064149 0.533867
v 92.498108 12.848813 1.078293
v 92.921707 12.848813 1.501889
v 92.498108 12.758196 1.078293
v 92.921707 12.758196 1.501889
v 92.498108 12.425301 1.078293
v 92.921707 12.425301 1.501889
v 92.498108 12.334684 1.078293
v 92.921707 12.334684 1.501889
v 92.498108 12.001789 1.078293
v 92.921707 12.001789 1.501889
v 92.498108 11.911173 1.078293
v 92.921707 11.911173 1.501889
v 92.498108 11.578278 1.078293
v 92.921707 11.578278 1.501889
v 92.498108 11.487660 1.078293
v 92.921707 11.487661 1.501889
v 92.498108 11.154765 1.078293
v 92.921707 11.154766 1.501889
v 92.498108 11.064149 1.078293
v 92.921707 11.064149 1.501889
v 92.330078 12.848813 0.829523
v 92.330078 12.758196 0.829523
v 92.330078 12.425301 0.829523
v 92.330078 12.334684 0.829523
v 92.330078 12.001789 0.829523
v 92.330078 11.911173 0.829523
v 92.330078 11.578278 0.829523
v 92.330078 11.487660 0.829523
v 92.330078 11.154765 0.829523
v 92.330078 11.064149 0.829523
v 92.330078 12.848813 -0.829523
v 92.330078 12.758196 -0.829523
v 92.330078 12.425301 -0.829523
v 92.330078 12.334684 -0.829523
v 92.330078 12.001789 -0.829523
v 92.330078 11.911173 -0.829523
v 92.330078 11.578278 -0.829523
v 92.330078 11.487661 -0.829523
v 92.330078 11.154766 -0.829523
v 92.330078 11.064149 -0.829523
v 95.669922 12.848813 -0.829523
v 95.669922 12.758196 -0.829523
v 95.669922 12.425301 -0.829523
v 95.669922 12.334684 -0.829523
v 95.669922 12.001789 -0.829523
v 95.669922 11.911173 -0.829523
v 95.669922 11.578278 -0.829523
v 95.669922 11.487660 -0.829523
v 95.669922 11.154765 -0.829523
v 95.669922 11.064149 -0.829523
v 93.170479 12.848813 1.669924
v 93.170479 12.758196 1.669924
v 93.170479 12.425301 1.669924
v 93.170479 12.334684 1.669924
v 93.170479 12.001789 1.669924
v 93.170479 11.911173 1.669924
v 93.170479 11.578278 1.669924
v 93.170479 11.487660 1.669924
v 93.170479 11.154765 1.669924
v 93.170479 11.064149 1.669924
v 94.829521 12.848813 1.669924
v 94.829521 12.758196 1.669924
v 94.829521 12.425301 1.669924
v 94.829521 12.334684 1.669924
v 94.829521 12.001789 1.669924
v 94.829521 11.911173 1.669924
v 94.829521 11.578278 1.669924
v 94.829521 11.487660 1.669924
v 94.829521 11.154765 1.669924
v 94.829521 11.064149 1.669924
v 95.669922 12.848813 0.829523
v 95.669922 12.758196 0.829523
v 95.669922 12.425301 0.829523
v 95.669922 12.334684 0.829523
v 95.669922 12.001789 0.829523
v 95.669922 11.911173 0.829523
v 95.669922 11.578278 0.829523
v 95.669922 11.487661 0.829523
v 95.669922 11.154766 0.829523
v 95.669922 11.064149 0.829523
v 94.829521 12.848813 -1.669924
v 94.829521 12.758196 -1.669924
v 94.829521 12.425301 -1.669924
v 94.829521 12.334684 -1.669924
v 94.829521 12.001789 -1.669924
v 94.829521 11.911173 -1.669924
v 94.829521 11.578278 -1.669924
v 94.829521 11.487660 -1.669924
v 94.829521 11.154765 -1.669924
v 94.829521 11.064149 -1.669924
v 93.170479 12.848813 -1.669924
v 93.170479 12.758196 -1.669924
v 93.170479 12.425301 -1.669924
v 93.170479 12.334684 -1.669924
v 93.170479 12.001789 -1.669924
v 93.170479 11.911173 -1.669924
v 93.170479 11.578278 -1.669924
v 93.170479 11.487661 -1.669924
v 93.170479 11.154766 -1.669924
v 93.170479 11.064149 -1.669924
v 95.455292 12.848813 -1.039858
v 95.039856 12.848813 -1.455294
v 95.455292 12.758196 -1.039858
v 95.039856 12.758196 -1.455294
v 95.455292 12.425301 -1.039858
v 95.039856 12.425301 -1.455294
v 95.455292 12.334684 -1.039858
v 95.039856 12.334684 -1.455294
v 95.455292 12.001789 -1.039858
v 95.039856 12.001789 -1.455294
v 95.455292 11.911173 -1.039858
v 95.039856 11.911173 -1.455294
v 95.455292 11.578278 -1.039858
v 95.039856 11.578278 -1.455294
v 95.455292 11.487660 -1.039858
v 95.039856 11.487661 -1.455294
v 95.455292 11.154765 -1.039858
v 95.039856 11.154766 -1.455294
v 95.455292 11.064149 -1.039858
v 95.039856 11.064149 -1.455294
v 95.666512 12.848813 0.528151
v 95.666512 12.848813 -0.528151
v 95.666512 12.758196 0.528151
v 95.666512 12.758196 -0.528151
v 95.666512 12.425301 0.528151
v 95.666512 12.425301 -0.528151
v 95.666512 12.334684 0.528151
v 95.666512 12.334684 -0.528151
v 95.666512 12.001789 0.528151
v 95.666512 12.001789 -0.528151
v 95.666512 11.911173 0.528151
v 95.666512 11.911173 -0.528151
v 95.666512 11.578278 0.528151
v 95.666512 11.578278 -0.528151
v 95.666512 11.487660 0.528151
v 95.666512 11.487661 -0.528151
v 95.666512 11.154765 0.528151
v 95.666512 11.154766 -0.528151
v 95.666512 11.064149 0.528151
v 95.666512 11.064149 -0.528151
v 95.039856 12.848813 1.455294
v 95.455292 12.848813 1.039858
v 95.039856 12.758196 1.455294
v 95.455292 12.758196 1.039858
v 95.039856 12.425301 1.455294
v 95.455292 12.425301 1.039858
v 95.039856 12.334684 1.455294
v 95.455292 12.334684 1.039858
v 95.039856 12.001789 1.455294
v 95.455292 12.001789 1.039858
v 95.039856 11.911173 1.455294
v 95.455292 11.911173 1.039858
v 95.039856 11.578278 1.455294
v 95.455292 11.578278 1.039858
v 95.039856 11.487660 1.455294
v 95.455292 11.487661 1.039858
v 95.039856 11.154765 1.455294
v 95.455292 11.154766 1.039858
v 95.039856 11.064149 1.455294
v 95.455292 11.064149 1.039858
v 94.528152 12.848813 -1.666510
v 93.471848 12.848813 -1.666510
v 94.528152 12.758196 -1.666510
v 93.471848 12.758196 -1.666510
v 94.528152 12.425301 -1.666510
v 93.471848 12.425301 -1.666510
v 94.528152 12.334684 -1.666510
v 93.471848 12.334684 -1.666510
v 94.528152 12.001789 -1.666510
v 93.471848 12.001789 -1.666510
v 94.528152 11.911173 -1.666510
v 93.471848 11.911173 -1.666510
v 94.528152 11.578278 -1.666510
v 93.471848 11.578278 -1.666510
v 94.528152 11.487660 -1.666510
v 93.471848 11.487661 -1.666510
v 94.528152 11.154765 -1.666510
v 93.471848 11.154766 -1.666510
v 94.528152 11.064149 -1.666510
v 93.471848 11.064149 -1.666510
v 92.960144 12.848813 -1.455294
v 92.544708 12.848813 -1.039858
v 92.960144 12.758196 -1.455294
v 92.544708 12.758196 -1.039858
v 92.960144 12.425301 -1.455294
v 92.544708 12.425301 -1.039858
v 92.960144 12.334684 -1.455294
v 92.544708 12.334684 -1.039858
v 92.960144 12.001789 -1.455294
v 92.544708 12.001789 -1.039858
v 92.960144 11.911173 -1.455294
v 92.544708 11.911173 -1.039858
v 92.960144 11.578278 -1.455294
v 92.544708 11.578278 -1.039858
v 92.960144 11.487660 -1.455294
v 92.544708 11.487661 -1.039858
v 92.960144 11.154765 -1.455294
v 92.544708 11.154766 -1.039858
v 92.960144 11.064149 -1.455294
v 92.544708 11.064149 -1.039858
v 93.471848 12.848813 1.666510
v 94.528152 12.848813 1.666510
v 93.471848 12.758196 1.666510
v 94.528152 12.758196 1.666510
v 93.471848 12.425301 1.666510
v 94.528152 12.425301 1.666510
v 93.471848 12.334684 1.666510
v 94.528152 12.334684 1.666510
v 93.471848 12.001789 1.666510
v 94.528152 12.001789 1.666510
v 93.471848 11.911173 1.666510
v 94.528152 11.911173 1.666510
v 93.471848 11.578278 1.666510
v 94.528152 11.578278 1.666510
v 93.471848 11.487660 1.666510
v 94.528152 11.487661 1.666510
v 93.471848 11.154765 1.666510
v 94.528152 11.154766 1.666510
v 93.471848 11.064149 1.666510
v 94.528152 11.064149 1.666510
v 92.333488 12.848813 -0.528151
v 92.333488 12.848813 0.528151
v 92.333488 12.758196 -0.528151
v 92.333488 12.758196 0.528151
v 92.333488 12.425301 -0.528151
v 92.333488 12.425301 0.528151
v 92.333488 12.334684 -0.528151
v 92.333488 12.334684 0.528151
v 92.333488 12.001789 -0.528151
v 92.333488 12.001789 0.528151
v 92.333488 11.911173 -0.528151
v 92.333488 11.911173 0.528151
v 92.333488 11.578278 -0.528151
v 92.333488 11.578278 0.528151
v 92.333488 11.487660 -0.528151
v 92.333488 11.487661 0.528151
v 92.333488 11.154765 -0.528151
v 92.333488 11.154766 0.528151
v 92.333488 11.064149 -0.528151
v 92.333488 11.064149 0.528151
v 92.544708 12.848813 1.039858
v 92.960144 12.848813 1.455294
v 92.544708 12.758196 1.039858
v 92.960144 12.758196 1.455294
v 92.544708 12.425301 1.039858
v 92.960144 12.425301 1.455294
v 92.544708 12.334684 1.039858
v 92.960144 12.334684 1.455294
v 92.544708 12.001789 1.039858
v 92.960144 12.001789 1.455294
v 92.544708 11.911173 1.039858
v 92.960144 11.911173 1.455294
v 92.544708 11.578278 1.039858
v 92.960144 11.578278 1.455294
v 92.544708 11.487660 1.039858
v 92.960144 11.487661 1.455294
v 92.544708 11.154765 1.039858
v 92.960144 11.154766 1.455294
v 92.544708 11.064149 1.039858
v 92.960144 11.064149 1.455294
v 92.385902 12.848813 0.806459
v 92.385902 12.758196 0.806459
v 92.385902 12.425301 0.806459
v 92.385902 12.334684 0.806459
v 92.385902 12.001789 0.806459
v 92.385902 11.911173 0.806459
v 92.385902 11.578278 0.806459
v 92.385902 11.487660 0.806459
v 92.385902 11.154765 0.806459
v 92.385902 11.064149 0.806459
v 92.385902 12.848813 -0.806459
v 92.385902 12.758196 -0.806459
v 92.385902 12.425301 -0.806459
v 92.385902 12.334684 -0.806459
v 92.385902 12.001789 -0.806459
v 92.385902 11.911173 -0.806459
v 92.385902 11.578278 -0.806459
v 92.385902 11.487661 -0.806459
v 92.385902 11.154766 -0.806459
v 92.385902 11.064149 -0.806459
v 95.614098 12.848813 -0.806459
v 95.614098 12.758196 -0.806459
v 95.614098 12.425301 -0.806459
v 95.614098 12.334684 -0.806459
v 95.614098 12.001789 -0.806459
v 95.614098 11.911173 -0.806459
v 95.614098 11.578278 -0.806459
v 95.614098 11.487660 -0.806459
v 95.614098 11.154765 -0.806459
v 95.614098 11.064149 -0.806459
v 93.193542 12.848813 1.614100
v 93.193542 12.758196 1.614100
v 93.193542 12.425301 1.614100
v 93.193542 12.334684 1.614100
v 93.193542 12.001789 1.614100
v 93.193542 11.911173 1.614100
v 93.193542 11.578278 1.614100
v 93.193542 11.487660 1.614100
v 93.193542 11.154765 1.614100
v 93.193542 11.064149 1.614100
v 94.806458 12.848813 1.614100
v 94.806458 12.758196 1.614100
v 94.806458 12.425301 1.614100
v 94.806458 12.334684 1.614100
v 94.806458 12.001789 1.614100
v 94.806458 11.911173 1.614100
v 94.806458 11.578278 1.614100
v 94.806458 11.487660 1.614100
v 94.806458 11.154765 1.614100
v 94.806458 11.064149 1.614100
v 95.614098 12.848813 0.806459
v 95.614098 12.758196 0.806459
v 95.614098 12.425301 0.806459
v 95.614098 12.334684 0.806459
v 95.614098 12.001789 0.806459
v 95.614098 11.911173 0.806459
v 95.614098 11.578278 0.806459
v 95.614098 11.487661 0.806459
v 95.614098 11.154766 0.806459
v 95.614098 11.064149 0.806459
v 94.806458 12.848813 -1.614100
v 94.806458 12.758196 -1.614100
v 94.806458 12.425301 -1.614100
v 94.806458 12.334684 -1.614100
v 94.806458 12.001789 -1.614100
v 94.806458 11.911173 -1.614100
v 94.806458 11.578278 -1.614100
v 94.806458 11.487660 -1.614100
v 94.806458 11.154765 -1.614100
v 94.806458 11.064149 -1.614100
v 93.193542 12.848813 -1.614100
v 93.193542 12.758196 -1.614100
v 93.193542 12.425301 -1.614100
v 93.193542 12.334684 -1.614100
v 93.193542 12.001789 -1.614100
v 93.193542 11.911173 -1.614100
v 93.193542 11.578278 -1.614100
v 93.193542 11.487661 -1.614100
v 93.193542 11.154766 -1.614100
v 93.193542 11.064149 -1.614100
vn -0.0000 1.0000 -0.0000
vn -0.0000 -1.0000 -0.0000
vn 0.6978 -0.1617 -0.6978
vn 0.6978 0.1617 -0.6978
vn 0.9868 -0.1617 -0.0000
vn 0.9868 0.1617 -0.0000
vn 0.6978 -0.1617 0.6978
vn 0.6978 0.1617 0.6978
vn -0.0000 -0.1617 -0.9868
vn -0.0000 0.1617 -0.9868
vn -0.6978 -0.1617 -0.6978
vn -0.6978 0.1617 -0.6978
vn -0.0000 -0.1617 0.9868
vn -0.0000 0.1617 0.9868
vn -0.9868 -0.1617 -0.0000
vn -0.9868 0.1617 -0.0000
vn -0.6978 -0.1617 0.6978
vn -0.6978 0.1617 0.6978
vn -0.8181 -0.1605 0.5523
vn -0.8181 0.1605 0.5523
vn -0.9693 -0.1605 0.1862
vn -0.9693 0.1605 0.1862
vn -0.8181 -0.1605 -0.5523
vn -0.8181 0.1605 -0.5523
vn -0.9693 -0.1605 -0.1862
vn -0.9693 0.1605 -0.1862
vn 0.8181 -0.1605 -0.5523
vn 0.8181 0.1605 -0.5523
vn 0.9693 -0.1605 -0.1862
vn 0.9693 0.1605 -0.1862
vn -0.1862 -0.1605 0.9693
vn -0.1862 0.1605 0.9693
vn -0.5523 -0.1605 0.8181
vn -0.5523 0.1605 0.8181
vn 0.5523 -0.1605 0.8181
vn 0.5523 0.1605 0.8181
vn 0.1862 -0.1605 0.9693
vn 0.1862 0.1605 0.9693
vn 0.8181 -0.1605 0.5523
vn 0.8181 0.1605 0.5523
vn 0.9693 -0.1605 0.1862
vn 0.9693 0.1605 0.1862
vn 0.1862 -0.1605 -0.9693
vn 0.1862 0.1605 -0.9693
vn 0.5523 -0.1605 -0.8181
vn 0.5523 0.1605 -0.8181
vn -0.1862 -0.1605 -0.9693
vn -0.1862 0.1605 -0.9693
vn -0.5523 -0.1605 -0.8181
vn -0.5523 0.1605 -0.8181
vt 0.630137 0.536816
vt 0.640697 0.484017
vt 0.640697 0.484017
vt 0.640697 0.484017
vt 0.630137 0.536816
vt 0.630137 0.536816
vt 0.640697 0.484017
vt 0.630137 0.536816
vt 0.625000 0.665571
vt 0.625000 0.584429
vt 0.625000 0.584429
vt 0.625000 0.665571
vt 0.625000 0.584429
vt 0.625000 0.665571
vt 0.625000 0.584429
vt 0.640697 0.765983
vt 0.630137 0.713184
vt 0.630137 0.713184
vt 0.640697 0.765983
vt 0.640697 0.765983
vt 0.630137 0.713184
vt 0.640697 0.765983
vt 0.640697 0.765983
vt 0.630137 0.713184
vt 0.640697 0.765983
vt 0.640697 0.765983
vt 0.630137 0.713184
vt 0.653143 0.443714
vt 0.783261 0.492690
vt 0.653143 0.443714
vt 0.653143 0.443714
vt 0.783261 0.492690
vt 0.783261 0.492690
vt 0.783261 0.492690
vt 0.653143 0.443714
vt 0.827910 0.515410
vt 0.859590 0.547090
vt 0.859590 0.547090
vt 0.827910 0.515410
vt 0.859590 0.547090
vt 0.827910 0.515410
vt 0.859590 0.547090
vt 0.859590 0.547090
vt 0.827910 0.515410
vt 0.827910 0.515410
vt 0.783261 0.757310
vt 0.653143 0.806286
vt 0.653143 0.806286
vt 0.783261 0.757309
vt 0.653143 0.806286
vt 0.653143 0.806286
vt 0.653143 0.806286
vt 0.875000 0.584429
vt 0.875000 0.665571
vt 0.875000 0.665571
vt 0.875000 0.584429
vt 0.875000 0.665571
vt 0.875000 0.584429
vt 0.875000 0.584429
vt 0.875000 0.665571
vt 0.875000 0.584429
vt 0.875000 0.665571
vt 0.859590 0.702910
vt 0.827910 0.734590
vt 0.827910 0.734590
vt 0.827910 0.734590
vt 0.827910 0.734590
vt 0.859590 0.702910
vt 0.827910 0.734590
vt 0.827910 0.734590
vt 0.859590 0.702910
vt 0.827910 0.734590
vt 0.827910 0.734590
vt 0.827910 0.734590
vt 0.871032 0.685942
vt 0.871032 0.685942
vt 0.871032 0.685942
vt 0.871032 0.685942
vt 0.871032 0.685942
vt 0.871032 0.685942
vt 0.871032 0.685942
vt 0.871032 0.564058
vt 0.625857 0.562712
vt 0.625857 0.562712
vt 0.625857 0.562712
vt 0.625857 0.562712
vt 0.810089 0.746894
vt 0.810089 0.746894
vt 0.810089 0.746894
vt 0.810089 0.746894
vt 0.810089 0.746894
vt 0.647103 0.789613
vt 0.647103 0.789613
vt 0.647103 0.789613
vt 0.625857 0.687288
vt 0.625857 0.687288
vt 0.625857 0.687288
vt 0.625857 0.687288
vt 0.647103 0.460387
vt 0.647103 0.460387
vt 0.647103 0.460387
vt 0.647103 0.460387
vt 0.647103 0.460387
vt 0.810089 0.503106
vt 0.810090 0.503106
vt 0.810090 0.503106
s 0
usemtl Material.039
f 241/1/1 242/2/1 151/2/1 100/1/1
f 244/3/2 243/1/2 99/1/2 152/3/2
f 245/1/1 246/4/1 153/4/1 98/1/1
f 248/4/2 247/5/2 97/5/2 154/4/2
f 249/6/1 250/3/1 155/3/1 96/6/1
f 252/4/2 251/1/2 95/1/2 156/4/2
f 253/6/1 254/7/1 157/7/1 94/6/1
f 256/4/2 255/8/2 93/8/2 158/4/2
f 257/6/1 258/4/1 159/4/1 92/6/1
f 260/4/2 259/1/2 91/1/2 160/4/2
f 261/9/1 262/10/1 201/10/1 40/9/1
f 264/10/2 263/9/2 39/9/2 202/10/2
f 265/9/1 266/10/1 203/10/1 38/9/1
f 268/11/2 267/12/2 37/12/2 204/11/2
f 269/12/1 270/13/1 205/13/1 36/12/1
f 272/10/2 271/9/2 35/9/2 206/10/2
f 273/14/1 274/10/1 207/10/1 34/14/1
f 276/15/2 275/9/2 33/9/2 208/15/2
f 277/12/1 278/10/1 209/10/1 32/12/1
f 280/15/2 279/9/2 31/9/2 210/15/2
f 281/16/1 282/17/1 171/17/1 60/16/1
f 284/18/2 283/19/2 59/19/2 172/18/2
f 285/20/1 286/17/1 173/17/1 58/20/1
f 288/21/2 287/22/2 57/22/2 174/21/2
f 289/23/1 290/18/1 175/18/1 56/23/1
f 292/24/2 291/23/2 55/23/2 176/24/2
f 293/25/1 294/17/1 177/17/1 54/25/1
f 296/17/2 295/19/2 53/19/2 178/17/2
f 297/26/1 298/17/1 179/17/1 52/26/1
f 300/27/2 299/20/2 51/20/2 180/27/2
f 301/28/1 302/29/1 141/29/1 30/28/1
f 304/29/2 303/30/2 29/30/2 142/29/2
f 305/31/1 306/29/1 143/29/1 28/31/1
f 308/32/2 307/28/2 27/28/2 144/32/2
f 309/30/1 310/33/1 145/33/1 26/30/1
f 312/29/2 311/30/2 25/30/2 146/29/2
f 313/30/1 314/29/1 147/29/1 24/30/1
f 316/34/2 315/35/2 23/35/2 148/34/2
f 317/30/1 318/29/1 149/29/1 22/30/1
f 320/29/2 319/31/2 21/31/2 150/29/2
f 321/36/1 322/37/1 221/37/1 10/36/1
f 324/38/2 323/39/2 9/39/2 222/38/2
f 325/39/1 326/37/1 223/37/1 8/39/1
f 328/40/2 327/41/2 7/41/2 224/40/2
f 329/36/1 330/42/1 225/42/1 6/36/1
f 332/37/2 331/36/2 5/36/2 226/37/2
f 333/36/1 334/42/1 227/42/1 4/36/1
f 336/43/2 335/44/2 3/44/2 228/43/2
f 337/36/1 338/42/1 229/42/1 2/36/1
f 340/37/2 339/45/2 1/45/2 230/37/2
f 341/46/1 342/47/1 181/47/1 80/46/1
f 344/48/2 343/49/2 79/49/2 182/48/2
f 345/46/1 346/48/1 183/48/1 78/46/1
f 348/48/2 347/46/2 77/46/2 184/48/2
f 349/46/1 350/50/1 185/50/1 76/46/1
f 352/50/2 351/46/2 75/46/2 186/50/2
f 353/46/1 354/51/1 187/51/1 74/46/1
f 356/50/2 355/46/2 73/46/2 188/50/2
f 357/46/1 358/52/1 189/52/1 72/46/1
f 360/51/2 359/46/2 71/46/2 190/51/2
f 361/53/1 362/54/1 231/54/1 110/53/1
f 364/55/2 363/53/2 109/53/2 232/55/2
f 365/56/1 366/55/1 233/55/1 108/56/1
f 368/57/2 367/58/2 107/58/2 234/57/2
f 369/59/1 370/60/1 235/60/1 106/59/1
f 372/55/2 371/56/2 105/56/2 236/55/2
f 373/61/1 374/55/1 237/55/1 104/61/1
f 376/62/2 375/56/2 103/56/2 238/62/2
f 377/59/1 378/55/1 239/55/1 102/59/1
f 380/62/2 379/56/2 101/56/2 240/62/2
f 381/63/1 382/64/1 191/64/1 130/63/1
f 384/65/2 383/63/2 129/63/2 192/65/2
f 385/63/1 386/66/1 193/66/1 128/63/1
f 388/67/2 387/63/2 127/63/2 194/67/2
f 389/68/1 390/69/1 195/69/1 126/68/1
f 392/70/2 391/63/2 125/63/2 196/70/2
f 393/71/1 394/72/1 197/72/1 124/71/1
f 396/73/2 395/63/2 123/63/2 198/73/2
f 397/71/1 398/67/1 199/67/1 122/71/1
f 400/74/2 399/63/2 121/63/2 200/74/2
f 401/75/1 381/63/1 130/63/1 120/75/1
f 383/63/2 402/76/2 119/76/2 129/63/2
f 403/77/1 385/63/1 128/63/1 118/77/1
f 387/63/2 404/76/2 117/76/2 127/63/2
f 405/75/1 389/68/1 126/68/1 116/75/1
f 391/63/2 406/78/2 115/78/2 125/63/2
f 407/79/1 393/71/1 124/71/1 114/79/1
f 395/63/2 408/79/2 113/79/2 123/63/2
f 409/80/1 397/71/1 122/71/1 112/80/1
f 399/63/2 410/81/2 111/81/2 121/63/2
f 362/54/1 401/75/1 120/75/1 231/54/1
f 402/76/2 364/55/2 232/55/2 119/76/2
f 366/55/1 403/77/1 118/77/1 233/55/1
f 404/76/2 368/57/2 234/57/2 117/76/2
f 370/60/1 405/75/1 116/75/1 235/60/1
f 406/78/2 372/55/2 236/55/2 115/78/2
f 374/55/1 407/79/1 114/79/1 237/55/1
f 408/79/2 376/62/2 238/62/2 113/79/2
f 378/55/1 409/80/1 112/80/1 239/55/1
f 410/81/2 380/62/2 240/62/2 111/81/2
f 322/37/1 411/82/1 211/82/1 221/37/1
f 412/82/2 324/38/2 222/38/2 212/82/2
f 326/37/1 413/82/1 213/82/1 223/37/1
f 414/82/2 328/40/2 224/40/2 214/82/2
f 330/42/1 415/82/1 215/82/1 225/42/1
f 416/82/2 332/37/2 226/37/2 216/82/2
f 334/42/1 417/82/1 217/82/1 227/42/1
f 418/82/2 336/43/2 228/43/2 218/82/2
f 338/42/1 419/82/1 219/82/1 229/42/1
f 420/82/2 340/37/2 230/37/2 220/82/2
f 411/82/1 361/53/1 110/53/1 211/82/1
f 363/53/2 412/82/2 212/82/2 109/53/2
f 413/82/1 365/56/1 108/56/1 213/82/1
f 367/58/2 414/82/2 214/82/2 107/58/2
f 415/82/1 369/59/1 106/59/1 215/82/1
f 371/56/2 416/82/2 216/82/2 105/56/2
f 417/82/1 373/61/1 104/61/1 217/82/1
f 375/56/2 418/82/2 218/82/2 103/56/2
f 419/82/1 377/59/1 102/59/1 219/82/1
f 379/56/2 420/82/2 220/82/2 101/56/2
f 421/83/1 241/1/1 100/1/1 90/83/1
f 243/1/2 422/83/2 89/83/2 99/1/2
f 423/83/1 245/1/1 98/1/1 88/83/1
f 247/5/2 424/84/2 87/84/2 97/5/2
f 425/83/1 249/6/1 96/6/1 86/83/1
f 251/1/2 426/83/2 85/83/2 95/1/2
f 427/83/1 253/6/1 94/6/1 84/83/1
f 255/8/2 428/85/2 83/85/2 93/8/2
f 429/83/1 257/6/1 92/6/1 82/83/1
f 259/1/2 430/86/2 81/86/2 91/1/2
f 262/10/1 421/83/1 90/83/1 201/10/1
f 422/83/2 264/10/2 202/10/2 89/83/2
f 266/10/1 423/83/1 88/83/1 203/10/1
f 424/84/2 268/11/2 204/11/2 87/84/2
f 270/13/1 425/83/1 86/83/1 205/13/1
f 426/83/2 272/10/2 206/10/2 85/83/2
f 274/10/1 427/83/1 84/83/1 207/10/1
f 428/85/2 276/15/2 208/15/2 83/85/2
f 278/10/1 429/83/1 82/83/1 209/10/1
f 430/86/2 280/15/2 210/15/2 81/86/2
f 431/87/1 341/46/1 80/46/1 70/87/1
f 343/49/2 432/88/2 69/88/2 79/49/2
f 433/89/1 345/46/1 78/46/1 68/89/1
f 347/46/2 434/87/2 67/87/2 77/46/2
f 435/90/1 349/46/1 76/46/1 66/90/1
f 351/46/2 436/89/2 65/89/2 75/46/2
f 437/91/1 353/46/1 74/46/1 64/91/1
f 355/46/2 438/91/2 63/91/2 73/46/2
f 439/91/1 357/46/1 72/46/1 62/91/1
f 359/46/2 440/91/2 61/91/2 71/46/2
f 382/64/1 431/87/1 70/87/1 191/64/1
f 432/88/2 384/65/2 192/65/2 69/88/2
f 386/66/1 433/89/1 68/89/1 193/66/1
f 434/87/2 388/67/2 194/67/2 67/87/2
f 390/69/1 435/90/1 66/90/1 195/69/1
f 436/89/2 392/70/2 196/70/2 65/89/2
f 394/72/1 437/91/1 64/91/1 197/72/1
f 438/91/2 396/73/2 198/73/2 63/91/2
f 398/67/1 439/91/1 62/91/1 199/67/1
f 440/91/2 400/74/2 200/74/2 61/91/2
f 441/92/1 281/16/1 60/16/1 50/92/1
f 283/19/2 442/93/2 49/93/2 59/19/2
f 443/94/1 285/20/1 58/20/1 48/94/1
f 287/22/2 444/92/2 47/92/2 57/22/2
f 445/94/1 289/23/1 56/23/1 46/94/1
f 291/23/2 446/93/2 45/93/2 55/23/2
f 447/94/1 293/25/1 54/25/1 44/94/1
f 295/19/2 448/94/2 43/94/2 53/19/2
f 449/93/1 297/26/1 52/26/1 42/93/1
f 299/20/2 450/93/2 41/93/2 51/20/2
f 342/47/1 441/92/1 50/92/1 181/47/1
f 442/93/2 344/48/2 182/48/2 49/93/2
f 346/48/1 443/94/1 48/94/1 183/48/1
f 444/92/2 348/48/2 184/48/2 47/92/2
f 350/50/1 445/94/1 46/94/1 185/50/1
f 446/93/2 352/50/2 186/50/2 45/93/2
f 354/51/1 447/94/1 44/94/1 187/51/1
f 448/94/2 356/50/2 188/50/2 43/94/2
f 358/52/1 449/93/1 42/93/1 189/52/1
f 450/93/2 360/51/2 190/51/2 41/93/2
f 282/17/1 451/95/1 161/95/1 171/17/1
f 452/95/2 284/18/2 172/18/2 162/95/2
f 286/17/1 453/96/1 163/96/1 173/17/1
f 454/96/2 288/21/2 174/21/2 164/96/2
f 290/18/1 455/97/1 165/97/1 175/18/1
f 456/95/2 292/24/2 176/24/2 166/95/2
f 294/17/1 457/98/1 167/98/1 177/17/1
f 458/95/2 296/17/2 178/17/2 168/95/2
f 298/17/1 459/95/1 169/95/1 179/17/1
f 460/95/2 300/27/2 180/27/2 170/95/2
f 451/95/1 261/9/1 40/9/1 161/95/1
f 263/9/2 452/95/2 162/95/2 39/9/2
f 453/96/1 265/9/1 38/9/1 163/96/1
f 267/12/2 454/96/2 164/96/2 37/12/2
f 455/97/1 269/12/1 36/12/1 165/97/1
f 271/9/2 456/95/2 166/95/2 35/9/2
f 457/98/1 273/14/1 34/14/1 167/98/1
f 275/9/2 458/95/2 168/95/2 33/9/2
f 459/95/1 277/12/1 32/12/1 169/95/1
f 279/9/2 460/95/2 170/95/2 31/9/2
f 461/99/1 301/28/1 30/28/1 20/99/1
f 303/30/2 462/100/2 19/100/2 29/30/2
f 463/101/1 305/31/1 28/31/1 18/101/1
f 307/28/2 464/102/2 17/102/2 27/28/2
f 465/102/1 309/30/1 26/30/1 16/102/1
f 311/30/2 466/103/2 15/103/2 25/30/2
f 467/101/1 313/30/1 24/30/1 14/101/1
f 315/35/2 468/102/2 13/102/2 23/35/2
f 469/100/1 317/30/1 22/30/1 12/100/1
f 319/31/2 470/100/2 11/100/2 21/31/2
f 242/2/1 461/99/1 20/99/1 151/2/1
f 462/100/2 244/3/2 152/3/2 19/100/2
f 246/4/1 463/101/1 18/101/1 153/4/1
f 464/102/2 248/4/2 154/4/2 17/102/2
f 250/3/1 465/102/1 16/102/1 155/3/1
f 466/103/2 252/4/2 156/4/2 15/103/2
f 254/7/1 467/101/1 14/101/1 157/7/1
f 468/102/2 256/4/2 158/4/2 13/102/2
f 258/4/1 469/100/1 12/100/1 159/4/1
f 470/100/2 260/4/2 160/4/2 11/100/2
f 302/29/1 471/104/1 131/104/1 141/29/1
f 472/104/2 304/29/2 142/29/2 132/104/2
f 306/29/1 473/104/1 133/104/1 143/29/1
f 474/104/2 308/32/2 144/32/2 134/104/2
f 310/33/1 475/105/1 135/105/1 145/33/1
f 476/104/2 312/29/2 146/29/2 136/104/2
f 314/29/1 477/105/1 137/105/1 147/29/1
f 478/104/2 316/34/2 148/34/2 138/104/2
f 318/29/1 479/104/1 139/104/1 149/29/1
f 480/106/2 320/29/2 150/29/2 140/106/2
f 471/104/1 321/36/1 10/36/1 131/104/1
f 323/39/2 472/104/2 132/104/2 9/39/2
f 473/104/1 325/39/1 8/39/1 133/104/1
f 327/41/2 474/104/2 134/104/2 7/41/2
f 475/105/1 329/36/1 6/36/1 135/105/1
f 331/36/2 476/104/2 136/104/2 5/36/2
f 477/105/1 333/36/1 4/36/1 137/105/1
f 335/44/2 478/104/2 138/104/2 3/44/2
f 479/104/1 337/36/1 2/36/1 139/104/1
f 339/45/2 480/106/2 140/106/2 1/45/2
f 481/1/3 482/2/3 242/2/3 241/1/3
f 484/3/4 483/1/4 243/1/4 244/3/4
f 485/1/3 486/4/3 246/4/3 245/1/3
f 488/4/4 487/5/4 247/5/4 248/4/4
f 489/6/3 490/3/3 250/3/3 249/6/3
f 492/4/4 491/1/4 251/1/4 252/4/4
f 493/6/3 494/7/3 254/7/3 253/6/3
f 496/4/4 495/8/4 255/8/4 256/4/4
f 497/6/3 498/4/3 258/4/3 257/6/3
f 500/4/4 499/1/4 259/1/4 260/4/4
f 501/9/5 502/10/5 262/10/5 261/9/5
f 504/10/6 503/9/6 263/9/6 264/10/6
f 505/9/5 506/10/5 266/10/5 265/9/5
f 508/11/6 507/12/6 267/12/6 268/11/6
f 509/12/5 510/13/5 270/13/5 269/12/5
f 512/10/6 511/9/6 271/9/6 272/10/6
f 513/14/5 514/10/5 274/10/5 273/14/5
f 516/15/6 515/9/6 275/9/6 276/15/6
f 517/12/5 518/10/5 278/10/5 277/12/5
f 520/15/6 519/9/6 279/9/6 280/15/6
f 521/16/7 522/17/7 282/17/7 281/16/7
f 524/18/8 523/19/8 283/19/8 284/18/8
f 525/20/7 526/17/7 286/17/7 285/20/7
f 528/21/8 527/22/8 287/22/8 288/21/8
f 529/23/7 530/18/7 290/18/7 289/23/7
f 532/24/8 531/23/8 291/23/8 292/24/8
f 533/25/7 534/17/7 294/17/7 293/25/7
f 536/17/8 535/19/8 295/19/8 296/17/8
f 537/26/7 538/17/7 298/17/7 297/26/7
f 540/27/8 539/20/8 299/20/8 300/27/8
f 541/28/9 542/29/9 302/29/9 301/28/9
f 544/29/10 543/30/10 303/30/10 304/29/10
f 545/31/9 546/29/9 306/29/9 305/31/9
f 548/32/10 547/28/10 307/28/10 308/32/10
f 549/30/9 550/33/9 310/33/9 309/30/9
f 552/29/10 551/30/10 311/30/10 312/29/10
f 553/30/9 554/29/9 314/29/9 313/30/9
f 556/34/10 555/35/10 315/35/10 316/34/10
f 557/30/9 558/29/9 318/29/9 317/30/9
f 560/29/10 559/31/10 319/31/10 320/29/10
f 561/36/11 562/37/11 322/37/11 321/36/11
f 564/38/12 563/39/12 323/39/12 324/38/12
f 565/39/11 566/37/11 326/37/11 325/39/11
f 568/40/12 567/41/12 327/41/12 328/40/12
f 569/36/11 570/42/11 330/42/11 329/36/11
f 572/37/12 571/36/12 331/36/12 332/37/12
f 573/36/11 574/42/11 334/42/11 333/36/11
f 576/43/12 575/44/12 335/44/12 336/43/12
f 577/36/11 578/42/11 338/42/11 337/36/11
f 580/37/12 579/45/12 339/45/12 340/37/12
f 581/46/13 582/47/13 342/47/13 341/46/13
f 584/48/14 583/49/14 343/49/14 344/48/14
f 585/46/13 586/48/13 346/48/13 345/46/13
f 588/48/14 587/46/14 347/46/14 348/48/14
f 589/46/13 590/50/13 350/50/13 349/46/13
f 592/50/14 591/46/14 351/46/14 352/50/14
f 593/46/13 594/51/13 354/51/13 353/46/13
f 596/50/14 595/46/14 355/46/14 356/50/14
f 597/46/13 598/52/13 358/52/13 357/46/13
f 600/51/14 599/46/14 359/46/14 360/51/14
f 601/53/15 602/54/15 362/54/15 361/53/15
f 604/55/16 603/53/16 363/53/16 364/55/16
f 605/56/15 606/55/15 366/55/15 365/56/15
f 608/57/16 607/58/16 367/58/16 368/57/16
f 609/59/15 610/60/15 370/60/15 369/59/15
f 612/55/16 611/56/16 371/56/16 372/55/16
f 613/61/15 614/55/15 374/55/15 373/61/15
f 616/62/16 615/56/16 375/56/16 376/62/16
f 617/59/15 618/55/15 378/55/15 377/59/15
f 620/62/16 619/56/16 379/56/16 380/62/16
f 621/63/17 622/64/17 382/64/17 381/63/17
f 624/65/18 623/63/18 383/63/18 384/65/18
f 625/63/17 626/66/17 386/66/17 385/63/17
f 628/67/18 627/63/18 387/63/18 388/67/18
f 629/68/17 630/69/17 390/69/17 389/68/17
f 632/70/18 631/63/18 391/63/18 392/70/18
f 633/71/17 634/72/17 394/72/17 393/71/17
f 636/73/18 635/63/18 395/63/18 396/73/18
f 637/71/17 638/67/17 398/67/17 397/71/17
f 640/74/18 639/63/18 399/63/18 400/74/18
f 641/75/19 621/63/19 381/63/19 401/75/19
f 623/63/20 642/76/20 402/76/20 383/63/20
f 643/77/19 625/63/19 385/63/19 403/77/19
f 627/63/20 644/76/20 404/76/20 387/63/20
f 645/75/19 629/68/19 389/68/19 405/75/19
f 631/63/20 646/78/20 406/78/20 391/63/20
f 647/79/19 633/71/19 393/71/19 407/79/19
f 635/63/20 648/79/20 408/79/20 395/63/20
f 649/80/19 637/71/19 397/71/19 409/80/19
f 639/63/20 650/81/20 410/81/20 399/63/20
f 602/54/21 641/75/21 401/75/21 362/54/21
f 642/76/22 604/55/22 364/55/22 402/76/22
f 606/55/21 643/77/21 403/77/21 366/55/21
f 644/76/22 608/57/22 368/57/22 404/76/22
f 610/60/21 645/75/21 405/75/21 370/60/21
f 646/78/22 612/55/22 372/55/22 406/78/22
f 614/55/21 647/79/21 407/79/21 374/55/21
f 648/79/22 616/62/22 376/62/22 408/79/22
f 618/55/21 649/80/21 409/80/21 378/55/21
f 650/81/22 620/62/22 380/62/22 410/81/22
f 562/37/23 651/82/23 411/82/23 322/37/23
f 652/82/24 564/38/24 324/38/24 412/82/24
f 566/37/23 653/82/23 413/82/23 326/37/23
f 654/82/24 568/40/24 328/40/24 414/82/24
f 570/42/23 655/82/23 415/82/23 330/42/23
f 656/82/24 572/37/24 332/37/24 416/82/24
f 574/42/23 657/82/23 417/82/23 334/42/23
f 658/82/24 576/43/24 336/43/24 418/82/24
f 578/42/23 659/82/23 419/82/23 338/42/23
f 660/82/24 580/37/24 340/37/24 420/82/24
f 651/82/25 601/53/25 361/53/25 411/82/25
f 603/53/26 652/82/26 412/82/26 363/53/26
f 653/82/25 605/56/25 365/56/25 413/82/25
f 607/58/26 654/82/26 414/82/26 367/58/26
f 655/82/25 609/59/25 369/59/25 415/82/25
f 611/56/26 656/82/26 416/82/26 371/56/26
f 657/82/25 613/61/25 373/61/25 417/82/25
f 615/56/26 658/82/26 418/82/26 375/56/26
f 659/82/25 617/59/25 377/59/25 419/82/25
f 619/56/26 660/82/26 420/82/26 379/56/26
f 661/83/27 481/1/27 241/1/27 421/83/27
f 483/1/28 662/83/28 422/83/28 243/1/28
f 663/83/27 485/1/27 245/1/27 423/83/27
f 487/5/28 664/84/28 424/84/28 247/5/28
f 665/83/27 489/6/27 249/6/27 425/83/27
f 491/1/28 666/83/28 426/83/28 251/1/28
f 667/83/27 493/6/27 253/6/27 427/83/27
f 495/8/28 668/85/28 428/85/28 255/8/28
f 669/83/27 497/6/27 257/6/27 429/83/27
f 499/1/28 670/86/28 430/86/28 259/1/28
f 502/10/29 661/83/29 421/83/29 262/10/29
f 662/83/30 504/10/30 264/10/30 422/83/30
f 506/10/29 663/83/29 423/83/29 266/10/29
f 664/84/30 508/11/30 268/11/30 424/84/30
f 510/13/29 665/83/29 425/83/29 270/13/29
f 666/83/30 512/10/30 272/10/30 426/83/30
f 514/10/29 667/83/29 427/83/29 274/10/29
f 668/85/30 516/15/30 276/15/30 428/85/30
f 518/10/29 669/83/29 429/83/29 278/10/29
f 670/86/30 520/15/30 280/15/30 430/86/30
f 671/87/31 581/46/31 341/46/31 431/87/31
f 583/49/32 672/88/32 432/88/32 343/49/32
f 673/89/31 585/46/31 345/46/31 433/89/31
f 587/46/32 674/87/32 434/87/32 347/46/32
f 675/90/31 589/46/31 349/46/31 435/90/31
f 591/46/32 676/89/32 436/89/32 351/46/32
f 677/91/31 593/46/31 353/46/31 437/91/31
f 595/46/32 678/91/32 438/91/32 355/46/32
f 679/91/31 597/46/31 357/46/31 439/91/31
f 599/46/32 680/91/32 440/91/32 359/46/32
f 622/64/33 671/87/33 431/87/33 382/64/33
f 672/88/34 624/65/34 384/65/34 432/88/34
f 626/66/33 673/89/33 433/89/33 386/66/33
f 674/87/34 628/67/34 388/67/34 434/87/34
f 630/69/33 675/90/33 435/90/33 390/69/33
f 676/89/34 632/70/34 392/70/34 436/89/34
f 634/72/33 677/91/33 437/91/33 394/72/33
f 678/91/34 636/73/34 396/73/34 438/91/34
f 638/67/33 679/91/33 439/91/33 398/67/33
f 680/91/34 640/74/34 400/74/34 440/91/34
f 681/92/35 521/16/35 281/16/35 441/92/35
f 523/19/36 682/93/36 442/93/36 283/19/36
f 683/94/35 525/20/35 285/20/35 443/94/35
f 527/22/36 684/92/36 444/92/36 287/22/36
f 685/94/35 529/23/35 289/23/35 445/94/35
f 531/23/36 686/93/36 446/93/36 291/23/36
f 687/94/35 533/25/35 293/25/35 447/94/35
f 535/19/36 688/94/36 448/94/36 295/19/36
f 689/93/35 537/26/35 297/26/35 449/93/35
f 539/20/36 690/93/36 450/93/36 299/20/36
f 582/47/37 681/92/37 441/92/37 342/47/37
f 682/93/38 584/48/38 344/48/38 442/93/38
f 586/48/37 683/94/37 443/94/37 346/48/37
f 684/92/38 588/48/38 348/48/38 444/92/38
f 590/50/37 685/94/37 445/94/37 350/50/37
f 686/93/38 592/50/38 352/50/38 446/93/38
f 594/51/37 687/94/37 447/94/37 354/51/37
f 688/94/38 596/50/38 356/50/38 448/94/38
f 598/52/37 689/93/37 449/93/37 358/52/37
f 690/93/38 600/51/38 360/51/38 450/93/38
f 522/17/39 691/95/39 451/95/39 282/17/39
f 692/95/40 524/18/40 284/18/40 452/95/40
f 526/17/39 693/96/39 453/96/39 286/17/39
f 694/96/40 528/21/40 288/21/40 454/96/40
f 530/18/39 695/97/39 455/97/39 290/18/39
f 696/95/40 532/24/40 292/24/40 456/95/40
f 534/17/39 697/98/39 457/98/39 294/17/39
f 698/95/40 536/17/40 296/17/40 458/95/40
f 538/17/39 699/95/39 459/95/39 298/17/39
f 700/95/40 540/27/40 300/27/40 460/95/40
f 691/95/41 501/9/41 261/9/41 451/95/41
f 503/9/42 692/95/42 452/95/42 263/9/42
f 693/96/41 505/9/41 265/9/41 453/96/41
f 507/12/42 694/96/42 454/96/42 267/12/42
f 695/97/41 509/12/41 269/12/41 455/97/41
f 511/9/42 696/95/42 456/95/42 271/9/42
f 697/98/41 513/14/41 273/14/41 457/98/41
f 515/9/42 698/95/42 458/95/42 275/9/42
f 699/95/41 517/12/41 277/12/41 459/95/41
f 519/9/42 700/95/42 460/95/42 279/9/42
f 701/99/43 541/28/43 301/28/43 461/99/43
f 543/30/44 702/100/44 462/100/44 303/30/44
f 703/101/43 545/31/43 305/31/43 463/101/43
f 547/28/44 704/102/44 464/102/44 307/28/44
f 705/102/43 549/30/43 309/30/43 465/102/43
f 551/30/44 706/103/44 466/103/44 311/30/44
f 707/101/43 553/30/43 313/30/43 467/101/43
f 555/35/44 708/102/44 468/102/44 315/35/44
f 709/100/43 557/30/43 317/30/43 469/100/43
f 559/31/44 710/100/44 470/100/44 319/31/44
f 482/2/45 701/99/45 461/99/45 242/2/45
f 702/100/46 484/3/46 244/3/46 462/100/46
f 486/4/45 703/101/45 463/101/45 246/4/45
f 704/102/46 488/4/46 248/4/46 464/102/46
f 490/3/45 705/102/45 465/102/45 250/3/45
f 706/103/46 492/4/46 252/4/46 466/103/46
f 494/7/45 707/101/45 467/101/45 254/7/45
f 708/102/46 496/4/46 256/4/46 468/102/46
f 498/4/45 709/100/45 469/100/45 258/4/45
f 710/100/46 500/4/46 260/4/46 470/100/46
f 542/29/47 711/104/47 471/104/47 302/29/47
f 712/104/48 544/29/48 304/29/48 472/104/48
f 546/29/47 713/104/47 473/104/47 306/29/47
f 714/104/48 548/32/48 308/32/48 474/104/48
f 550/33/47 715/105/47 475/105/47 310/33/47
f 716/104/48 552/29/48 312/29/48 476/104/48
f 554/29/47 717/105/47 477/105/47 314/29/47
f 718/104/48 556/34/48 316/34/48 478/104/48
f 558/29/47 719/104/47 479/104/47 318/29/47
f 720/106/48 560/29/48 320/29/48 480/106/48
f 711/104/49 561/36/49 321/36/49 471/104/49
f 563/39/50 712/104/50 472/104/50 323/39/50
f 713/104/49 565/39/49 325/39/49 473/104/49
f 567/41/50 714/104/50 474/104/50 327/41/50
f 715/105/49 569/36/49 329/36/49 475/105/49
f 571/36/50 716/104/50 476/104/50 331/36/50
f 717/105/49 573/36/49 333/36/49 477/105/49
f 575/44/50 718/104/50 478/104/50 335/44/50
f 719/104/49 577/36/49 337/36/49 479/104/49
f 579/45/50 720/106/50 480/106/50 339/45/50
f 721/1/2 722/2/2 482/2/2 481/1/2
f 724/3/1 723/1/1 483/1/1 484/3/1
f 725/1/2 726/4/2 486/4/2 485/1/2
f 728/4/1 727/5/1 487/5/1 488/4/1
f 729/6/2 730/3/2 490/3/2 489/6/2
f 732/4/1 731/1/1 491/1/1 492/4/1
f 733/6/2 734/7/2 494/7/2 493/6/2
f 736/4/1 735/8/1 495/8/1 496/4/1
f 737/6/2 738/4/2 498/4/2 497/6/2
f 740/4/1 739/1/1 499/1/1 500/4/1
f 741/9/2 742/10/2 502/10/2 501/9/2
f 744/10/1 743/9/1 503/9/1 504/10/1
f 745/9/2 746/10/2 506/10/2 505/9/2
f 748/11/1 747/12/1 507/12/1 508/11/1
f 749/12/2 750/13/2 510/13/2 509/12/2
f 752/10/1 751/9/1 511/9/1 512/10/1
f 753/14/2 754/10/2 514/10/2 513/14/2
f 756/15/1 755/9/1 515/9/1 516/15/1
f 757/12/2 758/10/2 518/10/2 517/12/2
f 760/15/1 759/9/1 519/9/1 520/15/1
f 761/16/2 762/17/2 522/17/2 521/16/2
f 764/18/1 763/19/1 523/19/1 524/18/1
f 765/20/2 766/17/2 526/17/2 525/20/2
f 768/21/1 767/22/1 527/22/1 528/21/1
f 769/23/2 770/18/2 530/18/2 529/23/2
f 772/24/1 771/23/1 531/23/1 532/24/1
f 773/25/2 774/17/2 534/17/2 533/25/2
f 776/17/1 775/19/1 535/19/1 536/17/1
f 777/26/2 778/17/2 538/17/2 537/26/2
f 780/27/1 779/20/1 539/20/1 540/27/1
f 781/28/2 782/29/2 542/29/2 541/28/2
f 784/29/1 783/30/1 543/30/1 544/29/1
f 785/31/2 786/29/2 546/29/2 545/31/2
f 788/32/1 787/28/1 547/28/1 548/32/1
f 789/30/2 790/33/2 550/33/2 549/30/2
f 792/29/1 791/30/1 551/30/1 552/29/1
f 793/30/2 794/29/2 554/29/2 553/30/2
f 796/34/1 795/35/1 555/35/1 556/34/1
f 797/30/2 798/29/2 558/29/2 557/30/2
f 800/29/1 799/31/1 559/31/1 560/29/1
f 801/36/2 802/37/2 562/37/2 561/36/2
f 804/38/1 803/39/1 563/39/1 564/38/1
f 805/39/2 806/37/2 566/37/2 565/39/2
f 808/40/1 807/41/1 567/41/1 568/40/1
f 809/36/2 810/42/2 570/42/2 569/36/2
f 812/37/1 811/36/1 571/36/1 572/37/1
f 813/36/2 814/42/2 574/42/2 573/36/2
f 816/43/1 815/44/1 575/44/1 576/43/1
f 817/36/2 818/42/2 578/42/2 577/36/2
f 820/37/1 819/45/1 579/45/1 580/37/1
f 821/46/2 822/47/2 582/47/2 581/46/2
f 824/48/1 823/49/1 583/49/1 584/48/1
f 825/46/2 826/48/2 586/48/2 585/46/2
f 828/48/1 827/46/1 587/46/1 588/48/1
f 829/46/2 830/50/2 590/50/2 589/46/2
f 832/50/1 831/46/1 591/46/1 592/50/1
f 833/46/2 834/51/2 594/51/2 593/46/2
f 836/50/1 835/46/1 595/46/1 596/50/1
f 837/46/2 838/52/2 598/52/2 597/46/2
f 840/51/1 839/46/1 599/46/1 600/51/1
f 841/53/2 842/54/2 602/54/2 601/53/2
f 844/55/1 843/53/1 603/53/1 604/55/1
f 845/56/2 846/55/2 606/55/2 605/56/2
f 848/57/1 847/58/1 607/58/1 608/57/1
f 849/59/2 850/60/2 610/60/2 609/59/2
f 852/55/1 851/56/1 611/56/1 612/55/1
f 853/61/2 854/55/2 614/55/2 613/61/2
f 856/62/1 855/56/1 615/56/1 616/62/1
f 857/59/2 858/55/2 618/55/2 617/59/2
f 860/62/1 859/56/1 619/56/1 620/62/1
f 861/63/2 862/64/2 622/64/2 621/63/2
f 864/65/1 863/63/1 623/63/1 624/65/1
f 865/63/2 866/66/2 626/66/2 625/63/2
f 868/67/1 867/63/1 627/63/1 628/67/1
f 869/68/2 870/69/2 630/69/2 629/68/2
f 872/70/1 871/63/1 631/63/1 632/70/1
f 873/71/2 874/72/2 634/72/2 633/71/2
f 876/73/1 875/63/1 635/63/1 636/73/1
f 877/71/2 878/67/2 638/67/2 637/71/2
f 880/74/1 879/63/1 639/63/1 640/74/1
f 881/75/2 861/63/2 621/63/2 641/75/2
f 863/63/1 882/76/1 642/76/1 623/63/1
f 883/77/2 865/63/2 625/63/2 643/77/2
f 867/63/1 884/76/1 644/76/1 627/63/1
f 885/75/2 869/68/2 629/68/2 645/75/2
f 871/63/1 886/78/1 646/78/1 631/63/1
f 887/79/2 873/71/2 633/71/2 647/79/2
f 875/63/1 888/79/1 648/79/1 635/63/1
f 889/80/2 877/71/2 637/71/2 649/80/2
f 879/63/1 890/81/1 650/81/1 639/63/1
f 842/54/2 881/75/2 641/75/2 602/54/2
f 882/76/1 844/55/1 604/55/1 642/76/1
f 846/55/2 883/77/2 643/77/2 606/55/2
f 884/76/1 848/57/1 608/57/1 644/76/1
f 850/60/2 885/75/2 645/75/2 610/60/2
f 886/78/1 852/55/1 612/55/1 646/78/1
f 854/55/2 887/79/2 647/79/2 614/55/2
f 888/79/1 856/62/1 616/62/1 648/79/1
f 858/55/2 889/80/2 649/80/2 618/55/2
f 890/81/1 860/62/1 620/62/1 650/81/1
f 802/37/2 891/82/2 651/82/2 562/37/2
f 892/82/1 804/38/1 564/38/1 652/82/1
f 806/37/2 893/82/2 653/82/2 566/37/2
f 894/82/1 808/40/1 568/40/1 654/82/1
f 810/42/2 895/82/2 655/82/2 570/42/2
f 896/82/1 812/37/1 572/37/1 656/82/1
f 814/42/2 897/82/2 657/82/2 574/42/2
f 898/82/1 816/43/1 576/43/1 658/82/1
f 818/42/2 899/82/2 659/82/2 578/42/2
f 900/82/1 820/37/1 580/37/1 660/82/1
f 891/82/2 841/53/2 601/53/2 651/82/2
f 843/53/1 892/82/1 652/82/1 603/53/1
f 893/82/2 845/56/2 605/56/2 653/82/2
f 847/58/1 894/82/1 654/82/1 607/58/1
f 895/82/2 849/59/2 609/59/2 655/82/2
f 851/56/1 896/82/1 656/82/1 611/56/1
f 897/82/2 853/61/2 613/61/2 657/82/2
f 855/56/1 898/82/1 658/82/1 615/56/1
f 899/82/2 857/59/2 617/59/2 659/82/2
f 859/56/1 900/82/1 660/82/1 619/56/1
f 901/83/2 721/1/2 481/1/2 661/83/2
f 723/1/1 902/83/1 662/83/1 483/1/1
f 903/83/2 725/1/2 485/1/2 663/83/2
f 727/5/1 904/84/1 664/84/1 487/5/1
f 905/83/2 729/6/2 489/6/2 665/83/2
f 731/1/1 906/83/1 666/83/1 491/1/1
f 907/83/2 733/6/2 493/6/2 667/83/2
f 735/8/1 908/85/1 668/85/1 495/8/1
f 909/83/2 737/6/2 497/6/2 669/83/2
f 739/1/1 910/86/1 670/86/1 499/1/1
f 742/10/2 901/83/2 661/83/2 502/10/2
f 902/83/1 744/10/1 504/10/1 662/83/1
f 746/10/2 903/83/2 663/83/2 506/10/2
f 904/84/1 748/11/1 508/11/1 664/84/1
f 750/13/2 905/83/2 665/83/2 510/13/2
f 906/83/1 752/10/1 512/10/1 666/83/1
f 754/10/2 907/83/2 667/83/2 514/10/2
f 908/85/1 756/15/1 516/15/1 668/85/1
f 758/10/2 909/83/2 669/83/2 518/10/2
f 910/86/1 760/15/1 520/15/1 670/86/1
f 911/87/2 821/46/2 581/46/2 671/87/2
f 823/49/1 912/88/1 672/88/1 583/49/1
f 913/89/2 825/46/2 585/46/2 673/89/2
f 827/46/1 914/87/1 674/87/1 587/46/1
f 915/90/2 829/46/2 589/46/2 675/90/2
f 831/46/1 916/89/1 676/89/1 591/46/1
f 917/91/2 833/46/2 593/46/2 677/91/2
f 835/46/1 918/91/1 678/91/1 595/46/1
f 919/91/2 837/46/2 597/46/2 679/91/2
f 839/46/1 920/91/1 680/91/1 599/46/1
f 862/64/2 911/87/2 671/87/2 622/64/2
f 912/88/1 864/65/1 624/65/1 672/88/1
f 866/66/2 913/89/2 673/89/2 626/66/2
f 914/87/1 868/67/1 628/67/1 674/87/1
f 870/69/2 915/90/2 675/90/2 630/69/2
f 916/89/1 872/70/1 632/70/1 676/89/1
f 874/72/2 917/91/2 677/91/2 634/72/2
f 918/91/1 876/73/1 636/73/1 678/91/1
f 878/67/2 919/91/2 679/91/2 638/67/2
f 920/91/1 880/74/1 640/74/1 680/91/1
f 921/92/2 761/16/2 521/16/2 681/92/2
f 763/19/1 922/93/1 682/93/1 523/19/1
f 923/94/2 765/20/2 525/20/2 683/94/2
f 767/22/1 924/92/1 684/92/1 527/22/1
f 925/94/2 769/23/2 529/23/2 685/94/2
f 771/23/1 926/93/1 686/93/1 531/23/1
f 927/94/2 773/25/2 533/25/2 687/94/2
f 775/19/1 928/94/1 688/94/1 535/19/1
f 929/93/2 777/26/2 537/26/2 689/93/2
f 779/20/1 930/93/1 690/93/1 539/20/1
f 822/47/2 921/92/2 681/92/2 582/47/2
f 922/93/1 824/48/1 584/48/1 682/93/1
f 826/48/2 923/94/2 683/94/2 586/48/2
f 924/92/1 828/48/1 588/48/1 684/92/1
f 830/50/2 925/94/2 685/94/2 590/50/2
f 926/93/1 832/50/1 592/50/1 686/93/1
f 834/51/2 927/94/2 687/94/2 594/51/2
f 928/94/1 836/50/1 596/50/1 688/94/1
f 838/52/2 929/93/2 689/93/2 598/52/2
f 930/93/1 840/51/1 600/51/1 690/93/1
f 762/17/2 931/95/2 691/95/2 522/17/2
f 932/95/1 764/18/1 524/18/1 692/95/1
f 766/17/2 933/96/2 693/96/2 526/17/2
f 934/96/1 768/21/1 528/21/1 694/96/1
f 770/18/2 935/97/2 695/97/2 530/18/2
f 936/95/1 772/24/1 532/24/1 696/95/1
f 774/17/2 937/98/2 697/98/2 534/17/2
f 938/95/1 776/17/1 536/17/1 698/95/1
f 778/17/2 939/95/2 699/95/2 538/17/2
f 940/95/1 780/27/1 540/27/1 700/95/1
f 931/95/2 741/9/2 501/9/2 691/95/2
f 743/9/1 932/95/1 692/95/1 503/9/1
f 933/96/2 745/9/2 505/9/2 693/96/2
f 747/12/1 934/96/1 694/96/1 507/12/1
f 935/97/2 749/12/2 509/12/2 695/97/2
f 751/9/1 936/95/1 696/95/1 511/9/1
f 937/98/2 753/14/2 513/14/2 697/98/2
f 755/9/1 938/95/1 698/95/1 515/9/1
f 939/95/2 757/12/2 517/12/2 699/95/2
f 759/9/1 940/95/1 700/95/1 519/9/1
f 941/99/2 781/28/2 541/28/2 701/99/2
f 783/30/1 942/100/1 702/100/1 543/30/1
f 943/101/2 785/31/2 545/31/2 703/101/2
f 787/28/1 944/102/1 704/102/1 547/28/1
f 945/102/2 789/30/2 549/30/2 705/102/2
f 791/30/1 946/103/1 706/103/1 551/30/1
f 947/101/2 793/30/2 553/30/2 707/101/2
f 795/35/1 948/102/1 708/102/1 555/35/1
f 949/100/2 797/30/2 557/30/2 709/100/2
f 799/31/1 950/100/1 710/100/1 559/31/1
f 722/2/2 941/99/2 701/99/2 482/2/2
f 942/100/1 724/3/1 484/3/1 702/100/1
f 726/4/2 943/101/2 703/101/2 486/4/2
f 944/102/1 728/4/1 488/4/1 704/102/1
f 730/3/2 945/102/2 705/102/2 490/3/2
f 946/103/1 732/4/1 492/4/1 706/103/1
f 734/7/2 947/101/2 707/101/2 494/7/2
f 948/102/1 736/4/1 496/4/1 708/102/1
f 738/4/2 949/100/2 709/100/2 498/4/2
f 950/100/1 740/4/1 500/4/1 710/100/1
f 782/29/2 951/104/2 711/104/2 542/29/2
f 952/104/1 784/29/1 544/29/1 712/104/1
f 786/29/2 953/104/2 713/104/2 546/29/2
f 954/104/1 788/32/1 548/32/1 714/104/1
f 790/33/2 955/105/2 715/105/2 550/33/2
f 956/104/1 792/29/1 552/29/1 716/104/1
f 794/29/2 957/105/2 717/105/2 554/29/2
f 958/104/1 796/34/1 556/34/1 718/104/1
f 798/29/2 959/104/2 719/104/2 558/29/2
f 960/106/1 800/29/1 560/29/1 720/106/1
f 951/104/2 801/36/2 561/36/2 711/104/2
f 803/39/1 952/104/1 712/104/1 563/39/1
f 953/104/2 805/39/2 565/39/2 713/104/2
f 807/41/1 954/104/1 714/104/1 567/41/1
f 955/105/2 809/36/2 569/36/2 715/105/2
f 811/36/1 956/104/1 716/104/1 571/36/1
f 957/105/2 813/36/2 573/36/2 717/105/2
f 815/44/1 958/104/1 718/104/1 575/44/1
f 959/104/2 817/36/2 577/36/2 719/104/2
f 819/45/1 960/106/1 720/106/1 579/45/1
