# Blender 5.2.0 LTS
# www.blender.org
mtllib ab.mtl
o Cube.029
v 95.455292 12.848813 -1.039858
v 95.039856 12.848813 -1.455294
v 95.455292 12.758196 -1.039858
v 95.039856 12.758196 -1.455294
v 95.455292 12.425301 -1.039858
v 95.039856 12.425301 -1.455294
v 95.455292 12.334684 -1.039858
v 95.039856 12.334684 -1.455294
v 95.455292 12.001789 -1.039858
v 95.039856 12.001789 -1.455294
v 95.455292 11.911173 -1.039858
v 95.039856 11.911173 -1.455294
v 95.455292 11.578278 -1.039858
v 95.039856 11.578278 -1.455294
v 95.455292 11.487660 -1.039858
v 95.039856 11.487661 -1.455294
v 95.455292 11.154765 -1.039858
v 95.039856 11.154766 -1.455294
v 95.455292 11.064149 -1.039858
v 95.039856 11.064149 -1.455294
v 95.666512 12.848813 0.528151
v 95.666512 12.848813 -0.528151
v 95.666512 12.758196 0.528151
v 95.666512 12.758196 -0.528151
v 95.666512 12.425301 0.528151
v 95.666512 12.425301 -0.528151
v 95.666512 12.334684 0.528151
v 95.666512 12.334684 -0.528151
v 95.666512 12.001789 0.528151
v 95.666512 12.001789 -0.528151
v 95.666512 11.911173 0.528151
v 95.666512 11.911173 -0.528151
v 95.666512 11.578278 0.528151
v 95.666512 11.578278 -0.528151
v 95.666512 11.487660 0.528151
v 95.666512 11.487661 -0.528151
v 95.666512 11.154765 0.528151
v 95.666512 11.154766 -0.528151
v 95.666512 11.064149 0.528151
v 95.666512 11.064149 -0.528151
v 95.039856 12.848813 1.455294
v 95.455292 12.848813 1.039858
v 95.039856 12.758196 1.455294
v 95.455292 12.758196 1.039858
v 95.039856 12.425301 1.455294
v 95.455292 12.425301 1.039858
v 95.039856 12.334684 1.455294
v 95.455292 12.334684 1.039858
v 95.039856 12.001789 1.455294
v 95.455292 12.001789 1.039858
v 95.039856 11.911173 1.455294
v 95.455292 11.911173 1.039858
v 95.039856 11.578278 1.455294
v 95.455292 11.578278 1.039858
v 95.039856 11.487660 1.455294
v 95.455292 11.487661 1.039858
v 95.039856 11.154765 1.455294
v 95.455292 11.154766 1.039858
v 95.039856 11.064149 1.455294
v 95.455292 11.064149 1.039858
v 94.528152 12.848813 -1.666510
v 93.471848 12.848813 -1.666510
v 94.528152 12.758196 -1.666510
v 93.471848 12.758196 -1.666510
v 94.528152 12.425301 -1.666510
v 93.471848 12.425301 -1.666510
v 94.528152 12.334684 -1.666510
v 93.471848 12.334684 -1.666510
v 94.528152 12.001789 -1.666510
v 93.471848 12.001789 -1.666510
v 94.528152 11.911173 -1.666510
v 93.471848 11.911173 -1.666510
v 94.528152 11.578278 -1.666510
v 93.471848 11.578278 -1.666510
v 94.528152 11.487660 -1.666510
v 93.471848 11.487661 -1.666510
v 94.528152 11.154765 -1.666510
v 93.471848 11.154766 -1.666510
v 94.528152 11.064149 -1.666510
v 93.471848 11.064149 -1.666510
v 92.960144 12.848813 -1.455294
v 92.544708 12.848813 -1.039858
v 92.960144 12.758196 -1.455294
v 92.544708 12.758196 -1.039858
v 92.960144 12.425301 -1.455294
v 92.544708 12.425301 -1.039858
v 92.960144 12.334684 -1.455294
v 92.544708 12.334684 -1.039858
v 92.960144 12.001789 -1.455294
v 92.544708 12.001789 -1.039858
v 92.960144 11.911173 -1.455294
v 92.544708 11.911173 -1.039858
v 92.960144 11.578278 -1.455294
v 92.544708 11.578278 -1.039858
v 92.960144 11.487660 -1.455294
v 92.544708 11.487661 -1.039858
v 92.960144 11.154765 -1.455294
v 92.544708 11.154766 -1.039858
v 92.960144 11.064149 -1.455294
v 92.544708 11.064149 -1.039858
v 93.471848 12.848813 1.666510
v 94.528152 12.848813 1.666510
v 93.471848 12.758196 1.666510
v 94.528152 12.758196 1.666510
v 93.471848 12.425301 1.666510
v 94.528152 12.425301 1.666510
v 93.471848 12.334684 1.666510
v 94.528152 12.334684 1.666510
v 93.471848 12.001789 1.666510
v 94.528152 12.001789 1.666510
v 93.471848 11.911173 1.666510
v 94.528152 11.911173 1.666510
v 93.471848 11.578278 1.666510
v 94.528152 11.578278 1.666510
v 93.471848 11.487660 1.666510
v 94.528152 11.487661 1.666510
v 93.471848 11.154765 1.666510
v 94.528152 11.154766 1.666510
v 93.471848 11.064149 1.666510
v 94.528152 11.064149 1.666510
v 92.333488 12.848813 -0.528151
v 92.333488 12.848813 0.528151
v 92.333488 12.758196 -0.528151
v 92.333488 12.758196 0.528151
v 92.333488 12.425301 -0.528151
v 92.333488 12.425301 0.528151
v 92.333488 12.334684 -0.528151
v 92.333488 12.334684 0.528151
v 92.333488 12.001789 -0.528151
v 92.333488 12.001789 0.528151
v 92.333488 11.911173 -0.528151
v 92.333488 11.911173 0.528151
v 92.333488 11.578278 -0.528151
v 92.333488 11.578278 0.528151
v 92.333488 11.487660 -0.528151
v 92.333488 11.487661 0.528151
v 92.333488 11.154765 -0.528151
v 92.333488 11.154766 0.528151
v 92.333488 11.064149 -0.528151
v 92.333488 11.064149 0.528151
v 92.544708 12.848813 1.039858
v 92.960144 12.848813 1.455294
v 92.544708 12.758196 1.039858
v 92.960144 12.758196 1.455294
v 92.544708 12.425301 1.039858
v 92.960144 12.425301 1.455294
v 92.544708 12.334684 1.039858
v 92.960144 12.334684 1.455294
v 92.544708 12.001789 1.039858
v 92.960144 12.001789 1.455294
v 92.544708 11.911173 1.039858
v 92.960144 11.911173 1.455294
v 92.544708 11.578278 1.039858
v 92.960144 11.578278 1.455294
v 92.544708 11.487660 1.039858
v 92.960144 11.487661 1.455294
v 92.544708 11.154765 1.039858
v 92.960144 11.154766 1.455294
v 92.544708 11.064149 1.039858
v 92.960144 11.064149 1.455294
v 92.385902 12.848813 0.806459
v 92.385902 12.758196 0.806459
v 92.385902 12.425301 0.806459
v 92.385902 12.334684 0.806459
v 92.385902 12.001789 0.806459
v 92.385902 11.911173 0.806459
v 92.385902 11.578278 0.806459
v 92.385902 11.487660 0.806459
v 92.385902 11.154765 0.806459
v 92.385902 11.064149 0.806459
v 92.385902 12.848813 -0.806459
v 92.385902 12.758196 -0.806459
v 92.385902 12.425301 -0.806459
v 92.385902 12.334684 -0.806459
v 92.385902 12.001789 -0.806459
v 92.385902 11.911173 -0.806459
v 92.385902 11.578278 -0.806459
v 92.385902 11.487661 -0.806459
v 92.385902 11.154766 -0.806459
v 92.385902 11.064149 -0.806459
v 95.614098 12.848813 -0.806459
v 95.614098 12.758196 -0.806459
v 95.614098 12.425301 -0.806459
v 95.614098 12.334684 -0.806459
v 95.614098 12.001789 -0.806459
v 95.614098 11.911173 -0.806459
v 95.614098 11.578278 -0.806459
v 95.614098 11.487660 -0.806459
v 95.614098 11.154765 -0.806459
v 95.614098 11.064149 -0.806459
v 93.193542 12.848813 1.614100
v 93.193542 12.758196 1.614100
v 93.193542 12.425301 1.614100
v 93.193542 12.334684 1.614100
v 93.193542 12.001789 1.614100
v 93.193542 11.911173 1.614100
v 93.193542 11.578278 1.614100
v 93.193542 11.487660 1.614100
v 93.193542 11.154765 1.614100
v 93.193542 11.064149 1.614100
v 94.806458 12.848813 1.614100
v 94.806458 12.758196 1.614100
v 94.806458 12.425301 1.614100
v 94.806458 12.334684 1.614100
v 94.806458 12.001789 1.614100
v 94.806458 11.911173 1.614100
v 94.806458 11.578278 1.614100
v 94.806458 11.487660 1.614100
v 94.806458 11.154765 1.614100
v 94.806458 11.064149 1.614100
v 95.614098 12.848813 0.806459
v 95.614098 12.758196 0.806459
v 95.614098 12.425301 0.806459
v 95.614098 12.334684 0.806459
v 95.614098 12.001789 0.806459
v 95.614098 11.911173 0.806459
v 95.614098 11.578278 0.806459
v 95.614098 11.487661 0.806459
v 95.614098 11.154766 0.806459
v 95.614098 11.064149 0.806459
v 94.806458 12.848813 -1.614100
v 94.806458 12.758196 -1.614100
v 94.806458 12.425301 -1.614100
v 94.806458 12.334684 -1.614100
v 94.806458 12.001789 -1.614100
v 94.806458 11.911173 -1.614100
v 94.806458 11.578278 -1.614100
v 94.806458 11.487660 -1.614100
v 94.806458 11.154765 -1.614100
v 94.806458 11.064149 -1.614100
v 93.193542 12.848813 -1.614100
v 93.193542 12.758196 -1.614100
v 93.193542 12.425301 -1.614100
v 93.193542 12.334684 -1.614100
v 93.193542 12.001789 -1.614100
v 93.193542 11.911173 -1.614100
v 93.193542 11.578278 -1.614100
v 93.193542 11.487661 -1.614100
v 93.193542 11.154766 -1.614100
v 93.193542 11.064149 -1.614100
vn 0.7071 -0.0000 -0.7071
vn 1.0000 -0.0000 -0.0000
vn 0.7071 -0.0000 0.7071
vn -0.0000 -0.0000 -1.0000
vn -0.7071 -0.0000 -0.7071
vn -0.0000 -0.0000 1.0000
vn -1.0000 -0.0000 -0.0000
vn -0.7071 -0.0000 0.7071
vn -0.8268 -0.0000 0.5625
vn -0.9827 -0.0000 0.1851
vn -0.8268 -0.0000 -0.5625
vn -0.9827 -0.0000 -0.1851
vn 0.8268 -0.0000 -0.5625
vn 0.9827 -0.0000 -0.1851
vn -0.1851 -0.0000 0.9827
vn -0.5625 -0.0000 0.8268
vn 0.5625 -0.0000 0.8268
vn 0.1851 -0.0000 0.9827
vn 0.8268 -0.0000 0.5625
vn 0.9827 -0.0000 0.1851
vn 0.1851 -0.0000 -0.9827
vn 0.5625 -0.0000 -0.8268
vn -0.1851 -0.0000 -0.9827
vn -0.5625 -0.0000 -0.8268
vt 0.640697 0.484017
vt 0.630137 0.536816
vt 0.640697 0.484017
vt 0.640697 0.484017
vt 0.630137 0.536816
vt 0.630137 0.536816
vt 0.640697 0.484017
vt 0.630137 0.536816
vt 0.625000 0.584429
vt 0.625000 0.665571
vt 0.625000 0.665571
vt 0.625000 0.584429
vt 0.625000 0.584429
vt 0.625000 0.665571
vt 0.625000 0.584429
vt 0.630137 0.713184
vt 0.640697 0.765983
vt 0.640697 0.765983
vt 0.630137 0.713184
vt 0.640697 0.765983
vt 0.640697 0.765983
vt 0.630137 0.713184
vt 0.640697 0.765983
vt 0.630137 0.713184
vt 0.640697 0.765983
vt 0.640697 0.765983
vt 0.630137 0.713184
vt 0.783261 0.492690
vt 0.653143 0.443714
vt 0.653143 0.443714
vt 0.653143 0.443714
vt 0.783261 0.492690
vt 0.783261 0.492690
vt 0.653143 0.443714
vt 0.783261 0.492690
vt 0.859590 0.547090
vt 0.827910 0.515410
vt 0.827910 0.515410
vt 0.859590 0.547090
vt 0.827910 0.515410
vt 0.859590 0.547090
vt 0.859590 0.547090
vt 0.827910 0.515410
vt 0.859590 0.547090
vt 0.827910 0.515410
vt 0.653143 0.806286
vt 0.783261 0.757310
vt 0.783261 0.757309
vt 0.653143 0.806286
vt 0.653143 0.806286
vt 0.653143 0.806286
vt 0.653143 0.806286
vt 0.875000 0.665571
vt 0.875000 0.584429
vt 0.875000 0.665571
vt 0.875000 0.584429
vt 0.875000 0.584429
vt 0.875000 0.665571
vt 0.875000 0.665571
vt 0.875000 0.584429
vt 0.875000 0.584429
vt 0.875000 0.665571
vt 0.827910 0.734590
vt 0.859590 0.702910
vt 0.827910 0.734590
vt 0.827910 0.734590
vt 0.827910 0.734590
vt 0.827910 0.734590
vt 0.859590 0.702910
vt 0.827910 0.734590
vt 0.827910 0.734590
vt 0.859590 0.702910
vt 0.827910 0.734590
vt 0.827910 0.734590
vt 0.871032 0.685942
vt 0.871032 0.685942
vt 0.871032 0.685942
vt 0.871032 0.685942
vt 0.871032 0.685942
vt 0.871032 0.685942
vt 0.871032 0.685942
vt 0.871032 0.564058
vt 0.625857 0.562712
vt 0.625857 0.562712
vt 0.625857 0.562712
vt 0.625857 0.562712
vt 0.810089 0.746894
vt 0.810089 0.746894
vt 0.810089 0.746894
vt 0.810089 0.746894
vt 0.810089 0.746894
vt 0.647103 0.789613
vt 0.647103 0.789613
vt 0.647103 0.789613
vt 0.625857 0.687288
vt 0.625857 0.687288
vt 0.625857 0.687288
vt 0.625857 0.687288
vt 0.647103 0.460387
vt 0.647103 0.460387
vt 0.647103 0.460387
vt 0.647103 0.460387
vt 0.647103 0.460387
vt 0.810089 0.503106
vt 0.810090 0.503106
vt 0.810090 0.503106
s 0
usemtl Material.040
f 2/1/1 1/2/1 3/2/1 4/3/1
f 6/4/1 5/2/1 7/5/1 8/4/1
f 10/3/1 9/6/1 11/2/1 12/4/1
f 14/7/1 13/6/1 15/8/1 16/4/1
f 18/4/1 17/6/1 19/2/1 20/4/1
f 22/9/2 21/10/2 23/10/2 24/9/2
f 26/9/2 25/10/2 27/11/2 28/12/2
f 30/13/2 29/11/2 31/10/2 32/9/2
f 34/9/2 33/14/2 35/10/2 36/15/2
f 38/9/2 37/11/2 39/10/2 40/15/2
f 42/16/3 41/17/3 43/18/3 44/19/3
f 46/16/3 45/20/3 47/21/3 48/22/3
f 50/19/3 49/23/3 51/23/3 52/24/3
f 54/16/3 53/25/3 55/18/3 56/16/3
f 58/16/3 57/26/3 59/20/3 60/27/3
f 62/28/4 61/29/4 63/30/4 64/28/4
f 66/28/4 65/31/4 67/29/4 68/32/4
f 70/33/4 69/30/4 71/30/4 72/28/4
f 74/28/4 73/30/4 75/34/4 76/35/4
f 78/28/4 77/30/4 79/31/4 80/28/4
f 82/36/5 81/37/5 83/38/5 84/39/5
f 86/36/5 85/38/5 87/40/5 88/41/5
f 90/42/5 89/37/5 91/37/5 92/36/5
f 94/42/5 93/37/5 95/43/5 96/44/5
f 98/42/5 97/37/5 99/45/5 100/36/5
f 102/46/6 101/47/6 103/48/6 104/49/6
f 106/49/6 105/47/6 107/47/6 108/49/6
f 110/50/6 109/47/6 111/47/6 112/50/6
f 114/51/6 113/47/6 115/47/6 116/50/6
f 118/52/6 117/47/6 119/47/6 120/51/6
f 122/53/7 121/54/7 123/54/7 124/55/7
f 126/55/7 125/56/7 127/57/7 128/58/7
f 130/59/7 129/60/7 131/56/7 132/55/7
f 134/55/7 133/61/7 135/56/7 136/62/7
f 138/55/7 137/60/7 139/56/7 140/62/7
f 142/63/8 141/64/8 143/64/8 144/65/8
f 146/66/8 145/64/8 147/64/8 148/67/8
f 150/68/8 149/69/8 151/64/8 152/70/8
f 154/71/8 153/72/8 155/64/8 156/73/8
f 158/67/8 157/72/8 159/64/8 160/74/8
f 141/64/9 161/75/9 162/76/9 143/64/9
f 145/64/9 163/77/9 164/76/9 147/64/9
f 149/69/9 165/75/9 166/78/9 151/64/9
f 153/72/9 167/79/9 168/79/9 155/64/9
f 157/72/9 169/80/9 170/81/9 159/64/9
f 161/75/10 122/53/10 124/55/10 162/76/10
f 163/77/10 126/55/10 128/58/10 164/76/10
f 165/75/10 130/59/10 132/55/10 166/78/10
f 167/79/10 134/55/10 136/62/10 168/79/10
f 169/80/10 138/55/10 140/62/10 170/81/10
f 171/82/11 82/36/11 84/39/11 172/82/11
f 173/82/11 86/36/11 88/41/11 174/82/11
f 175/82/11 90/42/11 92/36/11 176/82/11
f 177/82/11 94/42/11 96/44/11 178/82/11
f 179/82/11 98/42/11 100/36/11 180/82/11
f 121/54/12 171/82/12 172/82/12 123/54/12
f 125/56/12 173/82/12 174/82/12 127/57/12
f 129/60/12 175/82/12 176/82/12 131/56/12
f 133/61/12 177/82/12 178/82/12 135/56/12
f 137/60/12 179/82/12 180/82/12 139/56/12
f 1/2/13 181/83/13 182/83/13 3/2/13
f 5/2/13 183/83/13 184/84/13 7/5/13
f 9/6/13 185/83/13 186/83/13 11/2/13
f 13/6/13 187/83/13 188/85/13 15/8/13
f 17/6/13 189/83/13 190/86/13 19/2/13
f 181/83/14 22/9/14 24/9/14 182/83/14
f 183/83/14 26/9/14 28/12/14 184/84/14
f 185/83/14 30/13/14 32/9/14 186/83/14
f 187/83/14 34/9/14 36/15/14 188/85/14
f 189/83/14 38/9/14 40/15/14 190/86/14
f 101/47/15 191/87/15 192/88/15 103/48/15
f 105/47/15 193/89/15 194/87/15 107/47/15
f 109/47/15 195/90/15 196/89/15 111/47/15
f 113/47/15 197/91/15 198/91/15 115/47/15
f 117/47/15 199/91/15 200/91/15 119/47/15
f 191/87/16 142/63/16 144/65/16 192/88/16
f 193/89/16 146/66/16 148/67/16 194/87/16
f 195/90/16 150/68/16 152/70/16 196/89/16
f 197/91/16 154/71/16 156/73/16 198/91/16
f 199/91/16 158/67/16 160/74/16 200/91/16
f 41/17/17 201/92/17 202/93/17 43/18/17
f 45/20/17 203/94/17 204/92/17 47/21/17
f 49/23/17 205/94/17 206/93/17 51/23/17
f 53/25/17 207/94/17 208/94/17 55/18/17
f 57/26/17 209/93/17 210/93/17 59/20/17
f 201/92/18 102/46/18 104/49/18 202/93/18
f 203/94/18 106/49/18 108/49/18 204/92/18
f 205/94/18 110/50/18 112/50/18 206/93/18
f 207/94/18 114/51/18 116/50/18 208/94/18
f 209/93/18 118/52/18 120/51/18 210/93/18
f 211/95/19 42/16/19 44/19/19 212/95/19
f 213/96/19 46/16/19 48/22/19 214/96/19
f 215/97/19 50/19/19 52/24/19 216/95/19
f 217/98/19 54/16/19 56/16/19 218/95/19
f 219/95/19 58/16/19 60/27/19 220/95/19
f 21/10/20 211/95/20 212/95/20 23/10/20
f 25/10/20 213/96/20 214/96/20 27/11/20
f 29/11/20 215/97/20 216/95/20 31/10/20
f 33/14/20 217/98/20 218/95/20 35/10/20
f 37/11/20 219/95/20 220/95/20 39/10/20
f 61/29/21 221/99/21 222/100/21 63/30/21
f 65/31/21 223/101/21 224/102/21 67/29/21
f 69/30/21 225/102/21 226/103/21 71/30/21
f 73/30/21 227/101/21 228/102/21 75/34/21
f 77/30/21 229/100/21 230/100/21 79/31/21
f 221/99/22 2/1/22 4/3/22 222/100/22
f 223/101/22 6/4/22 8/4/22 224/102/22
f 225/102/22 10/3/22 12/4/22 226/103/22
f 227/101/22 14/7/22 16/4/22 228/102/22
f 229/100/22 18/4/22 20/4/22 230/100/22
f 231/104/23 62/28/23 64/28/23 232/104/23
f 233/104/23 66/28/23 68/32/23 234/104/23
f 235/105/23 70/33/23 72/28/23 236/104/23
f 237/105/23 74/28/23 76/35/23 238/104/23
f 239/104/23 78/28/23 80/28/23 240/106/23
f 81/37/24 231/104/24 232/104/24 83/38/24
f 85/38/24 233/104/24 234/104/24 87/40/24
f 89/37/24 235/105/24 236/104/24 91/37/24
f 93/37/24 237/105/24 238/104/24 95/43/24
f 97/37/24 239/104/24 240/106/24 99/45/24
