# Blender 5.2.0 LTS
# www.blender.org
mtllib af.mtl
o Cube.026
v 93.893280 8.609385 -1.547580
v 93.893349 8.613120 -1.583463
v 93.942436 8.642060 -1.544090
v 93.942497 8.645796 -1.579973
v 94.140450 8.560507 -1.552223
v 94.140511 8.564242 -1.588107
v 94.152000 8.502829 -1.558207
v 94.152061 8.506565 -1.594090
v 94.140480 8.445149 -1.564233
v 94.140541 8.448885 -1.600116
v 94.107643 8.396250 -1.569383
v 94.107704 8.399985 -1.605266
v 94.058487 8.363573 -1.572873
v 94.058556 8.367309 -1.608757
v 94.000420 8.653538 -1.542790
v 94.000488 8.657274 -1.578674
v 93.860512 8.564219 -1.588614
v 93.860443 8.560484 -1.552730
v 93.848991 8.506540 -1.594639
v 93.848923 8.502805 -1.558756
v 93.860542 8.448863 -1.600623
v 93.860474 8.445127 -1.564740
v 93.893402 8.399968 -1.605654
v 93.893341 8.396233 -1.569771
v 93.942574 8.367300 -1.608967
v 93.942513 8.363564 -1.573084
v 94.107651 8.613137 -1.583076
v 94.107582 8.609402 -1.547192
v 94.058479 8.645805 -1.579763
v 94.058418 8.642070 -1.543880
v 94.000565 8.355831 -1.610056
v 94.000504 8.352096 -1.574173
v 95.547577 8.609385 -0.106719
v 95.583466 8.613120 -0.106654
v 95.544090 8.642060 -0.057566
v 95.579971 8.645796 -0.057501
v 95.552223 8.560507 0.140447
v 95.588104 8.564242 0.140512
v 95.558205 8.502829 0.151998
v 95.594093 8.506565 0.152062
v 95.564232 8.445149 0.140478
v 95.600113 8.448885 0.140543
v 95.569382 8.396250 0.107642
v 95.605263 8.399985 0.107707
v 95.572876 8.363573 0.058490
v 95.608757 8.367309 0.058554
v 95.542793 8.653538 0.000421
v 95.578674 8.657274 0.000486
v 95.588615 8.564220 -0.139490
v 95.552727 8.560484 -0.139554
v 95.594643 8.506540 -0.151009
v 95.558754 8.502805 -0.151074
v 95.600624 8.448863 -0.139459
v 95.564743 8.445127 -0.139523
v 95.605652 8.399968 -0.106597
v 95.569771 8.396233 -0.106661
v 95.608963 8.367300 -0.057426
v 95.573082 8.363564 -0.057491
v 95.583076 8.613137 0.107650
v 95.547195 8.609402 0.107585
v 95.579765 8.645805 0.058479
v 95.543877 8.642070 0.058415
v 95.610054 8.355831 0.000567
v 95.574173 8.352096 0.000502
v 94.106720 8.609385 1.547580
v 94.106651 8.613120 1.583463
v 94.057564 8.642060 1.544090
v 94.057503 8.645796 1.579973
v 93.859550 8.560507 1.552223
v 93.859489 8.564242 1.588107
v 93.848000 8.502829 1.558207
v 93.847939 8.506565 1.594090
v 93.859520 8.445149 1.564233
v 93.859459 8.448885 1.600116
v 93.892357 8.396250 1.569383
v 93.892296 8.399985 1.605266
v 93.941513 8.363573 1.572873
v 93.941444 8.367309 1.608757
v 93.999580 8.653538 1.542790
v 93.999512 8.657274 1.578674
v 94.139488 8.564220 1.588614
v 94.139557 8.560484 1.552730
v 94.151009 8.506540 1.594639
v 94.151077 8.502805 1.558756
v 94.139458 8.448863 1.600623
v 94.139526 8.445127 1.564740
v 94.106598 8.399968 1.605654
v 94.106659 8.396233 1.569771
v 94.057426 8.367300 1.608967
v 94.057487 8.363564 1.573084
v 93.892349 8.613137 1.583076
v 93.892418 8.609402 1.547192
v 93.941521 8.645805 1.579763
v 93.941582 8.642070 1.543880
v 93.999435 8.355831 1.610056
v 93.999496 8.352096 1.574173
v 92.452423 8.609385 0.106719
v 92.416534 8.613120 0.106654
v 92.455910 8.642060 0.057566
v 92.420029 8.645796 0.057501
v 92.447777 8.560507 -0.140447
v 92.411896 8.564242 -0.140512
v 92.441795 8.502829 -0.151998
v 92.405907 8.506565 -0.152062
v 92.435768 8.445149 -0.140478
v 92.399887 8.448885 -0.140543
v 92.430618 8.396250 -0.107643
v 92.394737 8.399985 -0.107707
v 92.427124 8.363573 -0.058490
v 92.391243 8.367309 -0.058554
v 92.457207 8.653538 -0.000421
v 92.421326 8.657274 -0.000486
v 92.411385 8.564219 0.139490
v 92.447273 8.560484 0.139554
v 92.405357 8.506540 0.151009
v 92.441246 8.502805 0.151074
v 92.399376 8.448863 0.139458
v 92.435257 8.445127 0.139523
v 92.394348 8.399968 0.106597
v 92.430229 8.396233 0.106661
v 92.391037 8.367300 0.057426
v 92.426918 8.363564 0.057491
v 92.416924 8.613137 -0.107650
v 92.452805 8.609402 -0.107585
v 92.420235 8.645805 -0.058479
v 92.456123 8.642070 -0.058415
v 92.389946 8.355831 -0.000567
v 92.425827 8.352096 -0.000503
v 93.841621 8.572000 -1.587838
v 93.878883 8.627497 -1.581993
v 93.841560 8.568264 -1.551954
v 93.878822 8.623761 -1.546109
v 93.934669 8.664581 -1.578031
v 93.934608 8.660845 -1.542148
v 93.828545 8.506538 -1.594676
v 93.828484 8.502803 -1.558793
v 93.841660 8.441080 -1.601467
v 93.841591 8.437345 -1.565584
v 93.878952 8.385589 -1.607177
v 93.878891 8.381853 -1.571294
v 93.934753 8.348514 -1.610937
v 93.934692 8.344778 -1.575053
v 94.122101 8.627516 -1.581553
v 94.159393 8.572025 -1.587262
v 94.122040 8.623780 -1.545669
v 94.159332 8.568290 -1.551379
v 94.066299 8.664592 -1.577793
v 94.066231 8.660856 -1.541910
v 94.172508 8.506566 -1.594054
v 94.172440 8.502831 -1.558170
v 94.159431 8.441106 -1.600892
v 94.159370 8.437370 -1.565009
v 94.122169 8.385609 -1.606737
v 94.122101 8.381873 -1.570854
v 94.066383 8.348524 -1.610698
v 94.066315 8.344789 -1.574815
v 94.000481 8.677607 -1.576557
v 94.000420 8.673871 -1.540673
v 94.000572 8.335498 -1.612173
v 94.000511 8.331762 -1.576290
v 95.587837 8.572000 -0.158379
v 95.581993 8.627497 -0.121113
v 95.551956 8.568264 -0.158443
v 95.546112 8.623761 -0.121178
v 95.578033 8.664581 -0.065329
v 95.542145 8.660846 -0.065394
v 95.594673 8.506538 -0.171452
v 95.558792 8.502803 -0.171517
v 95.601471 8.441080 -0.158343
v 95.565582 8.437345 -0.158408
v 95.607178 8.385589 -0.121048
v 95.571297 8.381853 -0.121113
v 95.610939 8.348514 -0.065244
v 95.575050 8.344778 -0.065309
v 95.581551 8.627516 0.122101
v 95.587265 8.572025 0.159397
v 95.545670 8.623780 0.122037
v 95.551376 8.568290 0.159332
v 95.577789 8.664592 0.066297
v 95.541908 8.660856 0.066233
v 95.594055 8.506566 0.172505
v 95.558167 8.502831 0.172441
v 95.600891 8.441106 0.159432
v 95.565010 8.437370 0.159367
v 95.606735 8.385609 0.122166
v 95.570854 8.381873 0.122102
v 95.610695 8.348524 0.066382
v 95.574814 8.344789 0.066318
v 95.576553 8.677608 0.000481
v 95.540672 8.673871 0.000416
v 95.612175 8.335498 0.000573
v 95.576286 8.331762 0.000508
v 94.158379 8.572000 1.587838
v 94.121117 8.627497 1.581993
v 94.158440 8.568264 1.551954
v 94.121178 8.623761 1.546109
v 94.065331 8.664581 1.578031
v 94.065392 8.660846 1.542148
v 94.171455 8.506538 1.594676
v 94.171516 8.502803 1.558793
v 94.158340 8.441080 1.601467
v 94.158409 8.437345 1.565584
v 94.121048 8.385589 1.607177
v 94.121109 8.381853 1.571294
v 94.065247 8.348514 1.610937
v 94.065308 8.344778 1.575053
v 93.877899 8.627516 1.581553
v 93.840607 8.572025 1.587262
v 93.877960 8.623780 1.545669
v 93.840668 8.568290 1.551379
v 93.933701 8.664592 1.577793
v 93.933769 8.660856 1.541910
v 93.827492 8.506566 1.594054
v 93.827560 8.502831 1.558170
v 93.840569 8.441106 1.600892
v 93.840630 8.437370 1.565009
v 93.877831 8.385609 1.606737
v 93.877899 8.381873 1.570854
v 93.933617 8.348524 1.610698
v 93.933685 8.344789 1.574815
v 93.999519 8.677608 1.576557
v 93.999580 8.673871 1.540673
v 93.999428 8.335498 1.612173
v 93.999489 8.331762 1.576290
v 92.412163 8.572000 0.158379
v 92.418007 8.627497 0.121113
v 92.448044 8.568264 0.158443
v 92.453888 8.623761 0.121178
v 92.421967 8.664581 0.065329
v 92.457855 8.660845 0.065394
v 92.405327 8.506538 0.171452
v 92.441208 8.502803 0.171517
v 92.398529 8.441080 0.158343
v 92.434418 8.437345 0.158408
v 92.392822 8.385590 0.121048
v 92.428703 8.381853 0.121113
v 92.389061 8.348514 0.065244
v 92.424950 8.344778 0.065309
v 92.418449 8.627516 -0.122101
v 92.412735 8.572025 -0.159397
v 92.454330 8.623780 -0.122037
v 92.448624 8.568290 -0.159332
v 92.422211 8.664592 -0.066298
v 92.458092 8.660856 -0.066233
v 92.405945 8.506566 -0.172505
v 92.441833 8.502831 -0.172441
v 92.399109 8.441106 -0.159432
v 92.434990 8.437370 -0.159367
v 92.393265 8.385609 -0.122166
v 92.429146 8.381873 -0.122102
v 92.389305 8.348524 -0.066383
v 92.425186 8.344789 -0.066318
v 92.423447 8.677608 -0.000481
v 92.459328 8.673871 -0.000416
v 92.387825 8.335498 -0.000573
v 92.423714 8.331762 -0.000508
v 93.841614 8.571347 -1.581574
v 93.878876 8.626844 -1.575729
v 93.841568 8.568915 -1.558218
v 93.878830 8.624413 -1.552373
v 93.934662 8.663929 -1.571768
v 93.934616 8.661497 -1.548412
v 93.828537 8.505887 -1.588413
v 93.828491 8.503455 -1.565057
v 93.841644 8.440428 -1.595204
v 93.841606 8.437996 -1.571848
v 93.878937 8.384937 -1.600914
v 93.878899 8.382505 -1.577558
v 93.934746 8.347861 -1.604673
v 93.934700 8.345429 -1.581317
v 94.122093 8.626864 -1.575289
v 94.159386 8.571373 -1.580999
v 94.122047 8.624433 -1.551933
v 94.159340 8.568941 -1.557643
v 94.066284 8.663939 -1.571530
v 94.066246 8.661508 -1.548173
v 94.172493 8.505915 -1.587790
v 94.172455 8.503483 -1.564434
v 94.159424 8.440454 -1.594629
v 94.159378 8.438022 -1.571272
v 94.122154 8.384956 -1.600473
v 94.122116 8.382524 -1.577117
v 94.066368 8.347872 -1.604435
v 94.066330 8.345441 -1.581079
v 94.000473 8.676955 -1.570293
v 94.000427 8.674523 -1.546937
v 94.000565 8.334846 -1.605909
v 94.000519 8.332415 -1.582553
v 95.581573 8.571347 -0.158390
v 95.575729 8.626844 -0.121125
v 95.558220 8.568916 -0.158432
v 95.552376 8.624413 -0.121167
v 95.571770 8.663929 -0.065341
v 95.548409 8.661497 -0.065383
v 95.588409 8.505887 -0.171463
v 95.565056 8.503455 -0.171505
v 95.595207 8.440428 -0.158355
v 95.571846 8.437997 -0.158397
v 95.600914 8.384937 -0.121060
v 95.577560 8.382505 -0.121102
v 95.604675 8.347861 -0.065256
v 95.581314 8.345430 -0.065298
v 95.575287 8.626864 0.122090
v 95.581001 8.571373 0.159385
v 95.551933 8.624433 0.122048
v 95.557640 8.568941 0.159343
v 95.571533 8.663939 0.066286
v 95.548172 8.661508 0.066244
v 95.587791 8.505915 0.172494
v 95.564430 8.503483 0.172452
v 95.594627 8.440454 0.159421
v 95.571274 8.438022 0.159378
v 95.600471 8.384956 0.122155
v 95.577118 8.382524 0.122113
v 95.604431 8.347872 0.066371
v 95.581078 8.345441 0.066329
v 95.570290 8.676955 0.000469
v 95.546936 8.674523 0.000427
v 95.605911 8.334846 0.000561
v 95.582550 8.332415 0.000519
v 94.158386 8.571347 1.581574
v 94.121124 8.626844 1.575729
v 94.158432 8.568916 1.558218
v 94.121170 8.624413 1.552373
v 94.065338 8.663929 1.571768
v 94.065384 8.661497 1.548412
v 94.171463 8.505887 1.588413
v 94.171509 8.503455 1.565057
v 94.158356 8.440428 1.595204
v 94.158394 8.437997 1.571848
v 94.121056 8.384937 1.600914
v 94.121101 8.382505 1.577558
v 94.065254 8.347861 1.604673
v 94.065300 8.345430 1.581317
v 93.877907 8.626864 1.575289
v 93.840614 8.571373 1.580999
v 93.877953 8.624433 1.551933
v 93.840660 8.568941 1.557643
v 93.933716 8.663939 1.571529
v 93.933754 8.661508 1.548173
v 93.827507 8.505915 1.587790
v 93.827545 8.503483 1.564434
v 93.840576 8.440454 1.594629
v 93.840622 8.438022 1.571272
v 93.877846 8.384956 1.600473
v 93.877884 8.382524 1.577117
v 93.933632 8.347872 1.604435
v 93.933670 8.345441 1.581079
v 93.999527 8.676955 1.570293
v 93.999573 8.674523 1.546937
v 93.999435 8.334846 1.605909
v 93.999481 8.332415 1.582553
v 92.418427 8.571347 0.158390
v 92.424271 8.626844 0.121124
v 92.441780 8.568916 0.158432
v 92.447624 8.624413 0.121167
v 92.428230 8.663929 0.065341
v 92.451591 8.661497 0.065383
v 92.411591 8.505887 0.171463
v 92.434944 8.503455 0.171505
v 92.404793 8.440428 0.158355
v 92.428154 8.437997 0.158397
v 92.399086 8.384937 0.121059
v 92.422440 8.382505 0.121102
v 92.395325 8.347861 0.065256
v 92.418686 8.345430 0.065298
v 92.424713 8.626864 -0.122090
v 92.418999 8.571373 -0.159385
v 92.448067 8.624433 -0.122048
v 92.442360 8.568941 -0.159343
v 92.428467 8.663939 -0.066286
v 92.451828 8.661508 -0.066244
v 92.412209 8.505915 -0.172494
v 92.435570 8.503483 -0.172452
v 92.405373 8.440454 -0.159421
v 92.428726 8.438022 -0.159379
v 92.399529 8.384956 -0.122155
v 92.422882 8.382524 -0.122113
v 92.395569 8.347872 -0.066371
v 92.418922 8.345441 -0.066329
v 92.429710 8.676955 -0.000469
v 92.453064 8.674523 -0.000427
v 92.394089 8.334846 -0.000561
v 92.417450 8.332415 -0.000519
v 93.856133 8.564710 -1.575921
v 93.889992 8.615129 -1.570610
v 93.856117 8.563580 -1.565065
v 93.889977 8.613999 -1.559755
v 93.940674 8.648821 -1.567012
v 93.940651 8.647691 -1.556156
v 93.844261 8.505238 -1.582134
v 93.844238 8.504107 -1.571278
v 93.856171 8.445766 -1.588304
v 93.856148 8.444636 -1.577448
v 93.890053 8.395352 -1.593491
v 93.890030 8.394222 -1.582636
v 93.940750 8.361669 -1.596907
v 93.940727 8.360538 -1.586051
v 94.110954 8.615148 -1.570211
v 94.144836 8.564733 -1.575398
v 94.110939 8.614017 -1.559355
v 94.144821 8.563602 -1.564543
v 94.060257 8.648830 -1.566795
v 94.060242 8.647700 -1.555940
v 94.156746 8.505262 -1.581568
v 94.156731 8.504132 -1.570713
v 94.144875 8.445790 -1.587781
v 94.144852 8.444660 -1.576926
v 94.111015 8.395370 -1.593091
v 94.111000 8.394240 -1.582236
v 94.060333 8.361678 -1.596690
v 94.060318 8.360548 -1.585835
v 94.000465 8.660656 -1.565672
v 94.000443 8.659525 -1.554817
v 94.000549 8.349844 -1.598030
v 94.000526 8.348714 -1.587175
v 95.575920 8.564710 -0.143864
v 95.570610 8.615129 -0.110008
v 95.565063 8.563580 -0.143883
v 95.559753 8.613999 -0.110027
v 95.567009 8.648821 -0.059327
v 95.556160 8.647691 -0.059347
v 95.582130 8.505238 -0.155741
v 95.571281 8.504107 -0.155761
v 95.588303 8.445767 -0.143832
v 95.577446 8.444637 -0.143852
v 95.593491 8.395352 -0.109949
v 95.582634 8.394222 -0.109968
v 95.596909 8.361669 -0.059250
v 95.586052 8.360538 -0.059269
v 95.570213 8.615148 0.110957
v 95.575401 8.564733 0.144840
v 95.559357 8.614017 0.110937
v 95.564545 8.563602 0.144820
v 95.566795 8.648830 0.060258
v 95.555939 8.647700 0.060238
v 95.581566 8.505262 0.156749
v 95.570709 8.504132 0.156730
v 95.587784 8.445790 0.144872
v 95.576927 8.444660 0.144852
v 95.593094 8.395370 0.111016
v 95.582237 8.394240 0.110996
v 95.596687 8.361678 0.060335
v 95.585838 8.360548 0.060316
v 95.565674 8.660656 0.000462
v 95.554817 8.659525 0.000443
v 95.598030 8.349844 0.000546
v 95.587173 8.348714 0.000526
v 94.143867 8.564710 1.575921
v 94.110008 8.615129 1.570610
v 94.143883 8.563580 1.565065
v 94.110023 8.613999 1.559755
v 94.059326 8.648821 1.567012
v 94.059349 8.647691 1.556156
v 94.155739 8.505238 1.582134
v 94.155762 8.504107 1.571278
v 94.143829 8.445767 1.588304
v 94.143852 8.444637 1.577448
v 94.109947 8.395352 1.593491
v 94.109970 8.394222 1.582636
v 94.059250 8.361669 1.596907
v 94.059273 8.360538 1.586051
v 93.889046 8.615148 1.570211
v 93.855164 8.564733 1.575398
v 93.889061 8.614017 1.559355
v 93.855179 8.563602 1.564543
v 93.939743 8.648830 1.566795
v 93.939758 8.647700 1.555940
v 93.843254 8.505262 1.581568
v 93.843269 8.504132 1.570713
v 93.855125 8.445790 1.587781
v 93.855148 8.444660 1.576926
v 93.888985 8.395370 1.593091
v 93.889000 8.394240 1.582236
v 93.939667 8.361678 1.596690
v 93.939682 8.360548 1.585835
v 93.999535 8.660656 1.565672
v 93.999557 8.659525 1.554817
v 93.999451 8.349844 1.598030
v 93.999474 8.348714 1.587175
v 92.424080 8.564710 0.143864
v 92.429390 8.615129 0.110008
v 92.434937 8.563580 0.143883
v 92.440247 8.613999 0.110027
v 92.432991 8.648821 0.059327
v 92.443840 8.647691 0.059347
v 92.417870 8.505238 0.155741
v 92.428719 8.504107 0.155761
v 92.411697 8.445767 0.143832
v 92.422554 8.444637 0.143851
v 92.406509 8.395352 0.109949
v 92.417366 8.394222 0.109968
v 92.403091 8.361669 0.059250
v 92.413948 8.360538 0.059269
v 92.429787 8.615148 -0.110957
v 92.424599 8.564733 -0.144840
v 92.440643 8.614017 -0.110937
v 92.435455 8.563602 -0.144821
v 92.433205 8.648830 -0.060258
v 92.444061 8.647700 -0.060238
v 92.418434 8.505262 -0.156750
v 92.429291 8.504132 -0.156730
v 92.412216 8.445790 -0.144872
v 92.423073 8.444660 -0.144853
v 92.406906 8.395370 -0.111016
v 92.417763 8.394240 -0.110996
v 92.403313 8.361678 -0.060335
v 92.414162 8.360548 -0.060316
v 92.434326 8.660656 -0.000462
v 92.445183 8.659525 -0.000443
v 92.401970 8.349844 -0.000546
v 92.412827 8.348714 -0.000526
vn -0.8316 0.5525 0.0560
vn -0.5558 0.8270 0.0851
vn -0.9808 0.1940 0.0184
vn -0.9807 -0.1941 -0.0220
vn -0.8313 -0.5527 -0.0590
vn -0.5554 -0.8270 -0.0871
vn 0.8313 0.5527 0.0590
vn 0.5554 0.8270 0.0871
vn 0.9807 0.1941 0.0220
vn 0.9808 -0.1940 -0.0184
vn 0.8316 -0.5525 -0.0560
vn 0.5558 -0.8270 -0.0851
vn -0.1954 0.9755 0.1012
vn -0.1948 -0.9755 -0.1019
vn 0.1948 0.9755 0.1019
vn 0.1954 -0.9755 -0.1012
vn -0.0560 0.5525 -0.8316
vn -0.0851 0.8270 -0.5558
vn -0.0184 0.1940 -0.9808
vn 0.0220 -0.1941 -0.9807
vn 0.0590 -0.5526 -0.8313
vn 0.0871 -0.8270 -0.5554
vn -0.0590 0.5527 0.8313
vn -0.0871 0.8270 0.5554
vn -0.0220 0.1941 0.9807
vn 0.0184 -0.1940 0.9808
vn 0.0560 -0.5525 0.8316
vn 0.0851 -0.8270 0.5558
vn -0.1012 0.9755 -0.1954
vn 0.1019 -0.9755 -0.1948
vn -0.1019 0.9755 0.1948
vn 0.1012 -0.9755 0.1953
vn 0.8316 0.5525 -0.0560
vn 0.5558 0.8270 -0.0851
vn 0.9808 0.1940 -0.0184
vn 0.9807 -0.1941 0.0220
vn 0.8313 -0.5526 0.0590
vn 0.5553 -0.8270 0.0871
vn -0.8313 0.5527 -0.0590
vn -0.5553 0.8270 -0.0871
vn -0.9807 0.1941 -0.0220
vn -0.9808 -0.1940 0.0184
vn -0.8316 -0.5525 0.0560
vn -0.5558 -0.8270 0.0851
vn 0.1953 0.9755 -0.1012
vn 0.1948 -0.9755 0.1019
vn -0.1948 0.9755 -0.1019
vn -0.1954 -0.9755 0.1012
vn 0.0560 0.5525 0.8316
vn 0.0851 0.8270 0.5558
vn 0.0184 0.1940 0.9808
vn -0.0220 -0.1941 0.9807
vn -0.0590 -0.5527 0.8313
vn -0.0871 -0.8270 0.5554
vn 0.0590 0.5526 -0.8313
vn 0.0871 0.8270 -0.5554
vn 0.0220 0.1941 -0.9807
vn -0.0184 -0.1940 -0.9808
vn -0.0560 -0.5525 -0.8316
vn -0.0851 -0.8270 -0.5558
vn 0.1012 0.9755 0.1954
vn -0.1019 -0.9755 0.1948
vn 0.1019 0.9755 -0.1948
vn -0.1012 -0.9755 -0.1954
vn 0.0018 0.1036 -0.9946
vn -0.0018 -0.1036 0.9946
vn -0.0018 -0.1035 0.9946
vn 0.0018 0.1035 -0.9946
vn 0.9946 0.1035 0.0018
vn -0.9946 -0.1035 -0.0018
vn 0.9946 0.1036 0.0018
vn -0.9946 -0.1036 -0.0018
vn -0.0018 0.1036 0.9946
vn 0.0018 -0.1036 -0.9946
vn -0.0018 0.1035 0.9946
vn 0.0018 -0.1035 -0.9946
vn -0.9946 0.1035 -0.0018
vn 0.9946 -0.1035 0.0018
vn -0.9946 0.1036 -0.0018
vn 0.9946 -0.1036 0.0018
vn -0.5553 -0.8271 -0.0871
vn 0.5553 0.8270 0.0871
vn 0.0590 -0.5527 -0.8313
vn 0.0871 -0.8270 -0.5553
vn -0.0871 0.8270 0.5553
vn -0.1012 0.9755 -0.1953
vn 0.8313 -0.5527 0.0590
vn 0.5554 -0.8270 0.0871
vn -0.8313 0.5526 -0.0590
vn -0.5553 0.8271 -0.0871
vn -0.0871 -0.8270 0.5553
vn 0.0590 0.5527 -0.8313
vn 0.0871 0.8270 -0.5553
vn 0.1012 0.9755 0.1953
vn -0.1012 -0.9755 -0.1953
vn -0.3153 0.1125 0.9423
vn -0.3120 0.3043 -0.9000
vn -0.2113 0.2160 0.9533
vn -0.2080 0.4078 -0.8891
vn -0.3716 -0.0227 0.9281
vn -0.3683 0.1691 -0.9142
vn -0.3716 -0.1691 0.9129
vn -0.3682 0.0227 -0.9295
vn -0.3152 -0.3043 0.8989
vn -0.3119 -0.1125 -0.9434
vn -0.2111 -0.4078 0.8883
vn -0.2078 -0.2160 -0.9540
vn 0.3119 0.1125 0.9434
vn 0.3152 0.3043 -0.8989
vn 0.2078 0.2160 0.9540
vn 0.2111 0.4078 -0.8883
vn 0.3682 -0.0227 0.9295
vn 0.3716 0.1691 -0.9129
vn 0.3683 -0.1691 0.9142
vn 0.3716 0.0227 -0.9281
vn 0.3120 -0.3043 0.9000
vn 0.3153 -0.1125 -0.9423
vn 0.2080 -0.4078 0.8891
vn 0.2113 -0.2160 -0.9533
vn -0.0753 0.2720 0.9593
vn -0.0720 0.4638 -0.8830
vn -0.0751 -0.4638 0.8827
vn -0.0718 -0.2720 -0.9596
vn 0.0718 0.2720 0.9596
vn 0.0751 0.4638 -0.8827
vn 0.0720 -0.4638 0.8830
vn 0.0753 -0.2720 -0.9593
vn -0.9423 0.1125 -0.3153
vn 0.9000 0.3043 -0.3120
vn -0.9533 0.2160 -0.2113
vn 0.8891 0.4078 -0.2080
vn -0.9281 -0.0227 -0.3716
vn 0.9142 0.1691 -0.3683
vn -0.9129 -0.1691 -0.3716
vn 0.9295 0.0227 -0.3682
vn -0.8989 -0.3043 -0.3152
vn 0.9434 -0.1125 -0.3119
vn -0.8883 -0.4078 -0.2111
vn 0.9540 -0.2160 -0.2078
vn -0.9434 0.1125 0.3119
vn 0.8989 0.3043 0.3152
vn -0.9540 0.2160 0.2078
vn 0.8883 0.4078 0.2111
vn -0.9295 -0.0227 0.3682
vn 0.9129 0.1691 0.3716
vn -0.9142 -0.1691 0.3683
vn 0.9281 0.0227 0.3716
vn -0.9000 -0.3043 0.3120
vn 0.9423 -0.1125 0.3153
vn -0.8891 -0.4078 0.2080
vn 0.9533 -0.2160 0.2113
vn -0.9593 0.2720 -0.0753
vn 0.8830 0.4638 -0.0720
vn -0.8827 -0.4638 -0.0751
vn 0.9596 -0.2720 -0.0718
vn -0.9596 0.2720 0.0718
vn 0.8827 0.4638 0.0751
vn -0.8830 -0.4638 0.0720
vn 0.9593 -0.2720 0.0753
vn 0.3153 0.1125 -0.9423
vn 0.3120 0.3043 0.9000
vn 0.2113 0.2160 -0.9533
vn 0.2080 0.4078 0.8891
vn 0.3716 -0.0227 -0.9281
vn 0.3683 0.1691 0.9142
vn 0.3716 -0.1691 -0.9129
vn 0.3682 0.0227 0.9295
vn 0.3152 -0.3043 -0.8989
vn 0.3119 -0.1125 0.9434
vn 0.2111 -0.4078 -0.8883
vn 0.2078 -0.2160 0.9540
vn -0.3119 0.1125 -0.9434
vn -0.3152 0.3043 0.8989
vn -0.2078 0.2160 -0.9540
vn -0.2111 0.4078 0.8883
vn -0.3682 -0.0227 -0.9295
vn -0.3716 0.1691 0.9129
vn -0.3683 -0.1691 -0.9142
vn -0.3716 0.0227 0.9281
vn -0.3120 -0.3043 -0.9000
vn -0.3153 -0.1125 0.9423
vn -0.2080 -0.4078 -0.8891
vn -0.2113 -0.2160 0.9533
vn 0.0753 0.2720 -0.9593
vn 0.0720 0.4638 0.8830
vn 0.0751 -0.4638 -0.8827
vn 0.0718 -0.2720 0.9596
vn -0.0718 0.2720 -0.9596
vn -0.0751 0.4638 0.8827
vn -0.0720 -0.4638 -0.8830
vn -0.0753 -0.2720 0.9593
vn 0.9423 0.1125 0.3153
vn -0.9000 0.3043 0.3120
vn 0.9533 0.2160 0.2113
vn -0.8891 0.4078 0.2080
vn 0.9281 -0.0227 0.3716
vn -0.9142 0.1691 0.3683
vn 0.9129 -0.1691 0.3716
vn -0.9295 0.0227 0.3682
vn 0.8989 -0.3043 0.3152
vn -0.9434 -0.1125 0.3119
vn 0.8883 -0.4078 0.2111
vn -0.9540 -0.2160 0.2078
vn 0.9434 0.1125 -0.3119
vn -0.8989 0.3043 -0.3152
vn 0.9540 0.2160 -0.2078
vn -0.8883 0.4078 -0.2111
vn 0.9295 -0.0227 -0.3682
vn -0.9129 0.1691 -0.3716
vn 0.9142 -0.1691 -0.3683
vn -0.9281 0.0227 -0.3716
vn 0.9000 -0.3043 -0.3120
vn -0.9423 -0.1125 -0.3153
vn 0.8891 -0.4078 -0.2080
vn -0.9533 -0.2160 -0.2113
vn 0.9593 0.2720 0.0753
vn -0.8830 0.4638 0.0720
vn 0.8827 -0.4638 0.0751
vn -0.9596 -0.2720 0.0718
vn 0.9596 0.2720 -0.0718
vn -0.8827 0.4638 -0.0751
vn 0.8830 -0.4638 -0.0720
vn -0.9593 -0.2720 -0.0753
vt 0.632831 0.364963
vt 0.632831 0.364963
vt 0.632831 0.364963
vt 0.632831 0.364963
vt 0.634296 0.375190
vt 0.632831 0.364963
vt 0.632831 0.364963
vt 0.632831 0.364963
vt 0.634296 0.375190
vt 0.634296 0.375190
vt 0.638689 0.405871
vt 0.638689 0.405871
vt 0.638689 0.405871
vt 0.637225 0.395644
vt 0.637225 0.395644
vt 0.638689 0.405871
vt 0.638690 0.405871
vt 0.638689 0.405871
vt 0.637225 0.395644
vt 0.635760 0.385417
vt 0.635760 0.385417
vt 0.635760 0.385417
vt 0.635760 0.385417
vt 0.625313 0.607468
vt 0.625313 0.607468
vt 0.625313 0.607468
vt 0.625315 0.616234
vt 0.625315 0.616234
vt 0.625313 0.607468
vt 0.625313 0.607468
vt 0.625321 0.642532
vt 0.625321 0.642532
vt 0.625321 0.642532
vt 0.625321 0.642532
vt 0.625319 0.633766
vt 0.625321 0.642532
vt 0.625321 0.642532
vt 0.625321 0.642532
vt 0.625321 0.642532
vt 0.625321 0.642532
vt 0.625319 0.633766
vt 0.625317 0.625000
vt 0.625317 0.625000
vt 0.625317 0.625000
vt 0.625317 0.625000
vt 0.638680 0.844130
vt 0.638680 0.844130
vt 0.638680 0.844130
vt 0.637220 0.854357
vt 0.637220 0.854357
vt 0.638680 0.844130
vt 0.638680 0.844130
vt 0.638680 0.844130
vt 0.638680 0.844130
vt 0.637220 0.854357
vt 0.632840 0.885038
vt 0.632840 0.885038
vt 0.634300 0.874811
vt 0.632840 0.885038
vt 0.632840 0.885038
vt 0.632840 0.885038
vt 0.632840 0.885038
vt 0.632840 0.885038
vt 0.634300 0.874811
vt 0.634300 0.874811
vt 0.635760 0.864584
vt 0.635760 0.864584
vt 0.625313 0.107468
vt 0.625313 0.107468
vt 0.625313 0.107468
vt 0.625315 0.116234
vt 0.625315 0.116234
vt 0.625313 0.107468
vt 0.625313 0.107468
vt 0.625313 0.107468
vt 0.625315 0.116234
vt 0.625315 0.116234
vt 0.625321 0.142532
vt 0.625321 0.142532
vt 0.625321 0.142532
vt 0.625321 0.142532
vt 0.625319 0.133766
vt 0.625319 0.133766
vt 0.625321 0.142532
vt 0.625321 0.142532
vt 0.625321 0.142532
vt 0.625321 0.142532
vt 0.625319 0.133766
vt 0.625319 0.133766
vt 0.625317 0.125000
vt 0.625317 0.125000
s 0
usemtl Material.037
f 386/1/1 385/2/1 387/3/1 388/4/1
f 389/5/2 386/1/2 388/4/2 390/5/2
f 385/2/3 391/6/3 392/6/3 387/3/3
f 391/6/4 393/2/4 394/3/4 392/6/4
f 393/2/5 395/7/5 396/8/5 394/3/5
f 395/7/6 397/9/6 398/10/6 396/8/6
f 400/11/7 399/12/7 401/13/7 402/12/7
f 399/12/8 403/14/8 404/15/8 401/13/8
f 405/16/9 400/11/9 402/12/9 406/17/9
f 407/12/10 405/16/10 406/17/10 408/12/10
f 409/18/11 407/12/11 408/12/11 410/18/11
f 411/19/12 409/18/12 410/18/12 412/14/12
f 413/20/13 389/5/13 390/5/13 414/21/13
f 397/9/14 415/22/14 416/23/14 398/10/14
f 403/14/15 413/20/15 414/21/15 404/15/15
f 415/22/16 411/19/16 412/14/16 416/23/16
f 418/24/17 417/25/17 419/26/17 420/24/17
f 421/27/18 418/24/18 420/24/18 422/28/18
f 417/25/19 423/26/19 424/25/19 419/26/19
f 423/26/20 425/26/20 426/29/20 424/25/20
f 425/26/21 427/30/21 428/26/21 426/29/21
f 427/30/22 429/27/22 430/27/22 428/26/22
f 432/31/23 431/32/23 433/33/23 434/34/23
f 431/32/24 435/35/24 436/35/24 433/33/24
f 437/36/25 432/31/25 434/34/25 438/37/25
f 439/38/26 437/36/26 438/37/26 440/39/26
f 441/40/27 439/38/27 440/39/27 442/38/27
f 443/41/28 441/40/28 442/38/28 444/41/28
f 445/42/29 421/27/29 422/28/29 446/43/29
f 429/27/30 447/44/30 448/45/30 430/27/30
f 435/35/31 445/42/31 446/43/31 436/35/31
f 447/44/32 443/41/32 444/41/32 448/45/32
f 450/46/33 449/47/33 451/47/33 452/48/33
f 453/49/34 450/46/34 452/48/34 454/50/34
f 449/47/35 455/51/35 456/52/35 451/47/35
f 455/51/36 457/48/36 458/53/36 456/52/36
f 457/48/37 459/47/37 460/54/37 458/53/37
f 459/47/38 461/49/38 462/55/38 460/54/38
f 464/56/39 463/57/39 465/56/39 466/56/39
f 463/57/40 467/58/40 468/58/40 465/56/40
f 469/57/41 464/56/41 466/56/41 470/59/41
f 471/60/42 469/57/42 470/59/42 472/61/42
f 473/62/43 471/60/43 472/61/43 474/63/43
f 475/64/44 473/62/44 474/63/44 476/65/44
f 477/66/45 453/49/45 454/50/45 478/66/45
f 461/49/46 479/67/46 480/66/46 462/55/46
f 467/58/47 477/66/47 478/66/47 468/58/47
f 479/67/48 475/64/48 476/65/48 480/66/48
f 482/68/49 481/69/49 483/70/49 484/70/49
f 485/71/50 482/68/50 484/70/50 486/72/50
f 481/69/51 487/73/51 488/74/51 483/70/51
f 487/73/52 489/69/52 490/70/52 488/74/52
f 489/69/53 491/75/53 492/69/53 490/70/53
f 491/75/54 493/76/54 494/77/54 492/69/54
f 496/78/55 495/79/55 497/80/55 498/81/55
f 495/79/56 499/82/56 500/83/56 497/80/56
f 501/84/57 496/78/57 498/81/57 502/85/57
f 503/85/58 501/84/58 502/85/58 504/85/58
f 505/86/59 503/85/59 504/85/59 506/87/59
f 507/88/60 505/86/60 506/87/60 508/89/60
f 509/90/61 485/71/61 486/72/61 510/90/61
f 493/76/62 511/90/62 512/91/62 494/77/62
f 499/82/63 509/90/63 510/90/63 500/83/63
f 511/90/64 507/88/64 508/89/64 512/91/64
f 129/2/65 130/1/65 2/1/65 17/2/65
f 132/4/66 131/3/66 18/3/66 1/4/66
f 130/1/65 133/5/65 4/5/65 2/1/65
f 134/5/67 132/4/67 1/4/67 3/5/67
f 135/6/68 129/2/68 17/2/68 19/6/68
f 131/3/66 136/6/66 20/6/66 18/3/66
f 137/2/68 135/6/68 19/6/68 21/2/68
f 136/6/67 138/3/67 22/3/67 20/6/67
f 139/7/68 137/2/68 21/2/68 23/7/68
f 138/3/67 140/8/67 24/8/67 22/3/67
f 141/9/65 139/7/65 23/7/65 25/9/65
f 140/8/66 142/10/66 26/10/66 24/8/66
f 143/12/68 144/11/68 6/11/68 27/12/68
f 146/12/67 145/13/67 28/13/67 5/12/67
f 147/14/65 143/12/65 27/12/65 29/14/65
f 145/13/66 148/15/66 30/15/66 28/13/66
f 144/11/68 149/16/68 8/16/68 6/11/68
f 150/17/67 146/12/67 5/12/67 7/17/67
f 149/16/68 151/12/68 10/12/68 8/16/68
f 152/12/67 150/17/67 7/17/67 9/12/67
f 151/12/68 153/18/68 12/18/68 10/12/68
f 154/18/66 152/12/66 9/12/66 11/18/66
f 153/18/65 155/19/65 14/19/65 12/18/65
f 156/14/66 154/18/66 11/18/66 13/14/66
f 133/5/68 157/20/68 16/20/68 4/5/68
f 158/21/66 134/5/66 3/5/66 15/21/66
f 159/22/65 141/9/65 25/9/65 31/22/65
f 142/10/67 160/23/67 32/23/67 26/10/67
f 157/20/68 147/14/68 29/14/68 16/20/68
f 148/15/67 158/21/67 15/21/67 30/15/67
f 155/19/65 159/22/65 31/22/65 14/19/65
f 160/23/66 156/14/66 13/14/66 32/23/66
f 161/25/69 162/24/69 34/24/69 49/25/69
f 164/24/70 163/26/70 50/26/70 33/24/70
f 162/24/71 165/27/71 36/27/71 34/24/71
f 166/28/72 164/24/72 33/24/72 35/28/72
f 167/26/69 161/25/69 49/25/69 51/26/69
f 163/26/72 168/25/72 52/25/72 50/26/72
f 169/26/69 167/26/69 51/26/69 53/26/69
f 168/25/70 170/29/70 54/29/70 52/25/70
f 171/30/69 169/26/69 53/26/69 55/30/69
f 170/29/70 172/26/70 56/26/70 54/29/70
f 173/27/69 171/30/69 55/30/69 57/27/69
f 172/26/70 174/27/70 58/27/70 56/26/70
f 175/32/69 176/31/69 38/31/69 59/32/69
f 178/34/70 177/33/70 60/33/70 37/34/70
f 179/35/69 175/32/69 59/32/69 61/35/69
f 177/33/70 180/35/70 62/35/70 60/33/70
f 176/31/69 181/36/69 40/36/69 38/31/69
f 182/37/70 178/34/70 37/34/70 39/37/70
f 181/36/71 183/38/71 42/38/71 40/36/71
f 184/39/70 182/37/70 39/37/70 41/39/70
f 183/38/69 185/40/69 44/40/69 42/38/69
f 186/38/70 184/39/70 41/39/70 43/38/70
f 185/40/69 187/41/69 46/41/69 44/40/69
f 188/41/70 186/38/70 43/38/70 45/41/70
f 165/27/69 189/42/69 48/42/69 36/27/69
f 190/43/72 166/28/72 35/28/72 47/43/72
f 191/44/69 173/27/69 57/27/69 63/44/69
f 174/27/70 192/45/70 64/45/70 58/27/70
f 189/42/71 179/35/71 61/35/71 48/42/71
f 180/35/72 190/43/72 47/43/72 62/35/72
f 187/41/69 191/44/69 63/44/69 46/41/69
f 192/45/70 188/41/70 45/41/70 64/45/70
f 193/47/73 194/46/73 66/46/73 81/47/73
f 196/48/74 195/47/74 82/47/74 65/48/74
f 194/46/73 197/49/73 68/49/73 66/46/73
f 198/50/74 196/48/74 65/48/74 67/50/74
f 199/51/75 193/47/75 81/47/75 83/51/75
f 195/47/74 200/52/74 84/52/74 82/47/74
f 201/48/75 199/51/75 83/51/75 85/48/75
f 200/52/76 202/53/76 86/53/76 84/52/76
f 203/47/75 201/48/75 85/48/75 87/47/75
f 202/53/76 204/54/76 88/54/76 86/53/76
f 205/49/75 203/47/75 87/47/75 89/49/75
f 204/54/74 206/55/74 90/55/74 88/54/74
f 207/57/75 208/56/75 70/56/75 91/57/75
f 210/56/76 209/56/76 92/56/76 69/56/76
f 211/58/75 207/57/75 91/57/75 93/58/75
f 209/56/74 212/58/74 94/58/74 92/56/74
f 208/56/75 213/57/75 72/57/75 70/56/75
f 214/59/76 210/56/76 69/56/76 71/59/76
f 213/57/75 215/60/75 74/60/75 72/57/75
f 216/61/76 214/59/76 71/59/76 73/61/76
f 215/60/75 217/62/75 76/62/75 74/60/75
f 218/63/76 216/61/76 73/61/76 75/63/76
f 217/62/75 219/64/75 78/64/75 76/62/75
f 220/65/74 218/63/74 75/63/74 77/65/74
f 197/49/73 221/66/73 80/66/73 68/49/73
f 222/66/74 198/50/74 67/50/74 79/66/74
f 223/67/73 205/49/73 89/49/73 95/67/73
f 206/55/74 224/66/74 96/66/74 90/55/74
f 221/66/75 211/58/75 93/58/75 80/66/75
f 212/58/74 222/66/74 79/66/74 94/58/74
f 219/64/73 223/67/73 95/67/73 78/64/73
f 224/66/76 220/65/76 77/65/76 96/66/76
f 225/69/77 226/68/77 98/68/77 113/69/77
f 228/70/78 227/70/78 114/70/78 97/70/78
f 226/68/79 229/71/79 100/71/79 98/68/79
f 230/72/80 228/70/80 97/70/80 99/72/80
f 231/73/77 225/69/77 113/69/77 115/73/77
f 227/70/80 232/74/80 116/74/80 114/70/80
f 233/69/77 231/73/77 115/73/77 117/69/77
f 232/74/78 234/70/78 118/70/78 116/74/78
f 235/75/77 233/69/77 117/69/77 119/75/77
f 234/70/78 236/69/78 120/69/78 118/70/78
f 237/76/79 235/75/79 119/75/79 121/76/79
f 236/69/80 238/77/80 122/77/80 120/69/80
f 239/79/77 240/78/77 102/78/77 123/79/77
f 242/81/78 241/80/78 124/80/78 101/81/78
f 243/82/77 239/79/77 123/79/77 125/82/77
f 241/80/78 244/83/78 126/83/78 124/80/78
f 240/78/77 245/84/77 104/84/77 102/78/77
f 246/85/78 242/81/78 101/81/78 103/85/78
f 245/84/79 247/85/79 106/85/79 104/84/79
f 248/85/78 246/85/78 103/85/78 105/85/78
f 247/85/77 249/86/77 108/86/77 106/85/77
f 250/87/78 248/85/78 105/85/78 107/87/78
f 249/86/77 251/88/77 110/88/77 108/86/77
f 252/89/78 250/87/78 107/87/78 109/89/78
f 229/71/77 253/90/77 112/90/77 100/71/77
f 254/90/80 230/72/80 99/72/80 111/90/80
f 255/90/77 237/76/77 121/76/77 127/90/77
f 238/77/78 256/91/78 128/91/78 122/77/78
f 253/90/79 243/82/79 125/82/79 112/90/79
f 244/83/80 254/90/80 111/90/80 126/83/80
f 251/88/77 255/90/77 127/90/77 110/88/77
f 256/91/78 252/89/78 109/89/78 128/91/78
f 257/2/1 258/1/1 130/1/1 129/2/1
f 260/4/1 259/3/1 131/3/1 132/4/1
f 258/1/2 261/5/2 133/5/2 130/1/2
f 262/5/2 260/4/2 132/4/2 134/5/2
f 263/6/3 257/2/3 129/2/3 135/6/3
f 259/3/3 264/6/3 136/6/3 131/3/3
f 265/2/4 263/6/4 135/6/4 137/2/4
f 264/6/4 266/3/4 138/3/4 136/6/4
f 267/7/5 265/2/5 137/2/5 139/7/5
f 266/3/5 268/8/5 140/8/5 138/3/5
f 269/9/81 267/7/81 139/7/81 141/9/81
f 268/8/6 270/10/6 142/10/6 140/8/6
f 271/12/7 272/11/7 144/11/7 143/12/7
f 274/12/7 273/13/7 145/13/7 146/12/7
f 275/14/82 271/12/82 143/12/82 147/14/82
f 273/13/82 276/15/82 148/15/82 145/13/82
f 272/11/9 277/16/9 149/16/9 144/11/9
f 278/17/9 274/12/9 146/12/9 150/17/9
f 277/16/10 279/12/10 151/12/10 149/16/10
f 280/12/10 278/17/10 150/17/10 152/12/10
f 279/12/11 281/18/11 153/18/11 151/12/11
f 282/18/11 280/12/11 152/12/11 154/18/11
f 281/18/12 283/19/12 155/19/12 153/18/12
f 284/14/12 282/18/12 154/18/12 156/14/12
f 261/5/13 285/20/13 157/20/13 133/5/13
f 286/21/13 262/5/13 134/5/13 158/21/13
f 287/22/14 269/9/14 141/9/14 159/22/14
f 270/10/14 288/23/14 160/23/14 142/10/14
f 285/20/15 275/14/15 147/14/15 157/20/15
f 276/15/15 286/21/15 158/21/15 148/15/15
f 283/19/16 287/22/16 159/22/16 155/19/16
f 288/23/16 284/14/16 156/14/16 160/23/16
f 289/25/17 290/24/17 162/24/17 161/25/17
f 292/24/17 291/26/17 163/26/17 164/24/17
f 290/24/18 293/27/18 165/27/18 162/24/18
f 294/28/18 292/24/18 164/24/18 166/28/18
f 295/26/19 289/25/19 161/25/19 167/26/19
f 291/26/19 296/25/19 168/25/19 163/26/19
f 297/26/20 295/26/20 167/26/20 169/26/20
f 296/25/20 298/29/20 170/29/20 168/25/20
f 299/30/83 297/26/83 169/26/83 171/30/83
f 298/29/21 300/26/21 172/26/21 170/29/21
f 301/27/22 299/30/22 171/30/22 173/27/22
f 300/26/84 302/27/84 174/27/84 172/26/84
f 303/32/23 304/31/23 176/31/23 175/32/23
f 306/34/23 305/33/23 177/33/23 178/34/23
f 307/35/24 303/32/24 175/32/24 179/35/24
f 305/33/85 308/35/85 180/35/85 177/33/85
f 304/31/25 309/36/25 181/36/25 176/31/25
f 310/37/25 306/34/25 178/34/25 182/37/25
f 309/36/26 311/38/26 183/38/26 181/36/26
f 312/39/26 310/37/26 182/37/26 184/39/26
f 311/38/27 313/40/27 185/40/27 183/38/27
f 314/38/27 312/39/27 184/39/27 186/38/27
f 313/40/28 315/41/28 187/41/28 185/40/28
f 316/41/28 314/38/28 186/38/28 188/41/28
f 293/27/86 317/42/86 189/42/86 165/27/86
f 318/43/29 294/28/29 166/28/29 190/43/29
f 319/44/30 301/27/30 173/27/30 191/44/30
f 302/27/30 320/45/30 192/45/30 174/27/30
f 317/42/31 307/35/31 179/35/31 189/42/31
f 308/35/31 318/43/31 190/43/31 180/35/31
f 315/41/32 319/44/32 191/44/32 187/41/32
f 320/45/32 316/41/32 188/41/32 192/45/32
f 321/47/33 322/46/33 194/46/33 193/47/33
f 324/48/33 323/47/33 195/47/33 196/48/33
f 322/46/34 325/49/34 197/49/34 194/46/34
f 326/50/34 324/48/34 196/48/34 198/50/34
f 327/51/35 321/47/35 193/47/35 199/51/35
f 323/47/35 328/52/35 200/52/35 195/47/35
f 329/48/36 327/51/36 199/51/36 201/48/36
f 328/52/36 330/53/36 202/53/36 200/52/36
f 331/47/87 329/48/87 201/48/87 203/47/87
f 330/53/87 332/54/87 204/54/87 202/53/87
f 333/49/38 331/47/38 203/47/38 205/49/38
f 332/54/88 334/55/88 206/55/88 204/54/88
f 335/57/89 336/56/89 208/56/89 207/57/89
f 338/56/39 337/56/39 209/56/39 210/56/39
f 339/58/90 335/57/90 207/57/90 211/58/90
f 337/56/90 340/58/90 212/58/90 209/56/90
f 336/56/41 341/57/41 213/57/41 208/56/41
f 342/59/41 338/56/41 210/56/41 214/59/41
f 341/57/42 343/60/42 215/60/42 213/57/42
f 344/61/42 342/59/42 214/59/42 216/61/42
f 343/60/43 345/62/43 217/62/43 215/60/43
f 346/63/43 344/61/43 216/61/43 218/63/43
f 345/62/44 347/64/44 219/64/44 217/62/44
f 348/65/44 346/63/44 218/63/44 220/65/44
f 325/49/45 349/66/45 221/66/45 197/49/45
f 350/66/45 326/50/45 198/50/45 222/66/45
f 351/67/46 333/49/46 205/49/46 223/67/46
f 334/55/46 352/66/46 224/66/46 206/55/46
f 349/66/47 339/58/47 211/58/47 221/66/47
f 340/58/47 350/66/47 222/66/47 212/58/47
f 347/64/48 351/67/48 223/67/48 219/64/48
f 352/66/48 348/65/48 220/65/48 224/66/48
f 353/69/49 354/68/49 226/68/49 225/69/49
f 356/70/49 355/70/49 227/70/49 228/70/49
f 354/68/50 357/71/50 229/71/50 226/68/50
f 358/72/50 356/70/50 228/70/50 230/72/50
f 359/73/51 353/69/51 225/69/51 231/73/51
f 355/70/51 360/74/51 232/74/51 227/70/51
f 361/69/52 359/73/52 231/73/52 233/69/52
f 360/74/52 362/70/52 234/70/52 232/74/52
f 363/75/53 361/69/53 233/69/53 235/75/53
f 362/70/53 364/69/53 236/69/53 234/70/53
f 365/76/54 363/75/54 235/75/54 237/76/54
f 364/69/91 366/77/91 238/77/91 236/69/91
f 367/79/92 368/78/92 240/78/92 239/79/92
f 370/81/92 369/80/92 241/80/92 242/81/92
f 371/82/56 367/79/56 239/79/56 243/82/56
f 369/80/93 372/83/93 244/83/93 241/80/93
f 368/78/57 373/84/57 245/84/57 240/78/57
f 374/85/57 370/81/57 242/81/57 246/85/57
f 373/84/58 375/85/58 247/85/58 245/84/58
f 376/85/58 374/85/58 246/85/58 248/85/58
f 375/85/59 377/86/59 249/86/59 247/85/59
f 378/87/59 376/85/59 248/85/59 250/87/59
f 377/86/60 379/88/60 251/88/60 249/86/60
f 380/89/60 378/87/60 250/87/60 252/89/60
f 357/71/94 381/90/94 253/90/94 229/71/94
f 382/90/61 358/72/61 230/72/61 254/90/61
f 383/90/62 365/76/62 237/76/62 255/90/62
f 366/77/62 384/91/62 256/91/62 238/77/62
f 381/90/63 371/82/63 243/82/63 253/90/63
f 372/83/63 382/90/63 254/90/63 244/83/63
f 379/88/95 383/90/95 255/90/95 251/88/95
f 384/91/64 380/89/64 252/89/64 256/91/64
f 385/2/96 386/1/96 258/1/96 257/2/96
f 388/4/97 387/3/97 259/3/97 260/4/97
f 386/1/98 389/5/98 261/5/98 258/1/98
f 390/5/99 388/4/99 260/4/99 262/5/99
f 391/6/100 385/2/100 257/2/100 263/6/100
f 387/3/101 392/6/101 264/6/101 259/3/101
f 393/2/102 391/6/102 263/6/102 265/2/102
f 392/6/103 394/3/103 266/3/103 264/6/103
f 395/7/104 393/2/104 265/2/104 267/7/104
f 394/3/105 396/8/105 268/8/105 266/3/105
f 397/9/106 395/7/106 267/7/106 269/9/106
f 396/8/107 398/10/107 270/10/107 268/8/107
f 399/12/108 400/11/108 272/11/108 271/12/108
f 402/12/109 401/13/109 273/13/109 274/12/109
f 403/14/110 399/12/110 271/12/110 275/14/110
f 401/13/111 404/15/111 276/15/111 273/13/111
f 400/11/112 405/16/112 277/16/112 272/11/112
f 406/17/113 402/12/113 274/12/113 278/17/113
f 405/16/114 407/12/114 279/12/114 277/16/114
f 408/12/115 406/17/115 278/17/115 280/12/115
f 407/12/116 409/18/116 281/18/116 279/12/116
f 410/18/117 408/12/117 280/12/117 282/18/117
f 409/18/118 411/19/118 283/19/118 281/18/118
f 412/14/119 410/18/119 282/18/119 284/14/119
f 389/5/120 413/20/120 285/20/120 261/5/120
f 414/21/121 390/5/121 262/5/121 286/21/121
f 415/22/122 397/9/122 269/9/122 287/22/122
f 398/10/123 416/23/123 288/23/123 270/10/123
f 413/20/124 403/14/124 275/14/124 285/20/124
f 404/15/125 414/21/125 286/21/125 276/15/125
f 411/19/126 415/22/126 287/22/126 283/19/126
f 416/23/127 412/14/127 284/14/127 288/23/127
f 417/25/128 418/24/128 290/24/128 289/25/128
f 420/24/129 419/26/129 291/26/129 292/24/129
f 418/24/130 421/27/130 293/27/130 290/24/130
f 422/28/131 420/24/131 292/24/131 294/28/131
f 423/26/132 417/25/132 289/25/132 295/26/132
f 419/26/133 424/25/133 296/25/133 291/26/133
f 425/26/134 423/26/134 295/26/134 297/26/134
f 424/25/135 426/29/135 298/29/135 296/25/135
f 427/30/136 425/26/136 297/26/136 299/30/136
f 426/29/137 428/26/137 300/26/137 298/29/137
f 429/27/138 427/30/138 299/30/138 301/27/138
f 428/26/139 430/27/139 302/27/139 300/26/139
f 431/32/140 432/31/140 304/31/140 303/32/140
f 434/34/141 433/33/141 305/33/141 306/34/141
f 435/35/142 431/32/142 303/32/142 307/35/142
f 433/33/143 436/35/143 308/35/143 305/33/143
f 432/31/144 437/36/144 309/36/144 304/31/144
f 438/37/145 434/34/145 306/34/145 310/37/145
f 437/36/146 439/38/146 311/38/146 309/36/146
f 440/39/147 438/37/147 310/37/147 312/39/147
f 439/38/148 441/40/148 313/40/148 311/38/148
f 442/38/149 440/39/149 312/39/149 314/38/149
f 441/40/150 443/41/150 315/41/150 313/40/150
f 444/41/151 442/38/151 314/38/151 316/41/151
f 421/27/152 445/42/152 317/42/152 293/27/152
f 446/43/153 422/28/153 294/28/153 318/43/153
f 447/44/154 429/27/154 301/27/154 319/44/154
f 430/27/155 448/45/155 320/45/155 302/27/155
f 445/42/156 435/35/156 307/35/156 317/42/156
f 436/35/157 446/43/157 318/43/157 308/35/157
f 443/41/158 447/44/158 319/44/158 315/41/158
f 448/45/159 444/41/159 316/41/159 320/45/159
f 449/47/160 450/46/160 322/46/160 321/47/160
f 452/48/161 451/47/161 323/47/161 324/48/161
f 450/46/162 453/49/162 325/49/162 322/46/162
f 454/50/163 452/48/163 324/48/163 326/50/163
f 455/51/164 449/47/164 321/47/164 327/51/164
f 451/47/165 456/52/165 328/52/165 323/47/165
f 457/48/166 455/51/166 327/51/166 329/48/166
f 456/52/167 458/53/167 330/53/167 328/52/167
f 459/47/168 457/48/168 329/48/168 331/47/168
f 458/53/169 460/54/169 332/54/169 330/53/169
f 461/49/170 459/47/170 331/47/170 333/49/170
f 460/54/171 462/55/171 334/55/171 332/54/171
f 463/57/172 464/56/172 336/56/172 335/57/172
f 466/56/173 465/56/173 337/56/173 338/56/173
f 467/58/174 463/57/174 335/57/174 339/58/174
f 465/56/175 468/58/175 340/58/175 337/56/175
f 464/56/176 469/57/176 341/57/176 336/56/176
f 470/59/177 466/56/177 338/56/177 342/59/177
f 469/57/178 471/60/178 343/60/178 341/57/178
f 472/61/179 470/59/179 342/59/179 344/61/179
f 471/60/180 473/62/180 345/62/180 343/60/180
f 474/63/181 472/61/181 344/61/181 346/63/181
f 473/62/182 475/64/182 347/64/182 345/62/182
f 476/65/183 474/63/183 346/63/183 348/65/183
f 453/49/184 477/66/184 349/66/184 325/49/184
f 478/66/185 454/50/185 326/50/185 350/66/185
f 479/67/186 461/49/186 333/49/186 351/67/186
f 462/55/187 480/66/187 352/66/187 334/55/187
f 477/66/188 467/58/188 339/58/188 349/66/188
f 468/58/189 478/66/189 350/66/189 340/58/189
f 475/64/190 479/67/190 351/67/190 347/64/190
f 480/66/191 476/65/191 348/65/191 352/66/191
f 481/69/192 482/68/192 354/68/192 353/69/192
f 484/70/193 483/70/193 355/70/193 356/70/193
f 482/68/194 485/71/194 357/71/194 354/68/194
f 486/72/195 484/70/195 356/70/195 358/72/195
f 487/73/196 481/69/196 353/69/196 359/73/196
f 483/70/197 488/74/197 360/74/197 355/70/197
f 489/69/198 487/73/198 359/73/198 361/69/198
f 488/74/199 490/70/199 362/70/199 360/74/199
f 491/75/200 489/69/200 361/69/200 363/75/200
f 490/70/201 492/69/201 364/69/201 362/70/201
f 493/76/202 491/75/202 363/75/202 365/76/202
f 492/69/203 494/77/203 366/77/203 364/69/203
f 495/79/204 496/78/204 368/78/204 367/79/204
f 498/81/205 497/80/205 369/80/205 370/81/205
f 499/82/206 495/79/206 367/79/206 371/82/206
f 497/80/207 500/83/207 372/83/207 369/80/207
f 496/78/208 501/84/208 373/84/208 368/78/208
f 502/85/209 498/81/209 370/81/209 374/85/209
f 501/84/210 503/85/210 375/85/210 373/84/210
f 504/85/211 502/85/211 374/85/211 376/85/211
f 503/85/212 505/86/212 377/86/212 375/85/212
f 506/87/213 504/85/213 376/85/213 378/87/213
f 505/86/214 507/88/214 379/88/214 377/86/214
f 508/89/215 506/87/215 378/87/215 380/89/215
f 485/71/216 509/90/216 381/90/216 357/71/216
f 510/90/217 486/72/217 358/72/217 382/90/217
f 511/90/218 493/76/218 365/76/218 383/90/218
f 494/77/219 512/91/219 384/91/219 366/77/219
f 509/90/220 499/82/220 371/82/220 381/90/220
f 500/83/221 510/90/221 382/90/221 372/83/221
f 507/88/222 511/90/222 383/90/222 379/88/222
f 512/91/223 508/89/223 380/89/223 384/91/223
