# Blender 5.2.0 LTS
# www.blender.org
mtllib b.mtl
o Cylinder.011
v 95.156334 6.600000 -1.002008
v 95.156334 9.035876 -1.002008
v 95.117317 6.600000 -1.005851
v 95.117317 9.035876 -1.005851
v 95.079796 6.600000 -1.017232
v 95.079796 9.035876 -1.017232
v 95.045219 6.600000 -1.035714
v 95.045219 9.035876 -1.035714
v 95.014915 6.600000 -1.060587
v 95.014915 9.035876 -1.060587
v 94.990044 6.600000 -1.090894
v 94.990044 9.035876 -1.090894
v 94.971558 6.600000 -1.125472
v 94.971558 9.035876 -1.125472
v 94.960175 6.600000 -1.162990
v 94.960175 9.035876 -1.162990
v 94.956337 6.600000 -1.202008
v 94.956337 9.035876 -1.202008
v 94.960175 6.600000 -1.241026
v 94.960175 9.035876 -1.241026
v 94.971558 6.600000 -1.278545
v 94.971558 9.035876 -1.278545
v 94.990044 6.600000 -1.313122
v 94.990044 9.035876 -1.313122
v 95.014915 6.600000 -1.343430
v 95.014915 9.035876 -1.343430
v 95.045219 6.600000 -1.368302
v 95.045219 9.035876 -1.368302
v 95.079796 6.600000 -1.386784
v 95.079796 9.035876 -1.386784
v 95.117317 6.600000 -1.398165
v 95.117317 9.035876 -1.398165
v 95.156334 6.600000 -1.402008
v 95.156334 9.035876 -1.402008
v 95.195351 6.600000 -1.398165
v 95.195351 9.035876 -1.398165
v 95.232872 6.600000 -1.386784
v 95.232872 9.035876 -1.386784
v 95.267448 6.600000 -1.368302
v 95.267448 9.035876 -1.368302
v 95.297752 6.600000 -1.343430
v 95.297752 9.035876 -1.343430
v 95.322624 6.600000 -1.313122
v 95.322624 9.035876 -1.313122
v 95.341110 6.600000 -1.278545
v 95.341110 9.035876 -1.278545
v 95.352493 6.600000 -1.241026
v 95.352493 9.035876 -1.241026
v 95.356331 6.600000 -1.202008
v 95.356331 9.035876 -1.202008
v 95.352493 6.600000 -1.162990
v 95.352493 9.035876 -1.162990
v 95.341110 6.600000 -1.125472
v 95.341110 9.035876 -1.125472
v 95.322624 6.600000 -1.090894
v 95.322624 9.035876 -1.090894
v 95.297752 6.600000 -1.060587
v 95.297752 9.035876 -1.060587
v 95.267448 6.600000 -1.035714
v 95.267448 9.035876 -1.035714
v 95.232872 6.600000 -1.017232
v 95.232872 9.035876 -1.017232
v 95.195351 6.600000 -1.005851
v 95.195351 9.035876 -1.005851
v 95.100014 9.910209 -0.878341
v 95.129524 9.935877 -0.875623
v 95.067795 9.889368 -0.886388
v 95.034103 9.874160 -0.899457
v 95.000237 9.865168 -0.917045
v 94.967499 9.862734 -0.938475
v 94.937134 9.866951 -0.962925
v 94.910332 9.877662 -0.989455
v 94.888107 9.894457 -1.017045
v 94.871307 9.916679 -1.044635
v 94.860603 9.943488 -1.071164
v 94.856384 9.973848 -1.095614
v 94.858818 10.006589 -1.117045
v 94.867805 10.040453 -1.134632
v 94.883018 10.074143 -1.147701
v 94.903854 10.106365 -1.155749
v 94.929527 10.135876 -1.158466
v 94.959038 10.161544 -1.155749
v 94.991257 10.182384 -1.147701
v 95.024948 10.197594 -1.134632
v 95.058815 10.206585 -1.117045
v 95.091553 10.209019 -1.095614
v 95.121910 10.204802 -1.071164
v 95.148720 10.194091 -1.044635
v 95.170944 10.177296 -1.017045
v 95.187737 10.155073 -0.989455
v 95.198448 10.128264 -0.962925
v 95.202667 10.097904 -0.938475
v 95.200233 10.065164 -0.917045
v 95.191238 10.031300 -0.899457
v 95.176033 9.997609 -0.886388
v 95.155190 9.965386 -0.878341
v 92.800034 6.600000 1.000000
v 92.800034 9.035876 1.000000
v 92.839050 6.600000 1.003843
v 92.839050 9.035876 1.003843
v 92.876572 6.600000 1.015224
v 92.876572 9.035876 1.015224
v 92.911148 6.600000 1.033706
v 92.911148 9.035876 1.033706
v 92.941452 6.600000 1.058578
v 92.941452 9.035876 1.058578
v 92.966324 6.600000 1.088886
v 92.966324 9.035876 1.088886
v 92.984810 6.600000 1.123463
v 92.984810 9.035876 1.123463
v 92.996193 6.600000 1.160982
v 92.996193 9.035876 1.160982
v 93.000031 6.600000 1.200000
v 93.000031 9.035876 1.200000
v 92.996193 6.600000 1.239018
v 92.996193 9.035876 1.239018
v 92.984810 6.600000 1.276536
v 92.984810 9.035876 1.276536
v 92.966324 6.600000 1.311114
v 92.966324 9.035876 1.311114
v 92.941452 6.600000 1.341421
v 92.941452 9.035876 1.341421
v 92.911148 6.600000 1.366294
v 92.911148 9.035876 1.366294
v 92.876572 6.600000 1.384776
v 92.876572 9.035876 1.384776
v 92.839050 6.600000 1.396157
v 92.839050 9.035876 1.396157
v 92.800034 6.600000 1.400000
v 92.800034 9.035876 1.400000
v 92.761017 6.600000 1.396157
v 92.761017 9.035876 1.396157
v 92.723495 6.600000 1.384776
v 92.723495 9.035876 1.384776
v 92.688919 6.600000 1.366294
v 92.688919 9.035876 1.366294
v 92.658615 6.600000 1.341421
v 92.658615 9.035876 1.341421
v 92.633743 6.600000 1.311114
v 92.633743 9.035876 1.311114
v 92.615257 6.600000 1.276536
v 92.615257 9.035876 1.276536
v 92.603874 6.600000 1.239018
v 92.603874 9.035876 1.239018
v 92.600037 6.600000 1.200000
v 92.600037 9.035876 1.200000
v 92.603874 6.600000 1.160982
v 92.603874 9.035876 1.160982
v 92.615257 6.600000 1.123463
v 92.615257 9.035876 1.123463
v 92.633743 6.600000 1.088886
v 92.633743 9.035876 1.088886
v 92.658615 6.600000 1.058578
v 92.658615 9.035876 1.058578
v 92.688919 6.600000 1.033706
v 92.688919 9.035876 1.033706
v 92.723495 6.600000 1.015224
v 92.723495 9.035876 1.015224
v 92.761017 6.600000 1.003843
v 92.761017 9.035876 1.003843
v 92.856354 9.910209 0.876332
v 92.826843 9.935877 0.873615
v 92.888573 9.889368 0.884380
v 92.922264 9.874160 0.897449
v 92.956131 9.865168 0.915036
v 92.988869 9.862734 0.936467
v 93.019234 9.866951 0.960917
v 93.046036 9.877662 0.987446
v 93.068260 9.894457 1.015036
v 93.085060 9.916679 1.042626
v 93.095764 9.943488 1.069156
v 93.099983 9.973848 1.093606
v 93.097549 10.006589 1.115036
v 93.088562 10.040453 1.132624
v 93.073349 10.074143 1.145693
v 93.052513 10.106365 1.153740
v 93.026840 10.135876 1.156458
v 92.997330 10.161544 1.153740
v 92.965111 10.182384 1.145693
v 92.931419 10.197594 1.132624
v 92.897552 10.206585 1.115036
v 92.864815 10.209019 1.093606
v 92.834457 10.204802 1.069156
v 92.807648 10.194091 1.042626
v 92.785423 10.177296 1.015036
v 92.768631 10.155073 0.987446
v 92.757919 10.128264 0.960917
v 92.753700 10.097904 0.936467
v 92.756134 10.065164 0.915036
v 92.765129 10.031300 0.897449
v 92.780334 9.997609 0.884380
v 92.801178 9.965386 0.876332
v 95.030701 6.600000 1.199969
v 95.030701 9.035876 1.199969
v 95.034538 6.600000 1.160953
v 95.034538 9.035876 1.160953
v 95.045921 6.600000 1.123431
v 95.045921 9.035876 1.123431
v 95.064400 6.600000 1.088855
v 95.064400 9.035876 1.088855
v 95.089279 6.600000 1.058551
v 95.089279 9.035876 1.058551
v 95.119583 6.600000 1.033679
v 95.119583 9.035876 1.033679
v 95.154160 6.600000 1.015193
v 95.154160 9.035876 1.015193
v 95.191681 6.600000 1.003810
v 95.191681 9.035876 1.003810
v 95.230698 6.600000 0.999972
v 95.230698 9.035876 0.999972
v 95.269714 6.600000 1.003810
v 95.269714 9.035876 1.003810
v 95.307236 6.600000 1.015193
v 95.307236 9.035876 1.015193
v 95.341812 6.600000 1.033679
v 95.341812 9.035876 1.033679
v 95.372116 6.600000 1.058551
v 95.372116 9.035876 1.058551
v 95.396988 6.600000 1.088855
v 95.396988 9.035876 1.088855
v 95.415474 6.600000 1.123431
v 95.415474 9.035876 1.123431
v 95.426857 6.600000 1.160953
v 95.426857 9.035876 1.160953
v 95.430695 6.600000 1.199969
v 95.430695 9.035876 1.199969
v 95.426857 6.600000 1.238986
v 95.426857 9.035876 1.238986
v 95.415474 6.600000 1.276507
v 95.415474 9.035876 1.276507
v 95.396988 6.600000 1.311084
v 95.396988 9.035876 1.311084
v 95.372116 6.600000 1.341388
v 95.372116 9.035876 1.341388
v 95.341812 6.600000 1.366260
v 95.341812 9.035876 1.366260
v 95.307236 6.600000 1.384746
v 95.307236 9.035876 1.384746
v 95.269714 6.600000 1.396129
v 95.269714 9.035876 1.396129
v 95.230698 6.600000 1.399966
v 95.230698 9.035876 1.399966
v 95.191681 6.600000 1.396129
v 95.191681 9.035876 1.396129
v 95.154160 6.600000 1.384746
v 95.154160 9.035876 1.384746
v 95.119583 6.600000 1.366260
v 95.119583 9.035876 1.366260
v 95.089279 6.600000 1.341388
v 95.089279 9.035876 1.341388
v 95.064400 6.600000 1.311084
v 95.064400 9.035876 1.311084
v 95.045921 6.600000 1.276507
v 95.045921 9.035876 1.276507
v 95.034538 6.600000 1.238986
v 95.034538 9.035876 1.238986
v 94.907028 9.910209 1.143650
v 94.904312 9.935877 1.173160
v 94.915077 9.889368 1.111428
v 94.928146 9.874160 1.077738
v 94.945732 9.865168 1.043873
v 94.967163 9.862734 1.011132
v 94.991615 9.866951 0.980772
v 95.018143 9.877662 0.953964
v 95.045731 9.894457 0.931741
v 95.073326 9.916679 0.914946
v 95.099854 9.943488 0.904236
v 95.124306 9.973848 0.900018
v 95.145737 10.006589 0.902452
v 95.163322 10.040453 0.911444
v 95.176392 10.074143 0.926652
v 95.184441 10.106365 0.947493
v 95.187157 10.135876 0.973161
v 95.184441 10.161544 1.002671
v 95.176392 10.182384 1.034893
v 95.163322 10.197594 1.068583
v 95.145737 10.206585 1.102448
v 95.124306 10.209019 1.135189
v 95.099854 10.204802 1.165549
v 95.073326 10.194091 1.192357
v 95.045731 10.177296 1.214580
v 95.018143 10.155073 1.231375
v 94.991615 10.128264 1.242085
v 94.967163 10.097904 1.246302
v 94.945732 10.065164 1.243869
v 94.928146 10.031300 1.234877
v 94.915077 9.997609 1.219669
v 94.907028 9.965386 1.198828
v 93.000000 6.600000 -1.169297
v 93.000000 9.035876 -1.169297
v 92.996162 6.600000 -1.130281
v 92.996162 9.035876 -1.130281
v 92.984779 6.600000 -1.092759
v 92.984779 9.035876 -1.092759
v 92.966293 6.600000 -1.058183
v 92.966293 9.035876 -1.058183
v 92.941422 6.600000 -1.027879
v 92.941422 9.035876 -1.027879
v 92.911118 6.600000 -1.003007
v 92.911118 9.035876 -1.003007
v 92.876541 6.600000 -0.984521
v 92.876541 9.035876 -0.984521
v 92.839020 6.600000 -0.973138
v 92.839020 9.035876 -0.973138
v 92.800003 6.600000 -0.969300
v 92.800003 9.035876 -0.969300
v 92.760986 6.600000 -0.973138
v 92.760986 9.035876 -0.973138
v 92.723465 6.600000 -0.984521
v 92.723465 9.035876 -0.984521
v 92.688889 6.600000 -1.003007
v 92.688889 9.035876 -1.003007
v 92.658585 6.600000 -1.027879
v 92.658585 9.035876 -1.027879
v 92.633713 6.600000 -1.058183
v 92.633713 9.035876 -1.058183
v 92.615227 6.600000 -1.092759
v 92.615227 9.035876 -1.092759
v 92.603844 6.600000 -1.130281
v 92.603844 9.035876 -1.130281
v 92.600006 6.600000 -1.169297
v 92.600006 9.035876 -1.169297
v 92.603844 6.600000 -1.208314
v 92.603844 9.035876 -1.208314
v 92.615227 6.600000 -1.245835
v 92.615227 9.035876 -1.245835
v 92.633713 6.600000 -1.280412
v 92.633713 9.035876 -1.280412
v 92.658585 6.600000 -1.310716
v 92.658585 9.035876 -1.310716
v 92.688889 6.600000 -1.335588
v 92.688889 9.035876 -1.335588
v 92.723465 6.600000 -1.354074
v 92.723465 9.035876 -1.354074
v 92.760986 6.600000 -1.365457
v 92.760986 9.035876 -1.365457
v 92.800003 6.600000 -1.369294
v 92.800003 9.035876 -1.369294
v 92.839020 6.600000 -1.365457
v 92.839020 9.035876 -1.365457
v 92.876541 6.600000 -1.354074
v 92.876541 9.035876 -1.354074
v 92.911118 6.600000 -1.335588
v 92.911118 9.035876 -1.335588
v 92.941422 6.600000 -1.310716
v 92.941422 9.035876 -1.310716
v 92.966293 6.600000 -1.280412
v 92.966293 9.035876 -1.280412
v 92.984779 6.600000 -1.245835
v 92.984779 9.035876 -1.245835
v 92.996162 6.600000 -1.208314
v 92.996162 9.035876 -1.208314
v 93.123672 9.910209 -1.112978
v 93.126389 9.935877 -1.142488
v 93.115623 9.889368 -1.080756
v 93.102554 9.874160 -1.047066
v 93.084969 9.865168 -1.013201
v 93.063538 9.862734 -0.980460
v 93.039085 9.866951 -0.950100
v 93.012558 9.877662 -0.923292
v 92.984970 9.894457 -0.901069
v 92.957375 9.916679 -0.884274
v 92.930847 9.943488 -0.873564
v 92.906395 9.973848 -0.869346
v 92.884964 10.006589 -0.871780
v 92.867378 10.040453 -0.880772
v 92.854309 10.074143 -0.895980
v 92.846260 10.106365 -0.916821
v 92.843544 10.135876 -0.942488
v 92.846260 10.161544 -0.971999
v 92.854309 10.182384 -1.004221
v 92.867378 10.197594 -1.037911
v 92.884964 10.206585 -1.071776
v 92.906395 10.209019 -1.104517
v 92.930847 10.204802 -1.134877
v 92.957375 10.194091 -1.161685
v 92.984970 10.177296 -1.183908
v 93.012558 10.155073 -1.200703
v 93.039085 10.128264 -1.211413
v 93.063538 10.097904 -1.215630
v 93.084969 10.065164 -1.213197
v 93.102554 10.031300 -1.204205
v 93.115623 9.997609 -1.188997
v 93.123672 9.965386 -1.168156
vn -0.0980 -0.0000 0.9952
vn -0.2903 -0.0000 0.9569
vn -0.4714 -0.0000 0.8819
vn -0.6344 -0.0000 0.7730
vn -0.7730 -0.0000 0.6344
vn -0.8819 -0.0000 0.4715
vn -0.9569 -0.0000 0.2903
vn -0.9952 -0.0000 0.0979
vn -0.9952 -0.0000 -0.0979
vn -0.9569 -0.0000 -0.2903
vn -0.8819 -0.0000 -0.4715
vn -0.7730 -0.0000 -0.6344
vn -0.6344 -0.0000 -0.7730
vn -0.4714 -0.0000 -0.8819
vn -0.2903 -0.0000 -0.9569
vn -0.0980 -0.0000 -0.9952
vn 0.0980 -0.0000 -0.9952
vn 0.2903 -0.0000 -0.9569
vn 0.4714 -0.0000 -0.8819
vn 0.6344 -0.0000 -0.7730
vn 0.7730 -0.0000 -0.6344
vn 0.8819 -0.0000 -0.4715
vn 0.9569 -0.0000 -0.2903
vn 0.9952 -0.0000 -0.0979
vn 0.9952 -0.0000 0.0979
vn 0.9569 -0.0000 0.2903
vn 0.8819 -0.0000 0.4715
vn 0.7730 -0.0000 0.6344
vn 0.6344 -0.0000 0.7730
vn 0.4714 -0.0000 0.8819
vn -0.9338 -0.1347 0.3314
vn 0.2903 -0.0000 0.9569
vn 0.0980 -0.0000 0.9952
vn -0.0000 -1.0000 -0.0000
vn -0.5000 0.5000 0.7071
vn 0.0126 0.2158 -0.9764
vn 0.9897 0.1279 0.0639
vn -0.5312 -0.1482 0.8342
vn -0.7452 0.0294 -0.6662
vn 0.7539 0.2548 -0.6056
vn 0.3669 -0.1074 0.9240
vn -0.9811 -0.1216 0.1503
vn 0.1926 0.2420 -0.9510
vn 0.9593 0.0772 0.2716
vn -0.6575 -0.1468 0.7390
vn -0.5732 0.0836 -0.8151
vn 0.8515 0.2360 -0.4683
vn -0.0413 -0.1425 0.9889
vn 0.1586 -0.1300 0.9787
vn -0.9937 -0.0993 -0.0520
vn 0.3572 0.2587 -0.8975
vn 0.8779 0.0236 0.4783
vn -0.7673 -0.1450 0.6246
vn -0.3794 0.1352 -0.9153
vn 0.9275 0.2084 -0.3103
vn -0.2242 -0.1478 0.9633
vn -0.9616 -0.0661 -0.2664
vn 0.5057 0.2662 -0.8206
vn 0.7448 -0.0282 0.6667
vn -0.8605 -0.1417 0.4894
vn -0.1802 0.1800 -0.9670
vn 0.9761 0.1722 -0.1324
vn -0.3873 -0.1489 0.9098
vn -0.8783 -0.0223 -0.4776
vn 0.6381 0.2649 -0.7230
vn 0.5687 -0.0731 0.8193
vn 0.9338 -0.1347 -0.3314
vn 0.5000 0.5000 -0.7071
vn -0.0126 0.2158 0.9764
vn -0.9897 0.1279 -0.0639
vn 0.5312 -0.1482 -0.8342
vn 0.7452 0.0294 0.6662
vn -0.7539 0.2548 0.6056
vn -0.3669 -0.1074 -0.9240
vn 0.9811 -0.1216 -0.1503
vn -0.1926 0.2420 0.9510
vn -0.9593 0.0772 -0.2716
vn 0.6575 -0.1468 -0.7390
vn 0.5732 0.0836 0.8151
vn -0.8515 0.2360 0.4683
vn 0.0413 -0.1425 -0.9889
vn -0.1586 -0.1300 -0.9787
vn 0.9937 -0.0993 0.0520
vn -0.3572 0.2587 0.8975
vn -0.8779 0.0236 -0.4783
vn 0.7673 -0.1450 -0.6246
vn 0.3794 0.1352 0.9153
vn -0.9275 0.2084 0.3103
vn 0.2242 -0.1478 -0.9633
vn 0.9616 -0.0661 0.2664
vn -0.5057 0.2662 0.8206
vn -0.7448 -0.0282 -0.6667
vn 0.8605 -0.1417 -0.4894
vn 0.1802 0.1800 0.9670
vn -0.9761 0.1722 0.1324
vn 0.3873 -0.1489 -0.9098
vn 0.8783 -0.0223 0.4776
vn -0.6381 0.2649 0.7230
vn -0.5687 -0.0731 -0.8193
vn -0.9952 -0.0000 -0.0980
vn -0.8819 -0.0000 -0.4714
vn -0.4715 -0.0000 -0.8819
vn -0.0979 -0.0000 -0.9952
vn 0.0979 -0.0000 -0.9952
vn 0.4715 -0.0000 -0.8819
vn 0.8819 -0.0000 -0.4714
vn 0.9952 -0.0000 -0.0980
vn 0.9952 -0.0000 0.0980
vn 0.8819 -0.0000 0.4714
vn 0.4715 -0.0000 0.8819
vn 0.0979 -0.0000 0.9952
vn -0.0979 -0.0000 0.9952
vn -0.4715 -0.0000 0.8819
vn -0.8819 -0.0000 0.4714
vn -0.3314 -0.1347 -0.9338
vn -0.9952 -0.0000 0.0980
vn -0.7071 0.5000 -0.5000
vn 0.9764 0.2158 0.0126
vn -0.0639 0.1279 0.9897
vn -0.8342 -0.1482 -0.5312
vn 0.6662 0.0294 -0.7452
vn 0.6056 0.2548 0.7539
vn -0.9240 -0.1074 0.3669
vn -0.1503 -0.1216 -0.9811
vn 0.9510 0.2420 0.1926
vn -0.2716 0.0772 0.9593
vn -0.7390 -0.1468 -0.6575
vn 0.8151 0.0836 -0.5732
vn 0.4683 0.2360 0.8515
vn -0.9889 -0.1425 -0.0413
vn -0.9787 -0.1300 0.1586
vn 0.0520 -0.0993 -0.9937
vn 0.8975 0.2587 0.3572
vn -0.4783 0.0236 0.8779
vn -0.6246 -0.1450 -0.7673
vn 0.9153 0.1352 -0.3794
vn 0.3103 0.2084 0.9275
vn -0.9633 -0.1478 -0.2242
vn 0.2664 -0.0661 -0.9616
vn 0.8206 0.2662 0.5057
vn -0.6667 -0.0282 0.7448
vn -0.4894 -0.1417 -0.8605
vn 0.9670 0.1800 -0.1802
vn 0.1324 0.1722 0.9761
vn -0.9098 -0.1489 -0.3873
vn 0.4776 -0.0223 -0.8783
vn 0.7230 0.2649 0.6381
vn -0.8193 -0.0732 0.5687
vn 0.3314 -0.1347 0.9338
vn 0.7071 0.5000 0.5000
vn -0.9764 0.2158 -0.0126
vn 0.0639 0.1279 -0.9897
vn 0.8342 -0.1482 0.5312
vn -0.6662 0.0294 0.7452
vn -0.6056 0.2548 -0.7539
vn 0.9240 -0.1074 -0.3669
vn 0.1503 -0.1216 0.9811
vn -0.9510 0.2420 -0.1926
vn 0.2716 0.0772 -0.9593
vn 0.7390 -0.1468 0.6575
vn -0.8151 0.0836 0.5732
vn -0.4683 0.2360 -0.8515
vn 0.9889 -0.1425 0.0413
vn 0.9787 -0.1300 -0.1586
vn -0.0520 -0.0993 0.9937
vn -0.8975 0.2587 -0.3572
vn 0.4783 0.0236 -0.8779
vn 0.6246 -0.1450 0.7673
vn -0.9153 0.1352 0.3794
vn -0.3103 0.2084 -0.9275
vn 0.9633 -0.1478 0.2242
vn -0.2665 -0.0661 0.9616
vn -0.8206 0.2662 -0.5057
vn 0.6667 -0.0282 -0.7448
vn 0.4894 -0.1417 0.8605
vn -0.9670 0.1800 0.1802
vn -0.1324 0.1722 -0.9761
vn 0.9098 -0.1489 0.3873
vn -0.4776 -0.0223 0.8783
vn -0.7230 0.2649 -0.6381
vn 0.8193 -0.0731 -0.5687
vt 1.000000 0.500000
vt 1.000000 1.000000
vt 0.968750 1.000000
vt 0.968750 0.500000
vt 0.937500 1.000000
vt 0.937500 0.500000
vt 0.906250 1.000000
vt 0.906250 0.500000
vt 0.875000 1.000000
vt 0.875000 0.500000
vt 0.843750 1.000000
vt 0.843750 0.500000
vt 0.812500 1.000000
vt 0.812500 0.500000
vt 0.781250 1.000000
vt 0.781250 0.500000
vt 0.750000 1.000000
vt 0.750000 0.500000
vt 0.718750 1.000000
vt 0.718750 0.500000
vt 0.687500 1.000000
vt 0.687500 0.500000
vt 0.656250 1.000000
vt 0.656250 0.500000
vt 0.625000 1.000000
vt 0.625000 0.500000
vt 0.593750 1.000000
vt 0.593750 0.500000
vt 0.562500 1.000000
vt 0.562500 0.500000
vt 0.531250 1.000000
vt 0.531250 0.500000
vt 0.500000 1.000000
vt 0.500000 0.500000
vt 0.468750 1.000000
vt 0.468750 0.500000
vt 0.437500 1.000000
vt 0.437500 0.500000
vt 0.406250 1.000000
vt 0.406250 0.500000
vt 0.375000 1.000000
vt 0.375000 0.500000
vt 0.343750 1.000000
vt 0.343750 0.500000
vt 0.312500 1.000000
vt 0.312500 0.500000
vt 0.281250 1.000000
vt 0.281250 0.500000
vt 0.250000 1.000000
vt 0.250000 0.500000
vt 0.218750 1.000000
vt 0.218750 0.500000
vt 0.187500 1.000000
vt 0.187500 0.500000
vt 0.156250 1.000000
vt 0.156250 0.500000
vt 0.125000 1.000000
vt 0.125000 0.500000
vt 0.093750 1.000000
vt 0.093750 0.500000
vt 0.062500 1.000000
vt 0.062500 0.500000
vt 0.031250 1.000000
vt 0.031250 0.500000
vt 0.000000 1.000000
vt 0.000000 0.500000
vt 0.750000 0.490000
vt 0.796822 0.485388
vt 0.841844 0.471731
vt 0.883337 0.449553
vt 0.919706 0.419706
vt 0.949553 0.383337
vt 0.971731 0.341844
vt 0.985388 0.296822
vt 0.990000 0.250000
vt 0.985388 0.203178
vt 0.971731 0.158156
vt 0.949553 0.116663
vt 0.919706 0.080294
vt 0.883337 0.050447
vt 0.841844 0.028269
vt 0.796822 0.014612
vt 0.750000 0.010000
vt 0.703178 0.014612
vt 0.658156 0.028269
vt 0.616663 0.050447
vt 0.580294 0.080294
vt 0.550447 0.116663
vt 0.528269 0.158156
vt 0.514612 0.203178
vt 0.510000 0.250000
vt 0.514612 0.296822
vt 0.528269 0.341844
vt 0.550447 0.383337
vt 0.580294 0.419706
vt 0.616663 0.449553
vt 0.658156 0.471731
vt 0.703178 0.485388
vt 0.296822 0.485388
vt 0.250000 0.490000
vt 0.203178 0.485388
vt 0.158156 0.471731
vt 0.116663 0.449553
vt 0.080294 0.419706
vt 0.050447 0.383337
vt 0.028269 0.341844
vt 0.014612 0.296822
vt 0.010000 0.250000
vt 0.014612 0.203178
vt 0.028269 0.158156
vt 0.050447 0.116663
vt 0.080294 0.080294
vt 0.116663 0.050447
vt 0.158156 0.028269
vt 0.203178 0.014612
vt 0.250000 0.010000
vt 0.296822 0.014612
vt 0.341844 0.028269
vt 0.383337 0.050447
vt 0.419706 0.080294
vt 0.449553 0.116663
vt 0.471731 0.158156
vt 0.485388 0.203178
vt 0.490000 0.250000
vt 0.485388 0.296822
vt 0.471731 0.341844
vt 0.449553 0.383337
vt 0.419706 0.419706
vt 0.383337 0.449553
vt 0.341844 0.471731
s 0
usemtl Material.044
f 1/1/1 2/2/1 4/3/1 3/4/1
f 3/4/2 4/3/2 6/5/2 5/6/2
f 5/6/3 6/5/3 8/7/3 7/8/3
f 7/8/4 8/7/4 10/9/4 9/10/4
f 9/10/5 10/9/5 12/11/5 11/12/5
f 11/12/6 12/11/6 14/13/6 13/14/6
f 13/14/7 14/13/7 16/15/7 15/16/7
f 15/16/8 16/15/8 18/17/8 17/18/8
f 17/18/9 18/17/9 20/19/9 19/20/9
f 19/20/10 20/19/10 22/21/10 21/22/10
f 21/22/11 22/21/11 24/23/11 23/24/11
f 23/24/12 24/23/12 26/25/12 25/26/12
f 25/26/13 26/25/13 28/27/13 27/28/13
f 27/28/14 28/27/14 30/29/14 29/30/14
f 29/30/15 30/29/15 32/31/15 31/32/15
f 31/32/16 32/31/16 34/33/16 33/34/16
f 33/34/17 34/33/17 36/35/17 35/36/17
f 35/36/18 36/35/18 38/37/18 37/38/18
f 37/38/19 38/37/19 40/39/19 39/40/19
f 39/40/20 40/39/20 42/41/20 41/42/20
f 41/42/21 42/41/21 44/43/21 43/44/21
f 43/44/22 44/43/22 46/45/22 45/46/22
f 45/46/23 46/45/23 48/47/23 47/48/23
f 47/48/24 48/47/24 50/49/24 49/50/24
f 49/50/25 50/49/25 52/51/25 51/52/25
f 51/52/26 52/51/26 54/53/26 53/54/26
f 53/54/27 54/53/27 56/55/27 55/56/27
f 55/56/28 56/55/28 58/57/28 57/58/28
f 57/58/29 58/57/29 60/59/29 59/60/29
f 59/60/30 60/59/30 62/61/30 61/62/30
f 18/17/31 16/15/31 72/15/31 73/17/31
f 61/62/32 62/61/32 64/63/32 63/64/32
f 63/64/33 64/63/33 2/65/33 1/66/33
f 1/67/34 3/68/34 5/69/34 7/70/34 9/71/34 11/72/34 13/73/34 15/74/34 17/75/34 19/76/34 21/77/34 23/78/34 25/79/34 27/80/34 29/81/34 31/82/34 33/83/34 35/84/34 37/85/34 39/86/34 41/87/34 43/88/34 45/89/34 47/90/34 49/91/34 51/92/34 53/93/34 55/94/34 57/95/34 59/96/34 61/97/34 63/98/34
f 65/99/35 66/100/35 96/101/35 95/102/35 94/103/35 93/104/35 92/105/35 91/106/35 90/107/35 89/108/35 88/109/35 87/110/35 86/111/35 85/112/35 84/113/35 83/114/35 82/115/35 81/116/35 80/117/35 79/118/35 78/119/35 77/120/35 76/121/35 75/122/35 74/123/35 73/124/35 72/125/35 71/126/35 70/127/35 69/128/35 68/129/35 67/130/35
f 36/35/36 34/33/36 81/33/36 82/35/36
f 54/53/37 52/51/37 90/51/37 91/53/37
f 10/9/38 8/7/38 68/7/38 69/9/38
f 28/27/39 26/25/39 77/25/39 78/27/39
f 46/45/40 44/43/40 86/43/40 87/45/40
f 64/63/41 62/61/41 95/61/41 96/63/41
f 20/19/42 18/17/42 73/17/42 74/19/42
f 38/37/43 36/35/43 82/35/43 83/37/43
f 56/55/44 54/53/44 91/53/44 92/55/44
f 12/11/45 10/9/45 69/9/45 70/11/45
f 30/29/46 28/27/46 78/27/46 79/29/46
f 48/47/47 46/45/47 87/45/47 88/47/47
f 4/3/48 2/2/48 66/2/48 65/3/48
f 2/65/49 64/63/49 96/63/49 66/65/49
f 22/21/50 20/19/50 74/19/50 75/21/50
f 40/39/51 38/37/51 83/37/51 84/39/51
f 58/57/52 56/55/52 92/55/52 93/57/52
f 14/13/53 12/11/53 70/11/53 71/13/53
f 32/31/54 30/29/54 79/29/54 80/31/54
f 50/49/55 48/47/55 88/47/55 89/49/55
f 6/5/56 4/3/56 65/3/56 67/5/56
f 24/23/57 22/21/57 75/21/57 76/23/57
f 42/41/58 40/39/58 84/39/58 85/41/58
f 60/59/59 58/57/59 93/57/59 94/59/59
f 16/15/60 14/13/60 71/13/60 72/15/60
f 34/33/61 32/31/61 80/31/61 81/33/61
f 52/51/62 50/49/62 89/49/62 90/51/62
f 8/7/63 6/5/63 67/5/63 68/7/63
f 26/25/64 24/23/64 76/23/64 77/25/64
f 44/43/65 42/41/65 85/41/65 86/43/65
f 62/61/66 60/59/66 94/59/66 95/61/66
usemtl Material.041
f 97/1/17 98/2/17 100/3/17 99/4/17
f 99/4/18 100/3/18 102/5/18 101/6/18
f 101/6/19 102/5/19 104/7/19 103/8/19
f 103/8/20 104/7/20 106/9/20 105/10/20
f 105/10/21 106/9/21 108/11/21 107/12/21
f 107/12/22 108/11/22 110/13/22 109/14/22
f 109/14/23 110/13/23 112/15/23 111/16/23
f 111/16/24 112/15/24 114/17/24 113/18/24
f 113/18/25 114/17/25 116/19/25 115/20/25
f 115/20/26 116/19/26 118/21/26 117/22/26
f 117/22/27 118/21/27 120/23/27 119/24/27
f 119/24/28 120/23/28 122/25/28 121/26/28
f 121/26/29 122/25/29 124/27/29 123/28/29
f 123/28/30 124/27/30 126/29/30 125/30/30
f 125/30/32 126/29/32 128/31/32 127/32/32
f 127/32/33 128/31/33 130/33/33 129/34/33
f 129/34/1 130/33/1 132/35/1 131/36/1
f 131/36/2 132/35/2 134/37/2 133/38/2
f 133/38/3 134/37/3 136/39/3 135/40/3
f 135/40/4 136/39/4 138/41/4 137/42/4
f 137/42/5 138/41/5 140/43/5 139/44/5
f 139/44/6 140/43/6 142/45/6 141/46/6
f 141/46/7 142/45/7 144/47/7 143/48/7
f 143/48/8 144/47/8 146/49/8 145/50/8
f 145/50/9 146/49/9 148/51/9 147/52/9
f 147/52/10 148/51/10 150/53/10 149/54/10
f 149/54/11 150/53/11 152/55/11 151/56/11
f 151/56/12 152/55/12 154/57/12 153/58/12
f 153/58/13 154/57/13 156/59/13 155/60/13
f 155/60/14 156/59/14 158/61/14 157/62/14
f 114/17/67 112/15/67 168/15/67 169/17/67
f 157/62/15 158/61/15 160/63/15 159/64/15
f 159/64/16 160/63/16 98/65/16 97/66/16
f 97/67/34 99/68/34 101/69/34 103/70/34 105/71/34 107/72/34 109/73/34 111/74/34 113/75/34 115/76/34 117/77/34 119/78/34 121/79/34 123/80/34 125/81/34 127/82/34 129/83/34 131/84/34 133/85/34 135/86/34 137/87/34 139/88/34 141/89/34 143/90/34 145/91/34 147/92/34 149/93/34 151/94/34 153/95/34 155/96/34 157/97/34 159/98/34
f 161/99/68 162/100/68 192/101/68 191/102/68 190/103/68 189/104/68 188/105/68 187/106/68 186/107/68 185/108/68 184/109/68 183/110/68 182/111/68 181/112/68 180/113/68 179/114/68 178/115/68 177/116/68 176/117/68 175/118/68 174/119/68 173/120/68 172/121/68 171/122/68 170/123/68 169/124/68 168/125/68 167/126/68 166/127/68 165/128/68 164/129/68 163/130/68
f 132/35/69 130/33/69 177/33/69 178/35/69
f 150/53/70 148/51/70 186/51/70 187/53/70
f 106/9/71 104/7/71 164/7/71 165/9/71
f 124/27/72 122/25/72 173/25/72 174/27/72
f 142/45/73 140/43/73 182/43/73 183/45/73
f 160/63/74 158/61/74 191/61/74 192/63/74
f 116/19/75 114/17/75 169/17/75 170/19/75
f 134/37/76 132/35/76 178/35/76 179/37/76
f 152/55/77 150/53/77 187/53/77 188/55/77
f 108/11/78 106/9/78 165/9/78 166/11/78
f 126/29/79 124/27/79 174/27/79 175/29/79
f 144/47/80 142/45/80 183/45/80 184/47/80
f 100/3/81 98/2/81 162/2/81 161/3/81
f 98/65/82 160/63/82 192/63/82 162/65/82
f 118/21/83 116/19/83 170/19/83 171/21/83
f 136/39/84 134/37/84 179/37/84 180/39/84
f 154/57/85 152/55/85 188/55/85 189/57/85
f 110/13/86 108/11/86 166/11/86 167/13/86
f 128/31/87 126/29/87 175/29/87 176/31/87
f 146/49/88 144/47/88 184/47/88 185/49/88
f 102/5/89 100/3/89 161/3/89 163/5/89
f 120/23/90 118/21/90 171/21/90 172/23/90
f 138/41/91 136/39/91 180/39/91 181/41/91
f 156/59/92 154/57/92 189/57/92 190/59/92
f 112/15/93 110/13/93 167/13/93 168/15/93
f 130/33/94 128/31/94 176/31/94 177/33/94
f 148/51/95 146/49/95 185/49/95 186/51/95
f 104/7/96 102/5/96 163/5/96 164/7/96
f 122/25/97 120/23/97 172/23/97 173/25/97
f 140/43/98 138/41/98 181/41/98 182/43/98
f 158/61/99 156/59/99 190/59/99 191/61/99
usemtl Material.042
f 193/1/100 194/2/100 196/3/100 195/4/100
f 195/4/10 196/3/10 198/5/10 197/6/10
f 197/6/101 198/5/101 200/7/101 199/8/101
f 199/8/12 200/7/12 202/9/12 201/10/12
f 201/10/13 202/9/13 204/11/13 203/12/13
f 203/12/102 204/11/102 206/13/102 205/14/102
f 205/14/15 206/13/15 208/15/15 207/16/15
f 207/16/103 208/15/103 210/17/103 209/18/103
f 209/18/104 210/17/104 212/19/104 211/20/104
f 211/20/18 212/19/18 214/21/18 213/22/18
f 213/22/105 214/21/105 216/23/105 215/24/105
f 215/24/20 216/23/20 218/25/20 217/26/20
f 217/26/21 218/25/21 220/27/21 219/28/21
f 219/28/106 220/27/106 222/29/106 221/30/106
f 221/30/23 222/29/23 224/31/23 223/32/23
f 223/32/107 224/31/107 226/33/107 225/34/107
f 225/34/108 226/33/108 228/35/108 227/36/108
f 227/36/26 228/35/26 230/37/26 229/38/26
f 229/38/109 230/37/109 232/39/109 231/40/109
f 231/40/28 232/39/28 234/41/28 233/42/28
f 233/42/29 234/41/29 236/43/29 235/44/29
f 235/44/110 236/43/110 238/45/110 237/46/110
f 237/46/32 238/45/32 240/47/32 239/48/32
f 239/48/111 240/47/111 242/49/111 241/50/111
f 241/50/112 242/49/112 244/51/112 243/52/112
f 243/52/2 244/51/2 246/53/2 245/54/2
f 245/54/113 246/53/113 248/55/113 247/56/113
f 247/56/4 248/55/4 250/57/4 249/58/4
f 249/58/5 250/57/5 252/59/5 251/60/5
f 251/60/114 252/59/114 254/61/114 253/62/114
f 210/17/115 208/15/115 264/15/115 265/17/115
f 253/62/7 254/61/7 256/63/7 255/64/7
f 255/64/116 256/63/116 194/65/116 193/66/116
f 193/67/34 195/68/34 197/69/34 199/70/34 201/71/34 203/72/34 205/73/34 207/74/34 209/75/34 211/76/34 213/77/34 215/78/34 217/79/34 219/80/34 221/81/34 223/82/34 225/83/34 227/84/34 229/85/34 231/86/34 233/87/34 235/88/34 237/89/34 239/90/34 241/91/34 243/92/34 245/93/34 247/94/34 249/95/34 251/96/34 253/97/34 255/98/34
f 257/99/117 258/100/117 288/101/117 287/102/117 286/103/117 285/104/117 284/105/117 283/106/117 282/107/117 281/108/117 280/109/117 279/110/117 278/111/117 277/112/117 276/113/117 275/114/117 274/115/117 273/116/117 272/117/117 271/118/117 270/119/117 269/120/117 268/121/117 267/122/117 266/123/117 265/124/117 264/125/117 263/126/117 262/127/117 261/128/117 260/129/117 259/130/117
f 228/35/118 226/33/118 273/33/118 274/35/118
f 246/53/119 244/51/119 282/51/119 283/53/119
f 202/9/120 200/7/120 260/7/120 261/9/120
f 220/27/121 218/25/121 269/25/121 270/27/121
f 238/45/122 236/43/122 278/43/122 279/45/122
f 256/63/123 254/61/123 287/61/123 288/63/123
f 212/19/124 210/17/124 265/17/124 266/19/124
f 230/37/125 228/35/125 274/35/125 275/37/125
f 248/55/126 246/53/126 283/53/126 284/55/126
f 204/11/127 202/9/127 261/9/127 262/11/127
f 222/29/128 220/27/128 270/27/128 271/29/128
f 240/47/129 238/45/129 279/45/129 280/47/129
f 196/3/130 194/2/130 258/2/130 257/3/130
f 194/65/131 256/63/131 288/63/131 258/65/131
f 214/21/132 212/19/132 266/19/132 267/21/132
f 232/39/133 230/37/133 275/37/133 276/39/133
f 250/57/134 248/55/134 284/55/134 285/57/134
f 206/13/135 204/11/135 262/11/135 263/13/135
f 224/31/136 222/29/136 271/29/136 272/31/136
f 242/49/137 240/47/137 280/47/137 281/49/137
f 198/5/138 196/3/138 257/3/138 259/5/138
f 216/23/139 214/21/139 267/21/139 268/23/139
f 234/41/140 232/39/140 276/39/140 277/41/140
f 252/59/141 250/57/141 285/57/141 286/59/141
f 208/15/142 206/13/142 263/13/142 264/15/142
f 226/33/143 224/31/143 272/31/143 273/33/143
f 244/51/144 242/49/144 281/49/144 282/51/144
f 200/7/145 198/5/145 259/5/145 260/7/145
f 218/25/146 216/23/146 268/23/146 269/25/146
f 236/43/147 234/41/147 277/41/147 278/43/147
f 254/61/148 252/59/148 286/59/148 287/61/148
usemtl Material.043
f 289/1/108 290/2/108 292/3/108 291/4/108
f 291/4/26 292/3/26 294/5/26 293/6/26
f 293/6/109 294/5/109 296/7/109 295/8/109
f 295/8/28 296/7/28 298/9/28 297/10/28
f 297/10/29 298/9/29 300/11/29 299/12/29
f 299/12/110 300/11/110 302/13/110 301/14/110
f 301/14/32 302/13/32 304/15/32 303/16/32
f 303/16/111 304/15/111 306/17/111 305/18/111
f 305/18/112 306/17/112 308/19/112 307/20/112
f 307/20/2 308/19/2 310/21/2 309/22/2
f 309/22/113 310/21/113 312/23/113 311/24/113
f 311/24/4 312/23/4 314/25/4 313/26/4
f 313/26/5 314/25/5 316/27/5 315/28/5
f 315/28/114 316/27/114 318/29/114 317/30/114
f 317/30/7 318/29/7 320/31/7 319/32/7
f 319/32/116 320/31/116 322/33/116 321/34/116
f 321/34/100 322/33/100 324/35/100 323/36/100
f 323/36/10 324/35/10 326/37/10 325/38/10
f 325/38/101 326/37/101 328/39/101 327/40/101
f 327/40/12 328/39/12 330/41/12 329/42/12
f 329/42/13 330/41/13 332/43/13 331/44/13
f 331/44/102 332/43/102 334/45/102 333/46/102
f 333/46/15 334/45/15 336/47/15 335/48/15
f 335/48/103 336/47/103 338/49/103 337/50/103
f 337/50/104 338/49/104 340/51/104 339/52/104
f 339/52/18 340/51/18 342/53/18 341/54/18
f 341/54/105 342/53/105 344/55/105 343/56/105
f 343/56/20 344/55/20 346/57/20 345/58/20
f 345/58/21 346/57/21 348/59/21 347/60/21
f 347/60/106 348/59/106 350/61/106 349/62/106
f 306/17/149 304/15/149 360/15/149 361/17/149
f 349/62/23 350/61/23 352/63/23 351/64/23
f 351/64/107 352/63/107 290/65/107 289/66/107
f 289/67/34 291/68/34 293/69/34 295/70/34 297/71/34 299/72/34 301/73/34 303/74/34 305/75/34 307/76/34 309/77/34 311/78/34 313/79/34 315/80/34 317/81/34 319/82/34 321/83/34 323/84/34 325/85/34 327/86/34 329/87/34 331/88/34 333/89/34 335/90/34 337/91/34 339/92/34 341/93/34 343/94/34 345/95/34 347/96/34 349/97/34 351/98/34
f 353/99/150 354/100/150 384/101/150 383/102/150 382/103/150 381/104/150 380/105/150 379/106/150 378/107/150 377/108/150 376/109/150 375/110/150 374/111/150 373/112/150 372/113/150 371/114/150 370/115/150 369/116/150 368/117/150 367/118/150 366/119/150 365/120/150 364/121/150 363/122/150 362/123/150 361/124/150 360/125/150 359/126/150 358/127/150 357/128/150 356/129/150 355/130/150
f 324/35/151 322/33/151 369/33/151 370/35/151
f 342/53/152 340/51/152 378/51/152 379/53/152
f 298/9/153 296/7/153 356/7/153 357/9/153
f 316/27/154 314/25/154 365/25/154 366/27/154
f 334/45/155 332/43/155 374/43/155 375/45/155
f 352/63/156 350/61/156 383/61/156 384/63/156
f 308/19/157 306/17/157 361/17/157 362/19/157
f 326/37/158 324/35/158 370/35/158 371/37/158
f 344/55/159 342/53/159 379/53/159 380/55/159
f 300/11/160 298/9/160 357/9/160 358/11/160
f 318/29/161 316/27/161 366/27/161 367/29/161
f 336/47/162 334/45/162 375/45/162 376/47/162
f 292/3/163 290/2/163 354/2/163 353/3/163
f 290/65/164 352/63/164 384/63/164 354/65/164
f 310/21/165 308/19/165 362/19/165 363/21/165
f 328/39/166 326/37/166 371/37/166 372/39/166
f 346/57/167 344/55/167 380/55/167 381/57/167
f 302/13/168 300/11/168 358/11/168 359/13/168
f 320/31/169 318/29/169 367/29/169 368/31/169
f 338/49/170 336/47/170 376/47/170 377/49/170
f 294/5/171 292/3/171 353/3/171 355/5/171
f 312/23/172 310/21/172 363/21/172 364/23/172
f 330/41/173 328/39/173 372/39/173 373/41/173
f 348/59/174 346/57/174 381/57/174 382/59/174
f 304/15/175 302/13/175 359/13/175 360/15/175
f 322/33/176 320/31/176 368/31/176 369/33/176
f 340/51/177 338/49/177 377/49/177 378/51/177
f 296/7/178 294/5/178 355/5/178 356/7/178
f 314/25/179 312/23/179 364/23/179 365/25/179
f 332/43/180 330/41/180 373/41/180 374/43/180
f 350/61/181 348/59/181 382/59/181 383/61/181
