# Blender 5.2.0 LTS
# www.blender.org
mtllib c.mtl
o Cube.034
v 94.972557 22.121141 -0.744016
v 94.744019 22.121141 -0.972556
v 94.744019 22.121141 0.972556
v 93.027451 22.121141 0.744016
v 93.255989 22.121141 0.972556
v 93.027451 22.121141 -0.744016
v 93.255989 22.121141 -0.972556
v 94.972557 22.121141 0.744016
v 94.905556 22.121141 -0.688368
v 94.688370 22.121141 -0.905549
v 94.688370 22.121141 0.905549
v 93.094452 22.121141 0.688368
v 93.311638 22.121141 0.905549
v 93.094452 22.121141 -0.688368
v 93.311638 22.121141 -0.905549
v 94.905556 22.121141 0.688368
v 94.972557 22.480072 -0.744016
v 94.940826 22.521141 -0.717665
v 94.970146 22.495789 -0.742011
v 94.963264 22.509113 -0.736298
v 94.952972 22.518015 -0.727750
v 94.717667 22.521141 -0.940826
v 94.744019 22.480072 -0.972556
v 94.727753 22.518015 -0.952969
v 94.736305 22.509113 -0.963262
v 94.742012 22.495789 -0.970140
v 93.027451 22.480072 0.744016
v 93.059181 22.521141 0.717665
v 93.029861 22.495789 0.742010
v 93.036743 22.509113 0.736298
v 93.047035 22.518015 0.727749
v 93.282341 22.521141 0.940826
v 93.255989 22.480072 0.972556
v 93.272255 22.518015 0.952968
v 93.263702 22.509113 0.963262
v 93.257996 22.495789 0.970140
v 93.255989 22.480072 -0.972556
v 93.282341 22.521141 -0.940826
v 93.257996 22.495789 -0.970140
v 93.263702 22.509113 -0.963262
v 93.272255 22.518015 -0.952968
v 93.059181 22.521141 -0.717665
v 93.027451 22.480072 -0.744016
v 93.047035 22.518015 -0.727750
v 93.036743 22.509113 -0.736298
v 93.029861 22.495789 -0.742011
v 94.744019 22.480072 0.972556
v 94.717667 22.521141 0.940826
v 94.742012 22.495789 0.970140
v 94.736305 22.509113 0.963262
v 94.727753 22.518015 0.952968
v 94.940826 22.521141 0.717665
v 94.972557 22.480072 0.744016
v 94.952972 22.518015 0.727750
v 94.963264 22.509113 0.736298
v 94.970146 22.495789 0.742011
v 94.937279 22.521141 -0.714719
v 94.905556 22.480072 -0.688368
v 94.925140 22.518015 -0.704635
v 94.914848 22.509113 -0.696086
v 94.907967 22.495789 -0.690374
v 94.688370 22.480072 -0.905549
v 94.714722 22.521141 -0.937278
v 94.690376 22.495789 -0.907964
v 94.696091 22.509113 -0.914842
v 94.704636 22.518015 -0.925136
v 93.062729 22.521141 0.714719
v 93.094452 22.480072 0.688368
v 93.074867 22.518015 0.704635
v 93.085159 22.509113 0.696086
v 93.092041 22.495789 0.690374
v 93.311638 22.480072 0.905549
v 93.285286 22.521141 0.937278
v 93.309631 22.495789 0.907964
v 93.303917 22.509113 0.914842
v 93.295372 22.518015 0.925136
v 93.285286 22.521141 -0.937278
v 93.311638 22.480072 -0.905549
v 93.295372 22.518015 -0.925136
v 93.303917 22.509113 -0.914842
v 93.309631 22.495789 -0.907964
v 93.094452 22.480072 -0.688368
v 93.062729 22.521141 -0.714719
v 93.092041 22.495789 -0.690374
v 93.085159 22.509113 -0.696086
v 93.074867 22.518015 -0.704635
v 94.714722 22.521141 0.937279
v 94.688370 22.480072 0.905549
v 94.704636 22.518015 0.925136
v 94.696091 22.509113 0.914842
v 94.690376 22.495789 0.907964
v 94.905556 22.480072 0.688368
v 94.937279 22.521141 0.714719
v 94.907967 22.495789 0.690374
v 94.914848 22.509113 0.696086
v 94.925140 22.518015 0.704635
vn 0.6935 0.1951 -0.6935
vn 0.5879 0.5556 -0.5879
vn 0.3929 0.8315 -0.3928
vn 0.1379 0.9808 -0.1379
vn -0.6935 0.1951 0.6935
vn -0.5879 0.5556 0.5879
vn -0.3929 0.8315 0.3928
vn -0.1379 0.9808 0.1379
vn -0.6935 0.1951 -0.6935
vn -0.5879 0.5556 -0.5879
vn -0.3929 0.8315 -0.3928
vn -0.1379 0.9808 -0.1379
vn 0.6935 0.1951 0.6935
vn 0.5879 0.5556 0.5879
vn 0.3929 0.8315 0.3928
vn 0.1379 0.9808 0.1379
vn -0.1380 0.9808 0.1379
vn -0.3928 0.8315 0.3928
vn 0.1380 0.9808 -0.1379
vn 0.3928 0.8315 -0.3928
vn 0.1380 0.9808 0.1379
vn 0.3928 0.8315 0.3928
vn 0.5880 0.5556 0.5879
vn -0.1380 0.9808 -0.1379
vn -0.3928 0.8315 -0.3928
vn -0.5880 0.5556 -0.5879
vn 0.7071 -0.0000 -0.7071
vn -0.0000 1.0000 -0.0000
vn 0.6389 -0.0000 0.7693
vn -0.7693 -0.0000 -0.6389
vn -0.7071 -0.0000 0.7071
vn -0.6389 -0.0000 -0.7693
vn 0.7693 -0.0000 0.6389
vn -0.7071 -0.0000 -0.7071
vn 0.7693 -0.0000 -0.6389
vn -0.6389 -0.0000 0.7693
vn 0.7071 -0.0000 0.7071
vn 0.0001 1.0000 -0.0000
vn -0.7693 -0.0000 0.6389
vn 0.6389 -0.0000 -0.7693
vt 0.000000 0.000000
s 0
usemtl Material.078
f 17/1/1 23/1/1 26/1/1 19/1/1
f 19/1/2 26/1/2 25/1/2 20/1/2
f 20/1/3 25/1/3 24/1/3 21/1/3
f 21/1/4 24/1/4 22/1/4 18/1/4
f 27/1/5 33/1/5 36/1/5 29/1/5
f 29/1/6 36/1/6 35/1/6 30/1/6
f 30/1/7 35/1/7 34/1/7 31/1/7
f 31/1/8 34/1/8 32/1/8 28/1/8
f 37/1/9 43/1/9 46/1/9 39/1/9
f 39/1/10 46/1/10 45/1/10 40/1/10
f 40/1/11 45/1/11 44/1/11 41/1/11
f 41/1/12 44/1/12 42/1/12 38/1/12
f 47/1/13 53/1/13 56/1/13 49/1/13
f 49/1/14 56/1/14 55/1/14 50/1/14
f 50/1/15 55/1/15 54/1/15 51/1/15
f 51/1/16 54/1/16 52/1/16 48/1/16
f 57/1/17 63/1/17 66/1/17 59/1/17
f 59/1/18 66/1/18 65/1/18 60/1/18
f 60/1/6 65/1/6 64/1/6 61/1/6
f 61/1/5 64/1/5 62/1/5 58/1/5
f 67/1/19 73/1/19 76/1/19 69/1/19
f 69/1/20 76/1/20 75/1/20 70/1/20
f 70/1/2 75/1/2 74/1/2 71/1/2
f 71/1/1 74/1/1 72/1/1 68/1/1
f 77/1/21 83/1/21 86/1/21 79/1/21
f 79/1/22 86/1/22 85/1/22 80/1/22
f 80/1/23 85/1/23 84/1/23 81/1/23
f 81/1/13 84/1/13 82/1/13 78/1/13
f 87/1/24 93/1/24 96/1/24 89/1/24
f 89/1/25 96/1/25 95/1/25 90/1/25
f 90/1/26 95/1/26 94/1/26 91/1/26
f 91/1/9 94/1/9 92/1/9 88/1/9
f 1/1/27 2/1/27 23/1/27 17/1/27
f 63/1/28 57/1/28 18/1/28 22/1/28
f 9/1/29 1/1/29 17/1/29 19/1/29 20/1/29 21/1/29 18/1/29 57/1/29 59/1/29 60/1/29 61/1/29 58/1/29
f 2/1/30 10/1/30 62/1/30 64/1/30 65/1/30 66/1/30 63/1/30 22/1/30 24/1/30 25/1/30 26/1/30 23/1/30
f 4/1/31 5/1/31 33/1/31 27/1/31
f 73/1/28 67/1/28 28/1/28 32/1/28
f 12/1/32 4/1/32 27/1/32 29/1/32 30/1/32 31/1/32 28/1/32 67/1/32 69/1/32 70/1/32 71/1/32 68/1/32
f 5/1/33 13/1/33 72/1/33 74/1/33 75/1/33 76/1/33 73/1/33 32/1/33 34/1/33 35/1/33 36/1/33 33/1/33
f 7/1/34 6/1/34 43/1/34 37/1/34
f 83/1/28 77/1/28 38/1/28 42/1/28
f 15/1/35 7/1/35 37/1/35 39/1/35 40/1/35 41/1/35 38/1/35 77/1/35 79/1/35 80/1/35 81/1/35 78/1/35
f 6/1/36 14/1/36 82/1/36 84/1/36 85/1/36 86/1/36 83/1/36 42/1/36 44/1/36 45/1/36 46/1/36 43/1/36
f 3/1/37 8/1/37 53/1/37 47/1/37
f 93/1/38 87/1/38 48/1/38 52/1/38
f 11/1/39 3/1/39 47/1/39 49/1/39 50/1/39 51/1/39 48/1/39 87/1/39 89/1/39 90/1/39 91/1/39 88/1/39
f 8/1/40 16/1/40 92/1/40 94/1/40 95/1/40 96/1/40 93/1/40 52/1/40 54/1/40 55/1/40 56/1/40 53/1/40
f 10/1/31 9/1/31 58/1/31 62/1/31
f 13/1/27 12/1/27 68/1/27 72/1/27
f 14/1/37 15/1/37 78/1/37 82/1/37
f 16/1/34 11/1/34 88/1/34 92/1/34
