# Blender 5.2.0 LTS
# www.blender.org
mtllib d.mtl
o Cube.033
v 92.547150 18.894697 0.297022
v 92.466652 18.975191 0.377517
v 92.466652 18.975191 -0.377517
v 92.547150 18.894697 -0.297022
v 95.533348 18.975191 -0.377517
v 95.452850 18.894697 -0.297022
v 93.702980 18.894697 1.452852
v 93.622482 18.975191 1.533347
v 94.377518 18.975191 1.533347
v 94.297020 18.894697 1.452852
v 95.533348 18.975191 0.377517
v 95.452850 18.894697 0.297022
v 94.297020 18.894697 -1.452852
v 94.377518 18.975191 -1.533347
v 93.702980 18.894697 -1.452852
v 93.622482 18.975191 -1.533347
v 94.297020 15.961867 1.452852
v 94.377518 15.881371 1.533347
v 94.377518 15.881371 -1.533347
v 94.297020 15.961867 -1.452852
v 92.466652 15.881371 -0.377517
v 92.547150 15.961866 -0.297022
v 93.622482 15.881371 1.533347
v 93.702980 15.961867 1.452852
v 93.702980 15.961866 -1.452852
v 93.622482 15.881371 -1.533347
v 95.533348 15.881371 0.377517
v 95.452850 15.961866 0.297022
v 95.452850 15.961867 -0.297022
v 95.533348 15.881371 -0.377517
v 92.547150 15.961866 0.297022
v 92.466652 15.881371 0.377517
v 94.297020 18.183500 1.452852
v 94.377518 18.263996 1.533347
v 94.297020 18.344492 1.452852
v 94.297020 18.183500 -1.452852
v 94.297020 18.344492 -1.452852
v 94.377518 18.263996 -1.533347
v 93.702980 18.183500 1.452852
v 93.702980 18.344492 1.452852
v 93.622482 18.263996 1.533347
v 95.452850 18.183500 -0.297022
v 95.533348 18.263996 -0.377517
v 95.452850 18.344492 -0.297022
v 94.297020 16.630205 1.452852
v 94.297020 16.469215 1.452852
v 94.377518 16.549711 1.533347
v 94.297020 17.487349 1.452852
v 94.297020 17.326359 1.452852
v 94.377518 17.406853 1.533347
v 94.297020 16.630205 -1.452852
v 94.377518 16.549711 -1.533347
v 94.297020 16.469215 -1.452852
v 94.297020 17.487349 -1.452852
v 94.377518 17.406853 -1.533347
v 94.297020 17.326359 -1.452852
v 92.547150 18.183500 -0.297022
v 92.547150 18.344492 -0.297022
v 92.466652 18.263996 -0.377517
v 92.547150 17.326359 -0.297022
v 92.547150 17.487349 -0.297022
v 92.466652 17.406853 -0.377517
v 92.547150 16.469215 -0.297022
v 92.547150 16.630205 -0.297022
v 92.466652 16.549709 -0.377517
v 93.702980 16.630205 1.452852
v 93.622482 16.549711 1.533347
v 93.702980 16.469215 1.452852
v 93.702980 17.487349 1.452852
v 93.622482 17.406853 1.533347
v 93.702980 17.326359 1.452852
v 93.702980 18.183500 -1.452852
v 93.622482 18.263996 -1.533347
v 93.702980 18.344492 -1.452852
v 93.702980 17.326359 -1.452852
v 93.622482 17.406853 -1.533347
v 93.702980 17.487349 -1.452852
v 93.702980 16.469215 -1.452852
v 93.622482 16.549709 -1.533347
v 93.702980 16.630205 -1.452852
v 95.452850 18.183500 0.297022
v 95.452850 18.344492 0.297022
v 95.533348 18.263996 0.377517
v 95.452850 17.326359 0.297022
v 95.452850 17.487349 0.297022
v 95.533348 17.406853 0.377517
v 95.452850 16.469215 0.297022
v 95.452850 16.630205 0.297022
v 95.533348 16.549709 0.377517
v 95.452850 16.630205 -0.297022
v 95.452850 16.469215 -0.297022
v 95.533348 16.549711 -0.377517
v 95.452850 17.487349 -0.297022
v 95.452850 17.326359 -0.297022
v 95.533348 17.406853 -0.377517
v 92.547150 18.183500 0.297022
v 92.466652 18.263996 0.377517
v 92.547150 18.344492 0.297022
v 92.547150 17.326359 0.297022
v 92.466652 17.406853 0.377517
v 92.547150 17.487349 0.297022
v 92.547150 16.469215 0.297022
v 92.466652 16.549709 0.377517
v 92.547150 16.630205 0.297022
v 95.534927 19.848152 0.493486
v 95.488205 19.848381 0.745933
v 95.511200 20.016619 0.483788
v 95.464973 20.016853 0.733584
v 95.469658 20.309692 0.472300
v 95.424896 20.309919 0.714129
v 95.445938 20.478159 0.462605
v 95.401672 20.478392 0.701781
v 95.404388 20.771231 0.451115
v 95.361595 20.771458 0.682324
v 95.380669 20.939697 0.441423
v 95.338371 20.939930 0.669979
v 94.493484 19.848154 1.534926
v 93.506516 19.848154 1.534926
v 94.483788 20.016621 1.511201
v 93.516212 20.016621 1.511201
v 94.472305 20.309692 1.469658
v 93.527702 20.309692 1.469658
v 94.462608 20.478159 1.445933
v 93.537399 20.478159 1.445933
v 94.451118 20.771231 1.404390
v 93.548889 20.771231 1.404390
v 94.441422 20.939697 1.380664
v 93.558578 20.939697 1.380664
v 94.745934 19.848381 1.488202
v 94.733582 20.016853 1.464975
v 94.714127 20.309919 1.424897
v 94.701782 20.478392 1.401670
v 94.682327 20.771458 1.361593
v 94.669983 20.939930 1.338366
v 94.956924 19.848270 -1.343426
v 95.343430 19.848270 -0.956926
v 94.942543 20.016798 -1.322034
v 95.322037 20.016798 -0.942543
v 94.916245 20.309811 -1.286204
v 95.286209 20.309811 -0.916245
v 94.901863 20.478336 -1.264812
v 95.264816 20.478336 -0.901862
v 94.875565 20.771349 -1.228982
v 95.228981 20.771349 -0.875565
v 94.861183 20.939875 -1.207591
v 95.207596 20.939875 -0.861181
v 94.493484 19.848154 -1.534926
v 94.745934 19.848381 -1.488201
v 94.483788 20.016621 -1.511201
v 94.733582 20.016853 -1.464975
v 94.472305 20.309692 -1.469658
v 94.714127 20.309919 -1.424897
v 94.462608 20.478159 -1.445933
v 94.701782 20.478392 -1.401670
v 94.451118 20.771231 -1.404390
v 94.682327 20.771458 -1.361593
v 94.441422 20.939697 -1.380664
v 94.669983 20.939930 -1.338366
v 95.488205 19.848381 -0.745933
v 95.534927 19.848152 -0.493486
v 95.464973 20.016853 -0.733584
v 95.511200 20.016619 -0.483788
v 95.424896 20.309919 -0.714129
v 95.469658 20.309692 -0.472300
v 95.401672 20.478392 -0.701781
v 95.445938 20.478159 -0.462605
v 95.361595 20.771458 -0.682324
v 95.404388 20.771231 -0.451115
v 95.338371 20.939930 -0.669979
v 95.380669 20.939697 -0.441423
v 92.465073 19.848152 -0.493486
v 92.511803 19.848379 -0.745933
v 92.488800 20.016619 -0.483788
v 92.535027 20.016853 -0.733584
v 92.530342 20.309692 -0.472300
v 92.575104 20.309919 -0.714129
v 92.554070 20.478159 -0.462605
v 92.598335 20.478392 -0.701782
v 92.595612 20.771231 -0.451115
v 92.638412 20.771458 -0.682325
v 92.619339 20.939697 -0.441423
v 92.661636 20.939930 -0.669979
v 93.254066 19.848379 -1.488202
v 93.506516 19.848154 -1.534926
v 93.266418 20.016853 -1.464975
v 93.516212 20.016621 -1.511202
v 93.285873 20.309919 -1.424897
v 93.527702 20.309692 -1.469658
v 93.298218 20.478392 -1.401670
v 93.537399 20.478159 -1.445933
v 93.317680 20.771458 -1.361593
v 93.548889 20.771231 -1.404390
v 93.330025 20.939930 -1.338366
v 93.558578 20.939697 -1.380664
v 92.511803 19.848379 0.745933
v 92.465073 19.848152 0.493486
v 92.535027 20.016853 0.733584
v 92.488800 20.016619 0.483788
v 92.575104 20.309919 0.714129
v 92.530342 20.309692 0.472300
v 92.598328 20.478392 0.701781
v 92.554070 20.478159 0.462605
v 92.638412 20.771458 0.682324
v 92.595612 20.771231 0.451115
v 92.661636 20.939930 0.669979
v 92.619339 20.939697 0.441423
v 92.656578 19.848270 0.956926
v 92.677971 20.016798 0.942543
v 92.713799 20.309811 0.916245
v 92.735191 20.478336 0.901862
v 92.771019 20.771349 0.875565
v 92.792412 20.939875 0.861181
v 95.343430 19.848270 0.956926
v 95.322037 20.016798 0.942543
v 95.286209 20.309811 0.916245
v 95.264816 20.478336 0.901862
v 95.228981 20.771349 0.875565
v 95.207596 20.939875 0.861181
v 94.956924 19.848270 1.343426
v 94.942543 20.016798 1.322034
v 94.916245 20.309811 1.286204
v 94.901863 20.478336 1.264812
v 94.875565 20.771349 1.228982
v 94.861183 20.939875 1.207591
v 92.656578 19.848270 -0.956926
v 93.043076 19.848270 -1.343426
v 92.677971 20.016798 -0.942543
v 93.057457 20.016798 -1.322034
v 92.713799 20.309811 -0.916246
v 93.083755 20.309811 -1.286204
v 92.735191 20.478336 -0.901862
v 93.098137 20.478336 -1.264812
v 92.771019 20.771349 -0.875565
v 93.124435 20.771349 -1.228982
v 92.792412 20.939875 -0.861181
v 93.138824 20.939875 -1.207591
v 93.254066 19.848379 1.488202
v 93.043076 19.848270 1.343426
v 93.266418 20.016853 1.464975
v 93.057457 20.016798 1.322034
v 93.285873 20.309919 1.424897
v 93.083755 20.309811 1.286204
v 93.298218 20.478392 1.401670
v 93.098137 20.478336 1.264812
v 93.317680 20.771458 1.361593
v 93.124435 20.771349 1.228982
v 93.330025 20.939930 1.338366
v 93.138824 20.939875 1.207591
v 95.132072 22.023371 0.300819
v 95.132072 22.023371 -0.300819
v 92.867935 22.023371 -0.300819
v 92.867935 22.023371 0.300819
v 93.699188 22.023371 1.132069
v 94.300819 22.023371 1.132069
v 94.300819 22.023371 -1.132069
v 93.699188 22.023371 -1.132069
v 95.270348 21.045567 -0.345699
v 93.654305 21.045567 -1.270345
v 93.654305 21.045567 1.270345
v 92.729660 21.045567 0.345699
v 95.270348 21.045567 0.345699
v 94.345703 21.045567 1.270345
v 94.345703 21.045567 -1.270345
v 92.729660 21.045567 -0.345699
v 95.152824 21.876627 -0.307554
v 93.692451 21.876627 -1.152821
v 93.692451 21.876627 1.152821
v 92.847183 21.876627 0.307554
v 95.250725 21.184319 -0.339330
v 95.218094 21.415089 -0.328738
v 95.185455 21.645859 -0.318146
v 95.152824 21.876627 0.307554
v 95.185455 21.645859 0.318146
v 95.218094 21.415089 0.328738
v 95.250725 21.184319 0.339330
v 93.660675 21.184319 -1.250724
v 93.671265 21.415089 -1.218090
v 93.681854 21.645857 -1.185456
v 94.307556 21.876627 -1.152821
v 94.318146 21.645859 -1.185455
v 94.328743 21.415089 -1.218089
v 94.339333 21.184319 -1.250723
v 93.660675 21.184319 1.250724
v 93.671265 21.415089 1.218090
v 93.681854 21.645857 1.185456
v 92.749283 21.184319 0.339330
v 92.781914 21.415089 0.328738
v 92.814545 21.645857 0.318146
v 92.847183 21.876627 -0.307554
v 92.814545 21.645857 -0.318146
v 92.781914 21.415089 -0.328738
v 92.749275 21.184319 -0.339330
v 94.307556 21.876627 1.152821
v 94.318146 21.645859 1.185455
v 94.328743 21.415089 1.218089
v 94.339333 21.184319 1.250723
vn -0.7071 -0.0000 0.7071
vn -0.7071 -0.0000 -0.7071
vn 0.7071 -0.0000 0.7071
vn 0.7071 -0.0000 -0.7071
vn 1.0000 -0.0000 -0.0000
vn -0.0000 -0.0000 1.0000
vn -1.0000 -0.0000 -0.0000
vn -0.0000 -0.0000 -1.0000
vn 0.7071 -0.7071 -0.0000
vn -0.7071 -0.7071 -0.0000
vn -0.0000 -0.7071 0.7071
vn -0.0000 -0.7071 -0.7071
vn -0.0000 0.7071 -0.7071
vn -0.7071 0.7071 -0.0000
vn -0.0000 0.7071 0.7071
vn 0.7071 0.7071 -0.0000
vn 0.9726 0.1473 0.1799
vn -0.0000 0.1395 0.9902
vn 0.1799 0.1473 0.9726
vn 0.6993 0.1484 -0.6993
vn 0.1799 0.1473 -0.9726
vn 0.9726 0.1473 -0.1799
vn -0.9726 0.1473 -0.1799
vn -0.1799 0.1473 -0.9726
vn -0.9726 0.1473 0.1799
vn -0.8153 0.1523 0.5586
vn 0.8153 0.1523 0.5586
vn 0.5586 0.1523 0.8153
vn -0.6993 0.1484 -0.6993
vn 0.6993 0.1484 0.6993
vn -0.9902 0.1395 -0.0000
vn -0.8153 0.1523 -0.5586
vn -0.5586 0.1523 0.8153
vn 0.5586 0.1523 -0.8153
vn -0.6993 0.1484 0.6993
vn -0.1799 0.1473 0.9726
vn 0.8153 0.1523 -0.5586
vn -0.0000 0.1395 -0.9902
vn -0.5586 0.1523 -0.8153
vn 0.9902 0.1395 -0.0000
vn 0.9901 0.1400 -0.0000
vn -0.0000 0.1400 -0.9901
vn -0.9901 0.1400 -0.0000
vn -0.0000 0.1400 0.9901
vt 0.681286 0.795693
vt 0.671282 0.799458
vt 0.681287 0.795693
vt 0.681287 0.454307
vt 0.681287 0.454307
vt 0.671282 0.450542
vt 0.755118 0.767903
vt 0.755118 0.767903
vt 0.765122 0.764137
vt 0.625000 0.601979
vt 0.625000 0.595740
vt 0.625000 0.601979
vt 0.681287 0.795693
vt 0.681287 0.795693
vt 0.671282 0.799458
vt 0.681287 0.795693
vt 0.681287 0.454307
vt 0.681287 0.454307
vt 0.681287 0.454307
vt 0.671282 0.450542
vt 0.681287 0.454307
vt 0.875000 0.601979
vt 0.875000 0.595741
vt 0.875000 0.601979
vt 0.875000 0.601979
vt 0.875000 0.595741
vt 0.875000 0.601979
vt 0.755118 0.767903
vt 0.755118 0.767903
vt 0.755118 0.482097
vt 0.765122 0.485863
vt 0.755118 0.482097
vt 0.755118 0.482097
vt 0.765122 0.485863
vt 0.755118 0.482097
vt 0.755118 0.482097
vt 0.625000 0.648021
vt 0.625000 0.648021
vt 0.625000 0.654259
vt 0.625000 0.648021
vt 0.625000 0.648021
vt 0.625000 0.654259
vt 0.625000 0.648021
vt 0.625000 0.648021
vt 0.625000 0.601979
vt 0.625000 0.595741
vt 0.625000 0.601979
vt 0.875000 0.648021
vt 0.875000 0.654260
vt 0.875000 0.648021
vt 0.875000 0.648021
vt 0.875000 0.654259
vt 0.875000 0.648021
vt 0.875000 0.648021
vt 0.671282 0.799458
vt 0.681287 0.454307
vt 0.671282 0.450542
vt 0.755118 0.767903
vt 0.765122 0.764137
vt 0.625000 0.601979
vt 0.875000 0.648021
vt 0.875000 0.654260
vt 0.875000 0.595741
vt 0.755118 0.482097
vt 0.765122 0.485863
vt 0.671282 0.799458
vt 0.671282 0.450542
vt 0.765122 0.764137
vt 0.625000 0.595740
vt 0.755118 0.482097
vt 0.765122 0.485863
vt 0.625000 0.654259
vt 0.875000 0.648021
vt 0.875000 0.654260
vt 0.625861 0.687315
vt 0.625000 0.665652
vt 0.625000 0.665490
vt 0.625852 0.687261
vt 0.625862 0.687316
vt 0.625000 0.665656
vt 0.625000 0.665486
vt 0.625852 0.687260
vt 0.625862 0.687317
vt 0.625000 0.665660
vt 0.625000 0.665482
vt 0.625852 0.687259
vt 0.783361 0.757271
vt 0.653121 0.806224
vt 0.653165 0.806348
vt 0.783161 0.757348
vt 0.783365 0.757269
vt 0.653120 0.806222
vt 0.653166 0.806351
vt 0.783157 0.757350
vt 0.783369 0.757268
vt 0.653119 0.806219
vt 0.653167 0.806354
vt 0.783153 0.757352
vt 0.647096 0.789588
vt 0.647109 0.789637
vt 0.647096 0.789587
vt 0.647110 0.789638
vt 0.647095 0.789586
vt 0.647110 0.789639
vt 0.630131 0.536849
vt 0.640705 0.483987
vt 0.640688 0.484048
vt 0.630142 0.536783
vt 0.630131 0.536851
vt 0.640705 0.483986
vt 0.640688 0.484049
vt 0.630143 0.536781
vt 0.630131 0.536852
vt 0.640706 0.483984
vt 0.640688 0.484050
vt 0.630143 0.536780
vt 0.647096 0.460412
vt 0.653013 0.443665
vt 0.653274 0.443763
vt 0.647109 0.460363
vt 0.647096 0.460413
vt 0.653007 0.443663
vt 0.653279 0.443765
vt 0.647109 0.460362
vt 0.647095 0.460414
vt 0.653001 0.443661
vt 0.653285 0.443768
vt 0.647110 0.460361
vt 0.625000 0.584348
vt 0.625861 0.562685
vt 0.625853 0.562739
vt 0.625000 0.584510
vt 0.625000 0.584344
vt 0.625862 0.562684
vt 0.625852 0.562740
vt 0.625000 0.584514
vt 0.625000 0.584340
vt 0.625862 0.562683
vt 0.625852 0.562741
vt 0.625000 0.584518
vt 0.871020 0.564040
vt 0.875000 0.584348
vt 0.875000 0.584510
vt 0.871044 0.564075
vt 0.871019 0.564039
vt 0.875000 0.584344
vt 0.875000 0.584514
vt 0.871044 0.564076
vt 0.871019 0.564039
vt 0.875000 0.584340
vt 0.875000 0.584518
vt 0.871045 0.564077
vt 0.783392 0.492739
vt 0.810108 0.503119
vt 0.810071 0.503093
vt 0.783131 0.492641
vt 0.783397 0.492741
vt 0.810109 0.503119
vt 0.810070 0.503093
vt 0.783125 0.492639
vt 0.783404 0.492744
vt 0.810109 0.503120
vt 0.810069 0.503092
vt 0.783119 0.492637
vt 0.875000 0.665652
vt 0.871020 0.685960
vt 0.871044 0.685924
vt 0.875000 0.665490
vt 0.875000 0.665656
vt 0.871020 0.685960
vt 0.871044 0.685924
vt 0.875000 0.665486
vt 0.875000 0.665660
vt 0.871019 0.685961
vt 0.871045 0.685923
vt 0.875000 0.665482
vt 0.859609 0.702891
vt 0.859570 0.702930
vt 0.859610 0.702890
vt 0.859569 0.702931
vt 0.859611 0.702889
vt 0.859568 0.702932
vt 0.630130 0.713151
vt 0.630144 0.713217
vt 0.630130 0.713149
vt 0.630144 0.713219
vt 0.630130 0.713148
vt 0.630144 0.713220
vt 0.640703 0.766016
vt 0.640690 0.765950
vt 0.640704 0.766017
vt 0.640690 0.765948
vt 0.640704 0.766019
vt 0.640689 0.765947
vt 0.827887 0.515395
vt 0.859604 0.547111
vt 0.859575 0.547068
vt 0.827933 0.515426
vt 0.827887 0.515394
vt 0.859605 0.547112
vt 0.859574 0.547067
vt 0.827934 0.515427
vt 0.827886 0.515393
vt 0.859606 0.547113
vt 0.859574 0.547066
vt 0.827935 0.515428
vt 0.827890 0.734609
vt 0.810125 0.746880
vt 0.810053 0.746908
vt 0.827930 0.734570
vt 0.827890 0.734610
vt 0.810127 0.746880
vt 0.810052 0.746909
vt 0.827931 0.734569
vt 0.827889 0.734611
vt 0.810128 0.746879
vt 0.810050 0.746909
vt 0.827932 0.734568
vt 0.625000 0.656469
vt 0.625000 0.593531
vt 0.625000 0.593679
vt 0.625000 0.656321
vt 0.667738 0.449208
vt 0.768666 0.487197
vt 0.768428 0.487107
vt 0.667977 0.449297
vt 0.875000 0.593531
vt 0.875000 0.656469
vt 0.875000 0.656321
vt 0.875000 0.593679
vt 0.768666 0.762803
vt 0.667738 0.800792
vt 0.667977 0.800703
vt 0.768428 0.762893
vt 0.769935 0.762326
vt 0.666470 0.801270
vt 0.666656 0.801200
vt 0.769749 0.762396
vt 0.666998 0.801071
vt 0.769406 0.762525
vt 0.667359 0.800935
vt 0.769046 0.762660
vt 0.875000 0.592740
vt 0.875000 0.657260
vt 0.875000 0.657144
vt 0.875000 0.592856
vt 0.875000 0.656931
vt 0.875000 0.593069
vt 0.875000 0.656706
vt 0.875000 0.593294
vt 0.666470 0.448730
vt 0.769935 0.487674
vt 0.769749 0.487604
vt 0.666656 0.448800
vt 0.769406 0.487475
vt 0.666999 0.448929
vt 0.769046 0.487340
vt 0.667359 0.449065
vt 0.625000 0.657260
vt 0.625000 0.592740
vt 0.625000 0.592856
vt 0.625000 0.657144
vt 0.625000 0.593069
vt 0.625000 0.656931
vt 0.625000 0.593294
vt 0.625000 0.656706
s 0
usemtl Material.077
f 33/1/1 34/2/1 35/3/1
f 36/4/2 37/5/2 38/6/2
f 39/7/3 40/8/3 41/9/3
f 42/10/3 43/11/3 44/12/3
f 45/13/1 46/14/1 47/15/1
f 48/14/1 49/16/1 50/15/1
f 51/17/2 52/6/2 53/18/2
f 54/19/2 55/20/2 56/21/2
f 57/22/1 58/22/1 59/23/1
f 60/24/1 61/25/1 62/26/1
f 63/27/1 64/22/1 65/26/1
f 66/7/3 67/9/3 68/28/3
f 69/7/3 70/9/3 71/29/3
f 72/30/4 73/31/4 74/32/4
f 75/33/4 76/34/4 77/35/4
f 78/36/4 79/31/4 80/36/4
f 81/37/4 82/38/4 83/39/4
f 84/40/4 85/41/4 86/42/4
f 87/43/4 88/44/4 89/42/4
f 90/45/3 91/45/3 92/46/3
f 93/47/3 94/12/3 95/46/3
f 96/48/2 97/49/2 98/50/2
f 99/51/2 100/52/2 101/53/2
f 102/54/2 103/52/2 104/53/2
f 90/45/5 88/44/5 87/43/5 91/45/5
f 93/47/5 85/41/5 84/40/5 94/12/5
f 44/12/5 82/38/5 81/37/5 42/10/5
f 45/13/6 66/7/6 68/28/6 46/14/6
f 48/14/6 69/7/6 71/29/6 49/16/6
f 35/3/6 40/8/6 39/7/6 33/1/6
f 104/53/7 64/22/7 63/27/7 102/54/7
f 101/53/7 61/25/7 60/24/7 99/51/7
f 98/50/7 58/22/7 57/22/7 96/48/7
f 80/36/8 51/17/8 53/18/8 78/36/8
f 77/35/8 54/19/8 56/21/8 75/33/8
f 74/32/8 37/5/8 36/4/8 72/30/8
f 34/2/1 9/55/1 10/3/1 35/3/1
f 37/5/2 13/56/2 14/57/2 38/6/2
f 40/8/3 7/58/3 8/59/3 41/9/3
f 43/11/3 5/46/3 6/60/3 44/12/3
f 12/43/9 6/60/9 5/46/9 11/42/9
f 4/27/10 1/61/10 2/62/10 3/63/10
f 7/58/11 10/3/11 9/55/11 8/59/11
f 13/56/12 15/64/12 16/65/12 14/57/12
f 18/66/1 47/15/1 46/14/1 17/14/1
f 47/15/1 50/15/1 49/16/1 45/13/1
f 50/15/1 34/2/1 33/1/1 48/14/1
f 20/5/2 53/18/2 52/6/2 19/67/2
f 51/17/2 56/21/2 55/20/2 52/6/2
f 54/19/2 36/4/2 38/6/2 55/20/2
f 3/63/1 59/23/1 58/22/1 4/27/1
f 59/23/1 62/26/1 61/25/1 57/22/1
f 62/26/1 65/26/1 64/22/1 60/24/1
f 24/28/3 68/28/3 67/9/3 23/68/3
f 66/7/3 71/29/3 70/9/3 67/9/3
f 69/7/3 39/7/3 41/9/3 70/9/3
f 15/64/4 74/32/4 73/31/4 16/65/4
f 72/30/4 77/35/4 76/34/4 73/31/4
f 75/33/4 80/36/4 79/31/4 76/34/4
f 11/42/4 83/39/4 82/38/4 12/43/4
f 83/39/4 86/42/4 85/41/4 81/37/4
f 86/42/4 89/42/4 88/44/4 84/40/4
f 30/69/3 92/46/3 91/45/3 29/10/3
f 92/46/3 95/46/3 94/12/3 90/45/3
f 95/46/3 43/11/3 42/10/3 93/47/3
f 1/61/2 98/50/2 97/49/2 2/62/2
f 96/48/2 101/53/2 100/52/2 97/49/2
f 99/51/2 104/53/2 103/52/2 100/52/2
f 65/26/1 21/26/1 22/27/1 63/27/1
f 78/36/4 25/70/4 26/71/4 79/31/4
f 89/42/4 27/72/4 28/44/4 87/43/4
f 102/54/2 31/73/2 32/74/2 103/52/2
f 25/70/13 20/5/13 19/67/13 26/71/13
f 31/73/14 22/27/14 21/26/14 32/74/14
f 17/14/15 24/28/15 23/68/15 18/66/15
f 29/10/16 28/44/16 27/72/16 30/69/16
usemtl Material.079
f 106/75/17 105/76/17 107/77/17 108/78/17
f 110/79/17 109/80/17 111/81/17 112/82/17
f 114/83/17 113/84/17 115/85/17 116/86/17
f 118/87/18 117/88/18 119/89/18 120/90/18
f 122/91/18 121/92/18 123/93/18 124/94/18
f 126/95/18 125/96/18 127/97/18 128/98/18
f 117/88/19 129/99/19 130/100/19 119/89/19
f 121/92/19 131/101/19 132/102/19 123/93/19
f 125/96/19 133/103/19 134/104/19 127/97/19
f 136/105/20 135/106/20 137/107/20 138/108/20
f 140/109/20 139/110/20 141/111/20 142/112/20
f 144/113/20 143/114/20 145/115/20 146/116/20
f 148/117/21 147/118/21 149/119/21 150/120/21
f 152/121/21 151/122/21 153/123/21 154/124/21
f 156/125/21 155/126/21 157/127/21 158/128/21
f 160/129/22 159/130/22 161/131/22 162/132/22
f 164/133/22 163/134/22 165/135/22 166/136/22
f 168/137/22 167/138/22 169/139/22 170/140/22
f 172/141/23 171/142/23 173/143/23 174/144/23
f 176/145/23 175/146/23 177/147/23 178/148/23
f 180/149/23 179/150/23 181/151/23 182/152/23
f 184/153/24 183/154/24 185/155/24 186/156/24
f 188/157/24 187/158/24 189/159/24 190/160/24
f 192/161/24 191/162/24 193/163/24 194/164/24
f 196/165/25 195/166/25 197/167/25 198/168/25
f 200/169/25 199/170/25 201/171/25 202/172/25
f 204/173/25 203/174/25 205/175/25 206/176/25
f 195/166/26 207/177/26 208/178/26 197/167/26
f 199/170/26 209/179/26 210/180/26 201/171/26
f 203/174/26 211/181/26 212/182/26 205/175/26
f 213/183/27 106/75/27 108/78/27 214/184/27
f 215/185/27 110/79/27 112/82/27 216/186/27
f 217/187/27 114/83/27 116/86/27 218/188/27
f 129/99/28 219/189/28 220/190/28 130/100/28
f 131/101/28 221/191/28 222/192/28 132/102/28
f 133/103/28 223/193/28 224/194/28 134/104/28
f 226/195/29 225/196/29 227/197/29 228/198/29
f 230/199/29 229/200/29 231/201/29 232/202/29
f 234/203/29 233/204/29 235/205/29 236/206/29
f 219/189/30 213/183/30 214/184/30 220/190/30
f 221/191/30 215/185/30 216/186/30 222/192/30
f 223/193/30 217/187/30 218/188/30 224/194/30
f 171/142/31 196/165/31 198/168/31 173/143/31
f 175/146/31 200/169/31 202/172/31 177/147/31
f 179/150/31 204/173/31 206/176/31 181/151/31
f 225/196/32 172/141/32 174/144/32 227/197/32
f 229/200/32 176/145/32 178/148/32 231/201/32
f 233/204/32 180/149/32 182/152/32 235/205/32
f 238/207/33 237/208/33 239/209/33 240/210/33
f 242/211/33 241/212/33 243/213/33 244/214/33
f 246/215/33 245/216/33 247/217/33 248/218/33
f 135/106/34 148/117/34 150/120/34 137/107/34
f 139/110/34 152/121/34 154/124/34 141/111/34
f 143/114/34 156/125/34 158/128/34 145/115/34
f 207/177/35 238/207/35 240/210/35 208/178/35
f 209/179/35 242/211/35 244/214/35 210/180/35
f 211/181/35 246/215/35 248/218/35 212/182/35
f 237/208/36 118/87/36 120/90/36 239/209/36
f 241/212/36 122/91/36 124/94/36 243/213/36
f 245/216/36 126/95/36 128/98/36 247/217/36
f 159/130/37 136/105/37 138/108/37 161/131/37
f 163/134/37 140/109/37 142/112/37 165/135/37
f 167/138/37 144/113/37 146/116/37 169/139/37
f 147/118/38 184/153/38 186/156/38 149/119/38
f 151/122/38 188/157/38 190/160/38 153/123/38
f 155/126/38 192/161/38 194/164/38 157/127/38
f 183/154/39 226/195/39 228/198/39 185/155/39
f 187/158/39 230/199/39 232/202/39 189/159/39
f 191/162/39 234/203/39 236/206/39 193/163/39
f 105/76/40 160/129/40 162/132/40 107/77/40
f 109/80/40 164/133/40 166/136/40 111/81/40
f 113/84/40 168/137/40 170/140/40 115/85/40
usemtl Material.080
f 272/219/41 265/220/41 250/221/41 249/222/41
f 279/223/42 266/224/42 256/225/42 255/226/42
f 289/227/43 268/228/43 252/229/43 251/230/43
f 267/231/44 293/232/44 254/233/44 253/234/44
f 259/235/44 262/236/44 296/237/44 283/238/44
f 283/238/44 296/237/44 295/239/44 284/240/44
f 284/240/44 295/239/44 294/241/44 285/242/44
f 285/242/44 294/241/44 293/232/44 267/231/44
f 264/243/43 260/244/43 286/245/43 292/246/43
f 292/246/43 286/245/43 287/247/43 291/248/43
f 291/248/43 287/247/43 288/249/43 290/250/43
f 290/250/43 288/249/43 268/228/43 289/227/43
f 263/251/42 258/252/42 276/253/42 282/254/42
f 282/254/42 276/253/42 277/255/42 281/256/42
f 281/256/42 277/255/42 278/257/42 280/258/42
f 280/258/42 278/257/42 266/224/42 279/223/42
f 261/259/41 257/260/41 269/261/41 275/262/41
f 275/262/41 269/261/41 270/263/41 274/264/41
f 274/264/41 270/263/41 271/265/41 273/266/41
f 273/266/41 271/265/41 265/220/41 272/219/41
