# Blender 5.2.0 LTS
# www.blender.org
mtllib e.mtl
o Cube.032
v 95.486374 14.475178 1.359399
v 92.513626 18.479694 -1.359399
v 95.486374 14.475178 -1.359399
v 95.359398 18.479694 -1.486375
v 92.640602 14.475178 1.486375
v 92.513626 18.479694 1.359399
v 92.640602 18.479694 -1.486375
v 95.359398 18.479694 1.486376
v 95.486374 18.479694 1.359399
v 95.486374 17.903749 1.359399
v 95.486374 16.765409 1.359399
v 95.486374 16.232321 1.359399
v 95.486374 15.051124 1.359399
v 92.513626 14.475178 -1.359399
v 92.513626 15.051124 -1.359399
v 92.513626 16.232321 -1.359399
v 92.513626 16.765409 -1.359399
v 92.513626 17.903749 -1.359399
v 95.486374 18.479694 -1.359399
v 95.486374 17.903749 -1.359399
v 95.486374 16.765409 -1.359399
v 95.486374 16.232321 -1.359399
v 95.486374 15.051124 -1.359399
v 95.359398 14.475178 -1.486375
v 95.359398 15.051124 -1.486375
v 95.359398 16.232321 -1.486375
v 95.359398 16.765409 -1.486375
v 95.359398 17.903749 -1.486375
v 92.640602 18.479694 1.486375
v 92.640602 17.903749 1.486375
v 92.640602 16.765409 1.486375
v 92.640602 16.232321 1.486375
v 92.640602 15.051124 1.486375
v 92.513626 14.475178 1.359399
v 92.513626 15.051124 1.359399
v 92.513626 16.232321 1.359399
v 92.513626 16.765409 1.359399
v 92.513626 17.903749 1.359399
v 92.640602 14.475178 -1.486375
v 92.640602 15.051124 -1.486375
v 92.640602 16.232321 -1.486375
v 92.640602 16.765409 -1.486375
v 92.640602 17.903749 -1.486375
v 95.359398 14.475178 1.486376
v 95.359398 15.051124 1.486376
v 95.359398 16.232321 1.486376
v 95.359398 16.765409 1.486376
v 95.359398 17.903749 1.486376
v 92.891182 13.978281 1.434628
v 92.565369 13.978282 1.108816
v 92.891182 14.835424 1.434628
v 92.565369 14.835424 1.108816
v 92.891182 16.549709 1.434628
v 92.565369 16.549711 1.108816
v 92.891182 17.406853 1.434628
v 92.565369 17.406853 1.108816
v 92.891182 18.263996 1.434628
v 92.565369 18.263996 1.108816
v 95.108818 13.978282 -1.434628
v 95.434631 13.978281 -1.108816
v 95.108818 14.835424 -1.434628
v 95.434631 14.835424 -1.108816
v 95.108818 16.549711 -1.434628
v 95.434631 16.549709 -1.108816
v 95.108818 17.406853 -1.434628
v 95.434631 17.406853 -1.108816
v 95.108818 18.263996 -1.434628
v 95.434631 18.263996 -1.108816
v 92.565369 13.978282 -1.108816
v 92.891182 13.978282 -1.434628
v 92.565369 14.835424 -1.108816
v 92.891182 14.835424 -1.434628
v 92.565369 16.549711 -1.108816
v 92.891182 16.549711 -1.434628
v 92.565369 17.406853 -1.108816
v 92.891182 17.406853 -1.434628
v 92.565369 18.263996 -1.108816
v 92.891182 18.263996 -1.434628
v 95.434631 13.978281 1.108816
v 95.108818 13.978282 1.434628
v 95.434631 14.835424 1.108816
v 95.108818 14.835424 1.434628
v 95.434631 16.549709 1.108816
v 95.108818 16.549711 1.434628
v 95.434631 17.406853 1.108816
v 95.108818 17.406853 1.434628
v 95.434631 18.263996 1.108816
v 95.108818 18.263996 1.434628
v 95.434631 15.735424 1.108816
v 95.108818 15.735425 1.434628
v 92.565369 15.735425 -1.108816
v 92.891182 15.735425 -1.434628
v 95.108818 15.735425 -1.434628
v 95.434631 15.735424 -1.108816
v 92.891182 15.735424 1.434628
v 92.565369 15.735425 1.108816
v 95.444366 18.241604 1.155984
v 95.444366 17.605591 1.155984
v 95.444366 14.813032 1.155984
v 95.444366 14.177019 1.155984
v 92.555634 14.177019 -1.155984
v 92.555634 14.813032 -1.155984
v 92.555634 15.934162 -1.155984
v 92.555634 16.527319 -1.155984
v 92.555634 17.605591 -1.155984
v 92.555634 18.241604 -1.155984
v 95.444366 18.241604 -1.155984
v 95.444366 17.605591 -1.155984
v 95.444366 14.813032 -1.155984
v 95.444366 14.177019 -1.155984
v 95.155983 14.177019 -1.444369
v 95.155983 14.813032 -1.444369
v 95.155983 15.934162 -1.444369
v 95.155983 16.527319 -1.444369
v 95.155983 17.605591 -1.444369
v 95.155983 18.241604 -1.444369
v 92.844017 18.241604 1.444369
v 92.844017 17.605591 1.444369
v 92.844017 14.813032 1.444369
v 92.844017 14.177019 1.444369
v 92.555634 14.177019 1.155984
v 92.555634 14.813032 1.155984
v 92.555634 15.934162 1.155984
v 92.555634 16.527319 1.155984
v 92.555634 17.605591 1.155984
v 92.555634 18.241604 1.155984
v 92.844017 14.177019 -1.444369
v 92.844017 14.813032 -1.444369
v 92.844017 15.934162 -1.444369
v 92.844017 16.527319 -1.444369
v 92.844017 17.605591 -1.444369
v 92.844017 18.241604 -1.444369
v 95.155983 14.177019 1.444369
v 95.155983 14.813032 1.444369
v 95.155983 15.934162 1.444369
v 95.155983 16.527319 1.444369
v 95.155983 17.605591 1.444369
v 95.155983 18.241604 1.444369
v 95.444366 16.527319 1.155984
v 95.444366 15.934162 1.155984
v 95.444366 16.527319 -1.155984
v 95.444366 15.934162 -1.155984
v 92.844017 16.527319 1.444369
v 92.844017 15.934162 1.444369
v 95.476631 18.376099 1.312231
v 95.476631 17.915421 1.312231
v 95.476639 14.947528 1.312231
v 95.476639 14.486850 1.312231
v 92.523369 14.486850 -1.312231
v 92.523369 14.947528 -1.312231
v 92.523361 16.243994 -1.312231
v 92.523361 16.661814 -1.312231
v 92.523361 17.915421 -1.312231
v 92.523361 18.376099 -1.312231
v 95.476631 18.376099 -1.312231
v 95.476631 17.915421 -1.312231
v 95.476639 14.947528 -1.312231
v 95.476639 14.486850 -1.312231
v 95.312233 14.486850 -1.476635
v 95.312233 14.947528 -1.476635
v 95.312233 16.243994 -1.476635
v 95.312233 16.661814 -1.476635
v 95.312233 17.915421 -1.476635
v 95.312233 18.376099 -1.476635
v 92.687767 18.376099 1.476635
v 92.687767 17.915421 1.476635
v 92.687767 14.947528 1.476635
v 92.687767 14.486850 1.476635
v 92.523369 14.486850 1.312231
v 92.523361 14.947528 1.312231
v 92.523361 16.243994 1.312231
v 92.523361 16.661814 1.312231
v 92.523361 17.915421 1.312231
v 92.523361 18.376099 1.312231
v 92.687767 14.486850 -1.476635
v 92.687767 14.947528 -1.476635
v 92.687767 16.243994 -1.476635
v 92.687767 16.661814 -1.476635
v 92.687767 17.915421 -1.476635
v 92.687767 18.376099 -1.476635
v 95.312233 14.486850 1.476635
v 95.312233 14.947528 1.476635
v 95.312233 16.243994 1.476635
v 95.312233 16.661814 1.476635
v 95.312233 17.915421 1.476635
v 95.312233 18.376099 1.476635
v 95.476631 16.661814 1.312231
v 95.476631 16.243992 1.312231
v 95.476631 16.661814 -1.312231
v 95.476639 16.243992 -1.312231
v 92.687767 16.661814 1.476635
v 92.687767 16.243992 1.476635
v 95.466118 18.241604 1.151492
v 95.502289 18.227373 1.175277
v 95.502289 17.731888 1.175277
v 95.466118 17.605591 1.151492
v 95.466118 14.813032 1.151492
v 95.502289 14.798802 1.175277
v 95.502289 14.303316 1.175277
v 95.466118 14.177019 1.151492
v 92.497711 14.303316 -1.175277
v 92.533882 14.177019 -1.151492
v 92.533882 14.813032 -1.151492
v 92.497711 14.798802 -1.175277
v 92.497711 16.060459 -1.175277
v 92.533882 15.934162 -1.151492
v 92.533882 16.527319 -1.151492
v 92.497711 16.513088 -1.175277
v 92.497711 17.731888 -1.175277
v 92.533882 17.605591 -1.151492
v 92.533882 18.241604 -1.151492
v 92.497711 18.227373 -1.175277
v 95.502289 18.227373 -1.175277
v 95.466118 18.241604 -1.151492
v 95.466118 17.605591 -1.151492
v 95.502289 17.731888 -1.175277
v 95.502289 14.798802 -1.175277
v 95.466118 14.813032 -1.151492
v 95.466118 14.177019 -1.151492
v 95.502289 14.303316 -1.175277
v 95.175278 14.303316 -1.502286
v 95.151489 14.177019 -1.466121
v 95.151489 14.813032 -1.466121
v 95.175278 14.798802 -1.502286
v 95.175278 16.060459 -1.502286
v 95.151489 15.934162 -1.466121
v 95.151489 16.527319 -1.466121
v 95.175278 16.513088 -1.502286
v 95.175278 17.731888 -1.502286
v 95.151489 17.605591 -1.466121
v 95.151489 18.241604 -1.466121
v 95.175278 18.227373 -1.502286
v 92.848511 18.241604 1.466121
v 92.824722 18.227373 1.502286
v 92.824722 17.731888 1.502286
v 92.848511 17.605591 1.466121
v 92.848511 14.813032 1.466121
v 92.824722 14.798802 1.502286
v 92.824722 14.303316 1.502286
v 92.848511 14.177019 1.466121
v 92.533882 14.177019 1.151492
v 92.497711 14.303316 1.175277
v 92.497711 14.798802 1.175277
v 92.533882 14.813032 1.151492
v 92.533882 15.934162 1.151492
v 92.497711 16.060459 1.175277
v 92.497711 16.513088 1.175277
v 92.533882 16.527319 1.151492
v 92.533882 17.605591 1.151492
v 92.497711 17.731888 1.175277
v 92.497711 18.227373 1.175277
v 92.533882 18.241604 1.151492
v 92.848511 14.177019 -1.466121
v 92.824722 14.303316 -1.502286
v 92.824722 14.798802 -1.502286
v 92.848511 14.813032 -1.466121
v 92.848511 15.934162 -1.466121
v 92.824722 16.060459 -1.502286
v 92.824722 16.513088 -1.502286
v 92.848511 16.527319 -1.466121
v 92.848511 17.605591 -1.466121
v 92.824722 17.731888 -1.502286
v 92.824722 18.227373 -1.502286
v 92.848511 18.241604 -1.466121
v 95.151489 14.177019 1.466121
v 95.175278 14.303316 1.502286
v 95.175278 14.798802 1.502286
v 95.151489 14.813032 1.466121
v 95.151489 15.934162 1.466121
v 95.175278 16.060459 1.502286
v 95.175278 16.513088 1.502286
v 95.151489 16.527319 1.466121
v 95.151489 17.605591 1.466121
v 95.175278 17.731888 1.502286
v 95.175278 18.227373 1.502286
v 95.151489 18.241604 1.466121
v 95.466118 16.527319 1.151492
v 95.502289 16.513088 1.175277
v 95.502289 16.060459 1.175278
v 95.466118 15.934162 1.151492
v 95.502289 16.513088 -1.175277
v 95.466118 16.527319 -1.151492
v 95.466118 15.934162 -1.151492
v 95.502289 16.060459 -1.175277
v 92.848511 16.527319 1.466121
v 92.824722 16.513088 1.502286
v 92.824722 16.060459 1.502286
v 92.848511 15.934162 1.466121
v 95.522171 18.310265 1.271574
v 95.498390 18.376099 1.307739
v 95.498390 17.915421 1.307739
v 95.522171 17.922838 1.271574
v 95.522171 14.881693 1.271574
v 95.498390 14.947528 1.307739
v 95.498390 14.486850 1.307739
v 95.522171 14.494267 1.271574
v 92.501610 14.486850 -1.307739
v 92.477829 14.494267 -1.271574
v 92.477829 14.881693 -1.271574
v 92.501610 14.947528 -1.307739
v 92.501610 16.243994 -1.307739
v 92.477829 16.251411 -1.271574
v 92.477829 16.595980 -1.271574
v 92.501610 16.661814 -1.307739
v 92.501610 17.915421 -1.307739
v 92.477829 17.922840 -1.271574
v 92.477829 18.310265 -1.271574
v 92.501610 18.376099 -1.307739
v 95.498390 18.376099 -1.307739
v 95.522171 18.310265 -1.271574
v 95.522171 17.922838 -1.271574
v 95.498390 17.915421 -1.307739
v 95.498390 14.947528 -1.307739
v 95.522171 14.881693 -1.271573
v 95.522171 14.494267 -1.271574
v 95.498390 14.486850 -1.307739
v 95.307739 14.486850 -1.498387
v 95.271576 14.494267 -1.522172
v 95.271576 14.881693 -1.522172
v 95.307739 14.947528 -1.498387
v 95.307739 16.243994 -1.498387
v 95.271576 16.251411 -1.522172
v 95.271576 16.595980 -1.522172
v 95.307739 16.661814 -1.498387
v 95.307739 17.915421 -1.498387
v 95.271576 17.922840 -1.522172
v 95.271576 18.310265 -1.522172
v 95.307739 18.376099 -1.498387
v 92.728424 18.310265 1.522172
v 92.692261 18.376099 1.498387
v 92.692261 17.915421 1.498387
v 92.728424 17.922838 1.522172
v 92.728424 14.881693 1.522172
v 92.692261 14.947528 1.498387
v 92.692261 14.486850 1.498387
v 92.728424 14.494267 1.522172
v 92.477829 14.494267 1.271574
v 92.501610 14.486850 1.307739
v 92.501610 14.947528 1.307739
v 92.477829 14.881693 1.271574
v 92.477829 16.251411 1.271573
v 92.501610 16.243994 1.307739
v 92.501610 16.661814 1.307739
v 92.477829 16.595980 1.271574
v 92.477829 17.922838 1.271574
v 92.501610 17.915421 1.307739
v 92.501610 18.376099 1.307739
v 92.477829 18.310265 1.271574
v 92.728424 14.494267 -1.522172
v 92.692261 14.486850 -1.498387
v 92.692261 14.947528 -1.498387
v 92.728424 14.881693 -1.522172
v 92.728424 16.251411 -1.522172
v 92.692261 16.243994 -1.498387
v 92.692261 16.661814 -1.498387
v 92.728424 16.595980 -1.522172
v 92.728424 17.922840 -1.522172
v 92.692261 17.915421 -1.498387
v 92.692261 18.376099 -1.498387
v 92.728424 18.310265 -1.522172
v 95.271576 14.494267 1.522172
v 95.307739 14.486850 1.498387
v 95.307739 14.947528 1.498387
v 95.271576 14.881693 1.522172
v 95.271576 16.251411 1.522172
v 95.307739 16.243994 1.498387
v 95.307739 16.661814 1.498387
v 95.271576 16.595980 1.522172
v 95.271576 17.922840 1.522172
v 95.307739 17.915421 1.498387
v 95.307739 18.376099 1.498387
v 95.271576 18.310265 1.522172
v 95.522171 16.595978 1.271574
v 95.498390 16.661814 1.307739
v 95.498390 16.243992 1.307739
v 95.522171 16.251411 1.271574
v 95.498390 16.661814 -1.307739
v 95.522171 16.595978 -1.271574
v 95.522171 16.251410 -1.271574
v 95.498390 16.243992 -1.307739
v 92.728424 16.595978 1.522172
v 92.692261 16.661814 1.498387
v 92.692261 16.243992 1.498387
v 92.728424 16.251411 1.522172
vn 0.9793 -0.0000 -0.2022
vn -0.9793 -0.0000 0.2022
vn 0.9793 -0.0000 0.2022
vn -0.2022 -0.0000 -0.9793
vn 0.2022 -0.0000 0.9793
vn -0.9793 -0.0000 -0.2022
vn 0.2022 -0.0000 -0.9793
vn -0.2022 -0.0000 0.9793
vn 0.5495 -0.0000 -0.8355
vn -0.5495 -0.0000 0.8355
vn 0.5495 -0.0000 0.8355
vn -0.8355 -0.0000 -0.5495
vn 0.8355 -0.0000 0.5495
vn -0.5495 -0.0000 -0.8355
vn 0.8355 -0.0000 -0.5495
vn -0.8355 -0.0000 0.5495
vn -0.4727 -0.3237 0.8196
vn -0.8196 -0.3237 0.4727
vn -0.6003 0.5406 -0.5893
vn 0.5893 0.5406 0.6003
vn 0.4727 -0.3237 -0.8196
vn 0.8196 -0.3237 -0.4727
vn 0.6003 0.5406 0.5893
vn -0.5893 0.5406 -0.6003
vn -0.8196 -0.3237 -0.4727
vn -0.4727 -0.3237 -0.8196
vn 0.5893 0.5406 -0.6003
vn -0.6003 0.5406 0.5893
vn 0.8196 -0.3237 0.4727
vn 0.4727 -0.3237 0.8196
vn -0.5893 0.5406 0.6003
vn 0.6003 0.5406 -0.5893
vn -0.1303 0.7646 -0.6312
vn 0.1798 -0.4578 0.8707
vn -0.1304 0.7646 -0.6312
vn -0.1798 -0.4578 -0.8707
vn 0.1304 0.7646 0.6312
vn 0.1303 0.7646 0.6312
vn -0.1303 0.7646 0.6312
vn 0.1798 -0.4578 -0.8707
vn -0.1304 0.7646 0.6312
vn 0.8707 -0.4578 -0.1798
vn -0.6312 0.7646 0.1304
vn -0.6312 0.7646 0.1303
vn 0.6312 0.7646 -0.1304
vn -0.8707 -0.4578 0.1798
vn 0.6312 0.7646 -0.1303
vn -0.1798 -0.4578 0.8707
vn 0.1304 0.7646 -0.6312
vn 0.1303 0.7646 -0.6312
vn -0.8707 -0.4578 -0.1798
vn 0.6312 0.7646 0.1304
vn 0.8707 -0.4578 0.1798
vn -0.6312 0.7646 -0.1304
vn -0.6312 0.7646 -0.1303
vt 0.630137 0.713184
vt 0.630137 0.713184
vt 0.630137 0.713184
vt 0.630137 0.713184
vt 0.630137 0.713184
vt 0.859590 0.547090
vt 0.859590 0.547090
vt 0.859590 0.547090
vt 0.859590 0.547090
vt 0.859590 0.547090
vt 0.859590 0.547090
vt 0.859590 0.547090
vt 0.859590 0.547090
vt 0.859590 0.547090
vt 0.630137 0.536816
vt 0.630137 0.536816
vt 0.630137 0.536816
vt 0.630137 0.536816
vt 0.640697 0.484017
vt 0.640697 0.484017
vt 0.640697 0.484017
vt 0.640697 0.484017
vt 0.640697 0.484017
vt 0.640697 0.484017
vt 0.640697 0.484017
vt 0.640697 0.484017
vt 0.827910 0.734590
vt 0.827910 0.734590
vt 0.827910 0.734590
vt 0.827910 0.734590
vt 0.859590 0.702910
vt 0.859590 0.702910
vt 0.859590 0.702910
vt 0.859590 0.702910
vt 0.859590 0.702911
vt 0.827910 0.515410
vt 0.827910 0.515410
vt 0.827910 0.515410
vt 0.640697 0.765983
vt 0.640697 0.765983
vt 0.640697 0.765983
vt 0.640697 0.765983
vt 0.640697 0.765983
vt 0.640697 0.765983
vt 0.630137 0.713184
vt 0.630137 0.713184
vt 0.827910 0.734590
vt 0.827910 0.734590
vt 0.630137 0.713184
vt 0.630137 0.713184
vt 0.859590 0.547090
vt 0.859590 0.547090
vt 0.630137 0.536816
vt 0.827910 0.734590
vt 0.859590 0.702910
vt 0.859590 0.702910
vt 0.859590 0.702910
vt 0.859590 0.702911
vt 0.827910 0.515410
vt 0.827910 0.734590
vt 0.827910 0.734590
vt 0.630137 0.713184
vt 0.640697 0.484017
vt 0.827910 0.734590
vt 0.859590 0.702911
vt 0.859590 0.702910
vt 0.640697 0.765983
vt 0.640697 0.765983
vt 0.630137 0.713184
vt 0.827910 0.734590
vt 0.630137 0.713184
vt 0.630137 0.713184
vt 0.859590 0.547090
vt 0.630137 0.536816
vt 0.640697 0.484017
vt 0.827910 0.734589
vt 0.859590 0.702911
vt 0.859590 0.702911
vt 0.827910 0.515410
vt 0.827910 0.515411
vt 0.640697 0.765983
s 0
usemtl Material.067
f 97/1/1 98/2/1 85/3/1 87/2/1
f 99/4/1 100/5/1 79/4/1 81/4/1
f 102/6/2 101/7/2 69/8/2 71/6/2
f 104/9/2 103/10/2 91/11/2 73/12/2
f 106/9/2 105/13/2 75/14/2 77/9/2
f 108/15/3 107/16/3 68/15/3 66/15/3
f 110/17/3 109/15/3 62/15/3 60/18/3
f 112/19/4 111/20/4 59/19/4 61/19/4
f 114/21/4 113/22/4 93/22/4 63/23/4
f 116/24/4 115/19/4 65/25/4 67/26/4
f 117/27/5 118/28/5 55/28/5 57/27/5
f 119/29/5 120/29/5 49/30/5 51/29/5
f 121/31/6 122/32/6 52/31/6 50/33/6
f 123/34/6 124/32/6 54/32/6 96/31/6
f 125/35/6 126/32/6 58/31/6 56/33/6
f 127/36/7 128/37/7 72/36/7 70/36/7
f 129/36/7 130/36/7 74/36/7 92/36/7
f 131/36/7 132/36/7 78/36/7 76/38/7
f 133/39/8 134/39/8 82/39/8 80/39/8
f 135/40/8 136/41/8 84/42/8 90/40/8
f 137/43/8 138/40/8 88/44/8 86/43/8
f 139/45/1 140/46/1 89/46/1 83/45/1
f 142/15/3 141/15/3 64/15/3 94/15/3
f 143/27/5 144/47/5 95/48/5 53/27/5
f 146/4/1 145/49/1 9/2/1 10/3/1
f 148/50/1 147/2/1 13/4/1 1/4/1
f 149/8/2 150/51/2 15/6/2 14/8/2
f 151/8/2 152/9/2 17/12/2 16/11/2
f 153/52/2 154/6/2 2/9/2 18/14/2
f 155/15/3 156/15/3 20/15/3 19/15/3
f 157/15/3 158/53/3 3/18/3 23/15/3
f 159/23/4 160/20/4 25/19/4 24/19/4
f 161/25/4 162/19/4 27/23/4 26/22/4
f 163/26/4 164/25/4 4/26/4 28/25/4
f 166/27/5 165/30/5 29/27/5 30/28/5
f 168/54/5 167/29/5 33/29/5 5/30/5
f 170/55/6 169/56/6 34/33/6 35/31/6
f 172/57/6 171/58/6 36/31/6 37/32/6
f 174/33/6 173/33/6 38/33/6 6/31/6
f 176/36/7 175/36/7 39/36/7 40/36/7
f 178/36/7 177/37/7 41/36/7 42/36/7
f 180/59/7 179/36/7 43/38/7 7/36/7
f 182/44/8 181/40/8 44/39/8 45/39/8
f 184/41/8 183/40/8 46/40/8 47/42/8
f 186/44/8 185/43/8 48/43/8 8/44/8
f 188/2/1 187/5/1 11/45/1 12/46/1
f 189/18/3 190/16/3 22/15/3 21/15/3
f 192/60/5 191/61/5 31/27/5 32/48/5
f 120/29/5 168/54/5 5/30/5 49/30/5
f 169/56/6 121/31/6 50/33/6 34/33/6
f 122/32/6 170/55/6 35/31/6 52/31/6
f 167/29/5 119/29/5 51/29/5 33/29/5
f 124/32/6 172/57/6 37/32/6 54/32/6
f 191/61/5 143/27/5 53/27/5 31/27/5
f 118/28/5 166/27/5 30/28/5 55/28/5
f 173/33/6 125/35/6 56/33/6 38/33/6
f 126/32/6 174/33/6 6/31/6 58/31/6
f 165/30/5 117/27/5 57/27/5 29/27/5
f 111/20/4 159/23/4 24/19/4 59/19/4
f 158/53/3 110/17/3 60/18/3 3/18/3
f 109/15/3 157/15/3 23/15/3 62/15/3
f 160/20/4 112/19/4 61/19/4 25/19/4
f 141/15/3 189/18/3 21/15/3 64/15/3
f 162/19/4 114/21/4 63/23/4 27/23/4
f 115/19/4 163/26/4 28/25/4 65/25/4
f 156/15/3 108/15/3 66/15/3 20/15/3
f 107/16/3 155/15/3 19/15/3 68/15/3
f 164/25/4 116/24/4 67/26/4 4/26/4
f 101/7/2 149/8/2 14/8/2 69/8/2
f 175/36/7 127/36/7 70/36/7 39/36/7
f 128/37/7 176/36/7 40/36/7 72/36/7
f 150/51/2 102/6/2 71/6/2 15/6/2
f 130/36/7 178/36/7 42/36/7 74/36/7
f 152/9/2 104/9/2 73/12/2 17/12/2
f 105/13/2 153/52/2 18/14/2 75/14/2
f 179/36/7 131/36/7 76/38/7 43/38/7
f 132/36/7 180/59/7 7/36/7 78/36/7
f 154/6/2 106/9/2 77/9/2 2/9/2
f 100/5/1 148/50/1 1/4/1 79/4/1
f 181/40/8 133/39/8 80/39/8 44/39/8
f 134/39/8 182/44/8 45/39/8 82/39/8
f 147/2/1 99/4/1 81/4/1 13/4/1
f 136/41/8 184/41/8 47/42/8 84/42/8
f 187/5/1 139/45/1 83/45/1 11/45/1
f 98/2/1 146/4/1 10/3/1 85/3/1
f 185/43/8 137/43/8 86/43/8 48/43/8
f 138/40/8 186/44/8 8/44/8 88/44/8
f 145/49/1 97/1/1 87/2/1 9/2/1
f 140/46/1 188/2/1 12/46/1 89/46/1
f 183/40/8 135/40/8 90/40/8 46/40/8
f 103/10/2 151/8/2 16/11/2 91/11/2
f 177/37/7 129/36/7 92/36/7 41/36/7
f 113/22/4 161/25/4 26/22/4 93/22/4
f 190/16/3 142/15/3 94/15/3 22/15/3
f 144/47/5 192/60/5 32/48/5 95/48/5
f 171/58/6 123/34/6 96/31/6 36/31/6
f 194/4/9 195/62/9 196/49/9 193/1/9
f 198/5/9 199/5/9 200/5/9 197/4/9
f 202/7/10 203/6/10 204/6/10 201/9/10
f 206/10/10 207/9/10 208/9/10 205/51/10
f 210/13/10 211/9/10 212/9/10 209/9/10
f 214/16/11 215/15/11 216/15/11 213/15/11
f 218/15/11 219/17/11 220/18/11 217/53/11
f 222/20/12 223/20/12 224/22/12 221/22/12
f 226/22/12 227/21/12 228/23/12 225/22/12
f 230/22/12 231/24/12 232/63/12 229/22/12
f 234/64/13 235/27/13 236/27/13 233/27/13
f 238/29/13 239/29/13 240/29/13 237/29/13
f 242/65/14 243/35/14 244/32/14 241/31/14
f 246/66/14 247/35/14 248/32/14 245/34/14
f 250/65/14 251/32/14 252/32/14 249/35/14
f 254/37/15 255/37/15 256/37/15 253/36/15
f 258/36/15 259/36/15 260/36/15 257/36/15
f 262/36/15 263/36/15 264/36/15 261/36/15
f 266/67/16 267/40/16 268/39/16 265/39/16
f 270/40/16 271/42/16 272/41/16 269/40/16
f 274/68/16 275/40/16 276/40/16 273/43/16
f 278/69/9 279/5/9 280/46/9 277/45/9
f 282/15/11 283/15/11 284/15/11 281/15/11
f 286/70/13 287/48/13 288/47/13 285/27/13
f 290/49/13 291/4/13 292/5/13 289/71/13
f 294/2/13 295/50/13 296/5/13 293/72/13
f 298/13/12 299/13/12 300/51/12 297/8/12
f 302/73/12 303/13/12 304/9/12 301/8/12
f 306/52/12 307/13/12 308/6/12 305/52/12
f 310/74/15 311/18/15 312/15/15 309/15/15
f 314/15/15 315/53/15 316/53/15 313/15/15
f 318/20/9 319/20/9 320/20/9 317/23/9
f 322/63/9 323/23/9 324/20/9 321/25/9
f 326/63/9 327/75/9 328/23/9 325/26/9
f 330/30/10 331/27/10 332/64/10 329/27/10
f 334/29/10 335/54/10 336/29/10 333/76/10
f 338/56/16 339/55/16 340/77/16 337/78/16
f 342/58/16 343/57/16 344/32/16 341/77/16
f 346/33/16 347/33/16 348/35/16 345/35/16
f 350/36/14 351/36/14 352/79/14 349/80/14
f 354/37/14 355/36/14 356/37/14 353/36/14
f 358/36/14 359/59/14 360/36/14 357/36/14
f 362/40/11 363/44/11 364/40/11 361/40/11
f 366/40/11 367/41/11 368/42/11 365/40/11
f 370/43/11 371/44/11 372/40/11 369/81/11
f 374/5/13 375/2/13 376/5/13 373/5/13
f 378/17/15 379/15/15 380/16/15 377/18/15
f 382/61/10 383/60/10 384/60/10 381/70/10
f 239/29/17 336/29/17 335/54/17 240/29/17
f 337/78/18 242/65/18 241/31/18 338/56/18
f 243/35/19 340/77/19 339/55/19 244/32/19
f 333/76/20 238/29/20 237/29/20 334/29/20
f 247/35/19 344/32/19 343/57/19 248/32/19
f 381/70/20 286/70/20 285/27/20 382/61/20
f 235/27/17 332/64/17 331/27/17 236/27/17
f 345/35/18 250/65/18 249/35/18 346/33/18
f 251/32/19 348/35/19 347/33/19 252/32/19
f 329/27/20 234/64/20 233/27/20 330/30/20
f 221/22/21 318/20/21 317/23/21 222/20/21
f 315/53/22 220/18/22 219/17/22 316/53/22
f 217/53/23 314/15/23 313/15/23 218/15/23
f 319/20/24 224/22/24 223/20/24 320/20/24
f 281/15/23 378/17/23 377/18/23 282/15/23
f 323/23/24 228/23/24 227/21/24 324/20/24
f 229/22/21 326/63/21 325/26/21 230/22/21
f 311/18/22 216/15/22 215/15/22 312/15/22
f 213/15/23 310/74/23 309/15/23 214/16/23
f 327/75/24 232/63/24 231/24/24 328/23/24
f 201/9/25 298/13/25 297/8/25 202/7/25
f 349/80/26 254/37/26 253/36/26 350/36/26
f 255/37/27 352/79/27 351/36/27 256/37/27
f 299/13/28 204/6/28 203/6/28 300/51/28
f 259/36/27 356/37/27 355/36/27 260/36/27
f 303/13/28 208/9/28 207/9/28 304/9/28
f 209/9/25 306/52/25 305/52/25 210/13/25
f 357/36/26 262/36/26 261/36/26 358/36/26
f 263/36/27 360/36/27 359/59/27 264/36/27
f 307/13/28 212/9/28 211/9/28 308/6/28
f 199/5/29 296/5/29 295/50/29 200/5/29
f 361/40/30 266/67/30 265/39/30 362/40/30
f 267/40/31 364/40/31 363/44/31 268/39/31
f 293/72/32 198/5/32 197/4/32 294/2/32
f 271/42/31 368/42/31 367/41/31 272/41/31
f 373/5/32 278/69/32 277/45/32 374/5/32
f 195/62/29 292/5/29 291/4/29 196/49/29
f 369/81/30 274/68/30 273/43/30 370/43/30
f 275/40/31 372/40/31 371/44/31 276/40/31
f 289/71/32 194/4/32 193/1/32 290/49/32
f 279/5/29 376/5/29 375/2/29 280/46/29
f 365/40/30 270/40/30 269/40/30 366/40/30
f 205/51/25 302/73/25 301/8/25 206/10/25
f 353/36/26 258/36/26 257/36/26 354/37/26
f 225/22/21 322/63/21 321/25/21 226/22/21
f 379/15/22 284/15/22 283/15/22 380/16/22
f 287/48/17 384/60/17 383/60/17 288/47/17
f 341/77/18 246/66/18 245/34/18 342/58/18
f 193/1/4 196/49/4 98/2/4 97/1/4
f 289/71/1 292/5/1 195/62/1 194/4/1
f 290/49/33 193/1/33 97/1/33 145/49/33
f 196/49/34 291/4/34 146/4/34 98/2/34
f 197/4/4 200/5/4 100/5/4 99/4/4
f 293/72/1 296/5/1 199/5/1 198/5/1
f 294/2/35 197/4/35 99/4/35 147/2/35
f 200/5/34 295/50/34 148/50/34 100/5/34
f 203/6/5 202/7/5 101/7/5 102/6/5
f 299/13/2 298/13/2 201/9/2 204/6/2
f 202/7/36 297/8/36 149/8/36 101/7/36
f 300/51/37 203/6/37 102/6/37 150/51/37
f 207/9/5 206/10/5 103/10/5 104/9/5
f 303/13/2 302/73/2 205/51/2 208/9/2
f 206/10/36 301/8/36 151/8/36 103/10/36
f 304/9/37 207/9/37 104/9/37 152/9/37
f 211/9/5 210/13/5 105/13/5 106/9/5
f 307/13/2 306/52/2 209/9/2 212/9/2
f 210/13/36 305/52/36 153/52/36 105/13/36
f 308/6/38 211/9/38 106/9/38 154/6/38
f 215/15/8 214/16/8 107/16/8 108/15/8
f 311/18/3 310/74/3 213/15/3 216/15/3
f 214/16/39 309/15/39 155/15/39 107/16/39
f 312/15/40 215/15/40 108/15/40 156/15/40
f 219/17/8 218/15/8 109/15/8 110/17/8
f 315/53/3 314/15/3 217/53/3 220/18/3
f 218/15/41 313/15/41 157/15/41 109/15/41
f 316/53/40 219/17/40 110/17/40 158/53/40
f 223/20/2 222/20/2 111/20/2 112/19/2
f 319/20/4 318/20/4 221/22/4 224/22/4
f 222/20/42 317/23/42 159/23/42 111/20/42
f 320/20/43 223/20/43 112/19/43 160/20/43
f 227/21/2 226/22/2 113/22/2 114/21/2
f 323/23/4 322/63/4 225/22/4 228/23/4
f 226/22/42 321/25/42 161/25/42 113/22/42
f 324/20/44 227/21/44 114/21/44 162/19/44
f 231/24/2 230/22/2 115/19/2 116/24/2
f 327/75/4 326/63/4 229/22/4 232/63/4
f 230/22/42 325/26/42 163/26/42 115/19/42
f 328/23/44 231/24/44 116/24/44 164/25/44
f 233/27/1 236/27/1 118/28/1 117/27/1
f 329/27/5 332/64/5 235/27/5 234/64/5
f 330/30/45 233/27/45 117/27/45 165/30/45
f 236/27/46 331/27/46 166/27/46 118/28/46
f 237/29/1 240/29/1 120/29/1 119/29/1
f 333/76/5 336/29/5 239/29/5 238/29/5
f 334/29/47 237/29/47 119/29/47 167/29/47
f 240/29/46 335/54/46 168/54/46 120/29/46
f 241/31/7 244/32/7 122/32/7 121/31/7
f 337/78/6 340/77/6 243/35/6 242/65/6
f 338/56/48 241/31/48 121/31/48 169/56/48
f 244/32/49 339/55/49 170/55/49 122/32/49
f 245/34/7 248/32/7 124/32/7 123/34/7
f 341/77/6 344/32/6 247/35/6 246/66/6
f 342/58/48 245/34/48 123/34/48 171/58/48
f 248/32/50 343/57/50 172/57/50 124/32/50
f 249/35/7 252/32/7 126/32/7 125/35/7
f 345/35/6 348/35/6 251/32/6 250/65/6
f 346/33/48 249/35/48 125/35/48 173/33/48
f 252/32/50 347/33/50 174/33/50 126/32/50
f 253/36/3 256/37/3 128/37/3 127/36/3
f 349/80/7 352/79/7 255/37/7 254/37/7
f 350/36/51 253/36/51 127/36/51 175/36/51
f 256/37/52 351/36/52 176/36/52 128/37/52
f 257/36/3 260/36/3 130/36/3 129/36/3
f 353/36/7 356/37/7 259/36/7 258/36/7
f 354/37/51 257/36/51 129/36/51 177/37/51
f 260/36/52 355/36/52 178/36/52 130/36/52
f 261/36/3 264/36/3 132/36/3 131/36/3
f 357/36/7 360/36/7 263/36/7 262/36/7
f 358/36/51 261/36/51 131/36/51 179/36/51
f 264/36/52 359/59/52 180/59/52 132/36/52
f 265/39/6 268/39/6 134/39/6 133/39/6
f 361/40/8 364/40/8 267/40/8 266/67/8
f 362/40/53 265/39/53 133/39/53 181/40/53
f 268/39/54 363/44/54 182/44/54 134/39/54
f 269/40/6 272/41/6 136/41/6 135/40/6
f 365/40/8 368/42/8 271/42/8 270/40/8
f 366/40/53 269/40/53 135/40/53 183/40/53
f 272/41/55 367/41/55 184/41/55 136/41/55
f 273/43/6 276/40/6 138/40/6 137/43/6
f 369/81/8 372/40/8 275/40/8 274/68/8
f 370/43/53 273/43/53 137/43/53 185/43/53
f 276/40/54 371/44/54 186/44/54 138/40/54
f 277/45/4 280/46/4 140/46/4 139/45/4
f 373/5/1 376/5/1 279/5/1 278/69/1
f 374/5/35 277/45/35 139/45/35 187/5/35
f 280/46/34 375/2/34 188/2/34 140/46/34
f 283/15/8 282/15/8 141/15/8 142/15/8
f 379/15/3 378/17/3 281/15/3 284/15/3
f 282/15/41 377/18/41 189/18/41 141/15/41
f 380/16/40 283/15/40 142/15/40 190/16/40
f 285/27/1 288/47/1 144/47/1 143/27/1
f 381/70/5 384/60/5 287/48/5 286/70/5
f 382/61/45 285/27/45 143/27/45 191/61/45
f 288/47/46 383/60/46 192/60/46 144/47/46
f 291/4/5 290/49/5 145/49/5 146/4/5
f 295/50/5 294/2/5 147/2/5 148/50/5
f 297/8/4 300/51/4 150/51/4 149/8/4
f 301/8/4 304/9/4 152/9/4 151/8/4
f 305/52/4 308/6/4 154/6/4 153/52/4
f 309/15/7 312/15/7 156/15/7 155/15/7
f 313/15/7 316/53/7 158/53/7 157/15/7
f 317/23/1 320/20/1 160/20/1 159/23/1
f 321/25/1 324/20/1 162/19/1 161/25/1
f 325/26/1 328/23/1 164/25/1 163/26/1
f 331/27/2 330/30/2 165/30/2 166/27/2
f 335/54/2 334/29/2 167/29/2 168/54/2
f 339/55/8 338/56/8 169/56/8 170/55/8
f 343/57/8 342/58/8 171/58/8 172/57/8
f 347/33/8 346/33/8 173/33/8 174/33/8
f 351/36/6 350/36/6 175/36/6 176/36/6
f 355/36/6 354/37/6 177/37/6 178/36/6
f 359/59/6 358/36/6 179/36/6 180/59/6
f 363/44/3 362/40/3 181/40/3 182/44/3
f 367/41/3 366/40/3 183/40/3 184/41/3
f 371/44/3 370/43/3 185/43/3 186/44/3
f 375/2/5 374/5/5 187/5/5 188/2/5
f 377/18/7 380/16/7 190/16/7 189/18/7
f 383/60/2 382/61/2 191/61/2 192/60/2
