# Blender 5.2.0 LTS
# www.blender.org
mtllib ethetbetb.mtl
o Cube.013
v 93.000000 0.100000 2.000000
v 92.000000 0.100000 1.000000
v 92.000000 2.100000 1.000000
v 93.000000 2.100000 2.000000
v 92.000000 0.100000 -1.000000
v 93.000000 0.100000 -2.000000
v 93.000000 2.100000 -2.000000
v 92.000000 2.100000 -1.000000
v 96.000000 0.100000 1.000000
v 95.000000 0.100000 2.000000
v 95.000000 2.100000 2.000000
v 96.000000 2.100000 1.000000
v 95.000000 0.100000 -2.000000
v 96.000000 0.100000 -1.000000
v 96.000000 2.100000 -1.000000
v 95.000000 2.100000 -2.000000
v 92.943916 0.310324 1.854879
v 92.943916 2.008388 1.854879
v 92.145119 2.008388 1.056087
v 92.145119 0.310324 1.056087
v 92.943916 2.008388 -1.854879
v 92.943916 0.310324 -1.854879
v 92.145119 0.310324 -1.056087
v 92.145119 2.008388 -1.056087
v 95.854881 2.008388 -1.056087
v 95.854881 0.310324 -1.056087
v 95.056084 0.310324 -1.854879
v 95.056084 2.008388 -1.854879
v 95.056084 2.008388 1.854879
v 95.056084 0.310324 1.854879
v 95.854881 0.310324 1.056087
v 95.854881 2.008388 1.056087
v 92.059357 0.310324 0.849032
v 92.059357 2.008388 0.849032
v 92.059357 2.008388 -0.849032
v 92.059357 0.310324 -0.849032
v 94.849030 0.310324 1.940644
v 94.849030 2.008388 1.940644
v 93.150970 2.008388 1.940644
v 93.150970 0.310324 1.940644
v 93.150970 0.310324 -1.940644
v 93.150970 2.008388 -1.940644
v 94.849030 2.008388 -1.940644
v 94.849030 0.310324 -1.940644
v 95.940643 0.310324 -0.849032
v 95.940643 2.008388 -0.849032
v 95.940643 2.008388 0.849032
v 95.940643 0.310324 0.849032
v 93.151108 0.225000 1.672118
v 93.151108 1.975000 1.672118
v 92.327881 1.975000 0.848895
v 92.327881 0.225000 0.848895
v 93.151108 1.975000 -1.672118
v 93.151108 0.225000 -1.672118
v 92.327881 0.225000 -0.848895
v 92.327881 1.975000 -0.848895
v 95.672119 1.975000 -0.848895
v 95.672119 0.225000 -0.848895
v 94.848892 0.225000 -1.672118
v 94.848892 1.975000 -1.672118
v 94.848892 1.975000 1.672118
v 94.848892 0.225000 1.672118
v 95.672119 0.225000 0.848895
v 95.672119 1.975000 0.848895
v 92.338692 0.225000 0.875000
v 92.338692 1.975000 0.875000
v 92.338692 1.975000 -0.875000
v 92.338692 0.225000 -0.875000
v 94.875000 0.225000 1.661305
v 94.875000 1.975000 1.661305
v 93.125000 1.975000 1.661305
v 93.125000 0.225000 1.661305
v 93.125000 0.225000 -1.661305
v 93.125000 1.975000 -1.661305
v 94.875000 1.975000 -1.661305
v 94.875000 0.225000 -1.661305
v 95.661308 0.225000 -0.875000
v 95.661308 1.975000 -0.875000
v 95.661308 1.975000 0.875000
v 95.661308 0.225000 0.875000
v 93.000000 2.100000 2.000000
v 92.000000 2.100000 1.000000
v 92.000000 4.100000 1.000000
v 93.000000 4.100000 2.000000
v 92.000000 2.100000 -1.000000
v 93.000000 2.100000 -2.000000
v 93.000000 4.100000 -2.000000
v 92.000000 4.100000 -1.000000
v 96.000000 2.100000 1.000000
v 95.000000 2.100000 2.000000
v 95.000000 4.100000 2.000000
v 96.000000 4.100000 1.000000
v 95.000000 2.100000 -2.000000
v 96.000000 2.100000 -1.000000
v 96.000000 4.100000 -1.000000
v 95.000000 4.100000 -2.000000
v 92.943916 2.250968 1.854879
v 92.943916 3.949032 1.854879
v 92.145119 3.949032 1.056087
v 92.145119 2.250968 1.056087
v 92.943916 3.949032 -1.854879
v 92.943916 2.250968 -1.854879
v 92.145119 2.250968 -1.056087
v 92.145119 3.949032 -1.056087
v 95.854881 3.949032 -1.056087
v 95.854881 2.250968 -1.056087
v 95.056084 2.250968 -1.854879
v 95.056084 3.949032 -1.854879
v 95.056084 3.949032 1.854879
v 95.056084 2.250968 1.854879
v 95.854881 2.250968 1.056087
v 95.854881 3.949032 1.056087
v 92.059357 2.250968 0.849032
v 92.059357 3.949032 0.849032
v 92.059357 3.949032 -0.849032
v 92.059357 2.250968 -0.849032
v 94.849030 2.250968 1.940644
v 94.849030 3.949032 1.940644
v 93.150970 3.949032 1.940644
v 93.150970 2.250968 1.940644
v 93.150970 2.250968 -1.940644
v 93.150970 3.949032 -1.940644
v 94.849030 3.949032 -1.940644
v 94.849030 2.250968 -1.940644
v 95.940643 2.250968 -0.849032
v 95.940643 3.949032 -0.849032
v 95.940643 3.949032 0.849032
v 95.940643 2.250968 0.849032
v 93.151108 2.225000 1.672118
v 93.151108 3.975000 1.672118
v 92.327881 3.975000 0.848895
v 92.327881 2.225000 0.848895
v 93.151108 3.975000 -1.672118
v 93.151108 2.225000 -1.672118
v 92.327881 2.225000 -0.848895
v 92.327881 3.975000 -0.848895
v 95.672119 3.975000 -0.848895
v 95.672119 2.225000 -0.848895
v 94.848892 2.225000 -1.672118
v 94.848892 3.975000 -1.672118
v 94.848892 3.975000 1.672118
v 94.848892 2.225000 1.672118
v 95.672119 2.225000 0.848895
v 95.672119 3.975000 0.848895
v 92.338692 2.225000 0.875000
v 92.338692 3.975000 0.875000
v 92.338692 3.975000 -0.875000
v 92.338692 2.225000 -0.875000
v 94.875000 2.225000 1.661305
v 94.875000 3.975000 1.661305
v 93.125000 3.975000 1.661305
v 93.125000 2.225000 1.661305
v 93.125000 2.225000 -1.661305
v 93.125000 3.975000 -1.661305
v 94.875000 3.975000 -1.661305
v 94.875000 2.225000 -1.661305
v 95.661308 2.225000 -0.875000
v 95.661308 3.975000 -0.875000
v 95.661308 3.975000 0.875000
v 95.661308 2.225000 0.875000
v 93.000000 4.100000 2.000000
v 92.000000 4.100000 1.000000
v 92.000000 6.100000 1.000000
v 93.000000 6.100000 2.000000
v 92.000000 4.100000 -1.000000
v 93.000000 4.100000 -2.000000
v 93.000000 6.100000 -2.000000
v 92.000000 6.100000 -1.000000
v 96.000000 4.100000 1.000000
v 95.000000 4.100000 2.000000
v 95.000000 6.100000 2.000000
v 96.000000 6.100000 1.000000
v 95.000000 4.100000 -2.000000
v 96.000000 4.100000 -1.000000
v 96.000000 6.100000 -1.000000
v 95.000000 6.100000 -2.000000
v 92.943916 4.191612 1.854879
v 92.943916 5.889676 1.854879
v 92.145119 5.889676 1.056087
v 92.145119 4.191612 1.056087
v 92.943916 5.889676 -1.854879
v 92.943916 4.191612 -1.854879
v 92.145119 4.191612 -1.056087
v 92.145119 5.889676 -1.056087
v 95.854881 5.889676 -1.056087
v 95.854881 4.191612 -1.056087
v 95.056084 4.191612 -1.854879
v 95.056084 5.889676 -1.854879
v 95.056084 5.889676 1.854879
v 95.056084 4.191612 1.854879
v 95.854881 4.191612 1.056087
v 95.854881 5.889676 1.056087
v 92.059357 4.191612 0.849032
v 92.059357 5.889676 0.849032
v 92.059357 5.889676 -0.849032
v 92.059357 4.191612 -0.849032
v 94.849030 4.191612 1.940644
v 94.849030 5.889676 1.940644
v 93.150970 5.889676 1.940644
v 93.150970 4.191612 1.940644
v 93.150970 4.191612 -1.940644
v 93.150970 5.889676 -1.940644
v 94.849030 5.889676 -1.940644
v 94.849030 4.191612 -1.940644
v 95.940643 4.191612 -0.849032
v 95.940643 5.889676 -0.849032
v 95.940643 5.889676 0.849032
v 95.940643 4.191612 0.849032
v 93.151108 4.225000 1.672118
v 93.151108 5.975000 1.672118
v 92.327881 5.975000 0.848895
v 92.327881 4.225000 0.848895
v 93.151108 5.975000 -1.672118
v 93.151108 4.225000 -1.672118
v 92.327881 4.225000 -0.848895
v 92.327881 5.975000 -0.848895
v 95.672119 5.975000 -0.848895
v 95.672119 4.225000 -0.848895
v 94.848892 4.225000 -1.672118
v 94.848892 5.975000 -1.672118
v 94.848892 5.975000 1.672118
v 94.848892 4.225000 1.672118
v 95.672119 4.225000 0.848895
v 95.672119 5.975000 0.848895
v 92.338692 4.225000 0.875000
v 92.338692 5.975000 0.875000
v 92.338692 5.975000 -0.875000
v 92.338692 4.225000 -0.875000
v 94.875000 4.225000 1.661305
v 94.875000 5.975000 1.661305
v 93.125000 5.975000 1.661305
v 93.125000 4.225000 1.661305
v 93.125000 4.225000 -1.661305
v 93.125000 5.975000 -1.661305
v 94.875000 5.975000 -1.661305
v 94.875000 4.225000 -1.661305
v 95.661308 4.225000 -0.875000
v 95.661308 5.975000 -0.875000
v 95.661308 5.975000 0.875000
v 95.661308 4.225000 0.875000
v 93.232834 7.700000 1.534335
v 92.465668 7.700000 0.767168
v 92.465668 7.700000 -0.767168
v 93.232834 7.700000 -1.534335
v 94.767166 7.700000 -1.534335
v 95.534332 7.700000 -0.767168
v 95.534332 7.700000 0.767168
v 94.767166 7.700000 1.534335
v 92.938927 6.202110 -1.894353
v 92.105644 6.202110 -1.061070
v 92.511879 7.597889 -0.857956
v 93.142044 7.597889 -1.488124
v 92.105644 6.202110 1.061070
v 92.938927 6.202110 1.894353
v 93.142044 7.597889 1.488124
v 92.511879 7.597889 0.857956
v 95.970139 6.202607 0.877166
v 95.970139 6.202607 -0.877166
v 95.564201 7.597393 -0.674196
v 95.564201 7.597393 0.674196
v 92.029861 6.202607 -0.877166
v 92.029861 6.202607 0.877166
v 92.435799 7.597393 0.674196
v 92.435799 7.597393 -0.674196
v 94.877167 6.202607 -1.970137
v 93.122833 6.202607 -1.970137
v 93.325806 7.597393 -1.564198
v 94.674194 7.597393 -1.564198
v 95.061073 6.202110 1.894353
v 95.894356 6.202110 1.061070
v 95.488121 7.597889 0.857956
v 94.857956 7.597889 1.488124
v 93.122833 6.202607 1.970137
v 94.877167 6.202607 1.970137
v 94.674194 7.597393 1.564198
v 93.325806 7.597393 1.564198
v 95.894356 6.202110 -1.061070
v 95.061073 6.202110 -1.894353
v 94.857956 7.597889 -1.488124
v 95.488121 7.597889 -0.857956
v 92.910683 6.279854 -1.778065
v 92.937584 6.214243 -1.870191
v 92.918564 6.266151 -1.792855
v 92.926208 6.250965 -1.811399
v 92.932396 6.235873 -1.832589
v 92.936058 6.223478 -1.852774
v 92.129807 6.214243 -1.062418
v 92.221931 6.279853 -1.089319
v 92.147224 6.223477 -1.063938
v 92.167412 6.235872 -1.067605
v 92.188599 6.250964 -1.073793
v 92.207146 6.266151 -1.081435
v 92.526947 7.578774 -0.863850
v 92.576637 7.498583 -0.911969
v 92.537605 7.564811 -0.868747
v 92.549294 7.547989 -0.876666
v 92.560722 7.529543 -0.887734
v 92.569931 7.512654 -0.900044
v 93.088028 7.498583 -1.423365
v 93.136147 7.578774 -1.473056
v 93.099953 7.512654 -1.430072
v 93.112267 7.529543 -1.439280
v 93.123337 7.547989 -1.450710
v 93.131256 7.564811 -1.462391
v 92.221931 6.279854 1.089319
v 92.129807 6.214243 1.062417
v 92.207146 6.266151 1.081435
v 92.188599 6.250965 1.073793
v 92.167412 6.235873 1.067605
v 92.147224 6.223478 1.063939
v 92.937584 6.214243 1.870191
v 92.910683 6.279853 1.778065
v 92.936058 6.223477 1.852775
v 92.932396 6.235872 1.832590
v 92.926208 6.250964 1.811399
v 92.918564 6.266151 1.792856
v 93.136147 7.578774 1.473056
v 93.088028 7.498583 1.423365
v 93.131256 7.564811 1.462391
v 93.123337 7.547989 1.450710
v 93.112267 7.529543 1.439280
v 93.099953 7.512654 1.430072
v 92.576637 7.498583 0.911969
v 92.526947 7.578774 0.863850
v 92.569931 7.512654 0.900044
v 92.560722 7.529543 0.887734
v 92.549294 7.547989 0.876666
v 92.537605 7.564811 0.868747
v 95.909149 6.281349 0.770674
v 95.954201 6.215000 0.858371
v 95.913811 6.267569 0.787380
v 95.921272 6.252260 0.806672
v 95.931641 6.236997 0.826845
v 95.943115 6.224415 0.844418
v 95.954201 6.215000 -0.858371
v 95.909149 6.281349 -0.770674
v 95.943115 6.224415 -0.844418
v 95.931641 6.236997 -0.826845
v 95.921272 6.252260 -0.806672
v 95.913811 6.267569 -0.787380
v 95.557404 7.578385 -0.659971
v 95.554993 7.498222 -0.593594
v 95.553101 7.564489 -0.649410
v 95.550163 7.547713 -0.636109
v 95.549614 7.529274 -0.620841
v 95.551529 7.512351 -0.606238
v 95.554993 7.498222 0.593594
v 95.557404 7.578385 0.659971
v 95.551529 7.512351 0.606238
v 95.549614 7.529274 0.620841
v 95.550163 7.547713 0.636109
v 95.553101 7.564489 0.649410
v 92.090851 6.281349 -0.770674
v 92.045799 6.215000 -0.858371
v 92.086189 6.267569 -0.787380
v 92.078728 6.252260 -0.806672
v 92.068359 6.236997 -0.826845
v 92.056885 6.224415 -0.844418
v 92.045799 6.215000 0.858371
v 92.090851 6.281349 0.770674
v 92.056885 6.224415 0.844418
v 92.068359 6.236997 0.826845
v 92.078728 6.252260 0.806672
v 92.086189 6.267569 0.787380
v 92.442596 7.578385 0.659971
v 92.445007 7.498222 0.593594
v 92.446899 7.564489 0.649410
v 92.449837 7.547713 0.636109
v 92.450386 7.529274 0.620841
v 92.448471 7.512351 0.606238
v 92.445007 7.498222 -0.593594
v 92.442596 7.578385 -0.659971
v 92.448471 7.512351 -0.606238
v 92.450386 7.529274 -0.620841
v 92.449837 7.547713 -0.636109
v 92.446899 7.564489 -0.649410
v 94.770676 6.281349 -1.909152
v 94.858368 6.215000 -1.954203
v 94.787376 6.267569 -1.913813
v 94.806671 6.252260 -1.921274
v 94.826843 6.236997 -1.931637
v 94.844421 6.224415 -1.943114
v 93.141632 6.215000 -1.954203
v 93.229324 6.281349 -1.909152
v 93.155579 6.224415 -1.943114
v 93.173157 6.236997 -1.931637
v 93.193329 6.252260 -1.921274
v 93.212624 6.267569 -1.913813
v 93.340027 7.578385 -1.557402
v 93.406403 7.498222 -1.554992
v 93.350594 7.564489 -1.553098
v 93.363892 7.547713 -1.550165
v 93.379158 7.529274 -1.549611
v 93.393761 7.512351 -1.551530
v 94.593597 7.498222 -1.554992
v 94.659973 7.578385 -1.557403
v 94.606239 7.512351 -1.551531
v 94.620842 7.529274 -1.549611
v 94.636108 7.547713 -1.550166
v 94.649406 7.564489 -1.553099
v 95.089317 6.279854 1.778065
v 95.062416 6.214243 1.870191
v 95.081436 6.266151 1.792855
v 95.073792 6.250965 1.811399
v 95.067604 6.235873 1.832589
v 95.063942 6.223478 1.852774
v 95.870193 6.214243 1.062418
v 95.778069 6.279853 1.089319
v 95.852776 6.223477 1.063938
v 95.832588 6.235872 1.067605
v 95.811401 6.250964 1.073793
v 95.792854 6.266151 1.081435
v 95.473053 7.578774 0.863850
v 95.423363 7.498583 0.911969
v 95.462395 7.564811 0.868747
v 95.450706 7.547989 0.876666
v 95.439278 7.529543 0.887734
v 95.430069 7.512654 0.900044
v 94.911972 7.498583 1.423365
v 94.863853 7.578774 1.473056
v 94.900047 7.512654 1.430072
v 94.887733 7.529543 1.439280
v 94.876663 7.547989 1.450710
v 94.868744 7.564811 1.462391
v 93.229324 6.281349 1.909152
v 93.141632 6.215000 1.954203
v 93.212624 6.267569 1.913813
v 93.193329 6.252260 1.921274
v 93.173157 6.236997 1.931637
v 93.155579 6.224415 1.943114
v 94.858368 6.215000 1.954203
v 94.770676 6.281349 1.909152
v 94.844421 6.224415 1.943114
v 94.826843 6.236997 1.931637
v 94.806671 6.252260 1.921274
v 94.787376 6.267569 1.913813
v 94.659973 7.578385 1.557402
v 94.593597 7.498222 1.554992
v 94.649406 7.564489 1.553098
v 94.636108 7.547713 1.550165
v 94.620842 7.529274 1.549611
v 94.606239 7.512351 1.551530
v 93.406403 7.498222 1.554992
v 93.340027 7.578385 1.557403
v 93.393761 7.512351 1.551531
v 93.379158 7.529274 1.549611
v 93.363892 7.547713 1.550166
v 93.350594 7.564489 1.553099
v 95.778069 6.279854 -1.089319
v 95.870193 6.214243 -1.062417
v 95.792854 6.266151 -1.081435
v 95.811401 6.250965 -1.073793
v 95.832588 6.235873 -1.067605
v 95.852776 6.223478 -1.063939
v 95.062416 6.214243 -1.870191
v 95.089317 6.279853 -1.778065
v 95.063942 6.223477 -1.852775
v 95.067604 6.235872 -1.832590
v 95.073792 6.250964 -1.811399
v 95.081436 6.266151 -1.792856
v 94.863853 7.578774 -1.473056
v 94.911972 7.498583 -1.423365
v 94.868744 7.564811 -1.462391
v 94.876663 7.547989 -1.450710
v 94.887733 7.529543 -1.439280
v 94.900047 7.512654 -1.430072
v 95.423363 7.498583 -0.911969
v 95.473053 7.578774 -0.863850
v 95.430069 7.512654 -0.900044
v 95.439278 7.529543 -0.887734
v 95.450706 7.547989 -0.876666
v 95.462395 7.564811 -0.868747
v 95.861496 6.445104 0.574638
v 95.861496 6.445104 -0.574638
v 95.602654 7.334467 -0.445218
v 95.602654 7.334467 0.445218
v 92.138504 6.445104 -0.574638
v 92.138504 6.445104 0.574638
v 92.397346 7.334467 0.445218
v 92.397346 7.334467 -0.445218
v 94.574638 6.445104 -1.861492
v 93.425362 6.445104 -1.861492
v 93.554779 7.334467 -1.602651
v 94.445221 7.334467 -1.602651
v 93.425362 6.445104 1.861492
v 94.574638 6.445104 1.861492
v 94.445221 7.334467 1.602651
v 93.554779 7.334467 1.602651
v 95.686928 6.488225 0.470978
v 95.791801 6.427845 0.571300
v 95.696594 6.462613 0.502348
v 95.713219 6.440511 0.532080
v 95.737335 6.426623 0.555156
v 95.764801 6.423341 0.567598
v 95.791801 6.427845 -0.571300
v 95.686928 6.488225 -0.470978
v 95.764801 6.423341 -0.567598
v 95.737335 6.426622 -0.555156
v 95.713219 6.440511 -0.532080
v 95.696594 6.462612 -0.502348
v 95.534584 7.311632 -0.442691
v 95.478493 7.204407 -0.366759
v 95.509384 7.300943 -0.439889
v 95.487968 7.283437 -0.430472
v 95.475067 7.258773 -0.413006
v 95.472900 7.231203 -0.390502
v 95.478493 7.204407 0.366759
v 95.534584 7.311632 0.442691
v 95.472900 7.231203 0.390502
v 95.475067 7.258773 0.413006
v 95.487968 7.283437 0.430472
v 95.509384 7.300943 0.439889
v 92.313072 6.488225 -0.470978
v 92.208199 6.427845 -0.571300
v 92.303406 6.462613 -0.502348
v 92.286781 6.440511 -0.532080
v 92.262665 6.426623 -0.555156
v 92.235199 6.423341 -0.567598
v 92.208199 6.427845 0.571300
v 92.313072 6.488225 0.470978
v 92.235199 6.423341 0.567598
v 92.262665 6.426622 0.555156
v 92.286781 6.440511 0.532080
v 92.303406 6.462612 0.502348
v 92.465416 7.311632 0.442691
v 92.521507 7.204407 0.366759
v 92.490616 7.300943 0.439889
v 92.512032 7.283437 0.430472
v 92.524933 7.258773 0.413006
v 92.527100 7.231203 0.390502
v 92.521507 7.204407 -0.366759
v 92.465416 7.311632 -0.442691
v 92.527100 7.231203 -0.390502
v 92.524933 7.258773 -0.413006
v 92.512032 7.283437 -0.430472
v 92.490616 7.300943 -0.439889
v 94.470978 6.488225 -1.686930
v 94.571297 6.427845 -1.791799
v 94.502350 6.462613 -1.696591
v 94.532082 6.440511 -1.713216
v 94.555153 6.426623 -1.737338
v 94.567596 6.423341 -1.764798
v 93.428703 6.427845 -1.791799
v 93.529022 6.488225 -1.686930
v 93.432404 6.423341 -1.764798
v 93.444847 6.426622 -1.737338
v 93.467918 6.440511 -1.713216
v 93.497650 6.462612 -1.696591
v 93.557312 7.311632 -1.534581
v 93.633240 7.204407 -1.478492
v 93.560112 7.300943 -1.509380
v 93.569527 7.283437 -1.487970
v 93.586998 7.258773 -1.475068
v 93.609497 7.231203 -1.472899
v 94.366760 7.204407 -1.478492
v 94.442688 7.311632 -1.534581
v 94.390503 7.231203 -1.472900
v 94.413002 7.258773 -1.475068
v 94.430473 7.283437 -1.487970
v 94.439888 7.300943 -1.509380
v 93.529022 6.488225 1.686930
v 93.428703 6.427845 1.791799
v 93.497650 6.462613 1.696591
v 93.467918 6.440511 1.713216
v 93.444847 6.426623 1.737338
v 93.432404 6.423341 1.764798
v 94.571297 6.427845 1.791799
v 94.470978 6.488225 1.686930
v 94.567596 6.423341 1.764798
v 94.555153 6.426622 1.737338
v 94.532082 6.440511 1.713216
v 94.502350 6.462612 1.696591
v 94.442688 7.311632 1.534581
v 94.366760 7.204407 1.478492
v 94.439888 7.300943 1.509380
v 94.430473 7.283437 1.487970
v 94.413002 7.258773 1.475068
v 94.390503 7.231203 1.472899
v 93.633240 7.204407 1.478492
v 93.557312 7.311632 1.534581
v 93.609497 7.231203 1.472900
v 93.586998 7.258773 1.475068
v 93.569527 7.283437 1.487970
v 93.560112 7.300943 1.509380
v 95.148071 8.262244 -0.607172
v 94.607170 8.262244 -1.148072
v 93.392830 8.262244 -1.148072
v 92.851929 8.262244 -0.607172
v 92.851929 8.262244 0.607172
v 93.392830 8.262244 1.148072
v 94.607170 8.262244 1.148072
v 95.148071 8.262244 0.607172
vn -0.0000 -1.0000 -0.0000
vn -0.0000 1.0000 -0.0000
vn -0.9328 -0.0000 0.3605
vn -0.5828 -0.5664 0.5828
vn -0.3605 -0.0000 0.9328
vn -0.6774 0.2868 0.6774
vn -0.9328 -0.0000 -0.3605
vn -0.6774 0.2868 -0.6774
vn -0.3605 -0.0000 -0.9328
vn -0.5828 -0.5664 -0.5828
vn 0.3605 -0.0000 -0.9328
vn 0.6774 0.2868 -0.6774
vn 0.9328 -0.0000 -0.3605
vn 0.5828 -0.5664 -0.5828
vn 0.9328 -0.0000 0.3605
vn 0.6774 0.2868 0.6774
vn 0.3605 -0.0000 0.9328
vn 0.5828 -0.5664 0.5828
vn -0.9307 -0.0000 -0.3659
vn -0.8392 -0.5438 -0.0000
vn -0.9307 -0.0000 0.3659
vn -0.9624 0.2716 -0.0000
vn -0.3659 -0.0000 0.9307
vn -0.0000 -0.5438 0.8392
vn 0.3659 -0.0000 0.9307
vn -0.0000 0.2716 0.9624
vn 0.3659 -0.0000 -0.9307
vn -0.0000 -0.5438 -0.8392
vn -0.3659 -0.0000 -0.9307
vn -0.0000 0.2716 -0.9624
vn 0.9307 -0.0000 0.3659
vn 0.8392 -0.5438 -0.0000
vn 0.9307 -0.0000 -0.3659
vn 0.9624 0.2716 -0.0000
vn -0.6615 -0.0000 -0.7499
vn -0.0850 -0.9927 0.0850
vn 0.7499 -0.0000 0.6615
vn 0.2090 0.9553 -0.2090
vn -0.6615 -0.0000 0.7499
vn 0.2090 0.9553 0.2090
vn 0.7499 -0.0000 -0.6615
vn -0.0850 -0.9927 -0.0850
vn -0.7499 -0.0000 -0.6615
vn -0.2090 0.9553 0.2090
vn 0.6615 -0.0000 0.7499
vn 0.0850 -0.9927 -0.0850
vn 0.6615 -0.0000 -0.7499
vn -0.2090 0.9553 -0.2090
vn -0.7499 -0.0000 0.6615
vn 0.0850 -0.9927 0.0850
vn 0.0926 -0.0000 -0.9957
vn -0.1187 -0.9929 -0.0000
vn 0.0926 -0.0000 0.9957
vn 0.2921 0.9564 -0.0000
vn -0.9957 -0.0000 -0.0926
vn -0.0000 -0.9929 0.1187
vn 0.9957 -0.0000 -0.0926
vn -0.0000 0.9564 -0.2921
vn 0.9957 -0.0000 0.0926
vn -0.0000 -0.9929 -0.1187
vn -0.9957 -0.0000 0.0926
vn -0.0000 0.9564 0.2921
vn -0.0926 -0.0000 0.9957
vn 0.1187 -0.9929 -0.0000
vn -0.0926 -0.0000 -0.9957
vn -0.2921 0.9564 -0.0000
vn -0.6526 -0.3849 0.6526
vn -0.6526 0.3849 0.6526
vn -0.6526 0.3849 -0.6526
vn -0.6526 -0.3849 -0.6526
vn 0.6526 0.3849 -0.6526
vn 0.6526 -0.3849 -0.6526
vn 0.6526 0.3849 0.6526
vn 0.6526 -0.3849 0.6526
vn -0.9307 -0.3659 -0.0000
vn -0.9307 0.3659 -0.0000
vn -0.0000 -0.3659 0.9307
vn -0.0000 0.3659 0.9307
vn -0.0000 -0.3659 -0.9307
vn -0.0000 0.3659 -0.9307
vn 0.9307 -0.3659 -0.0000
vn 0.9307 0.3659 -0.0000
vn 0.0663 -0.9956 -0.0663
vn 0.0663 0.9956 -0.0663
vn 0.0663 0.9956 0.0663
vn 0.0663 -0.9956 0.0663
vn -0.0663 0.9956 0.0663
vn -0.0663 -0.9956 0.0663
vn -0.0663 0.9956 -0.0663
vn -0.0663 -0.9956 -0.0663
vn 0.0926 -0.9957 -0.0000
vn 0.0926 0.9957 -0.0000
vn -0.0000 -0.9957 -0.0926
vn -0.0000 0.9957 -0.0926
vn -0.0000 -0.9957 0.0926
vn -0.0000 0.9957 0.0926
vn -0.0926 -0.9957 -0.0000
vn -0.0926 0.9957 -0.0000
vn -0.6774 -0.2868 0.6774
vn -0.5828 0.5664 0.5828
vn -0.5828 0.5664 -0.5828
vn -0.6774 -0.2868 -0.6774
vn 0.5828 0.5664 -0.5828
vn 0.6774 -0.2868 -0.6774
vn 0.5828 0.5664 0.5828
vn 0.6774 -0.2868 0.6774
vn -0.9624 -0.2716 -0.0000
vn -0.8392 0.5438 -0.0000
vn -0.0000 -0.2716 0.9624
vn -0.0000 0.5438 0.8392
vn -0.0000 -0.2716 -0.9624
vn -0.0000 0.5438 -0.8392
vn 0.9624 -0.2716 -0.0000
vn 0.8392 0.5438 -0.0000
vn 0.2090 -0.9553 -0.2090
vn -0.0850 0.9927 0.0850
vn -0.0850 0.9927 -0.0850
vn 0.2090 -0.9553 0.2090
vn 0.0850 0.9927 -0.0850
vn -0.2090 -0.9553 0.2090
vn 0.0850 0.9927 0.0850
vn -0.2090 -0.9553 -0.2090
vn 0.2921 -0.9564 -0.0000
vn -0.1187 0.9929 -0.0000
vn -0.0000 -0.9564 -0.2921
vn -0.0000 0.9929 0.1187
vn -0.0000 -0.9564 0.2921
vn -0.0000 0.9929 -0.1187
vn -0.2921 -0.9564 -0.0000
vn 0.1187 0.9929 -0.0000
vn -0.6756 0.2950 -0.6756
vn -0.6756 0.2950 0.6756
vn 0.9602 0.2794 -0.0000
vn -0.9602 0.2794 -0.0000
vn -0.0000 0.2794 -0.9602
vn 0.6756 0.2950 0.6756
vn -0.0000 0.2794 0.9602
vn 0.6756 0.2950 -0.6756
vn -0.6661 0.3357 -0.6661
vn -0.6305 0.4526 -0.6305
vn -0.5785 0.5751 -0.5785
vn -0.5146 0.6858 -0.5146
vn -0.4489 0.7727 -0.4489
vn -0.9628 0.1946 -0.1873
vn -0.9256 0.2236 -0.3054
vn -0.8659 0.2518 -0.4322
vn -0.7886 0.2749 -0.5501
vn -0.7061 0.2907 -0.6457
vn -0.1873 0.1946 -0.9628
vn -0.3054 0.2236 -0.9256
vn -0.4322 0.2518 -0.8659
vn -0.5501 0.2749 -0.7886
vn -0.6457 0.2907 -0.7061
vn -0.6787 -0.2804 -0.6788
vn -0.6984 -0.1562 -0.6984
vn -0.7070 -0.0139 -0.7070
vn -0.7012 0.1288 -0.7012
vn -0.6840 0.2537 -0.6840
vn -0.6661 0.3357 0.6661
vn -0.6305 0.4526 0.6305
vn -0.5785 0.5751 0.5785
vn -0.5146 0.6858 0.5146
vn -0.4489 0.7727 0.4489
vn -0.1873 0.1946 0.9628
vn -0.3054 0.2236 0.9256
vn -0.4322 0.2518 0.8659
vn -0.5501 0.2749 0.7886
vn -0.6457 0.2907 0.7061
vn -0.9628 0.1946 0.1873
vn -0.9256 0.2236 0.3054
vn -0.8659 0.2518 0.4322
vn -0.7886 0.2749 0.5501
vn -0.7061 0.2907 0.6457
vn -0.6787 -0.2804 0.6788
vn -0.6984 -0.1562 0.6984
vn -0.7070 -0.0139 0.7070
vn -0.7012 0.1288 0.7012
vn -0.6840 0.2537 0.6840
vn 0.6472 0.7623 -0.0000
vn 0.7388 0.6739 -0.0000
vn 0.8273 0.5617 -0.0000
vn 0.8989 0.4381 -0.0000
vn 0.9473 0.3204 -0.0000
vn 0.8225 0.1600 -0.5457
vn 0.8790 0.1923 -0.4364
vn 0.9253 0.2249 -0.3052
vn 0.9528 0.2529 -0.1678
vn 0.9609 0.2735 -0.0425
vn 0.8225 0.1600 0.5457
vn 0.8790 0.1923 0.4364
vn 0.9253 0.2249 0.3052
vn 0.9528 0.2529 0.1678
vn 0.9609 0.2735 0.0425
vn 0.9713 0.2380 -0.0000
vn 0.9936 0.1127 -0.0000
vn 0.9995 -0.0301 -0.0000
vn 0.9851 -0.1722 -0.0000
vn 0.9552 -0.2959 -0.0000
vn -0.9473 0.3204 -0.0000
vn -0.8989 0.4381 -0.0000
vn -0.8273 0.5617 -0.0000
vn -0.7388 0.6739 -0.0000
vn -0.6472 0.7623 -0.0000
vn -0.9609 0.2735 0.0425
vn -0.9528 0.2529 0.1678
vn -0.9253 0.2249 0.3052
vn -0.8790 0.1923 0.4364
vn -0.8225 0.1600 0.5457
vn -0.9609 0.2735 -0.0425
vn -0.9528 0.2529 -0.1678
vn -0.9253 0.2249 -0.3052
vn -0.8790 0.1923 -0.4364
vn -0.8225 0.1600 -0.5457
vn -0.9552 -0.2959 -0.0000
vn -0.9851 -0.1722 -0.0000
vn -0.9995 -0.0301 -0.0000
vn -0.9936 0.1127 -0.0000
vn -0.9713 0.2380 -0.0000
vn -0.0000 0.7623 -0.6473
vn -0.0000 0.6739 -0.7388
vn -0.0000 0.5617 -0.8273
vn -0.0000 0.4381 -0.8989
vn -0.0000 0.3204 -0.9473
vn -0.5457 0.1600 -0.8225
vn -0.4364 0.1923 -0.8790
vn -0.3052 0.2249 -0.9253
vn -0.1678 0.2529 -0.9528
vn -0.0425 0.2735 -0.9609
vn 0.0425 0.2735 -0.9609
vn 0.1678 0.2529 -0.9528
vn 0.3052 0.2249 -0.9253
vn 0.4364 0.1923 -0.8790
vn 0.5457 0.1600 -0.8225
vn -0.0000 0.2379 -0.9713
vn -0.0000 0.1127 -0.9936
vn -0.0000 -0.0301 -0.9995
vn -0.0000 -0.1722 -0.9851
vn -0.0000 -0.2959 -0.9552
vn 0.6661 0.3357 0.6661
vn 0.6305 0.4526 0.6305
vn 0.5785 0.5751 0.5785
vn 0.5146 0.6858 0.5146
vn 0.4489 0.7727 0.4489
vn 0.9628 0.1946 0.1873
vn 0.9256 0.2236 0.3054
vn 0.8659 0.2518 0.4322
vn 0.7886 0.2749 0.5501
vn 0.7061 0.2907 0.6457
vn 0.6457 0.2907 0.7061
vn 0.5501 0.2749 0.7886
vn 0.4322 0.2518 0.8659
vn 0.3054 0.2236 0.9256
vn 0.1873 0.1946 0.9628
vn 0.6787 -0.2804 0.6788
vn 0.6984 -0.1562 0.6984
vn 0.7070 -0.0139 0.7070
vn 0.7012 0.1288 0.7012
vn 0.6840 0.2537 0.6840
vn -0.0000 0.3204 0.9473
vn -0.0000 0.4381 0.8989
vn -0.0000 0.5617 0.8273
vn -0.0000 0.6739 0.7388
vn -0.0000 0.7623 0.6473
vn 0.0425 0.2735 0.9609
vn 0.1678 0.2529 0.9528
vn 0.3052 0.2249 0.9253
vn 0.4364 0.1923 0.8790
vn 0.5457 0.1600 0.8225
vn -0.0425 0.2735 0.9609
vn -0.1678 0.2529 0.9528
vn -0.3052 0.2249 0.9253
vn -0.4364 0.1923 0.8790
vn -0.5457 0.1600 0.8225
vn -0.0000 -0.2959 0.9552
vn -0.0000 -0.1722 0.9851
vn -0.0000 -0.0301 0.9995
vn -0.0000 0.1127 0.9936
vn -0.0000 0.2379 0.9713
vn 0.6661 0.3357 -0.6661
vn 0.6305 0.4526 -0.6305
vn 0.5785 0.5751 -0.5785
vn 0.5146 0.6858 -0.5146
vn 0.4489 0.7727 -0.4489
vn 0.6457 0.2907 -0.7061
vn 0.5501 0.2749 -0.7886
vn 0.4322 0.2518 -0.8659
vn 0.3054 0.2236 -0.9256
vn 0.1873 0.1946 -0.9628
vn 0.7061 0.2907 -0.6457
vn 0.7886 0.2749 -0.5501
vn 0.8659 0.2518 -0.4322
vn 0.9256 0.2236 -0.3054
vn 0.9628 0.1946 -0.1873
vn 0.6787 -0.2804 -0.6787
vn 0.6984 -0.1562 -0.6984
vn 0.7070 -0.0139 -0.7070
vn 0.7012 0.1288 -0.7012
vn 0.6840 0.2537 -0.6840
vn -0.4250 0.7992 -0.4250
vn -0.9719 0.1841 -0.1466
vn -0.1467 0.1841 -0.9719
vn -0.6696 -0.3213 -0.6696
vn -0.4250 0.7992 0.4250
vn -0.1466 0.1841 0.9719
vn -0.9719 0.1841 0.1466
vn -0.6696 -0.3213 0.6696
vn 0.6139 0.7894 -0.0000
vn 0.8005 0.1485 -0.5807
vn 0.8005 0.1485 0.5807
vn 0.9416 -0.3367 -0.0000
vn -0.6139 0.7894 -0.0000
vn -0.8005 0.1485 0.5807
vn -0.8005 0.1485 -0.5807
vn -0.9416 -0.3367 -0.0000
vn -0.0000 0.7894 -0.6139
vn -0.5807 0.1485 -0.8005
vn 0.5807 0.1485 -0.8005
vn -0.0000 -0.3366 -0.9416
vn 0.4250 0.7992 0.4250
vn 0.9719 0.1841 0.1466
vn 0.1467 0.1841 0.9719
vn 0.6696 -0.3213 0.6696
vn -0.0000 0.7894 0.6139
vn 0.5807 0.1485 0.8005
vn -0.5807 0.1485 0.8005
vn -0.0000 -0.3366 0.9416
vn 0.4250 0.7992 -0.4250
vn 0.1466 0.1841 -0.9719
vn 0.9719 0.1841 -0.1466
vn 0.6696 -0.3213 -0.6696
vn 0.9356 0.3529 -0.0000
vn 0.7992 0.6011 -0.0000
vn 0.4989 0.8666 -0.0000
vn -0.1645 0.9864 -0.0000
vn 0.9603 0.2683 -0.0767
vn 0.9117 0.2143 -0.3505
vn 0.7193 0.1095 -0.6860
vn 0.4114 -0.0129 -0.9114
vn 0.1514 -0.0991 -0.9835
vn 0.9603 0.2683 0.0766
vn 0.9117 0.2143 0.3505
vn 0.7193 0.1095 0.6860
vn 0.4114 -0.0129 0.9114
vn 0.1514 -0.0991 0.9835
vn 0.9789 0.2043 -0.0000
vn 0.9969 -0.0784 -0.0000
vn 0.8861 -0.4635 -0.0000
vn 0.6330 -0.7742 -0.0000
vn 0.3905 -0.9206 -0.0000
vn -0.9356 0.3529 -0.0000
vn -0.7992 0.6011 -0.0000
vn -0.4989 0.8666 -0.0000
vn 0.1645 0.9864 -0.0000
vn -0.9603 0.2683 0.0767
vn -0.9117 0.2143 0.3505
vn -0.7193 0.1095 0.6860
vn -0.4114 -0.0129 0.9114
vn -0.1514 -0.0991 0.9835
vn -0.9603 0.2683 -0.0766
vn -0.9117 0.2143 -0.3505
vn -0.7193 0.1095 -0.6860
vn -0.4114 -0.0129 -0.9114
vn -0.1514 -0.0991 -0.9835
vn -0.9789 0.2043 -0.0000
vn -0.9969 -0.0784 -0.0000
vn -0.8861 -0.4635 -0.0000
vn -0.6330 -0.7742 -0.0000
vn -0.3905 -0.9206 -0.0000
vn -0.0000 0.3529 -0.9357
vn -0.0000 0.6011 -0.7992
vn -0.0000 0.8666 -0.4990
vn -0.0000 0.9864 0.1645
vn -0.0767 0.2683 -0.9603
vn -0.3505 0.2143 -0.9117
vn -0.6860 0.1095 -0.7193
vn -0.9114 -0.0129 -0.4114
vn -0.9835 -0.0991 -0.1514
vn 0.0766 0.2683 -0.9603
vn 0.3505 0.2143 -0.9117
vn 0.6860 0.1095 -0.7193
vn 0.9114 -0.0129 -0.4114
vn 0.9835 -0.0991 -0.1514
vn -0.0000 0.2043 -0.9789
vn -0.0000 -0.0784 -0.9969
vn -0.0000 -0.4635 -0.8861
vn -0.0000 -0.7742 -0.6330
vn -0.0000 -0.9206 -0.3905
vn -0.0000 0.3529 0.9357
vn -0.0000 0.6011 0.7992
vn -0.0000 0.8666 0.4990
vn -0.0000 0.9864 -0.1645
vn 0.0767 0.2683 0.9603
vn 0.3505 0.2143 0.9117
vn 0.6860 0.1095 0.7193
vn 0.9114 -0.0129 0.4114
vn 0.9835 -0.0991 0.1514
vn -0.0766 0.2683 0.9603
vn -0.3505 0.2143 0.9117
vn -0.6860 0.1095 0.7193
vn -0.9114 -0.0129 0.4114
vn -0.9835 -0.0991 0.1514
vn -0.0000 0.2043 0.9789
vn -0.0000 -0.0784 0.9969
vn -0.0000 -0.4635 0.8861
vn -0.0000 -0.7742 0.6330
vn -0.0000 -0.9206 0.3905
vn -0.2404 0.9707 -0.0000
vn 0.0775 -0.1215 -0.9896
vn 0.0775 -0.1215 0.9896
vn 0.3180 -0.9481 -0.0000
vn 0.2404 0.9707 -0.0000
vn -0.0775 -0.1215 0.9896
vn -0.0775 -0.1215 -0.9896
vn -0.3180 -0.9481 -0.0000
vn -0.0000 0.9707 0.2404
vn -0.9896 -0.1215 -0.0775
vn 0.9896 -0.1215 -0.0775
vn -0.0000 -0.9481 -0.3180
vn -0.0000 0.9707 -0.2404
vn 0.9896 -0.1215 0.0775
vn -0.9896 -0.1215 0.0775
vn -0.0000 -0.9481 0.3180
vn 0.5828 0.5662 -0.5828
vn -0.0000 0.5662 -0.8242
vn -0.5828 0.5662 -0.5828
vn -0.8242 0.5662 -0.0000
vn -0.5828 0.5662 0.5828
vn -0.0000 0.5662 0.8242
vn 0.5828 0.5662 0.5828
vn 0.8242 0.5662 -0.0000
vt 0.125000 0.562500
vt 0.187500 0.500000
vt 0.354167 0.458333
vt 0.375000 0.562500
vt 0.375000 0.687500
vt 0.354167 0.791667
vt 0.187500 0.750000
vt 0.125000 0.687500
vt 0.625000 0.562500
vt 0.645833 0.458333
vt 0.812500 0.500000
vt 0.875000 0.562500
vt 0.875000 0.687500
vt 0.812500 0.750000
vt 0.645833 0.791667
vt 0.625000 0.687500
vt 0.375000 0.000000
vt 0.625000 0.000000
vt 0.609375 0.005524
vt 0.390625 0.005524
vt 0.625000 0.062500
vt 0.609375 0.056976
vt 0.375000 0.062500
vt 0.390625 0.056976
vt 0.625000 0.312500
vt 0.375000 0.312500
vt 0.390625 0.301451
vt 0.609375 0.301451
vt 0.375000 0.187500
vt 0.390625 0.198549
vt 0.625000 0.187500
vt 0.609375 0.198549
vt 0.389390 0.553293
vt 0.610610 0.553293
vt 0.373631 0.467540
vt 0.626369 0.467541
vt 0.373631 0.782460
vt 0.626369 0.782460
vt 0.389390 0.696707
vt 0.610610 0.696707
vt 0.609375 0.070312
vt 0.390625 0.070312
vt 0.609375 0.179687
vt 0.390625 0.179688
vt 0.626810 0.800781
vt 0.373190 0.800781
vt 0.625000 0.937500
vt 0.610170 0.928385
vt 0.375000 0.937500
vt 0.389830 0.928385
vt 0.610170 0.321615
vt 0.389830 0.321615
vt 0.626810 0.449219
vt 0.373191 0.449219
vt 0.609375 0.570312
vt 0.390625 0.570312
vt 0.609375 0.679688
vt 0.390625 0.679688
vt 0.648477 0.569882
vt 0.674484 0.507157
vt 0.794004 0.527517
vt 0.841368 0.574993
vt 0.841368 0.675006
vt 0.794004 0.722483
vt 0.674484 0.742843
vt 0.648477 0.680118
vt 0.625000 0.197381
vt 0.625000 0.302619
vt 0.625000 0.199274
vt 0.625000 0.300726
vt 0.625000 0.004941
vt 0.625000 0.057559
vt 0.625000 0.005887
vt 0.625000 0.056613
vt 0.625000 0.569557
vt 0.625000 0.680443
vt 0.625000 0.570773
vt 0.625000 0.679227
vt 0.625000 0.069557
vt 0.625000 0.180443
vt 0.625000 0.070773
vt 0.625000 0.179227
vt 0.626176 0.320734
vt 0.644657 0.450100
vt 0.626379 0.322152
vt 0.644455 0.448682
vt 0.626647 0.695735
vt 0.644186 0.783432
vt 0.626962 0.697312
vt 0.643871 0.781855
vt 0.644657 0.799900
vt 0.626176 0.929266
vt 0.644455 0.801318
vt 0.626379 0.927848
vt 0.644186 0.466568
vt 0.626647 0.554265
vt 0.643871 0.468145
vt 0.626962 0.552688
vt 0.625000 0.206127
vt 0.625000 0.293873
vt 0.625000 0.295253
vt 0.625000 0.204747
vt 0.625000 0.296845
vt 0.625000 0.203155
vt 0.625000 0.298593
vt 0.625000 0.201407
vt 0.625000 0.299956
vt 0.625000 0.200044
vt 0.625000 0.301081
vt 0.625000 0.198919
vt 0.625000 0.298953
vt 0.625000 0.297658
vt 0.625000 0.296097
vt 0.625000 0.294084
vt 0.625000 0.292280
vt 0.625000 0.290722
vt 0.625000 0.201047
vt 0.625000 0.202342
vt 0.625000 0.203903
vt 0.625000 0.205916
vt 0.625000 0.207720
vt 0.625000 0.209278
vt 0.625000 0.009314
vt 0.625000 0.053186
vt 0.625000 0.053877
vt 0.625000 0.008623
vt 0.625000 0.054673
vt 0.625000 0.007827
vt 0.625000 0.055546
vt 0.625000 0.006954
vt 0.625000 0.056228
vt 0.625000 0.006272
vt 0.625000 0.056791
vt 0.625000 0.005709
vt 0.625000 0.055726
vt 0.625000 0.055079
vt 0.625000 0.054299
vt 0.625000 0.053292
vt 0.625000 0.052390
vt 0.625000 0.051611
vt 0.625000 0.006774
vt 0.625000 0.007421
vt 0.625000 0.008201
vt 0.625000 0.009208
vt 0.625000 0.010110
vt 0.625000 0.010889
vt 0.625000 0.679344
vt 0.625000 0.570656
vt 0.625000 0.571460
vt 0.625000 0.678540
vt 0.625000 0.572435
vt 0.625000 0.677565
vt 0.625000 0.573682
vt 0.625000 0.676318
vt 0.625000 0.574819
vt 0.625000 0.675181
vt 0.625000 0.575806
vt 0.625000 0.674194
vt 0.625000 0.677981
vt 0.625000 0.677071
vt 0.625000 0.675977
vt 0.625000 0.674560
vt 0.625000 0.673292
vt 0.625000 0.672196
vt 0.625000 0.572019
vt 0.625000 0.572929
vt 0.625000 0.574023
vt 0.625000 0.575441
vt 0.625000 0.576708
vt 0.625000 0.577804
vt 0.625000 0.075806
vt 0.625000 0.174194
vt 0.625000 0.175181
vt 0.625000 0.074819
vt 0.625000 0.176318
vt 0.625000 0.073682
vt 0.625000 0.177565
vt 0.625000 0.072435
vt 0.625000 0.178540
vt 0.625000 0.071460
vt 0.625000 0.179344
vt 0.625000 0.070656
vt 0.625000 0.172196
vt 0.625000 0.173292
vt 0.625000 0.174560
vt 0.625000 0.175977
vt 0.625000 0.177071
vt 0.625000 0.177981
vt 0.625000 0.077804
vt 0.625000 0.076708
vt 0.625000 0.075440
vt 0.625000 0.074023
vt 0.625000 0.072929
vt 0.625000 0.072019
vt 0.644474 0.448819
vt 0.626359 0.322015
vt 0.626493 0.322953
vt 0.644340 0.447880
vt 0.626656 0.324091
vt 0.644178 0.446742
vt 0.626864 0.325546
vt 0.643970 0.445288
vt 0.627053 0.326872
vt 0.643780 0.443961
vt 0.627218 0.328023
vt 0.643616 0.442810
vt 0.644247 0.447228
vt 0.644095 0.446167
vt 0.643913 0.444890
vt 0.643677 0.443236
vt 0.643465 0.441757
vt 0.643283 0.440479
vt 0.627551 0.330354
vt 0.627368 0.329076
vt 0.627157 0.327597
vt 0.626920 0.325943
vt 0.626738 0.324667
vt 0.626586 0.323605
vt 0.628105 0.703023
vt 0.642729 0.776144
vt 0.642959 0.777294
vt 0.627874 0.701872
vt 0.643224 0.778621
vt 0.627609 0.700546
vt 0.643516 0.780077
vt 0.627318 0.699089
vt 0.643743 0.781213
vt 0.627091 0.697953
vt 0.643930 0.782151
vt 0.626903 0.697016
vt 0.643576 0.780377
vt 0.643360 0.779298
vt 0.643100 0.777998
vt 0.642764 0.776320
vt 0.642463 0.774817
vt 0.642204 0.773518
vt 0.628630 0.705648
vt 0.628370 0.704350
vt 0.628069 0.702846
vt 0.627734 0.701169
vt 0.627474 0.699869
vt 0.627258 0.698789
vt 0.643616 0.807190
vt 0.627218 0.921977
vt 0.627053 0.923128
vt 0.643780 0.806039
vt 0.626864 0.924454
vt 0.643970 0.804712
vt 0.626656 0.925909
vt 0.644177 0.803258
vt 0.626493 0.927047
vt 0.644340 0.802120
vt 0.626359 0.927985
vt 0.644474 0.801182
vt 0.627551 0.919646
vt 0.627368 0.920924
vt 0.627157 0.922403
vt 0.626921 0.924057
vt 0.626738 0.925333
vt 0.626586 0.926395
vt 0.643283 0.809521
vt 0.643465 0.808243
vt 0.643677 0.806764
vt 0.643913 0.805110
vt 0.644095 0.803833
vt 0.644247 0.802772
vt 0.642729 0.473856
vt 0.628105 0.546977
vt 0.627874 0.548128
vt 0.642959 0.472706
vt 0.627609 0.549454
vt 0.643224 0.471379
vt 0.627318 0.550911
vt 0.643515 0.469923
vt 0.627091 0.552047
vt 0.643743 0.468787
vt 0.626903 0.552984
vt 0.643930 0.467849
vt 0.628630 0.544352
vt 0.628370 0.545650
vt 0.628069 0.547154
vt 0.627734 0.548831
vt 0.627474 0.550131
vt 0.627258 0.551211
vt 0.642204 0.476482
vt 0.642463 0.475183
vt 0.642764 0.473680
vt 0.643100 0.472002
vt 0.643360 0.470702
vt 0.643576 0.469623
vt 0.625000 0.587554
vt 0.625000 0.662446
vt 0.625000 0.590445
vt 0.625000 0.659555
vt 0.625000 0.087554
vt 0.625000 0.162446
vt 0.625000 0.090445
vt 0.625000 0.159555
vt 0.629176 0.341730
vt 0.641658 0.429103
vt 0.629657 0.345102
vt 0.641176 0.425731
vt 0.641658 0.820897
vt 0.629176 0.908270
vt 0.641176 0.824269
vt 0.629658 0.904898
vt 0.625000 0.593963
vt 0.625000 0.656038
vt 0.625000 0.657985
vt 0.625000 0.592015
vt 0.625000 0.659824
vt 0.625000 0.590176
vt 0.625000 0.661622
vt 0.625000 0.588378
vt 0.625000 0.662079
vt 0.625000 0.587921
vt 0.625000 0.662241
vt 0.625000 0.587759
vt 0.625000 0.653079
vt 0.625000 0.655028
vt 0.625000 0.656884
vt 0.625000 0.658805
vt 0.625000 0.659197
vt 0.625000 0.659345
vt 0.625000 0.596921
vt 0.625000 0.594972
vt 0.625000 0.593116
vt 0.625000 0.591195
vt 0.625000 0.590803
vt 0.625000 0.590655
vt 0.625000 0.093962
vt 0.625000 0.156038
vt 0.625000 0.157985
vt 0.625000 0.092015
vt 0.625000 0.159824
vt 0.625000 0.090176
vt 0.625000 0.161622
vt 0.625000 0.088378
vt 0.625000 0.162079
vt 0.625000 0.087921
vt 0.625000 0.162241
vt 0.625000 0.087759
vt 0.625000 0.153079
vt 0.625000 0.155028
vt 0.625000 0.156884
vt 0.625000 0.158805
vt 0.625000 0.159197
vt 0.625000 0.159345
vt 0.625000 0.096921
vt 0.625000 0.094972
vt 0.625000 0.093116
vt 0.625000 0.091195
vt 0.625000 0.090803
vt 0.625000 0.090655
vt 0.630244 0.349206
vt 0.640590 0.421627
vt 0.640914 0.423899
vt 0.629919 0.346934
vt 0.641221 0.426044
vt 0.629613 0.344789
vt 0.641520 0.428142
vt 0.629313 0.342692
vt 0.641597 0.428676
vt 0.629237 0.342157
vt 0.641623 0.428864
vt 0.629210 0.341969
vt 0.640097 0.418176
vt 0.640421 0.420449
vt 0.640731 0.422615
vt 0.641051 0.424855
vt 0.641116 0.425313
vt 0.641141 0.425486
vt 0.630737 0.352657
vt 0.630412 0.350384
vt 0.630103 0.348218
vt 0.629783 0.345978
vt 0.629717 0.345520
vt 0.629692 0.345347
vt 0.640590 0.828373
vt 0.630244 0.900794
vt 0.629919 0.903066
vt 0.640914 0.826101
vt 0.629613 0.905211
vt 0.641221 0.823956
vt 0.629313 0.907309
vt 0.641520 0.821858
vt 0.629237 0.907843
vt 0.641597 0.821324
vt 0.629210 0.908031
vt 0.641623 0.821136
vt 0.630737 0.897343
vt 0.630412 0.899616
vt 0.630103 0.901782
vt 0.629783 0.904022
vt 0.629717 0.904480
vt 0.629693 0.904653
vt 0.640097 0.831824
vt 0.640422 0.829551
vt 0.640731 0.827385
vt 0.641051 0.825145
vt 0.641116 0.824687
vt 0.641141 0.824514
s 0
usemtl Material.022
f 5/1/1 6/2/1 13/3/1 14/4/1 9/5/1 10/6/1 1/7/1 2/8/1
f 15/9/2 16/10/2 7/11/2 8/12/2 3/13/2 4/14/2 11/15/2 12/16/2
f 1/17/3 4/18/3 18/19/3 17/20/3
f 4/18/4 3/21/4 19/22/4 18/19/4
f 3/21/5 2/23/5 20/24/5 19/22/5
f 2/23/6 1/17/6 17/20/6 20/24/6
f 7/25/7 6/26/7 22/27/7 21/28/7
f 6/26/8 5/29/8 23/30/8 22/27/8
f 5/29/9 8/31/9 24/32/9 23/30/9
f 8/31/10 7/25/10 21/28/10 24/32/10
f 15/9/11 14/4/11 26/33/11 25/34/11
f 14/4/12 13/3/12 27/35/12 26/33/12
f 13/3/13 16/10/13 28/36/13 27/35/13
f 16/10/14 15/9/14 25/34/14 28/36/14
f 11/15/15 10/6/15 30/37/15 29/38/15
f 10/6/16 9/5/16 31/39/16 30/37/16
f 9/5/17 12/16/17 32/40/17 31/39/17
f 12/16/18 11/15/18 29/38/18 32/40/18
f 2/23/19 3/21/19 34/41/19 33/42/19
f 3/21/20 8/31/20 35/43/20 34/41/20
f 8/31/21 5/29/21 36/44/21 35/43/21
f 5/29/22 2/23/22 33/42/22 36/44/22
f 10/6/23 11/15/23 38/45/23 37/46/23
f 11/15/24 4/47/24 39/48/24 38/45/24
f 4/47/25 1/49/25 40/50/25 39/48/25
f 1/49/26 10/6/26 37/46/26 40/50/26
f 6/26/27 7/25/27 42/51/27 41/52/27
f 7/25/28 16/10/28 43/53/28 42/51/28
f 16/10/29 13/3/29 44/54/29 43/53/29
f 13/3/30 6/26/30 41/52/30 44/54/30
f 14/4/31 15/9/31 46/55/31 45/56/31
f 15/9/32 12/16/32 47/57/32 46/55/32
f 12/16/33 9/5/33 48/58/33 47/57/33
f 9/5/34 14/4/34 45/56/34 48/58/34
f 17/20/35 18/19/35 50/19/35 49/20/35
f 18/19/36 19/22/36 51/22/36 50/19/36
f 19/22/37 20/24/37 52/24/37 51/22/37
f 20/24/38 17/20/38 49/20/38 52/24/38
f 21/28/39 22/27/39 54/27/39 53/28/39
f 22/27/40 23/30/40 55/30/40 54/27/40
f 23/30/41 24/32/41 56/32/41 55/30/41
f 24/32/42 21/28/42 53/28/42 56/32/42
f 25/34/43 26/33/43 58/33/43 57/34/43
f 26/33/44 27/35/44 59/35/44 58/33/44
f 27/35/45 28/36/45 60/36/45 59/35/45
f 28/36/46 25/34/46 57/34/46 60/36/46
f 29/38/47 30/37/47 62/37/47 61/38/47
f 30/37/48 31/39/48 63/39/48 62/37/48
f 31/39/49 32/40/49 64/40/49 63/39/49
f 32/40/50 29/38/50 61/38/50 64/40/50
f 33/42/51 34/41/51 66/41/51 65/42/51
f 34/41/52 35/43/52 67/43/52 66/41/52
f 35/43/53 36/44/53 68/44/53 67/43/53
f 36/44/54 33/42/54 65/42/54 68/44/54
f 37/46/55 38/45/55 70/45/55 69/46/55
f 38/45/56 39/48/56 71/48/56 70/45/56
f 39/48/57 40/50/57 72/50/57 71/48/57
f 40/50/58 37/46/58 69/46/58 72/50/58
f 41/52/59 42/51/59 74/51/59 73/52/59
f 42/51/60 43/53/60 75/53/60 74/51/60
f 43/53/61 44/54/61 76/54/61 75/53/61
f 44/54/62 41/52/62 73/52/62 76/54/62
f 45/56/63 46/55/63 78/55/63 77/56/63
f 46/55/64 47/57/64 79/57/64 78/55/64
f 47/57/65 48/58/65 80/58/65 79/57/65
f 48/58/66 45/56/66 77/56/66 80/58/66
usemtl Material.025
f 85/1/1 86/2/1 93/3/1 94/4/1 89/5/1 90/6/1 81/7/1 82/8/1
f 95/9/2 96/10/2 87/11/2 88/12/2 83/13/2 84/14/2 91/15/2 92/16/2
f 81/17/3 84/18/3 98/19/3 97/20/3
f 84/18/67 83/21/67 99/22/67 98/19/67
f 83/21/5 82/23/5 100/24/5 99/22/5
f 82/23/68 81/17/68 97/20/68 100/24/68
f 87/25/7 86/26/7 102/27/7 101/28/7
f 86/26/69 85/29/69 103/30/69 102/27/69
f 85/29/9 88/31/9 104/32/9 103/30/9
f 88/31/70 87/25/70 101/28/70 104/32/70
f 95/9/11 94/4/11 106/33/11 105/34/11
f 94/4/71 93/3/71 107/35/71 106/33/71
f 93/3/13 96/10/13 108/36/13 107/35/13
f 96/10/72 95/9/72 105/34/72 108/36/72
f 91/15/15 90/6/15 110/37/15 109/38/15
f 90/6/73 89/5/73 111/39/73 110/37/73
f 89/5/17 92/16/17 112/40/17 111/39/17
f 92/16/74 91/15/74 109/38/74 112/40/74
f 82/23/19 83/21/19 114/41/19 113/42/19
f 83/21/75 88/31/75 115/43/75 114/41/75
f 88/31/21 85/29/21 116/44/21 115/43/21
f 85/29/76 82/23/76 113/42/76 116/44/76
f 90/6/23 91/15/23 118/45/23 117/46/23
f 91/15/77 84/47/77 119/48/77 118/45/77
f 84/47/25 81/49/25 120/50/25 119/48/25
f 81/49/78 90/6/78 117/46/78 120/50/78
f 86/26/27 87/25/27 122/51/27 121/52/27
f 87/25/79 96/10/79 123/53/79 122/51/79
f 96/10/29 93/3/29 124/54/29 123/53/29
f 93/3/80 86/26/80 121/52/80 124/54/80
f 94/4/31 95/9/31 126/55/31 125/56/31
f 95/9/81 92/16/81 127/57/81 126/55/81
f 92/16/33 89/5/33 128/58/33 127/57/33
f 89/5/82 94/4/82 125/56/82 128/58/82
f 97/20/35 98/19/35 130/19/35 129/20/35
f 98/19/83 99/22/83 131/22/83 130/19/83
f 99/22/37 100/24/37 132/24/37 131/22/37
f 100/24/84 97/20/84 129/20/84 132/24/84
f 101/28/39 102/27/39 134/27/39 133/28/39
f 102/27/85 103/30/85 135/30/85 134/27/85
f 103/30/41 104/32/41 136/32/41 135/30/41
f 104/32/86 101/28/86 133/28/86 136/32/86
f 105/34/43 106/33/43 138/33/43 137/34/43
f 106/33/87 107/35/87 139/35/87 138/33/87
f 107/35/45 108/36/45 140/36/45 139/35/45
f 108/36/88 105/34/88 137/34/88 140/36/88
f 109/38/47 110/37/47 142/37/47 141/38/47
f 110/37/89 111/39/89 143/39/89 142/37/89
f 111/39/49 112/40/49 144/40/49 143/39/49
f 112/40/90 109/38/90 141/38/90 144/40/90
f 113/42/51 114/41/51 146/41/51 145/42/51
f 114/41/91 115/43/91 147/43/91 146/41/91
f 115/43/53 116/44/53 148/44/53 147/43/53
f 116/44/92 113/42/92 145/42/92 148/44/92
f 117/46/55 118/45/55 150/45/55 149/46/55
f 118/45/93 119/48/93 151/48/93 150/45/93
f 119/48/57 120/50/57 152/50/57 151/48/57
f 120/50/94 117/46/94 149/46/94 152/50/94
f 121/52/59 122/51/59 154/51/59 153/52/59
f 122/51/95 123/53/95 155/53/95 154/51/95
f 123/53/61 124/54/61 156/54/61 155/53/61
f 124/54/96 121/52/96 153/52/96 156/54/96
f 125/56/63 126/55/63 158/55/63 157/56/63
f 126/55/97 127/57/97 159/57/97 158/55/97
f 127/57/65 128/58/65 160/58/65 159/57/65
f 128/58/98 125/56/98 157/56/98 160/58/98
usemtl Material.026
f 165/1/1 166/2/1 173/3/1 174/4/1 169/5/1 170/6/1 161/7/1 162/8/1
f 161/17/3 164/18/3 178/19/3 177/20/3
f 164/18/99 163/21/99 179/22/99 178/19/99
f 163/21/5 162/23/5 180/24/5 179/22/5
f 162/23/100 161/17/100 177/20/100 180/24/100
f 167/25/7 166/26/7 182/27/7 181/28/7
f 166/26/101 165/29/101 183/30/101 182/27/101
f 165/29/9 168/31/9 184/32/9 183/30/9
f 168/31/102 167/25/102 181/28/102 184/32/102
f 175/9/11 174/4/11 186/33/11 185/34/11
f 174/4/103 173/3/103 187/35/103 186/33/103
f 173/3/13 176/10/13 188/36/13 187/35/13
f 176/10/104 175/9/104 185/34/104 188/36/104
f 171/15/15 170/6/15 190/37/15 189/38/15
f 170/6/105 169/5/105 191/39/105 190/37/105
f 169/5/17 172/16/17 192/40/17 191/39/17
f 172/16/106 171/15/106 189/38/106 192/40/106
f 162/23/19 163/21/19 194/41/19 193/42/19
f 163/21/107 168/31/107 195/43/107 194/41/107
f 168/31/21 165/29/21 196/44/21 195/43/21
f 165/29/108 162/23/108 193/42/108 196/44/108
f 170/6/23 171/15/23 198/45/23 197/46/23
f 171/15/109 164/47/109 199/48/109 198/45/109
f 164/47/25 161/49/25 200/50/25 199/48/25
f 161/49/110 170/6/110 197/46/110 200/50/110
f 166/26/27 167/25/27 202/51/27 201/52/27
f 167/25/111 176/10/111 203/53/111 202/51/111
f 176/10/29 173/3/29 204/54/29 203/53/29
f 173/3/112 166/26/112 201/52/112 204/54/112
f 174/4/31 175/9/31 206/55/31 205/56/31
f 175/9/113 172/16/113 207/57/113 206/55/113
f 172/16/33 169/5/33 208/58/33 207/57/33
f 169/5/114 174/4/114 205/56/114 208/58/114
f 177/20/35 178/19/35 210/19/35 209/20/35
f 178/19/115 179/22/115 211/22/115 210/19/115
f 179/22/37 180/24/37 212/24/37 211/22/37
f 180/24/116 177/20/116 209/20/116 212/24/116
f 181/28/39 182/27/39 214/27/39 213/28/39
f 182/27/117 183/30/117 215/30/117 214/27/117
f 183/30/41 184/32/41 216/32/41 215/30/41
f 184/32/118 181/28/118 213/28/118 216/32/118
f 185/34/43 186/33/43 218/33/43 217/34/43
f 186/33/119 187/35/119 219/35/119 218/33/119
f 187/35/45 188/36/45 220/36/45 219/35/45
f 188/36/120 185/34/120 217/34/120 220/36/120
f 189/38/47 190/37/47 222/37/47 221/38/47
f 190/37/121 191/39/121 223/39/121 222/37/121
f 191/39/49 192/40/49 224/40/49 223/39/49
f 192/40/122 189/38/122 221/38/122 224/40/122
f 193/42/51 194/41/51 226/41/51 225/42/51
f 194/41/123 195/43/123 227/43/123 226/41/123
f 195/43/53 196/44/53 228/44/53 227/43/53
f 196/44/124 193/42/124 225/42/124 228/44/124
f 197/46/55 198/45/55 230/45/55 229/46/55
f 198/45/125 199/48/125 231/48/125 230/45/125
f 199/48/57 200/50/57 232/50/57 231/48/57
f 200/50/126 197/46/126 229/46/126 232/50/126
f 201/52/59 202/51/59 234/51/59 233/52/59
f 202/51/127 203/53/127 235/53/127 234/51/127
f 203/53/61 204/54/61 236/54/61 235/53/61
f 204/54/128 201/52/128 233/52/128 236/54/128
f 205/56/63 206/55/63 238/55/63 237/56/63
f 206/55/129 207/57/129 239/57/129 238/55/129
f 207/57/65 208/58/65 240/58/65 239/57/65
f 208/58/130 205/56/130 237/56/130 240/58/130
f 585/59/2 586/60/2 587/61/2 588/62/2 589/63/2 590/64/2 591/65/2 592/66/2
f 167/25/131 168/31/131 250/67/131 249/68/131
f 168/31/131 243/31/131 251/69/131 250/67/131
f 243/31/131 244/25/131 252/70/131 251/69/131
f 244/25/131 167/25/131 249/68/131 252/70/131
f 163/21/132 164/18/132 254/71/132 253/72/132
f 164/18/132 241/18/132 255/73/132 254/71/132
f 241/18/132 242/21/132 256/74/132 255/73/132
f 242/21/132 163/21/132 253/72/132 256/74/132
f 172/16/133 175/9/133 258/75/133 257/76/133
f 175/9/133 246/9/133 259/77/133 258/75/133
f 246/9/133 247/16/133 260/78/133 259/77/133
f 247/16/133 172/16/133 257/76/133 260/78/133
f 168/31/134 163/21/134 262/79/134 261/80/134
f 163/21/134 242/21/134 263/81/134 262/79/134
f 242/21/134 243/31/134 264/82/134 263/81/134
f 243/31/134 168/31/134 261/80/134 264/82/134
f 176/10/135 167/25/135 266/83/135 265/84/135
f 167/25/135 244/25/135 267/85/135 266/83/135
f 244/25/135 245/10/135 268/86/135 267/85/135
f 245/10/135 176/10/135 265/84/135 268/86/135
f 171/15/136 172/16/136 270/87/136 269/88/136
f 172/16/136 247/16/136 271/89/136 270/87/136
f 247/16/136 248/15/136 272/90/136 271/89/136
f 248/15/136 171/15/136 269/88/136 272/90/136
f 164/47/137 171/15/137 274/91/137 273/92/137
f 171/15/137 248/15/137 275/93/137 274/91/137
f 248/15/137 241/47/137 276/94/137 275/93/137
f 241/47/137 164/47/137 273/92/137 276/94/137
f 175/9/138 176/10/138 278/95/138 277/96/138
f 176/10/138 245/10/138 279/97/138 278/95/138
f 245/10/138 246/9/138 280/98/138 279/97/138
f 246/9/138 175/9/138 277/96/138 280/98/138
f 288/99/139 281/100/139 283/101/139 292/102/139
f 292/102/140 283/101/140 284/103/140 291/104/140
f 291/104/141 284/103/141 285/105/141 290/106/141
f 290/106/142 285/105/142 286/107/142 289/108/142
f 289/108/143 286/107/143 282/109/143 287/110/143
f 300/111/144 282/109/144 286/107/144 304/112/144
f 304/112/145 286/107/145 285/105/145 303/113/145
f 303/113/146 285/105/146 284/103/146 302/114/146
f 302/114/147 284/103/147 283/101/147 301/115/147
f 301/115/148 283/101/148 281/100/148 299/116/148
f 287/110/149 293/117/149 295/118/149 289/108/149
f 289/108/150 295/118/150 296/119/150 290/106/150
f 290/106/151 296/119/151 297/120/151 291/104/151
f 291/104/152 297/120/152 298/121/152 292/102/152
f 292/102/153 298/121/153 294/122/153 288/99/153
f 293/117/154 300/111/154 304/112/154 295/118/154
f 295/118/155 304/112/155 303/113/155 296/119/155
f 296/119/156 303/113/156 302/114/156 297/120/156
f 297/120/157 302/114/157 301/115/157 298/121/157
f 298/121/158 301/115/158 299/116/158 294/122/158
f 312/123/159 305/124/159 307/125/159 316/126/159
f 316/126/160 307/125/160 308/127/160 315/128/160
f 315/128/161 308/127/161 309/129/161 314/130/161
f 314/130/162 309/129/162 310/131/162 313/132/162
f 313/132/163 310/131/163 306/133/163 311/134/163
f 324/135/164 306/133/164 310/131/164 328/136/164
f 328/136/165 310/131/165 309/129/165 327/137/165
f 327/137/166 309/129/166 308/127/166 326/138/166
f 326/138/167 308/127/167 307/125/167 325/139/167
f 325/139/168 307/125/168 305/124/168 323/140/168
f 311/134/169 317/141/169 319/142/169 313/132/169
f 313/132/170 319/142/170 320/143/170 314/130/170
f 314/130/171 320/143/171 321/144/171 315/128/171
f 315/128/172 321/144/172 322/145/172 316/126/172
f 316/126/173 322/145/173 318/146/173 312/123/173
f 317/141/174 324/135/174 328/136/174 319/142/174
f 319/142/175 328/136/175 327/137/175 320/143/175
f 320/143/176 327/137/176 326/138/176 321/144/176
f 321/144/177 326/138/177 325/139/177 322/145/177
f 322/145/178 325/139/178 323/140/178 318/146/178
f 330/147/179 335/148/179 337/149/179 334/150/179
f 334/150/180 337/149/180 338/151/180 333/152/180
f 333/152/181 338/151/181 339/153/181 332/154/181
f 332/154/182 339/153/182 340/155/182 331/156/182
f 331/156/183 340/155/183 336/157/183 329/158/183
f 348/159/184 330/147/184 334/150/184 352/160/184
f 352/160/185 334/150/185 333/152/185 351/161/185
f 351/161/186 333/152/186 332/154/186 350/162/186
f 350/162/187 332/154/187 331/156/187 349/163/187
f 349/163/188 331/156/188 329/158/188 347/164/188
f 335/148/189 341/165/189 343/166/189 337/149/189
f 337/149/190 343/166/190 344/167/190 338/151/190
f 338/151/191 344/167/191 345/168/191 339/153/191
f 339/153/192 345/168/192 346/169/192 340/155/192
f 340/155/193 346/169/193 342/170/193 336/157/193
f 347/164/194 342/170/194 346/169/194 349/163/194
f 349/163/195 346/169/195 345/168/195 350/162/195
f 350/162/196 345/168/196 344/167/196 351/161/196
f 351/161/197 344/167/197 343/166/197 352/160/197
f 352/160/198 343/166/198 341/165/198 348/159/198
f 360/171/199 353/172/199 355/173/199 364/174/199
f 364/174/200 355/173/200 356/175/200 363/176/200
f 363/176/201 356/175/201 357/177/201 362/178/201
f 362/178/202 357/177/202 358/179/202 361/180/202
f 361/180/203 358/179/203 354/181/203 359/182/203
f 353/172/204 371/183/204 373/184/204 355/173/204
f 355/173/205 373/184/205 374/185/205 356/175/205
f 356/175/206 374/185/206 375/186/206 357/177/206
f 357/177/207 375/186/207 376/187/207 358/179/207
f 358/179/208 376/187/208 372/188/208 354/181/208
f 366/189/209 360/171/209 364/174/209 370/190/209
f 370/190/210 364/174/210 363/176/210 369/191/210
f 369/191/211 363/176/211 362/178/211 368/192/211
f 368/192/212 362/178/212 361/180/212 367/193/212
f 367/193/213 361/180/213 359/182/213 365/194/213
f 365/194/214 372/188/214 376/187/214 367/193/214
f 367/193/215 376/187/215 375/186/215 368/192/215
f 368/192/216 375/186/216 374/185/216 369/191/216
f 369/191/217 374/185/217 373/184/217 370/190/217
f 370/190/218 373/184/218 371/183/218 366/189/218
f 378/195/219 383/196/219 385/197/219 382/198/219
f 382/198/220 385/197/220 386/199/220 381/200/220
f 381/200/221 386/199/221 387/201/221 380/202/221
f 380/202/222 387/201/222 388/203/222 379/204/222
f 379/204/223 388/203/223 384/205/223 377/206/223
f 396/207/224 378/195/224 382/198/224 400/208/224
f 400/208/225 382/198/225 381/200/225 399/209/225
f 399/209/226 381/200/226 380/202/226 398/210/226
f 398/210/227 380/202/227 379/204/227 397/211/227
f 397/211/228 379/204/228 377/206/228 395/212/228
f 390/213/229 384/205/229 388/203/229 394/214/229
f 394/214/230 388/203/230 387/201/230 393/215/230
f 393/215/231 387/201/231 386/199/231 392/216/231
f 392/216/232 386/199/232 385/197/232 391/217/232
f 391/217/233 385/197/233 383/196/233 389/218/233
f 395/212/234 390/213/234 394/214/234 397/211/234
f 397/211/235 394/214/235 393/215/235 398/210/235
f 398/210/236 393/215/236 392/216/236 399/209/236
f 399/209/237 392/216/237 391/217/237 400/208/237
f 400/208/238 391/217/238 389/218/238 396/207/238
f 408/219/239 401/220/239 403/221/239 412/222/239
f 412/222/240 403/221/240 404/223/240 411/224/240
f 411/224/241 404/223/241 405/225/241 410/226/241
f 410/226/242 405/225/242 406/227/242 409/228/242
f 409/228/243 406/227/243 402/229/243 407/230/243
f 420/231/244 402/229/244 406/227/244 424/232/244
f 424/232/245 406/227/245 405/225/245 423/233/245
f 423/233/246 405/225/246 404/223/246 422/234/246
f 422/234/247 404/223/247 403/221/247 421/235/247
f 421/235/248 403/221/248 401/220/248 419/236/248
f 414/237/249 408/219/249 412/222/249 418/238/249
f 418/238/250 412/222/250 411/224/250 417/239/250
f 417/239/251 411/224/251 410/226/251 416/240/251
f 416/240/252 410/226/252 409/228/252 415/241/252
f 415/241/253 409/228/253 407/230/253 413/242/253
f 413/242/254 420/231/254 424/232/254 415/241/254
f 415/241/255 424/232/255 423/233/255 416/240/255
f 416/240/256 423/233/256 422/234/256 417/239/256
f 417/239/257 422/234/257 421/235/257 418/238/257
f 418/238/258 421/235/258 419/236/258 414/237/258
f 432/243/259 425/244/259 427/245/259 436/246/259
f 436/246/260 427/245/260 428/247/260 435/248/260
f 435/248/261 428/247/261 429/249/261 434/250/261
f 434/250/262 429/249/262 430/251/262 433/252/262
f 433/252/263 430/251/263 426/253/263 431/254/263
f 425/244/264 443/255/264 445/256/264 427/245/264
f 427/245/265 445/256/265 446/257/265 428/247/265
f 428/247/266 446/257/266 447/258/266 429/249/266
f 429/249/267 447/258/267 448/259/267 430/251/267
f 430/251/268 448/259/268 444/260/268 426/253/268
f 438/261/269 432/243/269 436/246/269 442/262/269
f 442/262/270 436/246/270 435/248/270 441/263/270
f 441/263/271 435/248/271 434/250/271 440/264/271
f 440/264/272 434/250/272 433/252/272 439/265/272
f 439/265/273 433/252/273 431/254/273 437/266/273
f 437/266/274 444/260/274 448/259/274 439/265/274
f 439/265/275 448/259/275 447/258/275 440/264/275
f 440/264/276 447/258/276 446/257/276 441/263/276
f 441/263/277 446/257/277 445/256/277 442/262/277
f 442/262/278 445/256/278 443/255/278 438/261/278
f 456/267/279 449/268/279 451/269/279 460/270/279
f 460/270/280 451/269/280 452/271/280 459/272/280
f 459/272/281 452/271/281 453/273/281 458/274/281
f 458/274/282 453/273/282 454/275/282 457/276/282
f 457/276/283 454/275/283 450/277/283 455/278/283
f 449/268/284 467/279/284 469/280/284 451/269/284
f 451/269/285 469/280/285 470/281/285 452/271/285
f 452/271/286 470/281/286 471/282/286 453/273/286
f 453/273/287 471/282/287 472/283/287 454/275/287
f 454/275/288 472/283/288 468/284/288 450/277/288
f 462/285/289 456/267/289 460/270/289 466/286/289
f 466/286/290 460/270/290 459/272/290 465/287/290
f 465/287/291 459/272/291 458/274/291 464/288/291
f 464/288/292 458/274/292 457/276/292 463/289/292
f 463/289/293 457/276/293 455/278/293 461/290/293
f 461/290/294 468/284/294 472/283/294 463/289/294
f 463/289/295 472/283/295 471/282/295 464/288/295
f 464/288/296 471/282/296 470/281/296 465/287/296
f 465/287/297 470/281/297 469/280/297 466/286/297
f 466/286/298 469/280/298 467/279/298 462/285/298
f 249/68/299 250/67/299 287/110/299 282/109/299
f 281/100/131 288/99/131 294/122/131 299/116/131
f 252/70/300 249/68/300 282/109/300 300/111/300
f 250/67/301 251/69/301 293/117/301 287/110/301
f 251/69/302 252/70/302 300/111/302 293/117/302
f 253/72/303 254/71/303 311/134/303 306/133/303
f 305/124/132 312/123/132 318/146/132 323/140/132
f 256/74/304 253/72/304 306/133/304 324/135/304
f 254/71/305 255/73/305 317/141/305 311/134/305
f 255/73/306 256/74/306 324/135/306 317/141/306
f 257/76/307 258/75/307 335/148/307 330/147/307
f 260/78/308 257/76/308 330/147/308 348/159/308
f 258/75/309 259/77/309 341/165/309 335/148/309
f 259/77/310 260/78/310 348/159/310 341/165/310
f 261/80/311 262/79/311 359/182/311 354/181/311
f 264/82/312 261/80/312 354/181/312 372/188/312
f 262/79/313 263/81/313 365/194/313 359/182/313
f 263/81/314 264/82/314 372/188/314 365/194/314
f 265/84/315 266/83/315 383/196/315 378/195/315
f 268/86/316 265/84/316 378/195/316 396/207/316
f 266/83/317 267/85/317 389/218/317 383/196/317
f 267/85/318 268/86/318 396/207/318 389/218/318
f 269/88/319 270/87/319 407/230/319 402/229/319
f 401/220/136 408/219/136 414/237/136 419/236/136
f 272/90/320 269/88/320 402/229/320 420/231/320
f 270/87/321 271/89/321 413/242/321 407/230/321
f 271/89/322 272/90/322 420/231/322 413/242/322
f 273/92/323 274/91/323 431/254/323 426/253/323
f 276/94/324 273/92/324 426/253/324 444/260/324
f 274/91/325 275/93/325 437/266/325 431/254/325
f 275/93/326 276/94/326 444/260/326 437/266/326
f 277/96/327 278/95/327 455/278/327 450/277/327
f 449/268/138 456/267/138 462/285/138 467/279/138
f 280/98/328 277/96/328 450/277/328 468/284/328
f 278/95/329 279/97/329 461/290/329 455/278/329
f 279/97/330 280/98/330 468/284/330 461/290/330
f 329/158/133 336/157/133 474/291/133 473/292/133
f 336/157/133 342/170/133 475/293/133 474/291/133
f 342/170/133 347/164/133 476/294/133 475/293/133
f 347/164/133 329/158/133 473/292/133 476/294/133
f 353/172/134 360/171/134 478/295/134 477/296/134
f 360/171/134 366/189/134 479/297/134 478/295/134
f 366/189/134 371/183/134 480/298/134 479/297/134
f 371/183/134 353/172/134 477/296/134 480/298/134
f 377/206/135 384/205/135 482/299/135 481/300/135
f 384/205/135 390/213/135 483/301/135 482/299/135
f 390/213/135 395/212/135 484/302/135 483/301/135
f 395/212/135 377/206/135 481/300/135 484/302/135
f 425/244/137 432/243/137 486/303/137 485/304/137
f 432/243/137 438/261/137 487/305/137 486/303/137
f 438/261/137 443/255/137 488/306/137 487/305/137
f 443/255/137 425/244/137 485/304/137 488/306/137
f 496/307/331 489/308/331 491/309/331 500/310/331
f 500/310/332 491/309/332 492/311/332 499/312/332
f 499/312/333 492/311/333 493/313/333 498/314/333
f 498/314/130 493/313/130 494/315/130 497/316/130
f 497/316/334 494/315/334 490/317/334 495/318/334
f 489/308/335 507/319/335 509/320/335 491/309/335
f 491/309/336 509/320/336 510/321/336 492/311/336
f 492/311/337 510/321/337 511/322/337 493/313/337
f 493/313/338 511/322/338 512/323/338 494/315/338
f 494/315/339 512/323/339 508/324/339 490/317/339
f 502/325/340 496/307/340 500/310/340 506/326/340
f 506/326/341 500/310/341 499/312/341 505/327/341
f 505/327/342 499/312/342 498/314/342 504/328/342
f 504/328/343 498/314/343 497/316/343 503/329/343
f 503/329/344 497/316/344 495/318/344 501/330/344
f 507/319/345 502/325/345 506/326/345 509/320/345
f 509/320/346 506/326/346 505/327/346 510/321/346
f 510/321/347 505/327/347 504/328/347 511/322/347
f 511/322/348 504/328/348 503/329/348 512/323/348
f 512/323/349 503/329/349 501/330/349 508/324/349
f 520/331/350 513/332/350 515/333/350 524/334/350
f 524/334/351 515/333/351 516/335/351 523/336/351
f 523/336/352 516/335/352 517/337/352 522/338/352
f 522/338/124 517/337/124 518/339/124 521/340/124
f 521/340/353 518/339/353 514/341/353 519/342/353
f 513/332/354 531/343/354 533/344/354 515/333/354
f 515/333/355 533/344/355 534/345/355 516/335/355
f 516/335/356 534/345/356 535/346/356 517/337/356
f 517/337/357 535/346/357 536/347/357 518/339/357
f 518/339/358 536/347/358 532/348/358 514/341/358
f 526/349/359 520/331/359 524/334/359 530/350/359
f 530/350/360 524/334/360 523/336/360 529/351/360
f 529/351/361 523/336/361 522/338/361 528/352/361
f 528/352/362 522/338/362 521/340/362 527/353/362
f 527/353/363 521/340/363 519/342/363 525/354/363
f 531/343/364 526/349/364 530/350/364 533/344/364
f 533/344/365 530/350/365 529/351/365 534/345/365
f 534/345/366 529/351/366 528/352/366 535/346/366
f 535/346/367 528/352/367 527/353/367 536/347/367
f 536/347/368 527/353/368 525/354/368 532/348/368
f 544/355/369 537/356/369 539/357/369 548/358/369
f 548/358/370 539/357/370 540/359/370 547/360/370
f 547/360/371 540/359/371 541/361/371 546/362/371
f 546/362/128 541/361/128 542/363/128 545/364/128
f 545/364/372 542/363/372 538/365/372 543/366/372
f 537/356/373 555/367/373 557/368/373 539/357/373
f 539/357/374 557/368/374 558/369/374 540/359/374
f 540/359/375 558/369/375 559/370/375 541/361/375
f 541/361/376 559/370/376 560/371/376 542/363/376
f 542/363/377 560/371/377 556/372/377 538/365/377
f 550/373/378 544/355/378 548/358/378 554/374/378
f 554/374/379 548/358/379 547/360/379 553/375/379
f 553/375/380 547/360/380 546/362/380 552/376/380
f 552/376/381 546/362/381 545/364/381 551/377/381
f 551/377/382 545/364/382 543/366/382 549/378/382
f 555/367/383 550/373/383 554/374/383 557/368/383
f 557/368/384 554/374/384 553/375/384 558/369/384
f 558/369/385 553/375/385 552/376/385 559/370/385
f 559/370/386 552/376/386 551/377/386 560/371/386
f 560/371/387 551/377/387 549/378/387 556/372/387
f 568/379/388 561/380/388 563/381/388 572/382/388
f 572/382/389 563/381/389 564/383/389 571/384/389
f 571/384/390 564/383/390 565/385/390 570/386/390
f 570/386/126 565/385/126 566/387/126 569/388/126
f 569/388/391 566/387/391 562/389/391 567/390/391
f 561/380/392 579/391/392 581/392/392 563/381/392
f 563/381/393 581/392/393 582/393/393 564/383/393
f 564/383/394 582/393/394 583/394/394 565/385/394
f 565/385/395 583/394/395 584/395/395 566/387/395
f 566/387/396 584/395/396 580/396/396 562/389/396
f 574/397/397 568/379/397 572/382/397 578/398/397
f 578/398/398 572/382/398 571/384/398 577/399/398
f 577/399/399 571/384/399 570/386/399 576/400/399
f 576/400/400 570/386/400 569/388/400 575/401/400
f 575/401/401 569/388/401 567/390/401 573/402/401
f 579/391/402 574/397/402 578/398/402 581/392/402
f 581/392/403 578/398/403 577/399/403 582/393/403
f 582/393/404 577/399/404 576/400/404 583/394/404
f 583/394/405 576/400/405 575/401/405 584/395/405
f 584/395/406 575/401/406 573/402/406 580/396/406
f 473/292/407 474/291/407 495/318/407 490/317/407
f 476/294/408 473/292/408 490/317/408 508/324/408
f 474/291/409 475/293/409 501/330/409 495/318/409
f 475/293/410 476/294/410 508/324/410 501/330/410
f 477/296/411 478/295/411 519/342/411 514/341/411
f 480/298/412 477/296/412 514/341/412 532/348/412
f 478/295/413 479/297/413 525/354/413 519/342/413
f 479/297/414 480/298/414 532/348/414 525/354/414
f 481/300/415 482/299/415 543/366/415 538/365/415
f 484/302/416 481/300/416 538/365/416 556/372/416
f 482/299/417 483/301/417 549/378/417 543/366/417
f 483/301/418 484/302/418 556/372/418 549/378/418
f 485/304/419 486/303/419 567/390/419 562/389/419
f 488/306/420 485/304/420 562/389/420 580/396/420
f 486/303/421 487/305/421 573/402/421 567/390/421
f 487/305/422 488/306/422 580/396/422 573/402/422
f 246/9/423 245/10/423 586/60/423 585/59/423
f 245/10/424 244/11/424 587/61/424 586/60/424
f 244/11/425 243/12/425 588/62/425 587/61/425
f 243/12/426 242/13/426 589/63/426 588/62/426
f 242/13/427 241/14/427 590/64/427 589/63/427
f 241/14/428 248/15/428 591/65/428 590/64/428
f 248/15/429 247/16/429 592/66/429 591/65/429
f 247/16/430 246/9/430 585/59/430 592/66/430
