# Blender 5.2.0 LTS
# www.blender.org
mtllib f.mtl
o Cube.031
v 92.896385 13.121139 -1.512350
v 95.103607 13.121139 1.512350
v 95.512352 13.121139 -1.103611
v 92.487648 13.121139 1.103611
v 95.103615 13.121139 -1.512350
v 95.512352 13.121139 1.103611
v 92.896385 13.121139 1.512350
v 92.487648 13.121139 -1.103611
v 92.994766 12.909383 -1.413970
v 95.005234 12.909383 1.413970
v 95.413971 12.909383 -1.005230
v 92.586029 12.909383 1.005230
v 95.005234 12.909383 -1.413970
v 95.413971 12.909383 1.005231
v 92.994766 12.909383 1.413970
v 92.586029 12.909383 -1.005231
v 92.529114 18.436569 1.145074
v 92.529114 18.436569 -1.145074
v 95.512352 18.436569 -1.103611
v 92.896385 18.436569 1.512350
v 95.145073 18.436569 1.470887
v 95.512352 18.436569 1.103611
v 95.145073 18.436569 -1.470887
v 92.854927 18.436569 -1.470887
v 95.512352 18.263996 1.103611
v 95.512352 17.406853 1.103611
v 95.512352 16.549709 1.103611
v 95.512352 15.692568 1.103611
v 95.512352 14.835424 1.103611
v 95.512352 13.978281 1.103611
v 92.487648 13.978282 -1.103611
v 92.487648 14.835424 -1.103611
v 92.487648 15.692568 -1.103611
v 92.487648 16.549711 -1.103611
v 92.487648 17.406853 -1.103611
v 92.487648 18.263996 -1.103611
v 95.512352 18.263996 -1.103611
v 95.512352 17.406853 -1.103611
v 95.512352 16.549709 -1.103611
v 95.512352 15.692568 -1.103611
v 95.512352 14.835424 -1.103611
v 95.512352 13.978281 -1.103611
v 95.103615 13.978282 -1.512350
v 95.103615 14.835424 -1.512350
v 95.103615 15.692568 -1.512350
v 95.103615 16.549711 -1.512350
v 95.103615 17.406853 -1.512350
v 95.103615 18.263996 -1.512350
v 92.896385 18.263996 1.512350
v 92.896385 17.406853 1.512350
v 92.896385 16.549709 1.512350
v 92.896385 15.692568 1.512350
v 92.896385 14.835424 1.512350
v 92.896385 13.978281 1.512350
v 92.487648 13.978282 1.103611
v 92.487648 14.835424 1.103611
v 92.487648 15.692568 1.103611
v 92.487648 16.549711 1.103611
v 92.487648 17.406853 1.103611
v 92.487648 18.263996 1.103611
v 92.896385 13.978282 -1.512350
v 92.896385 14.835424 -1.512350
v 92.896385 15.692568 -1.512350
v 92.896385 16.549711 -1.512350
v 92.896385 17.406853 -1.512350
v 92.896385 18.263996 -1.512350
v 95.103607 13.978282 1.512350
v 95.103615 14.835424 1.512350
v 95.103607 15.692568 1.512350
v 95.103607 16.549711 1.512350
v 95.103607 17.406853 1.512350
v 95.103607 18.263996 1.512350
v 95.512352 15.735424 1.103611
v 92.487648 15.735425 -1.103611
v 95.512352 15.735424 -1.103611
v 95.103615 15.735425 -1.512350
v 92.896385 15.735424 1.512350
v 92.487648 15.735425 1.103611
v 92.896385 15.735425 -1.512350
v 95.103607 15.735425 1.512350
v 95.512352 14.878282 1.103611
v 92.487648 14.878282 -1.103611
v 95.512352 14.878282 -1.103611
v 95.103615 14.878282 -1.512350
v 92.896385 14.878282 1.512350
v 92.487648 14.878282 1.103611
v 92.896385 14.878282 -1.512350
v 95.103607 14.878282 1.512350
v 92.994766 13.121139 -1.413970
v 92.896385 12.909383 -1.512350
v 95.005234 13.121139 1.413970
v 95.103607 12.909383 1.512350
v 95.413971 13.121139 -1.005230
v 95.512352 12.909383 -1.103611
v 92.586029 13.121139 1.005230
v 92.487648 12.909383 1.103611
v 95.005234 13.121139 -1.413970
v 95.413971 13.121139 1.005231
v 95.103615 12.909383 -1.512350
v 92.994766 13.121139 1.413970
v 95.512352 12.909383 1.103611
v 92.586029 13.121139 -1.005231
v 92.896385 12.909383 1.512350
v 95.413971 13.978281 1.005231
v 92.487648 12.909383 -1.103611
v 92.586029 18.263996 -1.005231
v 92.586029 19.121140 -1.005231
v 95.413971 13.978281 -1.005230
v 95.005234 18.263996 -1.413970
v 95.005234 19.121140 -1.413970
v 92.994766 13.978281 1.413970
v 92.586029 18.263996 1.005230
v 92.586029 19.121140 1.005230
v 92.994766 18.263996 -1.413970
v 92.994766 19.121140 -1.413970
v 95.005234 18.263996 1.413970
v 95.005234 19.121140 1.413970
v 95.413971 19.121140 -1.005230
v 92.994766 19.121140 1.413970
v 95.413971 19.121140 1.005231
v 95.413971 18.263996 1.005231
v 95.413971 17.406853 1.005231
v 95.413971 16.549709 1.005231
v 95.413971 15.735424 1.005231
v 95.413971 15.692568 1.005231
v 95.413971 14.878282 1.005231
v 95.413971 14.835424 1.005231
v 92.586029 13.978282 -1.005231
v 92.586029 14.835424 -1.005231
v 92.586029 14.878282 -1.005231
v 92.586029 15.692568 -1.005231
v 92.586029 15.735425 -1.005231
v 92.586029 16.549711 -1.005231
v 92.586029 17.406853 -1.005231
v 95.413971 18.263996 -1.005230
v 95.413971 17.406853 -1.005230
v 95.413971 16.549709 -1.005230
v 95.413971 15.735424 -1.005230
v 95.413971 15.692568 -1.005230
v 95.413971 14.878282 -1.005230
v 95.413971 14.835424 -1.005230
v 95.005234 13.978282 -1.413970
v 95.005234 14.835424 -1.413970
v 95.005234 14.878282 -1.413970
v 95.005234 15.692568 -1.413970
v 95.005234 15.735425 -1.413970
v 95.005234 16.549711 -1.413970
v 95.005234 17.406853 -1.413970
v 92.994766 18.263996 1.413970
v 92.994766 17.406853 1.413970
v 92.994766 16.549709 1.413970
v 92.994766 15.735424 1.413970
v 92.994766 15.692568 1.413970
v 92.994766 14.878282 1.413970
v 92.994766 14.835424 1.413970
v 92.586029 13.978282 1.005230
v 92.586029 14.835424 1.005230
v 92.586029 14.878282 1.005230
v 92.586029 15.692568 1.005230
v 92.586029 15.735425 1.005230
v 92.586029 16.549711 1.005230
v 92.586029 17.406853 1.005230
v 92.994766 13.978282 -1.413970
v 92.994766 14.835424 -1.413970
v 92.994766 14.878282 -1.413970
v 92.994766 15.692568 -1.413970
v 92.994766 15.735425 -1.413970
v 92.994766 16.549711 -1.413970
v 92.994766 17.406853 -1.413970
v 95.005234 13.978282 1.413970
v 95.005234 14.835424 1.413970
v 95.005234 14.878282 1.413970
v 95.005234 15.692568 1.413970
v 95.005234 15.735425 1.413970
v 95.005234 16.549711 1.413970
v 95.005234 17.406853 1.413970
v 95.446770 12.950846 -1.096671
v 95.096672 12.950846 -1.446773
v 95.096672 12.950846 1.446773
v 95.446770 12.950846 1.096672
v 92.903328 12.950846 -1.446773
v 92.553230 12.950846 -1.096672
v 92.553230 12.950846 1.096671
v 92.903328 12.950846 1.446773
v 95.354958 19.070293 -1.004857
v 92.995140 19.070293 1.354958
v 95.004860 19.070293 -1.354958
v 92.645042 19.070293 1.004857
v 95.354958 19.070293 1.004857
v 92.995140 19.070293 -1.354958
v 92.645042 19.070293 -1.004857
v 95.004860 19.070293 1.354958
v 92.854927 13.121139 -1.470887
v 95.145073 13.121139 1.470887
v 95.470886 13.121139 -1.145074
v 92.529114 13.121139 1.145074
v 95.145073 13.121139 -1.470887
v 95.470886 13.121139 1.145074
v 92.854927 13.121139 1.470887
v 92.529114 13.121139 -1.145074
v 95.470886 13.978281 1.145074
v 92.529114 18.263996 -1.145074
v 92.487648 18.436569 -1.103611
v 95.470886 13.978281 -1.145074
v 95.145073 18.263996 -1.470887
v 95.103607 18.436569 -1.512350
v 92.854927 13.978281 1.470887
v 92.529114 18.263996 1.145074
v 92.487648 18.436569 1.103611
v 92.854927 18.263996 -1.470887
v 92.896385 18.436569 -1.512350
v 95.145073 18.263996 1.470887
v 95.103607 18.436569 1.512350
v 95.470886 18.436569 1.145074
v 95.470886 18.263996 1.145074
v 95.470886 17.406853 1.145074
v 95.470886 16.549709 1.145074
v 95.470886 15.735424 1.145074
v 95.470886 15.692568 1.145074
v 95.470886 14.878282 1.145074
v 95.470886 14.835424 1.145074
v 92.529114 13.978282 -1.145074
v 92.529114 14.835424 -1.145074
v 92.529114 14.878282 -1.145074
v 92.529114 15.692568 -1.145074
v 92.529114 15.735425 -1.145074
v 92.529114 16.549711 -1.145074
v 92.529114 17.406853 -1.145074
v 95.470886 18.436569 -1.145074
v 95.470886 18.263996 -1.145074
v 95.470886 17.406853 -1.145074
v 95.470886 16.549709 -1.145074
v 95.470886 15.735424 -1.145074
v 95.470886 15.692567 -1.145074
v 95.470886 14.878282 -1.145074
v 95.470886 14.835424 -1.145074
v 95.145073 13.978282 -1.470887
v 95.145073 14.835424 -1.470887
v 95.145073 14.878282 -1.470887
v 95.145073 15.692568 -1.470887
v 95.145073 15.735425 -1.470887
v 95.145073 16.549711 -1.470887
v 95.145073 17.406853 -1.470887
v 92.854927 18.436569 1.470887
v 92.854927 18.263996 1.470887
v 92.854927 17.406853 1.470887
v 92.854927 16.549709 1.470887
v 92.854927 15.735424 1.470887
v 92.854927 15.692568 1.470887
v 92.854927 14.878282 1.470887
v 92.854927 14.835424 1.470887
v 92.529114 13.978282 1.145074
v 92.529114 14.835424 1.145074
v 92.529114 14.878282 1.145074
v 92.529114 15.692568 1.145074
v 92.529114 15.735425 1.145074
v 92.529114 16.549711 1.145074
v 92.529114 17.406853 1.145074
v 92.854927 13.978282 -1.470887
v 92.854927 14.835424 -1.470887
v 92.854927 14.878282 -1.470887
v 92.854927 15.692568 -1.470887
v 92.854927 15.735425 -1.470887
v 92.854927 16.549711 -1.470887
v 92.854927 17.406853 -1.470887
v 95.145073 13.978282 1.470887
v 95.145073 14.835424 1.470887
v 95.145073 14.878282 1.470887
v 95.145073 15.692568 1.470887
v 95.145073 15.735425 1.470887
v 95.145073 16.549711 1.470887
v 95.145073 17.406853 1.470887
v 95.483032 12.950846 -1.132930
v 95.132927 12.950846 -1.483031
v 95.132927 12.950846 1.483031
v 95.483032 12.950846 1.132930
v 92.867073 12.950846 -1.483031
v 92.516968 12.950846 -1.132930
v 92.516968 12.950846 1.132930
v 92.867073 12.950846 1.483031
v 95.390488 19.080505 -1.040389
v 95.040390 19.080505 -1.390490
v 92.609512 19.080505 1.040389
v 92.959610 19.080505 1.390490
v 92.959610 19.080505 -1.390490
v 92.609512 19.080505 -1.040389
v 95.040390 19.080505 1.390490
v 95.390488 19.080505 1.040389
v 92.891182 13.121139 -1.434628
v 95.108818 13.121139 1.434628
v 95.434631 13.121139 -1.108816
v 92.565369 13.121139 1.108816
v 95.108818 13.121139 -1.434628
v 95.434631 13.121139 1.108816
v 92.891182 13.121139 1.434628
v 92.565369 13.121139 -1.108816
v 95.486374 14.475178 1.359399
v 92.513626 18.479694 -1.359399
v 92.565186 18.431437 -1.108998
v 95.486374 14.475178 -1.359399
v 95.359398 18.479694 -1.486375
v 95.109001 18.431437 -1.434811
v 92.640602 14.475178 1.486375
v 92.513626 18.479694 1.359399
v 92.565186 18.431437 1.108998
v 92.640602 18.479694 -1.486375
v 92.890999 18.431437 -1.434811
v 95.359398 18.479694 1.486376
v 95.109001 18.431437 1.434811
v 95.434807 18.431437 1.108998
v 95.486374 18.479694 1.359399
v 95.486374 17.903749 1.359399
v 95.486374 16.765409 1.359399
v 95.486374 16.232321 1.359399
v 95.434631 15.692568 1.108816
v 95.434631 14.878282 1.108816
v 95.486374 15.051124 1.359399
v 92.513626 14.475178 -1.359399
v 92.513626 15.051124 -1.359399
v 92.565369 14.878282 -1.108816
v 92.565369 15.692568 -1.108816
v 92.513626 16.232321 -1.359399
v 92.513626 16.765409 -1.359399
v 92.513626 17.903749 -1.359399
v 95.434807 18.431437 -1.108998
v 95.486374 18.479694 -1.359399
v 95.486374 17.903749 -1.359399
v 95.486374 16.765409 -1.359399
v 95.486374 16.232321 -1.359399
v 95.434631 15.692567 -1.108816
v 95.434631 14.878282 -1.108816
v 95.486374 15.051124 -1.359399
v 95.359398 14.475178 -1.486375
v 95.359398 15.051124 -1.486375
v 95.108818 14.878282 -1.434628
v 95.108818 15.692568 -1.434628
v 95.359398 16.232321 -1.486375
v 95.359398 16.765409 -1.486375
v 95.359398 17.903749 -1.486375
v 92.890999 18.431437 1.434811
v 92.640602 18.479694 1.486375
v 92.640602 17.903749 1.486375
v 92.640602 16.765409 1.486375
v 92.640602 16.232321 1.486375
v 92.891182 15.692568 1.434628
v 92.891182 14.878282 1.434628
v 92.640602 15.051124 1.486375
v 92.513626 14.475178 1.359399
v 92.513626 15.051124 1.359399
v 92.565369 14.878282 1.108816
v 92.565369 15.692568 1.108816
v 92.513626 16.232321 1.359399
v 92.513626 16.765409 1.359399
v 92.513626 17.903749 1.359399
v 92.640602 14.475178 -1.486375
v 92.640602 15.051124 -1.486375
v 92.891182 14.878282 -1.434628
v 92.891182 15.692568 -1.434628
v 92.640602 16.232321 -1.486375
v 92.640602 16.765409 -1.486375
v 92.640602 17.903749 -1.486375
v 95.359398 14.475178 1.486376
v 95.359398 15.051124 1.486376
v 95.108818 14.878282 1.434628
v 95.108818 15.692568 1.434628
v 95.359398 16.232321 1.486376
v 95.359398 16.765409 1.486376
v 95.359398 17.903749 1.486376
v 92.891182 13.978281 1.434628
v 92.565369 13.978282 1.108816
v 92.891182 14.835424 1.434628
v 92.565369 14.835424 1.108816
v 92.891182 16.549709 1.434628
v 92.565369 16.549711 1.108816
v 92.891182 17.406853 1.434628
v 92.565369 17.406853 1.108816
v 92.891182 18.263996 1.434628
v 92.565369 18.263996 1.108816
v 95.108818 13.978282 -1.434628
v 95.434631 13.978281 -1.108816
v 95.108818 14.835424 -1.434628
v 95.434631 14.835424 -1.108816
v 95.108818 16.549711 -1.434628
v 95.434631 16.549709 -1.108816
v 95.108818 17.406853 -1.434628
v 95.434631 17.406853 -1.108816
v 95.108818 18.263996 -1.434628
v 95.434631 18.263996 -1.108816
v 92.565369 13.978282 -1.108816
v 92.891182 13.978282 -1.434628
v 92.565369 14.835424 -1.108816
v 92.891182 14.835424 -1.434628
v 92.565369 16.549711 -1.108816
v 92.891182 16.549711 -1.434628
v 92.565369 17.406853 -1.108816
v 92.891182 17.406853 -1.434628
v 92.565369 18.263996 -1.108816
v 92.891182 18.263996 -1.434628
v 95.434631 13.978281 1.108816
v 95.108818 13.978282 1.434628
v 95.434631 14.835424 1.108816
v 95.108818 14.835424 1.434628
v 95.434631 16.549709 1.108816
v 95.108818 16.549711 1.434628
v 95.434631 17.406853 1.108816
v 95.108818 17.406853 1.434628
v 95.434631 18.263996 1.108816
v 95.108818 18.263996 1.434628
v 95.434631 15.735424 1.108816
v 95.108818 15.735425 1.434628
v 92.565369 15.735425 -1.108816
v 92.891182 15.735425 -1.434628
v 95.108818 15.735425 -1.434628
v 95.434631 15.735424 -1.108816
v 92.891182 15.735424 1.434628
v 92.565369 15.735425 1.108816
vn 0.7071 -0.0000 -0.7071
vn 0.7071 -0.0000 0.7071
vn -0.7071 -0.0000 -0.7071
vn -0.7071 -0.0000 0.7071
vn 0.7071 -0.0015 0.7071
vn -0.7071 -0.0015 -0.7071
vn 0.7071 -0.0015 -0.7071
vn -0.7071 -0.0015 0.7071
vn 0.6929 0.1996 -0.6929
vn -0.6929 0.1996 0.6929
vn -0.6929 0.1996 -0.6929
vn 0.6929 0.1996 0.6929
vn 0.6929 0.1992 -0.6929
vn -0.6929 0.1992 0.6929
vn -0.6929 0.1992 -0.6929
vn 0.6929 0.1992 0.6929
vn -0.0000 1.0000 -0.0000
vn 0.1408 -0.9800 -0.1408
vn -0.1408 -0.9800 0.1408
vn -0.1408 -0.9800 -0.1408
vn 0.1408 -0.9800 0.1408
vn -0.7035 -0.1003 0.7035
vn 0.7035 -0.1003 -0.7035
vn -0.7035 -0.1003 -0.7035
vn 0.7035 -0.1003 0.7035
vn 0.7096 0.0260 -0.7041
vn 0.7041 0.0260 0.7096
vn 0.7096 0.0260 0.7041
vn -0.7041 0.0260 0.7096
vn 0.7041 0.0260 -0.7096
vn -0.7096 0.0260 -0.7041
vn -0.7041 0.0260 -0.7096
vn -0.7096 0.0260 0.7041
vn -0.6495 -0.3952 0.6495
vn 0.5022 0.7039 -0.5022
vn 0.6495 -0.3952 -0.6495
vn -0.5022 0.7039 0.5022
vn -0.6495 -0.3952 -0.6495
vn 0.5022 0.7039 0.5022
vn 0.6495 -0.3952 0.6495
vn -0.5022 0.7039 -0.5022
vt 0.640697 0.484017
vt 0.630137 0.536816
vt 0.640697 0.484017
vt 0.630137 0.713184
vt 0.640697 0.765983
vt 0.640697 0.765983
vt 0.630137 0.713184
vt 0.859590 0.547090
vt 0.827910 0.515410
vt 0.859590 0.547090
vt 0.827910 0.734590
vt 0.859590 0.702910
vt 0.827910 0.734590
vt 0.640697 0.765983
vt 0.630137 0.713184
vt 0.827910 0.734590
vt 0.859590 0.702910
vt 0.827910 0.734590
vt 0.827910 0.734590
vt 0.827910 0.734590
vt 0.859590 0.702910
vt 0.827910 0.734590
vt 0.640697 0.484017
vt 0.630137 0.536816
vt 0.640697 0.484017
vt 0.640697 0.484017
vt 0.640697 0.484017
vt 0.859590 0.547090
vt 0.859590 0.547090
vt 0.859590 0.547090
vt 0.859590 0.547090
vt 0.859590 0.547090
vt 0.827910 0.515410
vt 0.640697 0.765983
vt 0.630137 0.713184
vt 0.640697 0.765983
vt 0.630137 0.713184
vt 0.630137 0.713184
s 0
usemtl Material.027
f 293/1/1 291/2/1 177/2/1 178/3/1
f 294/4/2 290/5/2 179/6/2 180/7/2
f 296/8/3 289/9/3 181/9/3 182/10/3
f 295/11/4 292/12/4 183/12/4 184/13/4
f 408/14/5 407/15/5 310/4/5 309/5/5
f 398/9/6 397/10/6 299/8/6 307/9/6
f 388/2/7 387/3/7 302/1/7 325/2/7
f 378/12/8 377/11/8 340/11/8 305/12/8
f 292/12/4 295/11/4 369/16/4 370/17/4
f 348/17/4 303/16/4 347/18/4 349/12/4
f 350/12/4 346/18/4 345/19/4 351/12/4
f 352/12/4 344/20/4 343/11/4 353/21/4
f 374/21/4 373/11/4 375/22/4 376/17/4
f 354/17/4 342/22/4 341/11/4 304/12/4
f 291/2/1 293/1/1 379/23/1 380/24/1
f 300/24/1 333/23/1 334/23/1 332/2/1
f 331/2/1 335/25/1 336/25/1 330/2/1
f 329/2/1 337/25/1 338/26/1 328/2/1
f 384/2/1 383/26/1 385/27/1 386/2/1
f 327/2/1 339/27/1 301/3/1 326/2/1
f 289/9/3 296/8/3 389/28/3 390/9/3
f 355/9/3 318/28/3 319/29/3 356/9/3
f 357/9/3 320/29/3 321/30/3 358/9/3
f 359/9/3 322/30/3 323/31/3 360/9/3
f 394/9/3 393/31/3 395/32/3 396/33/3
f 361/33/3 324/32/3 298/10/3 306/9/3
f 290/5/2 294/4/2 399/4/2 400/34/2
f 362/34/2 297/4/2 317/4/2 363/34/2
f 364/14/2 316/35/2 315/35/2 365/34/2
f 366/36/2 314/7/2 313/37/2 367/5/2
f 404/5/2 403/37/2 405/38/2 406/6/2
f 368/6/2 312/38/2 311/15/2 308/14/2
f 365/34/2 315/35/2 409/7/2 410/36/2
f 358/9/3 321/30/3 411/30/3 412/9/3
f 330/2/1 336/25/1 413/25/1 414/2/1
f 351/12/4 345/19/4 415/20/4 416/12/4
f 402/34/2 401/4/2 316/35/2 364/14/2
f 392/9/3 391/29/3 320/29/3 357/9/3
f 382/2/1 381/23/1 335/25/1 331/2/1
f 372/12/4 371/18/4 346/18/4 350/12/4
f 90/9/1 1/9/1 89/9/1 9/9/1
f 92/6/4 2/5/4 91/5/4 10/6/4
f 94/2/2 3/2/2 93/2/2 11/2/2
f 96/12/3 4/12/3 95/12/3 12/12/3
f 5/1/3 99/3/3 13/3/3 97/1/3
f 6/4/1 101/7/1 14/7/1 98/4/1
f 7/11/2 103/13/2 15/13/2 100/11/2
f 8/8/4 105/10/4 16/10/4 102/8/4
f 30/4/1 6/4/1 98/4/1 104/4/1
f 203/8/4 36/10/4 106/10/4 107/8/4
f 3/2/2 42/24/2 108/24/2 93/2/2
f 206/1/3 48/3/3 109/3/3 110/1/3
f 54/16/2 7/11/2 100/11/2 111/16/2
f 60/12/3 209/12/3 113/12/3 112/12/3
f 66/9/1 211/9/1 115/9/1 114/9/1
f 72/14/4 213/5/4 117/5/4 116/14/4
f 325/2/9 302/1/9 187/1/9 185/2/9
f 305/12/10 340/11/10 186/11/10 188/12/10
f 307/9/11 299/8/11 191/8/11 190/9/11
f 309/5/12 310/4/12 189/4/12 192/5/12
f 22/4/1 25/15/1 121/15/1 120/4/1
f 25/15/1 26/38/1 122/38/1 121/15/1
f 26/38/1 27/37/1 123/37/1 122/38/1
f 73/7/1 28/35/1 125/35/1 124/7/1
f 81/35/1 29/4/1 127/4/1 126/35/1
f 29/4/1 30/4/1 104/4/1 127/4/1
f 31/28/4 8/8/4 102/8/4 128/28/4
f 32/29/4 31/28/4 128/28/4 129/29/4
f 33/30/4 82/29/4 130/29/4 131/30/4
f 34/31/4 74/30/4 132/30/4 133/31/4
f 35/32/4 34/31/4 133/31/4 134/32/4
f 36/10/4 35/32/4 134/32/4 106/10/4
f 37/2/2 19/2/2 118/2/2 135/2/2
f 38/2/2 37/2/2 135/2/2 136/2/2
f 39/2/2 38/2/2 136/2/2 137/2/2
f 40/2/2 75/2/2 138/2/2 139/2/2
f 41/2/2 83/2/2 140/2/2 141/2/2
f 42/24/2 41/2/2 141/2/2 108/24/2
f 43/23/3 5/1/3 97/1/3 142/23/3
f 44/23/3 43/23/3 142/23/3 143/23/3
f 45/25/3 84/25/3 144/25/3 145/25/3
f 46/26/3 76/25/3 146/25/3 147/26/3
f 47/27/3 46/26/3 147/26/3 148/27/3
f 48/3/3 47/27/3 148/27/3 109/3/3
f 20/11/2 49/11/2 149/11/2 119/11/2
f 49/11/2 50/22/2 150/22/2 149/11/2
f 50/22/2 51/11/2 151/11/2 150/22/2
f 77/20/2 52/19/2 153/19/2 152/20/2
f 85/18/2 53/18/2 155/18/2 154/18/2
f 53/18/2 54/16/2 111/16/2 155/18/2
f 4/12/3 55/17/3 156/17/3 95/12/3
f 55/17/3 56/12/3 157/12/3 156/17/3
f 86/12/3 57/12/3 159/12/3 158/12/3
f 78/12/3 58/21/3 161/21/3 160/12/3
f 58/21/3 59/17/3 162/17/3 161/21/3
f 59/17/3 60/12/3 112/12/3 162/17/3
f 1/9/1 61/9/1 163/9/1 89/9/1
f 61/9/1 62/9/1 164/9/1 163/9/1
f 87/9/1 63/9/1 166/9/1 165/9/1
f 79/9/1 64/9/1 168/9/1 167/9/1
f 64/9/1 65/33/1 169/33/1 168/9/1
f 65/33/1 66/9/1 114/9/1 169/33/1
f 2/5/4 67/34/4 170/34/4 91/5/4
f 67/34/4 68/34/4 171/34/4 170/34/4
f 88/14/4 69/34/4 173/34/4 172/14/4
f 80/36/4 70/5/4 175/5/4 174/36/4
f 70/5/4 71/6/4 176/6/4 175/5/4
f 71/6/4 72/14/4 116/14/4 176/6/4
f 27/37/1 73/7/1 124/7/1 123/37/1
f 74/30/4 33/30/4 131/30/4 132/30/4
f 75/2/2 39/2/2 137/2/2 138/2/2
f 76/25/3 45/25/3 145/25/3 146/25/3
f 51/11/2 77/20/2 152/20/2 151/11/2
f 57/12/3 78/12/3 160/12/3 159/12/3
f 63/9/1 79/9/1 167/9/1 166/9/1
f 69/34/4 80/36/4 174/36/4 173/34/4
f 28/35/1 81/35/1 126/35/1 125/35/1
f 82/29/4 32/29/4 129/29/4 130/29/4
f 83/2/2 40/2/2 139/2/2 140/2/2
f 84/25/3 44/23/3 143/23/3 144/25/3
f 52/19/2 85/18/2 154/18/2 153/19/2
f 56/12/3 86/12/3 158/12/3 157/12/3
f 62/9/1 87/9/1 165/9/1 164/9/1
f 68/34/4 88/14/4 172/14/4 171/34/4
f 274/3/1 273/2/1 94/2/1 99/3/1
f 276/7/2 275/6/2 92/6/2 101/7/2
f 278/10/3 277/9/3 90/9/3 105/10/3
f 280/13/4 279/12/4 96/12/4 103/13/4
f 281/2/13 282/1/13 110/1/13 118/2/13
f 283/12/14 284/11/14 119/11/14 113/12/14
f 285/9/15 286/8/15 107/8/15 115/9/15
f 287/5/16 288/4/16 120/4/16 117/5/16
f 277/9/3 193/9/3 1/9/3 90/9/3
f 275/6/2 194/5/2 2/5/2 92/6/2
f 273/2/1 195/2/1 3/2/1 94/2/1
f 279/12/4 196/12/4 4/12/4 96/12/4
f 197/1/1 274/3/1 99/3/1 5/1/1
f 198/4/2 276/7/2 101/7/2 6/4/2
f 199/11/4 280/13/4 103/13/4 7/11/4
f 200/8/3 278/10/3 105/10/3 8/8/3
f 201/4/2 198/4/2 6/4/2 30/4/2
f 18/8/3 202/10/3 36/10/3 203/8/3
f 195/2/1 204/24/1 42/24/1 3/2/1
f 23/1/1 205/3/1 48/3/1 206/1/1
f 207/16/4 199/11/4 7/11/4 54/16/4
f 208/12/4 17/12/4 209/12/4 60/12/4
f 210/9/3 24/9/3 211/9/3 66/9/3
f 212/14/2 21/5/2 213/5/2 72/14/2
f 214/4/2 215/15/2 25/15/2 22/4/2
f 215/15/2 216/38/2 26/38/2 25/15/2
f 216/38/2 217/37/2 27/37/2 26/38/2
f 218/7/2 219/35/2 28/35/2 73/7/2
f 220/35/2 221/4/2 29/4/2 81/35/2
f 221/4/2 201/4/2 30/4/2 29/4/2
f 222/28/3 200/8/3 8/8/3 31/28/3
f 223/29/3 222/28/3 31/28/3 32/29/3
f 225/30/3 224/29/3 82/29/3 33/30/3
f 227/31/3 226/30/3 74/30/3 34/31/3
f 228/32/3 227/31/3 34/31/3 35/32/3
f 202/10/3 228/32/3 35/32/3 36/10/3
f 230/2/1 229/2/1 19/2/1 37/2/1
f 231/2/1 230/2/1 37/2/1 38/2/1
f 232/2/1 231/2/1 38/2/1 39/2/1
f 234/2/1 233/2/1 75/2/1 40/2/1
f 236/2/1 235/2/1 83/2/1 41/2/1
f 204/24/1 236/2/1 41/2/1 42/24/1
f 237/23/1 197/1/1 5/1/1 43/23/1
f 238/23/1 237/23/1 43/23/1 44/23/1
f 240/25/1 239/25/1 84/25/1 45/25/1
f 242/26/1 241/25/1 76/25/1 46/26/1
f 243/27/1 242/26/1 46/26/1 47/27/1
f 205/3/1 243/27/1 47/27/1 48/3/1
f 244/11/4 245/11/4 49/11/4 20/11/4
f 245/11/4 246/22/4 50/22/4 49/11/4
f 246/22/4 247/11/4 51/11/4 50/22/4
f 248/20/4 249/19/4 52/19/4 77/20/4
f 250/18/4 251/18/4 53/18/4 85/18/4
f 251/18/4 207/16/4 54/16/4 53/18/4
f 196/12/4 252/17/4 55/17/4 4/12/4
f 252/17/4 253/12/4 56/12/4 55/17/4
f 254/12/4 255/12/4 57/12/4 86/12/4
f 256/12/4 257/21/4 58/21/4 78/12/4
f 257/21/4 258/17/4 59/17/4 58/21/4
f 258/17/4 208/12/4 60/12/4 59/17/4
f 193/9/3 259/9/3 61/9/3 1/9/3
f 259/9/3 260/9/3 62/9/3 61/9/3
f 261/9/3 262/9/3 63/9/3 87/9/3
f 263/9/3 264/9/3 64/9/3 79/9/3
f 264/9/3 265/33/3 65/33/3 64/9/3
f 265/33/3 210/9/3 66/9/3 65/33/3
f 194/5/2 266/34/2 67/34/2 2/5/2
f 266/34/2 267/34/2 68/34/2 67/34/2
f 268/14/2 269/34/2 69/34/2 88/14/2
f 270/36/2 271/5/2 70/5/2 80/36/2
f 271/5/2 272/6/2 71/6/2 70/5/2
f 272/6/2 212/14/2 72/14/2 71/6/2
f 217/37/2 218/7/2 73/7/2 27/37/2
f 226/30/3 225/30/3 33/30/3 74/30/3
f 233/2/1 232/2/1 39/2/1 75/2/1
f 241/25/1 240/25/1 45/25/1 76/25/1
f 247/11/4 248/20/4 77/20/4 51/11/4
f 255/12/4 256/12/4 78/12/4 57/12/4
f 262/9/3 263/9/3 79/9/3 63/9/3
f 269/34/2 270/36/2 80/36/2 69/34/2
f 219/35/2 220/35/2 81/35/2 28/35/2
f 224/29/3 223/29/3 32/29/3 82/29/3
f 235/2/1 234/2/1 40/2/1 83/2/1
f 239/25/1 238/23/1 44/23/1 84/25/1
f 249/19/4 250/18/4 85/18/4 52/19/4
f 253/12/4 254/12/4 86/12/4 56/12/4
f 260/9/3 261/9/3 87/9/3 62/9/3
f 267/34/2 268/14/2 88/14/2 68/34/2
f 286/8/15 18/8/15 203/8/15 107/8/15
f 282/1/13 23/1/13 206/1/13 110/1/13
f 17/12/14 283/12/14 113/12/14 209/12/14
f 24/9/15 285/9/15 115/9/15 211/9/15
f 21/5/16 287/5/16 117/5/16 213/5/16
f 229/2/13 281/2/13 118/2/13 19/2/13
f 284/11/14 244/11/14 20/11/14 119/11/14
f 288/4/16 214/4/16 22/4/16 120/4/16
f 178/3/17 177/2/17 273/2/17 274/3/17
f 180/7/17 179/6/17 275/6/17 276/7/17
f 182/10/17 181/9/17 277/9/17 278/10/17
f 184/13/17 183/12/17 279/12/17 280/13/17
f 185/2/18 187/1/18 282/1/18 281/2/18
f 188/12/19 186/11/19 284/11/19 283/12/19
f 190/9/20 191/8/20 286/8/20 285/9/20
f 192/5/21 189/4/21 288/4/21 287/5/21
f 181/9/22 289/9/22 193/9/22 277/9/22
f 179/6/23 290/5/23 194/5/23 275/6/23
f 177/2/24 291/2/24 195/2/24 273/2/24
f 183/12/25 292/12/25 196/12/25 279/12/25
f 293/1/25 178/3/25 274/3/25 197/1/25
f 294/4/22 180/7/22 276/7/22 198/4/22
f 295/11/24 184/13/24 280/13/24 199/11/24
f 296/8/23 182/10/23 278/10/23 200/8/23
f 399/4/4 294/4/4 198/4/4 201/4/4
f 299/8/1 397/10/1 202/10/1 18/8/1
f 291/2/3 380/24/3 204/24/3 195/2/3
f 302/1/2 387/3/2 205/3/2 23/1/2
f 369/16/3 295/11/3 199/11/3 207/16/3
f 378/12/2 305/12/2 17/12/2 208/12/2
f 398/9/4 307/9/4 24/9/4 210/9/4
f 408/14/1 309/5/1 21/5/1 212/14/1
f 310/4/4 407/15/4 215/15/4 214/4/4
f 407/15/4 405/38/4 216/38/4 215/15/4
f 405/38/4 403/37/4 217/37/4 216/38/4
f 409/7/4 315/35/4 219/35/4 218/7/4
f 316/35/4 401/4/4 221/4/4 220/35/4
f 401/4/4 399/4/4 201/4/4 221/4/4
f 389/28/1 296/8/1 200/8/1 222/28/1
f 391/29/1 389/28/1 222/28/1 223/29/1
f 321/30/1 320/29/1 224/29/1 225/30/1
f 393/31/1 411/30/1 226/30/1 227/31/1
f 395/32/1 393/31/1 227/31/1 228/32/1
f 397/10/1 395/32/1 228/32/1 202/10/1
f 388/2/3 325/2/3 229/2/3 230/2/3
f 386/2/3 388/2/3 230/2/3 231/2/3
f 384/2/3 386/2/3 231/2/3 232/2/3
f 330/2/3 414/2/3 233/2/3 234/2/3
f 382/2/3 331/2/3 235/2/3 236/2/3
f 380/24/3 382/2/3 236/2/3 204/24/3
f 379/23/2 293/1/2 197/1/2 237/23/2
f 381/23/2 379/23/2 237/23/2 238/23/2
f 336/25/2 335/25/2 239/25/2 240/25/2
f 383/26/2 413/25/2 241/25/2 242/26/2
f 385/27/2 383/26/2 242/26/2 243/27/2
f 387/3/2 385/27/2 243/27/2 205/3/2
f 340/11/3 377/11/3 245/11/3 244/11/3
f 377/11/3 375/22/3 246/22/3 245/11/3
f 375/22/3 373/11/3 247/11/3 246/22/3
f 415/20/3 345/19/3 249/19/3 248/20/3
f 346/18/3 371/18/3 251/18/3 250/18/3
f 371/18/3 369/16/3 207/16/3 251/18/3
f 292/12/2 370/17/2 252/17/2 196/12/2
f 370/17/2 372/12/2 253/12/2 252/17/2
f 350/12/2 351/12/2 255/12/2 254/12/2
f 416/12/2 374/21/2 257/21/2 256/12/2
f 374/21/2 376/17/2 258/17/2 257/21/2
f 376/17/2 378/12/2 208/12/2 258/17/2
f 289/9/4 390/9/4 259/9/4 193/9/4
f 390/9/4 392/9/4 260/9/4 259/9/4
f 357/9/4 358/9/4 262/9/4 261/9/4
f 412/9/4 394/9/4 264/9/4 263/9/4
f 394/9/4 396/33/4 265/33/4 264/9/4
f 396/33/4 398/9/4 210/9/4 265/33/4
f 290/5/1 400/34/1 266/34/1 194/5/1
f 400/34/1 402/34/1 267/34/1 266/34/1
f 364/14/1 365/34/1 269/34/1 268/14/1
f 410/36/1 404/5/1 271/5/1 270/36/1
f 404/5/1 406/6/1 272/6/1 271/5/1
f 406/6/1 408/14/1 212/14/1 272/6/1
f 403/37/4 409/7/4 218/7/4 217/37/4
f 411/30/1 321/30/1 225/30/1 226/30/1
f 414/2/3 384/2/3 232/2/3 233/2/3
f 413/25/2 336/25/2 240/25/2 241/25/2
f 373/11/3 415/20/3 248/20/3 247/11/3
f 351/12/2 416/12/2 256/12/2 255/12/2
f 358/9/4 412/9/4 263/9/4 262/9/4
f 365/34/1 410/36/1 270/36/1 269/34/1
f 315/35/4 316/35/4 220/35/4 219/35/4
f 320/29/1 391/29/1 223/29/1 224/29/1
f 331/2/3 330/2/3 234/2/3 235/2/3
f 335/25/2 381/23/2 238/23/2 239/25/2
f 345/19/3 346/18/3 250/18/3 249/19/3
f 372/12/2 350/12/2 254/12/2 253/12/2
f 392/9/4 357/9/4 261/9/4 260/9/4
f 402/34/1 364/14/1 268/14/1 267/34/1
f 191/8/26 299/8/26 18/8/26 286/8/26
f 187/1/27 302/1/27 23/1/27 282/1/27
f 305/12/28 188/12/28 283/12/28 17/12/28
f 307/9/29 190/9/29 285/9/29 24/9/29
f 309/5/30 192/5/30 287/5/30 21/5/30
f 325/2/31 185/2/31 281/2/31 229/2/31
f 186/11/32 340/11/32 244/11/32 284/11/32
f 189/4/33 310/4/33 214/4/33 288/4/33
f 303/16/34 348/17/34 370/17/34 369/16/34
f 349/12/35 347/18/35 371/18/35 372/12/35
f 353/21/35 343/11/35 373/11/35 374/21/35
f 342/22/34 354/17/34 376/17/34 375/22/34
f 304/12/35 341/11/35 377/11/35 378/12/35
f 333/23/36 300/24/36 380/24/36 379/23/36
f 332/2/37 334/23/37 381/23/37 382/2/37
f 328/2/37 338/26/37 383/26/37 384/2/37
f 339/27/36 327/2/36 386/2/36 385/27/36
f 326/2/37 301/3/37 387/3/37 388/2/37
f 318/28/38 355/9/38 390/9/38 389/28/38
f 356/9/39 319/29/39 391/29/39 392/9/39
f 360/9/39 323/31/39 393/31/39 394/9/39
f 324/32/38 361/33/38 396/33/38 395/32/38
f 306/9/39 298/10/39 397/10/39 398/9/39
f 297/4/40 362/34/40 400/34/40 399/4/40
f 363/34/41 317/4/41 401/4/41 402/34/41
f 367/5/41 313/37/41 403/37/41 404/5/41
f 312/38/40 368/6/40 406/6/40 405/38/40
f 308/14/41 311/15/41 407/15/41 408/14/41
f 314/7/40 366/36/40 410/36/40 409/7/40
f 322/30/38 359/9/38 412/9/38 411/30/38
f 337/25/36 329/2/36 414/2/36 413/25/36
f 344/20/34 352/12/34 416/12/34 415/20/34
