# Blender 5.2.0 LTS
# www.blender.org
mtllib fb.mtl
o Cube.017
v 95.686928 6.488225 0.470978
v 95.686928 6.488225 -0.470978
v 95.478493 7.204407 -0.366759
v 95.478493 7.204407 0.366759
v 92.313072 6.488225 -0.470978
v 92.313072 6.488225 0.470978
v 92.521507 7.204407 0.366759
v 92.521507 7.204407 -0.366759
v 94.470978 6.488225 -1.686930
v 93.529022 6.488225 -1.686930
v 93.633240 7.204407 -1.478492
v 94.366760 7.204407 -1.478492
v 93.529022 6.488225 1.686930
v 94.470978 6.488225 1.686930
v 94.366760 7.204407 1.478492
v 93.633240 7.204407 1.478492
vn 0.9602 0.2794 -0.0000
vn -0.9602 0.2794 -0.0000
vn -0.0000 0.2794 -0.9602
vn -0.0000 0.2794 0.9602
vt 0.625000 0.656038
vt 0.625000 0.593963
vt 0.625000 0.596921
vt 0.625000 0.653079
vt 0.625000 0.156038
vt 0.625000 0.093962
vt 0.625000 0.096921
vt 0.625000 0.153079
vt 0.640590 0.421627
vt 0.630244 0.349206
vt 0.630737 0.352657
vt 0.640097 0.418176
vt 0.630244 0.900794
vt 0.640590 0.828373
vt 0.640097 0.831824
vt 0.630737 0.897343
s 0
usemtl Material.031
f 1/1/1 2/2/1 3/3/1 4/4/1
f 5/5/2 6/6/2 7/7/2 8/8/2
f 9/9/3 10/10/3 11/11/3 12/12/3
f 13/13/4 14/14/4 15/15/4 16/16/4
