# Blender 5.2.0 LTS
# www.blender.org
mtllib ga.mtl
o Cube.019
v 95.312050 8.604699 -0.126878
v 95.318153 8.546793 -0.165761
v 95.325287 8.478491 -0.179402
v 95.332375 8.410191 -0.165725
v 95.338333 8.352291 -0.126811
v 95.307922 8.643394 -0.068673
v 95.342255 8.313606 -0.068585
v 95.306381 8.656984 -0.000007
v 95.343544 8.300026 0.000089
v 95.307671 8.643404 0.068667
v 95.342003 8.313618 0.068756
v 95.311592 8.604719 0.126893
v 95.317551 8.546820 0.165807
v 95.324638 8.478519 0.179485
v 95.331772 8.410217 0.165844
v 95.337868 8.352312 0.126961
v 94.126877 8.604699 1.312052
v 94.165764 8.546793 1.318151
v 94.179405 8.478491 1.325286
v 94.165726 8.410191 1.332372
v 94.126808 8.352291 1.338330
v 94.068672 8.643394 1.307919
v 94.068588 8.313606 1.342253
v 94.000008 8.656984 1.306380
v 93.999908 8.300026 1.343543
v 93.931335 8.643404 1.307670
v 93.931244 8.313618 1.342004
v 93.873108 8.604719 1.311593
v 93.834190 8.546820 1.317551
v 93.820518 8.478519 1.324637
v 93.834152 8.410217 1.331772
v 93.873039 8.352312 1.337871
v 92.687950 8.604699 0.126878
v 92.681847 8.546793 0.165761
v 92.674713 8.478491 0.179402
v 92.667625 8.410191 0.165725
v 92.661667 8.352291 0.126811
v 92.692078 8.643394 0.068673
v 92.657745 8.313606 0.068585
v 92.693619 8.656984 0.000007
v 92.656456 8.300026 -0.000089
v 92.692329 8.643404 -0.068667
v 92.657997 8.313618 -0.068756
v 92.688408 8.604719 -0.126893
v 92.682449 8.546820 -0.165807
v 92.675362 8.478519 -0.179485
v 92.668228 8.410217 -0.165844
v 92.662132 8.352312 -0.126961
v 93.873123 8.604699 -1.312052
v 93.834236 8.546793 -1.318151
v 93.820595 8.478491 -1.325286
v 93.834274 8.410191 -1.332372
v 93.873192 8.352291 -1.338330
v 93.931328 8.643394 -1.307919
v 93.931412 8.313606 -1.342253
v 93.999992 8.656984 -1.306380
v 94.000092 8.300026 -1.343543
v 94.068665 8.643404 -1.307670
v 94.068756 8.313618 -1.342004
v 94.126892 8.604719 -1.311593
v 94.165810 8.546820 -1.317551
v 94.179482 8.478519 -1.324637
v 94.165848 8.410217 -1.331772
v 94.126961 8.352312 -1.337871
v 95.612907 8.535404 -0.026226
v 95.614197 8.523182 -0.034434
v 95.615700 8.508763 -0.037313
v 95.617195 8.494347 -0.034426
v 95.618454 8.482124 -0.026212
v 95.612808 8.535409 0.027342
v 95.614067 8.523187 0.035556
v 95.615562 8.508770 0.038443
v 95.617073 8.494352 0.035564
v 95.618355 8.482129 0.027356
v 95.612038 8.543572 -0.013940
v 95.619286 8.473959 -0.013921
v 95.611710 8.546441 0.000555
v 95.619553 8.471092 0.000575
v 95.611984 8.543574 0.015051
v 95.619232 8.473961 0.015070
v 94.026222 8.535404 1.612907
v 94.034431 8.523181 1.614195
v 94.037315 8.508763 1.615701
v 94.034424 8.494347 1.617197
v 94.026215 8.482124 1.618454
v 93.972656 8.535409 1.612811
v 93.964447 8.523187 1.614068
v 93.961555 8.508770 1.615564
v 93.964439 8.494352 1.617070
v 93.972641 8.482129 1.618357
v 94.013939 8.543572 1.612035
v 94.013924 8.473959 1.619282
v 93.999443 8.546441 1.611710
v 93.999428 8.471092 1.619555
v 93.984947 8.543574 1.611982
v 93.984932 8.473961 1.619230
v 92.387093 8.535404 0.026226
v 92.385803 8.523181 0.034434
v 92.384300 8.508763 0.037313
v 92.382805 8.494347 0.034426
v 92.381546 8.482124 0.026212
v 92.387192 8.535409 -0.027342
v 92.385933 8.523187 -0.035556
v 92.384438 8.508770 -0.038443
v 92.382927 8.494352 -0.035564
v 92.381645 8.482129 -0.027356
v 92.387962 8.543572 0.013940
v 92.380714 8.473959 0.013921
v 92.388290 8.546441 -0.000555
v 92.380447 8.471092 -0.000575
v 92.388016 8.543574 -0.015051
v 92.380768 8.473961 -0.015070
v 93.973778 8.535404 -1.612907
v 93.965569 8.523181 -1.614195
v 93.962685 8.508763 -1.615701
v 93.965576 8.494347 -1.617197
v 93.973785 8.482124 -1.618454
v 94.027344 8.535409 -1.612811
v 94.035553 8.523187 -1.614068
v 94.038445 8.508770 -1.615564
v 94.035561 8.494352 -1.617070
v 94.027359 8.482129 -1.618357
v 93.986061 8.543572 -1.612035
v 93.986076 8.473959 -1.619282
v 94.000557 8.546441 -1.611710
v 94.000572 8.471092 -1.619555
v 94.015053 8.543574 -1.611982
v 94.015068 8.473961 -1.619230
v 95.644730 8.592514 -0.079696
v 95.648590 8.555866 -0.104304
v 95.653107 8.512637 -0.112938
v 95.657585 8.469410 -0.104281
v 95.661362 8.432766 -0.079653
v 95.644440 8.592527 0.080917
v 95.648209 8.555882 0.105545
v 95.652695 8.512655 0.114202
v 95.657211 8.469427 0.105568
v 95.661072 8.432778 0.080959
v 95.642113 8.617004 -0.042857
v 95.663841 8.408282 -0.042801
v 95.641136 8.625606 0.000602
v 95.664658 8.399687 0.000662
v 95.641953 8.617011 0.044065
v 95.663681 8.408289 0.044121
v 94.079697 8.592514 1.644728
v 94.104301 8.555866 1.648588
v 94.112938 8.512637 1.653104
v 94.104279 8.469410 1.657588
v 94.079651 8.432766 1.661359
v 93.919083 8.592527 1.644437
v 93.894455 8.555882 1.648208
v 93.885796 8.512655 1.652692
v 93.894432 8.469427 1.657208
v 93.919037 8.432778 1.661068
v 94.042854 8.617004 1.642112
v 94.042801 8.408282 1.663842
v 93.999397 8.625606 1.641138
v 93.999336 8.399687 1.664658
v 93.955933 8.617011 1.641954
v 93.955879 8.408289 1.663684
v 92.355270 8.592514 0.079695
v 92.351410 8.555865 0.104304
v 92.346893 8.512637 0.112938
v 92.342415 8.469410 0.104281
v 92.338638 8.432766 0.079652
v 92.355560 8.592527 -0.080917
v 92.351791 8.555882 -0.105545
v 92.347305 8.512655 -0.114202
v 92.342789 8.469427 -0.105569
v 92.338928 8.432778 -0.080960
v 92.357887 8.617003 0.042857
v 92.336159 8.408282 0.042801
v 92.358864 8.625606 -0.000602
v 92.335342 8.399687 -0.000662
v 92.358047 8.617011 -0.044065
v 92.336319 8.408289 -0.044121
v 93.920303 8.592514 -1.644728
v 93.895699 8.555865 -1.648588
v 93.887062 8.512637 -1.653104
v 93.895721 8.469410 -1.657588
v 93.920349 8.432766 -1.661359
v 94.080917 8.592527 -1.644437
v 94.105545 8.555882 -1.648208
v 94.114204 8.512655 -1.652692
v 94.105568 8.469427 -1.657208
v 94.080963 8.432778 -1.661068
v 93.957146 8.617003 -1.642112
v 93.957199 8.408282 -1.663842
v 94.000603 8.625606 -1.641138
v 94.000664 8.399687 -1.664658
v 94.044067 8.617011 -1.641954
v 94.044121 8.408289 -1.663684
v 95.608711 8.576410 -0.067467
v 95.611984 8.545371 -0.088310
v 95.615807 8.508759 -0.095622
v 95.619606 8.472149 -0.088290
v 95.622795 8.441113 -0.067431
v 95.608467 8.576421 0.068561
v 95.611664 8.545385 0.089420
v 95.615456 8.508775 0.096751
v 95.619286 8.472162 0.089439
v 95.622551 8.441124 0.068597
v 95.606499 8.597151 -0.036268
v 95.624901 8.420377 -0.036220
v 95.605675 8.604436 0.000539
v 95.625595 8.413097 0.000591
v 95.606361 8.597157 0.037350
v 95.624771 8.420382 0.037398
v 94.067467 8.576410 1.608713
v 94.088310 8.545371 1.611982
v 94.095619 8.508759 1.615807
v 94.088287 8.472149 1.619605
v 94.067429 8.441113 1.622798
v 93.931442 8.576421 1.608467
v 93.910583 8.545385 1.611660
v 93.903252 8.508775 1.615458
v 93.910561 8.472162 1.619283
v 93.931404 8.441124 1.622552
v 94.036270 8.597151 1.606497
v 94.036217 8.420377 1.624901
v 93.999458 8.604436 1.605672
v 93.999413 8.413097 1.625592
v 93.962646 8.597157 1.606364
v 93.962601 8.420382 1.624768
v 92.391289 8.576410 0.067467
v 92.388016 8.545371 0.088310
v 92.384193 8.508759 0.095621
v 92.380394 8.472148 0.088290
v 92.377205 8.441113 0.067431
v 92.391533 8.576421 -0.068561
v 92.388336 8.545385 -0.089420
v 92.384544 8.508775 -0.096751
v 92.380714 8.472163 -0.089440
v 92.377449 8.441124 -0.068597
v 92.393501 8.597151 0.036268
v 92.375099 8.420377 0.036220
v 92.394325 8.604436 -0.000539
v 92.374405 8.413097 -0.000591
v 92.393639 8.597157 -0.037350
v 92.375229 8.420382 -0.037398
v 93.932533 8.576409 -1.608713
v 93.911690 8.545371 -1.611982
v 93.904381 8.508759 -1.615807
v 93.911713 8.472148 -1.619605
v 93.932571 8.441113 -1.622798
v 94.068558 8.576421 -1.608467
v 94.089417 8.545385 -1.611660
v 94.096748 8.508775 -1.615458
v 94.089439 8.472162 -1.619283
v 94.068596 8.441124 -1.622552
v 93.963730 8.597151 -1.606497
v 93.963783 8.420377 -1.624901
v 94.000542 8.604436 -1.605672
v 94.000587 8.413097 -1.625592
v 94.037354 8.597157 -1.606364
v 94.037399 8.420382 -1.624768
v 95.619347 8.616856 -0.106589
v 95.643669 8.602885 -0.090126
v 95.628143 8.616515 -0.105324
v 95.635849 8.613741 -0.101750
v 95.641304 8.608954 -0.096414
v 95.648026 8.561478 -0.117931
v 95.624496 8.567956 -0.139425
v 95.645966 8.564680 -0.126144
v 95.640770 8.567035 -0.133113
v 95.633232 8.568186 -0.137776
v 95.653130 8.512636 -0.127685
v 95.630524 8.510276 -0.150944
v 95.651421 8.512456 -0.136574
v 95.646523 8.511944 -0.144115
v 95.639191 8.511179 -0.149161
v 95.658195 8.463796 -0.117904
v 95.636505 8.452599 -0.139394
v 95.656837 8.460234 -0.126116
v 95.652245 8.456855 -0.133083
v 95.645103 8.454174 -0.137746
v 95.662460 8.422393 -0.090078
v 95.641541 8.403704 -0.106532
v 95.661392 8.415964 -0.096362
v 95.657043 8.410154 -0.101696
v 95.650070 8.405849 -0.105267
v 95.643341 8.602900 0.091342
v 95.618958 8.616873 0.107714
v 95.640953 8.608971 0.097620
v 95.635483 8.613757 0.102936
v 95.627762 8.616532 0.106481
v 95.623993 8.567978 0.140576
v 95.647598 8.561497 0.119168
v 95.632729 8.568208 0.138959
v 95.640289 8.567057 0.134323
v 95.645508 8.564700 0.127373
v 95.629974 8.510301 0.152127
v 95.652664 8.512657 0.128949
v 95.638641 8.511203 0.150375
v 95.646004 8.511968 0.145355
v 95.650925 8.512478 0.137831
v 95.636002 8.452621 0.140607
v 95.657768 8.463815 0.119195
v 95.644600 8.454196 0.138990
v 95.651756 8.456877 0.134353
v 95.656380 8.460254 0.127401
v 95.641151 8.403721 0.107772
v 95.662132 8.422407 0.091390
v 95.649689 8.405867 0.106537
v 95.656677 8.410171 0.102991
v 95.661041 8.415979 0.097672
v 95.615852 8.649532 -0.057436
v 95.640709 8.630555 -0.048505
v 95.624695 8.648810 -0.056744
v 95.632515 8.644951 -0.054803
v 95.638145 8.638540 -0.051910
v 95.665260 8.394730 -0.048441
v 95.644852 8.371036 -0.057362
v 95.664398 8.386385 -0.051842
v 95.660210 8.378952 -0.054732
v 95.653351 8.373562 -0.056670
v 95.614555 8.661010 0.000551
v 95.639610 8.640274 0.000598
v 95.623405 8.660154 0.000567
v 95.631279 8.655913 0.000581
v 95.636971 8.648932 0.000592
v 95.666183 8.385019 0.000666
v 95.645943 8.359567 0.000632
v 95.665382 8.376001 0.000666
v 95.661255 8.367998 0.000659
v 95.654427 8.362227 0.000647
v 95.615646 8.649541 0.058544
v 95.640533 8.630563 0.049705
v 95.624481 8.648820 0.057884
v 95.632317 8.644959 0.055972
v 95.637955 8.638549 0.053100
v 95.665085 8.394738 0.049769
v 95.644638 8.371045 0.058619
v 95.664207 8.386394 0.053168
v 95.660011 8.378961 0.056044
v 95.653137 8.373571 0.057958
v 94.106590 8.616856 1.619346
v 94.090126 8.602885 1.643667
v 94.105324 8.616515 1.628141
v 94.101753 8.613741 1.635852
v 94.096413 8.608954 1.641304
v 94.117928 8.561478 1.648028
v 94.139427 8.567956 1.624497
v 94.126144 8.564680 1.645967
v 94.133110 8.567035 1.640771
v 94.137779 8.568186 1.633232
v 94.127686 8.512636 1.653130
v 94.150948 8.510276 1.630522
v 94.136574 8.512456 1.651422
v 94.144112 8.511944 1.646526
v 94.149162 8.511179 1.639187
v 94.117905 8.463796 1.658197
v 94.139397 8.452599 1.636506
v 94.126114 8.460234 1.656840
v 94.133080 8.456855 1.652241
v 94.137749 8.454174 1.645101
v 94.090080 8.422393 1.662458
v 94.106529 8.403704 1.641537
v 94.096359 8.415964 1.661396
v 94.101692 8.410154 1.657047
v 94.105270 8.405849 1.650074
v 93.908661 8.602900 1.643339
v 93.892288 8.616873 1.618959
v 93.902382 8.608971 1.640952
v 93.897064 8.613757 1.635481
v 93.893517 8.616532 1.627758
v 93.859421 8.567978 1.623990
v 93.880829 8.561497 1.647599
v 93.861038 8.568208 1.632731
v 93.865677 8.567057 1.640287
v 93.872627 8.564700 1.645508
v 93.847870 8.510301 1.629974
v 93.871048 8.512657 1.652666
v 93.849625 8.511203 1.638645
v 93.854645 8.511968 1.646002
v 93.862167 8.512478 1.650926
v 93.859390 8.452621 1.635999
v 93.880806 8.463815 1.657768
v 93.861008 8.454196 1.644600
v 93.865646 8.456877 1.651757
v 93.872597 8.460254 1.656381
v 93.892227 8.403721 1.641150
v 93.908607 8.422407 1.662129
v 93.893463 8.405867 1.649690
v 93.897011 8.410171 1.656676
v 93.902328 8.415979 1.661044
v 94.057434 8.649532 1.615856
v 94.048508 8.630555 1.640711
v 94.056747 8.648810 1.624692
v 94.054802 8.644951 1.632518
v 94.051910 8.638540 1.638143
v 94.048439 8.394730 1.665263
v 94.057358 8.371036 1.644850
v 94.051842 8.386385 1.664395
v 94.054733 8.378952 1.660211
v 94.056671 8.373562 1.653347
v 93.999451 8.661010 1.614557
v 93.999405 8.640274 1.639611
v 93.999435 8.660154 1.623408
v 93.999420 8.655913 1.631277
v 93.999405 8.648932 1.636967
v 93.999336 8.385019 1.666185
v 93.999367 8.359567 1.645939
v 93.999336 8.376001 1.665381
v 93.999344 8.367998 1.661251
v 93.999352 8.362227 1.654424
v 93.941460 8.649541 1.615646
v 93.950294 8.630563 1.640533
v 93.942116 8.648820 1.624484
v 93.944031 8.644959 1.632317
v 93.946899 8.638549 1.637953
v 93.950233 8.394738 1.665085
v 93.941383 8.371045 1.644640
v 93.946831 8.386394 1.664205
v 93.943954 8.378961 1.660010
v 93.942039 8.373571 1.653140
v 92.380653 8.616856 0.106589
v 92.356331 8.602885 0.090126
v 92.371857 8.616515 0.105324
v 92.364151 8.613741 0.101750
v 92.358696 8.608954 0.096414
v 92.351974 8.561478 0.117931
v 92.375504 8.567956 0.139425
v 92.354034 8.564680 0.126144
v 92.359230 8.567035 0.133112
v 92.366768 8.568186 0.137776
v 92.346870 8.512636 0.127685
v 92.369476 8.510276 0.150944
v 92.348579 8.512456 0.136573
v 92.353477 8.511944 0.144115
v 92.360809 8.511179 0.149161
v 92.341805 8.463796 0.117904
v 92.363495 8.452599 0.139394
v 92.343163 8.460234 0.126116
v 92.347755 8.456855 0.133083
v 92.354897 8.454174 0.137746
v 92.337540 8.422393 0.090078
v 92.358459 8.403704 0.106532
v 92.338608 8.415964 0.096362
v 92.342957 8.410154 0.101696
v 92.349930 8.405849 0.105267
v 92.356659 8.602900 -0.091342
v 92.381042 8.616873 -0.107714
v 92.359047 8.608970 -0.097620
v 92.364517 8.613757 -0.102936
v 92.372238 8.616532 -0.106481
v 92.376007 8.567978 -0.140576
v 92.352402 8.561497 -0.119169
v 92.367271 8.568208 -0.138959
v 92.359711 8.567057 -0.134323
v 92.354492 8.564700 -0.127373
v 92.370026 8.510301 -0.152127
v 92.347336 8.512657 -0.128949
v 92.361359 8.511203 -0.150375
v 92.353996 8.511968 -0.145355
v 92.349075 8.512478 -0.137831
v 92.363998 8.452621 -0.140607
v 92.342232 8.463815 -0.119195
v 92.355400 8.454196 -0.138990
v 92.348244 8.456877 -0.134353
v 92.343620 8.460255 -0.127402
v 92.358849 8.403721 -0.107772
v 92.337868 8.422407 -0.091390
v 92.350311 8.405867 -0.106537
v 92.343323 8.410171 -0.102991
v 92.338959 8.415979 -0.097672
v 92.384148 8.649532 0.057436
v 92.359291 8.630555 0.048504
v 92.375305 8.648810 0.056744
v 92.367485 8.644951 0.054803
v 92.361855 8.638540 0.051910
v 92.334740 8.394730 0.048441
v 92.355148 8.371036 0.057361
v 92.335602 8.386385 0.051842
v 92.339790 8.378952 0.054732
v 92.346649 8.373562 0.056670
v 92.385445 8.661010 -0.000551
v 92.360390 8.640274 -0.000598
v 92.376595 8.660154 -0.000567
v 92.368721 8.655913 -0.000581
v 92.363029 8.648932 -0.000592
v 92.333817 8.385019 -0.000666
v 92.354057 8.359567 -0.000632
v 92.334618 8.376001 -0.000666
v 92.338745 8.367998 -0.000659
v 92.345573 8.362227 -0.000647
v 92.384354 8.649541 -0.058544
v 92.359467 8.630563 -0.049705
v 92.375519 8.648820 -0.057884
v 92.367683 8.644959 -0.055972
v 92.362045 8.638549 -0.053100
v 92.334915 8.394738 -0.049769
v 92.355362 8.371045 -0.058619
v 92.335793 8.386394 -0.053168
v 92.339989 8.378961 -0.056044
v 92.346863 8.373571 -0.057958
v 93.893410 8.616856 -1.619346
v 93.909874 8.602885 -1.643667
v 93.894676 8.616515 -1.628141
v 93.898247 8.613741 -1.635852
v 93.903587 8.608954 -1.641304
v 93.882072 8.561478 -1.648028
v 93.860573 8.567956 -1.624497
v 93.873856 8.564679 -1.645967
v 93.866890 8.567035 -1.640771
v 93.862221 8.568186 -1.633232
v 93.872314 8.512636 -1.653130
v 93.849052 8.510276 -1.630522
v 93.863426 8.512456 -1.651422
v 93.855888 8.511944 -1.646526
v 93.850838 8.511179 -1.639187
v 93.882095 8.463796 -1.658197
v 93.860603 8.452599 -1.636506
v 93.873886 8.460234 -1.656840
v 93.866920 8.456855 -1.652241
v 93.862251 8.454174 -1.645101
v 93.909920 8.422393 -1.662458
v 93.893471 8.403704 -1.641537
v 93.903641 8.415964 -1.661396
v 93.898308 8.410154 -1.657047
v 93.894730 8.405849 -1.650074
v 94.091339 8.602900 -1.643339
v 94.107712 8.616873 -1.618959
v 94.097618 8.608971 -1.640952
v 94.102936 8.613757 -1.635481
v 94.106483 8.616532 -1.627758
v 94.140579 8.567978 -1.623990
v 94.119171 8.561497 -1.647599
v 94.138962 8.568208 -1.632731
v 94.134323 8.567057 -1.640287
v 94.127373 8.564700 -1.645508
v 94.152130 8.510301 -1.629974
v 94.128952 8.512656 -1.652666
v 94.150375 8.511203 -1.638645
v 94.145355 8.511968 -1.646002
v 94.137833 8.512478 -1.650926
v 94.140610 8.452621 -1.635999
v 94.119194 8.463815 -1.657768
v 94.138992 8.454196 -1.644600
v 94.134354 8.456877 -1.651757
v 94.127403 8.460254 -1.656381
v 94.107773 8.403721 -1.641150
v 94.091393 8.422407 -1.662129
v 94.106537 8.405867 -1.649690
v 94.102989 8.410171 -1.656676
v 94.097672 8.415979 -1.661044
v 93.942566 8.649532 -1.615856
v 93.951492 8.630555 -1.640711
v 93.943253 8.648810 -1.624692
v 93.945198 8.644951 -1.632518
v 93.948090 8.638540 -1.638143
v 93.951561 8.394730 -1.665263
v 93.942642 8.371036 -1.644850
v 93.948158 8.386385 -1.664395
v 93.945267 8.378952 -1.660211
v 93.943329 8.373562 -1.653347
v 94.000549 8.661010 -1.614557
v 94.000595 8.640274 -1.639611
v 94.000565 8.660154 -1.623408
v 94.000580 8.655913 -1.631277
v 94.000595 8.648932 -1.636967
v 94.000664 8.385018 -1.666185
v 94.000633 8.359567 -1.645939
v 94.000664 8.376001 -1.665381
v 94.000656 8.367998 -1.661251
v 94.000648 8.362227 -1.654424
v 94.058540 8.649541 -1.615646
v 94.049706 8.630563 -1.640533
v 94.057884 8.648820 -1.624484
v 94.055969 8.644959 -1.632317
v 94.053101 8.638549 -1.637953
v 94.049767 8.394738 -1.665085
v 94.058617 8.371044 -1.644640
v 94.053169 8.386394 -1.664205
v 94.056046 8.378961 -1.660010
v 94.057961 8.373571 -1.653140
v 95.312714 8.598208 -0.120350
v 95.332283 8.586969 -0.107106
v 95.314621 8.593326 -0.115292
v 95.319000 8.589476 -0.110999
v 95.325203 8.587244 -0.108125
v 95.337433 8.538070 -0.139942
v 95.318504 8.543281 -0.157233
v 95.330406 8.537885 -0.141268
v 95.324341 8.538811 -0.145020
v 95.320160 8.540705 -0.150626
v 95.343460 8.480391 -0.151461
v 95.325272 8.478492 -0.170172
v 95.336487 8.479664 -0.152896
v 95.330582 8.479049 -0.156955
v 95.326645 8.478637 -0.163022
v 95.349442 8.422712 -0.139911
v 95.331993 8.413705 -0.157198
v 95.342529 8.421446 -0.141237
v 95.336784 8.419289 -0.144988
v 95.333084 8.416571 -0.150593
v 95.354469 8.373817 -0.107049
v 95.337639 8.358784 -0.120286
v 95.347603 8.372091 -0.108067
v 95.341995 8.368629 -0.110940
v 95.338493 8.363955 -0.115230
v 95.331894 8.586987 0.107197
v 95.312279 8.598228 0.120368
v 95.324814 8.587261 0.108190
v 95.318604 8.589494 0.111041
v 95.314201 8.593345 0.115318
v 95.317932 8.543306 0.157281
v 95.336922 8.538092 0.140059
v 95.319611 8.540730 0.150680
v 95.323814 8.538834 0.145090
v 95.329895 8.537908 0.141360
v 95.324654 8.478519 0.170255
v 95.342911 8.480414 0.151610
v 95.326050 8.478662 0.163110
v 95.330017 8.479074 0.157057
v 95.335930 8.479689 0.153019
v 95.331421 8.413731 0.157316
v 95.348930 8.422735 0.140090
v 95.332535 8.416595 0.150714
v 95.336258 8.419312 0.145122
v 95.342018 8.421468 0.141391
v 95.337204 8.358803 0.120433
v 95.354080 8.373835 0.107255
v 95.338081 8.363974 0.115380
v 95.341591 8.368647 0.111101
v 95.347214 8.372109 0.108248
v 95.308792 8.634912 -0.065139
v 95.328789 8.619646 -0.057953
v 95.310860 8.628489 -0.062399
v 95.315384 8.623332 -0.060072
v 95.321686 8.620227 -0.058511
v 95.357780 8.341149 -0.057879
v 95.341362 8.322088 -0.065055
v 95.350952 8.339117 -0.058435
v 95.345428 8.334781 -0.059994
v 95.342064 8.328801 -0.062319
v 95.307335 8.647804 -0.000004
v 95.327492 8.631124 0.000034
v 95.309464 8.640840 0.000000
v 95.314041 8.635223 0.000009
v 95.320374 8.631812 0.000021
v 95.358871 8.329681 0.000115
v 95.342590 8.309206 0.000087
v 95.352051 8.327541 0.000102
v 95.346558 8.322899 0.000093
v 95.343231 8.316461 0.000087
v 95.308563 8.634922 0.065137
v 95.328583 8.619656 0.058027
v 95.310638 8.628498 0.062406
v 95.315170 8.623342 0.060096
v 95.321472 8.620236 0.058558
v 95.357574 8.341159 0.058102
v 95.341125 8.322099 0.065221
v 95.350739 8.339127 0.058634
v 95.345207 8.334790 0.060173
v 95.341835 8.328812 0.062487
v 94.120354 8.598208 1.312716
v 94.107109 8.586969 1.332281
v 94.115295 8.593326 1.314617
v 94.111000 8.589476 1.319003
v 94.108124 8.587244 1.325206
v 94.139938 8.538070 1.337431
v 94.157234 8.543281 1.318501
v 94.141266 8.537885 1.330404
v 94.145020 8.538810 1.324339
v 94.150627 8.540705 1.320159
v 94.151459 8.480391 1.343457
v 94.170174 8.478492 1.325270
v 94.152893 8.479664 1.336486
v 94.156952 8.479049 1.330582
v 94.163025 8.478637 1.326643
v 94.139908 8.422712 1.349440
v 94.157196 8.413705 1.331991
v 94.141235 8.421446 1.342527
v 94.144989 8.419289 1.336783
v 94.150589 8.416571 1.333083
v 94.107048 8.373817 1.354472
v 94.120285 8.358784 1.337642
v 94.108070 8.372091 1.347605
v 94.110939 8.368629 1.341995
v 94.115227 8.363955 1.338497
v 93.892799 8.586987 1.331893
v 93.879631 8.598228 1.312281
v 93.891808 8.587261 1.324814
v 93.888962 8.589494 1.318601
v 93.884682 8.593345 1.314200
v 93.842720 8.543306 1.317932
v 93.859940 8.538092 1.336924
v 93.849319 8.540730 1.319614
v 93.854912 8.538834 1.323814
v 93.858643 8.537908 1.329893
v 93.829742 8.478519 1.324654
v 93.848389 8.480414 1.342908
v 93.836891 8.478662 1.326053
v 93.842941 8.479074 1.330014
v 93.846977 8.479689 1.335933
v 93.842682 8.413731 1.331422
v 93.859909 8.422735 1.348934
v 93.849289 8.416595 1.332538
v 93.854881 8.419312 1.336257
v 93.858612 8.421468 1.342015
v 93.879570 8.358803 1.337207
v 93.892746 8.373835 1.354084
v 93.884621 8.363974 1.338079
v 93.888901 8.368647 1.341593
v 93.891754 8.372109 1.347213
v 94.065140 8.634912 1.308796
v 94.057953 8.619646 1.328790
v 94.062401 8.628489 1.310862
v 94.060074 8.623332 1.315387
v 94.058510 8.620227 1.321683
v 94.057877 8.341149 1.357784
v 94.065056 8.322088 1.341363
v 94.058434 8.339117 1.350948
v 94.059998 8.334781 1.345427
v 94.062317 8.328801 1.342061
v 94.000008 8.647804 1.307336
v 93.999969 8.631124 1.327491
v 94.000000 8.640840 1.309463
v 93.999992 8.635223 1.314040
v 93.999977 8.631812 1.320371
v 93.999886 8.329681 1.358873
v 93.999916 8.309206 1.342587
v 93.999901 8.327541 1.352048
v 93.999908 8.322899 1.346556
v 93.999916 8.316461 1.343234
v 93.934860 8.634922 1.308560
v 93.941971 8.619656 1.328580
v 93.937592 8.628498 1.310636
v 93.939903 8.623342 1.315169
v 93.941444 8.620236 1.321471
v 93.941895 8.341159 1.357574
v 93.934776 8.322099 1.341127
v 93.941368 8.339127 1.350736
v 93.939827 8.334790 1.345210
v 93.937515 8.328812 1.341835
v 92.687286 8.598208 0.120350
v 92.667717 8.586969 0.107106
v 92.685379 8.593326 0.115292
v 92.681000 8.589476 0.110999
v 92.674797 8.587244 0.108125
v 92.662567 8.538070 0.139942
v 92.681496 8.543281 0.157233
v 92.669594 8.537885 0.141268
v 92.675659 8.538810 0.145020
v 92.679840 8.540705 0.150626
v 92.656540 8.480391 0.151461
v 92.674728 8.478492 0.170172
v 92.663513 8.479664 0.152896
v 92.669418 8.479049 0.156955
v 92.673355 8.478637 0.163022
v 92.650558 8.422712 0.139911
v 92.668007 8.413705 0.157198
v 92.657471 8.421445 0.141237
v 92.663216 8.419289 0.144988
v 92.666916 8.416571 0.150593
v 92.645531 8.373817 0.107049
v 92.662361 8.358784 0.120286
v 92.652397 8.372091 0.108067
v 92.658005 8.368629 0.110940
v 92.661507 8.363955 0.115230
v 92.668106 8.586987 -0.107197
v 92.687721 8.598228 -0.120368
v 92.675186 8.587261 -0.108190
v 92.681396 8.589494 -0.111041
v 92.685799 8.593345 -0.115318
v 92.682068 8.543306 -0.157281
v 92.663078 8.538092 -0.140059
v 92.680389 8.540730 -0.150680
v 92.676186 8.538834 -0.145090
v 92.670105 8.537908 -0.141360
v 92.675346 8.478519 -0.170255
v 92.657089 8.480414 -0.151610
v 92.673950 8.478662 -0.163110
v 92.669983 8.479074 -0.157057
v 92.664070 8.479689 -0.153019
v 92.668579 8.413731 -0.157316
v 92.651070 8.422735 -0.140090
v 92.667465 8.416595 -0.150714
v 92.663742 8.419312 -0.145122
v 92.657982 8.421468 -0.141391
v 92.662796 8.358803 -0.120433
v 92.645920 8.373835 -0.107255
v 92.661919 8.363974 -0.115380
v 92.658409 8.368647 -0.111101
v 92.652786 8.372109 -0.108248
v 92.691208 8.634912 0.065139
v 92.671211 8.619646 0.057953
v 92.689140 8.628489 0.062399
v 92.684616 8.623331 0.060072
v 92.678314 8.620227 0.058511
v 92.642220 8.341149 0.057879
v 92.658638 8.322088 0.065055
v 92.649048 8.339117 0.058435
v 92.654572 8.334781 0.059994
v 92.657936 8.328801 0.062319
v 92.692665 8.647804 0.000004
v 92.672508 8.631124 -0.000034
v 92.690536 8.640840 -0.000000
v 92.685959 8.635223 -0.000009
v 92.679626 8.631812 -0.000021
v 92.641129 8.329681 -0.000115
v 92.657410 8.309206 -0.000087
v 92.647949 8.327541 -0.000102
v 92.653442 8.322899 -0.000093
v 92.656769 8.316461 -0.000087
v 92.691437 8.634922 -0.065137
v 92.671417 8.619656 -0.058027
v 92.689362 8.628498 -0.062406
v 92.684830 8.623342 -0.060096
v 92.678528 8.620236 -0.058558
v 92.642426 8.341159 -0.058102
v 92.658875 8.322099 -0.065221
v 92.649261 8.339127 -0.058634
v 92.654793 8.334790 -0.060173
v 92.658165 8.328812 -0.062487
v 93.879646 8.598208 -1.312716
v 93.892891 8.586969 -1.332281
v 93.884705 8.593326 -1.314617
v 93.889000 8.589476 -1.319003
v 93.891876 8.587244 -1.325206
v 93.860062 8.538070 -1.337431
v 93.842766 8.543281 -1.318501
v 93.858734 8.537885 -1.330404
v 93.854980 8.538810 -1.324339
v 93.849373 8.540705 -1.320159
v 93.848541 8.480391 -1.343457
v 93.829826 8.478492 -1.325270
v 93.847107 8.479664 -1.336486
v 93.843048 8.479049 -1.330582
v 93.836975 8.478637 -1.326643
v 93.860092 8.422712 -1.349440
v 93.842804 8.413705 -1.331991
v 93.858765 8.421445 -1.342526
v 93.855011 8.419289 -1.336782
v 93.849411 8.416571 -1.333083
v 93.892952 8.373817 -1.354472
v 93.879715 8.358784 -1.337642
v 93.891930 8.372092 -1.347605
v 93.889061 8.368629 -1.341995
v 93.884773 8.363955 -1.338497
v 94.107201 8.586987 -1.331893
v 94.120369 8.598228 -1.312281
v 94.108192 8.587261 -1.324814
v 94.111038 8.589494 -1.318601
v 94.115318 8.593345 -1.314200
v 94.157280 8.543306 -1.317932
v 94.140060 8.538092 -1.336924
v 94.150681 8.540730 -1.319614
v 94.145088 8.538834 -1.323814
v 94.141357 8.537908 -1.329893
v 94.170258 8.478519 -1.324654
v 94.151611 8.480414 -1.342908
v 94.163109 8.478662 -1.326053
v 94.157059 8.479074 -1.330014
v 94.153023 8.479689 -1.335933
v 94.157318 8.413731 -1.331422
v 94.140091 8.422735 -1.348934
v 94.150711 8.416595 -1.332538
v 94.145119 8.419312 -1.336257
v 94.141388 8.421468 -1.342015
v 94.120430 8.358803 -1.337207
v 94.107254 8.373835 -1.354084
v 94.115379 8.363974 -1.338079
v 94.111099 8.368647 -1.341593
v 94.108246 8.372109 -1.347213
v 93.934860 8.634912 -1.308796
v 93.942047 8.619646 -1.328790
v 93.937599 8.628489 -1.310862
v 93.939926 8.623331 -1.315387
v 93.941490 8.620227 -1.321683
v 93.942123 8.341149 -1.357784
v 93.934944 8.322088 -1.341363
v 93.941566 8.339117 -1.350948
v 93.940002 8.334781 -1.345427
v 93.937683 8.328801 -1.342061
v 93.999992 8.647804 -1.307336
v 94.000031 8.631124 -1.327491
v 94.000000 8.640840 -1.309463
v 94.000008 8.635223 -1.314040
v 94.000023 8.631812 -1.320371
v 94.000114 8.329681 -1.358873
v 94.000084 8.309206 -1.342587
v 94.000099 8.327541 -1.352048
v 94.000092 8.322899 -1.346556
v 94.000084 8.316461 -1.343234
v 94.065140 8.634922 -1.308560
v 94.058029 8.619656 -1.328580
v 94.062408 8.628498 -1.310636
v 94.060097 8.623342 -1.315169
v 94.058556 8.620236 -1.321471
v 94.058105 8.341159 -1.357574
v 94.065224 8.322099 -1.341127
v 94.058632 8.339127 -1.350736
v 94.060173 8.334790 -1.345210
v 94.062485 8.328812 -1.341835
v 92.524185 8.601912 0.106848
v 92.519035 8.553013 0.139683
v 92.527679 8.634589 0.057695
v 92.513008 8.495333 0.151203
v 92.507027 8.437655 0.139652
v 92.501999 8.388761 0.106791
v 92.498680 8.356092 0.057620
v 92.519547 8.553035 -0.140318
v 92.524574 8.601930 -0.107456
v 92.527885 8.634599 -0.058285
v 92.513557 8.495358 -0.151868
v 92.507530 8.437678 -0.140349
v 92.502380 8.388778 -0.107513
v 92.498894 8.356102 -0.058360
v 92.528976 8.646067 -0.000292
v 92.497597 8.344625 -0.000373
v 94.106850 8.601912 1.475814
v 94.139687 8.553013 1.480964
v 94.057693 8.634589 1.472323
v 94.151199 8.495333 1.486989
v 94.139656 8.437655 1.492973
v 94.106789 8.388761 1.498004
v 94.057617 8.356092 1.501317
v 93.859680 8.553035 1.480457
v 93.892548 8.601930 1.475426
v 93.941711 8.634599 1.472113
v 93.848129 8.495358 1.486441
v 93.859650 8.437678 1.492466
v 93.892487 8.388778 1.497617
v 93.941643 8.356102 1.501107
v 93.999710 8.646067 1.471024
v 93.999626 8.344625 1.502406
v 95.475815 8.601912 -0.106848
v 95.480965 8.553013 -0.139683
v 95.472321 8.634589 -0.057695
v 95.486992 8.495333 -0.151203
v 95.492973 8.437655 -0.139653
v 95.498001 8.388761 -0.106791
v 95.501320 8.356092 -0.057620
v 95.480453 8.553035 0.140318
v 95.475426 8.601930 0.107456
v 95.472115 8.634599 0.058285
v 95.486443 8.495358 0.151868
v 95.492470 8.437678 0.140349
v 95.497620 8.388778 0.107513
v 95.501106 8.356102 0.058360
v 95.471024 8.646067 0.000292
v 95.502403 8.344625 0.000373
v 93.893150 8.601912 -1.475814
v 93.860313 8.553013 -1.480964
v 93.942307 8.634589 -1.472323
v 93.848801 8.495333 -1.486989
v 93.860344 8.437655 -1.492973
v 93.893211 8.388761 -1.498004
v 93.942383 8.356092 -1.501317
v 94.140320 8.553035 -1.480457
v 94.107452 8.601930 -1.475426
v 94.058289 8.634598 -1.472113
v 94.151871 8.495358 -1.486441
v 94.140350 8.437678 -1.492466
v 94.107513 8.388778 -1.497617
v 94.058357 8.356102 -1.501107
v 94.000290 8.646067 -1.471024
v 94.000374 8.344624 -1.502406
v 93.893219 8.605648 -1.511697
v 93.893280 8.609385 -1.547580
v 93.893349 8.613120 -1.583463
v 93.942368 8.638325 -1.508206
v 93.942436 8.642060 -1.544090
v 93.942497 8.645796 -1.579973
v 94.140381 8.556771 -1.516340
v 94.140450 8.560507 -1.552223
v 94.140511 8.564242 -1.588107
v 94.151932 8.499093 -1.522324
v 94.152000 8.502829 -1.558207
v 94.152061 8.506565 -1.594090
v 94.140411 8.441414 -1.528350
v 94.140480 8.445149 -1.564233
v 94.140541 8.448885 -1.600116
v 94.107574 8.392513 -1.533500
v 94.107643 8.396250 -1.569383
v 94.107704 8.399985 -1.605266
v 94.058426 8.359838 -1.536990
v 94.058487 8.363573 -1.572873
v 94.058556 8.367309 -1.608757
v 94.000359 8.649802 -1.506907
v 94.000420 8.653538 -1.542790
v 94.000488 8.657274 -1.578674
v 93.860512 8.564219 -1.588614
v 93.860443 8.560484 -1.552730
v 93.860382 8.556748 -1.516847
v 93.848991 8.506540 -1.594639
v 93.848923 8.502805 -1.558756
v 93.848862 8.499069 -1.522873
v 93.860542 8.448863 -1.600623
v 93.860474 8.445127 -1.564740
v 93.860413 8.441391 -1.528857
v 93.893402 8.399968 -1.605654
v 93.893341 8.396233 -1.569771
v 93.893272 8.392496 -1.533888
v 93.942574 8.367300 -1.608967
v 93.942513 8.363564 -1.573084
v 93.942444 8.359828 -1.537200
v 94.107651 8.613137 -1.583076
v 94.107582 8.609402 -1.547192
v 94.107521 8.605666 -1.511309
v 94.058479 8.645805 -1.579763
v 94.058418 8.642070 -1.543880
v 94.058350 8.638334 -1.507996
v 94.000565 8.355831 -1.610056
v 94.000504 8.352096 -1.574173
v 94.000435 8.348360 -1.538290
v 95.511696 8.605648 -0.106783
v 95.547577 8.609385 -0.106719
v 95.583466 8.613120 -0.106654
v 95.508209 8.638325 -0.057630
v 95.544090 8.642060 -0.057566
v 95.579971 8.645796 -0.057501
v 95.516342 8.556771 0.140382
v 95.552223 8.560507 0.140447
v 95.588104 8.564242 0.140512
v 95.522324 8.499093 0.151933
v 95.558205 8.502829 0.151998
v 95.594093 8.506565 0.152062
v 95.528351 8.441414 0.140413
v 95.564232 8.445149 0.140478
v 95.600113 8.448885 0.140543
v 95.533501 8.392513 0.107578
v 95.569382 8.396250 0.107642
v 95.605263 8.399985 0.107707
v 95.536987 8.359838 0.058425
v 95.572876 8.363573 0.058490
v 95.608757 8.367309 0.058554
v 95.506905 8.649802 0.000357
v 95.542793 8.653538 0.000421
v 95.578674 8.657274 0.000486
v 95.588615 8.564220 -0.139490
v 95.552727 8.560484 -0.139554
v 95.516846 8.556748 -0.139619
v 95.594643 8.506540 -0.151009
v 95.558754 8.502805 -0.151074
v 95.522873 8.499069 -0.151138
v 95.600624 8.448863 -0.139459
v 95.564743 8.445127 -0.139523
v 95.528854 8.441391 -0.139588
v 95.605652 8.399968 -0.106597
v 95.569771 8.396233 -0.106661
v 95.533890 8.392496 -0.106726
v 95.608963 8.367300 -0.057426
v 95.573082 8.363564 -0.057491
v 95.537201 8.359828 -0.057555
v 95.583076 8.613137 0.107650
v 95.547195 8.609402 0.107585
v 95.511307 8.605665 0.107521
v 95.579765 8.645805 0.058479
v 95.543877 8.642070 0.058415
v 95.507996 8.638334 0.058350
v 95.610054 8.355831 0.000567
v 95.574173 8.352096 0.000502
v 95.538292 8.348360 0.000438
v 94.106781 8.605648 1.511697
v 94.106720 8.609385 1.547580
v 94.106651 8.613120 1.583463
v 94.057632 8.638325 1.508206
v 94.057564 8.642060 1.544090
v 94.057503 8.645796 1.579973
v 93.859619 8.556771 1.516340
v 93.859550 8.560507 1.552223
v 93.859489 8.564242 1.588107
v 93.848068 8.499093 1.522324
v 93.848000 8.502829 1.558207
v 93.847939 8.506565 1.594090
v 93.859589 8.441414 1.528350
v 93.859520 8.445149 1.564233
v 93.859459 8.448885 1.600116
v 93.892426 8.392513 1.533500
v 93.892357 8.396250 1.569383
v 93.892296 8.399985 1.605266
v 93.941574 8.359838 1.536990
v 93.941513 8.363573 1.572873
v 93.941444 8.367309 1.608757
v 93.999641 8.649802 1.506907
v 93.999580 8.653538 1.542790
v 93.999512 8.657274 1.578674
v 94.139488 8.564220 1.588614
v 94.139557 8.560484 1.552730
v 94.139618 8.556748 1.516847
v 94.151009 8.506540 1.594639
v 94.151077 8.502805 1.558756
v 94.151138 8.499069 1.522873
v 94.139458 8.448863 1.600623
v 94.139526 8.445127 1.564740
v 94.139587 8.441391 1.528857
v 94.106598 8.399968 1.605654
v 94.106659 8.396233 1.569771
v 94.106728 8.392496 1.533888
v 94.057426 8.367300 1.608967
v 94.057487 8.363564 1.573084
v 94.057556 8.359828 1.537200
v 93.892349 8.613137 1.583076
v 93.892418 8.609402 1.547192
v 93.892479 8.605665 1.511309
v 93.941521 8.645805 1.579763
v 93.941582 8.642070 1.543880
v 93.941650 8.638334 1.507996
v 93.999435 8.355831 1.610056
v 93.999496 8.352096 1.574173
v 93.999565 8.348360 1.538290
v 92.488304 8.605648 0.106783
v 92.452423 8.609385 0.106719
v 92.416534 8.613120 0.106654
v 92.491791 8.638325 0.057630
v 92.455910 8.642060 0.057566
v 92.420029 8.645796 0.057501
v 92.483658 8.556771 -0.140382
v 92.447777 8.560507 -0.140447
v 92.411896 8.564242 -0.140512
v 92.477676 8.499093 -0.151933
v 92.441795 8.502829 -0.151998
v 92.405907 8.506565 -0.152062
v 92.471649 8.441414 -0.140414
v 92.435768 8.445149 -0.140478
v 92.399887 8.448885 -0.140543
v 92.466499 8.392513 -0.107578
v 92.430618 8.396250 -0.107643
v 92.394737 8.399985 -0.107707
v 92.463013 8.359838 -0.058425
v 92.427124 8.363573 -0.058490
v 92.391243 8.367309 -0.058554
v 92.493095 8.649802 -0.000357
v 92.457207 8.653538 -0.000421
v 92.421326 8.657274 -0.000486
v 92.411385 8.564219 0.139490
v 92.447273 8.560484 0.139554
v 92.483154 8.556748 0.139619
v 92.405357 8.506540 0.151009
v 92.441246 8.502805 0.151074
v 92.477127 8.499069 0.151138
v 92.399376 8.448863 0.139458
v 92.435257 8.445127 0.139523
v 92.471146 8.441391 0.139588
v 92.394348 8.399968 0.106597
v 92.430229 8.396233 0.106661
v 92.466110 8.392496 0.106726
v 92.391037 8.367300 0.057426
v 92.426918 8.363564 0.057491
v 92.462799 8.359828 0.057555
v 92.416924 8.613137 -0.107650
v 92.452805 8.609402 -0.107585
v 92.488693 8.605665 -0.107521
v 92.420235 8.645805 -0.058479
v 92.456123 8.642070 -0.058415
v 92.492004 8.638334 -0.058350
v 92.389946 8.355831 -0.000567
v 92.425827 8.352096 -0.000503
v 92.461708 8.348360 -0.000438
vn 0.4629 -0.4600 0.7577
vn 0.4287 -0.1337 0.8935
vn 0.3920 0.2196 0.8934
vn 0.3582 0.5459 0.7574
vn 0.4657 -0.4601 -0.7559
vn 0.4320 -0.1338 -0.8919
vn 0.3952 0.2194 -0.8920
vn 0.3610 0.5458 -0.7562
vn 0.4894 -0.7098 0.5066
vn 0.3327 0.7957 0.5062
vn 0.5041 -0.8450 0.1785
vn 0.3192 0.9308 0.1781
vn 0.5047 -0.8450 -0.1766
vn 0.3198 0.9308 -0.1771
vn 0.4912 -0.7099 -0.5047
vn 0.3345 0.7956 -0.5051
vn -0.7577 -0.4600 0.4629
vn -0.8935 -0.1337 0.4287
vn -0.8934 0.2196 0.3920
vn -0.7574 0.5459 0.3582
vn 0.7559 -0.4601 0.4657
vn 0.8919 -0.1338 0.4320
vn 0.8920 0.2194 0.3952
vn 0.7562 0.5458 0.3610
vn -0.5066 -0.7098 0.4894
vn -0.5062 0.7957 0.3327
vn -0.1786 -0.8450 0.5041
vn -0.1781 0.9308 0.3192
vn 0.1766 -0.8450 0.5047
vn 0.1771 0.9308 0.3198
vn 0.5047 -0.7099 0.4912
vn 0.5051 0.7956 0.3345
vn -0.4629 -0.4600 -0.7577
vn -0.4287 -0.1337 -0.8935
vn -0.3920 0.2196 -0.8934
vn -0.3582 0.5459 -0.7574
vn -0.4657 -0.4601 0.7559
vn -0.4320 -0.1338 0.8919
vn -0.3952 0.2194 0.8920
vn -0.3610 0.5458 0.7562
vn -0.4894 -0.7098 -0.5066
vn -0.3327 0.7957 -0.5062
vn -0.5041 -0.8450 -0.1786
vn -0.3192 0.9308 -0.1781
vn -0.5047 -0.8450 0.1766
vn -0.3198 0.9308 0.1771
vn -0.4912 -0.7099 0.5047
vn -0.3345 0.7956 0.5051
vn 0.7577 -0.4600 -0.4629
vn 0.8935 -0.1337 -0.4287
vn 0.8934 0.2196 -0.3920
vn 0.7574 0.5459 -0.3582
vn -0.7559 -0.4601 -0.4657
vn -0.8919 -0.1338 -0.4320
vn -0.8920 0.2194 -0.3952
vn -0.7562 0.5458 -0.3610
vn 0.5066 -0.7098 -0.4894
vn 0.5062 0.7957 -0.3327
vn 0.1786 -0.8450 -0.5041
vn 0.1781 0.9308 -0.3192
vn -0.1766 -0.8450 -0.5047
vn -0.1771 0.9308 -0.3198
vn -0.5047 -0.7099 -0.4912
vn -0.5051 0.7956 -0.3345
vn 0.9946 0.1035 0.0018
vn 0.9946 0.1036 0.0018
vn -0.0018 0.1036 0.9946
vn -0.0018 0.1035 0.9946
vn -0.9946 0.1035 -0.0018
vn -0.9946 0.1036 -0.0018
vn 0.0018 0.1036 -0.9946
vn 0.0018 0.1035 -0.9946
vn 0.9646 0.2093 -0.1605
vn 0.7959 0.3931 -0.4605
vn 0.5060 0.5169 -0.6905
vn 0.1391 0.5621 -0.8153
vn 0.9719 0.1394 -0.1896
vn 0.8168 0.1939 -0.5434
vn 0.5373 0.2188 -0.8145
vn 0.1760 0.2104 -0.9616
vn 0.9798 0.0637 -0.1895
vn 0.8392 -0.0218 -0.5434
vn 0.5709 -0.1039 -0.8145
vn 0.2156 -0.1702 -0.9615
vn 0.9870 -0.0063 -0.1604
vn 0.8598 -0.2209 -0.4604
vn 0.6017 -0.4020 -0.6902
vn 0.2519 -0.5218 -0.8150
vn 0.1361 0.5622 0.8157
vn 0.5035 0.5170 0.6922
vn 0.7942 0.3931 0.4634
vn 0.9640 0.2094 0.1639
vn 0.1725 0.2106 0.9622
vn 0.5343 0.2189 0.8164
vn 0.8148 0.1939 0.5464
vn 0.9712 0.1394 0.1931
vn 0.2121 -0.1700 0.9623
vn 0.5679 -0.1037 0.8165
vn 0.8372 -0.0217 0.5464
vn 0.9791 0.0637 0.1931
vn 0.2490 -0.5217 0.8160
vn 0.5992 -0.4019 0.6925
vn 0.8581 -0.2209 0.4635
vn 0.9864 -0.0062 0.1640
vn 0.9589 0.2629 -0.1067
vn 0.7797 0.5455 -0.3073
vn 0.4818 0.7451 -0.4611
vn 0.1106 0.8313 -0.5448
vn 0.2795 -0.7910 -0.5443
vn 0.6250 -0.6301 -0.4608
vn 0.8754 -0.3734 -0.3070
vn 0.9925 -0.0598 -0.1066
vn 0.9558 0.2919 -0.0364
vn 0.7708 0.6281 -0.1070
vn 0.4684 0.8686 -0.1614
vn 0.0948 0.9770 -0.1912
vn 0.2940 -0.9366 -0.1907
vn 0.6373 -0.7536 -0.1610
vn 0.8836 -0.4559 -0.1068
vn 0.9954 -0.0888 -0.0363
vn 0.9556 0.2919 0.0398
vn 0.7704 0.6281 0.1097
vn 0.4679 0.8686 0.1630
vn 0.0941 0.9770 0.1914
vn 0.2933 -0.9366 0.1919
vn 0.6367 -0.7536 0.1634
vn 0.8832 -0.4559 0.1100
vn 0.9953 -0.0888 0.0399
vn 0.9585 0.2629 0.1101
vn 0.7786 0.5456 0.3100
vn 0.4802 0.7452 0.4628
vn 0.1086 0.8314 0.5450
vn 0.2775 -0.7909 0.5455
vn 0.6233 -0.6301 0.4631
vn 0.8743 -0.3733 0.3103
vn 0.9921 -0.0598 0.1102
vn 0.1605 0.2094 0.9646
vn 0.4605 0.3930 0.7959
vn 0.6905 0.5169 0.5060
vn 0.8153 0.5621 0.1391
vn 0.1896 0.1394 0.9719
vn 0.5434 0.1939 0.8168
vn 0.8145 0.2188 0.5373
vn 0.9616 0.2104 0.1760
vn 0.1896 0.0637 0.9798
vn 0.5434 -0.0217 0.8392
vn 0.8145 -0.1039 0.5709
vn 0.9615 -0.1702 0.2156
vn 0.1604 -0.0062 0.9870
vn 0.4604 -0.2209 0.8598
vn 0.6902 -0.4020 0.6017
vn 0.8150 -0.5218 0.2519
vn -0.8157 0.5622 0.1361
vn -0.6922 0.5170 0.5035
vn -0.4633 0.3931 0.7942
vn -0.1639 0.2094 0.9640
vn -0.9622 0.2106 0.1725
vn -0.8164 0.2189 0.5343
vn -0.5464 0.1939 0.8148
vn -0.1931 0.1394 0.9712
vn -0.9623 -0.1700 0.2121
vn -0.8165 -0.1037 0.5679
vn -0.5464 -0.0217 0.8372
vn -0.1931 0.0637 0.9791
vn -0.8160 -0.5217 0.2490
vn -0.6925 -0.4019 0.5992
vn -0.4635 -0.2209 0.8581
vn -0.1640 -0.0062 0.9864
vn 0.1067 0.2629 0.9589
vn 0.3073 0.5455 0.7797
vn 0.4611 0.7451 0.4818
vn 0.5448 0.8313 0.1106
vn 0.5443 -0.7909 0.2795
vn 0.4608 -0.6301 0.6250
vn 0.3070 -0.3734 0.8754
vn 0.1066 -0.0598 0.9925
vn 0.0364 0.2918 0.9558
vn 0.1070 0.6281 0.7708
vn 0.1614 0.8686 0.4684
vn 0.1912 0.9770 0.0948
vn 0.1907 -0.9366 0.2940
vn 0.1610 -0.7536 0.6373
vn 0.1068 -0.4559 0.8836
vn 0.0363 -0.0887 0.9954
vn -0.0398 0.2919 0.9556
vn -0.1097 0.6281 0.7704
vn -0.1630 0.8686 0.4679
vn -0.1914 0.9770 0.0941
vn -0.1919 -0.9366 0.2933
vn -0.1634 -0.7536 0.6367
vn -0.1100 -0.4559 0.8832
vn -0.0399 -0.0888 0.9953
vn -0.1101 0.2629 0.9585
vn -0.3100 0.5456 0.7786
vn -0.4627 0.7452 0.4802
vn -0.5450 0.8314 0.1086
vn -0.5455 -0.7909 0.2775
vn -0.4631 -0.6301 0.6233
vn -0.3103 -0.3733 0.8743
vn -0.1102 -0.0598 0.9921
vn -0.9646 0.2093 0.1605
vn -0.7959 0.3931 0.4605
vn -0.5060 0.5169 0.6905
vn -0.1391 0.5621 0.8153
vn -0.9719 0.1394 0.1896
vn -0.8168 0.1939 0.5434
vn -0.5373 0.2188 0.8145
vn -0.1760 0.2104 0.9616
vn -0.9798 0.0637 0.1895
vn -0.8392 -0.0218 0.5434
vn -0.5709 -0.1039 0.8145
vn -0.2156 -0.1702 0.9615
vn -0.9870 -0.0063 0.1604
vn -0.8598 -0.2209 0.4604
vn -0.6017 -0.4020 0.6902
vn -0.2519 -0.5218 0.8150
vn -0.1361 0.5622 -0.8157
vn -0.5035 0.5170 -0.6922
vn -0.7942 0.3931 -0.4633
vn -0.9640 0.2094 -0.1639
vn -0.1725 0.2106 -0.9622
vn -0.5343 0.2189 -0.8164
vn -0.8148 0.1939 -0.5463
vn -0.9712 0.1394 -0.1931
vn -0.2121 -0.1700 -0.9623
vn -0.5679 -0.1037 -0.8165
vn -0.8372 -0.0217 -0.5464
vn -0.9791 0.0637 -0.1931
vn -0.2490 -0.5217 -0.8160
vn -0.5992 -0.4019 -0.6925
vn -0.8581 -0.2209 -0.4635
vn -0.9864 -0.0062 -0.1640
vn -0.9589 0.2629 0.1067
vn -0.7797 0.5455 0.3073
vn -0.4818 0.7451 0.4611
vn -0.1106 0.8313 0.5448
vn -0.2795 -0.7910 0.5443
vn -0.6250 -0.6301 0.4608
vn -0.8754 -0.3734 0.3071
vn -0.9925 -0.0598 0.1066
vn -0.9558 0.2919 0.0364
vn -0.7708 0.6281 0.1070
vn -0.4684 0.8686 0.1614
vn -0.0948 0.9770 0.1912
vn -0.2940 -0.9366 0.1907
vn -0.6373 -0.7536 0.1610
vn -0.8836 -0.4559 0.1068
vn -0.9954 -0.0888 0.0363
vn -0.9556 0.2919 -0.0398
vn -0.7704 0.6281 -0.1097
vn -0.4678 0.8687 -0.1630
vn -0.0941 0.9770 -0.1914
vn -0.2933 -0.9366 -0.1919
vn -0.6367 -0.7536 -0.1634
vn -0.8832 -0.4559 -0.1100
vn -0.9953 -0.0888 -0.0399
vn -0.9585 0.2629 -0.1101
vn -0.7786 0.5456 -0.3100
vn -0.4802 0.7452 -0.4628
vn -0.1086 0.8314 -0.5450
vn -0.2775 -0.7909 -0.5455
vn -0.6233 -0.6301 -0.4631
vn -0.8743 -0.3733 -0.3103
vn -0.9921 -0.0598 -0.1102
vn -0.1605 0.2094 -0.9646
vn -0.4605 0.3930 -0.7959
vn -0.6905 0.5169 -0.5060
vn -0.8153 0.5621 -0.1391
vn -0.1896 0.1394 -0.9719
vn -0.5434 0.1939 -0.8168
vn -0.8145 0.2188 -0.5373
vn -0.9616 0.2104 -0.1760
vn -0.1896 0.0637 -0.9798
vn -0.5434 -0.0218 -0.8392
vn -0.8145 -0.1039 -0.5709
vn -0.9615 -0.1702 -0.2156
vn -0.1604 -0.0063 -0.9870
vn -0.4604 -0.2209 -0.8598
vn -0.6902 -0.4020 -0.6017
vn -0.8150 -0.5218 -0.2519
vn 0.8157 0.5622 -0.1361
vn 0.6922 0.5170 -0.5035
vn 0.4634 0.3931 -0.7942
vn 0.1639 0.2094 -0.9640
vn 0.9622 0.2106 -0.1725
vn 0.8164 0.2189 -0.5343
vn 0.5464 0.1939 -0.8148
vn 0.1931 0.1394 -0.9712
vn 0.9623 -0.1700 -0.2121
vn 0.8165 -0.1037 -0.5679
vn 0.5464 -0.0217 -0.8372
vn 0.1931 0.0637 -0.9791
vn 0.8160 -0.5217 -0.2490
vn 0.6925 -0.4019 -0.5992
vn 0.4635 -0.2209 -0.8581
vn 0.1640 -0.0062 -0.9864
vn -0.1067 0.2629 -0.9589
vn -0.3073 0.5455 -0.7797
vn -0.4611 0.7451 -0.4818
vn -0.5448 0.8313 -0.1106
vn -0.5443 -0.7910 -0.2795
vn -0.4608 -0.6301 -0.6250
vn -0.3070 -0.3734 -0.8754
vn -0.1066 -0.0598 -0.9925
vn -0.0364 0.2919 -0.9558
vn -0.1070 0.6281 -0.7708
vn -0.1614 0.8686 -0.4684
vn -0.1912 0.9770 -0.0948
vn -0.1907 -0.9366 -0.2940
vn -0.1610 -0.7536 -0.6373
vn -0.1067 -0.4559 -0.8836
vn -0.0363 -0.0887 -0.9954
vn 0.0398 0.2919 -0.9556
vn 0.1097 0.6281 -0.7704
vn 0.1630 0.8686 -0.4679
vn 0.1914 0.9770 -0.0941
vn 0.1919 -0.9366 -0.2933
vn 0.1634 -0.7536 -0.6367
vn 0.1100 -0.4559 -0.8832
vn 0.0399 -0.0888 -0.9953
vn 0.1101 0.2629 -0.9585
vn 0.3100 0.5456 -0.7786
vn 0.4627 0.7452 -0.4802
vn 0.5450 0.8314 -0.1086
vn 0.5455 -0.7909 -0.2775
vn 0.4631 -0.6301 -0.6233
vn 0.3103 -0.3733 -0.8743
vn 0.1102 -0.0598 -0.9921
vn 0.5709 -0.1039 -0.8144
vn 0.8392 -0.0217 -0.5434
vn 0.9798 0.0637 -0.1896
vn 0.7942 0.3931 0.4633
vn 0.4678 0.8687 0.1630
vn 0.4605 0.3931 0.7959
vn 0.1605 0.2093 0.9646
vn 0.1604 -0.0063 0.9870
vn 0.5443 -0.7910 0.2795
vn 0.0364 0.2919 0.9558
vn 0.0363 -0.0888 0.9954
vn -0.1630 0.8687 0.4678
vn -0.0399 -0.0887 0.9953
vn -0.5709 -0.1039 0.8144
vn -0.8392 -0.0217 0.5434
vn -0.9798 0.0637 0.1896
vn -0.8148 0.1939 -0.5464
vn -0.8754 -0.3734 0.3070
vn -0.7708 0.6280 0.1070
vn -0.8832 -0.4558 -0.1100
vn -0.2933 -0.9366 -0.1920
vn -0.4802 0.7452 -0.4627
vn -0.4605 0.3931 -0.7959
vn -0.1605 0.2093 -0.9646
vn 0.4633 0.3931 -0.7942
vn -0.0363 -0.0888 -0.9954
vn -0.1068 -0.4559 -0.8836
vn 0.1630 0.8687 -0.4678
vn 0.0399 -0.0887 -0.9953
vn 0.4628 0.7452 -0.4802
vn 0.5454 -0.7909 -0.2775
vn -0.0560 0.5525 -0.8316
vn -0.0851 0.8270 -0.5558
vn -0.0184 0.1940 -0.9808
vn 0.0220 -0.1941 -0.9807
vn 0.0590 -0.5527 -0.8313
vn 0.0871 -0.8270 -0.5553
vn -0.0590 0.5527 0.8313
vn -0.0871 0.8270 0.5553
vn -0.0220 0.1941 0.9807
vn 0.0184 -0.1940 0.9808
vn 0.0560 -0.5525 0.8316
vn 0.0851 -0.8270 0.5558
vn -0.1012 0.9755 -0.1954
vn 0.1019 -0.9755 -0.1948
vn -0.1019 0.9755 0.1948
vn 0.1012 -0.9755 0.1954
vn 0.8316 0.5525 -0.0560
vn 0.5558 0.8270 -0.0851
vn 0.9808 0.1940 -0.0184
vn 0.9807 -0.1941 0.0220
vn 0.8313 -0.5527 0.0590
vn 0.5553 -0.8270 0.0871
vn -0.8313 0.5527 -0.0590
vn -0.5553 0.8270 -0.0871
vn -0.9807 0.1941 -0.0220
vn -0.9808 -0.1940 0.0184
vn -0.8316 -0.5525 0.0560
vn -0.5558 -0.8270 0.0851
vn 0.1954 0.9755 -0.1012
vn 0.1948 -0.9755 0.1019
vn -0.1948 0.9755 -0.1019
vn -0.1954 -0.9755 0.1012
vn 0.0560 0.5525 0.8316
vn 0.0851 0.8270 0.5558
vn 0.0184 0.1940 0.9808
vn -0.0220 -0.1941 0.9807
vn -0.0590 -0.5527 0.8313
vn -0.0871 -0.8270 0.5553
vn 0.0590 0.5527 -0.8313
vn 0.0871 0.8270 -0.5553
vn 0.0220 0.1941 -0.9807
vn -0.0184 -0.1940 -0.9808
vn -0.0560 -0.5525 -0.8316
vn -0.0851 -0.8270 -0.5558
vn 0.1012 0.9755 0.1954
vn -0.1019 -0.9755 0.1948
vn 0.1019 0.9755 -0.1948
vn -0.1012 -0.9755 -0.1954
vn -0.8316 0.5525 0.0560
vn -0.5558 0.8270 0.0851
vn -0.9808 0.1940 0.0184
vn -0.9807 -0.1941 -0.0220
vn -0.8313 -0.5527 -0.0590
vn -0.5553 -0.8270 -0.0871
vn 0.8313 0.5527 0.0590
vn 0.5553 0.8270 0.0871
vn 0.9807 0.1941 0.0220
vn 0.9808 -0.1940 -0.0184
vn 0.8316 -0.5525 -0.0560
vn 0.5558 -0.8270 -0.0851
vn -0.1954 0.9755 0.1012
vn -0.1948 -0.9755 -0.1019
vn 0.1948 0.9755 0.1019
vn 0.1954 -0.9755 -0.1012
vn -0.0590 0.5526 0.8313
vn -0.8313 -0.5526 -0.0590
vn 0.8313 0.5526 0.0590
vn 0.8313 -0.5526 0.0590
vt 0.625313 0.607468
vt 0.625313 0.607468
vt 0.625321 0.642532
vt 0.625321 0.642532
vt 0.625321 0.642532
vt 0.625321 0.642532
vt 0.625315 0.616234
vt 0.625315 0.616234
vt 0.625317 0.625000
vt 0.625317 0.625000
vt 0.625319 0.633766
vt 0.625319 0.633766
vt 0.638680 0.844130
vt 0.638680 0.844130
vt 0.638680 0.844130
vt 0.632840 0.885038
vt 0.632840 0.885038
vt 0.637220 0.854357
vt 0.635760 0.864584
vt 0.634300 0.874811
vt 0.625313 0.107468
vt 0.625313 0.107468
vt 0.625321 0.142532
vt 0.625321 0.142532
vt 0.625315 0.116234
vt 0.625315 0.116234
vt 0.625317 0.125000
vt 0.625319 0.133766
vt 0.625319 0.133766
vt 0.632831 0.364963
vt 0.632831 0.364963
vt 0.632831 0.364963
vt 0.632831 0.364963
vt 0.638689 0.405871
vt 0.638689 0.405871
vt 0.634296 0.375190
vt 0.634296 0.375190
vt 0.635760 0.385417
vt 0.635760 0.385417
vt 0.637225 0.395644
vt 0.637225 0.395644
vt 0.625313 0.607567
vt 0.625313 0.607494
vt 0.625313 0.607567
vt 0.625321 0.642507
vt 0.625321 0.642434
vt 0.625321 0.642507
vt 0.625321 0.642434
vt 0.625315 0.616234
vt 0.638664 0.844244
vt 0.638676 0.844159
vt 0.638680 0.844130
vt 0.638680 0.844130
vt 0.632840 0.885038
vt 0.632844 0.885008
vt 0.632856 0.884923
vt 0.632840 0.885038
vt 0.632840 0.885038
vt 0.632840 0.885038
vt 0.632844 0.885008
vt 0.637220 0.854357
vt 0.635760 0.864584
vt 0.635760 0.864584
vt 0.634300 0.874811
vt 0.634300 0.874811
vt 0.634300 0.874811
vt 0.634300 0.874811
vt 0.634300 0.874811
vt 0.634300 0.874811
vt 0.625313 0.107567
vt 0.625313 0.107494
vt 0.625313 0.107468
vt 0.625313 0.107567
vt 0.625313 0.107494
vt 0.625321 0.142532
vt 0.625321 0.142507
vt 0.625321 0.142434
vt 0.625315 0.116234
vt 0.625317 0.125000
vt 0.625317 0.125000
vt 0.625319 0.133766
vt 0.625319 0.133766
vt 0.632831 0.364963
vt 0.632848 0.365078
vt 0.632836 0.364993
vt 0.632831 0.364963
vt 0.632848 0.365078
vt 0.632836 0.364993
vt 0.638689 0.405871
vt 0.638685 0.405841
vt 0.638673 0.405756
vt 0.638689 0.405871
vt 0.638685 0.405841
vt 0.638673 0.405756
vt 0.634296 0.375190
vt 0.637225 0.395644
vt 0.625313 0.607448
vt 0.625313 0.607448
vt 0.625321 0.642532
vt 0.625321 0.642553
vt 0.625321 0.642532
vt 0.625321 0.642532
vt 0.625317 0.625000
vt 0.638684 0.844106
vt 0.638680 0.844130
vt 0.638680 0.844130
vt 0.638684 0.844106
vt 0.632836 0.885062
vt 0.632840 0.885038
vt 0.632840 0.885038
vt 0.632836 0.885062
vt 0.635760 0.864584
vt 0.625313 0.107448
vt 0.625313 0.107448
vt 0.625321 0.142553
vt 0.625315 0.116234
vt 0.632828 0.364939
vt 0.632831 0.364963
vt 0.632828 0.364939
vt 0.638693 0.405895
vt 0.638693 0.405895
vt 0.634296 0.375190
vt 0.635760 0.385417
vt 0.637225 0.395644
vt 0.637225 0.395644
vt 0.625313 0.607468
vt 0.625313 0.607468
vt 0.625313 0.607468
vt 0.625319 0.633766
vt 0.625321 0.642532
vt 0.625319 0.633766
vt 0.625317 0.625000
vt 0.637220 0.854357
vt 0.637220 0.854357
vt 0.632840 0.885038
vt 0.625313 0.107468
vt 0.625313 0.107468
vt 0.625313 0.107468
vt 0.625315 0.116234
vt 0.625321 0.142532
vt 0.632831 0.364963
vt 0.634296 0.375190
vt 0.638689 0.405871
vt 0.625315 0.116234
vt 0.625315 0.116234
vt 0.625321 0.142532
vt 0.625321 0.142532
vt 0.625321 0.142532
vt 0.625313 0.107468
vt 0.625313 0.107468
vt 0.634300 0.874811
vt 0.637220 0.854357
vt 0.637220 0.854357
vt 0.632840 0.885038
vt 0.632840 0.885038
vt 0.632840 0.885038
vt 0.638680 0.844130
vt 0.625317 0.625000
vt 0.625319 0.633766
vt 0.625321 0.642532
vt 0.625321 0.642532
vt 0.625321 0.642532
vt 0.625313 0.607468
vt 0.637225 0.395644
vt 0.638689 0.405871
vt 0.632831 0.364963
vt 0.632831 0.364963
vt 0.632831 0.364963
vt 0.634296 0.375190
vt 0.634296 0.375190
vt 0.638689 0.405871
vt 0.638689 0.405871
vt 0.638689 0.405871
vt 0.638690 0.405871
vt 0.635760 0.385417
vt 0.635760 0.385417
vt 0.635760 0.385417
vt 0.625313 0.607468
vt 0.625315 0.616234
vt 0.625313 0.607468
vt 0.625321 0.642532
vt 0.625321 0.642532
vt 0.625321 0.642532
vt 0.625319 0.633766
vt 0.625317 0.625000
vt 0.638680 0.844130
vt 0.638680 0.844130
vt 0.638680 0.844130
vt 0.637220 0.854357
vt 0.634300 0.874811
vt 0.632840 0.885038
vt 0.632840 0.885038
vt 0.632840 0.885038
vt 0.635760 0.864584
vt 0.625313 0.107468
vt 0.625315 0.116234
vt 0.625315 0.116234
vt 0.625313 0.107468
vt 0.625315 0.116234
vt 0.625321 0.142532
vt 0.625319 0.133766
vt 0.625321 0.142532
vt 0.625321 0.142532
vt 0.625321 0.142532
vt 0.625319 0.133766
vt 0.625317 0.125000
s 0
usemtl Material.005
f 193/1/1 194/2/1 130/2/1 129/1/1
f 194/2/2 195/2/2 131/2/2 130/2/2
f 195/2/3 196/2/3 132/2/3 131/2/3
f 196/2/4 197/2/4 133/2/4 132/2/4
f 199/3/5 198/4/5 134/4/5 135/3/5
f 200/5/6 199/3/6 135/3/6 136/5/6
f 201/6/7 200/5/7 136/5/7 137/6/7
f 202/6/8 201/6/8 137/6/8 138/6/8
f 203/7/9 193/1/9 129/1/9 139/7/9
f 197/2/10 204/8/10 140/8/10 133/2/10
f 205/9/11 203/7/11 139/7/11 141/9/11
f 204/8/12 206/10/12 142/10/12 140/8/12
f 207/11/13 205/9/13 141/9/13 143/11/13
f 206/10/14 208/12/14 144/12/14 142/10/14
f 198/4/15 207/11/15 143/11/15 134/4/15
f 208/12/16 202/6/16 138/6/16 144/12/16
f 209/13/17 210/14/17 146/14/17 145/13/17
f 210/14/18 211/14/18 147/14/18 146/14/18
f 211/14/19 212/14/19 148/14/19 147/14/19
f 212/14/20 213/15/20 149/15/20 148/14/20
f 215/16/21 214/16/21 150/16/21 151/16/21
f 216/17/22 215/16/22 151/16/22 152/17/22
f 217/17/23 216/17/23 152/17/23 153/17/23
f 218/16/24 217/17/24 153/17/24 154/16/24
f 219/18/25 209/13/25 145/13/25 155/18/25
f 213/15/26 220/18/26 156/18/26 149/15/26
f 221/19/27 219/18/27 155/18/27 157/19/27
f 220/18/28 222/19/28 158/19/28 156/18/28
f 223/20/29 221/19/29 157/19/29 159/20/29
f 222/19/30 224/20/30 160/20/30 158/19/30
f 214/16/31 223/20/31 159/20/31 150/16/31
f 224/20/32 218/16/32 154/16/32 160/20/32
f 225/21/33 226/21/33 162/21/33 161/21/33
f 226/21/34 227/22/34 163/22/34 162/21/34
f 227/22/35 228/22/35 164/22/35 163/22/35
f 228/22/36 229/21/36 165/21/36 164/22/36
f 231/23/37 230/24/37 166/24/37 167/23/37
f 232/23/38 231/23/38 167/23/38 168/23/38
f 233/24/39 232/23/39 168/23/39 169/24/39
f 234/24/40 233/24/40 169/24/40 170/24/40
f 235/25/41 225/21/41 161/21/41 171/25/41
f 229/21/42 236/26/42 172/26/42 165/21/42
f 237/27/43 235/25/43 171/25/43 173/27/43
f 236/26/44 238/27/44 174/27/44 172/26/44
f 239/28/45 237/27/45 173/27/45 175/28/45
f 238/27/46 240/29/46 176/29/46 174/27/46
f 230/24/47 239/28/47 175/28/47 166/24/47
f 240/29/48 234/24/48 170/24/48 176/29/48
f 241/30/49 242/31/49 178/31/49 177/30/49
f 242/31/50 243/32/50 179/32/50 178/31/50
f 243/32/51 244/30/51 180/30/51 179/32/51
f 244/30/52 245/33/52 181/33/52 180/30/52
f 247/34/53 246/34/53 182/34/53 183/34/53
f 248/34/54 247/34/54 183/34/54 184/34/54
f 249/34/55 248/34/55 184/34/55 185/34/55
f 250/35/56 249/34/56 185/34/56 186/35/56
f 251/36/57 241/30/57 177/30/57 187/36/57
f 245/33/58 252/37/58 188/37/58 181/33/58
f 253/38/59 251/36/59 187/36/59 189/38/59
f 252/37/60 254/39/60 190/39/60 188/37/60
f 255/40/61 253/38/61 189/38/61 191/40/61
f 254/39/62 256/41/62 192/41/62 190/39/62
f 246/34/63 255/40/63 191/40/63 182/34/63
f 256/41/64 250/35/64 186/35/64 192/41/64
f 65/1/65 66/2/65 194/2/65 193/1/65
f 66/2/65 67/2/65 195/2/65 194/2/65
f 67/2/66 68/2/66 196/2/66 195/2/66
f 68/2/65 69/2/65 197/2/65 196/2/65
f 71/3/65 70/4/65 198/4/65 199/3/65
f 72/5/66 71/3/66 199/3/66 200/5/66
f 73/6/65 72/5/65 200/5/65 201/6/65
f 74/6/65 73/6/65 201/6/65 202/6/65
f 75/7/66 65/1/66 193/1/66 203/7/66
f 69/2/65 76/8/65 204/8/65 197/2/65
f 77/9/65 75/7/65 203/7/65 205/9/65
f 76/8/65 78/10/65 206/10/65 204/8/65
f 79/11/65 77/9/65 205/9/65 207/11/65
f 78/10/65 80/12/65 208/12/65 206/10/65
f 70/4/65 79/11/65 207/11/65 198/4/65
f 80/12/66 74/6/66 202/6/66 208/12/66
f 81/13/67 82/14/67 210/14/67 209/13/67
f 82/14/68 83/14/68 211/14/68 210/14/68
f 83/14/68 84/14/68 212/14/68 211/14/68
f 84/14/68 85/15/68 213/15/68 212/14/68
f 87/16/68 86/16/68 214/16/68 215/16/68
f 88/17/68 87/16/68 215/16/68 216/17/68
f 89/17/67 88/17/67 216/17/67 217/17/67
f 90/16/67 89/17/67 217/17/67 218/16/67
f 91/18/68 81/13/68 209/13/68 219/18/68
f 85/15/67 92/18/67 220/18/67 213/15/67
f 93/19/67 91/18/67 219/18/67 221/19/67
f 92/18/67 94/19/67 222/19/67 220/18/67
f 95/20/68 93/19/68 221/19/68 223/20/68
f 94/19/68 96/20/68 224/20/68 222/19/68
f 86/16/67 95/20/67 223/20/67 214/16/67
f 96/20/68 90/16/68 218/16/68 224/20/68
f 97/21/69 98/21/69 226/21/69 225/21/69
f 98/21/69 99/22/69 227/22/69 226/21/69
f 99/22/70 100/22/70 228/22/70 227/22/70
f 100/22/69 101/21/69 229/21/69 228/22/69
f 103/23/69 102/24/69 230/24/69 231/23/69
f 104/23/70 103/23/70 231/23/70 232/23/70
f 105/24/69 104/23/69 232/23/69 233/24/69
f 106/24/69 105/24/69 233/24/69 234/24/69
f 107/25/70 97/21/70 225/21/70 235/25/70
f 101/21/69 108/26/69 236/26/69 229/21/69
f 109/27/69 107/25/69 235/25/69 237/27/69
f 108/26/69 110/27/69 238/27/69 236/26/69
f 111/28/69 109/27/69 237/27/69 239/28/69
f 110/27/69 112/29/69 240/29/69 238/27/69
f 102/24/69 111/28/69 239/28/69 230/24/69
f 112/29/70 106/24/70 234/24/70 240/29/70
f 113/30/71 114/31/71 242/31/71 241/30/71
f 114/31/71 115/32/71 243/32/71 242/31/71
f 115/32/72 116/30/72 244/30/72 243/32/72
f 116/30/72 117/33/72 245/33/72 244/30/72
f 119/34/72 118/34/72 246/34/72 247/34/72
f 120/34/72 119/34/72 247/34/72 248/34/72
f 121/34/71 120/34/71 248/34/71 249/34/71
f 122/35/71 121/34/71 249/34/71 250/35/71
f 123/36/72 113/30/72 241/30/72 251/36/72
f 117/33/71 124/37/71 252/37/71 245/33/71
f 125/38/72 123/36/72 251/36/72 253/38/72
f 124/37/72 126/39/72 254/39/72 252/37/72
f 127/40/72 125/38/72 253/38/72 255/40/72
f 126/39/72 128/41/72 256/41/72 254/39/72
f 118/34/71 127/40/71 255/40/71 246/34/71
f 128/41/72 122/35/72 250/35/72 256/41/72
f 258/1/73 262/2/73 264/2/73 261/1/73
f 261/1/74 264/2/74 265/2/74 260/42/74
f 260/42/75 265/2/75 266/2/75 259/43/75
f 259/43/76 266/2/76 263/2/76 257/1/76
f 262/2/77 267/2/77 269/2/77 264/2/77
f 264/2/78 269/2/78 270/2/78 265/2/78
f 265/2/79 270/2/79 271/2/79 266/2/79
f 266/2/80 271/2/80 268/2/80 263/2/80
f 267/2/81 272/2/81 274/2/81 269/2/81
f 269/2/82 274/2/82 275/2/82 270/2/82
f 270/2/83 275/2/83 276/2/83 271/2/83
f 271/2/84 276/2/84 273/2/84 268/2/84
f 272/2/85 277/2/85 279/2/85 274/2/85
f 274/2/86 279/2/86 280/44/86 275/2/86
f 275/2/87 280/44/87 281/43/87 276/2/87
f 276/2/88 281/43/88 278/2/88 273/2/88
f 283/4/89 287/3/89 289/3/89 286/45/89
f 286/45/90 289/3/90 290/3/90 285/46/90
f 285/46/91 290/3/91 291/4/91 284/4/91
f 284/4/92 291/4/92 288/3/92 282/4/92
f 287/3/93 292/6/93 294/5/93 289/3/93
f 289/3/94 294/5/94 295/5/94 290/3/94
f 290/3/95 295/5/95 296/5/95 291/4/95
f 291/4/96 296/5/96 293/5/96 288/3/96
f 292/6/97 297/6/97 299/6/97 294/5/97
f 294/5/98 299/6/98 300/6/98 295/5/98
f 295/5/99 300/6/99 301/6/99 296/5/99
f 296/5/100 301/6/100 298/6/100 293/5/100
f 297/6/101 302/6/101 304/47/101 299/6/101
f 299/6/102 304/47/102 305/48/102 300/6/102
f 300/6/103 305/48/103 306/6/103 301/6/103
f 301/6/104 306/6/104 303/6/104 298/6/104
f 308/7/105 258/1/105 261/1/105 311/7/105
f 311/7/106 261/1/106 260/42/106 310/8/106
f 310/8/107 260/42/107 259/43/107 309/49/107
f 309/49/108 259/43/108 257/1/108 307/7/108
f 313/8/109 278/2/109 281/43/109 316/8/109
f 316/8/110 281/43/110 280/44/110 315/8/110
f 315/8/111 280/44/111 279/2/111 314/8/111
f 314/8/112 279/2/112 277/2/112 312/8/112
f 318/9/113 308/7/113 311/7/113 321/9/113
f 321/9/114 311/7/114 310/8/114 320/9/114
f 320/9/115 310/8/115 309/49/115 319/9/115
f 319/9/116 309/49/116 307/7/116 317/9/116
f 323/10/117 313/8/117 316/8/117 326/10/117
f 326/10/118 316/8/118 315/8/118 325/10/118
f 325/10/119 315/8/119 314/8/119 324/9/119
f 324/9/120 314/8/120 312/8/120 322/10/120
f 328/11/121 318/9/121 321/9/121 331/11/121
f 331/11/122 321/9/122 320/9/122 330/11/122
f 330/11/123 320/9/123 319/9/123 329/11/123
f 329/11/124 319/9/124 317/9/124 327/11/124
f 333/12/125 323/10/125 326/10/125 336/11/125
f 336/11/126 326/10/126 325/10/126 335/12/126
f 335/12/127 325/10/127 324/9/127 334/12/127
f 334/12/128 324/9/128 322/10/128 332/12/128
f 282/4/129 328/11/129 331/11/129 284/4/129
f 284/4/130 331/11/130 330/11/130 285/46/130
f 285/46/131 330/11/131 329/11/131 286/45/131
f 286/45/132 329/11/132 327/11/132 283/4/132
f 302/6/133 333/12/133 336/11/133 304/47/133
f 304/47/134 336/11/134 335/12/134 305/48/134
f 305/48/135 335/12/135 334/12/135 306/6/135
f 306/6/136 334/12/136 332/12/136 303/6/136
f 338/13/137 342/14/137 344/14/137 341/13/137
f 341/13/138 344/14/138 345/13/138 340/50/138
f 340/50/139 345/13/139 346/13/139 339/51/139
f 339/51/140 346/13/140 343/13/140 337/13/140
f 342/14/141 347/14/141 349/14/141 344/14/141
f 344/14/142 349/14/142 350/14/142 345/13/142
f 345/13/143 350/14/143 351/13/143 346/13/143
f 346/13/144 351/13/144 348/14/144 343/13/144
f 347/14/145 352/14/145 354/14/145 349/14/145
f 349/14/146 354/14/146 355/14/146 350/14/146
f 350/14/147 355/14/147 356/52/147 351/13/147
f 351/13/148 356/52/148 353/14/148 348/14/148
f 352/14/149 357/53/149 359/13/149 354/14/149
f 354/14/150 359/13/150 360/50/150 355/14/150
f 355/14/151 360/50/151 361/51/151 356/52/151
f 356/52/152 361/51/152 358/15/152 353/14/152
f 363/16/153 367/16/153 369/54/153 366/55/153
f 366/55/154 369/54/154 370/16/154 365/56/154
f 365/56/155 370/16/155 371/54/155 364/16/155
f 364/16/156 371/54/156 368/57/156 362/54/156
f 367/16/157 372/58/157 374/59/157 369/54/157
f 369/54/158 374/59/158 375/17/158 370/16/158
f 370/16/159 375/17/159 376/17/159 371/54/159
f 371/54/160 376/17/160 373/17/160 368/57/160
f 372/58/161 377/58/161 379/57/161 374/59/161
f 374/59/162 379/57/162 380/17/162 375/17/162
f 375/17/163 380/17/163 381/17/163 376/17/163
f 376/17/164 381/17/164 378/59/164 373/17/164
f 377/58/165 382/16/165 384/60/165 379/57/165
f 379/57/166 384/60/166 385/56/166 380/17/166
f 380/17/167 385/56/167 386/16/167 381/17/167
f 381/17/168 386/16/168 383/16/168 378/59/168
f 388/18/169 338/13/169 341/13/169 391/18/169
f 391/18/170 341/13/170 340/50/170 390/18/170
f 390/18/171 340/50/171 339/51/171 389/18/171
f 389/18/172 339/51/172 337/13/172 387/18/172
f 393/18/173 358/15/173 361/51/173 396/61/173
f 396/61/174 361/51/174 360/50/174 395/18/174
f 395/18/175 360/50/175 359/13/175 394/18/175
f 394/18/176 359/13/176 357/53/176 392/18/176
f 398/19/177 388/18/177 391/18/177 401/19/177
f 401/19/178 391/18/178 390/18/178 400/62/178
f 400/62/179 390/18/179 389/18/179 399/63/179
f 399/63/180 389/18/180 387/18/180 397/19/180
f 403/19/181 393/18/181 396/61/181 406/62/181
f 406/62/182 396/61/182 395/18/182 405/62/182
f 405/62/183 395/18/183 394/18/183 404/19/183
f 404/19/184 394/18/184 392/18/184 402/19/184
f 408/64/185 398/19/185 401/19/185 411/65/185
f 411/65/186 401/19/186 400/62/186 410/20/186
f 410/20/187 400/62/187 399/63/187 409/66/187
f 409/66/188 399/63/188 397/19/188 407/67/188
f 413/64/189 403/19/189 406/62/189 416/65/189
f 416/65/190 406/62/190 405/62/190 415/20/190
f 415/20/191 405/62/191 404/19/191 414/68/191
f 414/68/192 404/19/192 402/19/192 412/69/192
f 362/54/193 408/64/193 411/65/193 364/16/193
f 364/16/194 411/65/194 410/20/194 365/56/194
f 365/56/195 410/20/195 409/66/195 366/55/195
f 366/55/196 409/66/196 407/67/196 363/16/196
f 382/16/197 413/64/197 416/65/197 384/60/197
f 384/60/198 416/65/198 415/20/198 385/56/198
f 385/56/199 415/20/199 414/68/199 386/16/199
f 386/16/200 414/68/200 412/69/200 383/16/200
f 418/21/201 422/21/201 424/21/201 421/21/201
f 421/21/202 424/21/202 425/21/202 420/70/202
f 420/70/203 425/21/203 426/21/203 419/71/203
f 419/71/204 426/21/204 423/21/204 417/21/204
f 422/21/205 427/72/205 429/21/205 424/21/205
f 424/21/206 429/21/206 430/22/206 425/21/206
f 425/21/207 430/22/207 431/22/207 426/21/207
f 426/21/208 431/22/208 428/22/208 423/21/208
f 427/72/209 432/21/209 434/72/209 429/21/209
f 429/21/210 434/72/210 435/22/210 430/22/210
f 430/22/211 435/22/211 436/22/211 431/22/211
f 431/22/212 436/22/212 433/22/212 428/22/212
f 432/21/213 437/21/213 439/21/213 434/72/213
f 434/72/214 439/21/214 440/73/214 435/22/214
f 435/22/215 440/73/215 441/74/215 436/22/215
f 436/22/216 441/74/216 438/21/216 433/22/216
f 443/24/217 447/23/217 449/75/217 446/76/217
f 446/76/218 449/75/218 450/23/218 445/77/218
f 445/77/219 450/23/219 451/23/219 444/24/219
f 444/24/220 451/23/220 448/23/220 442/24/220
f 447/23/221 452/24/221 454/24/221 449/75/221
f 449/75/222 454/24/222 455/23/222 450/23/222
f 450/23/223 455/23/223 456/24/223 451/23/223
f 451/23/224 456/24/224 453/23/224 448/23/224
f 452/24/225 457/24/225 459/24/225 454/24/225
f 454/24/226 459/24/226 460/24/226 455/23/226
f 455/23/227 460/24/227 461/24/227 456/24/227
f 456/24/228 461/24/228 458/24/228 453/23/228
f 457/24/229 462/24/229 464/76/229 459/24/229
f 459/24/230 464/76/230 465/77/230 460/24/230
f 460/24/231 465/77/231 466/24/231 461/24/231
f 461/24/232 466/24/232 463/24/232 458/24/232
f 468/25/233 418/21/233 421/21/233 471/25/233
f 471/25/234 421/21/234 420/70/234 470/25/234
f 470/25/235 420/70/235 419/71/235 469/25/235
f 469/25/236 419/71/236 417/21/236 467/78/236
f 473/26/237 438/21/237 441/74/237 476/25/237
f 476/25/238 441/74/238 440/73/238 475/26/238
f 475/26/239 440/73/239 439/21/239 474/26/239
f 474/26/240 439/21/240 437/21/240 472/26/240
f 478/27/241 468/25/241 471/25/241 481/27/241
f 481/27/242 471/25/242 470/25/242 480/27/242
f 480/27/243 470/25/243 469/25/243 479/79/243
f 479/79/244 469/25/244 467/78/244 477/27/244
f 483/27/245 473/26/245 476/25/245 486/80/245
f 486/80/246 476/25/246 475/26/246 485/27/246
f 485/27/247 475/26/247 474/26/247 484/27/247
f 484/27/248 474/26/248 472/26/248 482/27/248
f 488/28/249 478/27/249 481/27/249 491/81/249
f 491/81/250 481/27/250 480/27/250 490/28/250
f 490/28/251 480/27/251 479/79/251 489/28/251
f 489/28/252 479/79/252 477/27/252 487/28/252
f 493/29/253 483/27/253 486/80/253 496/28/253
f 496/28/254 486/80/254 485/27/254 495/82/254
f 495/82/255 485/27/255 484/27/255 494/29/255
f 494/29/256 484/27/256 482/27/256 492/29/256
f 442/24/257 488/28/257 491/81/257 444/24/257
f 444/24/258 491/81/258 490/28/258 445/77/258
f 445/77/259 490/28/259 489/28/259 446/76/259
f 446/76/260 489/28/260 487/28/260 443/24/260
f 462/24/261 493/29/261 496/28/261 464/76/261
f 464/76/262 496/28/262 495/82/262 465/77/262
f 465/77/263 495/82/263 494/29/263 466/24/263
f 466/24/264 494/29/264 492/29/264 463/24/264
f 498/33/265 502/31/265 504/83/265 501/30/265
f 501/30/266 504/83/266 505/33/266 500/84/266
f 500/84/267 505/33/267 506/31/267 499/85/267
f 499/85/268 506/31/268 503/31/268 497/30/268
f 502/31/269 507/32/269 509/32/269 504/83/269
f 504/83/270 509/32/270 510/86/270 505/33/270
f 505/33/271 510/86/271 511/32/271 506/31/271
f 506/31/272 511/32/272 508/32/272 503/31/272
f 507/32/273 512/30/273 514/30/273 509/32/273
f 509/32/274 514/30/274 515/30/274 510/86/274
f 510/86/275 515/30/275 516/33/275 511/32/275
f 511/32/276 516/33/276 513/30/276 508/32/276
f 512/30/277 517/33/277 519/33/277 514/30/277
f 514/30/278 519/33/278 520/87/278 515/30/278
f 515/30/279 520/87/279 521/88/279 516/33/279
f 516/33/280 521/88/280 518/33/280 513/30/280
f 523/34/281 527/34/281 529/89/281 526/90/281
f 526/90/282 529/89/282 530/34/282 525/91/282
f 525/91/283 530/34/283 531/34/283 524/89/283
f 524/89/284 531/34/284 528/92/284 522/34/284
f 527/34/285 532/34/285 534/89/285 529/89/285
f 529/89/286 534/89/286 535/34/286 530/34/286
f 530/34/287 535/34/287 536/89/287 531/34/287
f 531/34/288 536/89/288 533/34/288 528/92/288
f 532/34/289 537/34/289 539/34/289 534/89/289
f 534/89/290 539/34/290 540/34/290 535/34/290
f 535/34/291 540/34/291 541/34/291 536/89/291
f 536/89/292 541/34/292 538/34/292 533/34/292
f 537/34/293 542/35/293 544/93/293 539/34/293
f 539/34/294 544/93/294 545/94/294 540/34/294
f 540/34/295 545/94/295 546/35/295 541/34/295
f 541/34/296 546/35/296 543/35/296 538/34/296
f 548/36/297 498/33/297 501/30/297 551/36/297
f 551/36/298 501/30/298 500/84/298 550/36/298
f 550/36/299 500/84/299 499/85/299 549/95/299
f 549/95/300 499/85/300 497/30/300 547/36/300
f 553/37/301 518/33/301 521/88/301 556/37/301
f 556/37/302 521/88/302 520/87/302 555/37/302
f 555/37/303 520/87/303 519/33/303 554/37/303
f 554/37/304 519/33/304 517/33/304 552/37/304
f 558/38/305 548/36/305 551/36/305 561/38/305
f 561/38/306 551/36/306 550/36/306 560/38/306
f 560/38/307 550/36/307 549/95/307 559/38/307
f 559/38/308 549/95/308 547/36/308 557/38/308
f 563/39/309 553/37/309 556/37/309 566/39/309
f 566/39/310 556/37/310 555/37/310 565/39/310
f 565/39/311 555/37/311 554/37/311 564/39/311
f 564/39/312 554/37/312 552/37/312 562/39/312
f 568/40/313 558/38/313 561/38/313 571/40/313
f 571/40/314 561/38/314 560/38/314 570/40/314
f 570/40/315 560/38/315 559/38/315 569/40/315
f 569/40/316 559/38/316 557/38/316 567/40/316
f 573/40/317 563/39/317 566/39/317 576/96/317
f 576/96/318 566/39/318 565/39/318 575/41/318
f 575/41/319 565/39/319 564/39/319 574/96/319
f 574/96/320 564/39/320 562/39/320 572/41/320
f 522/34/321 568/40/321 571/40/321 524/89/321
f 524/89/322 571/40/322 570/40/322 525/91/322
f 525/91/323 570/40/323 569/40/323 526/90/323
f 526/90/324 569/40/324 567/40/324 523/34/324
f 542/35/325 573/40/325 576/96/325 544/93/325
f 544/93/326 576/96/326 575/41/326 545/94/326
f 545/94/327 575/41/327 574/96/327 546/35/327
f 546/35/328 574/96/328 572/41/328 543/35/328
f 129/1/65 130/2/65 262/2/65 258/1/65
f 139/7/65 129/1/65 258/1/65 308/7/65
f 130/2/65 131/2/65 267/2/65 262/2/65
f 131/2/65 132/2/65 272/2/65 267/2/65
f 132/2/65 133/2/65 277/2/65 272/2/65
f 133/2/65 140/8/65 312/8/65 277/2/65
f 135/3/65 134/4/65 282/4/65 288/3/65
f 134/4/65 143/11/65 328/11/65 282/4/65
f 136/5/66 135/3/66 288/3/66 293/5/66
f 137/6/65 136/5/65 293/5/65 298/6/65
f 138/6/65 137/6/65 298/6/65 303/6/65
f 144/12/65 138/6/65 303/6/65 332/12/65
f 141/9/65 139/7/65 308/7/65 318/9/65
f 140/8/66 142/10/66 322/10/66 312/8/66
f 143/11/66 141/9/66 318/9/66 328/11/66
f 142/10/65 144/12/65 332/12/65 322/10/65
f 145/13/67 146/14/67 342/14/67 338/13/67
f 155/18/68 145/13/68 338/13/68 388/18/68
f 146/14/68 147/14/68 347/14/68 342/14/68
f 147/14/67 148/14/67 352/14/67 347/14/67
f 148/14/68 149/15/68 357/53/68 352/14/68
f 149/15/68 156/18/68 392/18/68 357/53/68
f 151/16/68 150/16/68 362/54/68 368/57/68
f 150/16/68 159/20/68 408/64/68 362/54/68
f 152/17/68 151/16/68 368/57/68 373/17/68
f 153/17/68 152/17/68 373/17/68 378/59/68
f 154/16/68 153/17/68 378/59/68 383/16/68
f 160/20/68 154/16/68 383/16/68 412/69/68
f 157/19/68 155/18/68 388/18/68 398/19/68
f 156/18/68 158/19/68 402/19/68 392/18/68
f 159/20/67 157/19/67 398/19/67 408/64/67
f 158/19/67 160/20/67 412/69/67 402/19/67
f 161/21/69 162/21/69 422/21/69 418/21/69
f 171/25/69 161/21/69 418/21/69 468/25/69
f 162/21/69 163/22/69 427/72/69 422/21/69
f 163/22/69 164/22/69 432/21/69 427/72/69
f 164/22/69 165/21/69 437/21/69 432/21/69
f 165/21/69 172/26/69 472/26/69 437/21/69
f 167/23/69 166/24/69 442/24/69 448/23/69
f 166/24/69 175/28/69 488/28/69 442/24/69
f 168/23/70 167/23/70 448/23/70 453/23/70
f 169/24/69 168/23/69 453/23/69 458/24/69
f 170/24/69 169/24/69 458/24/69 463/24/69
f 176/29/69 170/24/69 463/24/69 492/29/69
f 173/27/69 171/25/69 468/25/69 478/27/69
f 172/26/70 174/27/70 482/27/70 472/26/70
f 175/28/70 173/27/70 478/27/70 488/28/70
f 174/27/69 176/29/69 492/29/69 482/27/69
f 177/30/71 178/31/71 502/31/71 498/33/71
f 187/36/72 177/30/72 498/33/72 548/36/72
f 178/31/72 179/32/72 507/32/72 502/31/72
f 179/32/71 180/30/71 512/30/71 507/32/71
f 180/30/72 181/33/72 517/33/72 512/30/72
f 181/33/72 188/37/72 552/37/72 517/33/72
f 183/34/72 182/34/72 522/34/72 528/92/72
f 182/34/72 191/40/72 568/40/72 522/34/72
f 184/34/71 183/34/71 528/92/71 533/34/71
f 185/34/72 184/34/72 533/34/72 538/34/72
f 186/35/72 185/34/72 538/34/72 543/35/72
f 192/41/72 186/35/72 543/35/72 572/41/72
f 189/38/72 187/36/72 548/36/72 558/38/72
f 188/37/72 190/39/72 562/39/72 552/37/72
f 191/40/71 189/38/71 558/38/71 568/40/71
f 190/39/72 192/41/72 572/41/72 562/39/72
f 578/1/76 582/2/76 584/2/76 581/97/76
f 581/97/75 584/2/75 585/2/75 580/1/75
f 580/1/74 585/2/74 586/2/74 579/1/74
f 579/1/73 586/2/73 583/2/73 577/1/73
f 582/2/80 587/2/80 589/2/80 584/2/80
f 584/2/79 589/2/79 590/2/79 585/2/79
f 585/2/78 590/2/78 591/2/78 586/2/78
f 586/2/77 591/2/77 588/2/77 583/2/77
f 587/2/84 592/2/84 594/2/84 589/2/84
f 589/2/329 594/2/329 595/2/329 590/2/329
f 590/2/330 595/2/330 596/2/330 591/2/330
f 591/2/331 596/2/331 593/2/331 588/2/331
f 592/2/88 597/2/88 599/98/88 594/2/88
f 594/2/87 599/98/87 600/2/87 595/2/87
f 595/2/86 600/2/86 601/2/86 596/2/86
f 596/2/85 601/2/85 598/2/85 593/2/85
f 603/4/92 607/3/92 609/99/92 606/4/92
f 606/4/332 609/99/332 610/3/332 605/4/332
f 605/4/90 610/3/90 611/3/90 604/100/90
f 604/100/89 611/3/89 608/5/89 602/4/89
f 607/3/96 612/5/96 614/5/96 609/99/96
f 609/99/95 614/5/95 615/5/95 610/3/95
f 610/3/94 615/5/94 616/101/94 611/3/94
f 611/3/93 616/101/93 613/102/93 608/5/93
f 612/5/100 617/6/100 619/6/100 614/5/100
f 614/5/99 619/6/99 620/6/99 615/5/99
f 615/5/98 620/6/98 621/6/98 616/101/98
f 616/101/97 621/6/97 618/6/97 613/102/97
f 617/6/104 622/6/104 624/6/104 619/6/104
f 619/6/103 624/6/103 625/6/103 620/6/103
f 620/6/102 625/6/102 626/100/102 621/6/102
f 621/6/101 626/100/101 623/6/101 618/6/101
f 628/7/108 578/1/108 581/97/108 631/7/108
f 631/7/107 581/97/107 580/1/107 630/7/107
f 630/7/106 580/1/106 579/1/106 629/49/106
f 629/49/105 579/1/105 577/1/105 627/7/105
f 633/8/112 598/2/112 601/2/112 636/8/112
f 636/8/111 601/2/111 600/2/111 635/8/111
f 635/8/110 600/2/110 599/98/110 634/8/110
f 634/8/109 599/98/109 597/2/109 632/8/109
f 638/9/116 628/7/116 631/7/116 641/9/116
f 641/9/115 631/7/115 630/7/115 640/9/115
f 640/9/114 630/7/114 629/49/114 639/9/114
f 639/9/113 629/49/113 627/7/113 637/9/113
f 643/10/120 633/8/120 636/8/120 646/10/120
f 646/10/119 636/8/119 635/8/119 645/10/119
f 645/10/118 635/8/118 634/8/118 644/103/118
f 644/103/117 634/8/117 632/8/117 642/103/117
f 648/11/124 638/9/124 641/9/124 651/11/124
f 651/11/333 641/9/333 640/9/333 650/11/333
f 650/11/122 640/9/122 639/9/122 649/11/122
f 649/11/121 639/9/121 637/9/121 647/11/121
f 653/12/128 643/10/128 646/10/128 656/12/128
f 656/12/127 646/10/127 645/10/127 655/12/127
f 655/12/126 645/10/126 644/103/126 654/11/126
f 654/11/125 644/103/125 642/103/125 652/12/125
f 602/4/132 648/11/132 651/11/132 604/100/132
f 604/100/131 651/11/131 650/11/131 605/4/131
f 605/4/130 650/11/130 649/11/130 606/4/130
f 606/4/129 649/11/129 647/11/129 603/4/129
f 622/6/136 653/12/136 656/12/136 624/6/136
f 624/6/135 656/12/135 655/12/135 625/6/135
f 625/6/134 655/12/134 654/11/134 626/100/134
f 626/100/133 654/11/133 652/12/133 623/6/133
f 658/13/140 662/14/140 664/52/140 661/104/140
f 661/104/139 664/52/139 665/14/139 660/13/139
f 660/13/334 665/14/334 666/14/334 659/13/334
f 659/13/335 666/14/335 663/13/335 657/105/335
f 662/14/144 667/13/144 669/14/144 664/52/144
f 664/52/143 669/14/143 670/14/143 665/14/143
f 665/14/142 670/14/142 671/14/142 666/14/142
f 666/14/141 671/14/141 668/14/141 663/13/141
f 667/13/148 672/14/148 674/14/148 669/14/148
f 669/14/147 674/14/147 675/14/147 670/14/147
f 670/14/146 675/14/146 676/106/146 671/14/146
f 671/14/145 676/106/145 673/14/145 668/14/145
f 672/14/152 677/15/152 679/107/152 674/14/152
f 674/14/151 679/107/151 680/15/151 675/14/151
f 675/14/150 680/15/150 681/13/150 676/106/150
f 676/106/336 681/13/336 678/53/336 673/14/336
f 683/54/156 687/54/156 689/16/156 686/54/156
f 686/54/155 689/16/155 690/16/155 685/16/155
f 685/16/154 690/16/154 691/57/154 684/108/154
f 684/108/153 691/57/153 688/16/153 682/57/153
f 687/54/160 692/58/160 694/109/160 689/16/160
f 689/16/159 694/109/159 695/17/159 690/16/159
f 690/16/158 695/17/158 696/59/158 691/57/158
f 691/57/157 696/59/157 693/58/157 688/16/157
f 692/58/164 697/16/164 699/110/164 694/109/164
f 694/109/163 699/110/163 700/17/163 695/17/163
f 695/17/162 700/17/162 701/17/162 696/59/162
f 696/59/161 701/17/161 698/110/161 693/58/161
f 697/16/168 702/16/168 704/16/168 699/110/168
f 699/110/167 704/16/167 705/16/167 700/17/167
f 700/17/166 705/16/166 706/111/166 701/17/166
f 701/17/165 706/111/165 703/16/165 698/110/165
f 708/18/172 658/13/172 661/104/172 711/18/172
f 711/18/171 661/104/171 660/13/171 710/18/171
f 710/18/170 660/13/170 659/13/170 709/18/170
f 709/18/169 659/13/169 657/105/169 707/18/169
f 713/18/176 678/53/176 681/13/176 716/18/176
f 716/18/175 681/13/175 680/15/175 715/18/175
f 715/18/174 680/15/174 679/107/174 714/18/174
f 714/18/337 679/107/337 677/15/337 712/18/337
f 718/19/180 708/18/180 711/18/180 721/19/180
f 721/19/179 711/18/179 710/18/179 720/19/179
f 720/19/178 710/18/178 709/18/178 719/19/178
f 719/19/338 709/18/338 707/18/338 717/19/338
f 723/19/339 713/18/339 716/18/339 726/62/339
f 726/62/183 716/18/183 715/18/183 725/19/183
f 725/19/182 715/18/182 714/18/182 724/112/182
f 724/112/181 714/18/181 712/18/181 722/19/181
f 728/67/188 718/19/188 721/19/188 731/69/188
f 731/69/340 721/19/340 720/19/340 730/20/340
f 730/20/186 720/19/186 719/19/186 729/20/186
f 729/20/185 719/19/185 717/19/185 727/69/185
f 733/66/341 723/19/341 726/62/341 736/69/341
f 736/69/191 726/62/191 725/19/191 735/20/191
f 735/20/190 725/19/190 724/112/190 734/67/190
f 734/67/189 724/112/189 722/19/189 732/20/189
f 682/57/196 728/67/196 731/69/196 684/108/196
f 684/108/195 731/69/195 730/20/195 685/16/195
f 685/16/194 730/20/194 729/20/194 686/54/194
f 686/54/193 729/20/193 727/69/193 683/54/193
f 702/16/200 733/66/200 736/69/200 704/16/200
f 704/16/199 736/69/199 735/20/199 705/16/199
f 705/16/198 735/20/198 734/67/198 706/111/198
f 706/111/197 734/67/197 732/20/197 703/16/197
f 738/21/204 742/21/204 744/21/204 741/113/204
f 741/113/203 744/21/203 745/21/203 740/21/203
f 740/21/202 745/21/202 746/21/202 739/21/202
f 739/21/201 746/21/201 743/21/201 737/21/201
f 742/21/208 747/72/208 749/21/208 744/21/208
f 744/21/207 749/21/207 750/22/207 745/21/207
f 745/21/206 750/22/206 751/22/206 746/21/206
f 746/21/205 751/22/205 748/22/205 743/21/205
f 747/72/212 752/22/212 754/22/212 749/21/212
f 749/21/342 754/22/342 755/22/342 750/22/342
f 750/22/343 755/22/343 756/72/343 751/22/343
f 751/22/344 756/72/344 753/21/344 748/22/344
f 752/22/216 757/21/216 759/114/216 754/22/216
f 754/22/215 759/114/215 760/21/215 755/22/215
f 755/22/214 760/21/214 761/21/214 756/72/214
f 756/72/213 761/21/213 758/21/213 753/21/213
f 763/24/220 767/23/220 769/75/220 766/24/220
f 766/24/219 769/75/219 770/23/219 765/24/219
f 765/24/218 770/23/218 771/75/218 764/115/218
f 764/115/217 771/75/217 768/23/217 762/24/217
f 767/23/224 772/23/224 774/23/224 769/75/224
f 769/75/345 774/23/345 775/23/345 770/23/345
f 770/23/222 775/23/222 776/24/222 771/75/222
f 771/75/221 776/24/221 773/23/221 768/23/221
f 772/23/228 777/24/228 779/24/228 774/23/228
f 774/23/227 779/24/227 780/24/227 775/23/227
f 775/23/226 780/24/226 781/24/226 776/24/226
f 776/24/225 781/24/225 778/24/225 773/23/225
f 777/24/232 782/24/232 784/24/232 779/24/232
f 779/24/231 784/24/231 785/24/231 780/24/231
f 780/24/230 785/24/230 786/115/230 781/24/230
f 781/24/229 786/115/229 783/24/229 778/24/229
f 788/25/236 738/21/236 741/113/236 791/116/236
f 791/116/235 741/113/235 740/21/235 790/25/235
f 790/25/234 740/21/234 739/21/234 789/26/234
f 789/26/233 739/21/233 737/21/233 787/25/233
f 793/26/240 758/21/240 761/21/240 796/26/240
f 796/26/346 761/21/346 760/21/346 795/26/346
f 795/26/238 760/21/238 759/114/238 794/26/238
f 794/26/237 759/114/237 757/21/237 792/26/237
f 798/27/244 788/25/244 791/116/244 801/27/244
f 801/27/243 791/116/243 790/25/243 800/27/243
f 800/27/347 790/25/347 789/26/347 799/27/347
f 799/27/241 789/26/241 787/25/241 797/27/241
f 803/27/248 793/26/248 796/26/248 806/27/248
f 806/27/247 796/26/247 795/26/247 805/27/247
f 805/27/246 795/26/246 794/26/246 804/27/246
f 804/27/245 794/26/245 792/26/245 802/27/245
f 808/28/252 798/27/252 801/27/252 811/81/252
f 811/81/251 801/27/251 800/27/251 810/28/251
f 810/28/250 800/27/250 799/27/250 809/28/250
f 809/28/249 799/27/249 797/27/249 807/28/249
f 813/29/256 803/27/256 806/27/256 816/29/256
f 816/29/348 806/27/348 805/27/348 815/29/348
f 815/29/254 805/27/254 804/27/254 814/29/254
f 814/29/349 804/27/349 802/27/349 812/29/349
f 762/24/260 808/28/260 811/81/260 764/115/260
f 764/115/350 811/81/350 810/28/350 765/24/350
f 765/24/258 810/28/258 809/28/258 766/24/258
f 766/24/257 809/28/257 807/28/257 763/24/257
f 782/24/264 813/29/264 816/29/264 784/24/264
f 784/24/263 816/29/263 815/29/263 785/24/263
f 785/24/262 815/29/262 814/29/262 786/115/262
f 786/115/261 814/29/261 812/29/261 783/24/261
f 818/30/268 822/31/268 824/31/268 821/117/268
f 821/117/267 824/31/267 825/31/267 820/30/267
f 820/30/351 825/31/351 826/31/351 819/30/351
f 819/30/352 826/31/352 823/31/352 817/30/352
f 822/31/272 827/32/272 829/118/272 824/31/272
f 824/31/271 829/118/271 830/32/271 825/31/271
f 825/31/270 830/32/270 831/32/270 826/31/270
f 826/31/269 831/32/269 828/32/269 823/31/269
f 827/32/276 832/30/276 834/30/276 829/118/276
f 829/118/275 834/30/275 835/30/275 830/32/275
f 830/32/274 835/30/274 836/30/274 831/32/274
f 831/32/273 836/30/273 833/30/273 828/32/273
f 832/30/280 837/33/280 839/119/280 834/30/280
f 834/30/279 839/119/279 840/33/279 835/30/279
f 835/30/278 840/33/278 841/33/278 836/30/278
f 836/30/277 841/33/277 838/33/277 833/30/277
f 843/89/284 847/92/284 849/89/284 846/89/284
f 846/89/353 849/89/353 850/34/353 845/34/353
f 845/34/282 850/34/282 851/34/282 844/120/282
f 844/120/281 851/34/281 848/34/281 842/92/281
f 847/92/288 852/92/288 854/34/288 849/89/288
f 849/89/287 854/34/287 855/34/287 850/34/287
f 850/34/286 855/34/286 856/34/286 851/34/286
f 851/34/285 856/34/285 853/34/285 848/34/285
f 852/92/292 857/34/292 859/89/292 854/34/292
f 854/34/291 859/89/291 860/34/291 855/34/291
f 855/34/290 860/34/290 861/34/290 856/34/290
f 856/34/289 861/34/289 858/34/289 853/34/289
f 857/34/296 862/35/296 864/35/296 859/89/296
f 859/89/295 864/35/295 865/35/295 860/34/295
f 860/34/294 865/35/294 866/121/294 861/34/294
f 861/34/293 866/121/293 863/35/293 858/34/293
f 868/36/300 818/30/300 821/117/300 871/122/300
f 871/122/299 821/117/299 820/30/299 870/36/299
f 870/36/298 820/30/298 819/30/298 869/95/298
f 869/95/297 819/30/297 817/30/297 867/36/297
f 873/37/304 838/33/304 841/33/304 876/37/304
f 876/37/303 841/33/303 840/33/303 875/37/303
f 875/37/302 840/33/302 839/119/302 874/37/302
f 874/37/301 839/119/301 837/33/301 872/37/301
f 878/38/308 868/36/308 871/122/308 881/39/308
f 881/39/307 871/122/307 870/36/307 880/38/307
f 880/38/306 870/36/306 869/95/306 879/38/306
f 879/38/305 869/95/305 867/36/305 877/38/305
f 883/123/354 873/37/354 876/37/354 886/39/354
f 886/39/355 876/37/355 875/37/355 885/39/355
f 885/39/310 875/37/310 874/37/310 884/123/310
f 884/123/309 874/37/309 872/37/309 882/38/309
f 888/124/316 878/38/316 881/39/316 891/125/316
f 891/125/356 881/39/356 880/38/356 890/40/356
f 890/40/314 880/38/314 879/38/314 889/40/314
f 889/40/313 879/38/313 877/38/313 887/40/313
f 893/40/357 883/123/357 886/39/357 896/41/357
f 896/41/319 886/39/319 885/39/319 895/41/319
f 895/41/318 885/39/318 884/123/318 894/96/318
f 894/96/317 884/123/317 882/38/317 892/96/317
f 842/92/324 888/124/324 891/125/324 844/120/324
f 844/120/358 891/125/358 890/40/358 845/34/358
f 845/34/322 890/40/322 889/40/322 846/89/322
f 846/89/321 889/40/321 887/40/321 843/89/321
f 862/35/328 893/40/328 896/41/328 864/35/328
f 864/35/327 896/41/327 895/41/327 865/35/327
f 865/35/326 895/41/326 894/96/326 866/121/326
f 866/121/359 894/96/359 892/96/359 863/35/359
f 929/126/360 930/127/360 582/2/360 578/1/360
f 577/1/65 583/2/65 2/2/65 1/1/65
f 931/7/361 929/126/361 578/1/361 628/7/361
f 627/7/65 577/1/65 1/1/65 6/7/65
f 583/2/66 588/2/66 3/2/66 2/2/66
f 930/127/362 932/2/362 587/2/362 582/2/362
f 588/2/65 593/2/65 4/2/65 3/2/65
f 932/2/363 933/128/363 592/2/363 587/2/363
f 593/2/65 598/2/65 5/2/65 4/2/65
f 933/128/364 934/2/364 597/2/364 592/2/364
f 598/2/65 633/8/65 7/8/65 5/2/65
f 934/2/365 935/8/365 632/8/365 597/2/365
f 936/102/366 937/4/366 602/4/366 608/5/366
f 603/4/65 647/11/65 10/11/65 12/4/65
f 607/3/66 603/4/66 12/4/66 13/3/66
f 937/4/367 938/129/367 648/11/367 602/4/367
f 939/101/368 936/102/368 608/5/368 613/102/368
f 612/5/65 607/3/65 13/3/65 14/5/65
f 940/3/369 939/101/369 613/102/369 618/6/369
f 617/6/66 612/5/66 14/5/66 15/6/66
f 941/130/370 940/3/370 618/6/370 623/6/370
f 622/6/65 617/6/65 15/6/65 16/6/65
f 942/131/371 941/130/371 623/6/371 652/12/371
f 653/12/66 622/6/66 16/6/66 11/12/66
f 943/132/372 931/7/372 628/7/372 638/9/372
f 637/9/65 627/7/65 6/7/65 8/9/65
f 633/8/66 643/10/66 9/10/66 7/8/66
f 935/8/373 944/103/373 642/103/373 632/8/373
f 938/129/374 943/132/374 638/9/374 648/11/374
f 647/11/66 637/9/66 8/9/66 10/11/66
f 643/10/66 653/12/66 11/12/66 9/10/66
f 944/103/375 942/131/375 652/12/375 642/103/375
f 913/13/376 914/52/376 662/14/376 658/13/376
f 657/105/68 663/13/68 18/14/68 17/13/68
f 915/133/377 913/13/377 658/13/377 708/18/377
f 707/18/67 657/105/67 17/13/67 22/18/67
f 663/13/68 668/14/68 19/14/68 18/14/68
f 914/52/378 916/105/378 667/13/378 662/14/378
f 668/14/68 673/14/68 20/14/68 19/14/68
f 916/105/379 917/14/379 672/14/379 667/13/379
f 673/14/68 678/53/68 21/15/68 20/14/68
f 917/14/380 918/13/380 677/15/380 672/14/380
f 678/53/68 713/18/68 23/18/68 21/15/68
f 918/13/381 919/134/381 712/18/381 677/15/381
f 920/57/382 921/16/382 682/57/382 688/16/382
f 683/54/67 727/69/67 26/20/67 28/16/67
f 687/54/67 683/54/67 28/16/67 29/16/67
f 921/16/383 922/65/383 728/67/383 682/57/383
f 923/17/384 920/57/384 688/16/384 693/58/384
f 692/58/68 687/54/68 29/16/68 30/17/68
f 924/59/385 923/17/385 693/58/385 698/110/385
f 697/16/68 692/58/68 30/17/68 31/17/68
f 925/135/386 924/59/386 698/110/386 703/16/386
f 702/16/68 697/16/68 31/17/68 32/16/68
f 926/64/387 925/135/387 703/16/387 732/20/387
f 733/66/67 702/16/67 32/16/67 27/20/67
f 927/112/388 915/133/388 708/18/388 718/19/388
f 717/19/67 707/18/67 22/18/67 24/19/67
f 713/18/67 723/19/67 25/19/67 23/18/67
f 919/134/389 928/19/389 722/19/389 712/18/389
f 922/65/390 927/112/390 718/19/390 728/67/390
f 727/69/67 717/19/67 24/19/67 26/20/67
f 723/19/67 733/66/67 27/20/67 25/19/67
f 928/19/391 926/64/391 732/20/391 722/19/391
f 897/21/392 898/136/392 742/21/392 738/21/392
f 737/21/69 743/21/69 34/21/69 33/21/69
f 899/78/393 897/21/393 738/21/393 788/25/393
f 787/25/69 737/21/69 33/21/69 38/25/69
f 743/21/70 748/22/70 35/22/70 34/21/70
f 898/136/394 900/137/394 747/72/394 742/21/394
f 748/22/69 753/21/69 36/22/69 35/22/69
f 900/137/395 901/22/395 752/22/395 747/72/395
f 753/21/69 758/21/69 37/21/69 36/22/69
f 901/22/396 902/138/396 757/21/396 752/22/396
f 758/21/69 793/26/69 39/26/69 37/21/69
f 902/138/397 903/139/397 792/26/397 757/21/397
f 904/140/398 905/24/398 762/24/398 768/23/398
f 763/24/69 807/28/69 42/28/69 44/24/69
f 767/23/70 763/24/70 44/24/70 45/23/70
f 905/24/399 906/81/399 808/28/399 762/24/399
f 907/24/400 904/140/400 768/23/400 773/23/400
f 772/23/69 767/23/69 45/23/69 46/23/69
f 908/24/401 907/24/401 773/23/401 778/24/401
f 777/24/70 772/23/70 46/23/70 47/24/70
f 909/24/402 908/24/402 778/24/402 783/24/402
f 782/24/69 777/24/69 47/24/69 48/24/69
f 910/28/403 909/24/403 783/24/403 812/29/403
f 813/29/70 782/24/70 48/24/70 43/29/70
f 911/80/404 899/78/404 788/25/404 798/27/404
f 797/27/69 787/25/69 38/25/69 40/27/69
f 793/26/70 803/27/70 41/27/70 39/26/70
f 903/139/405 912/80/405 802/27/405 792/26/405
f 906/81/406 911/80/406 798/27/406 808/28/406
f 807/28/70 797/27/70 40/27/70 42/28/70
f 803/27/70 813/29/70 43/29/70 41/27/70
f 912/80/407 910/28/407 812/29/407 802/27/407
f 945/30/408 946/33/408 822/31/408 818/30/408
f 817/30/72 823/31/72 50/31/72 49/30/72
f 947/95/409 945/30/409 818/30/409 868/36/409
f 867/36/71 817/30/71 49/30/71 54/36/71
f 823/31/72 828/32/72 51/32/72 50/31/72
f 946/33/410 948/83/410 827/32/410 822/31/410
f 828/32/72 833/30/72 52/30/72 51/32/72
f 948/83/411 949/30/411 832/30/411 827/32/411
f 833/30/71 838/33/71 53/33/71 52/30/71
f 949/30/412 950/141/412 837/33/412 832/30/412
f 838/33/72 873/37/72 55/37/72 53/33/72
f 950/141/413 951/142/413 872/37/413 837/33/413
f 952/34/414 953/143/414 842/92/414 848/34/414
f 843/89/72 887/40/72 58/40/72 60/34/72
f 847/92/71 843/89/71 60/34/71 61/34/71
f 953/143/415 954/41/415 888/124/415 842/92/415
f 955/34/416 952/34/416 848/34/416 853/34/416
f 852/92/72 847/92/72 61/34/72 62/34/72
f 956/34/417 955/34/417 853/34/417 858/34/417
f 857/34/72 852/92/72 62/34/72 63/34/72
f 957/92/418 956/34/418 858/34/418 863/35/418
f 862/35/72 857/34/72 63/34/72 64/35/72
f 958/40/419 957/92/419 863/35/419 892/96/419
f 893/40/71 862/35/71 64/35/71 59/41/71
f 959/38/420 947/95/420 868/36/420 878/38/420
f 877/38/71 867/36/71 54/36/71 56/38/71
f 873/37/71 883/123/71 57/39/71 55/37/71
f 951/142/421 960/38/421 882/38/421 872/37/421
f 954/41/422 959/38/422 878/38/422 888/124/422
f 887/40/71 877/38/71 56/38/71 58/40/71
f 883/123/72 893/40/72 59/41/72 57/39/72
f 960/38/423 958/40/423 892/96/423 882/38/423
f 1152/80/407 1123/28/407 910/28/407 912/80/407
f 1149/81/406 1126/27/406 911/80/406 906/81/406
f 1143/144/405 1152/80/405 912/80/405 903/139/405
f 1126/27/404 1108/145/404 899/78/404 911/80/404
f 1123/28/403 1120/146/403 909/24/403 910/28/403
f 1120/146/402 1117/24/402 908/24/402 909/24/402
f 1117/24/401 1114/24/401 907/24/401 908/24/401
f 1114/24/400 1111/147/400 904/140/400 907/24/400
f 1146/148/399 1149/81/399 906/81/399 905/24/399
f 1111/147/398 1146/148/398 905/24/398 904/140/398
f 1140/149/397 1143/144/397 903/139/397 902/138/397
f 1137/21/396 1140/149/396 902/138/396 901/22/396
f 1134/150/395 1137/21/395 901/22/395 900/137/395
f 1131/21/394 1134/150/394 900/137/394 898/136/394
f 1108/145/393 1105/138/393 897/21/393 899/78/393
f 1105/138/392 1131/21/392 898/136/392 897/21/392
f 1104/62/391 1075/151/391 926/64/391 928/19/391
f 1101/65/390 1078/19/390 927/112/390 922/65/390
f 1095/152/389 1104/62/389 928/19/389 919/134/389
f 1078/19/388 1060/153/388 915/133/388 927/112/388
f 1075/151/387 1072/154/387 925/135/387 926/64/387
f 1072/154/386 1069/155/386 924/59/386 925/135/386
f 1069/155/385 1066/57/385 923/17/385 924/59/385
f 1066/57/384 1063/57/384 920/57/384 923/17/384
f 1098/156/383 1101/65/383 922/65/383 921/16/383
f 1063/57/382 1098/156/382 921/16/382 920/57/382
f 1092/15/381 1095/152/381 919/134/381 918/13/381
f 1089/106/380 1092/15/380 918/13/380 917/14/380
f 1086/105/379 1089/106/379 917/14/379 916/105/379
f 1083/157/378 1086/105/378 916/105/378 914/52/378
f 1060/153/377 1057/105/377 913/13/377 915/133/377
f 1057/105/376 1083/157/376 914/52/376 913/13/376
f 1056/158/375 1027/159/375 942/131/375 944/103/375
f 1053/11/374 1030/9/374 943/132/374 938/129/374
f 1047/8/373 1056/158/373 944/103/373 935/8/373
f 1030/9/372 1012/7/372 931/7/372 943/132/372
f 1027/159/371 1024/160/371 941/130/371 942/131/371
f 1024/160/370 1021/161/370 940/3/370 941/130/370
f 1021/161/369 1018/101/369 939/101/369 940/3/369
f 1018/101/368 1015/102/368 936/102/368 939/101/368
f 1050/162/367 1053/11/367 938/129/367 937/4/367
f 1015/102/424 1050/162/424 937/4/424 936/102/424
f 1044/128/365 1047/8/365 935/8/365 934/2/365
f 1041/163/364 1044/128/364 934/2/364 933/128/364
f 1038/2/363 1041/163/363 933/128/363 932/2/363
f 1035/2/362 1038/2/362 932/2/362 930/127/362
f 1012/7/361 1009/126/361 929/126/361 931/7/361
f 1009/126/360 1035/2/360 930/127/360 929/126/360
f 1008/38/423 979/40/423 958/40/423 960/38/423
f 1005/164/422 982/38/422 959/38/422 954/41/422
f 999/37/421 1008/38/421 960/38/421 951/142/421
f 982/38/420 964/36/420 947/95/420 959/38/420
f 979/40/419 976/34/419 957/92/419 958/40/419
f 976/34/418 973/89/418 956/34/418 957/92/418
f 973/89/417 970/34/417 955/34/417 956/34/417
f 970/34/416 967/34/416 952/34/416 955/34/416
f 1002/165/415 1005/164/415 954/41/415 953/143/415
f 967/34/414 1002/165/414 953/143/414 952/34/414
f 996/33/413 999/37/413 951/142/413 950/141/413
f 993/33/425 996/33/425 950/141/425 949/30/425
f 990/83/411 993/33/411 949/30/411 948/83/411
f 987/33/410 990/83/410 948/83/410 946/33/410
f 964/36/409 961/33/409 945/30/409 947/95/409
f 961/33/408 987/33/408 946/33/408 945/30/408
f 497/30/408 503/31/408 985/33/408 963/30/408
f 962/166/408 986/167/408 987/33/408 961/33/408
f 547/36/409 497/30/409 963/30/409 966/95/409
f 965/95/409 962/166/409 961/33/409 964/36/409
f 503/31/410 508/32/410 988/83/410 985/33/410
f 986/167/410 989/83/410 990/83/410 987/33/410
f 508/32/411 513/30/411 991/33/411 988/83/411
f 989/83/411 992/167/411 993/33/411 990/83/411
f 513/30/412 518/33/412 994/168/412 991/33/412
f 992/167/412 995/141/412 996/33/412 993/33/412
f 518/33/413 553/37/413 997/169/413 994/168/413
f 995/141/413 998/170/413 999/37/413 996/33/413
f 527/34/426 523/34/426 1000/92/426 969/171/426
f 968/92/414 1001/172/414 1002/165/414 967/34/414
f 523/34/415 567/40/415 1003/40/415 1000/92/415
f 1001/172/415 1004/96/415 1005/164/415 1002/165/415
f 532/34/416 527/34/416 969/171/416 972/173/416
f 971/174/416 968/92/416 967/34/416 970/34/416
f 537/34/417 532/34/417 972/173/417 975/92/417
f 974/92/417 971/174/417 970/34/417 973/89/417
f 542/35/418 537/34/418 975/92/418 978/35/418
f 977/35/418 974/92/418 973/89/418 976/34/418
f 573/40/419 542/35/419 978/35/419 981/124/419
f 980/40/419 977/35/419 976/34/419 979/40/419
f 557/38/420 547/36/420 966/95/420 984/175/420
f 983/39/420 965/95/420 964/36/420 982/38/420
f 553/37/421 563/39/421 1006/176/421 997/169/421
f 998/170/421 1007/177/421 1008/38/421 999/37/421
f 567/40/422 557/38/422 984/175/422 1003/40/422
f 1004/96/422 983/39/422 982/38/422 1005/164/422
f 563/39/423 573/40/423 981/124/423 1006/176/423
f 1007/177/423 980/40/423 979/40/423 1008/38/423
f 257/1/360 263/2/360 1033/178/360 1011/126/360
f 1010/126/360 1034/2/360 1035/2/360 1009/126/360
f 307/7/361 257/1/361 1011/126/361 1014/8/361
f 1013/179/361 1010/126/361 1009/126/361 1012/7/361
f 263/2/362 268/2/362 1036/2/362 1033/178/362
f 1034/2/362 1037/178/362 1038/2/362 1035/2/362
f 268/2/363 273/2/363 1039/2/363 1036/2/363
f 1037/178/363 1040/180/363 1041/163/363 1038/2/363
f 273/2/364 278/2/364 1042/127/364 1039/2/364
f 1040/180/364 1043/2/364 1044/128/364 1041/163/364
f 278/2/365 313/8/365 1045/8/365 1042/127/365
f 1043/2/365 1046/8/365 1047/8/365 1044/128/365
f 287/3/366 283/4/366 1048/4/366 1017/5/366
f 1016/99/366 1049/181/366 1050/162/366 1015/102/366
f 283/4/367 327/11/367 1051/11/367 1048/4/367
f 1049/181/367 1052/11/367 1053/11/367 1050/162/367
f 292/6/368 287/3/368 1017/5/368 1020/102/368
f 1019/182/368 1016/99/368 1015/102/368 1018/101/368
f 297/6/369 292/6/369 1020/102/369 1023/6/369
f 1022/183/369 1019/182/369 1018/101/369 1021/161/369
f 302/6/370 297/6/370 1023/6/370 1026/161/370
f 1025/6/370 1022/183/370 1021/161/370 1024/160/370
f 333/12/371 302/6/371 1026/161/371 1029/184/371
f 1028/184/371 1025/6/371 1024/160/371 1027/159/371
f 317/9/372 307/7/372 1014/8/372 1032/9/372
f 1031/132/372 1013/179/372 1012/7/372 1030/9/372
f 313/8/373 323/10/373 1054/10/373 1045/8/373
f 1046/8/373 1055/185/373 1056/158/373 1047/8/373
f 327/11/374 317/9/374 1032/9/374 1051/11/374
f 1052/11/374 1031/132/374 1030/9/374 1053/11/374
f 323/10/375 333/12/375 1029/184/375 1054/10/375
f 1055/185/375 1028/184/375 1027/159/375 1056/158/375
f 337/13/376 343/13/376 1081/52/376 1059/186/376
f 1058/13/376 1082/52/376 1083/157/376 1057/105/376
f 387/18/377 337/13/377 1059/186/377 1062/18/377
f 1061/153/377 1058/13/377 1057/105/377 1060/153/377
f 343/13/378 348/14/378 1084/187/378 1081/52/378
f 1082/52/378 1085/188/378 1086/105/378 1083/157/378
f 348/14/379 353/14/379 1087/13/379 1084/187/379
f 1085/188/379 1088/106/379 1089/106/379 1086/105/379
f 353/14/380 358/15/380 1090/52/380 1087/13/380
f 1088/106/427 1091/14/427 1092/15/427 1089/106/427
f 358/15/381 393/18/381 1093/18/381 1090/52/381
f 1091/14/381 1094/189/381 1095/152/381 1092/15/381
f 367/16/382 363/16/382 1096/57/382 1065/16/382
f 1064/16/382 1097/16/382 1098/156/382 1063/57/382
f 363/16/383 407/67/383 1099/190/383 1096/57/383
f 1097/16/383 1100/190/383 1101/65/383 1098/156/383
f 372/58/384 367/16/384 1065/16/384 1068/57/384
f 1067/17/384 1064/16/384 1063/57/384 1066/57/384
f 377/58/385 372/58/385 1068/57/385 1071/191/385
f 1070/192/385 1067/17/385 1066/57/385 1069/155/385
f 382/16/386 377/58/386 1071/191/386 1074/193/386
f 1073/54/386 1070/192/386 1069/155/386 1072/154/386
f 413/64/387 382/16/387 1074/193/387 1077/66/387
f 1076/68/387 1073/54/387 1072/154/387 1075/151/387
f 397/19/388 387/18/388 1062/18/388 1080/19/388
f 1079/19/388 1061/153/388 1060/153/388 1078/19/388
f 393/18/389 403/19/389 1102/194/389 1093/18/389
f 1094/189/389 1103/19/389 1104/62/389 1095/152/389
f 407/67/390 397/19/390 1080/19/390 1099/190/390
f 1100/190/390 1079/19/390 1078/19/390 1101/65/390
f 403/19/391 413/64/391 1077/66/391 1102/194/391
f 1103/19/391 1076/68/391 1075/151/391 1104/62/391
f 417/21/392 423/21/392 1129/21/392 1107/195/392
f 1106/138/392 1130/138/392 1131/21/392 1105/138/392
f 467/78/393 417/21/393 1107/195/393 1110/196/393
f 1109/197/393 1106/138/393 1105/138/393 1108/145/393
f 423/21/394 428/22/394 1132/136/394 1129/21/394
f 1130/138/394 1133/72/394 1134/150/394 1131/21/394
f 428/22/395 433/22/395 1135/21/395 1132/136/395
f 1133/72/395 1136/138/395 1137/21/395 1134/150/395
f 433/22/396 438/21/396 1138/198/396 1135/21/396
f 1136/138/396 1139/21/396 1140/149/396 1137/21/396
f 438/21/397 473/26/397 1141/199/397 1138/198/397
f 1139/21/397 1142/139/397 1143/144/397 1140/149/397
f 447/23/398 443/24/398 1144/23/398 1113/200/398
f 1112/75/398 1145/148/398 1146/148/398 1111/147/398
f 443/24/399 487/28/399 1147/28/399 1144/23/399
f 1145/148/399 1148/201/399 1149/81/399 1146/148/399
f 452/24/400 447/23/400 1113/200/400 1116/202/400
f 1115/24/400 1112/75/400 1111/147/400 1114/24/400
f 457/24/401 452/24/401 1116/202/401 1119/24/401
f 1118/24/401 1115/24/401 1114/24/401 1117/24/401
f 462/24/402 457/24/402 1119/24/402 1122/203/402
f 1121/204/402 1118/24/402 1117/24/402 1120/146/402
f 493/29/403 462/24/403 1122/203/403 1125/205/403
f 1124/82/403 1121/204/403 1120/146/403 1123/28/403
f 477/27/404 467/78/404 1110/196/404 1128/27/404
f 1127/27/404 1109/197/404 1108/145/404 1126/27/404
f 473/26/405 483/27/405 1150/27/405 1141/199/405
f 1142/139/405 1151/206/405 1152/80/405 1143/144/405
f 487/28/406 477/27/406 1128/27/406 1147/28/406
f 1148/201/406 1127/27/406 1126/27/406 1149/81/406
f 483/27/407 493/29/407 1125/205/407 1150/27/407
f 1151/206/407 1124/82/407 1123/28/407 1152/80/407
