# Blender 5.2.0 LTS
# www.blender.org
mtllib hr.mtl
o Cube.018
v 93.639473 7.300000 1.280000
v 93.162384 7.300000 1.082382
v 92.917618 7.300000 0.837618
v 92.720001 7.300000 0.360526
v 92.918167 8.901458 0.838163
v 92.718681 8.903954 0.359142
v 93.640862 8.904161 1.280000
v 93.161491 8.901377 1.082180
v 92.720001 7.300000 -0.360526
v 92.917618 7.300000 -0.837618
v 93.162384 7.300000 -1.082382
v 93.639473 7.300000 -1.280000
v 93.161835 8.901458 -1.081836
v 93.640862 8.903954 -1.281316
v 92.720001 8.904161 -0.359142
v 92.917816 8.901377 -0.838507
v 95.279999 7.300000 0.360526
v 95.082382 7.300000 0.837618
v 94.837616 7.300000 1.082382
v 94.360527 7.300000 1.280000
v 94.838165 8.901458 1.081836
v 94.359138 8.903954 1.281316
v 95.279999 8.904161 0.359142
v 95.082184 8.901377 0.838507
v 94.360527 7.300000 -1.280000
v 94.837616 7.300000 -1.082382
v 95.082382 7.300000 -0.837618
v 95.279999 7.300000 -0.360526
v 95.081833 8.901458 -0.838163
v 95.281319 8.903954 -0.359142
v 94.359138 8.904161 -1.280000
v 94.838509 8.901377 -1.082180
v 93.036781 5.602241 1.207111
v 93.035896 7.199085 1.206910
v 92.793251 7.199166 0.963584
v 92.792709 5.602241 0.963040
v 94.359337 5.602195 1.457230
v 94.357956 7.201608 1.458542
v 93.641708 7.201815 1.457230
v 93.640327 5.602195 1.457230
v 92.542770 5.602195 0.359340
v 92.541458 7.201608 0.357960
v 92.542770 7.201815 -0.358290
v 92.542770 5.602195 -0.359671
v 93.036415 7.199166 -1.206747
v 93.036957 5.602241 -1.207291
v 92.792892 5.602241 -0.963220
v 92.793091 7.199085 -0.964107
v 93.640663 5.602195 -1.457230
v 93.642044 7.201608 -1.458542
v 94.358292 7.201815 -1.457230
v 94.359673 5.602195 -1.457230
v 94.963585 7.199166 1.206747
v 94.963043 5.602241 1.207291
v 95.207108 5.602241 0.963220
v 95.206909 7.199085 0.964107
v 95.457230 5.602195 -0.359340
v 95.458542 7.201608 -0.357960
v 95.457230 7.201815 0.358290
v 95.457230 5.602195 0.359671
v 95.206749 7.199166 -0.963584
v 95.207291 5.602241 -0.963040
v 94.963219 5.602241 -1.207111
v 94.964104 7.199085 -1.206910
v 93.640068 6.451097 -1.368615
v 93.641449 8.052781 -1.369929
v 94.358719 8.052988 -1.368615
v 94.360100 6.451097 -1.368615
v 92.631386 6.451097 0.359933
v 92.630074 8.052781 0.358551
v 92.631386 8.052988 -0.358716
v 92.631386 6.451097 -0.360099
v 94.359932 6.451097 1.368615
v 94.358551 8.052781 1.369929
v 93.641281 8.052988 1.368615
v 93.639900 6.451097 1.368615
v 95.368614 6.451097 -0.359933
v 95.369926 8.052781 -0.358551
v 95.368614 8.052988 0.358716
v 95.368614 6.451097 0.360099
v 94.269356 8.903980 1.281151
v 94.179573 8.904006 1.280987
v 94.089783 8.904032 1.280822
v 94.000000 8.904058 1.280658
v 93.910217 8.904083 1.280493
v 93.820427 8.904110 1.280329
v 93.730644 8.904136 1.280164
v 92.718849 8.903980 0.269356
v 92.719009 8.904006 0.179571
v 92.719177 8.904032 0.089785
v 92.719345 8.904058 -0.000000
v 92.719505 8.904083 -0.089785
v 92.719673 8.904110 -0.179571
v 92.719833 8.904136 -0.269356
v 93.730644 8.903980 -1.281151
v 93.820427 8.904006 -1.280987
v 93.910217 8.904032 -1.280822
v 94.000000 8.904058 -1.280658
v 94.089783 8.904083 -1.280493
v 94.179573 8.904110 -1.280329
v 94.269356 8.904136 -1.280164
v 95.281151 8.903980 -0.269356
v 95.280991 8.904006 -0.179571
v 95.280823 8.904032 -0.089785
v 95.280655 8.904058 0.000000
v 95.280495 8.904083 0.089785
v 95.280327 8.904110 0.179571
v 95.280167 8.904136 0.269356
v 93.640930 8.797557 -1.292392
v 93.641006 8.691160 -1.303469
v 93.641083 8.584764 -1.314546
v 93.641151 8.478368 -1.325623
v 93.641228 8.371971 -1.336699
v 93.641304 8.265574 -1.347776
v 93.641373 8.159178 -1.358852
v 94.359085 8.797765 -1.291077
v 94.359032 8.691368 -1.302154
v 94.358978 8.584971 -1.313231
v 94.358932 8.478575 -1.324308
v 94.358879 8.372178 -1.335385
v 94.358826 8.265781 -1.346462
v 94.358772 8.159385 -1.357538
v 94.269058 8.052962 -1.368780
v 94.179398 8.052937 -1.368944
v 94.089745 8.052911 -1.369108
v 94.000084 8.052884 -1.369272
v 93.910423 8.052858 -1.369437
v 93.820763 8.052833 -1.369601
v 93.731110 8.052807 -1.369765
v 92.707611 8.797557 0.359068
v 92.696533 8.691160 0.358994
v 92.685455 8.584764 0.358920
v 92.674377 8.478368 0.358846
v 92.663300 8.371971 0.358772
v 92.652222 8.265574 0.358698
v 92.641144 8.159178 0.358624
v 92.708923 8.797765 -0.359088
v 92.697845 8.691368 -0.359035
v 92.686768 8.584971 -0.358982
v 92.675690 8.478575 -0.358929
v 92.664612 8.372178 -0.358876
v 92.653542 8.265781 -0.358822
v 92.642464 8.159385 -0.358769
v 92.631218 8.052962 -0.269058
v 92.631058 8.052937 -0.179399
v 92.630890 8.052911 -0.089741
v 92.630730 8.052884 -0.000083
v 92.630562 8.052858 0.089576
v 92.630402 8.052833 0.179234
v 92.630234 8.052807 0.268892
v 94.359070 8.797557 1.292392
v 94.358994 8.691160 1.303469
v 94.358917 8.584764 1.314546
v 94.358849 8.478368 1.325623
v 94.358772 8.371971 1.336699
v 94.358696 8.265574 1.347776
v 94.358627 8.159178 1.358852
v 93.640915 8.797765 1.291077
v 93.640968 8.691368 1.302154
v 93.641022 8.584971 1.313231
v 93.641068 8.478575 1.324308
v 93.641121 8.372178 1.335385
v 93.641174 8.265781 1.346462
v 93.641228 8.159385 1.357538
v 93.730942 8.052962 1.368780
v 93.820602 8.052937 1.368944
v 93.910255 8.052911 1.369108
v 93.999916 8.052884 1.369272
v 94.089577 8.052858 1.369437
v 94.179237 8.052833 1.369601
v 94.268890 8.052807 1.369765
v 95.292389 8.797557 -0.359068
v 95.303467 8.691160 -0.358994
v 95.314545 8.584764 -0.358920
v 95.325623 8.478368 -0.358846
v 95.336700 8.371971 -0.358772
v 95.347778 8.265574 -0.358698
v 95.358856 8.159178 -0.358624
v 95.291077 8.797765 0.359088
v 95.302155 8.691368 0.359035
v 95.313232 8.584971 0.358982
v 95.324310 8.478575 0.358929
v 95.335388 8.372178 0.358876
v 95.346458 8.265781 0.358822
v 95.357536 8.159385 0.358769
v 95.368782 8.052962 0.269058
v 95.368942 8.052937 0.179399
v 95.369110 8.052911 0.089741
v 95.369270 8.052884 0.000083
v 95.369438 8.052858 -0.089576
v 95.369598 8.052833 -0.179234
v 95.369766 8.052807 -0.268892
v 95.292229 8.797584 -0.269298
v 95.303307 8.691187 -0.269240
v 95.314384 8.584790 -0.269182
v 95.325455 8.478394 -0.269124
v 95.336533 8.371997 -0.269066
v 95.347610 8.265600 -0.269008
v 95.358688 8.159204 -0.268950
v 95.292061 8.797609 -0.179529
v 95.312050 8.604699 -0.126878
v 95.318153 8.546793 -0.165761
v 95.325287 8.478491 -0.179402
v 95.332375 8.410191 -0.165725
v 95.338333 8.352291 -0.126811
v 95.358521 8.159229 -0.179276
v 95.291901 8.797635 -0.089759
v 95.307922 8.643394 -0.068673
v 95.342255 8.313606 -0.068585
v 95.358360 8.159255 -0.089602
v 95.291733 8.797661 0.000010
v 95.306381 8.656984 -0.000007
v 95.343544 8.300026 0.000089
v 95.358192 8.159281 0.000072
v 95.291573 8.797687 0.089780
v 95.307671 8.643404 0.068667
v 95.342003 8.313618 0.068756
v 95.358032 8.159307 0.089747
v 95.291405 8.797712 0.179549
v 95.311592 8.604719 0.126893
v 95.317551 8.546820 0.165807
v 95.324638 8.478519 0.179485
v 95.331772 8.410217 0.165844
v 95.337868 8.352312 0.126961
v 95.357864 8.159333 0.179421
v 95.291245 8.797739 0.269319
v 95.302315 8.691342 0.269282
v 95.313393 8.584946 0.269244
v 95.324471 8.478549 0.269207
v 95.335548 8.372152 0.269170
v 95.346626 8.265756 0.269132
v 95.357704 8.159359 0.269095
v 94.269295 8.797584 1.292228
v 94.269241 8.691187 1.303305
v 94.269180 8.584790 1.314381
v 94.269127 8.478394 1.325458
v 94.269066 8.371997 1.336535
v 94.269005 8.265600 1.347611
v 94.268951 8.159204 1.358688
v 94.179527 8.797609 1.292063
v 94.126877 8.604699 1.312052
v 94.165764 8.546793 1.318151
v 94.179405 8.478491 1.325286
v 94.165726 8.410191 1.332372
v 94.126808 8.352291 1.338330
v 94.179276 8.159229 1.358524
v 94.089760 8.797635 1.291899
v 94.068672 8.643394 1.307919
v 94.068588 8.313606 1.342253
v 94.089600 8.159255 1.358360
v 93.999992 8.797661 1.291735
v 94.000008 8.656984 1.306380
v 93.999908 8.300026 1.343543
v 93.999931 8.159281 1.358196
v 93.910217 8.797687 1.291570
v 93.931335 8.643404 1.307670
v 93.931244 8.313618 1.342004
v 93.910255 8.159307 1.358031
v 93.820450 8.797712 1.291406
v 93.873108 8.604719 1.311593
v 93.834190 8.546820 1.317551
v 93.820518 8.478519 1.324637
v 93.834152 8.410217 1.331772
v 93.873039 8.352312 1.337871
v 93.820580 8.159333 1.357867
v 93.730682 8.797739 1.291241
v 93.730721 8.691342 1.302318
v 93.730759 8.584946 1.313395
v 93.730797 8.478549 1.324472
v 93.730827 8.372152 1.335549
v 93.730865 8.265756 1.346626
v 93.730904 8.159359 1.357703
v 92.707771 8.797584 0.269298
v 92.696693 8.691187 0.269240
v 92.685616 8.584790 0.269182
v 92.674545 8.478394 0.269124
v 92.663467 8.371997 0.269066
v 92.652390 8.265600 0.269008
v 92.641312 8.159204 0.268950
v 92.707939 8.797609 0.179529
v 92.687950 8.604699 0.126878
v 92.681847 8.546793 0.165761
v 92.674713 8.478491 0.179402
v 92.667625 8.410191 0.165725
v 92.661667 8.352291 0.126811
v 92.641479 8.159229 0.179276
v 92.708099 8.797635 0.089759
v 92.692078 8.643394 0.068673
v 92.657745 8.313606 0.068585
v 92.641640 8.159255 0.089602
v 92.708267 8.797661 -0.000010
v 92.693619 8.656984 0.000007
v 92.656456 8.300026 -0.000089
v 92.641808 8.159281 -0.000072
v 92.708427 8.797687 -0.089780
v 92.692329 8.643404 -0.068667
v 92.657997 8.313618 -0.068756
v 92.641968 8.159307 -0.089747
v 92.708595 8.797712 -0.179549
v 92.688408 8.604719 -0.126893
v 92.682449 8.546820 -0.165807
v 92.675362 8.478519 -0.179485
v 92.668228 8.410217 -0.165844
v 92.662132 8.352312 -0.126961
v 92.642136 8.159333 -0.179421
v 92.708755 8.797739 -0.269319
v 92.697685 8.691342 -0.269282
v 92.686607 8.584946 -0.269244
v 92.675529 8.478549 -0.269207
v 92.664452 8.372152 -0.269170
v 92.653374 8.265756 -0.269132
v 92.642296 8.159359 -0.269095
v 93.730705 8.797584 -1.292228
v 93.730759 8.691187 -1.303305
v 93.730820 8.584790 -1.314381
v 93.730873 8.478394 -1.325458
v 93.730934 8.371997 -1.336535
v 93.730995 8.265600 -1.347611
v 93.731049 8.159204 -1.358688
v 93.820473 8.797609 -1.292063
v 93.873123 8.604699 -1.312052
v 93.834236 8.546793 -1.318151
v 93.820595 8.478491 -1.325286
v 93.834274 8.410191 -1.332372
v 93.873192 8.352291 -1.338330
v 93.820724 8.159229 -1.358524
v 93.910240 8.797635 -1.291899
v 93.931328 8.643394 -1.307919
v 93.931412 8.313606 -1.342253
v 93.910400 8.159255 -1.358360
v 94.000008 8.797661 -1.291735
v 93.999992 8.656984 -1.306380
v 94.000092 8.300026 -1.343543
v 94.000069 8.159281 -1.358196
v 94.089783 8.797687 -1.291570
v 94.068665 8.643404 -1.307670
v 94.068756 8.313618 -1.342004
v 94.089745 8.159307 -1.358031
v 94.179550 8.797712 -1.291406
v 94.126892 8.604719 -1.311593
v 94.165810 8.546820 -1.317551
v 94.179482 8.478519 -1.324637
v 94.165848 8.410217 -1.331772
v 94.126961 8.352312 -1.337871
v 94.179420 8.159333 -1.357867
v 94.269318 8.797739 -1.291241
v 94.269279 8.691342 -1.302318
v 94.269241 8.584946 -1.313395
v 94.269203 8.478549 -1.324472
v 94.269173 8.372152 -1.335549
v 94.269135 8.265756 -1.346626
v 94.269096 8.159359 -1.357703
vn 0.7014 0.0005 0.7128
vn -0.7043 0.1034 0.7023
vn -0.7118 0.0005 -0.7024
vn 0.9999 0.0009 0.0148
vn -0.0018 0.1035 0.9946
vn -0.9999 0.0009 0.0131
vn -0.0148 0.0009 0.9999
vn -0.9946 0.1035 -0.0018
vn -0.0131 0.0009 -0.9999
vn 0.7024 0.0005 -0.7118
vn -0.7128 0.0005 0.7014
vn -0.7023 0.1034 -0.7043
vn -0.9999 0.0009 -0.0148
vn 0.0018 0.1035 -0.9946
vn 0.9999 0.0009 -0.0131
vn -0.7024 0.0005 0.7118
vn 0.7128 0.0005 -0.7014
vn 0.7023 0.1034 0.7043
vn 0.0148 0.0009 -0.9999
vn 0.9946 0.1035 0.0018
vn 0.0131 0.0009 0.9999
vn 0.7118 0.0005 0.7024
vn -0.7014 0.0005 -0.7128
vn 0.7043 0.1034 -0.7023
vt 0.375000 0.019299
vt 0.625108 0.019353
vt 0.625114 0.043147
vt 0.625114 0.043147
vt 0.375000 0.043201
vt 0.345069 0.809862
vt 0.641600 0.823676
vt 0.345069 0.809862
vt 0.640140 0.833903
vt 0.638680 0.844130
vt 0.637220 0.854357
vt 0.635760 0.864584
vt 0.634300 0.874811
vt 0.632840 0.885038
vt 0.631380 0.895265
vt 0.629919 0.905492
vt 0.629919 0.905492
vt 0.370451 0.905659
vt 0.370451 0.905659
vt 0.375000 0.089792
vt 0.625309 0.089936
vt 0.375000 0.089792
vt 0.625311 0.098702
vt 0.625313 0.107468
vt 0.625315 0.116234
vt 0.625317 0.125000
vt 0.625319 0.133766
vt 0.625321 0.142532
vt 0.625323 0.151298
vt 0.625325 0.160064
vt 0.375000 0.160208
vt 0.625114 0.273795
vt 0.375000 0.273903
vt 0.625114 0.273795
vt 0.375000 0.226097
vt 0.625108 0.226205
vt 0.370451 0.344341
vt 0.629902 0.344509
vt 0.631367 0.354736
vt 0.632831 0.364963
vt 0.634296 0.375190
vt 0.635760 0.385417
vt 0.637225 0.395644
vt 0.638689 0.405871
vt 0.640154 0.416098
vt 0.641618 0.426325
vt 0.641618 0.426325
vt 0.345069 0.440138
vt 0.639507 0.759412
vt 0.360600 0.759502
vt 0.368567 0.719664
vt 0.631567 0.719755
vt 0.375000 0.589792
vt 0.625309 0.589936
vt 0.625311 0.598702
vt 0.625313 0.607468
vt 0.625315 0.616234
vt 0.625317 0.625000
vt 0.625319 0.633766
vt 0.625321 0.642532
vt 0.625323 0.651298
vt 0.625325 0.660064
vt 0.375000 0.660208
vt 0.631573 0.530246
vt 0.368567 0.530336
vt 0.631573 0.530245
vt 0.360600 0.490498
vt 0.639500 0.490588
vt 0.629902 0.344509
vt 0.625323 0.151298
vt 0.625309 0.089936
vt 0.625309 0.089936
vt 0.629919 0.905492
vt 0.631379 0.895265
vt 0.641600 0.823676
vt 0.625323 0.651298
vt 0.625309 0.589936
vt 0.625313 0.607468
vt 0.625315 0.616234
vt 0.625315 0.616234
vt 0.625317 0.625000
vt 0.625317 0.625000
vt 0.625319 0.633766
vt 0.625321 0.642532
vt 0.625321 0.642532
vt 0.625321 0.642532
vt 0.640140 0.833903
vt 0.637220 0.854357
vt 0.640140 0.833903
vt 0.638680 0.844130
vt 0.638680 0.844130
vt 0.638680 0.844130
vt 0.635760 0.864584
vt 0.635760 0.864584
vt 0.634300 0.874811
vt 0.632840 0.885038
vt 0.631380 0.895265
vt 0.632840 0.885038
vt 0.625313 0.107468
vt 0.625315 0.116234
vt 0.625315 0.116234
vt 0.625315 0.116234
vt 0.625319 0.133766
vt 0.625321 0.142532
vt 0.631367 0.354736
vt 0.632831 0.364963
vt 0.634296 0.375190
vt 0.638689 0.405871
vt 0.632831 0.364963
vt 0.632831 0.364963
vt 0.632831 0.364963
vt 0.634296 0.375190
vt 0.634296 0.375190
vt 0.635760 0.385417
vt 0.635760 0.385417
vt 0.637225 0.395644
vt 0.638689 0.405871
vt 0.638689 0.405871
vt 0.640154 0.416098
vt 0.640154 0.416098
s 0
usemtl Material.032
f 2/1/1 8/2/1 34/2/1 33/1/1
f 8/2/2 5/3/2 35/4/2 34/2/2
f 5/3/3 3/5/3 36/5/3 35/4/3
f 73/6/4 74/7/4 38/7/4 37/8/4
f 74/7/5 171/9/5 170/10/5 169/11/5 168/12/5 167/13/5 166/14/5 165/15/5 75/16/5 39/17/5 38/7/5
f 75/16/6 76/18/6 40/19/6 39/17/6
f 69/20/7 70/21/7 42/21/7 41/22/7
f 70/21/8 150/23/8 149/24/8 148/25/8 147/26/8 146/27/8 145/28/8 144/29/8 71/30/8 43/30/8 42/21/8
f 71/30/9 72/31/9 44/31/9 43/30/9
f 13/32/10 11/33/10 46/33/10 45/34/10
f 10/35/11 16/36/11 48/36/11 47/35/11
f 16/36/12 13/32/12 45/34/12 48/36/12
f 65/37/13 66/38/13 50/38/13 49/37/13
f 66/38/14 129/39/14 128/40/14 127/41/14 126/42/14 125/43/14 124/44/14 123/45/14 67/46/14 51/47/14 50/38/14
f 67/46/15 68/48/15 52/48/15 51/47/15
f 21/49/16 19/50/16 54/50/16 53/49/16
f 18/51/17 24/52/17 56/52/17 55/51/17
f 24/52/18 21/49/18 53/49/18 56/52/18
f 77/53/19 78/54/19 58/54/19 57/53/19
f 78/54/20 192/55/20 191/56/20 190/57/20 189/58/20 188/59/20 187/60/20 186/61/20 79/62/20 59/62/20 58/54/20
f 79/62/21 80/63/21 60/63/21 59/62/21
f 29/64/22 27/65/22 62/65/22 61/66/22
f 26/67/23 32/68/23 64/68/23 63/67/23
f 32/68/24 29/64/24 61/66/24 64/68/24
f 31/47/15 25/48/15 68/48/15 67/46/15 122/47/15 121/47/15 120/47/15 119/47/15 118/47/15 117/47/15 116/47/15
f 352/45/14 122/47/14 67/46/14 123/45/14
f 12/37/13 14/38/13 109/38/13 110/38/13 111/69/13 112/69/13 113/69/13 114/69/13 115/38/13 66/38/13 65/37/13
f 15/30/9 9/31/9 72/31/9 71/30/9 143/30/9 142/30/9 141/30/9 140/30/9 139/30/9 138/30/9 137/30/9
f 312/70/8 143/30/8 71/30/8 144/29/8
f 4/22/7 6/21/7 130/21/7 131/21/7 132/71/7 133/72/7 134/21/7 135/21/7 136/21/7 70/21/7 69/20/7
f 7/17/6 1/19/6 76/18/6 75/16/6 164/16/6 163/16/6 162/16/6 161/16/6 160/73/6 159/17/6 158/17/6
f 272/74/5 164/16/5 75/16/5 165/15/5
f 20/8/4 22/7/4 151/7/4 152/75/4 153/75/4 154/75/4 155/75/4 156/7/4 157/7/4 74/7/4 73/6/4
f 23/62/21 17/63/21 80/63/21 79/62/21 185/62/21 184/62/21 183/62/21 182/62/21 181/62/21 180/62/21 179/62/21
f 232/76/20 185/62/20 79/62/20 186/61/20
f 28/53/19 30/54/19 172/54/19 173/54/19 174/77/19 175/54/19 176/54/19 177/54/19 178/54/19 78/54/19 77/53/19
f 178/54/20 199/55/20 192/55/20 78/54/20
f 199/55/20 206/56/20 191/56/20 192/55/20
f 206/56/20 210/57/20 190/57/20 191/56/20
f 210/57/20 214/58/20 189/58/20 190/57/20
f 214/58/20 218/59/20 188/59/20 189/58/20
f 218/59/20 225/60/20 187/60/20 188/59/20
f 225/60/20 232/76/20 186/61/20 187/60/20
f 30/54/20 102/55/20 193/55/20 172/54/20
f 172/54/20 193/55/20 194/55/20 173/54/20
f 173/54/20 194/55/20 195/55/20 174/77/20
f 174/77/20 195/55/20 196/55/20 175/54/20
f 175/54/20 196/55/20 197/55/20 176/54/20
f 176/54/20 197/55/20 198/55/20 177/54/20
f 177/54/20 198/55/20 199/55/20 178/54/20
f 102/55/20 103/56/20 200/56/20 193/55/20
f 193/55/20 200/56/20 201/78/20 194/55/20
f 194/55/20 201/78/20 202/56/20 195/55/20
f 195/55/20 202/56/20 203/56/20 196/55/20
f 196/55/20 203/56/20 204/56/20 197/55/20
f 197/55/20 204/56/20 205/56/20 198/55/20
f 198/55/20 205/56/20 206/56/20 199/55/20
f 103/56/20 104/79/20 207/79/20 200/56/20
f 200/56/20 207/79/20 208/80/20 201/78/20
f 205/56/20 209/57/20 210/57/20 206/56/20
f 104/79/20 105/81/20 211/58/20 207/79/20
f 207/79/20 211/58/20 212/82/20 208/80/20
f 209/57/20 213/58/20 214/58/20 210/57/20
f 105/81/20 106/83/20 215/83/20 211/58/20
f 211/58/20 215/83/20 216/83/20 212/82/20
f 213/58/20 217/59/20 218/59/20 214/58/20
f 106/83/20 107/84/20 219/84/20 215/83/20
f 215/83/20 219/84/20 220/84/20 216/83/20
f 217/59/20 224/60/20 225/60/20 218/59/20
f 107/84/20 108/76/20 226/76/20 219/84/20
f 219/84/20 226/76/20 227/76/20 220/84/20
f 220/84/20 227/76/20 228/76/20 221/85/20
f 221/85/20 228/76/20 229/61/20 222/86/20
f 222/86/20 229/61/20 230/61/20 223/60/20
f 223/60/20 230/61/20 231/76/20 224/60/20
f 224/60/20 231/76/20 232/76/20 225/60/20
f 108/76/20 23/62/20 179/62/20 226/76/20
f 226/76/20 179/62/20 180/62/20 227/76/20
f 227/76/20 180/62/20 181/62/20 228/76/20
f 228/76/20 181/62/20 182/62/20 229/61/20
f 229/61/20 182/62/20 183/62/20 230/61/20
f 230/61/20 183/62/20 184/62/20 231/76/20
f 231/76/20 184/62/20 185/62/20 232/76/20
f 157/7/5 239/87/5 171/9/5 74/7/5
f 239/87/5 246/10/5 170/10/5 171/9/5
f 246/10/5 250/88/5 169/11/5 170/10/5
f 250/88/5 254/12/5 168/12/5 169/11/5
f 254/12/5 258/13/5 167/13/5 168/12/5
f 258/13/5 265/14/5 166/14/5 167/13/5
f 265/14/5 272/74/5 165/15/5 166/14/5
f 22/7/5 81/89/5 233/9/5 151/7/5
f 151/7/5 233/9/5 234/9/5 152/75/5
f 152/75/5 234/9/5 235/9/5 153/75/5
f 153/75/5 235/9/5 236/87/5 154/75/5
f 154/75/5 236/87/5 237/87/5 155/75/5
f 155/75/5 237/87/5 238/87/5 156/7/5
f 156/7/5 238/87/5 239/87/5 157/7/5
f 81/89/5 82/90/5 240/90/5 233/9/5
f 233/9/5 240/90/5 241/90/5 234/9/5
f 234/9/5 241/90/5 242/91/5 235/9/5
f 235/9/5 242/91/5 243/91/5 236/87/5
f 236/87/5 243/91/5 244/91/5 237/87/5
f 237/87/5 244/91/5 245/92/5 238/87/5
f 238/87/5 245/92/5 246/10/5 239/87/5
f 82/90/5 83/88/5 247/88/5 240/90/5
f 240/90/5 247/88/5 248/88/5 241/90/5
f 245/92/5 249/88/5 250/88/5 246/10/5
f 83/88/5 84/93/5 251/12/5 247/88/5
f 247/88/5 251/12/5 252/94/5 248/88/5
f 249/88/5 253/94/5 254/12/5 250/88/5
f 84/93/5 85/95/5 255/95/5 251/12/5
f 251/12/5 255/95/5 256/95/5 252/94/5
f 253/94/5 257/95/5 258/13/5 254/12/5
f 85/95/5 86/96/5 259/14/5 255/95/5
f 255/95/5 259/14/5 260/14/5 256/95/5
f 257/95/5 264/14/5 265/14/5 258/13/5
f 86/96/5 87/97/5 266/97/5 259/14/5
f 259/14/5 266/97/5 267/97/5 260/14/5
f 260/14/5 267/97/5 268/97/5 261/14/5
f 261/14/5 268/97/5 269/15/5 262/98/5
f 262/98/5 269/15/5 270/15/5 263/98/5
f 263/98/5 270/15/5 271/74/5 264/14/5
f 264/14/5 271/74/5 272/74/5 265/14/5
f 87/97/5 7/17/5 158/17/5 266/97/5
f 266/97/5 158/17/5 159/17/5 267/97/5
f 267/97/5 159/17/5 160/73/5 268/97/5
f 268/97/5 160/73/5 161/16/5 269/15/5
f 269/15/5 161/16/5 162/16/5 270/15/5
f 270/15/5 162/16/5 163/16/5 271/74/5
f 271/74/5 163/16/5 164/16/5 272/74/5
f 136/21/8 279/23/8 150/23/8 70/21/8
f 279/23/8 286/99/8 149/24/8 150/23/8
f 286/99/8 290/25/8 148/25/8 149/24/8
f 290/25/8 294/26/8 147/26/8 148/25/8
f 294/26/8 298/27/8 146/27/8 147/26/8
f 298/27/8 305/28/8 145/28/8 146/27/8
f 305/28/8 312/70/8 144/29/8 145/28/8
f 6/21/8 88/23/8 273/23/8 130/21/8
f 130/21/8 273/23/8 274/23/8 131/21/8
f 131/21/8 274/23/8 275/23/8 132/71/8
f 132/71/8 275/23/8 276/23/8 133/72/8
f 133/72/8 276/23/8 277/23/8 134/21/8
f 134/21/8 277/23/8 278/23/8 135/21/8
f 135/21/8 278/23/8 279/23/8 136/21/8
f 88/23/8 89/99/8 280/99/8 273/23/8
f 273/23/8 280/99/8 281/99/8 274/23/8
f 274/23/8 281/99/8 282/99/8 275/23/8
f 275/23/8 282/99/8 283/24/8 276/23/8
f 276/23/8 283/24/8 284/24/8 277/23/8
f 277/23/8 284/24/8 285/99/8 278/23/8
f 278/23/8 285/99/8 286/99/8 279/23/8
f 89/99/8 90/100/8 287/101/8 280/99/8
f 280/99/8 287/101/8 288/102/8 281/99/8
f 285/99/8 289/25/8 290/25/8 286/99/8
f 90/100/8 91/26/8 291/26/8 287/101/8
f 287/101/8 291/26/8 292/26/8 288/102/8
f 289/25/8 293/26/8 294/26/8 290/25/8
f 91/26/8 92/103/8 295/103/8 291/26/8
f 291/26/8 295/103/8 296/103/8 292/26/8
f 293/26/8 297/27/8 298/27/8 294/26/8
f 92/103/8 93/28/8 299/28/8 295/103/8
f 295/103/8 299/28/8 300/28/8 296/103/8
f 297/27/8 304/28/8 305/28/8 298/27/8
f 93/28/8 94/29/8 306/29/8 299/28/8
f 299/28/8 306/29/8 307/70/8 300/28/8
f 300/28/8 307/70/8 308/70/8 301/104/8
f 301/104/8 308/70/8 309/70/8 302/104/8
f 302/104/8 309/70/8 310/70/8 303/28/8
f 303/28/8 310/70/8 311/70/8 304/28/8
f 304/28/8 311/70/8 312/70/8 305/28/8
f 94/29/8 15/30/8 137/30/8 306/29/8
f 306/29/8 137/30/8 138/30/8 307/70/8
f 307/70/8 138/30/8 139/30/8 308/70/8
f 308/70/8 139/30/8 140/30/8 309/70/8
f 309/70/8 140/30/8 141/30/8 310/70/8
f 310/70/8 141/30/8 142/30/8 311/70/8
f 311/70/8 142/30/8 143/30/8 312/70/8
f 115/38/14 319/105/14 129/39/14 66/38/14
f 319/105/14 326/106/14 128/40/14 129/39/14
f 326/106/14 330/107/14 127/41/14 128/40/14
f 330/107/14 334/42/14 126/42/14 127/41/14
f 334/42/14 338/43/14 125/43/14 126/42/14
f 338/43/14 345/108/14 124/44/14 125/43/14
f 345/108/14 352/45/14 123/45/14 124/44/14
f 14/38/14 95/39/14 313/39/14 109/38/14
f 109/38/14 313/39/14 314/39/14 110/38/14
f 110/38/14 314/39/14 315/39/14 111/69/14
f 111/69/14 315/39/14 316/39/14 112/69/14
f 112/69/14 316/39/14 317/39/14 113/69/14
f 113/69/14 317/39/14 318/105/14 114/69/14
f 114/69/14 318/105/14 319/105/14 115/38/14
f 95/39/14 96/109/14 320/40/14 313/39/14
f 313/39/14 320/40/14 321/40/14 314/39/14
f 314/39/14 321/40/14 322/110/14 315/39/14
f 315/39/14 322/110/14 323/111/14 316/39/14
f 316/39/14 323/111/14 324/40/14 317/39/14
f 317/39/14 324/40/14 325/106/14 318/105/14
f 318/105/14 325/106/14 326/106/14 319/105/14
f 96/109/14 97/112/14 327/113/14 320/40/14
f 320/40/14 327/113/14 328/113/14 321/40/14
f 325/106/14 329/107/14 330/107/14 326/106/14
f 97/112/14 98/114/14 331/114/14 327/113/14
f 327/113/14 331/114/14 332/115/14 328/113/14
f 329/107/14 333/42/14 334/42/14 330/107/14
f 98/114/14 99/116/14 335/116/14 331/114/14
f 331/114/14 335/116/14 336/116/14 332/115/14
f 333/42/14 337/43/14 338/43/14 334/42/14
f 99/116/14 100/117/14 339/44/14 335/116/14
f 335/116/14 339/44/14 340/118/14 336/116/14
f 337/43/14 344/108/14 345/108/14 338/43/14
f 100/117/14 101/119/14 346/119/14 339/44/14
f 339/44/14 346/119/14 347/120/14 340/118/14
f 340/118/14 347/120/14 348/120/14 341/118/14
f 341/118/14 348/120/14 349/45/14 342/118/14
f 342/118/14 349/45/14 350/45/14 343/118/14
f 343/118/14 350/45/14 351/45/14 344/108/14
f 344/108/14 351/45/14 352/45/14 345/108/14
f 101/119/14 31/47/14 116/47/14 346/119/14
f 346/119/14 116/47/14 117/47/14 347/120/14
f 347/120/14 117/47/14 118/47/14 348/120/14
f 348/120/14 118/47/14 119/47/14 349/45/14
f 349/45/14 119/47/14 120/47/14 350/45/14
f 350/45/14 120/47/14 121/47/14 351/45/14
f 351/45/14 121/47/14 122/47/14 352/45/14
