# Blender 5.2.0 LTS
# www.blender.org
mtllib mrrw.mtl
o Cube.015
v 93.151108 0.225000 1.672118
v 93.151108 1.975000 1.672118
v 92.327881 1.975000 0.848895
v 92.327881 0.225000 0.848895
v 93.151108 1.975000 -1.672118
v 93.151108 0.225000 -1.672118
v 92.327881 0.225000 -0.848895
v 92.327881 1.975000 -0.848895
v 95.672119 1.975000 -0.848895
v 95.672119 0.225000 -0.848895
v 94.848892 0.225000 -1.672118
v 94.848892 1.975000 -1.672118
v 94.848892 1.975000 1.672118
v 94.848892 0.225000 1.672118
v 95.672119 0.225000 0.848895
v 95.672119 1.975000 0.848895
v 92.338692 0.225000 0.875000
v 92.338692 1.975000 0.875000
v 92.338692 1.975000 -0.875000
v 92.338692 0.225000 -0.875000
v 94.875000 0.225000 1.661305
v 94.875000 1.975000 1.661305
v 93.125000 1.975000 1.661305
v 93.125000 0.225000 1.661305
v 93.125000 0.225000 -1.661305
v 93.125000 1.975000 -1.661305
v 94.875000 1.975000 -1.661305
v 94.875000 0.225000 -1.661305
v 95.661308 0.225000 -0.875000
v 95.661308 1.975000 -0.875000
v 95.661308 1.975000 0.875000
v 95.661308 0.225000 0.875000
v 93.151108 2.225000 1.672118
v 93.151108 3.975000 1.672118
v 92.327881 3.975000 0.848895
v 92.327881 2.225000 0.848895
v 93.151108 3.975000 -1.672118
v 93.151108 2.225000 -1.672118
v 92.327881 2.225000 -0.848895
v 92.327881 3.975000 -0.848895
v 95.672119 3.975000 -0.848895
v 95.672119 2.225000 -0.848895
v 94.848892 2.225000 -1.672118
v 94.848892 3.975000 -1.672118
v 94.848892 3.975000 1.672118
v 94.848892 2.225000 1.672118
v 95.672119 2.225000 0.848895
v 95.672119 3.975000 0.848895
v 92.338692 2.225000 0.875000
v 92.338692 3.975000 0.875000
v 92.338692 3.975000 -0.875000
v 92.338692 2.225000 -0.875000
v 94.875000 2.225000 1.661305
v 94.875000 3.975000 1.661305
v 93.125000 3.975000 1.661305
v 93.125000 2.225000 1.661305
v 93.125000 2.225000 -1.661305
v 93.125000 3.975000 -1.661305
v 94.875000 3.975000 -1.661305
v 94.875000 2.225000 -1.661305
v 95.661308 2.225000 -0.875000
v 95.661308 3.975000 -0.875000
v 95.661308 3.975000 0.875000
v 95.661308 2.225000 0.875000
v 93.151108 4.225000 1.672118
v 93.151108 5.975000 1.672118
v 92.327881 5.975000 0.848895
v 92.327881 4.225000 0.848895
v 93.151108 5.975000 -1.672118
v 93.151108 4.225000 -1.672118
v 92.327881 4.225000 -0.848895
v 92.327881 5.975000 -0.848895
v 95.672119 5.975000 -0.848895
v 95.672119 4.225000 -0.848895
v 94.848892 4.225000 -1.672118
v 94.848892 5.975000 -1.672118
v 94.848892 5.975000 1.672118
v 94.848892 4.225000 1.672118
v 95.672119 4.225000 0.848895
v 95.672119 5.975000 0.848895
v 92.338692 4.225000 0.875000
v 92.338692 5.975000 0.875000
v 92.338692 5.975000 -0.875000
v 92.338692 4.225000 -0.875000
v 94.875000 4.225000 1.661305
v 94.875000 5.975000 1.661305
v 93.125000 5.975000 1.661305
v 93.125000 4.225000 1.661305
v 93.125000 4.225000 -1.661305
v 93.125000 5.975000 -1.661305
v 94.875000 5.975000 -1.661305
v 94.875000 4.225000 -1.661305
v 95.661308 4.225000 -0.875000
v 95.661308 5.975000 -0.875000
v 95.661308 5.975000 0.875000
v 95.661308 4.225000 0.875000
v 92.818916 0.543249 1.554234
v 92.999771 0.349679 1.647131
v 92.846069 0.506426 1.579160
v 92.881294 0.463872 1.604115
v 92.922890 0.419346 1.625484
v 92.963692 0.380526 1.639581
v 92.999771 1.850322 1.647131
v 92.818916 1.656751 1.554234
v 92.963692 1.819474 1.639581
v 92.922890 1.780654 1.625484
v 92.881294 1.736128 1.604116
v 92.846069 1.693574 1.579160
v 92.352867 1.850322 1.000230
v 92.445770 1.656751 1.181083
v 92.360420 1.819474 1.036305
v 92.374519 1.780654 1.077108
v 92.395882 1.736128 1.118708
v 92.420837 1.693574 1.153933
v 92.445770 0.543249 1.181083
v 92.352867 0.349679 1.000230
v 92.420837 0.506426 1.153933
v 92.395882 0.463872 1.118708
v 92.374519 0.419346 1.077108
v 92.360420 0.380526 1.036305
v 92.818916 1.656751 -1.554234
v 92.999771 1.850322 -1.647131
v 92.846069 1.693574 -1.579160
v 92.881294 1.736128 -1.604115
v 92.922890 1.780654 -1.625484
v 92.963692 1.819474 -1.639581
v 92.999771 0.349679 -1.647131
v 92.818916 0.543249 -1.554234
v 92.963692 0.380526 -1.639581
v 92.922890 0.419346 -1.625484
v 92.881294 0.463872 -1.604116
v 92.846069 0.506426 -1.579160
v 92.352867 0.349679 -1.000230
v 92.445770 0.543249 -1.181083
v 92.360420 0.380526 -1.036305
v 92.374519 0.419346 -1.077108
v 92.395882 0.463872 -1.118708
v 92.420837 0.506426 -1.153933
v 92.445770 1.656751 -1.181083
v 92.352867 1.850322 -1.000230
v 92.420837 1.693574 -1.153933
v 92.395882 1.736128 -1.118708
v 92.374519 1.780654 -1.077108
v 92.360420 1.819474 -1.036305
v 95.554230 1.656751 -1.181083
v 95.647133 1.850322 -1.000230
v 95.579163 1.693574 -1.153933
v 95.604118 1.736128 -1.118708
v 95.625481 1.780654 -1.077108
v 95.639580 1.819474 -1.036305
v 95.647133 0.349679 -1.000230
v 95.554230 0.543249 -1.181083
v 95.639580 0.380526 -1.036305
v 95.625481 0.419346 -1.077108
v 95.604118 0.463872 -1.118708
v 95.579163 0.506426 -1.153933
v 95.000229 0.349679 -1.647131
v 95.181084 0.543249 -1.554234
v 95.036308 0.380526 -1.639581
v 95.077110 0.419346 -1.625484
v 95.118706 0.463872 -1.604115
v 95.153931 0.506426 -1.579160
v 95.181084 1.656751 -1.554234
v 95.000229 1.850322 -1.647131
v 95.153931 1.693574 -1.579160
v 95.118706 1.736128 -1.604116
v 95.077110 1.780654 -1.625484
v 95.036308 1.819474 -1.639581
v 95.181084 1.656751 1.554234
v 95.000229 1.850322 1.647131
v 95.153931 1.693574 1.579160
v 95.118706 1.736128 1.604115
v 95.077110 1.780654 1.625484
v 95.036308 1.819474 1.639581
v 95.000229 0.349679 1.647131
v 95.181084 0.543249 1.554234
v 95.036308 0.380526 1.639581
v 95.077110 0.419346 1.625484
v 95.118706 0.463872 1.604116
v 95.153931 0.506426 1.579160
v 95.647133 0.349679 1.000230
v 95.554230 0.543249 1.181083
v 95.639580 0.380526 1.036305
v 95.625481 0.419346 1.077108
v 95.604118 0.463872 1.118708
v 95.579163 0.506426 1.153933
v 95.554230 1.656751 1.181083
v 95.647133 1.850322 1.000230
v 95.579163 1.693574 1.153933
v 95.604118 1.736128 1.118708
v 95.625481 1.780654 1.077108
v 95.639580 1.819474 1.036305
v 92.187157 0.543249 0.556751
v 92.249352 0.349679 0.750321
v 92.188728 0.506426 0.593574
v 92.195992 0.463872 0.636128
v 92.210297 0.419346 0.680654
v 92.229187 0.380527 0.719473
v 92.249352 1.850322 0.750321
v 92.187157 1.656751 0.556751
v 92.229187 1.819474 0.719473
v 92.210297 1.780654 0.680654
v 92.195992 1.736128 0.636128
v 92.188728 1.693574 0.593574
v 92.249352 1.850322 -0.750321
v 92.187157 1.656751 -0.556751
v 92.229187 1.819474 -0.719473
v 92.210297 1.780654 -0.680654
v 92.195992 1.736128 -0.636128
v 92.188728 1.693574 -0.593574
v 92.187157 0.543249 -0.556751
v 92.249352 0.349679 -0.750321
v 92.188728 0.506426 -0.593574
v 92.195992 0.463872 -0.636128
v 92.210297 0.419346 -0.680654
v 92.229187 0.380527 -0.719473
v 94.556747 0.543249 1.812840
v 94.750320 0.349679 1.750646
v 94.593575 0.506426 1.811268
v 94.636131 0.463872 1.804007
v 94.680656 0.419346 1.789701
v 94.719475 0.380527 1.770817
v 94.750320 1.850322 1.750646
v 94.556747 1.656751 1.812840
v 94.719475 1.819474 1.770817
v 94.680656 1.780654 1.789701
v 94.636131 1.736128 1.804007
v 94.593575 1.693574 1.811268
v 93.249680 1.850322 1.750646
v 93.443253 1.656751 1.812840
v 93.280525 1.819474 1.770817
v 93.319344 1.780654 1.789701
v 93.363869 1.736128 1.804007
v 93.406425 1.693574 1.811268
v 93.443253 0.543249 1.812840
v 93.249680 0.349679 1.750646
v 93.406425 0.506426 1.811268
v 93.363869 0.463872 1.804007
v 93.319344 0.419346 1.789701
v 93.280525 0.380527 1.770817
v 93.443253 0.543249 -1.812840
v 93.249680 0.349679 -1.750646
v 93.406425 0.506426 -1.811268
v 93.363869 0.463872 -1.804007
v 93.319344 0.419346 -1.789701
v 93.280525 0.380527 -1.770817
v 93.249680 1.850322 -1.750646
v 93.443253 1.656751 -1.812840
v 93.280525 1.819474 -1.770817
v 93.319344 1.780654 -1.789701
v 93.363869 1.736128 -1.804007
v 93.406425 1.693574 -1.811268
v 94.750320 1.850322 -1.750646
v 94.556747 1.656751 -1.812840
v 94.719475 1.819474 -1.770817
v 94.680656 1.780654 -1.789701
v 94.636131 1.736128 -1.804007
v 94.593575 1.693574 -1.811268
v 94.556747 0.543249 -1.812840
v 94.750320 0.349679 -1.750646
v 94.593575 0.506426 -1.811268
v 94.636131 0.463872 -1.804007
v 94.680656 0.419346 -1.789701
v 94.719475 0.380527 -1.770817
v 95.812843 0.543249 -0.556751
v 95.750648 0.349679 -0.750321
v 95.811272 0.506426 -0.593574
v 95.804008 0.463872 -0.636128
v 95.789703 0.419346 -0.680654
v 95.770813 0.380527 -0.719473
v 95.750648 1.850322 -0.750321
v 95.812843 1.656751 -0.556751
v 95.770813 1.819474 -0.719473
v 95.789703 1.780654 -0.680654
v 95.804008 1.736128 -0.636128
v 95.811272 1.693574 -0.593574
v 95.750648 1.850322 0.750321
v 95.812843 1.656751 0.556751
v 95.770813 1.819474 0.719473
v 95.789703 1.780654 0.680654
v 95.804008 1.736128 0.636128
v 95.811272 1.693574 0.593574
v 95.812843 0.543249 0.556751
v 95.750648 0.349679 0.750321
v 95.811272 0.506426 0.593574
v 95.804008 0.463872 0.636128
v 95.789703 0.419346 0.680654
v 95.770813 0.380527 0.719473
v 92.818916 2.543249 1.554234
v 92.999771 2.349679 1.647131
v 92.846069 2.506426 1.579160
v 92.881294 2.463872 1.604115
v 92.922890 2.419346 1.625484
v 92.963692 2.380527 1.639581
v 92.999771 3.850321 1.647131
v 92.818916 3.656751 1.554234
v 92.963692 3.819473 1.639581
v 92.922890 3.780653 1.625484
v 92.881294 3.736128 1.604115
v 92.846069 3.693574 1.579160
v 92.352867 3.850322 1.000230
v 92.445770 3.656751 1.181083
v 92.360420 3.819474 1.036305
v 92.374519 3.780654 1.077108
v 92.395882 3.736128 1.118708
v 92.420837 3.693574 1.153933
v 92.445770 2.543249 1.181083
v 92.352867 2.349679 1.000230
v 92.420837 2.506426 1.153933
v 92.395882 2.463872 1.118708
v 92.374519 2.419346 1.077108
v 92.360420 2.380527 1.036305
v 92.818916 3.656751 -1.554234
v 92.999771 3.850322 -1.647131
v 92.846069 3.693574 -1.579160
v 92.881294 3.736128 -1.604115
v 92.922890 3.780654 -1.625484
v 92.963692 3.819474 -1.639581
v 92.999771 2.349679 -1.647131
v 92.818916 2.543249 -1.554234
v 92.963692 2.380527 -1.639581
v 92.922890 2.419346 -1.625484
v 92.881294 2.463872 -1.604115
v 92.846069 2.506426 -1.579160
v 92.352867 2.349679 -1.000230
v 92.445770 2.543249 -1.181083
v 92.360420 2.380527 -1.036305
v 92.374519 2.419346 -1.077108
v 92.395882 2.463872 -1.118708
v 92.420837 2.506426 -1.153933
v 92.445770 3.656751 -1.181083
v 92.352867 3.850321 -1.000230
v 92.420837 3.693574 -1.153933
v 92.395882 3.736128 -1.118708
v 92.374519 3.780653 -1.077108
v 92.360420 3.819473 -1.036305
v 95.554230 3.656751 -1.181083
v 95.647133 3.850322 -1.000230
v 95.579163 3.693574 -1.153933
v 95.604118 3.736128 -1.118708
v 95.625481 3.780654 -1.077108
v 95.639580 3.819474 -1.036305
v 95.647133 2.349679 -1.000230
v 95.554230 2.543249 -1.181083
v 95.639580 2.380527 -1.036305
v 95.625481 2.419346 -1.077108
v 95.604118 2.463872 -1.118708
v 95.579163 2.506426 -1.153933
v 95.000229 2.349679 -1.647131
v 95.181084 2.543249 -1.554234
v 95.036308 2.380527 -1.639581
v 95.077110 2.419346 -1.625484
v 95.118706 2.463872 -1.604115
v 95.153931 2.506426 -1.579160
v 95.181084 3.656751 -1.554234
v 95.000229 3.850321 -1.647131
v 95.153931 3.693574 -1.579160
v 95.118706 3.736128 -1.604115
v 95.077110 3.780653 -1.625484
v 95.036308 3.819473 -1.639581
v 95.181084 3.656751 1.554234
v 95.000229 3.850322 1.647131
v 95.153931 3.693574 1.579160
v 95.118706 3.736128 1.604115
v 95.077110 3.780654 1.625484
v 95.036308 3.819474 1.639581
v 95.000229 2.349679 1.647131
v 95.181084 2.543249 1.554234
v 95.036308 2.380527 1.639581
v 95.077110 2.419346 1.625484
v 95.118706 2.463872 1.604115
v 95.153931 2.506426 1.579160
v 95.647133 2.349679 1.000230
v 95.554230 2.543249 1.181083
v 95.639580 2.380527 1.036305
v 95.625481 2.419346 1.077108
v 95.604118 2.463872 1.118708
v 95.579163 2.506426 1.153933
v 95.554230 3.656751 1.181083
v 95.647133 3.850321 1.000230
v 95.579163 3.693574 1.153933
v 95.604118 3.736128 1.118708
v 95.625481 3.780653 1.077108
v 95.639580 3.819473 1.036305
v 92.187157 2.543249 0.556751
v 92.249352 2.349679 0.750321
v 92.188728 2.506426 0.593574
v 92.195992 2.463872 0.636128
v 92.210297 2.419346 0.680654
v 92.229187 2.380527 0.719473
v 92.249352 3.850321 0.750321
v 92.187157 3.656751 0.556751
v 92.229187 3.819473 0.719473
v 92.210297 3.780653 0.680654
v 92.195992 3.736128 0.636128
v 92.188728 3.693574 0.593574
v 92.249352 3.850321 -0.750321
v 92.187157 3.656751 -0.556751
v 92.229187 3.819473 -0.719473
v 92.210297 3.780653 -0.680654
v 92.195992 3.736128 -0.636128
v 92.188728 3.693574 -0.593574
v 92.187157 2.543249 -0.556751
v 92.249352 2.349679 -0.750321
v 92.188728 2.506426 -0.593574
v 92.195992 2.463872 -0.636128
v 92.210297 2.419346 -0.680654
v 92.229187 2.380527 -0.719473
v 94.556747 2.543249 1.812840
v 94.750320 2.349679 1.750646
v 94.593575 2.506426 1.811268
v 94.636131 2.463872 1.804007
v 94.680656 2.419346 1.789701
v 94.719475 2.380527 1.770817
v 94.750320 3.850321 1.750646
v 94.556747 3.656751 1.812840
v 94.719475 3.819473 1.770817
v 94.680656 3.780653 1.789701
v 94.636131 3.736128 1.804007
v 94.593575 3.693574 1.811268
v 93.249680 3.850321 1.750646
v 93.443253 3.656751 1.812840
v 93.280525 3.819473 1.770817
v 93.319344 3.780653 1.789701
v 93.363869 3.736128 1.804007
v 93.406425 3.693574 1.811268
v 93.443253 2.543249 1.812840
v 93.249680 2.349679 1.750646
v 93.406425 2.506426 1.811268
v 93.363869 2.463872 1.804007
v 93.319344 2.419346 1.789701
v 93.280525 2.380527 1.770817
v 93.443253 2.543249 -1.812840
v 93.249680 2.349679 -1.750646
v 93.406425 2.506426 -1.811268
v 93.363869 2.463872 -1.804007
v 93.319344 2.419346 -1.789701
v 93.280525 2.380527 -1.770817
v 93.249680 3.850321 -1.750646
v 93.443253 3.656751 -1.812840
v 93.280525 3.819473 -1.770817
v 93.319344 3.780653 -1.789701
v 93.363869 3.736128 -1.804007
v 93.406425 3.693574 -1.811268
v 94.750320 3.850321 -1.750646
v 94.556747 3.656751 -1.812840
v 94.719475 3.819473 -1.770817
v 94.680656 3.780653 -1.789701
v 94.636131 3.736128 -1.804007
v 94.593575 3.693574 -1.811268
v 94.556747 2.543249 -1.812840
v 94.750320 2.349679 -1.750646
v 94.593575 2.506426 -1.811268
v 94.636131 2.463872 -1.804007
v 94.680656 2.419346 -1.789701
v 94.719475 2.380527 -1.770817
v 95.812843 2.543249 -0.556751
v 95.750648 2.349679 -0.750321
v 95.811272 2.506426 -0.593574
v 95.804008 2.463872 -0.636128
v 95.789703 2.419346 -0.680654
v 95.770813 2.380527 -0.719473
v 95.750648 3.850321 -0.750321
v 95.812843 3.656751 -0.556751
v 95.770813 3.819473 -0.719473
v 95.789703 3.780653 -0.680654
v 95.804008 3.736128 -0.636128
v 95.811272 3.693574 -0.593574
v 95.750648 3.850321 0.750321
v 95.812843 3.656751 0.556751
v 95.770813 3.819473 0.719473
v 95.789703 3.780653 0.680654
v 95.804008 3.736128 0.636128
v 95.811272 3.693574 0.593574
v 95.812843 2.543249 0.556751
v 95.750648 2.349679 0.750321
v 95.811272 2.506426 0.593574
v 95.804008 2.463872 0.636128
v 95.789703 2.419346 0.680654
v 95.770813 2.380527 0.719473
v 92.818916 4.543250 1.554234
v 92.999771 4.349679 1.647131
v 92.846069 4.506426 1.579160
v 92.881294 4.463872 1.604115
v 92.922890 4.419346 1.625484
v 92.963692 4.380527 1.639581
v 92.999771 5.850321 1.647131
v 92.818916 5.656750 1.554234
v 92.963692 5.819473 1.639581
v 92.922890 5.780653 1.625484
v 92.881294 5.736128 1.604115
v 92.846069 5.693574 1.579160
v 92.352867 5.850321 1.000230
v 92.445770 5.656750 1.181083
v 92.360420 5.819473 1.036305
v 92.374519 5.780653 1.077108
v 92.395882 5.736128 1.118708
v 92.420837 5.693574 1.153933
v 92.445770 4.543250 1.181083
v 92.352867 4.349679 1.000230
v 92.420837 4.506426 1.153933
v 92.395882 4.463872 1.118708
v 92.374519 4.419346 1.077108
v 92.360420 4.380527 1.036305
v 92.818916 5.656750 -1.554234
v 92.999771 5.850321 -1.647131
v 92.846069 5.693574 -1.579160
v 92.881294 5.736128 -1.604115
v 92.922890 5.780653 -1.625484
v 92.963692 5.819473 -1.639581
v 92.999771 4.349679 -1.647131
v 92.818916 4.543250 -1.554234
v 92.963692 4.380527 -1.639581
v 92.922890 4.419346 -1.625484
v 92.881294 4.463872 -1.604115
v 92.846069 4.506426 -1.579160
v 92.352867 4.349679 -1.000230
v 92.445770 4.543250 -1.181083
v 92.360420 4.380527 -1.036305
v 92.374519 4.419346 -1.077108
v 92.395882 4.463872 -1.118708
v 92.420837 4.506426 -1.153933
v 92.445770 5.656750 -1.181083
v 92.352867 5.850321 -1.000230
v 92.420837 5.693574 -1.153933
v 92.395882 5.736128 -1.118708
v 92.374519 5.780653 -1.077108
v 92.360420 5.819473 -1.036305
v 95.554230 5.656750 -1.181083
v 95.647133 5.850321 -1.000230
v 95.579163 5.693574 -1.153933
v 95.604118 5.736128 -1.118708
v 95.625481 5.780653 -1.077108
v 95.639580 5.819473 -1.036305
v 95.647133 4.349679 -1.000230
v 95.554230 4.543250 -1.181083
v 95.639580 4.380527 -1.036305
v 95.625481 4.419346 -1.077108
v 95.604118 4.463872 -1.118708
v 95.579163 4.506426 -1.153933
v 95.000229 4.349679 -1.647131
v 95.181084 4.543250 -1.554234
v 95.036308 4.380527 -1.639581
v 95.077110 4.419346 -1.625484
v 95.118706 4.463872 -1.604115
v 95.153931 4.506426 -1.579160
v 95.181084 5.656750 -1.554234
v 95.000229 5.850321 -1.647131
v 95.153931 5.693574 -1.579160
v 95.118706 5.736128 -1.604115
v 95.077110 5.780653 -1.625484
v 95.036308 5.819473 -1.639581
v 95.181084 5.656750 1.554234
v 95.000229 5.850321 1.647131
v 95.153931 5.693574 1.579160
v 95.118706 5.736128 1.604115
v 95.077110 5.780653 1.625484
v 95.036308 5.819473 1.639581
v 95.000229 4.349679 1.647131
v 95.181084 4.543250 1.554234
v 95.036308 4.380527 1.639581
v 95.077110 4.419346 1.625484
v 95.118706 4.463872 1.604115
v 95.153931 4.506426 1.579160
v 95.647133 4.349679 1.000230
v 95.554230 4.543250 1.181083
v 95.639580 4.380527 1.036305
v 95.625481 4.419346 1.077108
v 95.604118 4.463872 1.118708
v 95.579163 4.506426 1.153933
v 95.554230 5.656750 1.181083
v 95.647133 5.850321 1.000230
v 95.579163 5.693574 1.153933
v 95.604118 5.736128 1.118708
v 95.625481 5.780653 1.077108
v 95.639580 5.819473 1.036305
v 92.187157 4.543250 0.556751
v 92.249352 4.349679 0.750321
v 92.188728 4.506426 0.593574
v 92.195992 4.463872 0.636128
v 92.210297 4.419346 0.680654
v 92.229187 4.380527 0.719473
v 92.249352 5.850321 0.750321
v 92.187157 5.656750 0.556751
v 92.229187 5.819473 0.719473
v 92.210297 5.780653 0.680654
v 92.195992 5.736128 0.636128
v 92.188728 5.693574 0.593574
v 92.249352 5.850321 -0.750321
v 92.187157 5.656750 -0.556751
v 92.229187 5.819473 -0.719473
v 92.210297 5.780653 -0.680654
v 92.195992 5.736128 -0.636128
v 92.188728 5.693574 -0.593574
v 92.187157 4.543250 -0.556751
v 92.249352 4.349679 -0.750321
v 92.188728 4.506426 -0.593574
v 92.195992 4.463872 -0.636128
v 92.210297 4.419346 -0.680654
v 92.229187 4.380527 -0.719473
v 94.556747 4.543250 1.812840
v 94.750320 4.349679 1.750646
v 94.593575 4.506426 1.811268
v 94.636131 4.463872 1.804007
v 94.680656 4.419346 1.789701
v 94.719475 4.380527 1.770817
v 94.750320 5.850321 1.750646
v 94.556747 5.656750 1.812840
v 94.719475 5.819473 1.770817
v 94.680656 5.780653 1.789701
v 94.636131 5.736128 1.804007
v 94.593575 5.693574 1.811268
v 93.249680 5.850321 1.750646
v 93.443253 5.656750 1.812840
v 93.280525 5.819473 1.770817
v 93.319344 5.780653 1.789701
v 93.363869 5.736128 1.804007
v 93.406425 5.693574 1.811268
v 93.443253 4.543250 1.812840
v 93.249680 4.349679 1.750646
v 93.406425 4.506426 1.811268
v 93.363869 4.463872 1.804007
v 93.319344 4.419346 1.789701
v 93.280525 4.380527 1.770817
v 93.443253 4.543250 -1.812840
v 93.249680 4.349679 -1.750646
v 93.406425 4.506426 -1.811268
v 93.363869 4.463872 -1.804007
v 93.319344 4.419346 -1.789701
v 93.280525 4.380527 -1.770817
v 93.249680 5.850321 -1.750646
v 93.443253 5.656750 -1.812840
v 93.280525 5.819473 -1.770817
v 93.319344 5.780653 -1.789701
v 93.363869 5.736128 -1.804007
v 93.406425 5.693574 -1.811268
v 94.750320 5.850321 -1.750646
v 94.556747 5.656750 -1.812840
v 94.719475 5.819473 -1.770817
v 94.680656 5.780653 -1.789701
v 94.636131 5.736128 -1.804007
v 94.593575 5.693574 -1.811268
v 94.556747 4.543250 -1.812840
v 94.750320 4.349679 -1.750646
v 94.593575 4.506426 -1.811268
v 94.636131 4.463872 -1.804007
v 94.680656 4.419346 -1.789701
v 94.719475 4.380527 -1.770817
v 95.812843 4.543250 -0.556751
v 95.750648 4.349679 -0.750321
v 95.811272 4.506426 -0.593574
v 95.804008 4.463872 -0.636128
v 95.789703 4.419346 -0.680654
v 95.770813 4.380527 -0.719473
v 95.750648 5.850321 -0.750321
v 95.812843 5.656750 -0.556751
v 95.770813 5.819473 -0.719473
v 95.789703 5.780653 -0.680654
v 95.804008 5.736128 -0.636128
v 95.811272 5.693574 -0.593574
v 95.750648 5.850321 0.750321
v 95.812843 5.656750 0.556751
v 95.770813 5.819473 0.719473
v 95.789703 5.780653 0.680654
v 95.804008 5.736128 0.636128
v 95.811272 5.693574 0.593574
v 95.812843 4.543250 0.556751
v 95.750648 4.349679 0.750321
v 95.811272 4.506426 0.593574
v 95.804008 4.463872 0.636128
v 95.789703 4.419346 0.680654
v 95.770813 4.380527 0.719473
vn -0.4048 -0.3196 0.8567
vn -0.4048 0.3196 0.8567
vn -0.8567 0.3196 0.4048
vn -0.8567 -0.3196 0.4048
vn -0.4048 0.3196 -0.8567
vn -0.4048 -0.3196 -0.8567
vn -0.8567 -0.3196 -0.4048
vn -0.8567 0.3196 -0.4048
vn 0.8567 0.3196 -0.4048
vn 0.8567 -0.3196 -0.4048
vn 0.4048 -0.3196 -0.8567
vn 0.4048 0.3196 -0.8567
vn 0.4048 0.3196 0.8567
vn 0.4048 -0.3196 0.8567
vn 0.8567 -0.3196 0.4048
vn 0.8567 0.3196 0.4048
vn -0.8920 -0.3196 0.3196
vn -0.8920 0.3196 0.3196
vn -0.8920 0.3196 -0.3196
vn -0.8920 -0.3196 -0.3196
vn 0.3196 -0.3196 0.8920
vn 0.3196 0.3196 0.8920
vn -0.3196 0.3196 0.8920
vn -0.3196 -0.3196 0.8920
vn -0.3196 -0.3196 -0.8920
vn -0.3196 0.3196 -0.8920
vn 0.3196 0.3196 -0.8920
vn 0.3196 -0.3196 -0.8920
vn 0.8920 -0.3196 -0.3196
vn 0.8920 0.3196 -0.3196
vn 0.8920 0.3196 0.3196
vn 0.8920 -0.3196 0.3196
vn -0.4048 0.3196 0.8568
vn -0.4048 0.3196 -0.8568
vn 0.4048 0.3196 -0.8568
vn -0.6956 -0.0160 0.7182
vn -0.4125 -0.3132 0.8554
vn -0.6551 -0.0688 0.7524
vn -0.5956 -0.1383 0.7913
vn -0.5259 -0.2108 0.8240
vn -0.4529 -0.2786 0.8469
vn -0.4125 0.3132 0.8554
vn -0.6956 0.0160 0.7182
vn -0.4529 0.2786 0.8469
vn -0.5259 0.2108 0.8240
vn -0.5956 0.1383 0.7913
vn -0.6551 0.0688 0.7524
vn -0.8554 0.3132 0.4125
vn -0.7182 0.0160 0.6956
vn -0.8469 0.2786 0.4529
vn -0.8240 0.2108 0.5259
vn -0.7913 0.1383 0.5956
vn -0.7524 0.0688 0.6551
vn -0.7182 -0.0160 0.6956
vn -0.8554 -0.3132 0.4125
vn -0.7524 -0.0688 0.6551
vn -0.7912 -0.1383 0.5956
vn -0.8240 -0.2108 0.5259
vn -0.8469 -0.2786 0.4529
vn -0.6956 0.0160 -0.7182
vn -0.4125 0.3132 -0.8554
vn -0.6551 0.0688 -0.7524
vn -0.5956 0.1383 -0.7913
vn -0.5259 0.2108 -0.8240
vn -0.4529 0.2786 -0.8469
vn -0.4125 -0.3132 -0.8554
vn -0.6956 -0.0160 -0.7182
vn -0.4529 -0.2786 -0.8469
vn -0.5259 -0.2108 -0.8240
vn -0.5956 -0.1383 -0.7913
vn -0.6551 -0.0688 -0.7524
vn -0.8554 -0.3132 -0.4125
vn -0.7182 -0.0160 -0.6956
vn -0.8469 -0.2786 -0.4529
vn -0.8240 -0.2108 -0.5259
vn -0.7913 -0.1383 -0.5956
vn -0.7524 -0.0688 -0.6551
vn -0.7182 0.0160 -0.6956
vn -0.8554 0.3132 -0.4125
vn -0.7524 0.0688 -0.6551
vn -0.7912 0.1383 -0.5956
vn -0.8240 0.2108 -0.5259
vn -0.8469 0.2786 -0.4529
vn 0.7182 0.0160 -0.6956
vn 0.8554 0.3132 -0.4125
vn 0.7524 0.0688 -0.6551
vn 0.7913 0.1383 -0.5956
vn 0.8240 0.2108 -0.5259
vn 0.8469 0.2786 -0.4529
vn 0.8554 -0.3132 -0.4125
vn 0.7182 -0.0160 -0.6956
vn 0.8469 -0.2786 -0.4529
vn 0.8240 -0.2108 -0.5259
vn 0.7912 -0.1383 -0.5956
vn 0.7524 -0.0688 -0.6551
vn 0.4125 -0.3132 -0.8554
vn 0.6956 -0.0160 -0.7182
vn 0.4529 -0.2786 -0.8469
vn 0.5259 -0.2108 -0.8240
vn 0.5956 -0.1383 -0.7913
vn 0.6551 -0.0688 -0.7524
vn 0.6956 0.0160 -0.7182
vn 0.4125 0.3132 -0.8554
vn 0.6551 0.0688 -0.7524
vn 0.5956 0.1383 -0.7913
vn 0.5259 0.2108 -0.8240
vn 0.4529 0.2786 -0.8469
vn 0.6956 0.0160 0.7182
vn 0.4125 0.3132 0.8554
vn 0.6551 0.0688 0.7524
vn 0.5956 0.1383 0.7913
vn 0.5259 0.2108 0.8240
vn 0.4529 0.2786 0.8469
vn 0.4125 -0.3132 0.8554
vn 0.6956 -0.0160 0.7182
vn 0.4529 -0.2786 0.8469
vn 0.5259 -0.2108 0.8240
vn 0.5956 -0.1383 0.7913
vn 0.6551 -0.0688 0.7524
vn 0.8554 -0.3132 0.4125
vn 0.7182 -0.0160 0.6956
vn 0.8469 -0.2786 0.4529
vn 0.8240 -0.2108 0.5259
vn 0.7913 -0.1383 0.5956
vn 0.7524 -0.0688 0.6551
vn 0.7182 0.0160 0.6956
vn 0.8554 0.3132 0.4125
vn 0.7524 0.0688 0.6551
vn 0.7912 0.1383 0.5956
vn 0.8240 0.2108 0.5259
vn 0.8469 0.2786 0.4529
vn -0.9997 -0.0160 0.0160
vn -0.8966 -0.3132 0.3132
vn -0.9953 -0.0688 0.0688
vn -0.9807 -0.1383 0.1383
vn -0.9545 -0.2108 0.2108
vn -0.9191 -0.2786 0.2786
vn -0.8966 0.3132 0.3132
vn -0.9997 0.0160 0.0160
vn -0.9191 0.2786 0.2786
vn -0.9545 0.2108 0.2108
vn -0.9807 0.1383 0.1383
vn -0.9953 0.0688 0.0688
vn -0.8966 0.3132 -0.3132
vn -0.9997 0.0160 -0.0160
vn -0.9191 0.2786 -0.2786
vn -0.9545 0.2108 -0.2108
vn -0.9807 0.1383 -0.1383
vn -0.9953 0.0688 -0.0688
vn -0.9997 -0.0160 -0.0160
vn -0.8966 -0.3132 -0.3132
vn -0.9953 -0.0688 -0.0688
vn -0.9807 -0.1383 -0.1383
vn -0.9545 -0.2108 -0.2108
vn -0.9191 -0.2786 -0.2786
vn 0.0160 -0.0160 0.9997
vn 0.3132 -0.3132 0.8966
vn 0.0688 -0.0688 0.9953
vn 0.1383 -0.1383 0.9807
vn 0.2108 -0.2108 0.9545
vn 0.2786 -0.2786 0.9191
vn 0.3132 0.3132 0.8966
vn 0.0160 0.0160 0.9997
vn 0.2786 0.2786 0.9191
vn 0.2108 0.2108 0.9545
vn 0.1383 0.1383 0.9807
vn 0.0688 0.0688 0.9953
vn -0.3132 0.3132 0.8966
vn -0.0160 0.0160 0.9997
vn -0.2786 0.2786 0.9191
vn -0.2108 0.2108 0.9545
vn -0.1383 0.1383 0.9807
vn -0.0688 0.0688 0.9953
vn -0.0160 -0.0160 0.9997
vn -0.3132 -0.3132 0.8966
vn -0.0688 -0.0688 0.9953
vn -0.1383 -0.1383 0.9807
vn -0.2108 -0.2108 0.9545
vn -0.2786 -0.2786 0.9191
vn -0.0160 -0.0160 -0.9997
vn -0.3132 -0.3132 -0.8966
vn -0.0688 -0.0688 -0.9953
vn -0.1383 -0.1383 -0.9807
vn -0.2108 -0.2108 -0.9545
vn -0.2786 -0.2786 -0.9191
vn -0.3132 0.3132 -0.8966
vn -0.0160 0.0160 -0.9997
vn -0.2786 0.2786 -0.9191
vn -0.2108 0.2108 -0.9545
vn -0.1383 0.1383 -0.9807
vn -0.0688 0.0688 -0.9953
vn 0.3132 0.3132 -0.8966
vn 0.0160 0.0160 -0.9997
vn 0.2786 0.2786 -0.9191
vn 0.2108 0.2108 -0.9545
vn 0.1383 0.1383 -0.9807
vn 0.0688 0.0688 -0.9953
vn 0.0160 -0.0160 -0.9997
vn 0.3132 -0.3132 -0.8966
vn 0.0688 -0.0688 -0.9953
vn 0.1383 -0.1383 -0.9807
vn 0.2108 -0.2108 -0.9545
vn 0.2786 -0.2786 -0.9191
vn 0.9997 -0.0160 -0.0160
vn 0.8966 -0.3132 -0.3132
vn 0.9953 -0.0688 -0.0688
vn 0.9807 -0.1383 -0.1383
vn 0.9545 -0.2108 -0.2108
vn 0.9191 -0.2786 -0.2786
vn 0.8966 0.3132 -0.3132
vn 0.9997 0.0160 -0.0160
vn 0.9191 0.2786 -0.2786
vn 0.9545 0.2108 -0.2108
vn 0.9807 0.1383 -0.1383
vn 0.9953 0.0688 -0.0688
vn 0.8966 0.3132 0.3132
vn 0.9997 0.0160 0.0160
vn 0.9191 0.2786 0.2786
vn 0.9545 0.2108 0.2108
vn 0.9807 0.1383 0.1383
vn 0.9953 0.0688 0.0688
vn 0.9997 -0.0160 0.0160
vn 0.8966 -0.3132 0.3132
vn 0.9953 -0.0688 0.0688
vn 0.9807 -0.1383 0.1383
vn 0.9545 -0.2108 0.2108
vn 0.9191 -0.2786 0.2786
vn -0.5956 -0.1383 0.7912
vn -0.5956 0.1383 0.7912
vn -0.7912 0.1383 0.5956
vn -0.7912 -0.1383 -0.5956
vn -0.7913 0.1383 -0.5956
vn 0.7912 0.1383 -0.5956
vn 0.5956 -0.1383 -0.7912
vn 0.5956 0.1383 -0.7912
vn 0.7912 -0.1383 0.5956
vn 0.7913 0.1383 0.5956
vn -0.7913 -0.1383 0.5956
vn -0.5956 0.1383 -0.7912
vn -0.5956 -0.1383 -0.7912
vn 0.7913 -0.1383 -0.5956
vn 0.5956 0.1383 0.7912
vn 0.5956 -0.1383 0.7912
vt 0.406210 0.011034
vt 0.593790 0.011034
vt 0.589991 0.012377
vt 0.410009 0.012377
vt 0.585403 0.014000
vt 0.414597 0.014000
vt 0.579516 0.016081
vt 0.420484 0.016081
vt 0.574197 0.017962
vt 0.425803 0.017962
vt 0.569594 0.019589
vt 0.430406 0.019589
vt 0.406210 0.051466
vt 0.410009 0.050123
vt 0.414597 0.048500
vt 0.420484 0.046419
vt 0.425803 0.044538
vt 0.430406 0.042911
vt 0.593790 0.051466
vt 0.589991 0.050123
vt 0.585403 0.048500
vt 0.579516 0.046419
vt 0.574197 0.044538
vt 0.569594 0.042911
vt 0.593790 0.290431
vt 0.406210 0.290431
vt 0.410009 0.287745
vt 0.589991 0.287745
vt 0.414597 0.284501
vt 0.585403 0.284501
vt 0.420484 0.280338
vt 0.579516 0.280338
vt 0.425803 0.276577
vt 0.574197 0.276577
vt 0.430406 0.273322
vt 0.569594 0.273322
vt 0.593790 0.209569
vt 0.589991 0.212255
vt 0.585403 0.215499
vt 0.579516 0.219662
vt 0.574197 0.223423
vt 0.569594 0.226678
vt 0.406210 0.209569
vt 0.410009 0.212255
vt 0.414597 0.215499
vt 0.420484 0.219662
vt 0.425803 0.223423
vt 0.430406 0.226678
vt 0.595911 0.544109
vt 0.404089 0.544109
vt 0.407670 0.541871
vt 0.592330 0.541871
vt 0.411990 0.539167
vt 0.588010 0.539167
vt 0.417631 0.535698
vt 0.582370 0.535698
vt 0.422788 0.532564
vt 0.577212 0.532564
vt 0.427272 0.529852
vt 0.572728 0.529852
vt 0.607301 0.476724
vt 0.602652 0.478962
vt 0.597030 0.481666
vt 0.589915 0.485135
vt 0.583547 0.488269
vt 0.578058 0.490982
vt 0.392699 0.476724
vt 0.397348 0.478962
vt 0.402970 0.481666
vt 0.410085 0.485135
vt 0.416453 0.488269
vt 0.421942 0.490982
vt 0.607301 0.773276
vt 0.392699 0.773276
vt 0.397348 0.771038
vt 0.602652 0.771038
vt 0.402970 0.768334
vt 0.597030 0.768334
vt 0.410085 0.764865
vt 0.589915 0.764865
vt 0.416453 0.761731
vt 0.583547 0.761731
vt 0.421942 0.759018
vt 0.578058 0.759018
vt 0.595911 0.705891
vt 0.592330 0.708129
vt 0.588010 0.710833
vt 0.582370 0.714302
vt 0.577212 0.717436
vt 0.572728 0.720148
vt 0.404089 0.705891
vt 0.407670 0.708129
vt 0.411990 0.710833
vt 0.417631 0.714302
vt 0.422788 0.717436
vt 0.427272 0.720148
vt 0.569594 0.090203
vt 0.430406 0.090203
vt 0.425803 0.087902
vt 0.574197 0.087902
vt 0.420484 0.085242
vt 0.579516 0.085242
vt 0.414597 0.082298
vt 0.585403 0.082298
vt 0.410009 0.080004
vt 0.589991 0.080004
vt 0.406210 0.078105
vt 0.593790 0.078105
vt 0.430406 0.159797
vt 0.425803 0.162098
vt 0.420484 0.164758
vt 0.414597 0.167702
vt 0.410009 0.169996
vt 0.406210 0.171895
vt 0.593790 0.171895
vt 0.589991 0.169996
vt 0.585403 0.167702
vt 0.579516 0.164758
vt 0.574197 0.162098
vt 0.569594 0.159797
vt 0.579246 0.823987
vt 0.420754 0.823987
vt 0.415320 0.821302
vt 0.584680 0.821302
vt 0.409025 0.818199
vt 0.590975 0.818199
vt 0.402012 0.814765
vt 0.597988 0.814765
vt 0.396490 0.812088
vt 0.603510 0.812088
vt 0.391923 0.809872
vt 0.608077 0.809872
vt 0.428460 0.905180
vt 0.423920 0.907865
vt 0.418690 0.910968
vt 0.412947 0.914402
vt 0.408528 0.917078
vt 0.404865 0.919294
vt 0.595135 0.919294
vt 0.591472 0.917078
vt 0.587053 0.914402
vt 0.581310 0.910968
vt 0.576080 0.907865
vt 0.571540 0.905180
vt 0.571540 0.344820
vt 0.428460 0.344820
vt 0.423920 0.342135
vt 0.576080 0.342135
vt 0.418690 0.339032
vt 0.581310 0.339032
vt 0.412947 0.335598
vt 0.587053 0.335598
vt 0.408528 0.332922
vt 0.591472 0.332922
vt 0.404865 0.330706
vt 0.595135 0.330706
vt 0.420754 0.426013
vt 0.415320 0.428698
vt 0.409025 0.431801
vt 0.402012 0.435235
vt 0.396490 0.437912
vt 0.391923 0.440128
vt 0.579246 0.426013
vt 0.584680 0.428698
vt 0.590975 0.431801
vt 0.597988 0.435235
vt 0.603510 0.437912
vt 0.608077 0.440128
vt 0.569594 0.590203
vt 0.430406 0.590203
vt 0.425803 0.587902
vt 0.574197 0.587902
vt 0.420484 0.585242
vt 0.579516 0.585242
vt 0.414597 0.582298
vt 0.585403 0.582298
vt 0.410009 0.580004
vt 0.589991 0.580004
vt 0.406210 0.578105
vt 0.593790 0.578105
vt 0.430406 0.659797
vt 0.425803 0.662098
vt 0.420484 0.664758
vt 0.414597 0.667702
vt 0.410009 0.669996
vt 0.406210 0.671895
vt 0.569594 0.659797
vt 0.574197 0.662098
vt 0.579516 0.664758
vt 0.585403 0.667702
vt 0.589991 0.669996
vt 0.593790 0.671895
vt 0.406210 0.011034
vt 0.593790 0.011034
vt 0.589991 0.012377
vt 0.585403 0.014000
vt 0.414597 0.014000
vt 0.579516 0.016081
vt 0.420484 0.016081
vt 0.574197 0.017962
vt 0.425803 0.017962
vt 0.569594 0.019589
vt 0.430406 0.019589
vt 0.414597 0.048500
vt 0.425803 0.044538
vt 0.430406 0.042911
vt 0.589991 0.050123
vt 0.585403 0.048500
vt 0.579516 0.046419
vt 0.574197 0.044538
vt 0.593790 0.290431
vt 0.406210 0.290431
vt 0.414597 0.284501
vt 0.585403 0.284501
vt 0.420484 0.280338
vt 0.425803 0.276577
vt 0.574197 0.276577
vt 0.430406 0.273322
vt 0.569594 0.273322
vt 0.589991 0.212255
vt 0.585403 0.215499
vt 0.579516 0.219662
vt 0.574197 0.223423
vt 0.569594 0.226678
vt 0.406210 0.209569
vt 0.414597 0.215499
vt 0.420484 0.219662
vt 0.425803 0.223423
vt 0.595911 0.544109
vt 0.404089 0.544109
vt 0.592330 0.541871
vt 0.411990 0.539167
vt 0.588010 0.539167
vt 0.417631 0.535698
vt 0.422788 0.532564
vt 0.577213 0.532564
vt 0.427272 0.529852
vt 0.572728 0.529852
vt 0.607301 0.476724
vt 0.602652 0.478962
vt 0.589915 0.485135
vt 0.583547 0.488270
vt 0.578058 0.490982
vt 0.397348 0.478962
vt 0.402970 0.481666
vt 0.416453 0.488269
vt 0.421942 0.490982
vt 0.607301 0.773276
vt 0.397348 0.771038
vt 0.602652 0.771038
vt 0.402970 0.768334
vt 0.410085 0.764865
vt 0.589915 0.764865
vt 0.416453 0.761731
vt 0.583547 0.761731
vt 0.578058 0.759018
vt 0.595911 0.705891
vt 0.592330 0.708129
vt 0.588010 0.710833
vt 0.582370 0.714302
vt 0.577213 0.717436
vt 0.572728 0.720149
vt 0.404089 0.705891
vt 0.407670 0.708129
vt 0.411990 0.710833
vt 0.422788 0.717436
vt 0.427272 0.720149
vt 0.425803 0.087902
vt 0.574197 0.087902
vt 0.420484 0.085242
vt 0.579516 0.085242
vt 0.585403 0.082298
vt 0.410009 0.080004
vt 0.425803 0.162098
vt 0.414597 0.167702
vt 0.406210 0.171895
vt 0.593790 0.171895
vt 0.585403 0.167702
vt 0.579516 0.164758
vt 0.569594 0.159797
vt 0.415320 0.821302
vt 0.584680 0.821302
vt 0.590975 0.818199
vt 0.402012 0.814765
vt 0.396490 0.812088
vt 0.603510 0.812088
vt 0.391923 0.809872
vt 0.608077 0.809872
vt 0.423920 0.907865
vt 0.412947 0.914402
vt 0.408528 0.917078
vt 0.404865 0.919294
vt 0.591472 0.917078
vt 0.587053 0.914402
vt 0.581310 0.910968
vt 0.423920 0.342135
vt 0.576080 0.342135
vt 0.412947 0.335598
vt 0.587053 0.335598
vt 0.420754 0.426013
vt 0.415320 0.428698
vt 0.584680 0.428698
vt 0.590975 0.431801
vt 0.597988 0.435235
vt 0.574197 0.587902
vt 0.420484 0.585242
vt 0.585403 0.582298
vt 0.410009 0.580004
vt 0.425803 0.662098
vt 0.574197 0.662098
vt 0.579516 0.664758
vt 0.585403 0.667702
vt 0.589991 0.669996
vt 0.406210 0.011034
vt 0.593790 0.011034
vt 0.589991 0.012377
vt 0.410009 0.012377
vt 0.585403 0.014000
vt 0.414597 0.014000
vt 0.420484 0.016081
vt 0.425803 0.017962
vt 0.569594 0.019589
vt 0.430406 0.019589
vt 0.414597 0.048500
vt 0.420484 0.046419
vt 0.425803 0.044538
vt 0.430406 0.042911
vt 0.579516 0.046419
vt 0.574197 0.044538
vt 0.569594 0.042911
vt 0.420484 0.280338
vt 0.579516 0.280338
vt 0.425803 0.276577
vt 0.589991 0.212255
vt 0.574197 0.223423
vt 0.569594 0.226678
vt 0.410009 0.212255
vt 0.420484 0.219662
vt 0.425803 0.223423
vt 0.595911 0.544109
vt 0.404089 0.544109
vt 0.407670 0.541871
vt 0.592330 0.541871
vt 0.588010 0.539167
vt 0.417631 0.535698
vt 0.582370 0.535698
vt 0.422788 0.532564
vt 0.577213 0.532564
vt 0.427272 0.529852
vt 0.607301 0.476724
vt 0.602652 0.478962
vt 0.597030 0.481666
vt 0.589915 0.485135
vt 0.583547 0.488269
vt 0.578058 0.490982
vt 0.397348 0.478962
vt 0.410085 0.485135
vt 0.416453 0.488269
vt 0.602652 0.771038
vt 0.402970 0.768334
vt 0.597030 0.768334
vt 0.410085 0.764865
vt 0.589915 0.764865
vt 0.416453 0.761731
vt 0.583547 0.761731
vt 0.421942 0.759018
vt 0.578058 0.759018
vt 0.595911 0.705891
vt 0.592330 0.708129
vt 0.588010 0.710833
vt 0.582370 0.714302
vt 0.577212 0.717436
vt 0.411990 0.710833
vt 0.417631 0.714302
vt 0.422788 0.717436
vt 0.427272 0.720149
vt 0.569594 0.090203
vt 0.425803 0.087902
vt 0.574197 0.087902
vt 0.420484 0.085242
vt 0.414597 0.082298
vt 0.585403 0.082298
vt 0.589991 0.080004
vt 0.425803 0.162098
vt 0.420484 0.164758
vt 0.410009 0.169996
vt 0.589991 0.169996
vt 0.585403 0.167702
vt 0.579516 0.164758
vt 0.574197 0.162098
vt 0.579246 0.823987
vt 0.415320 0.821302
vt 0.584680 0.821302
vt 0.409025 0.818199
vt 0.597988 0.814765
vt 0.603510 0.812088
vt 0.391923 0.809872
vt 0.423920 0.907865
vt 0.418690 0.910968
vt 0.412947 0.914402
vt 0.595135 0.919294
vt 0.591472 0.917078
vt 0.581310 0.910968
vt 0.576080 0.907865
vt 0.571540 0.344820
vt 0.423920 0.342135
vt 0.576080 0.342135
vt 0.418690 0.339032
vt 0.412947 0.335598
vt 0.408528 0.332922
vt 0.595135 0.330706
vt 0.409025 0.431801
vt 0.584680 0.428698
vt 0.590975 0.431801
vt 0.603510 0.437912
vt 0.569594 0.590203
vt 0.574197 0.587902
vt 0.420484 0.585242
vt 0.414597 0.582298
vt 0.585403 0.582298
vt 0.589991 0.580004
vt 0.593790 0.578105
vt 0.425803 0.662098
vt 0.420484 0.664758
vt 0.574197 0.662098
vt 0.579516 0.664758
vt 0.585403 0.667702
vt 0.589991 0.669996
vt 0.390625 0.005524
vt 0.609375 0.005524
vt 0.390625 0.056976
vt 0.609375 0.056976
vt 0.609375 0.301451
vt 0.390625 0.301451
vt 0.609375 0.198549
vt 0.390625 0.198549
vt 0.610610 0.553293
vt 0.389390 0.553293
vt 0.626369 0.467541
vt 0.373631 0.467540
vt 0.626369 0.782460
vt 0.373631 0.782460
vt 0.610610 0.696707
vt 0.389390 0.696707
vt 0.390625 0.070312
vt 0.609375 0.070312
vt 0.390625 0.179688
vt 0.609375 0.179687
vt 0.373190 0.800781
vt 0.626810 0.800781
vt 0.389830 0.928385
vt 0.610170 0.928385
vt 0.389830 0.321615
vt 0.610170 0.321615
vt 0.373191 0.449219
vt 0.626810 0.449219
vt 0.390625 0.570312
vt 0.609375 0.570312
vt 0.390625 0.679688
vt 0.609375 0.679688
s 1
usemtl Material.023
f 98/1/37 103/2/42 105/3/44 102/4/41
f 102/4/41 105/3/44 106/5/45 101/6/40
f 101/6/40 106/5/45 107/7/46 100/8/39
f 100/8/39 107/7/46 108/9/47 99/10/38
f 99/10/38 108/9/47 104/11/43 97/12/36
f 116/13/55 98/1/37 102/4/41 120/14/59
f 120/14/59 102/4/41 101/6/40 119/15/58
f 119/15/58 101/6/40 100/8/39 118/16/57
f 118/16/57 100/8/39 99/10/38 117/17/56
f 117/17/56 99/10/38 97/12/36 115/18/54
f 103/2/42 109/19/48 111/20/50 105/3/44
f 105/3/44 111/20/50 112/21/51 106/5/45
f 106/5/45 112/21/51 113/22/52 107/7/46
f 107/7/46 113/22/52 114/23/53 108/9/47
f 108/9/47 114/23/53 110/24/49 104/11/43
f 109/19/48 116/13/55 120/14/59 111/20/50
f 111/20/50 120/14/59 119/15/58 112/21/51
f 112/21/51 119/15/58 118/16/57 113/22/52
f 113/22/52 118/16/57 117/17/56 114/23/53
f 114/23/53 117/17/56 115/18/54 110/24/49
f 122/25/61 127/26/66 129/27/68 126/28/65
f 126/28/65 129/27/68 130/29/69 125/30/64
f 125/30/64 130/29/69 131/31/70 124/32/63
f 124/32/63 131/31/70 132/33/71 123/34/62
f 123/34/62 132/33/71 128/35/67 121/36/60
f 140/37/79 122/25/61 126/28/65 144/38/83
f 144/38/83 126/28/65 125/30/64 143/39/82
f 143/39/82 125/30/64 124/32/63 142/40/81
f 142/40/81 124/32/63 123/34/62 141/41/80
f 141/41/80 123/34/62 121/36/60 139/42/78
f 127/26/66 133/43/72 135/44/74 129/27/68
f 129/27/68 135/44/74 136/45/75 130/29/69
f 130/29/69 136/45/75 137/46/76 131/31/70
f 131/31/70 137/46/76 138/47/77 132/33/71
f 132/33/71 138/47/77 134/48/73 128/35/67
f 133/43/72 140/37/79 144/38/83 135/44/74
f 135/44/74 144/38/83 143/39/82 136/45/75
f 136/45/75 143/39/82 142/40/81 137/46/76
f 137/46/76 142/40/81 141/41/80 138/47/77
f 138/47/77 141/41/80 139/42/78 134/48/73
f 146/49/85 151/50/90 153/51/92 150/52/89
f 150/52/89 153/51/92 154/53/93 149/54/88
f 149/54/88 154/53/93 155/55/94 148/56/87
f 148/56/87 155/55/94 156/57/95 147/58/86
f 147/58/86 156/57/95 152/59/91 145/60/84
f 164/61/103 146/49/85 150/52/89 168/62/107
f 168/62/107 150/52/89 149/54/88 167/63/106
f 167/63/106 149/54/88 148/56/87 166/64/105
f 166/64/105 148/56/87 147/58/86 165/65/104
f 165/65/104 147/58/86 145/60/84 163/66/102
f 151/50/90 157/67/96 159/68/98 153/51/92
f 153/51/92 159/68/98 160/69/99 154/53/93
f 154/53/93 160/69/99 161/70/100 155/55/94
f 155/55/94 161/70/100 162/71/101 156/57/95
f 156/57/95 162/71/101 158/72/97 152/59/91
f 157/67/96 164/61/103 168/62/107 159/68/98
f 159/68/98 168/62/107 167/63/106 160/69/99
f 160/69/99 167/63/106 166/64/105 161/70/100
f 161/70/100 166/64/105 165/65/104 162/71/101
f 162/71/101 165/65/104 163/66/102 158/72/97
f 170/73/109 175/74/114 177/75/116 174/76/113
f 174/76/113 177/75/116 178/77/117 173/78/112
f 173/78/112 178/77/117 179/79/118 172/80/111
f 172/80/111 179/79/118 180/81/119 171/82/110
f 171/82/110 180/81/119 176/83/115 169/84/108
f 188/85/127 170/73/109 174/76/113 192/86/131
f 192/86/131 174/76/113 173/78/112 191/87/130
f 191/87/130 173/78/112 172/80/111 190/88/129
f 190/88/129 172/80/111 171/82/110 189/89/128
f 189/89/128 171/82/110 169/84/108 187/90/126
f 175/74/114 181/91/120 183/92/122 177/75/116
f 177/75/116 183/92/122 184/93/123 178/77/117
f 178/77/117 184/93/123 185/94/124 179/79/118
f 179/79/118 185/94/124 186/95/125 180/81/119
f 180/81/119 186/95/125 182/96/121 176/83/115
f 181/91/120 188/85/127 192/86/131 183/92/122
f 183/92/122 192/86/131 191/87/130 184/93/123
f 184/93/123 191/87/130 190/88/129 185/94/124
f 185/94/124 190/88/129 189/89/128 186/95/125
f 186/95/125 189/89/128 187/90/126 182/96/121
f 200/97/139 193/98/132 195/99/134 204/100/143
f 204/100/143 195/99/134 196/101/135 203/102/142
f 203/102/142 196/101/135 197/103/136 202/104/141
f 202/104/141 197/103/136 198/105/137 201/106/140
f 201/106/140 198/105/137 194/107/133 199/108/138
f 193/98/132 211/109/150 213/110/152 195/99/134
f 195/99/134 213/110/152 214/111/153 196/101/135
f 196/101/135 214/111/153 215/112/154 197/103/136
f 197/103/136 215/112/154 216/113/155 198/105/137
f 198/105/137 216/113/155 212/114/151 194/107/133
f 199/108/138 205/115/144 207/116/146 201/106/140
f 201/106/140 207/116/146 208/117/147 202/104/141
f 202/104/141 208/117/147 209/118/148 203/102/142
f 203/102/142 209/118/148 210/119/149 204/100/143
f 204/100/143 210/119/149 206/120/145 200/97/139
f 211/109/150 206/120/145 210/119/149 213/110/152
f 213/110/152 210/119/149 209/118/148 214/111/153
f 214/111/153 209/118/148 208/117/147 215/112/154
f 215/112/154 208/117/147 207/116/146 216/113/155
f 216/113/155 207/116/146 205/115/144 212/114/151
f 224/121/163 217/122/156 219/123/158 228/124/167
f 228/124/167 219/123/158 220/125/159 227/126/166
f 227/126/166 220/125/159 221/127/160 226/128/165
f 226/128/165 221/127/160 222/129/161 225/130/164
f 225/130/164 222/129/161 218/131/157 223/132/162
f 217/122/156 235/133/174 237/134/176 219/123/158
f 219/123/158 237/134/176 238/135/177 220/125/159
f 220/125/159 238/135/177 239/136/178 221/127/160
f 221/127/160 239/136/178 240/137/179 222/129/161
f 222/129/161 240/137/179 236/138/175 218/131/157
f 223/132/162 229/139/168 231/140/170 225/130/164
f 225/130/164 231/140/170 232/141/171 226/128/165
f 226/128/165 232/141/171 233/142/172 227/126/166
f 227/126/166 233/142/172 234/143/173 228/124/167
f 228/124/167 234/143/173 230/144/169 224/121/163
f 235/133/174 230/144/169 234/143/173 237/134/176
f 237/134/176 234/143/173 233/142/172 238/135/177
f 238/135/177 233/142/172 232/141/171 239/136/178
f 239/136/178 232/141/171 231/140/170 240/137/179
f 240/137/179 231/140/170 229/139/168 236/138/175
f 248/145/187 241/146/180 243/147/182 252/148/191
f 252/148/191 243/147/182 244/149/183 251/150/190
f 251/150/190 244/149/183 245/151/184 250/152/189
f 250/152/189 245/151/184 246/153/185 249/154/188
f 249/154/188 246/153/185 242/155/181 247/156/186
f 241/146/180 259/157/198 261/158/200 243/147/182
f 243/147/182 261/158/200 262/159/201 244/149/183
f 244/149/183 262/159/201 263/160/202 245/151/184
f 245/151/184 263/160/202 264/161/203 246/153/185
f 246/153/185 264/161/203 260/162/199 242/155/181
f 254/163/193 248/145/187 252/148/191 258/164/197
f 258/164/197 252/148/191 251/150/190 257/165/196
f 257/165/196 251/150/190 250/152/189 256/166/195
f 256/166/195 250/152/189 249/154/188 255/167/194
f 255/167/194 249/154/188 247/156/186 253/168/192
f 259/157/198 254/163/193 258/164/197 261/158/200
f 261/158/200 258/164/197 257/165/196 262/159/201
f 262/159/201 257/165/196 256/166/195 263/160/202
f 263/160/202 256/166/195 255/167/194 264/161/203
f 264/161/203 255/167/194 253/168/192 260/162/199
f 272/169/211 265/170/204 267/171/206 276/172/215
f 276/172/215 267/171/206 268/173/207 275/174/214
f 275/174/214 268/173/207 269/175/208 274/176/213
f 274/176/213 269/175/208 270/177/209 273/178/212
f 273/178/212 270/177/209 266/179/205 271/180/210
f 265/170/204 283/181/222 285/182/224 267/171/206
f 267/171/206 285/182/224 286/183/225 268/173/207
f 268/173/207 286/183/225 287/184/226 269/175/208
f 269/175/208 287/184/226 288/185/227 270/177/209
f 270/177/209 288/185/227 284/186/223 266/179/205
f 278/187/217 272/169/211 276/172/215 282/188/221
f 282/188/221 276/172/215 275/174/214 281/189/220
f 281/189/220 275/174/214 274/176/213 280/190/219
f 280/190/219 274/176/213 273/178/212 279/191/218
f 279/191/218 273/178/212 271/180/210 277/192/216
f 283/181/222 278/187/217 282/188/221 285/182/224
f 285/182/224 282/188/221 281/189/220 286/183/225
f 286/183/225 281/189/220 280/190/219 287/184/226
f 287/184/226 280/190/219 279/191/218 288/185/227
f 288/185/227 279/191/218 277/192/216 284/186/223
f 290/193/37 295/194/42 297/195/44 294/4/41
f 294/4/41 297/195/44 298/196/45 293/197/40
f 293/197/40 298/196/45 299/198/229 292/199/228
f 292/199/228 299/198/229 300/200/47 291/201/38
f 291/201/38 300/200/47 296/202/43 289/203/36
f 308/13/55 290/193/37 294/4/41 312/14/59
f 312/14/59 294/4/41 293/197/40 311/204/58
f 311/204/58 293/197/40 292/199/228 310/16/57
f 310/16/57 292/199/228 291/201/38 309/205/56
f 309/205/56 291/201/38 289/203/36 307/206/54
f 295/194/42 301/19/48 303/207/50 297/195/44
f 297/195/44 303/207/50 304/208/51 298/196/45
f 298/196/45 304/208/51 305/209/230 299/198/229
f 299/198/229 305/209/230 306/210/53 300/200/47
f 300/200/47 306/210/53 302/24/49 296/202/43
f 301/19/48 308/13/55 312/14/59 303/207/50
f 303/207/50 312/14/59 311/204/58 304/208/51
f 304/208/51 311/204/58 310/16/57 305/209/230
f 305/209/230 310/16/57 309/205/56 306/210/53
f 306/210/53 309/205/56 307/206/54 302/24/49
f 314/211/61 319/212/66 321/27/68 318/28/65
f 318/28/65 321/27/68 322/213/69 317/214/64
f 317/214/64 322/213/69 323/215/70 316/32/63
f 316/32/63 323/215/70 324/216/71 315/217/62
f 315/217/62 324/216/71 320/218/67 313/219/60
f 332/37/79 314/211/61 318/28/65 336/220/83
f 336/220/83 318/28/65 317/214/64 335/221/82
f 335/221/82 317/214/64 316/32/63 334/222/232
f 334/222/232 316/32/63 315/217/62 333/223/80
f 333/223/80 315/217/62 313/219/60 331/224/78
f 319/212/66 325/225/72 327/44/74 321/27/68
f 321/27/68 327/44/74 328/226/75 322/213/69
f 322/213/69 328/226/75 329/227/231 323/215/70
f 323/215/70 329/227/231 330/228/77 324/216/71
f 324/216/71 330/228/77 326/48/73 320/218/67
f 325/225/72 332/37/79 336/220/83 327/44/74
f 327/44/74 336/220/83 335/221/82 328/226/75
f 328/226/75 335/221/82 334/222/232 329/227/231
f 329/227/231 334/222/232 333/223/80 330/228/77
f 330/228/77 333/223/80 331/224/78 326/48/73
f 338/229/85 343/230/90 345/51/92 342/231/89
f 342/231/89 345/51/92 346/232/93 341/233/88
f 341/233/88 346/232/93 347/234/94 340/56/233
f 340/56/233 347/234/94 348/235/95 339/236/86
f 339/236/86 348/235/95 344/237/91 337/238/84
f 356/239/103 338/229/85 342/231/89 360/240/107
f 360/240/107 342/231/89 341/233/88 359/63/106
f 359/63/106 341/233/88 340/56/233 358/241/235
f 358/241/235 340/56/233 339/236/86 357/242/104
f 357/242/104 339/236/86 337/238/84 355/243/102
f 343/230/90 349/67/96 351/244/98 345/51/92
f 345/51/92 351/244/98 352/245/99 346/232/93
f 346/232/93 352/245/99 353/70/234 347/234/94
f 347/234/94 353/70/234 354/246/101 348/235/95
f 348/235/95 354/246/101 350/247/97 344/237/91
f 349/67/96 356/239/103 360/240/107 351/244/98
f 351/244/98 360/240/107 359/63/106 352/245/99
f 352/245/99 359/63/106 358/241/235 353/70/234
f 353/70/234 358/241/235 357/242/104 354/246/101
f 354/246/101 357/242/104 355/243/102 350/247/97
f 362/248/109 367/74/114 369/249/116 366/250/113
f 366/250/113 369/249/116 370/251/117 365/78/112
f 365/78/112 370/251/117 371/252/118 364/253/111
f 364/253/111 371/252/118 372/254/119 363/255/110
f 363/255/110 372/254/119 368/83/115 361/256/108
f 380/257/127 362/248/109 366/250/113 384/258/131
f 384/258/131 366/250/113 365/78/112 383/259/130
f 383/259/130 365/78/112 364/253/111 382/260/237
f 382/260/237 364/253/111 363/255/110 381/261/128
f 381/261/128 363/255/110 361/256/108 379/262/126
f 367/74/114 373/263/120 375/264/122 369/249/116
f 369/249/116 375/264/122 376/265/123 370/251/117
f 370/251/117 376/265/123 377/94/236 371/252/118
f 371/252/118 377/94/236 378/266/125 372/254/119
f 372/254/119 378/266/125 374/267/121 368/83/115
f 373/263/120 380/257/127 384/258/131 375/264/122
f 375/264/122 384/258/131 383/259/130 376/265/123
f 376/265/123 383/259/130 382/260/237 377/94/236
f 377/94/236 382/260/237 381/261/128 378/266/125
f 378/266/125 381/261/128 379/262/126 374/267/121
f 392/97/139 385/98/132 387/268/134 396/269/143
f 396/269/143 387/268/134 388/270/135 395/271/142
f 395/271/142 388/270/135 389/103/136 394/272/141
f 394/272/141 389/103/136 390/273/137 393/106/140
f 393/106/140 390/273/137 386/107/133 391/108/138
f 385/98/132 403/109/150 405/274/152 387/268/134
f 387/268/134 405/274/152 406/111/153 388/270/135
f 388/270/135 406/111/153 407/275/154 389/103/136
f 389/103/136 407/275/154 408/113/155 390/273/137
f 390/273/137 408/113/155 404/276/151 386/107/133
f 391/108/138 397/277/144 399/116/146 393/106/140
f 393/106/140 399/116/146 400/278/147 394/272/141
f 394/272/141 400/278/147 401/279/148 395/271/142
f 395/271/142 401/279/148 402/119/149 396/269/143
f 396/269/143 402/119/149 398/280/145 392/97/139
f 403/109/150 398/280/145 402/119/149 405/274/152
f 405/274/152 402/119/149 401/279/148 406/111/153
f 406/111/153 401/279/148 400/278/147 407/275/154
f 407/275/154 400/278/147 399/116/146 408/113/155
f 408/113/155 399/116/146 397/277/144 404/276/151
f 416/121/163 409/122/156 411/281/158 420/282/167
f 420/282/167 411/281/158 412/125/159 419/283/166
f 419/283/166 412/125/159 413/284/160 418/128/165
f 418/128/165 413/284/160 414/285/161 417/286/164
f 417/286/164 414/285/161 410/287/157 415/288/162
f 409/122/156 427/133/174 429/289/176 411/281/158
f 411/281/158 429/289/176 430/135/177 412/125/159
f 412/125/159 430/135/177 431/290/178 413/284/160
f 413/284/160 431/290/178 432/291/179 414/285/161
f 414/285/161 432/291/179 428/292/175 410/287/157
f 415/288/162 421/139/168 423/293/170 417/286/164
f 417/286/164 423/293/170 424/294/171 418/128/165
f 418/128/165 424/294/171 425/295/172 419/283/166
f 419/283/166 425/295/172 426/143/173 420/282/167
f 420/282/167 426/143/173 422/144/169 416/121/163
f 427/133/174 422/144/169 426/143/173 429/289/176
f 429/289/176 426/143/173 425/295/172 430/135/177
f 430/135/177 425/295/172 424/294/171 431/290/178
f 431/290/178 424/294/171 423/293/170 432/291/179
f 432/291/179 423/293/170 421/139/168 428/292/175
f 440/145/187 433/146/180 435/296/182 444/297/191
f 444/297/191 435/296/182 436/149/183 443/150/190
f 443/150/190 436/149/183 437/298/184 442/299/189
f 442/299/189 437/298/184 438/153/185 441/154/188
f 441/154/188 438/153/185 434/155/181 439/156/186
f 433/146/180 451/300/198 453/301/200 435/296/182
f 435/296/182 453/301/200 454/159/201 436/149/183
f 436/149/183 454/159/201 455/160/202 437/298/184
f 437/298/184 455/160/202 456/161/203 438/153/185
f 438/153/185 456/161/203 452/162/199 434/155/181
f 446/163/193 440/145/187 444/297/191 450/302/197
f 450/302/197 444/297/191 443/150/190 449/303/196
f 449/303/196 443/150/190 442/299/189 448/304/195
f 448/304/195 442/299/189 441/154/188 447/167/194
f 447/167/194 441/154/188 439/156/186 445/168/192
f 451/300/198 446/163/193 450/302/197 453/301/200
f 453/301/200 450/302/197 449/303/196 454/159/201
f 454/159/201 449/303/196 448/304/195 455/160/202
f 455/160/202 448/304/195 447/167/194 456/161/203
f 456/161/203 447/167/194 445/168/192 452/162/199
f 464/169/211 457/170/204 459/171/206 468/305/215
f 468/305/215 459/171/206 460/306/207 467/174/214
f 467/174/214 460/306/207 461/175/208 466/307/213
f 466/307/213 461/175/208 462/308/209 465/178/212
f 465/178/212 462/308/209 458/179/205 463/180/210
f 457/170/204 475/181/222 477/309/224 459/171/206
f 459/171/206 477/309/224 478/183/225 460/306/207
f 460/306/207 478/183/225 479/184/226 461/175/208
f 461/175/208 479/184/226 480/185/227 462/308/209
f 462/308/209 480/185/227 476/186/223 458/179/205
f 470/187/217 464/169/211 468/305/215 474/310/221
f 474/310/221 468/305/215 467/174/214 473/311/220
f 473/311/220 467/174/214 466/307/213 472/312/219
f 472/312/219 466/307/213 465/178/212 471/313/218
f 471/313/218 465/178/212 463/180/210 469/192/216
f 475/181/222 470/187/217 474/310/221 477/309/224
f 477/309/224 474/310/221 473/311/220 478/183/225
f 478/183/225 473/311/220 472/312/219 479/184/226
f 479/184/226 472/312/219 471/313/218 480/185/227
f 480/185/227 471/313/218 469/192/216 476/186/223
f 482/314/37 487/315/42 489/316/44 486/317/41
f 486/317/41 489/316/44 490/318/45 485/319/40
f 485/319/40 490/318/45 491/198/46 484/320/39
f 484/320/39 491/198/46 492/9/47 483/321/38
f 483/321/38 492/9/47 488/322/43 481/323/36
f 500/13/55 482/314/37 486/317/41 504/14/59
f 504/14/59 486/317/41 485/319/40 503/324/58
f 503/324/58 485/319/40 484/320/39 502/325/238
f 502/325/238 484/320/39 483/321/38 501/326/56
f 501/326/56 483/321/38 481/323/36 499/327/54
f 487/315/42 493/19/48 495/20/50 489/316/44
f 489/316/44 495/20/50 496/208/51 490/318/45
f 490/318/45 496/208/51 497/328/52 491/198/46
f 491/198/46 497/328/52 498/329/53 492/9/47
f 492/9/47 498/329/53 494/330/49 488/322/43
f 493/19/48 500/13/55 504/14/59 495/20/50
f 495/20/50 504/14/59 503/324/58 496/208/51
f 496/208/51 503/324/58 502/325/238 497/328/52
f 497/328/52 502/325/238 501/326/56 498/329/53
f 498/329/53 501/326/56 499/327/54 494/330/49
f 506/25/61 511/26/66 513/27/68 510/28/65
f 510/28/65 513/27/68 514/213/69 509/214/64
f 509/214/64 514/213/69 515/331/240 508/332/239
f 508/332/239 515/331/240 516/333/71 507/217/62
f 507/217/62 516/333/71 512/35/67 505/219/60
f 524/37/79 506/25/61 510/28/65 528/334/83
f 528/334/83 510/28/65 509/214/64 527/39/82
f 527/39/82 509/214/64 508/332/239 526/222/232
f 526/222/232 508/332/239 507/217/62 525/335/80
f 525/335/80 507/217/62 505/219/60 523/336/78
f 511/26/66 517/43/72 519/337/74 513/27/68
f 513/27/68 519/337/74 520/45/75 514/213/69
f 514/213/69 520/45/75 521/338/76 515/331/240
f 515/331/240 521/338/76 522/339/77 516/333/71
f 516/333/71 522/339/77 518/48/73 512/35/67
f 517/43/72 524/37/79 528/334/83 519/337/74
f 519/337/74 528/334/83 527/39/82 520/45/75
f 520/45/75 527/39/82 526/222/232 521/338/76
f 521/338/76 526/222/232 525/335/80 522/339/77
f 522/339/77 525/335/80 523/336/78 518/48/73
f 530/340/85 535/341/90 537/342/92 534/343/89
f 534/343/89 537/342/92 538/232/93 533/344/88
f 533/344/88 538/232/93 539/345/241 532/346/87
f 532/346/87 539/345/241 540/347/95 531/348/86
f 531/348/86 540/347/95 536/349/91 529/238/84
f 548/350/103 530/340/85 534/343/89 552/351/107
f 552/351/107 534/343/89 533/344/88 551/352/106
f 551/352/106 533/344/88 532/346/87 550/353/105
f 550/353/105 532/346/87 531/348/86 549/354/104
f 549/354/104 531/348/86 529/238/84 547/355/102
f 535/341/90 541/67/96 543/356/98 537/342/92
f 537/342/92 543/356/98 544/245/99 538/232/93
f 538/232/93 544/245/99 545/357/100 539/345/241
f 539/345/241 545/357/100 546/358/101 540/347/95
f 540/347/95 546/358/101 542/247/97 536/349/91
f 541/67/96 548/350/103 552/351/107 543/356/98
f 543/356/98 552/351/107 551/352/106 544/245/99
f 544/245/99 551/352/106 550/353/105 545/357/100
f 545/357/100 550/353/105 549/354/104 546/358/101
f 546/358/101 549/354/104 547/355/102 542/247/97
f 554/73/109 559/74/114 561/249/116 558/359/113
f 558/359/113 561/249/116 562/360/117 557/361/112
f 557/361/112 562/360/117 563/362/243 556/363/242
f 556/363/242 563/362/243 564/364/119 555/365/110
f 555/365/110 564/364/119 560/366/115 553/367/108
f 572/368/127 554/73/109 558/359/113 576/369/131
f 576/369/131 558/359/113 557/361/112 575/370/130
f 575/370/130 557/361/112 556/363/242 574/371/237
f 574/371/237 556/363/242 555/365/110 573/372/128
f 573/372/128 555/365/110 553/367/108 571/90/126
f 559/74/114 565/91/120 567/92/122 561/249/116
f 561/249/116 567/92/122 568/373/123 562/360/117
f 562/360/117 568/373/123 569/374/124 563/362/243
f 563/362/243 569/374/124 570/375/125 564/364/119
f 564/364/119 570/375/125 566/376/121 560/366/115
f 565/91/120 572/368/127 576/369/131 567/92/122
f 567/92/122 576/369/131 575/370/130 568/373/123
f 568/373/123 575/370/130 574/371/237 569/374/124
f 569/374/124 574/371/237 573/372/128 570/375/125
f 570/375/125 573/372/128 571/90/126 566/376/121
f 584/377/139 577/98/132 579/378/134 588/379/143
f 588/379/143 579/378/134 580/380/135 587/271/142
f 587/271/142 580/380/135 581/381/136 586/382/141
f 586/382/141 581/381/136 582/105/137 585/383/140
f 585/383/140 582/105/137 578/107/133 583/108/138
f 577/98/132 595/109/150 597/384/152 579/378/134
f 579/378/134 597/384/152 598/385/153 580/380/135
f 580/380/135 598/385/153 599/275/154 581/381/136
f 581/381/136 599/275/154 600/386/155 582/105/137
f 582/105/137 600/386/155 596/114/151 578/107/133
f 583/108/138 589/115/144 591/387/146 585/383/140
f 585/383/140 591/387/146 592/388/147 586/382/141
f 586/382/141 592/388/147 593/389/148 587/271/142
f 587/271/142 593/389/148 594/390/149 588/379/143
f 588/379/143 594/390/149 590/120/145 584/377/139
f 595/109/150 590/120/145 594/390/149 597/384/152
f 597/384/152 594/390/149 593/389/148 598/385/153
f 598/385/153 593/389/148 592/388/147 599/275/154
f 599/275/154 592/388/147 591/387/146 600/386/155
f 600/386/155 591/387/146 589/115/144 596/114/151
f 608/391/163 601/122/156 603/392/158 612/393/167
f 612/393/167 603/392/158 604/394/159 611/283/166
f 611/283/166 604/394/159 605/284/160 610/395/165
f 610/395/165 605/284/160 606/129/161 609/396/164
f 609/396/164 606/129/161 602/397/157 607/288/162
f 601/122/156 619/133/174 621/398/176 603/392/158
f 603/392/158 621/398/176 622/399/177 604/394/159
f 604/394/159 622/399/177 623/400/178 605/284/160
f 605/284/160 623/400/178 624/137/179 606/129/161
f 606/129/161 624/137/179 620/292/175 602/397/157
f 607/288/162 613/401/168 615/402/170 609/396/164
f 609/396/164 615/402/170 616/294/171 610/395/165
f 610/395/165 616/294/171 617/403/172 611/283/166
f 611/283/166 617/403/172 618/404/173 612/393/167
f 612/393/167 618/404/173 614/144/169 608/391/163
f 619/133/174 614/144/169 618/404/173 621/398/176
f 621/398/176 618/404/173 617/403/172 622/399/177
f 622/399/177 617/403/172 616/294/171 623/400/178
f 623/400/178 616/294/171 615/402/170 624/137/179
f 624/137/179 615/402/170 613/401/168 620/292/175
f 632/405/187 625/146/180 627/406/182 636/407/191
f 636/407/191 627/406/182 628/408/183 635/150/190
f 635/150/190 628/408/183 629/409/184 634/299/189
f 634/299/189 629/409/184 630/410/185 633/154/188
f 633/154/188 630/410/185 626/155/181 631/411/186
f 625/146/180 643/157/198 645/301/200 627/406/182
f 627/406/182 645/301/200 646/412/201 628/408/183
f 628/408/183 646/412/201 647/160/202 629/409/184
f 629/409/184 647/160/202 648/161/203 630/410/185
f 630/410/185 648/161/203 644/162/199 626/155/181
f 638/163/193 632/405/187 636/407/191 642/413/197
f 642/413/197 636/407/191 635/150/190 641/414/196
f 641/414/196 635/150/190 634/299/189 640/304/195
f 640/304/195 634/299/189 633/154/188 639/415/194
f 639/415/194 633/154/188 631/411/186 637/168/192
f 643/157/198 638/163/193 642/413/197 645/301/200
f 645/301/200 642/413/197 641/414/196 646/412/201
f 646/412/201 641/414/196 640/304/195 647/160/202
f 647/160/202 640/304/195 639/415/194 648/161/203
f 648/161/203 639/415/194 637/168/192 644/162/199
f 656/416/211 649/170/204 651/171/206 660/417/215
f 660/417/215 651/171/206 652/418/207 659/174/214
f 659/174/214 652/418/207 653/419/208 658/420/213
f 658/420/213 653/419/208 654/308/209 657/421/212
f 657/421/212 654/308/209 650/179/205 655/422/210
f 649/170/204 667/181/222 669/423/224 651/171/206
f 651/171/206 669/423/224 670/424/225 652/418/207
f 652/418/207 670/424/225 671/184/226 653/419/208
f 653/419/208 671/184/226 672/185/227 654/308/209
f 654/308/209 672/185/227 668/186/223 650/179/205
f 662/187/217 656/416/211 660/417/215 666/425/221
f 666/425/221 660/417/215 659/174/214 665/426/220
f 665/426/220 659/174/214 658/420/213 664/427/219
f 664/427/219 658/420/213 657/421/212 663/428/218
f 663/428/218 657/421/212 655/422/210 661/192/216
f 667/181/222 662/187/217 666/425/221 669/423/224
f 669/423/224 666/425/221 665/426/220 670/424/225
f 670/424/225 665/426/220 664/427/219 671/184/226
f 671/184/226 664/427/219 663/428/218 672/185/227
f 672/185/227 663/428/218 661/192/216 668/186/223
f 1/429/1 2/430/2 103/2/42 98/1/37
f 97/12/36 104/11/43 110/24/49 115/18/54
f 4/431/4 1/429/1 98/1/37 116/13/55
f 2/430/2 3/432/3 109/19/48 103/2/42
f 3/432/3 4/431/4 116/13/55 109/19/48
f 5/433/5 6/434/6 127/26/66 122/25/61
f 121/36/60 128/35/67 134/48/73 139/42/78
f 8/435/8 5/433/5 122/25/61 140/37/79
f 6/434/6 7/436/7 133/43/72 127/26/66
f 7/436/7 8/435/8 140/37/79 133/43/72
f 9/437/9 10/438/10 151/50/90 146/49/85
f 145/60/84 152/59/91 158/72/97 163/66/102
f 12/439/12 9/437/9 146/49/85 164/61/103
f 10/438/10 11/440/11 157/67/96 151/50/90
f 11/440/11 12/439/12 164/61/103 157/67/96
f 13/441/13 14/442/14 175/74/114 170/73/109
f 169/84/108 176/83/115 182/96/121 187/90/126
f 16/443/16 13/441/13 170/73/109 188/85/127
f 14/442/14 15/444/15 181/91/120 175/74/114
f 15/444/15 16/443/16 188/85/127 181/91/120
f 17/445/17 18/446/18 199/108/138 194/107/133
f 193/98/132 200/97/139 206/120/145 211/109/150
f 20/447/20 17/445/17 194/107/133 212/114/151
f 18/446/18 19/448/19 205/115/144 199/108/138
f 19/448/19 20/447/20 212/114/151 205/115/144
f 21/449/21 22/450/22 223/132/162 218/131/157
f 217/122/156 224/121/163 230/144/169 235/133/174
f 24/451/24 21/449/21 218/131/157 236/138/175
f 22/450/22 23/452/23 229/139/168 223/132/162
f 23/452/23 24/451/24 236/138/175 229/139/168
f 25/453/25 26/454/26 247/156/186 242/155/181
f 241/146/180 248/145/187 254/163/193 259/157/198
f 28/455/28 25/453/25 242/155/181 260/162/199
f 26/454/26 27/456/27 253/168/192 247/156/186
f 27/456/27 28/455/28 260/162/199 253/168/192
f 29/457/29 30/458/30 271/180/210 266/179/205
f 265/170/204 272/169/211 278/187/217 283/181/222
f 32/459/32 29/457/29 266/179/205 284/186/223
f 30/458/30 31/460/31 277/192/216 271/180/210
f 31/460/31 32/459/32 284/186/223 277/192/216
f 33/429/1 34/430/2 295/194/42 290/193/37
f 289/203/36 296/202/43 302/24/49 307/206/54
f 36/431/4 33/429/1 290/193/37 308/13/55
f 34/430/2 35/432/3 301/19/48 295/194/42
f 35/432/3 36/431/4 308/13/55 301/19/48
f 37/433/5 38/434/6 319/212/66 314/211/61
f 313/219/60 320/218/67 326/48/73 331/224/78
f 40/435/8 37/433/5 314/211/61 332/37/79
f 38/434/6 39/436/7 325/225/72 319/212/66
f 39/436/7 40/435/8 332/37/79 325/225/72
f 41/437/9 42/438/10 343/230/90 338/229/85
f 337/238/84 344/237/91 350/247/97 355/243/102
f 44/439/12 41/437/9 338/229/85 356/239/103
f 42/438/10 43/440/11 349/67/96 343/230/90
f 43/440/11 44/439/12 356/239/103 349/67/96
f 45/441/13 46/442/14 367/74/114 362/248/109
f 361/256/108 368/83/115 374/267/121 379/262/126
f 48/443/16 45/441/13 362/248/109 380/257/127
f 46/442/14 47/444/15 373/263/120 367/74/114
f 47/444/15 48/443/16 380/257/127 373/263/120
f 49/445/17 50/446/18 391/108/138 386/107/133
f 385/98/132 392/97/139 398/280/145 403/109/150
f 52/447/20 49/445/17 386/107/133 404/276/151
f 50/446/18 51/448/19 397/277/144 391/108/138
f 51/448/19 52/447/20 404/276/151 397/277/144
f 53/449/21 54/450/22 415/288/162 410/287/157
f 409/122/156 416/121/163 422/144/169 427/133/174
f 56/451/24 53/449/21 410/287/157 428/292/175
f 54/450/22 55/452/23 421/139/168 415/288/162
f 55/452/23 56/451/24 428/292/175 421/139/168
f 57/453/25 58/454/26 439/156/186 434/155/181
f 433/146/180 440/145/187 446/163/193 451/300/198
f 60/455/28 57/453/25 434/155/181 452/162/199
f 58/454/26 59/456/27 445/168/192 439/156/186
f 59/456/27 60/455/28 452/162/199 445/168/192
f 61/457/29 62/458/30 463/180/210 458/179/205
f 457/170/204 464/169/211 470/187/217 475/181/222
f 64/459/32 61/457/29 458/179/205 476/186/223
f 62/458/30 63/460/31 469/192/216 463/180/210
f 63/460/31 64/459/32 476/186/223 469/192/216
f 65/429/1 66/430/33 487/315/42 482/314/37
f 481/323/36 488/322/43 494/330/49 499/327/54
f 68/431/4 65/429/1 482/314/37 500/13/55
f 66/430/33 67/432/3 493/19/48 487/315/42
f 67/432/3 68/431/4 500/13/55 493/19/48
f 69/433/34 70/434/6 511/26/66 506/25/61
f 505/219/60 512/35/67 518/48/73 523/336/78
f 72/435/8 69/433/34 506/25/61 524/37/79
f 70/434/6 71/436/7 517/43/72 511/26/66
f 71/436/7 72/435/8 524/37/79 517/43/72
f 73/437/9 74/438/10 535/341/90 530/340/85
f 529/238/84 536/349/91 542/247/97 547/355/102
f 76/439/35 73/437/9 530/340/85 548/350/103
f 74/438/10 75/440/11 541/67/96 535/341/90
f 75/440/11 76/439/35 548/350/103 541/67/96
f 77/441/13 78/442/14 559/74/114 554/73/109
f 553/367/108 560/366/115 566/376/121 571/90/126
f 80/443/16 77/441/13 554/73/109 572/368/127
f 78/442/14 79/444/15 565/91/120 559/74/114
f 79/444/15 80/443/16 572/368/127 565/91/120
f 81/445/17 82/446/18 583/108/138 578/107/133
f 577/98/132 584/377/139 590/120/145 595/109/150
f 84/447/20 81/445/17 578/107/133 596/114/151
f 82/446/18 83/448/19 589/115/144 583/108/138
f 83/448/19 84/447/20 596/114/151 589/115/144
f 85/449/21 86/450/22 607/288/162 602/397/157
f 601/122/156 608/391/163 614/144/169 619/133/174
f 88/451/24 85/449/21 602/397/157 620/292/175
f 86/450/22 87/452/23 613/401/168 607/288/162
f 87/452/23 88/451/24 620/292/175 613/401/168
f 89/453/25 90/454/26 631/411/186 626/155/181
f 625/146/180 632/405/187 638/163/193 643/157/198
f 92/455/28 89/453/25 626/155/181 644/162/199
f 90/454/26 91/456/27 637/168/192 631/411/186
f 91/456/27 92/455/28 644/162/199 637/168/192
f 93/457/29 94/458/30 655/422/210 650/179/205
f 649/170/204 656/416/211 662/187/217 667/181/222
f 96/459/32 93/457/29 650/179/205 668/186/223
f 94/458/30 95/460/31 661/192/216 655/422/210
f 95/460/31 96/459/32 668/186/223 661/192/216
