# Blender 5.2.0 LTS
# www.blender.org
mtllib tes.mtl
o Cube.016
v 93.639473 7.300000 1.280000
v 93.162384 7.300000 1.082382
v 93.379982 7.300000 1.231767
v 92.917618 7.300000 0.837618
v 92.720001 7.300000 0.360526
v 92.768234 7.300000 0.620021
v 92.918167 8.901458 0.838163
v 92.718681 8.903954 0.359142
v 92.768044 8.901321 0.619817
v 93.640862 8.904161 1.280000
v 93.161491 8.901377 1.082180
v 93.380096 8.901352 1.231718
v 92.720001 7.300000 -0.360526
v 92.917618 7.300000 -0.837618
v 92.768234 7.300000 -0.620021
v 93.162384 7.300000 -1.082382
v 93.639473 7.300000 -1.280000
v 93.379982 7.300000 -1.231767
v 93.161835 8.901458 -1.081836
v 93.640862 8.903954 -1.281316
v 93.380180 8.901321 -1.231955
v 92.720001 8.904161 -0.359142
v 92.917816 8.901377 -0.838507
v 92.768280 8.901352 -0.619900
v 95.279999 7.300000 0.360526
v 95.082382 7.300000 0.837618
v 95.231766 7.300000 0.620021
v 94.837616 7.300000 1.082382
v 94.360527 7.300000 1.280000
v 94.620018 7.300000 1.231767
v 94.838165 8.901458 1.081836
v 94.359138 8.903954 1.281316
v 94.619820 8.901321 1.231955
v 95.279999 8.904161 0.359142
v 95.082184 8.901377 0.838507
v 95.231720 8.901352 0.619900
v 94.360527 7.300000 -1.280000
v 94.837616 7.300000 -1.082382
v 94.620018 7.300000 -1.231767
v 95.082382 7.300000 -0.837618
v 95.279999 7.300000 -0.360526
v 95.231766 7.300000 -0.620021
v 95.081833 8.901458 -0.838163
v 95.281319 8.903954 -0.359142
v 95.231956 8.901321 -0.619817
v 94.359138 8.904161 -1.280000
v 94.838509 8.901377 -1.082180
v 94.619904 8.901352 -1.231718
v 93.036781 5.602241 1.207111
v 93.035896 7.199085 1.206910
v 92.793251 7.199166 0.963584
v 92.792709 5.602241 0.963040
v 94.359337 5.602195 1.457230
v 94.357956 7.201608 1.458542
v 93.641708 7.201815 1.457230
v 93.640327 5.602195 1.457230
v 92.542770 5.602195 0.359340
v 92.541458 7.201608 0.357960
v 92.542770 7.201815 -0.358290
v 92.542770 5.602195 -0.359671
v 93.036415 7.199166 -1.206747
v 93.036957 5.602241 -1.207291
v 92.792892 5.602241 -0.963220
v 92.793091 7.199085 -0.964107
v 93.640663 5.602195 -1.457230
v 93.642044 7.201608 -1.458542
v 94.358292 7.201815 -1.457230
v 94.359673 5.602195 -1.457230
v 94.963585 7.199166 1.206747
v 94.963043 5.602241 1.207291
v 95.207108 5.602241 0.963220
v 95.206909 7.199085 0.964107
v 95.457230 5.602195 -0.359340
v 95.458542 7.201608 -0.357960
v 95.457230 7.201815 0.358290
v 95.457230 5.602195 0.359671
v 95.206749 7.199166 -0.963584
v 95.207291 5.602241 -0.963040
v 94.963219 5.602241 -1.207111
v 94.964104 7.199085 -1.206910
v 92.994766 9.900001 -1.413970
v 93.214127 9.900001 -1.564271
v 94.785873 9.900001 -1.564271
v 95.005234 9.900001 -1.413970
v 95.564270 9.900001 0.785872
v 95.413971 9.900001 1.005231
v 94.785873 9.900001 1.564271
v 95.005234 9.900001 1.413970
v 93.214127 9.900001 1.564271
v 92.994766 9.900001 1.413970
v 95.564270 9.900001 -0.785872
v 95.413971 9.900001 -1.005230
v 92.435730 9.900001 -0.785872
v 92.586029 9.900001 -1.005231
v 92.435730 9.900001 0.785872
v 92.586029 9.900001 1.005230
v 92.994766 10.380767 -1.413970
v 93.214127 10.380767 -1.564271
v 93.476532 10.380767 -1.612800
v 94.785873 10.380767 -1.564271
v 95.005234 10.380767 -1.413970
v 94.523468 10.380767 -1.612800
v 95.612801 10.380767 0.523464
v 95.564270 10.380767 0.785872
v 95.413971 10.380767 1.005231
v 94.785873 10.380767 1.564271
v 94.523468 10.380767 1.612800
v 95.005234 10.380767 1.413970
v 93.214127 10.380767 1.564271
v 92.994766 10.380767 1.413970
v 93.476532 10.380767 1.612800
v 95.564270 10.380767 -0.785872
v 95.612801 10.380767 -0.523464
v 95.413971 10.380767 -1.005230
v 92.387199 10.380767 -0.523464
v 92.435730 10.380767 -0.785872
v 92.586029 10.380767 -1.005231
v 92.435730 10.380767 0.785872
v 92.387199 10.380767 0.523464
v 92.586029 10.380767 1.005230
v 93.476532 9.900001 -1.612800
v 94.523468 9.900001 -1.612800
v 95.612801 9.900001 0.523464
v 94.523468 9.900001 1.612800
v 93.476532 9.900001 1.612800
v 95.612801 9.900001 -0.523464
v 92.387199 9.900001 -0.523464
v 92.387199 9.900001 0.523464
v 94.244102 9.031483 1.323756
v 93.755859 9.031668 1.322613
v 92.676247 9.031483 0.244103
v 92.677383 9.031668 -0.244142
v 93.755898 9.031483 -1.323756
v 94.244141 9.031668 -1.322613
v 95.323753 9.031483 -0.244103
v 95.322617 9.031668 0.244142
v 93.610962 9.790921 -1.576317
v 94.389046 9.790855 -1.576506
v 95.576508 9.790855 0.389043
v 94.389038 9.790921 1.576317
v 93.610954 9.790855 1.576506
v 95.576317 9.790921 -0.389041
v 92.423492 9.790855 -0.389043
v 92.423683 9.790921 0.389041
v 93.610893 9.817242 -1.497396
v 93.667366 9.787386 -1.437747
v 93.613449 9.818975 -1.485424
v 93.619690 9.817477 -1.473423
v 93.628738 9.813287 -1.462080
v 93.640045 9.806718 -1.451926
v 93.653114 9.798010 -1.443534
v 94.332443 9.787354 -1.437838
v 94.388985 9.817176 -1.497585
v 94.346703 9.797969 -1.443650
v 94.359779 9.806669 -1.452065
v 94.371086 9.813232 -1.462238
v 94.380150 9.817417 -1.473597
v 94.386406 9.818913 -1.485609
v 95.437836 9.787354 0.332445
v 95.497589 9.817176 0.388981
v 95.443649 9.797969 0.346704
v 95.452065 9.806669 0.359777
v 95.462234 9.813232 0.371090
v 95.473595 9.817417 0.380152
v 95.485611 9.818913 0.386408
v 94.389107 9.817242 1.497396
v 94.332634 9.787386 1.437747
v 94.386551 9.818975 1.485424
v 94.380310 9.817477 1.473423
v 94.371262 9.813287 1.462080
v 94.359955 9.806718 1.451926
v 94.346886 9.798010 1.443534
v 93.667557 9.787354 1.437838
v 93.611015 9.817176 1.497585
v 93.653297 9.797969 1.443650
v 93.640221 9.806669 1.452065
v 93.628914 9.813232 1.462238
v 93.619850 9.817417 1.473597
v 93.613594 9.818913 1.485609
v 95.497398 9.817242 -0.389103
v 95.437744 9.787386 -0.332632
v 95.485428 9.818975 -0.386548
v 95.473427 9.817477 -0.380308
v 95.462082 9.813287 -0.371258
v 95.451927 9.806718 -0.359956
v 95.443535 9.798010 -0.346889
v 92.562164 9.787354 -0.332445
v 92.502411 9.817176 -0.388981
v 92.556351 9.797969 -0.346704
v 92.547935 9.806669 -0.359777
v 92.537766 9.813232 -0.371090
v 92.526405 9.817417 -0.380152
v 92.514389 9.818913 -0.386408
v 92.502602 9.817242 0.389103
v 92.562256 9.787386 0.332632
v 92.514572 9.818975 0.386548
v 92.526573 9.817477 0.380308
v 92.537918 9.813287 0.371258
v 92.548073 9.806718 0.359956
v 92.556465 9.798010 0.346889
v 93.755836 9.057803 -1.244835
v 93.795219 9.117535 -1.214848
v 93.757614 9.063603 -1.234209
v 93.761963 9.072011 -1.225488
v 93.768272 9.082179 -1.218898
v 93.776161 9.093537 -1.214681
v 93.785271 9.105552 -1.213150
v 94.204628 9.117652 -1.214002
v 94.244080 9.057988 -1.243692
v 94.214577 9.105686 -1.212229
v 94.223701 9.093688 -1.213692
v 94.231590 9.082343 -1.217850
v 94.237915 9.072186 -1.224391
v 94.242279 9.063786 -1.233080
v 95.214005 9.117652 0.204631
v 95.243690 9.057988 0.244080
v 95.212227 9.105686 0.214578
v 95.213692 9.093688 0.223699
v 95.217850 9.082343 0.231592
v 95.224388 9.072186 0.237916
v 95.233078 9.063786 0.242282
v 94.244164 9.057803 1.244835
v 94.204781 9.117535 1.214848
v 94.242386 9.063603 1.234209
v 94.238037 9.072011 1.225488
v 94.231728 9.082179 1.218898
v 94.223839 9.093537 1.214681
v 94.214729 9.105552 1.213150
v 93.795372 9.117652 1.214002
v 93.755920 9.057988 1.243692
v 93.785423 9.105686 1.212229
v 93.776299 9.093688 1.213692
v 93.768410 9.082343 1.217850
v 93.762085 9.072186 1.224391
v 93.757721 9.063786 1.233080
v 95.244835 9.057803 -0.244165
v 95.214851 9.117535 -0.204784
v 95.234207 9.063603 -0.242385
v 95.225487 9.072011 -0.238034
v 95.218895 9.082179 -0.231724
v 95.214684 9.093537 -0.223842
v 95.213150 9.105552 -0.214728
v 92.785995 9.117652 -0.204631
v 92.756310 9.057988 -0.244080
v 92.787773 9.105686 -0.214578
v 92.786308 9.093688 -0.223699
v 92.782150 9.082343 -0.231592
v 92.775612 9.072186 -0.237916
v 92.766922 9.063786 -0.242282
v 92.755165 9.057803 0.244165
v 92.785149 9.117535 0.204784
v 92.765793 9.063603 0.242385
v 92.774513 9.072011 0.238034
v 92.781105 9.082179 0.231724
v 92.785316 9.093537 0.223842
v 92.786850 9.105552 0.214728
vn -0.1824 0.0001 0.9832
vn -0.5653 -0.0001 0.8249
vn -0.9829 -0.0004 0.1844
vn -0.8242 -0.0000 0.5663
vn -0.1844 -0.0004 -0.9829
vn -0.5663 -0.0000 -0.8242
vn -0.9832 0.0001 -0.1824
vn -0.8249 -0.0001 -0.5653
vn 0.9829 -0.0004 -0.1844
vn 0.8242 -0.0000 -0.5663
vn 0.1824 0.0001 -0.9832
vn 0.5653 -0.0001 -0.8249
vn 0.1844 -0.0004 0.9829
vn 0.5663 -0.0000 0.8242
vn 0.9832 0.0001 0.1824
vn 0.8249 -0.0001 0.5653
vn -0.5310 -0.3459 -0.7735
vn -0.1716 -0.3365 -0.9259
vn 0.5301 -0.3458 -0.7742
vn 0.1696 -0.3370 -0.9261
vn 0.9261 -0.3370 0.1696
vn 0.7742 -0.3458 0.5301
vn 0.1716 -0.3365 0.9259
vn 0.5310 -0.3459 0.7735
vn -0.5301 -0.3458 0.7742
vn -0.1696 -0.3370 0.9261
vn 0.9259 -0.3365 -0.1716
vn 0.7735 -0.3459 -0.5310
vn -0.9261 -0.3370 -0.1696
vn -0.7742 -0.3458 -0.5301
vn -0.9259 -0.3365 0.1716
vn -0.7735 -0.3459 0.5310
vn -0.0000 -1.0000 -0.0000
vn -0.7076 -0.0002 0.7066
vn -0.0009 -0.0004 1.0000
vn -1.0000 -0.0004 -0.0009
vn -0.6671 -0.3331 0.6664
vn -0.7066 -0.0002 -0.7076
vn 0.0009 -0.0004 -1.0000
vn -0.6664 -0.3331 -0.6671
vn 0.7066 -0.0002 0.7076
vn 1.0000 -0.0004 0.0009
vn 0.6664 -0.3331 0.6671
vn 0.7076 -0.0002 -0.7066
vn 0.6671 -0.3331 -0.6664
vn 0.7033 -0.1037 -0.7033
vn -0.0000 -0.1038 -0.9946
vn 0.9946 -0.1038 -0.0000
vn 0.7033 -0.1037 0.7033
vn -0.0000 -0.1038 0.9946
vn -0.7033 -0.1037 -0.7033
vn -0.9946 -0.1038 -0.0000
vn -0.7033 -0.1037 0.7033
vn -0.5652 -0.0000 -0.8249
vn -0.1819 -0.0000 -0.9833
vn 0.5652 -0.0000 -0.8249
vn 0.1819 -0.0000 -0.9833
vn 0.9833 -0.0000 0.1819
vn 0.8249 -0.0000 0.5652
vn 0.1819 -0.0000 0.9833
vn 0.5652 -0.0000 0.8249
vn -0.5652 -0.0000 0.8249
vn -0.1819 -0.0000 0.9833
vn 0.9833 -0.0000 -0.1819
vn 0.8249 -0.0000 -0.5652
vn -0.9833 -0.0000 -0.1819
vn -0.8249 -0.0000 -0.5652
vn -0.9833 -0.0000 0.1819
vn -0.8249 -0.0000 0.5652
vn -0.7071 -0.0000 0.7071
vn -1.0000 -0.0000 -0.0000
vn -0.0000 -0.0000 1.0000
vn -0.7071 -0.0000 -0.7071
vn -0.0000 -0.0000 -1.0000
vn 0.7071 -0.0000 0.7071
vn 1.0000 -0.0000 -0.0000
vn 0.7071 -0.0000 -0.7071
vn 0.0007 -0.3156 -0.9489
vn 0.0007 -0.3172 -0.9484
vn 0.9484 -0.3172 0.0007
vn -0.0007 -0.3156 0.9489
vn -0.0007 -0.3172 0.9484
vn 0.9489 -0.3156 0.0007
vn -0.9484 -0.3172 -0.0007
vn -0.9489 -0.3156 -0.0007
vn -0.0020 -0.3164 0.9486
vn -0.9486 -0.3164 -0.0020
vn -0.9486 -0.3164 0.0001
vn 0.0001 -0.3164 0.9486
vn 0.0020 -0.3164 -0.9486
vn -0.0001 -0.3164 -0.9486
vn 0.9486 -0.3164 0.0020
vn 0.9486 -0.3164 -0.0001
vn -0.0021 -0.1434 0.9897
vn -0.0021 0.1237 0.9923
vn -0.0020 0.3461 0.9382
vn -0.0017 0.5426 0.8400
vn -0.0013 0.7194 0.6946
vn -0.0008 0.8777 0.4793
vn -0.9897 -0.1434 -0.0021
vn -0.9923 0.1237 -0.0021
vn -0.9382 0.3461 -0.0020
vn -0.8400 0.5426 -0.0017
vn -0.6946 0.7194 -0.0013
vn -0.4793 0.8777 -0.0008
vn 0.0021 -0.1434 -0.9897
vn 0.0021 0.1237 -0.9923
vn 0.0020 0.3461 -0.9382
vn 0.0017 0.5426 -0.8400
vn 0.0013 0.7194 -0.6946
vn 0.0008 0.8777 -0.4793
vn 0.9897 -0.1434 0.0021
vn 0.9923 0.1237 0.0021
vn 0.9382 0.3461 0.0020
vn 0.8400 0.5426 0.0017
vn 0.6946 0.7194 0.0013
vn 0.4793 0.8777 0.0008
vn 0.1752 -0.2806 -0.9437
vn 0.4252 -0.2116 -0.8800
vn 0.6158 -0.1404 -0.7753
vn 0.7685 -0.0650 -0.6365
vn 0.8881 0.0167 -0.4594
vn 0.9686 0.1108 -0.2228
vn -0.1732 -0.2823 -0.9436
vn -0.4235 -0.2135 -0.8804
vn -0.6145 -0.1422 -0.7760
vn -0.7676 -0.0667 -0.6375
vn -0.8875 0.0154 -0.4605
vn -0.9684 0.1099 -0.2240
vn 0.9436 -0.2823 -0.1732
vn 0.8804 -0.2135 -0.4235
vn 0.7760 -0.1422 -0.6145
vn 0.6375 -0.0667 -0.7676
vn 0.4605 0.0154 -0.8875
vn 0.2240 0.1099 -0.9684
vn -0.1752 -0.2806 0.9437
vn -0.4252 -0.2116 0.8800
vn -0.6158 -0.1404 0.7753
vn -0.7685 -0.0650 0.6365
vn -0.8881 0.0167 0.4594
vn -0.9686 0.1108 0.2228
vn 0.1732 -0.2823 0.9436
vn 0.4235 -0.2135 0.8804
vn 0.6145 -0.1422 0.7760
vn 0.7676 -0.0667 0.6375
vn 0.8875 0.0154 0.4605
vn 0.9684 0.1099 0.2240
vn 0.9437 -0.2806 0.1752
vn 0.8800 -0.2116 0.4252
vn 0.7753 -0.1404 0.6158
vn 0.6365 -0.0650 0.7685
vn 0.4594 0.0167 0.8881
vn 0.2228 0.1108 0.9686
vn -0.9436 -0.2823 0.1732
vn -0.8804 -0.2135 0.4235
vn -0.7760 -0.1422 0.6145
vn -0.6375 -0.0667 0.7676
vn -0.4605 0.0154 0.8875
vn -0.2240 0.1099 0.9684
vn -0.9437 -0.2806 -0.1752
vn -0.8800 -0.2116 -0.4252
vn -0.7753 -0.1404 -0.6158
vn -0.6365 -0.0650 -0.7685
vn -0.4594 0.0167 -0.8881
vn -0.2228 0.1108 -0.9686
vn 0.1434 -0.9897 -0.0000
vn -0.1237 -0.9923 0.0001
vn -0.3461 -0.9382 0.0001
vn -0.5427 -0.8400 0.0002
vn -0.7194 -0.6946 0.0002
vn -0.8777 -0.4793 0.0002
vn -0.0000 -0.9897 -0.1434
vn 0.0001 -0.9923 0.1237
vn 0.0001 -0.9382 0.3461
vn 0.0002 -0.8400 0.5426
vn 0.0002 -0.6946 0.7194
vn 0.0002 -0.4793 0.8777
vn -0.0000 -0.9897 0.1434
vn -0.0001 -0.9923 -0.1237
vn -0.0001 -0.9382 -0.3461
vn -0.0002 -0.8400 -0.5426
vn -0.0002 -0.6946 -0.7194
vn -0.0002 -0.4793 -0.8777
vn -0.1434 -0.9897 -0.0000
vn 0.1237 -0.9923 -0.0001
vn 0.3461 -0.9382 -0.0001
vn 0.5427 -0.8400 -0.0002
vn 0.7194 -0.6946 -0.0002
vn 0.8777 -0.4793 -0.0002
vn 0.9840 0.1693 -0.0557
vn 0.0007 -0.3164 -0.9486
vn -0.0000 -0.9486 0.3164
vn -0.9840 0.1687 -0.0570
vn 0.0570 0.1687 -0.9840
vn 0.9486 -0.3164 0.0007
vn -0.3164 -0.9486 -0.0000
vn -0.9840 0.1693 0.0557
vn -0.0007 -0.3164 0.9486
vn -0.0000 -0.9486 -0.3164
vn 0.9840 0.1687 0.0570
vn 0.0557 0.1693 0.9840
vn -0.0570 0.1687 0.9840
vn -0.9486 -0.3164 -0.0007
vn 0.3164 -0.9486 -0.0000
vn -0.0557 0.1693 -0.9840
vn 0.0004 0.9486 -0.3164
vn 0.3164 0.9486 0.0004
vn -0.0004 0.9486 0.3164
vn -0.3164 0.9486 -0.0004
vt 0.370451 0.905659
vt 0.629919 0.905492
vt 0.625000 0.937500
vt 0.375000 0.937500
vt 0.375000 0.000000
vt 0.625000 0.000000
vt 0.625108 0.019353
vt 0.375000 0.019299
vt 0.625309 0.089936
vt 0.375000 0.089792
vt 0.375000 0.062500
vt 0.625000 0.062500
vt 0.375000 0.043201
vt 0.625114 0.043147
vt 0.629902 0.344509
vt 0.370451 0.344341
vt 0.375000 0.312500
vt 0.625000 0.312500
vt 0.375000 0.273903
vt 0.625114 0.273795
vt 0.375000 0.160208
vt 0.625325 0.160064
vt 0.625000 0.187500
vt 0.375000 0.187500
vt 0.625108 0.226205
vt 0.375000 0.226097
vt 0.625309 0.589936
vt 0.375000 0.589792
vt 0.373925 0.562754
vt 0.625000 0.562500
vt 0.368567 0.530336
vt 0.631573 0.530246
vt 0.345069 0.440138
vt 0.641618 0.426325
vt 0.645833 0.458333
vt 0.352598 0.460899
vt 0.639500 0.490588
vt 0.360600 0.490498
vt 0.641600 0.823676
vt 0.345069 0.809862
vt 0.352598 0.789101
vt 0.645833 0.791667
vt 0.360600 0.759502
vt 0.639507 0.759412
vt 0.375000 0.660208
vt 0.625325 0.660064
vt 0.625000 0.687500
vt 0.373925 0.687246
vt 0.631567 0.719755
vt 0.368567 0.719664
vt 0.625000 0.281679
vt 0.628655 0.338084
vt 0.640697 0.484017
vt 0.647103 0.460387
vt 0.653143 0.443714
vt 0.625000 0.665571
vt 0.625857 0.687288
vt 0.630137 0.713184
vt 0.653143 0.806286
vt 0.647103 0.789613
vt 0.640697 0.765983
vt 0.625000 0.015410
vt 0.625000 0.937500
vt 0.628655 0.911916
vt 0.625000 0.584429
vt 0.625857 0.562712
vt 0.630137 0.536816
vt 0.625000 0.165571
vt 0.625000 0.218321
vt 0.625000 0.084429
vt 0.625000 0.047090
vt 0.125000 0.589792
vt 0.129971 0.564408
vt 0.144299 0.543201
vt 0.168201 0.519299
vt 0.190461 0.503906
vt 0.223890 0.490903
vt 0.223890 0.759097
vt 0.190461 0.746094
vt 0.168201 0.730701
vt 0.144299 0.706799
vt 0.129971 0.685592
vt 0.125000 0.660208
vt 0.625114 0.043147
vt 0.625114 0.273795
vt 0.631573 0.530245
vt 0.827910 0.515410
vt 0.810089 0.503106
vt 0.810089 0.503106
vt 0.827910 0.515410
vt 0.783261 0.492690
vt 0.783261 0.492690
vt 0.625857 0.687288
vt 0.653143 0.806286
vt 0.640697 0.765983
vt 0.810089 0.746894
vt 0.827910 0.734590
vt 0.827910 0.734590
vt 0.783261 0.757310
vt 0.783261 0.757310
vt 0.625000 0.584429
vt 0.875000 0.584429
vt 0.871032 0.564058
vt 0.871032 0.564058
vt 0.859590 0.547090
vt 0.859590 0.547090
vt 0.871032 0.685942
vt 0.875000 0.665571
vt 0.875000 0.665571
vt 0.871032 0.685942
vt 0.859590 0.702910
vt 0.859590 0.702910
vt 0.641046 0.830316
vt 0.631080 0.898205
vt 0.630785 0.900035
vt 0.641188 0.828650
vt 0.630516 0.901718
vt 0.641317 0.827116
vt 0.630059 0.904494
vt 0.641540 0.824584
vt 0.629988 0.905001
vt 0.641571 0.824125
vt 0.629939 0.905349
vt 0.641592 0.823806
vt 0.629919 0.905492
vt 0.625292 0.096042
vt 0.625305 0.153959
vt 0.625310 0.155489
vt 0.625296 0.094512
vt 0.625314 0.156898
vt 0.625300 0.093103
vt 0.625322 0.159209
vt 0.625307 0.090787
vt 0.625324 0.159643
vt 0.625308 0.090357
vt 0.625325 0.159942
vt 0.625309 0.090059
vt 0.631067 0.351796
vt 0.641060 0.419685
vt 0.641203 0.421351
vt 0.630771 0.349966
vt 0.641333 0.422885
vt 0.630501 0.348283
vt 0.641557 0.425412
vt 0.630042 0.345502
vt 0.641588 0.425875
vt 0.629971 0.344999
vt 0.641610 0.426194
vt 0.629922 0.344652
vt 0.625292 0.596042
vt 0.625305 0.653959
vt 0.625310 0.655489
vt 0.625296 0.594512
vt 0.625314 0.656898
vt 0.625300 0.593103
vt 0.625322 0.659209
vt 0.625307 0.590787
vt 0.625324 0.659643
vt 0.625308 0.590357
vt 0.625325 0.659942
vt 0.625309 0.590059
vt 0.630197 0.345146
vt 0.629809 0.343359
vt 0.629453 0.341724
vt 0.628950 0.339368
vt 0.628800 0.338717
vt 0.628697 0.338268
vt 0.650995 0.436005
vt 0.651536 0.437955
vt 0.652032 0.439740
vt 0.652736 0.442311
vt 0.652942 0.443022
vt 0.653085 0.443513
vt 0.625019 0.660031
vt 0.625014 0.661435
vt 0.625010 0.662718
vt 0.625004 0.664580
vt 0.625002 0.665082
vt 0.625000 0.665429
vt 0.650994 0.813995
vt 0.651535 0.812045
vt 0.652032 0.810260
vt 0.652735 0.807691
vt 0.652942 0.806978
vt 0.653085 0.806488
vt 0.653143 0.806286
vt 0.630198 0.904854
vt 0.629810 0.906641
vt 0.629453 0.908276
vt 0.628950 0.910634
vt 0.628800 0.911283
vt 0.628697 0.911732
vt 0.625018 0.589969
vt 0.625014 0.588565
vt 0.625010 0.587282
vt 0.625003 0.585422
vt 0.625002 0.584918
vt 0.625001 0.584571
vt 0.625019 0.160031
vt 0.625014 0.161435
vt 0.625010 0.162718
vt 0.625004 0.164580
vt 0.625002 0.165082
vt 0.625000 0.165429
vt 0.625018 0.089969
vt 0.625014 0.088565
vt 0.625010 0.087282
vt 0.625003 0.085422
vt 0.625002 0.084918
vt 0.625001 0.084571
s 0
usemtl Material.033
f 1/1/1 10/2/1 12/3/1 3/4/1
f 3/5/2 12/6/2 11/7/2 2/8/2
f 8/9/3 5/10/3 6/11/3 9/12/3
f 9/12/4 6/11/4 4/13/4 7/14/4
f 20/15/5 17/16/5 18/17/5 21/18/5
f 21/18/6 18/17/6 16/19/6 19/20/6
f 13/21/7 22/22/7 24/23/7 15/24/7
f 15/24/8 24/23/8 23/25/8 14/26/8
f 44/27/9 41/28/9 42/29/9 45/30/9
f 45/30/10 42/29/10 40/31/10 43/32/10
f 37/33/11 46/34/11 48/35/11 39/36/11
f 39/36/12 48/35/12 47/37/12 38/38/12
f 32/39/13 29/40/13 30/41/13 33/42/13
f 33/42/14 30/41/14 28/43/14 31/44/14
f 25/45/15 34/46/15 36/47/15 27/48/15
f 27/48/16 36/47/16 35/49/16 26/50/16
f 19/20/17 81/51/17 82/18/17 21/18/17
f 21/18/18 82/18/18 121/52/18 20/15/18
f 84/53/19 47/37/19 48/35/19 83/54/19
f 83/54/20 48/35/20 46/34/20 122/55/20
f 34/46/21 123/56/21 85/57/21 36/47/21
f 36/47/22 85/57/22 86/58/22 35/49/22
f 124/59/23 32/39/23 33/42/23 87/60/23
f 87/60/24 33/42/24 31/44/24 88/61/24
f 90/62/25 11/7/25 12/6/25 89/6/25
f 89/63/26 12/3/26 10/2/26 125/64/26
f 126/65/27 44/27/27 45/30/27 91/66/27
f 91/66/28 45/30/28 43/32/28 92/67/28
f 22/22/29 127/68/29 93/23/29 24/23/29
f 24/23/30 93/23/30 94/69/30 23/25/30
f 128/70/31 8/9/31 9/12/31 95/12/31
f 95/12/32 9/12/32 7/14/32 96/71/32
f 13/72/33 15/73/33 14/74/33 16/75/33 18/76/33 17/77/33 37/33/33 39/36/33 38/38/33 40/31/33 42/29/33 41/28/33 25/45/33 27/48/33 26/50/33 28/43/33 30/41/33 29/40/33 1/78/33 3/79/33 2/80/33 4/81/33 6/82/33 5/83/33
f 49/8/34 50/7/34 51/84/34 52/13/34
f 53/40/35 54/39/35 55/2/35 56/1/35
f 57/10/36 58/9/36 59/22/36 60/21/36
f 7/14/37 11/7/37 90/62/37 96/71/37
f 61/85/38 62/19/38 63/26/38 64/25/38
f 65/16/39 66/15/39 67/34/39 68/33/39
f 19/20/40 23/25/40 94/69/40 81/51/40
f 69/44/41 70/43/41 71/50/41 72/49/41
f 73/28/42 74/27/42 75/46/42 76/45/42
f 31/44/43 35/49/43 86/58/43 88/61/43
f 77/86/44 78/31/44 79/38/44 80/37/44
f 43/32/45 47/37/45 84/53/45 92/67/45
f 4/13/46 2/8/46 49/8/46 52/13/46
f 1/1/47 29/40/47 53/40/47 56/1/47
f 13/21/48 5/10/48 57/10/48 60/21/48
f 16/19/49 14/26/49 63/26/49 62/19/49
f 37/33/50 17/16/50 65/16/50 68/33/50
f 28/43/51 26/50/51 71/50/51 70/43/51
f 25/45/52 41/28/52 73/28/52 76/45/52
f 40/31/53 38/38/53 79/38/53 78/31/53
f 97/87/54 98/88/54 82/89/54 81/90/54
f 98/88/55 99/91/55 121/92/55 82/89/55
f 100/54/56 101/53/56 84/53/56 83/54/56
f 102/55/57 100/54/57 83/54/57 122/55/57
f 103/56/58 104/93/58 85/57/58 123/56/58
f 104/93/59 105/58/59 86/58/59 85/57/59
f 106/60/60 107/94/60 124/59/60 87/60/60
f 108/95/61 106/60/61 87/60/61 88/61/61
f 109/96/62 110/97/62 90/98/62 89/96/62
f 111/99/63 109/96/63 89/96/63 125/100/63
f 112/66/64 113/101/64 126/65/64 91/66/64
f 114/67/65 112/66/65 91/66/65 92/67/65
f 115/102/66 116/103/66 93/104/66 127/102/66
f 116/103/67 117/105/67 94/106/67 93/104/67
f 118/107/68 119/108/68 128/109/68 95/110/68
f 120/111/69 118/107/69 95/110/69 96/112/69
f 110/97/70 120/111/70 96/112/70 90/98/70
f 119/108/71 115/102/71 127/102/71 128/109/71
f 107/94/72 111/99/72 125/100/72 124/59/72
f 117/105/73 97/87/73 81/90/73 94/106/73
f 99/91/74 102/55/74 122/55/74 121/92/74
f 105/58/75 108/95/75 88/61/75 86/58/75
f 113/101/76 103/56/76 123/56/76 126/65/76
f 101/53/77 114/67/77 92/67/77 84/53/77
f 137/52/78 133/15/78 20/15/78 121/52/78
f 134/34/79 138/55/79 122/55/79 46/34/79
f 136/46/80 139/56/80 123/56/80 34/46/80
f 140/59/81 129/39/81 32/39/81 124/59/81
f 130/2/82 141/64/82 125/64/82 10/2/82
f 142/65/83 135/27/83 44/27/83 126/65/83
f 132/22/84 143/68/84 127/68/84 22/22/84
f 144/70/85 131/9/85 8/9/85 128/70/85
f 129/39/86 130/2/86 10/2/86 32/39/86
f 131/9/87 132/22/87 22/22/87 8/9/87
f 143/68/88 144/70/88 128/70/88 127/68/88
f 141/64/89 140/59/89 124/59/89 125/64/89
f 133/15/90 134/34/90 46/34/90 20/15/90
f 138/55/91 137/52/91 121/52/91 122/55/91
f 135/27/92 136/46/92 34/46/92 44/27/92
f 139/56/93 142/65/93 126/65/93 123/56/93
f 223/113/94 229/114/94 231/115/94 228/116/94
f 228/116/95 231/115/95 232/117/95 227/118/95
f 227/118/96 232/117/96 233/119/96 226/120/96
f 226/120/97 233/119/97 234/121/97 225/122/97
f 225/122/98 234/121/98 235/123/98 224/124/98
f 224/124/99 235/123/99 230/125/99 222/39/99
f 251/126/100 243/127/100 245/128/100 256/129/100
f 256/129/101 245/128/101 246/130/101 255/131/101
f 255/131/102 246/130/102 247/132/102 254/133/102
f 254/133/103 247/132/103 248/134/103 253/135/103
f 253/135/104 248/134/104 249/136/104 252/137/104
f 252/137/105 249/136/105 244/22/105 250/9/105
f 202/138/106 208/139/106 210/140/106 207/141/106
f 207/141/107 210/140/107 211/142/107 206/143/107
f 206/143/108 211/142/108 212/144/108 205/145/108
f 205/145/109 212/144/109 213/146/109 204/147/109
f 204/147/110 213/146/110 214/148/110 203/149/110
f 203/149/111 214/148/111 209/34/111 201/15/111
f 237/150/112 215/151/112 217/152/112 242/153/112
f 242/153/113 217/152/113 218/154/113 241/155/113
f 241/155/114 218/154/114 219/156/114 240/157/114
f 240/157/115 219/156/115 220/158/115 239/159/115
f 239/159/116 220/158/116 221/160/116 238/161/116
f 238/161/117 221/160/117 216/46/117 236/27/117
f 146/162/118 202/138/118 207/141/118 151/163/118
f 151/163/119 207/141/119 206/143/119 150/164/119
f 150/164/120 206/143/120 205/145/120 149/165/120
f 149/165/121 205/145/121 204/147/121 148/166/121
f 148/166/122 204/147/122 203/149/122 147/167/122
f 147/167/123 203/149/123 201/15/123 145/52/123
f 208/139/124 152/168/124 154/169/124 210/140/124
f 210/140/125 154/169/125 155/170/125 211/142/125
f 211/142/126 155/170/126 156/171/126 212/144/126
f 212/144/127 156/171/127 157/172/127 213/146/127
f 213/146/128 157/172/128 158/173/128 214/148/128
f 214/148/129 158/173/129 153/55/129 209/34/129
f 215/151/130 159/174/130 161/175/130 217/152/130
f 217/152/131 161/175/131 162/176/131 218/154/131
f 218/154/132 162/176/132 163/177/132 219/156/132
f 219/156/133 163/177/133 164/178/133 220/158/133
f 220/158/134 164/178/134 165/179/134 221/160/134
f 221/160/135 165/179/135 160/56/135 216/46/135
f 167/180/136 223/113/136 228/116/136 172/181/136
f 172/181/137 228/116/137 227/118/137 171/182/137
f 171/182/138 227/118/138 226/120/138 170/183/138
f 170/183/139 226/120/139 225/122/139 169/184/139
f 169/184/140 225/122/140 224/124/140 168/185/140
f 168/185/141 224/124/141 222/39/141 166/186/141
f 229/114/142 173/187/142 175/188/142 231/115/142
f 231/115/143 175/188/143 176/189/143 232/117/143
f 232/117/144 176/189/144 177/190/144 233/119/144
f 233/119/145 177/190/145 178/191/145 234/121/145
f 234/121/146 178/191/146 179/192/146 235/123/146
f 235/123/147 179/192/147 174/64/147 230/125/147
f 181/193/148 237/150/148 242/153/148 186/194/148
f 186/194/149 242/153/149 241/155/149 185/195/149
f 185/195/150 241/155/150 240/157/150 184/196/150
f 184/196/151 240/157/151 239/159/151 183/197/151
f 183/197/152 239/159/152 238/161/152 182/198/152
f 182/198/153 238/161/153 236/27/153 180/65/153
f 243/127/154 187/199/154 189/200/154 245/128/154
f 245/128/155 189/200/155 190/201/155 246/130/155
f 246/130/156 190/201/156 191/202/156 247/132/156
f 247/132/157 191/202/157 192/203/157 248/134/157
f 248/134/158 192/203/158 193/204/158 249/136/158
f 249/136/159 193/204/159 188/68/159 244/22/159
f 195/205/160 251/126/160 256/129/160 200/206/160
f 200/206/161 256/129/161 255/131/161 199/207/161
f 199/207/162 255/131/162 254/133/162 198/208/162
f 198/208/163 254/133/163 253/135/163 197/209/163
f 197/209/164 253/135/164 252/137/164 196/210/164
f 196/210/165 252/137/165 250/9/165 194/70/165
f 194/70/166 188/68/166 193/204/166 196/210/166
f 196/210/167 193/204/167 192/203/167 197/209/167
f 197/209/168 192/203/168 191/202/168 198/208/168
f 198/208/169 191/202/169 190/201/169 199/207/169
f 199/207/170 190/201/170 189/200/170 200/206/170
f 200/206/171 189/200/171 187/199/171 195/205/171
f 166/186/172 174/64/172 179/192/172 168/185/172
f 168/185/173 179/192/173 178/191/173 169/184/173
f 169/184/174 178/191/174 177/190/174 170/183/174
f 170/183/175 177/190/175 176/189/175 171/182/175
f 171/182/176 176/189/176 175/188/176 172/181/176
f 172/181/177 175/188/177 173/187/177 167/180/177
f 145/52/178 153/55/178 158/173/178 147/167/178
f 147/167/179 158/173/179 157/172/179 148/166/179
f 148/166/180 157/172/180 156/171/180 149/165/180
f 149/165/181 156/171/181 155/170/181 150/164/181
f 150/164/182 155/170/182 154/169/182 151/163/182
f 151/163/183 154/169/183 152/168/183 146/162/183
f 180/65/184 160/56/184 165/179/184 182/198/184
f 182/198/185 165/179/185 164/178/185 183/197/185
f 183/197/186 164/178/186 163/177/186 184/196/186
f 184/196/187 163/177/187 162/176/187 185/195/187
f 185/195/188 162/176/188 161/175/188 186/194/188
f 186/194/189 161/175/189 159/174/189 181/193/189
f 145/52/190 201/15/190 133/15/190 137/52/190
f 208/139/191 202/138/191 146/162/191 152/168/191
f 153/55/192 145/52/192 137/52/192 138/55/192
f 209/34/193 153/55/193 138/55/193 134/34/193
f 216/46/194 160/56/194 139/56/194 136/46/194
f 215/151/195 237/150/195 181/193/195 159/174/195
f 160/56/196 180/65/196 142/65/196 139/56/196
f 166/186/197 222/39/197 129/39/197 140/59/197
f 229/114/198 223/113/198 167/180/198 173/187/198
f 174/64/199 166/186/199 140/59/199 141/64/199
f 230/125/200 174/64/200 141/64/200 130/2/200
f 180/65/201 236/27/201 135/27/201 142/65/201
f 244/22/202 188/68/202 143/68/202 132/22/202
f 243/127/203 251/126/203 195/205/203 187/199/203
f 188/68/204 194/70/204 144/70/204 143/68/204
f 194/70/205 250/9/205 131/9/205 144/70/205
f 201/15/206 209/34/206 134/34/206 133/15/206
f 236/27/207 216/46/207 136/46/207 135/27/207
f 222/39/208 230/125/208 130/2/208 129/39/208
f 250/9/209 244/22/209 132/22/209 131/9/209
