# Blender 5.2.0 LTS
# www.blender.org
mtllib ChamberTestLaser.mtl
o Icosphere.001
v 3.430884 5.551469 42.235912
v -3.430885 -5.551470 42.235912
v -3.430884 -5.551469 -42.235912
v 3.430885 5.551470 -42.235912
v -2.914300 5.829638 -42.237240
v -6.517393 -0.000477 -42.237255
v -42.184025 -0.000459 -6.853495
v -42.169373 5.985580 -3.518434
v -42.225136 -5.686090 -3.341862
v -42.169365 5.985604 3.518455
v -42.225136 -5.686057 3.341902
v -42.184017 -0.000401 6.853536
v -6.517415 -0.000486 42.237251
v -2.914321 5.829628 42.237232
v 6.517416 0.000464 -42.237247
v 2.914322 -5.829651 -42.237236
v 6.517416 0.000463 42.237247
v 2.914321 -5.829652 42.237236
v -42.640305 0.037551 -5.260719
v -42.629166 4.612194 -2.711096
v -42.671677 -4.308368 2.575629
v -42.640297 0.037604 5.260758
v -42.671677 -4.308394 -2.575595
v -42.629162 4.612212 2.711124
v -2.398549 -3.881122 -43.286293
v -4.530494 -0.046478 -43.287224
v 2.398554 3.881119 -43.286293
v -1.984554 4.073076 -43.287212
v 1.984578 -4.073087 -43.287209
v 4.530517 0.046462 -43.287220
v -5.050116 -0.034435 42.911125
v -2.227733 4.532423 42.911106
v -2.668506 -4.317913 42.910088
v 2.668505 4.317909 42.910088
v 2.227735 -4.532444 42.911110
v 5.050117 0.034413 42.911121
vn -0.0000 -0.0000 -1.0000
vn -0.0002 -0.0004 -1.0000
vn 1.0000 -0.0048 -0.0000
vn 0.0002 0.0004 -1.0000
vn 1.0000 -0.0047 0.0041
vn 1.0000 -0.0047 -0.0041
vn 0.9486 -0.1558 0.2754
vn 0.9501 0.1589 -0.2683
vn 0.9501 0.1589 0.2683
vn 0.9483 -0.3175 -0.0000
vn 0.9513 0.3083 -0.0000
vn 0.9486 -0.1558 -0.2754
vn -0.4565 -0.2540 -0.8527
vn 0.0230 0.5219 -0.8527
vn -0.4443 0.2746 -0.8528
vn -0.0231 -0.5219 -0.8527
vn 0.4565 0.2540 -0.8527
vn 0.4443 -0.2746 -0.8528
vn 0.3997 -0.2470 -0.8827
vn 0.4107 0.2286 -0.8827
vn -0.0208 -0.4695 -0.8827
vn 0.0208 0.4695 -0.8827
vn -0.4107 -0.2286 -0.8827
vn -0.3997 0.2470 -0.8827
vt 0.000000 0.000000
s 0
usemtl 
f 26/1/1 30/1/1 29/1/1
f 32/1/2 34/1/2 36/1/2
f 32/1/1 36/1/1 31/1/1
f 21/1/3 23/1/3 20/1/3
f 33/1/4 31/1/4 35/1/4
f 24/1/3 21/1/3 20/1/3
f 23/1/5 19/1/5 20/1/5
f 24/1/6 22/1/6 21/1/6
f 28/1/4 27/1/4 30/1/4
f 28/1/1 30/1/1 26/1/1
f 31/1/1 36/1/1 35/1/1
f 25/1/2 26/1/2 29/1/2
f 20/1/7 19/1/7 7/1/7 8/1/7
f 21/1/8 22/1/8 12/1/8 11/1/8
f 19/1/9 23/1/9 9/1/9 7/1/9
f 24/1/10 20/1/10 8/1/10 10/1/10
f 23/1/11 21/1/11 11/1/11 9/1/11
f 22/1/12 24/1/12 10/1/12 12/1/12
f 26/1/13 25/1/13 3/1/13 6/1/13
f 27/1/14 28/1/14 5/1/14 4/1/14
f 28/1/15 26/1/15 6/1/15 5/1/15
f 25/1/16 29/1/16 16/1/16 3/1/16
f 30/1/17 27/1/17 4/1/17 15/1/17
f 29/1/18 30/1/18 15/1/18 16/1/18
f 32/1/19 31/1/19 13/1/19 14/1/19
f 31/1/20 33/1/20 2/1/20 13/1/20
f 34/1/21 32/1/21 14/1/21 1/1/21
f 33/1/22 35/1/22 18/1/22 2/1/22
f 36/1/23 34/1/23 1/1/23 17/1/23
f 35/1/24 36/1/24 17/1/24 18/1/24
