# Blender 5.2.0 LTS
# www.blender.org
mtllib RadiationScrubbers.mtl
o Chamber.001
v 27.601393 -5.551483 32.152855
v 19.436533 -0.000001 26.752073
v 22.049917 5.551486 36.186249
v -22.049915 -5.551485 36.186249
v -19.423626 0.001695 26.764236
v -27.601393 5.551485 32.152859
v -27.601393 5.551483 -32.152855
v -19.423630 0.001693 -26.764236
v -22.049917 -5.551486 -36.186249
v 22.049915 5.551485 -36.186249
v 19.436535 -0.000001 -26.752071
v 27.601393 -5.551485 -32.152859
v 34.575161 -0.000479 -25.120121
v 32.047688 5.985610 -27.632956
v 32.196613 -5.686153 -27.522863
v 23.288509 -0.020076 -23.476048
v 27.184143 5.829662 -32.457661
v -19.553728 -0.000480 -38.001495
v -22.468786 5.829645 -35.883575
v -22.468807 5.829634 35.883564
v -19.553749 -0.000490 38.001488
v 27.184130 5.829618 32.457672
v 23.288500 -0.020112 23.476057
v 32.047672 5.985538 27.632994
v 32.196590 -5.686202 27.522879
v 34.575134 -0.000559 25.120159
v 16.226595 5.686161 -39.125790
v 15.130583 0.020080 -29.403141
v 13.206508 0.000478 -40.645420
v 22.468803 -5.829662 -35.883564
v 16.377392 -5.985620 -39.018139
v -32.196598 5.686154 -27.522882
v -36.125278 5.686142 -22.115480
v -23.275366 0.021570 -23.485920
v -26.760691 0.023451 -19.423182
v -38.156094 0.000464 -19.250319
v -27.184105 -5.829657 -32.457687
v -32.047630 -5.985609 -27.633017
v -36.183884 -5.985597 -21.939939
v -36.125278 5.686142 22.115484
v -32.196598 5.686155 27.522886
v -38.156090 0.000463 19.250320
v -26.760691 0.023451 19.423183
v -23.275362 0.021573 23.485916
v -36.183884 -5.985597 21.939939
v -32.047630 -5.985608 27.633017
v -27.184105 -5.829656 32.457687
v 16.226597 5.686161 39.125790
v 13.206511 0.000478 40.645420
v 15.130583 0.020080 29.403141
v 16.377394 -5.985620 39.018139
v 22.468807 -5.829662 35.883564
v 25.593313 -0.023527 -20.873816
v 24.328957 2.687368 -22.133152
v 31.839828 -4.535350 -28.069130
v 27.280293 4.690463 -32.511993
v 27.654743 -4.410295 -32.235291
v 22.111824 4.410295 -36.262463
v -16.752632 -0.077211 -28.472134
v -18.209740 2.687368 -27.414768
v -22.681276 -4.443001 -35.889694
v -27.654745 4.410293 -32.235287
v -22.681276 -4.442999 35.889694
v -16.752640 -0.077222 28.472124
v -27.654745 4.410295 32.235287
v -23.047487 4.664542 35.631279
v 24.442726 -2.764551 22.043669
v 25.593292 -0.023586 20.873844
v 22.111824 4.410296 36.262463
v 27.280273 4.690418 32.512009
v 31.695511 4.834488 28.182507
v 27.654747 -4.410293 32.235283
v 13.411634 2.687368 -30.058245
v 17.418818 -2.764551 -27.938816
v 13.531952 -2.764551 -29.977661
v 14.447401 0.000530 -40.166790
v -25.064526 2.687368 -21.373493
v -27.607664 2.687368 -17.921307
v -21.146469 -2.764551 -25.235964
v -24.949821 -2.764551 -21.462837
v -27.644938 -2.764551 -17.810696
v -37.495838 -0.029749 -20.399111
v -25.064528 2.687368 21.373495
v -27.607662 2.687368 17.921312
v -21.146469 -2.764551 25.235964
v -27.644939 -2.764551 17.810696
v -24.949818 -2.764551 21.462837
v -37.495834 -0.029749 20.399113
v 13.411634 2.687368 30.058245
v 17.418818 -2.764551 27.938816
v 13.531955 -2.764551 29.977665
v 14.447404 0.000530 40.166790
v 33.736500 -0.000524 -26.152382
v 31.695530 4.834557 -28.182468
v 24.442739 -2.764551 -22.043661
v 21.188749 2.687368 -25.199793
v 21.457907 -2.764551 -25.003218
v 17.148632 2.687368 -28.134094
v -20.699789 -0.030811 -37.336983
v -23.047466 4.664552 -35.631290
v -17.932133 -2.764551 -27.606010
v -21.416468 2.687368 -25.037769
v -17.932131 -2.764551 27.606014
v -20.699808 -0.030823 37.336975
v -21.416466 2.687368 25.037769
v -18.209755 2.687368 27.414759
v 31.839808 -4.535394 28.069143
v 33.736473 -0.000603 26.152418
v 17.148624 2.687368 28.134094
v 21.188732 2.687368 25.199806
v 24.328941 2.687368 22.133177
v 21.457912 -2.764551 25.003210
v 16.856382 4.535357 -38.955265
v 22.490763 -4.690462 -35.991798
v 17.008829 -4.834567 -38.853024
v 11.943530 0.023539 -30.791000
v -32.282139 4.546254 -27.580162
v -35.861977 4.549130 -22.707462
v -27.280254 -4.690457 -32.512020
v -32.137859 -4.846221 -27.693254
v -35.907913 -4.849586 -22.564764
v -28.613235 -0.035003 -16.491108
v -32.282139 4.546255 27.580166
v -35.861977 4.549130 22.707466
v -27.280254 -4.690456 32.512020
v -35.907917 -4.849586 22.564764
v -32.137859 -4.846220 27.693254
v -28.613226 -0.035006 16.491116
v 16.856384 4.535357 38.955265
v 22.490767 -4.690462 35.991798
v 17.008831 -4.834566 38.853024
v 11.943531 0.023539 30.791002
vn -0.7482 0.0312 0.6627
vn -0.7480 -0.0411 0.6624
vn -0.6961 -0.0860 0.7128
vn -0.7021 0.0743 0.7081
vn -0.6478 0.0082 0.7618
vn -0.6478 -0.0175 0.7616
vn -0.5856 -0.0839 0.8063
vn 0.5391 0.0346 0.8415
vn 0.5375 -0.0389 0.8424
vn 0.5938 -0.0744 0.8011
vn 0.5938 -0.0744 -0.8011
vn 0.5391 0.0346 -0.8415
vn 0.5375 -0.0389 -0.8424
vn -0.5856 -0.0839 -0.8063
vn -0.6478 0.0082 -0.7618
vn -0.6478 -0.0175 -0.7616
vn -0.6961 -0.0860 -0.7128
vn -0.7021 0.0743 -0.7081
vn -0.7482 0.0312 -0.6627
vn -0.7480 -0.0411 -0.6624
vn -0.5243 -0.0085 0.8515
vn -0.5860 0.0816 0.8062
vn -0.4564 -0.0764 0.8865
vn -0.3991 -0.0321 0.9164
vn -0.5241 0.0170 0.8515
vn -0.4629 0.0837 0.8825
vn -0.3989 0.0400 0.9161
vn 0.6481 -0.0086 0.7615
vn 0.5918 0.0748 0.8026
vn 0.7062 -0.0832 0.7031
vn 0.7590 -0.0066 0.6511
vn 0.8027 -0.0782 0.5913
vn 0.8453 -0.0320 0.5334
vn 0.6481 0.0170 0.7614
vn 0.7013 0.0918 0.7069
vn 0.7589 0.0166 0.6510
vn 0.8015 0.0879 0.5915
vn 0.8443 0.0412 0.5343
vn 0.8453 -0.0320 -0.5334
vn 0.8027 -0.0782 -0.5913
vn 0.7590 -0.0066 -0.6511
vn 0.7062 -0.0832 -0.7031
vn 0.6481 -0.0086 -0.7615
vn 0.8443 0.0412 -0.5343
vn 0.8015 0.0879 -0.5915
vn 0.7589 0.0166 -0.6510
vn 0.7013 0.0918 -0.7069
vn 0.6481 0.0170 -0.7614
vn 0.5918 0.0748 -0.8026
vn -0.3991 -0.0321 -0.9164
vn -0.4564 -0.0764 -0.8865
vn -0.5243 -0.0085 -0.8515
vn -0.3989 0.0400 -0.9161
vn -0.4629 0.0837 -0.8825
vn -0.5241 0.0170 -0.8515
vn -0.5860 0.0816 -0.8062
vn -0.7748 -0.0630 0.6291
vn -0.7750 0.0582 0.6293
vn -0.6963 -0.1092 0.7094
vn -0.7027 0.1002 0.7044
vn -0.5822 -0.0866 0.8084
vn 0.5019 -0.0625 0.8627
vn 0.5015 0.0573 0.8632
vn 0.5910 -0.1030 0.8000
vn 0.5015 0.0573 -0.8632
vn 0.5910 -0.1030 -0.8000
vn 0.5019 -0.0625 -0.8627
vn -0.7750 0.0582 -0.6293
vn -0.5822 -0.0866 -0.8084
vn -0.6963 -0.1092 -0.7094
vn -0.7027 0.1002 -0.7044
vn -0.7748 -0.0630 -0.6291
vn -0.4528 -0.1002 0.8860
vn -0.5890 0.0866 0.8035
vn -0.4595 0.1092 0.8814
vn -0.3590 -0.0582 0.9315
vn -0.3589 0.0630 0.9312
vn 0.7056 -0.0860 0.7034
vn 0.8031 -0.1046 0.5866
vn 0.5830 0.1018 0.8061
vn 0.6997 0.0929 0.7084
vn 0.8024 0.1110 0.5863
vn 0.8653 -0.0580 0.4979
vn 0.8660 0.0624 0.4961
vn 0.7056 -0.0860 -0.7034
vn 0.8031 -0.1046 -0.5866
vn 0.5830 0.1018 -0.8061
vn 0.8024 0.1110 -0.5863
vn 0.6997 0.0929 -0.7084
vn 0.8653 -0.0580 -0.4979
vn 0.8660 0.0624 -0.4961
vn -0.4528 -0.1002 -0.8860
vn -0.5890 0.0866 -0.8035
vn -0.4595 0.1092 -0.8814
vn -0.3590 -0.0582 -0.9315
vn -0.3589 0.0630 -0.9312
vn 0.4570 0.5160 0.7245
vn 0.4702 -0.5042 0.7244
vn -0.1589 0.9768 0.1433
vn -0.1333 -0.9842 0.1169
vn -0.1327 0.9810 0.1417
vn 0.7810 0.5241 -0.3396
vn 0.8022 -0.4750 -0.3616
vn 0.0928 0.9813 0.1689
vn 0.8022 -0.4750 0.3616
vn 0.0928 0.9813 -0.1689
vn 0.7810 0.5241 0.3396
vn 0.4702 -0.5042 -0.7244
vn -0.1327 0.9810 -0.1417
vn -0.1589 0.9768 -0.1433
vn -0.1333 -0.9842 -0.1169
vn 0.4570 0.5160 -0.7245
vn -0.0735 0.9827 0.1698
vn -0.0892 -0.9825 0.1638
vn -0.0837 -0.9785 0.1887
vn -0.8327 0.5080 -0.2203
vn -0.8317 -0.5124 -0.2138
vn 0.1394 0.9826 0.1226
vn 0.1551 0.9813 0.1138
vn 0.1310 -0.9820 0.1358
vn 0.1544 -0.9783 0.1380
vn 0.1731 -0.9767 0.1271
vn -0.3396 0.5230 0.7817
vn -0.3460 -0.4873 0.8018
vn 0.1394 0.9826 -0.1226
vn 0.1551 0.9813 -0.1138
vn 0.1310 -0.9820 -0.1358
vn 0.1731 -0.9767 -0.1271
vn 0.1544 -0.9783 -0.1379
vn -0.3396 0.5230 -0.7817
vn -0.3460 -0.4873 -0.8018
vn -0.0735 0.9827 -0.1698
vn -0.0892 -0.9825 -0.1638
vn -0.0837 -0.9785 -0.1887
vn -0.8327 0.5080 0.2203
vn -0.8317 -0.5124 0.2138
vt 0.470100 0.224581
vt 0.463419 0.236199
vt 0.477273 0.236191
vt 0.470353 0.248210
vt 0.488692 0.247927
vt 0.488297 0.224481
vt 0.500000 0.236191
vt 0.511527 0.247801
vt 0.675037 0.224462
vt 0.668396 0.235982
vt 0.681818 0.236191
vt 0.675286 0.247920
vt 0.693369 0.247795
vt 0.045455 0.236191
vt 0.033756 0.247920
vt 0.051976 0.247920
vt 0.052222 0.224454
vt 0.058872 0.235975
vt 0.227273 0.236191
vt 0.215747 0.247801
vt 0.238664 0.248210
vt 0.238977 0.224481
vt 0.250001 0.236191
vt 0.256904 0.248220
vt 0.257174 0.224581
vt 0.263854 0.236182
vt 0.522728 0.236191
vt 0.511391 0.224172
vt 0.529864 0.247819
vt 0.536581 0.236200
vt 0.529631 0.224162
vt 0.704546 0.236191
vt 0.693205 0.224177
vt 0.715938 0.247906
vt 0.727273 0.236191
vt 0.734262 0.247915
vt 0.741156 0.236000
vt 0.715939 0.224073
vt 0.734265 0.224062
vt 0.895208 0.236000
vt 0.902102 0.247915
vt 0.909091 0.236191
vt 0.920426 0.247906
vt 0.931818 0.236191
vt 0.942994 0.247795
vt 0.942995 0.247692
vt 0.954545 0.236191
vt 0.902099 0.224062
vt 0.920486 0.224171
vt 0.943155 0.224171
vt 0.961327 0.224462
vt 0.190693 0.236200
vt 0.197410 0.247819
vt 0.204546 0.236191
vt 0.197643 0.224162
vt 0.215883 0.224172
vt 0.468110 0.252078
vt 0.458941 0.236196
vt 0.454546 0.236191
vt 0.465910 0.255874
vt 0.467984 0.220507
vt 0.465910 0.216509
vt 0.488658 0.251934
vt 0.488637 0.255874
vt 0.488470 0.220448
vt 0.488637 0.216508
vt 0.511443 0.251875
vt 0.511364 0.255874
vt 0.672848 0.251934
vt 0.663699 0.236089
vt 0.659091 0.236191
vt 0.670455 0.255874
vt 0.672724 0.220448
vt 0.670455 0.216508
vt 0.693262 0.251875
vt 0.693182 0.255874
vt 0.054542 0.220443
vt 0.063572 0.236083
vt 0.068182 0.236191
vt 0.056819 0.216509
vt 0.054420 0.251934
vt 0.033925 0.251934
vt 0.034091 0.255874
vt 0.056819 0.255874
vt 0.259290 0.220507
vt 0.268333 0.236185
vt 0.272728 0.236191
vt 0.261364 0.216509
vt 0.238650 0.252078
vt 0.215830 0.251875
vt 0.215910 0.255874
vt 0.238637 0.255874
vt 0.259155 0.252083
vt 0.261364 0.255874
vt 0.238803 0.220448
vt 0.238637 0.216509
vt 0.531997 0.251884
vt 0.534091 0.255874
vt 0.511377 0.220304
vt 0.511364 0.216508
vt 0.531882 0.220299
vt 0.534091 0.216508
vt 0.541060 0.236197
vt 0.545455 0.236191
vt 0.715923 0.251927
vt 0.715909 0.255874
vt 0.736470 0.251932
vt 0.738637 0.255874
vt 0.693195 0.220304
vt 0.693182 0.216508
vt 0.715923 0.220255
vt 0.715909 0.216508
vt 0.736471 0.220249
vt 0.738637 0.216508
vt 0.745620 0.236097
vt 0.750000 0.236191
vt 0.943102 0.251875
vt 0.920441 0.251927
vt 0.920455 0.255874
vt 0.943182 0.255874
vt 0.899894 0.251932
vt 0.897727 0.255874
vt 0.943169 0.220304
vt 0.963640 0.220448
vt 0.965909 0.216509
vt 0.943182 0.216508
vt 0.899893 0.220249
vt 0.920470 0.220304
vt 0.920455 0.216508
vt 0.897727 0.216508
vt 0.890744 0.236097
vt 0.886364 0.236191
vt 0.195277 0.251884
vt 0.193183 0.255874
vt 0.215897 0.220304
vt 0.215910 0.216508
vt 0.195392 0.220299
vt 0.193183 0.216508
vt 0.186214 0.236197
vt 0.181819 0.236191
s 0
usemtl 
f 95/1/1 53/2/1 16/3/1
f 53/2/2 54/4/2 16/3/2
f 16/3/3 54/4/3 96/5/3
f 95/1/4 16/3/4 97/6/4
f 97/6/5 16/3/5 11/7/5
f 16/3/6 96/5/6 11/7/6
f 11/7/7 96/5/7 98/8/7
f 101/9/8 59/10/8 8/11/8
f 59/10/9 60/12/9 8/11/9
f 8/11/10 60/12/10 102/13/10
f 5/14/11 105/15/11 106/16/11
f 103/17/12 5/14/12 64/18/12
f 5/14/13 106/16/13 64/18/13
f 2/19/14 109/20/14 110/21/14
f 112/22/15 2/19/15 23/23/15
f 2/19/16 110/21/16 23/23/16
f 23/23/17 110/21/17 111/24/17
f 112/22/18 23/23/18 67/25/18
f 67/25/19 23/23/19 68/26/19
f 23/23/20 111/24/20 68/26/20
f 11/7/21 98/8/21 28/27/21
f 97/6/22 11/7/22 74/28/22
f 98/8/23 73/29/23 28/27/23
f 28/27/24 73/29/24 116/30/24
f 11/7/25 28/27/25 74/28/25
f 74/28/26 28/27/26 75/31/26
f 28/27/27 116/30/27 75/31/27
f 8/11/28 102/13/28 34/32/28
f 101/9/29 8/11/29 79/33/29
f 102/13/30 77/34/30 34/32/30
f 34/32/31 77/34/31 35/35/31
f 77/34/32 78/36/32 35/35/32
f 35/35/33 78/36/33 122/37/33
f 8/11/34 34/32/34 79/33/34
f 79/33/35 34/32/35 80/38/35
f 34/32/36 35/35/36 80/38/36
f 80/38/37 35/35/37 81/39/37
f 35/35/38 122/37/38 81/39/38
f 128/40/39 84/41/39 43/42/39
f 84/41/40 83/43/40 43/42/40
f 43/42/41 83/43/41 44/44/41
f 83/43/42 105/45/42 44/44/42
f 44/44/43 105/46/43 5/47/43
f 128/40/44 43/42/44 86/48/44
f 86/48/45 43/42/45 87/49/45
f 43/42/46 44/44/46 87/49/46
f 87/49/47 44/44/47 85/50/47
f 44/44/48 5/47/48 85/50/48
f 85/50/49 5/47/49 103/51/49
f 132/52/50 89/53/50 50/54/50
f 89/53/51 109/20/51 50/54/51
f 50/54/52 109/20/52 2/19/52
f 132/52/53 50/54/53 91/55/53
f 91/55/54 50/54/54 90/56/54
f 50/54/55 2/19/55 90/56/55
f 90/56/56 2/19/56 112/22/56
f 94/57/57 93/58/57 13/59/57 14/60/57
f 93/58/58 55/61/58 15/62/58 13/59/58
f 56/63/59 94/57/59 14/60/59 17/64/59
f 55/61/60 57/65/60 12/66/60 15/62/60
f 58/67/61 56/63/61 17/64/61 10/68/61
f 100/69/62 99/70/62 18/71/62 19/72/62
f 99/70/63 61/73/63 9/74/63 18/71/63
f 62/75/64 100/69/64 19/72/64 7/76/64
f 63/77/65 104/78/65 21/79/65 4/80/65
f 66/81/66 65/82/66 6/83/66 20/84/66
f 104/78/67 66/81/67 20/84/67 21/79/67
f 107/85/68 108/86/68 26/87/68 25/88/68
f 70/89/69 69/90/69 3/91/69 22/92/69
f 71/93/70 70/89/70 22/92/70 24/94/70
f 72/95/71 107/85/71 25/88/71 1/96/71
f 108/86/72 71/93/72 24/94/72 26/87/72
f 113/97/73 58/67/73 10/68/73 27/98/73
f 57/65/74 114/99/74 30/100/74 12/66/74
f 114/99/75 115/101/75 31/102/75 30/100/75
f 76/103/76 113/97/76 27/98/76 29/104/76
f 115/101/77 76/103/77 29/104/77 31/102/77
f 117/105/78 62/75/78 7/76/78 32/106/78
f 118/107/79 117/105/79 32/106/79 33/108/79
f 61/73/80 119/109/80 37/110/80 9/74/80
f 119/109/81 120/111/81 38/112/81 37/110/81
f 120/111/82 121/113/82 39/114/82 38/112/82
f 82/115/83 118/107/83 33/108/83 36/116/83
f 121/113/84 82/115/84 36/116/84 39/114/84
f 65/117/85 123/118/85 41/119/85 6/120/85
f 123/118/86 124/121/86 40/122/86 41/119/86
f 125/123/87 63/124/87 4/125/87 47/126/87
f 126/127/88 127/128/88 46/129/88 45/130/88
f 127/128/89 125/123/89 47/126/89 46/129/89
f 124/121/90 88/131/90 42/132/90 40/122/90
f 88/131/91 126/127/91 45/130/91 42/132/91
f 69/90/92 129/133/92 48/134/92 3/91/92
f 130/135/93 72/95/93 1/96/93 52/136/93
f 131/137/94 130/135/94 52/136/94 51/138/94
f 129/133/95 92/139/95 49/140/95 48/134/95
f 92/139/96 131/137/96 51/138/96 49/140/96
f 54/4/97 53/2/97 93/58/97 94/57/97
f 53/2/98 95/1/98 55/61/98 93/58/98
f 96/5/99 54/4/99 94/57/99 56/63/99
f 95/1/100 97/6/100 57/65/100 55/61/100
f 98/8/101 96/5/101 56/63/101 58/67/101
f 60/12/102 59/10/102 99/70/102 100/69/102
f 59/10/103 101/9/103 61/73/103 99/70/103
f 102/13/104 60/12/104 100/69/104 62/75/104
f 103/17/105 64/18/105 104/78/105 63/77/105
f 106/16/106 105/15/106 65/82/106 66/81/106
f 64/18/107 106/16/107 66/81/107 104/78/107
f 67/25/108 68/26/108 108/86/108 107/85/108
f 110/21/109 109/20/109 69/90/109 70/89/109
f 111/24/110 110/21/110 70/89/110 71/93/110
f 112/22/111 67/25/111 107/85/111 72/95/111
f 68/26/112 111/24/112 71/93/112 108/86/112
f 73/29/113 98/8/113 58/67/113 113/97/113
f 97/6/114 74/28/114 114/99/114 57/65/114
f 74/28/115 75/31/115 115/101/115 114/99/115
f 116/30/116 73/29/116 113/97/116 76/103/116
f 75/31/117 116/30/117 76/103/117 115/101/117
f 77/34/118 102/13/118 62/75/118 117/105/118
f 78/36/119 77/34/119 117/105/119 118/107/119
f 101/9/120 79/33/120 119/109/120 61/73/120
f 79/33/121 80/38/121 120/111/121 119/109/121
f 80/38/122 81/39/122 121/113/122 120/111/122
f 122/37/123 78/36/123 118/107/123 82/115/123
f 81/39/124 122/37/124 82/115/124 121/113/124
f 105/45/125 83/43/125 123/118/125 65/117/125
f 83/43/126 84/41/126 124/121/126 123/118/126
f 85/50/127 103/51/127 63/124/127 125/123/127
f 86/48/128 87/49/128 127/128/128 126/127/128
f 87/49/129 85/50/129 125/123/129 127/128/129
f 84/41/130 128/40/130 88/131/130 124/121/130
f 128/40/131 86/48/131 126/127/131 88/131/131
f 109/20/132 89/53/132 129/133/132 69/90/132
f 90/56/133 112/22/133 72/95/133 130/135/133
f 91/55/134 90/56/134 130/135/134 131/137/134
f 89/53/135 132/52/135 92/139/135 129/133/135
f 132/52/136 91/55/136 131/137/136 92/139/136
