# Blender 5.2.1 LTS
# www.blender.org
mtllib ChamberStuff.mtl
o Cube.097
v -24.445328 9.355152 36.562653
v -37.460472 9.534660 25.062962
v -24.445328 9.355152 -36.562653
v -37.460472 9.534660 -25.062962
v -24.453506 -8.359970 36.576378
v -37.474483 -8.642024 25.071428
v -24.453506 -8.359970 -36.576378
v -37.474483 -8.642024 -25.071426
v -21.889153 16.935257 32.948013
v -33.088108 16.935257 21.749060
v -21.889153 16.935255 -32.948013
v -33.088108 16.935255 -21.749060
v -22.715874 -14.215117 33.623001
v -21.736588 -16.805283 31.968134
v -33.763092 -14.215117 22.575783
v -32.108227 -16.805283 21.596495
v -22.715878 -14.215117 -33.623001
v -21.736588 -16.805283 -31.968132
v -33.763092 -14.215117 -22.575781
v -32.108227 -16.805283 -21.596495
v -25.203053 9.534660 37.320377
v -25.211517 -8.642024 37.334389
v -36.702747 9.355152 24.305235
v -36.716473 -8.359970 24.313417
v -25.211517 -8.642024 -37.334389
v -25.203053 9.534660 -37.320377
v -36.716473 -8.359970 -24.313416
v -36.702747 9.355152 -24.305235
v -22.786507 21.209049 33.321297
v -23.586765 18.362078 34.645630
v -33.461380 21.209049 22.646404
v -34.785725 18.362078 23.446674
v -23.586765 18.362078 -34.645630
v -22.786499 21.209049 -33.321293
v -33.461384 21.209049 -22.646410
v -34.785725 18.362078 -23.446676
v -22.323433 -17.486889 32.554981
v -20.969238 -20.206291 30.313969
v -23.355057 -14.793801 34.262184
v -30.454056 -20.206291 20.829149
v -32.695076 -17.486889 22.183342
v -34.402275 -14.793801 23.214968
v -20.969242 -20.206291 -30.313965
v -22.323433 -17.486889 -32.554981
v -23.355061 -14.793801 -34.262184
v -30.454056 -20.206291 -20.829147
v -32.695076 -17.486889 -22.183342
v -34.402275 -14.793801 -23.214966
v -21.563194 18.105003 32.401031
v -22.786507 21.209049 33.321297
v -21.429527 18.973948 32.115841
v -21.511265 19.744081 32.086655
v -33.461380 21.209049 22.646404
v -32.541119 18.105007 21.423096
v -32.226734 19.744083 21.371159
v -32.255920 18.973949 21.289423
v -21.786499 20.209049 -32.321293
v -21.563190 18.105003 -32.401031
v -21.511253 19.744083 -32.086647
v -21.429516 18.973949 -32.115833
v -32.541122 18.105003 -21.423100
v -32.461384 20.209049 -21.646410
v -32.255928 18.973949 -21.289431
v -32.226742 19.744083 -21.371168
v -20.954601 -20.186939 30.299330
v -20.792854 -18.712181 30.390831
v -20.735657 -19.728546 30.114313
v -20.676453 -19.188747 30.147806
v -30.530918 -18.712185 20.652765
v -30.439415 -20.186939 20.814510
v -30.287891 -19.188751 20.536362
v -30.254398 -19.728550 20.595564
v -20.792858 -18.712181 -30.390827
v -20.954601 -20.186935 -30.299324
v -20.676456 -19.188751 -30.147800
v -20.735661 -19.728546 -30.114309
v -30.439415 -20.186935 -20.814507
v -30.530922 -18.712181 -20.652765
v -30.254398 -19.728546 -20.595562
v -30.287895 -19.188751 -20.536362
v -35.507652 9.355152 -25.500334
v -31.096992 -16.805283 -22.607729
v -32.685989 -14.215117 -23.652885
v -31.181980 19.744083 -22.415928
v -31.200352 18.973949 -22.345003
v -31.470776 18.105003 -22.493448
v -29.514648 -20.186935 -21.739277
v -35.520832 -8.359970 -25.509054
v -32.420582 21.209049 -23.687210
v -31.996212 16.935255 -22.840958
v -31.420582 20.209049 -22.687210
v -29.326321 -19.728546 -21.523640
v -29.350780 -19.188751 -21.473476
v -29.581459 -18.712181 -21.602226
v -25.532574 -8.359970 -35.497314
v -23.725822 21.209049 -32.381969
v -22.874592 16.935255 -31.962578
v -22.725822 20.209049 -31.381969
v -21.573250 -19.728546 -29.276720
v -21.522202 -19.188751 -29.302055
v -21.649746 -18.712181 -29.533939
v -25.523903 9.355152 -35.484077
v -22.649223 -16.805283 -31.055492
v -23.687962 -14.215117 -32.650917
v -22.454147 19.744083 -31.143753
v -22.382172 18.973949 -31.163177
v -22.529179 18.105003 -31.435043
v -21.789207 -20.186935 -29.464720
v -35.812077 -8.359970 -25.217808
v -32.674110 21.209049 -23.433681
v -32.262188 16.935255 -22.574982
v -31.674110 20.209049 -22.433681
v -29.552391 -19.728546 -21.297569
v -29.579052 -19.188751 -21.245205
v -29.812740 -18.712181 -21.370947
v -35.798763 9.355152 -25.209221
v -31.343319 -16.805283 -22.361403
v -32.948360 -14.215117 -23.390514
v -31.436474 19.744083 -22.161434
v -31.457478 18.973949 -22.087875
v -31.731503 18.105003 -22.232723
v -29.739910 -20.186935 -21.514011
v -36.409901 -8.359970 -24.619989
v -33.194511 21.209049 -22.913280
v -32.808132 16.935255 -22.029034
v -32.194511 20.209049 -21.913280
v -30.016430 -19.728546 -20.833530
v -30.047611 -19.188751 -20.776648
v -30.287472 -18.712181 -20.896217
v -36.396313 9.355152 -24.611671
v -31.848934 -16.805283 -21.855785
v -33.486912 -14.215117 -22.851961
v -31.958855 19.744083 -21.639055
v -31.985268 18.973949 -21.560089
v -32.266674 18.105003 -21.697548
v -30.202297 -20.186935 -21.051628
v -24.749542 9.355152 -36.258438
v -21.993999 -16.805283 -31.710722
v -22.990055 -14.215117 -33.348824
v -21.777199 19.744083 -31.820702
v -21.698215 18.973949 -31.847136
v -21.835648 18.105003 -32.128574
v -21.190002 -20.186935 -30.063923
v -24.757858 -8.359970 -36.272026
v -23.051437 21.209049 -33.056355
v -22.167095 16.935255 -32.670067
v -22.051437 20.209049 -32.056355
v -20.971901 -19.728546 -29.878067
v -20.915001 -19.188751 -29.909256
v -21.034546 -18.712181 -30.149141
v -25.261173 9.355152 -35.746807
v -22.426914 -16.805283 -31.277802
v -23.451172 -14.215117 -32.887707
v -22.224468 19.744083 -31.373432
v -22.150116 18.973949 -31.395235
v -22.293873 18.105003 -31.670349
v -21.585903 -20.186935 -29.668022
v -25.269726 -8.359970 -35.760162
v -23.497013 21.209049 -32.610779
v -22.634548 16.935255 -32.202621
v -22.497013 20.209049 -31.610779
v -21.369221 -19.728546 -29.480747
v -21.316189 -19.188751 -29.508070
v -21.441017 -18.712181 -29.742668
v -25.580669 9.355152 35.427311
v -22.697258 -16.805283 31.007462
v -23.739120 -14.215117 32.599754
v -22.503784 19.744081 31.094131
v -22.432320 18.973948 31.113043
v -22.580025 18.105003 31.384201
v -21.833130 -20.186939 29.420799
v -25.589367 -8.359970 35.440521
v -22.926453 16.935257 31.910709
v -23.775269 21.209049 32.332535
v -21.617329 -19.728546 29.232639
v -21.566711 -19.188747 29.257547
v -21.694843 -18.712181 29.488842
v -35.564419 9.355152 25.443565
v -31.145027 -16.805283 22.559696
v -32.737152 -14.215117 23.601723
v -31.231602 19.744083 22.366293
v -31.250484 18.973949 22.294859
v -31.521610 18.105007 22.442602
v -29.558575 -20.186939 21.695354
v -35.577625 -8.359970 25.452263
v -32.048077 16.935257 22.789093
v -32.470016 21.209049 23.637768
v -29.370403 -19.728550 21.479557
v -29.395290 -19.188751 21.428965
v -29.626556 -18.712185 21.557125
v -35.827148 9.355152 25.180836
v -31.367336 -16.805283 22.337387
v -32.973942 -14.215117 23.364933
v -31.461281 19.744083 22.136612
v -31.482540 18.973949 22.062801
v -31.756916 18.105007 22.207298
v -29.761875 -20.186939 21.492054
v -35.840473 -8.359970 25.189415
v -32.288120 16.935257 22.549049
v -32.698826 21.209049 23.408958
v -29.574432 -19.728550 21.275528
v -29.601307 -19.188751 21.222950
v -29.835285 -18.712185 21.348396
v -36.396313 9.355152 24.611671
v -31.848934 -16.805283 21.855785
v -33.486912 -14.215117 22.851963
v -31.958847 19.744083 21.639046
v -31.985260 18.973949 21.560083
v -32.266670 18.105007 21.697544
v -30.202297 -20.186939 21.051632
v -36.409901 -8.359970 24.619991
v -32.808132 16.935257 22.029034
v -33.194508 21.209049 22.913277
v -30.016430 -19.728550 20.833532
v -30.047604 -19.188751 20.776648
v -30.287464 -18.712185 20.896217
v -25.312683 -8.359970 35.717205
v -22.673779 16.935257 32.163383
v -23.534416 21.209049 32.573387
v -21.402561 -19.728546 29.447407
v -21.349854 -19.188747 29.474405
v -21.475128 -18.712181 29.708557
v -25.304111 9.355152 35.703869
v -22.463249 -16.805283 31.241470
v -23.489868 -14.215117 32.849007
v -22.262016 19.744081 31.335899
v -22.188049 18.973948 31.357315
v -22.332333 18.105003 31.631889
v -21.619129 -20.186939 29.634800
v -24.744755 -8.359970 36.285133
v -22.155125 16.935257 32.682037
v -23.040035 21.209049 33.067768
v -20.961723 -19.728546 29.888243
v -20.904724 -19.188747 29.919535
v -21.024136 -18.712181 30.159552
v -24.736439 9.355152 36.271538
v -21.982914 -16.805283 31.721807
v -22.978245 -14.215117 33.360630
v -21.765755 19.744081 31.832161
v -21.686653 18.973948 31.858713
v -21.823917 18.105003 32.140305
v -21.179863 -20.186939 30.074066
vn 0.7071 -0.0009 -0.7071
vn 0.7071 -0.0009 0.7071
vn 0.6128 -0.4989 -0.6128
vn 0.6128 -0.4989 0.6128
vn 0.5741 0.5838 -0.5741
vn 0.5741 0.5838 0.5741
vn 0.6152 0.4929 -0.6152
vn 0.6152 0.4929 0.6152
vn 0.7071 0.0002 0.7071
vn -0.7071 0.0002 -0.7071
vn 0.7071 0.0002 -0.7071
vn -0.7071 0.0002 0.7071
vn 0.7293 0.0752 0.6801
vn -0.6801 0.0752 -0.7293
vn 0.7293 0.0752 -0.6801
vn -0.6801 0.0752 0.7293
vn 0.7600 -0.1175 0.6392
vn -0.6392 -0.1175 -0.7600
vn 0.7600 -0.1175 -0.6392
vn -0.6392 -0.1175 0.7600
vn 0.7367 -0.1140 0.6665
vn -0.6665 -0.1140 -0.7367
vn 0.7367 -0.1140 -0.6665
vn -0.6665 -0.1140 0.7367
vn 0.4501 0.7712 -0.4501
vn 0.7063 0.0482 -0.7063
vn 0.6693 -0.3226 -0.6693
vn 0.5588 0.6128 0.5588
vn 0.7063 0.0482 0.7063
vn 0.6693 -0.3226 0.6693
vn 0.7457 0.0994 0.6589
vn 0.6254 -0.4667 -0.6254
vn -0.6589 0.0994 -0.7457
vn 0.7460 0.1000 -0.6583
vn 0.6254 -0.4667 0.6254
vn 0.4082 0.8165 0.4082
vn -0.6583 0.1000 0.7460
vn 0.6001 -0.5289 -0.6001
vn 0.7067 -0.0337 -0.7067
vn 0.6239 0.4706 -0.6239
vn 0.6001 -0.5289 0.6001
vn 0.7067 -0.0337 0.7067
vn 0.6239 0.4706 0.6239
vn 0.7750 -0.1263 0.6192
vn 0.5165 0.6829 -0.5165
vn -0.6192 -0.1263 -0.7750
vn 0.7750 -0.1263 -0.6192
vn 0.5165 0.6829 0.5165
vn -0.6192 -0.1263 0.7750
vn 0.7067 -0.0336 0.7067
vn 0.5165 0.6829 0.5166
vt 0.375000 0.050136
vt 0.375000 0.051422
vt 0.625000 0.051422
vt 0.625000 0.050136
vt 0.625000 0.201149
vt 0.625000 0.198578
vt 0.375000 0.198578
vt 0.375000 0.201149
vt 0.850254 0.694858
vt 0.858879 0.699483
vt 0.859784 0.698578
vt 0.851088 0.694023
vt 0.818558 0.523420
vt 0.824477 0.516114
vt 0.823578 0.515216
vt 0.817730 0.522592
vt 0.185761 0.721561
vt 0.182508 0.725496
vt 0.183291 0.726279
vt 0.186507 0.722309
vt 0.155869 0.558378
vt 0.151172 0.555872
vt 0.150348 0.556697
vt 0.155083 0.559165
vt 0.175562 0.733924
vt 0.176422 0.734784
vt 0.141121 0.550517
vt 0.140216 0.551422
vt 0.375000 0.000000
vt 0.625000 0.000000
vt 0.625000 0.301422
vt 0.375000 0.301422
vt 0.823578 0.734784
vt 0.817730 0.727408
vt 0.859784 0.551422
vt 0.851088 0.555977
vt 0.150348 0.693303
vt 0.155083 0.690835
vt 0.183291 0.523721
vt 0.186507 0.527691
vt 0.140216 0.698578
vt 0.176422 0.515216
vt 0.816401 0.724012
vt 0.815633 0.724781
vt 0.815646 0.724889
vt 0.816417 0.724117
vt 0.816239 0.725539
vt 0.817014 0.724763
vt 0.816846 0.726300
vt 0.817630 0.725514
vt 0.847176 0.556798
vt 0.847985 0.557607
vt 0.848105 0.557607
vt 0.847293 0.556795
vt 0.848881 0.557137
vt 0.848064 0.556319
vt 0.849779 0.556665
vt 0.848956 0.555840
vt 0.815633 0.724781
vt 0.848956 0.694160
vt 0.849779 0.693335
vt 0.847985 0.692393
vt 0.848105 0.692393
vt 0.848881 0.692863
vt 0.815633 0.525219
vt 0.815646 0.525111
vt 0.816239 0.524461
vt 0.816846 0.523700
vt 0.817663 0.524518
vt 0.816436 0.526023
vt 0.816436 0.526023
vt 0.163610 0.687604
vt 0.162883 0.686875
vt 0.162750 0.686891
vt 0.163480 0.687623
vt 0.161771 0.687440
vt 0.162506 0.688177
vt 0.160656 0.688006
vt 0.161399 0.688751
vt 0.191221 0.534710
vt 0.191942 0.533987
vt 0.191908 0.533873
vt 0.191185 0.534598
vt 0.191167 0.533089
vt 0.190438 0.533821
vt 0.190390 0.532189
vt 0.189652 0.532929
vt 0.191942 0.716013
vt 0.191908 0.716127
vt 0.191167 0.716911
vt 0.190390 0.717811
vt 0.189684 0.717103
vt 0.161399 0.561249
vt 0.160656 0.561994
vt 0.162883 0.563125
vt 0.162750 0.563110
vt 0.161771 0.562560
vt 0.625000 0.292372
vt 0.625000 0.208605
vt 0.375000 0.208605
vt 0.375000 0.292372
vt 0.183742 0.530461
vt 0.180392 0.526623
vt 0.153560 0.553482
vt 0.158147 0.556096
vt 0.173236 0.518402
vt 0.143746 0.547892
vt 0.818480 0.528069
vt 0.844830 0.554450
vt 0.844940 0.554439
vt 0.818502 0.527971
vt 0.845697 0.553950
vt 0.819111 0.527336
vt 0.846568 0.553451
vt 0.819744 0.526601
vt 0.187774 0.534812
vt 0.163555 0.559088
vt 0.163939 0.560386
vt 0.164637 0.559687
vt 0.162849 0.559796
vt 0.164900 0.560953
vt 0.165593 0.560259
vt 0.165026 0.560976
vt 0.165716 0.560284
vt 0.845599 0.555219
vt 0.844830 0.554449
vt 0.845599 0.555219
vt 0.847350 0.554234
vt 0.848628 0.553515
vt 0.847835 0.552722
vt 0.857114 0.548752
vt 0.856254 0.547892
vt 0.826764 0.518402
vt 0.820665 0.525530
vt 0.818480 0.528069
vt 0.189385 0.536552
vt 0.189340 0.536448
vt 0.188580 0.535682
vt 0.188411 0.534173
vt 0.184416 0.529786
vt 0.818411 0.526635
vt 0.819038 0.525894
vt 0.817806 0.527274
vt 0.817787 0.527375
vt 0.181098 0.525916
vt 0.174012 0.517626
vt 0.625000 0.294577
vt 0.375000 0.294577
vt 0.625000 0.206163
vt 0.375000 0.206163
vt 0.152778 0.554265
vt 0.157401 0.556844
vt 0.142886 0.548752
vt 0.845711 0.555210
vt 0.846472 0.554726
vt 0.858879 0.550517
vt 0.850254 0.555143
vt 0.163610 0.562396
vt 0.163479 0.562379
vt 0.162505 0.561823
vt 0.625000 0.298870
vt 0.375000 0.298870
vt 0.182473 0.524539
vt 0.185727 0.528472
vt 0.175523 0.516114
vt 0.816451 0.525918
vt 0.817049 0.525272
vt 0.825988 0.517626
vt 0.819950 0.524814
vt 0.817787 0.527375
vt 0.190008 0.535927
vt 0.189966 0.535820
vt 0.189210 0.535051
vt 0.158001 0.693758
vt 0.153408 0.696366
vt 0.180239 0.723225
vt 0.183597 0.719393
vt 0.143578 0.701940
vt 0.173068 0.731431
vt 0.844980 0.695401
vt 0.818630 0.721781
vt 0.818652 0.721879
vt 0.845090 0.695411
vt 0.819262 0.722513
vt 0.845849 0.695898
vt 0.819901 0.723242
vt 0.846721 0.696397
vt 0.163417 0.690774
vt 0.187636 0.715050
vt 0.375000 0.003603
vt 0.375000 0.004763
vt 0.625000 0.004763
vt 0.625000 0.003603
vt 0.820067 0.725069
vt 0.826115 0.732248
vt 0.826932 0.731431
vt 0.820820 0.724316
vt 0.819158 0.723985
vt 0.189906 0.713971
vt 0.189249 0.713313
vt 0.189205 0.713417
vt 0.189863 0.714076
vt 0.188444 0.714181
vt 0.189107 0.714846
vt 0.188307 0.715723
vt 0.162780 0.690135
vt 0.157328 0.693084
vt 0.846549 0.695198
vt 0.847427 0.695690
vt 0.845786 0.694714
vt 0.845674 0.694706
vt 0.152701 0.695659
vt 0.142802 0.701164
vt 0.375000 0.046646
vt 0.625000 0.046646
vt 0.856422 0.701940
vt 0.847990 0.697123
vt 0.165582 0.689582
vt 0.165461 0.689609
vt 0.164501 0.690178
vt 0.375000 0.047749
vt 0.625000 0.047749
vt 0.857198 0.701164
vt 0.848705 0.696408
vt 0.164960 0.688957
vt 0.164836 0.688982
vt 0.163871 0.689546
vt 0.151172 0.694128
vt 0.155869 0.691622
vt 0.141121 0.699483
vt 0.847176 0.693202
vt 0.847293 0.693206
vt 0.848065 0.693680
vt 0.180983 0.723969
vt 0.184306 0.720104
vt 0.173885 0.732248
vt 0.817900 0.722511
vt 0.817920 0.722612
vt 0.818526 0.723250
vt 0.190469 0.716211
vt 0.191215 0.715432
vt 0.191252 0.715321
vt 0.818522 0.726615
vt 0.824438 0.733924
vt 0.375000 0.001221
vt 0.625000 0.001221
s 0
f 211/1/1 24/2/1 23/3/1 204/4/1
f 130/5/2 28/6/2 27/7/2 123/8/2
f 212/9/3 204/10/3 23/11/3 10/12/3
f 146/13/4 137/14/4 3/15/4 11/16/4
f 237/17/5 238/18/5 13/19/5 14/20/5
f 131/21/6 132/22/6 19/23/6 20/24/6
f 238/18/7 230/25/7 5/26/7 13/19/7
f 132/22/8 123/27/8 27/28/8 19/23/8
f 5/29/9 1/30/9 21/30/9 22/29/9
f 23/3/10 24/2/10 6/2/10 2/3/10
f 3/31/11 7/32/11 25/32/11 26/31/11
f 27/7/12 28/6/12 4/6/12 8/7/12
f 1/33/13 9/34/13 30/34/13 21/33/13
f 10/12/14 23/11/14 2/11/14 32/12/14
f 11/16/15 3/15/15 26/15/15 33/16/15
f 28/35/16 12/36/16 36/36/16 4/35/16
f 14/20/17 13/19/17 39/19/17 37/20/17
f 15/37/18 16/38/18 41/38/18 42/37/18
f 17/39/19 18/40/19 44/40/19 45/39/19
f 20/24/20 19/23/20 48/23/20 47/24/20
f 13/19/21 5/26/21 22/26/21 39/19/21
f 24/41/22 15/37/22 42/37/22 6/41/22
f 7/42/23 17/39/23 45/39/23 25/42/23
f 19/23/24 27/28/24 8/28/24 48/23/24
f 232/43/25 50/44/25 52/45/25 239/46/25
f 239/46/26 52/45/26 51/47/26 240/48/26
f 240/48/27 51/47/27 49/49/27 241/50/27
f 126/51/28 62/52/28 64/53/28 133/54/28
f 133/54/29 64/53/29 63/55/29 134/56/29
f 134/56/30 63/55/30 61/57/30 135/58/30
f 9/34/31 49/49/31 51/47/31 52/45/31 50/44/31 29/59/31 30/34/31
f 209/60/32 212/9/32 10/12/32 54/61/32
f 53/62/33 55/63/33 56/64/33 54/61/33 10/12/33 32/12/33 31/62/33
f 57/65/34 59/66/34 60/67/34 58/68/34 11/16/34 33/16/34 34/65/34
f 142/69/35 146/13/35 11/16/35 58/68/35
f 147/70/36 57/65/36 34/65/36 145/71/36
f 12/36/37 61/57/37 63/55/37 64/53/37 62/52/37 35/52/37 36/36/37
f 210/72/38 70/73/38 72/74/38 214/75/38
f 214/75/39 72/74/39 71/76/39 215/77/39
f 215/77/40 71/76/40 69/78/40 216/79/40
f 143/80/41 74/81/41 76/82/41 148/83/41
f 148/83/42 76/82/42 75/84/42 149/85/42
f 149/85/43 75/84/43 73/86/43 150/87/43
f 65/88/44 67/89/44 68/90/44 66/91/44 14/20/44 37/20/44 38/88/44
f 235/92/45 237/17/45 14/20/45 66/91/45
f 16/38/46 69/78/46 71/76/46 72/74/46 70/73/46 40/73/46 41/38/46
f 18/40/47 73/86/47 75/84/47 76/82/47 74/81/47 43/81/47 44/40/47
f 129/93/48 131/21/48 20/24/48 78/94/48
f 77/95/49 79/96/49 80/97/49 78/94/49 20/24/49 47/24/49 46/95/49
f 102/98/2 81/99/2 88/100/2 95/101/2
f 103/102/6 104/103/6 83/104/6 82/105/6
f 104/103/8 95/106/8 88/107/8 83/104/8
f 98/108/28 91/109/28 84/110/28 105/111/28
f 105/111/29 84/110/29 85/112/29 106/113/29
f 106/113/30 85/112/30 86/114/30 107/115/30
f 101/116/48 103/102/48 82/105/48 94/117/48
f 114/118/43 93/119/43 94/117/43 115/120/43
f 113/121/50 92/122/50 93/119/50 114/118/50
f 122/123/41 87/124/41 92/122/41 113/121/41
f 112/125/36 91/109/36 89/126/36 110/127/36
f 121/128/35 111/129/35 90/130/35 86/114/35
f 111/129/4 116/131/4 81/132/4 90/130/4
f 90/130/4 81/132/4 102/133/4 97/134/4
f 86/114/35 90/130/35 97/134/35 107/115/35
f 91/109/36 98/108/36 96/135/36 89/126/36
f 87/124/41 108/136/41 99/137/41 92/122/41
f 92/122/42 99/137/42 100/138/42 93/119/42
f 93/119/43 100/138/43 101/116/43 94/117/43
f 164/139/48 152/140/48 103/102/48 101/116/48
f 155/141/30 106/113/30 107/115/30 156/142/30
f 154/143/29 105/111/29 106/113/29 155/141/29
f 161/144/28 98/108/28 105/111/28 154/143/28
f 153/145/8 158/146/8 95/106/8 104/103/8
f 152/140/6 153/145/6 104/103/6 103/102/6
f 151/147/2 102/98/2 95/101/2 158/148/2
f 81/99/2 116/149/2 109/150/2 88/100/2
f 82/105/6 83/104/6 118/151/6 117/152/6
f 83/104/8 88/107/8 109/153/8 118/151/8
f 91/109/28 112/125/28 119/154/28 84/110/28
f 84/110/29 119/154/29 120/155/29 85/112/29
f 85/112/30 120/155/30 121/128/30 86/114/30
f 94/117/48 82/105/48 117/152/48 115/120/48
f 12/36/4 28/35/4 130/156/4 125/157/4
f 61/57/35 12/36/35 125/157/35 135/58/35
f 62/52/36 126/51/36 124/51/36 35/52/36
f 77/95/41 136/158/41 127/159/41 79/96/41
f 79/96/50 127/159/50 128/160/50 80/97/50
f 80/97/43 128/160/43 129/93/43 78/94/43
f 3/31/2 137/161/2 144/162/2 7/32/2
f 18/40/6 17/39/6 139/163/6 138/164/6
f 17/39/8 7/42/8 144/165/8 139/163/8
f 57/65/28 147/70/28 140/166/28 59/66/28
f 59/66/29 140/166/29 141/167/29 60/67/29
f 60/67/30 141/167/30 142/69/30 58/68/30
f 73/86/51 18/40/51 138/164/51 150/87/51
f 97/134/4 102/133/4 151/168/4 160/169/4
f 107/115/35 97/134/35 160/169/35 156/142/35
f 98/108/36 161/144/36 159/170/36 96/135/36
f 108/136/41 157/171/41 162/172/41 99/137/41
f 99/137/42 162/172/42 163/173/42 100/138/42
f 100/138/43 163/173/43 164/139/43 101/116/43
f 179/174/5 180/175/5 167/176/5 166/177/5
f 180/175/7 185/178/7 172/179/7 167/176/7
f 187/180/25 174/181/25 168/182/25 181/183/25
f 181/183/26 168/182/26 169/184/26 182/185/26
f 182/185/27 169/184/27 170/186/27 183/187/27
f 190/188/45 179/174/45 166/177/45 177/189/45
f 217/190/1 172/191/1 165/192/1 223/193/1
f 218/194/3 223/195/3 165/196/3 173/197/3
f 228/198/32 218/194/32 173/197/32 170/186/32
f 229/199/38 171/200/38 175/201/38 220/202/38
f 220/202/39 175/201/39 176/203/39 221/204/39
f 221/204/40 176/203/40 177/189/40 222/205/40
f 203/206/45 192/207/45 179/174/45 190/188/45
f 195/208/27 182/185/27 183/187/27 196/209/27
f 194/210/26 181/183/26 182/185/26 195/208/26
f 200/211/25 187/180/25 181/183/25 194/210/25
f 193/212/7 198/213/7 185/178/7 180/175/7
f 192/207/5 193/212/5 180/175/5 179/174/5
f 172/191/1 185/214/1 178/215/1 165/192/1
f 173/197/3 165/196/3 178/216/3 186/217/3
f 170/186/32 173/197/32 186/217/32 183/187/32
f 171/200/38 184/218/38 188/219/38 175/201/38
f 175/201/39 188/219/39 189/220/39 176/203/39
f 176/203/40 189/220/40 190/188/40 177/189/40
f 185/214/1 198/221/1 191/222/1 178/215/1
f 186/217/3 178/216/3 191/223/3 199/224/3
f 183/187/32 186/217/32 199/224/32 196/209/32
f 184/218/38 197/225/38 201/226/38 188/219/38
f 188/219/39 201/226/39 202/227/39 189/220/39
f 189/220/40 202/227/40 203/206/40 190/188/40
f 16/38/5 15/37/5 206/228/5 205/229/5
f 15/37/7 24/41/7 211/230/7 206/228/7
f 53/62/25 213/231/25 207/232/25 55/63/25
f 55/63/26 207/232/26 208/233/26 56/64/26
f 56/64/27 208/233/27 209/60/27 54/61/27
f 69/78/45 16/38/45 205/229/45 216/79/45
f 166/177/5 167/176/5 225/234/5 224/235/5
f 167/176/7 172/179/7 217/236/7 225/234/7
f 174/181/25 219/237/25 226/238/25 168/182/25
f 168/182/26 226/238/26 227/239/26 169/184/26
f 169/184/27 227/239/27 228/198/27 170/186/27
f 177/189/45 166/177/45 224/235/45 222/205/45
f 68/90/40 234/240/40 235/92/40 66/91/40
f 67/89/39 233/241/39 234/240/39 68/90/39
f 65/88/38 242/242/38 233/241/38 67/89/38
f 49/49/32 9/34/32 231/243/32 241/50/32
f 9/34/3 1/33/3 236/244/3 231/243/3
f 5/29/1 230/245/1 236/246/1 1/30/1
