# Blender 5.2.1 LTS
# www.blender.org
mtllib ChamberDetails4.mtl
o Cube.099
v -36.089878 9.355152 -24.918106
v -36.103325 -8.359970 -24.926563
v -32.927639 21.209049 -23.180153
v -32.528160 16.935255 -22.309008
v -31.589645 -16.805283 -22.115076
v -33.210732 -14.215117 -23.128141
v -31.927639 20.209049 -22.180153
v -31.690968 19.744083 -21.906942
v -31.714607 18.973949 -21.830750
v -31.992226 18.105003 -21.971996
v -29.965176 -20.186935 -21.288748
v -29.778461 -19.728546 -21.071499
v -29.807323 -19.188751 -21.016933
v -30.044018 -18.712181 -21.139668
v -24.998444 9.355152 -36.009537
v -22.204605 -16.805283 -31.500113
v -23.214382 -14.215117 -33.124496
v -21.994789 19.744083 -31.603111
v -21.918056 18.973949 -31.627293
v -22.058567 18.105003 -31.905653
v -21.382603 -20.186935 -29.871323
v -25.006874 -8.359970 -36.023010
v -23.268204 21.209049 -32.839588
v -22.394505 16.935255 -32.442661
v -22.268204 20.209049 -31.839588
v -21.165192 -19.728546 -29.684776
v -21.110172 -19.188751 -29.714085
v -21.232288 -18.712181 -29.951397
v -35.812077 -8.359970 -25.217808
v -32.674110 21.209049 -23.433681
v -32.262188 16.935255 -22.574982
v -31.674110 20.209049 -22.433681
v -29.552391 -19.728546 -21.297569
v -29.579052 -19.188751 -21.245205
v -29.812740 -18.712181 -21.370947
v -35.798763 9.355152 -25.209221
v -31.343319 -16.805283 -22.361403
v -32.948360 -14.215117 -23.390514
v -31.436474 19.744083 -22.161434
v -31.457478 18.973949 -22.087875
v -31.731503 18.105003 -22.232723
v -29.739910 -20.186935 -21.514011
v -36.409901 -8.359970 -24.619989
v -33.194511 21.209049 -22.913280
v -32.808132 16.935255 -22.029034
v -32.194511 20.209049 -21.913280
v -30.016430 -19.728546 -20.833530
v -30.047611 -19.188751 -20.776648
v -30.287472 -18.712181 -20.896217
v -36.396313 9.355152 -24.611671
v -31.848934 -16.805283 -21.855785
v -33.486912 -14.215117 -22.851961
v -31.958855 19.744083 -21.639055
v -31.985268 18.973949 -21.560089
v -32.266674 18.105003 -21.697548
v -30.202297 -20.186935 -21.051628
v -24.749542 9.355152 -36.258438
v -21.993999 -16.805283 -31.710722
v -22.990055 -14.215117 -33.348824
v -21.777199 19.744083 -31.820702
v -21.698215 18.973949 -31.847136
v -21.835648 18.105003 -32.128574
v -21.190002 -20.186935 -30.063923
v -24.757858 -8.359970 -36.272026
v -23.051437 21.209049 -33.056355
v -22.167095 16.935255 -32.670067
v -22.051437 20.209049 -32.056355
v -20.971901 -19.728546 -29.878067
v -20.915001 -19.188751 -29.909256
v -21.034546 -18.712181 -30.149141
v -25.261173 9.355152 -35.746807
v -22.426914 -16.805283 -31.277802
v -23.451172 -14.215117 -32.887707
v -22.224468 19.744083 -31.373432
v -22.150116 18.973949 -31.395235
v -22.293873 18.105003 -31.670349
v -21.585903 -20.186935 -29.668022
v -25.269726 -8.359970 -35.760162
v -23.497013 21.209049 -32.610779
v -22.634548 16.935255 -32.202621
v -22.497013 20.209049 -31.610779
v -21.369221 -19.728546 -29.480747
v -21.316189 -19.188751 -29.508070
v -21.441017 -18.712181 -29.742668
v -36.103325 -8.359970 24.926565
v -36.089878 9.355152 24.918106
v -32.528160 16.935257 22.309008
v -31.589645 -16.805283 22.115076
v -33.210732 -14.215117 23.128143
v -32.927635 21.209049 23.180149
v -31.690960 19.744083 21.906933
v -31.714600 18.973949 21.830744
v -31.992222 18.105007 21.971992
v -29.965176 -20.186939 21.288752
v -29.778461 -19.728550 21.071501
v -29.807320 -19.188751 21.016933
v -30.044014 -18.712185 21.139668
v -25.035999 -8.359970 35.993889
v -22.421101 16.935257 32.416061
v -23.293564 21.209049 32.814240
v -21.187794 -19.728546 29.662172
v -21.132996 -19.188747 29.691263
v -21.255413 -18.712181 29.928272
v -25.027554 9.355152 35.980427
v -22.229240 -16.805283 31.475481
v -23.240616 -14.215117 33.098259
v -22.020248 19.744081 31.577669
v -21.943779 18.973948 31.601585
v -22.084644 18.105003 31.879580
v -21.405128 -20.186939 29.848801
v -35.827148 9.355152 25.180836
v -31.367336 -16.805283 22.337387
v -32.973942 -14.215117 23.364933
v -31.461281 19.744083 22.136612
v -31.482540 18.973949 22.062801
v -31.756916 18.105007 22.207298
v -29.761875 -20.186939 21.492054
v -35.840473 -8.359970 25.189415
v -32.288120 16.935257 22.549049
v -32.698826 21.209049 23.408958
v -29.574432 -19.728550 21.275528
v -29.601307 -19.188751 21.222950
v -29.835285 -18.712185 21.348396
v -36.396313 9.355152 24.611671
v -31.848934 -16.805283 21.855785
v -33.486912 -14.215117 22.851963
v -31.958847 19.744083 21.639046
v -31.985260 18.973949 21.560083
v -32.266670 18.105007 21.697544
v -30.202297 -20.186939 21.051632
v -36.409901 -8.359970 24.619991
v -32.808132 16.935257 22.029034
v -33.194508 21.209049 22.913277
v -30.016430 -19.728550 20.833532
v -30.047604 -19.188751 20.776648
v -30.287464 -18.712185 20.896217
v -25.312683 -8.359970 35.717205
v -22.673779 16.935257 32.163383
v -23.534416 21.209049 32.573387
v -21.402561 -19.728546 29.447407
v -21.349854 -19.188747 29.474405
v -21.475128 -18.712181 29.708557
v -25.304111 9.355152 35.703869
v -22.463249 -16.805283 31.241470
v -23.489868 -14.215117 32.849007
v -22.262016 19.744081 31.335899
v -22.188049 18.973948 31.357315
v -22.332333 18.105003 31.631889
v -21.619129 -20.186939 29.634800
v -24.744755 -8.359970 36.285133
v -22.155125 16.935257 32.682037
v -23.040035 21.209049 33.067768
v -20.961723 -19.728546 29.888243
v -20.904724 -19.188747 29.919535
v -21.024136 -18.712181 30.159552
v -24.736439 9.355152 36.271538
v -21.982914 -16.805283 31.721807
v -22.978245 -14.215117 33.360630
v -21.765755 19.744081 31.832161
v -21.686653 18.973948 31.858713
v -21.823917 18.105003 32.140305
v -21.179863 -20.186939 30.074066
vn 0.5165 0.6829 0.5165
vn 0.6239 0.4706 0.6239
vn 0.7067 -0.0337 0.7067
vn 0.6001 -0.5289 0.6001
vn 0.4082 0.8165 0.4082
vn 0.6254 -0.4667 0.6254
vn 0.6693 -0.3226 0.6693
vn 0.7063 0.0482 0.7063
vn 0.5588 0.6128 0.5588
vn 0.6152 0.4929 0.6152
vn 0.5741 0.5838 0.5741
vn 0.6128 -0.4989 0.6128
vn 0.7071 -0.0009 0.7071
vn 0.5165 0.6829 0.5166
vn 0.5165 0.6829 -0.5165
vn 0.6239 0.4706 -0.6239
vn 0.7067 -0.0337 -0.7067
vn 0.6001 -0.5289 -0.6001
vn 0.6254 -0.4667 -0.6254
vn 0.6693 -0.3226 -0.6693
vn 0.7063 0.0482 -0.7063
vn 0.4501 0.7712 -0.4501
vn 0.6152 0.4929 -0.6152
vn 0.5741 0.5838 -0.5741
vn 0.6128 -0.4989 -0.6128
vn 0.7071 -0.0009 -0.7071
vn 0.5165 0.6829 -0.5166
vt 0.162849 0.559796
vt 0.157401 0.556844
vt 0.156654 0.557591
vt 0.162142 0.560504
vt 0.162505 0.561823
vt 0.163240 0.561086
vt 0.161399 0.561249
vt 0.163479 0.562379
vt 0.164208 0.561648
vt 0.163610 0.562396
vt 0.164336 0.561668
vt 0.847176 0.556798
vt 0.846367 0.555988
vt 0.846367 0.555988
vt 0.848956 0.555840
vt 0.850254 0.555143
vt 0.849420 0.554308
vt 0.848132 0.555016
vt 0.846472 0.554726
vt 0.847248 0.555502
vt 0.847350 0.554234
vt 0.845711 0.555210
vt 0.846482 0.555982
vt 0.845599 0.555219
vt 0.152778 0.554265
vt 0.142886 0.548752
vt 0.142026 0.549612
vt 0.151995 0.555048
vt 0.858879 0.550517
vt 0.857974 0.549612
vt 0.625000 0.206163
vt 0.625000 0.203720
vt 0.375000 0.203720
vt 0.375000 0.206163
vt 0.189652 0.532929
vt 0.185727 0.528472
vt 0.185089 0.529112
vt 0.189048 0.533534
vt 0.817049 0.525272
vt 0.817712 0.525935
vt 0.818332 0.525187
vt 0.817663 0.524518
vt 0.816451 0.525918
vt 0.817111 0.526578
vt 0.816436 0.526023
vt 0.817093 0.526681
vt 0.182473 0.524539
vt 0.175523 0.516114
vt 0.174788 0.516850
vt 0.181804 0.525209
vt 0.625000 0.298870
vt 0.625000 0.296781
vt 0.375000 0.296781
vt 0.375000 0.298870
vt 0.189210 0.535051
vt 0.189841 0.534419
vt 0.188411 0.534173
vt 0.189966 0.535820
vt 0.190592 0.535192
vt 0.190008 0.535927
vt 0.190631 0.535302
vt 0.817787 0.527375
vt 0.817787 0.527375
vt 0.819038 0.525894
vt 0.819950 0.524814
vt 0.819235 0.524098
vt 0.825988 0.517626
vt 0.825212 0.516850
vt 0.857114 0.548752
vt 0.848628 0.553515
vt 0.845599 0.555219
vt 0.165026 0.560976
vt 0.164900 0.560953
vt 0.163939 0.560386
vt 0.155869 0.558378
vt 0.848064 0.556319
vt 0.847293 0.556795
vt 0.141121 0.550517
vt 0.151172 0.555872
vt 0.625000 0.201149
vt 0.375000 0.201149
vt 0.190438 0.533821
vt 0.191185 0.534598
vt 0.191221 0.534710
vt 0.816436 0.526023
vt 0.818558 0.523420
vt 0.824477 0.516114
vt 0.625000 0.294577
vt 0.375000 0.294577
vt 0.181098 0.525916
vt 0.184416 0.529786
vt 0.174012 0.517626
vt 0.817806 0.527274
vt 0.818411 0.526635
vt 0.161399 0.688751
vt 0.155869 0.691622
vt 0.156654 0.692409
vt 0.162142 0.689496
vt 0.163871 0.689546
vt 0.163241 0.688914
vt 0.162780 0.690135
vt 0.164836 0.688982
vt 0.164211 0.688356
vt 0.164960 0.688957
vt 0.164337 0.688333
vt 0.847427 0.695690
vt 0.848705 0.696408
vt 0.849420 0.695692
vt 0.848132 0.694984
vt 0.848065 0.693680
vt 0.847249 0.694497
vt 0.848956 0.694160
vt 0.847293 0.693206
vt 0.846482 0.694018
vt 0.847176 0.693202
vt 0.846367 0.694012
vt 0.151172 0.694128
vt 0.141121 0.699483
vt 0.142026 0.700388
vt 0.151995 0.694952
vt 0.857198 0.701164
vt 0.857974 0.700388
vt 0.375000 0.047749
vt 0.375000 0.048851
vt 0.625000 0.048851
vt 0.625000 0.047749
vt 0.375000 0.001221
vt 0.375000 0.002443
vt 0.625000 0.002443
vt 0.625000 0.001221
vt 0.818522 0.726615
vt 0.824438 0.733924
vt 0.825298 0.733064
vt 0.819314 0.725822
vt 0.817630 0.725514
vt 0.818415 0.724729
vt 0.191252 0.715321
vt 0.190562 0.714629
vt 0.190521 0.714736
vt 0.191215 0.715432
vt 0.189771 0.715511
vt 0.190469 0.716211
vt 0.188978 0.716395
vt 0.189684 0.717103
vt 0.188307 0.715723
vt 0.184306 0.720104
vt 0.185015 0.720814
vt 0.818526 0.723250
vt 0.817789 0.723987
vt 0.819158 0.723985
vt 0.817920 0.722612
vt 0.817187 0.723345
vt 0.817900 0.722511
vt 0.817170 0.723242
vt 0.180983 0.723969
vt 0.173885 0.732248
vt 0.174702 0.733064
vt 0.181726 0.724713
vt 0.152701 0.695659
vt 0.157328 0.693084
vt 0.142802 0.701164
vt 0.845674 0.694706
vt 0.845786 0.694714
vt 0.846549 0.695198
vt 0.162506 0.688177
vt 0.163480 0.687623
vt 0.163610 0.687604
vt 0.850254 0.694858
vt 0.858879 0.699483
vt 0.375000 0.050136
vt 0.625000 0.050136
vt 0.189107 0.714846
vt 0.189863 0.714076
vt 0.189906 0.713971
vt 0.820067 0.725069
vt 0.826115 0.732248
vt 0.375000 0.003603
vt 0.625000 0.003603
vt 0.185761 0.721561
vt 0.817014 0.724763
vt 0.816417 0.724117
vt 0.816401 0.724012
vt 0.175562 0.733924
vt 0.182508 0.725496
s 0
f 35/1/1 37/2/1 5/3/1 14/4/1
f 48/5/2 13/6/2 14/4/2 49/7/2
f 47/8/3 12/9/3 13/6/3 48/5/3
f 56/10/4 11/11/4 12/9/4 47/8/4
f 46/12/5 7/13/5 3/14/5 44/12/5
f 55/15/6 45/16/6 4/17/6 10/18/6
f 40/19/7 9/20/7 10/18/7 41/21/7
f 39/22/8 8/23/8 9/20/8 40/19/8
f 32/24/9 7/13/9 8/23/9 39/22/9
f 38/25/10 29/26/10 2/27/10 6/28/10
f 37/2/11 38/25/11 6/28/11 5/3/11
f 45/16/12 50/29/12 1/30/12 4/17/12
f 36/31/13 1/32/13 2/33/13 29/34/13
f 70/35/1 58/36/1 16/37/1 28/38/1
f 61/39/7 19/40/7 20/41/7 62/42/7
f 60/43/8 18/44/8 19/40/8 61/39/8
f 67/45/9 25/46/9 18/44/9 60/43/9
f 59/47/10 64/48/10 22/49/10 17/50/10
f 58/36/11 59/47/11 17/50/11 16/37/11
f 57/51/13 15/52/13 22/53/13 64/54/13
f 83/55/2 27/56/2 28/38/2 84/57/2
f 82/58/3 26/59/3 27/56/3 83/55/3
f 77/60/4 21/61/4 26/59/4 82/58/4
f 81/62/5 25/46/5 23/46/5 79/63/5
f 76/64/6 80/65/6 24/66/6 20/41/6
f 80/65/12 71/67/12 15/68/12 24/66/12
f 4/17/12 1/30/12 36/69/12 31/70/12
f 10/18/6 4/17/6 31/70/6 41/21/6
f 7/13/5 32/24/5 30/71/5 3/14/5
f 11/11/4 42/72/4 33/73/4 12/9/4
f 12/9/3 33/73/3 34/74/3 13/6/3
f 13/6/2 34/74/2 35/1/2 14/4/2
f 14/4/14 5/3/14 51/75/14 49/7/14
f 9/20/7 54/76/7 55/15/7 10/18/7
f 8/23/8 53/77/8 54/76/8 9/20/8
f 7/13/9 46/12/9 53/77/9 8/23/9
f 6/28/10 2/27/10 43/78/10 52/79/10
f 5/3/11 6/28/11 52/79/11 51/75/11
f 1/32/13 50/80/13 43/81/13 2/33/13
f 27/56/2 69/82/2 70/35/2 28/38/2
f 26/59/3 68/83/3 69/82/3 27/56/3
f 21/61/4 63/84/4 68/83/4 26/59/4
f 25/46/5 67/45/5 65/85/5 23/46/5
f 20/41/6 24/66/6 66/86/6 62/42/6
f 24/66/12 15/68/12 57/87/12 66/86/12
f 15/52/13 71/88/13 78/89/13 22/53/13
f 16/37/11 17/50/11 73/90/11 72/91/11
f 17/50/10 22/49/10 78/92/10 73/90/10
f 25/46/9 81/62/9 74/93/9 18/44/9
f 18/44/8 74/93/8 75/94/8 19/40/8
f 19/40/7 75/94/7 76/64/7 20/41/7
f 28/38/1 16/37/1 72/91/1 84/57/1
f 136/95/15 125/96/15 88/97/15 97/98/15
f 122/99/16 96/100/16 97/98/16 123/101/16
f 121/102/17 95/103/17 96/100/17 122/99/17
f 117/104/18 94/105/18 95/103/18 121/102/18
f 116/106/19 119/107/19 87/108/19 93/109/19
f 128/110/20 92/111/20 93/109/20 129/112/20
f 127/113/21 91/114/21 92/111/21 128/110/21
f 133/115/22 90/116/22 91/114/22 127/113/22
f 126/117/23 131/118/23 85/119/23 89/120/23
f 125/96/24 126/117/24 89/120/24 88/97/24
f 119/107/25 111/121/25 86/122/25 87/108/25
f 118/123/26 85/124/26 86/125/26 111/126/26
f 150/127/26 98/128/26 104/129/26 156/130/26
f 151/131/25 156/132/25 104/133/25 99/134/25
f 161/135/19 151/131/19 99/134/19 109/136/19
f 162/137/18 110/138/18 101/139/18 153/140/18
f 153/140/17 101/139/17 102/141/17 154/142/17
f 154/142/16 102/141/16 103/143/16 155/144/16
f 142/145/27 144/146/27 105/147/27 103/143/27
f 147/148/20 108/149/20 109/136/20 148/150/20
f 146/151/21 107/152/21 108/149/21 147/148/21
f 139/153/22 100/154/22 107/152/22 146/151/22
f 145/155/23 137/156/23 98/157/23 106/158/23
f 144/146/24 145/155/24 106/158/24 105/147/24
f 88/97/24 89/120/24 113/159/24 112/160/24
f 89/120/23 85/119/23 118/161/23 113/159/23
f 90/116/22 120/162/22 114/163/22 91/114/22
f 91/114/21 114/163/21 115/164/21 92/111/21
f 92/111/20 115/164/20 116/106/20 93/109/20
f 97/98/15 88/97/15 112/160/15 123/101/15
f 96/100/16 135/165/16 136/95/16 97/98/16
f 95/103/17 134/166/17 135/165/17 96/100/17
f 94/105/18 130/167/18 134/166/18 95/103/18
f 93/109/19 87/108/19 132/168/19 129/112/19
f 87/108/25 86/122/25 124/169/25 132/168/25
f 85/124/26 131/170/26 124/171/26 86/125/26
f 102/141/16 141/172/16 142/145/16 103/143/16
f 101/139/17 140/173/17 141/172/17 102/141/17
f 110/138/18 149/174/18 140/173/18 101/139/18
f 109/136/19 99/134/19 138/175/19 148/150/19
f 99/134/25 104/133/25 143/176/25 138/175/25
f 98/128/26 137/177/26 143/178/26 104/129/26
f 103/143/15 105/147/15 157/179/15 155/144/15
f 108/149/20 160/180/20 161/135/20 109/136/20
f 107/152/21 159/181/21 160/180/21 108/149/21
f 100/154/22 152/182/22 159/181/22 107/152/22
f 106/158/23 98/157/23 150/183/23 158/184/23
f 105/147/24 106/158/24 158/184/24 157/179/24
