# Blender 5.2.1 LTS
# www.blender.org
mtllib Details3.mtl
o Cube.096
v -13.316388 -37.383972 10.473250
v -13.050756 -46.331772 10.312734
v -12.785121 -55.279572 10.152217
v -12.652303 -59.753471 10.071959
v -10.212047 -59.753471 12.512216
v -10.372563 -50.805672 12.777850
v -10.533080 -41.857872 13.043485
v -10.613339 -37.383972 13.176302
v -10.212050 -59.753471 -12.512212
v -10.372567 -50.805672 -12.777846
v -10.533084 -41.857872 -13.043481
v -10.613343 -37.383972 -13.176298
v -12.652307 -59.753471 -10.071956
v -12.917939 -50.805672 -10.232472
v -13.183574 -41.857872 -10.392989
v -13.316392 -37.383972 -10.473248
v 13.298862 -59.716522 -7.149076
v 13.567530 -50.783787 -7.250651
v 13.836195 -41.851051 -7.352226
v 13.970529 -37.384682 -7.403014
v 14.933443 -37.795158 0.000000
v 14.660120 -46.317402 -0.000000
v 14.373421 -55.250126 -0.000000
v 14.230070 -59.716484 -0.000000
v 12.372119 -59.753471 -10.071958
v 12.637753 -50.805672 -10.232474
v 12.903388 -41.857872 -10.392991
v 13.036205 -37.383972 -10.473249
v 9.931863 -59.753471 -12.512215
v 10.092380 -50.805672 -12.777849
v 10.252895 -41.857872 -13.043484
v 10.333154 -37.383972 -13.176300
v 9.931865 -59.753471 12.512212
v 10.092381 -50.805672 12.777846
v 10.252897 -41.857872 13.043481
v 10.333156 -37.383972 13.176298
v 12.372122 -59.753471 10.071956
v 12.637756 -50.805672 10.232472
v 12.903391 -41.857872 10.392989
v 13.036207 -37.383972 10.473248
v 13.298908 -59.716484 7.149087
v 13.567560 -50.783760 7.250658
v 13.836212 -41.851036 7.352229
v 13.970539 -37.384674 7.403014
v 12.818228 -59.716484 8.693580
v 13.076149 -50.783760 8.829635
v 13.334068 -41.851036 8.965691
v 13.463029 -37.384674 9.033718
v 12.818197 -59.716515 -8.693573
v 13.076128 -50.783783 -8.829632
v 13.334057 -41.851051 -8.965691
v 13.463022 -37.384682 -9.033720
v 12.577888 -59.716484 9.465829
v 12.830441 -50.783760 9.619126
v 13.082996 -41.851036 9.772424
v 13.209273 -37.384674 9.849072
v 12.577887 -59.716484 -9.465830
v 12.830441 -50.783760 -9.619127
v 13.082994 -41.851036 -9.772425
v 13.209271 -37.384674 -9.849073
v 13.205092 -46.317417 -8.897661
v 12.956717 -46.317398 -9.695776
v 12.770573 -46.331772 10.312731
v 12.956718 -46.317398 9.695775
v 13.701862 -46.317421 -7.301439
v 13.205109 -46.317398 8.897663
v 14.803470 -41.851040 0.000000
v 13.701886 -46.317398 7.301444
v 10.172640 -46.331772 12.910664
v 10.172638 -46.331772 -12.910666
v 12.770571 -46.331772 -10.312733
v -13.050756 -46.331772 -10.312731
v -10.452825 -46.331772 -12.910664
v -13.183572 -41.857872 10.392992
v -10.452821 -46.331772 12.910667
v 12.947163 -55.250149 -8.761602
v 12.704164 -55.250122 -9.542479
v 12.504938 -55.279572 10.152214
v 12.704165 -55.250122 9.542478
v 13.433196 -55.250153 -7.199864
v 12.947188 -55.250122 8.761607
v 14.516770 -50.783764 -0.000000
v 13.433234 -55.250122 7.199872
v 10.012123 -55.279572 12.645029
v 10.012121 -55.279572 -12.645032
v 12.504936 -55.279572 -10.152216
v -12.785123 -55.279572 -10.152214
v -10.292310 -55.279572 -12.645029
v -12.917939 -50.805672 10.232475
v -10.292306 -55.279572 12.645033
v -4.294684 -59.740555 14.353620
v -4.317171 -55.269520 14.501542
v -4.339658 -50.798485 14.649465
v -4.362144 -46.327450 14.797387
v -4.384630 -41.856415 14.945310
v -4.407117 -37.385384 15.093233
v 4.014499 -59.740555 14.353616
v 4.036985 -55.269520 14.501539
v 4.059472 -50.798485 14.649462
v 4.081959 -46.327450 14.797384
v 4.104445 -41.856415 14.945308
v 4.126931 -37.385384 15.093231
v -15.233319 -37.385384 4.267024
v -15.085397 -41.856419 4.244537
v -14.937474 -46.327454 4.222051
v -14.789552 -50.798485 4.199564
v -14.641629 -55.269520 4.177078
v -14.493707 -59.740555 4.154591
v -15.233327 -37.385384 -4.267024
v -15.085404 -41.856419 -4.244538
v -14.937482 -46.327454 -4.222052
v -14.789559 -50.798485 -4.199565
v -14.641635 -55.269520 -4.177079
v -14.493711 -59.740555 -4.154592
v 4.126932 -37.385384 -15.093233
v 4.104445 -41.856419 -14.945311
v 4.081959 -46.327454 -14.797388
v 4.059472 -50.798485 -14.649466
v 4.036986 -55.269520 -14.501543
v 4.014500 -59.740555 -14.353621
v -4.294685 -59.740555 -14.353616
v -4.317172 -55.269520 -14.501539
v -4.339659 -50.798485 -14.649462
v -4.362145 -46.327450 -14.797384
v -4.384632 -41.856415 -14.945308
v -4.407119 -37.385384 -15.093231
v 14.953136 -37.385384 -4.267025
v 14.805214 -41.856419 -4.244538
v 14.657291 -46.327454 -4.222052
v 14.509369 -50.798485 -4.199565
v 14.361446 -55.269520 -4.177079
v 14.213523 -59.740555 -4.154592
v 14.213527 -59.740555 4.154592
v 14.361449 -55.269520 4.177078
v 14.509372 -50.798485 4.199564
v 14.657294 -46.327450 4.222051
v 14.805218 -41.856415 4.244537
v 14.953140 -37.385384 4.267024
v 14.243443 -59.306000 -0.000000
v 14.360045 -55.660610 -0.000000
v 14.530148 -50.373280 -0.000000
v 14.646742 -46.727882 0.000000
v 14.816847 -41.440559 -0.000000
v 14.946819 -37.384678 0.000000
v -3.886045 -59.330078 14.367200
v -3.904404 -55.679993 14.487962
v -3.931019 -50.388012 14.663045
v -3.949376 -46.737923 14.783807
v -3.975991 -41.445942 14.958890
v -3.994349 -37.795856 15.079653
v 3.605861 -59.330078 14.367196
v 3.624218 -55.679993 14.487959
v 3.650834 -50.388012 14.663042
v 3.669191 -46.737923 14.783804
v 3.695806 -41.445942 14.958888
v 3.714164 -37.795856 15.079651
v -15.219739 -37.795856 3.854256
v -15.098977 -41.445946 3.835898
v -14.923894 -46.737926 3.809283
v -14.803132 -50.388012 3.790926
v -14.628049 -55.679993 3.764310
v -14.507287 -59.330078 3.745953
v -15.219747 -37.795856 -3.854256
v -15.098985 -41.445946 -3.835899
v -14.923902 -46.737926 -3.809284
v -14.803140 -50.388012 -3.790926
v -14.628055 -55.679993 -3.764311
v -14.507291 -59.330078 -3.745953
v 3.714164 -37.795856 -15.079653
v 3.695807 -41.445946 -14.958891
v 3.669191 -46.737926 -14.783808
v 3.650834 -50.388012 -14.663046
v 3.624218 -55.679993 -14.487963
v 3.605861 -59.330078 -14.367201
v -3.886046 -59.330078 -14.367196
v -3.904405 -55.679993 -14.487959
v -3.931020 -50.388012 -14.663042
v -3.949378 -46.737923 -14.783804
v -3.975993 -41.445942 -14.958888
v -3.994351 -37.795856 -15.079651
v 14.939362 -37.795803 -3.854257
v 14.818211 -41.445412 -3.835902
v 14.644406 -46.736958 -3.809289
v 14.523252 -50.386562 -3.790934
v 14.349470 -55.678097 -3.764323
v 14.228312 -59.327690 -3.745967
v 14.228314 -59.327690 3.745967
v 14.349472 -55.678097 3.764324
v 14.523254 -50.386562 3.790933
v 14.644409 -46.736958 3.809289
v 14.818214 -41.445412 3.835902
v 14.939365 -37.795803 3.854256
vn -0.9543 0.0321 0.2970
vn -0.9488 0.0330 -0.3142
vn -0.9555 0.0328 -0.2932
vn -0.9617 0.0326 -0.2723
vn -0.9543 0.0321 -0.2970
vn -0.9556 0.0326 -0.2929
vn -0.9548 0.0326 -0.2956
vn -0.9539 0.0326 -0.2982
vn -0.7067 0.0337 -0.7067
vn -0.2967 0.0334 -0.9544
vn -0.2959 0.0334 -0.9546
vn -0.2951 0.0334 -0.9549
vn -0.2967 0.0334 0.9544
vn -0.2959 0.0334 0.9546
vn -0.2951 0.0334 0.9549
vn -0.7067 0.0337 0.7067
vn -0.9488 0.0330 0.3142
vn -0.9555 0.0328 0.2932
vn -0.9617 0.0326 0.2723
vn -0.9556 0.0326 0.2929
vn -0.9548 0.0326 0.2956
vn -0.9539 0.0326 0.2982
vn 0.9544 0.0334 0.2967
vn 0.9546 0.0334 0.2959
vn 0.9549 0.0334 0.2951
vn 0.7067 0.0337 0.7067
vn 0.2967 0.0334 0.9544
vn 0.2959 0.0334 0.9546
vn 0.2951 0.0334 0.9549
vn 0.9544 0.0334 -0.2967
vn 0.9546 0.0334 -0.2959
vn 0.9549 0.0334 -0.2951
vn 0.2967 0.0334 -0.9544
vn 0.2959 0.0334 -0.9546
vn 0.2951 0.0334 -0.9549
vn 0.7067 0.0337 -0.7067
vn -0.0000 0.0331 -0.9995
vn 0.9995 0.0331 -0.0000
vn -0.0000 0.0331 0.9995
vn -0.9995 0.0331 -0.0010
vn -0.9995 0.0331 0.0011
vn -0.9994 0.0331 0.0032
vn -0.9994 0.0331 -0.0032
vn -0.9995 0.0331 -0.0011
vn -0.9995 0.0331 0.0010
vn -0.9995 0.0323 -0.0038
vn -0.9995 0.0323 -0.0027
vn -0.9995 0.0323 -0.0017
vn -0.9995 0.0323 -0.0006
vn -0.9995 0.0323 0.0004
vn -0.9995 0.0323 0.0015
vn -0.9995 0.0323 0.0038
vn -0.9995 0.0323 0.0027
vn -0.9995 0.0323 0.0017
vn -0.9995 0.0323 0.0006
vn -0.9995 0.0323 -0.0004
vn -0.9995 0.0323 -0.0015
vt 0.305425 0.592878
vt 0.305903 0.592596
vt 0.305451 0.589742
vt 0.304976 0.590055
vt 0.306380 0.592315
vt 0.306858 0.592033
vt 0.306403 0.589114
vt 0.305927 0.589428
vt 0.307335 0.591752
vt 0.307813 0.591470
vt 0.307355 0.588487
vt 0.306879 0.588800
vt 0.304526 0.662768
vt 0.305000 0.663114
vt 0.305451 0.660259
vt 0.304976 0.659945
vt 0.305474 0.663459
vt 0.305948 0.663805
vt 0.306403 0.660886
vt 0.305927 0.660572
vt 0.306422 0.664151
vt 0.306896 0.664497
vt 0.307355 0.661513
vt 0.306879 0.661200
vt 0.306324 0.598524
vt 0.306805 0.598306
vt 0.307286 0.598089
vt 0.307767 0.597872
vt 0.308248 0.597654
vt 0.308729 0.597437
vt 0.305903 0.657403
vt 0.305425 0.657122
vt 0.306858 0.657967
vt 0.306380 0.657685
vt 0.307813 0.658530
vt 0.307335 0.658248
vt 0.306324 0.651476
vt 0.306805 0.651694
vt 0.308611 0.640274
vt 0.308123 0.640185
vt 0.307286 0.651911
vt 0.307767 0.652128
vt 0.309587 0.640452
vt 0.309099 0.640363
vt 0.308248 0.652346
vt 0.308729 0.652563
vt 0.310563 0.640629
vt 0.310075 0.640541
vt 0.298064 0.672778
vt 0.298418 0.673385
vt 0.298772 0.673993
vt 0.299126 0.674601
vt 0.299481 0.675208
vt 0.299835 0.675816
vt 0.280169 0.678903
vt 0.280336 0.679583
vt 0.280503 0.680263
vt 0.280670 0.680943
vt 0.280837 0.681623
vt 0.281005 0.682303
vt 0.298064 0.577223
vt 0.298418 0.576615
vt 0.280336 0.570417
vt 0.280169 0.571097
vt 0.298772 0.576007
vt 0.299126 0.575399
vt 0.280670 0.569057
vt 0.280503 0.569737
vt 0.299480 0.574792
vt 0.299835 0.574184
vt 0.281005 0.567697
vt 0.280837 0.568377
vt 0.304526 0.587232
vt 0.305000 0.586887
vt 0.305474 0.586541
vt 0.305948 0.586195
vt 0.306422 0.585849
vt 0.306896 0.585503
vt 0.308123 0.609815
vt 0.308611 0.609726
vt 0.309099 0.609637
vt 0.309587 0.609548
vt 0.310075 0.609459
vt 0.310563 0.609371
vt 0.221904 0.592202
vt 0.221379 0.591927
vt 0.215010 0.611686
vt 0.215598 0.611761
vt 0.220854 0.591652
vt 0.220330 0.591378
vt 0.213834 0.611537
vt 0.214422 0.611611
vt 0.219805 0.591103
vt 0.219281 0.590829
vt 0.212658 0.611387
vt 0.213246 0.611462
vt 0.230900 0.582995
vt 0.230585 0.582509
vt 0.230270 0.582024
vt 0.229955 0.581538
vt 0.229640 0.581053
vt 0.229325 0.580567
vt 0.251982 0.574354
vt 0.251925 0.573746
vt 0.251868 0.573139
vt 0.251812 0.572531
vt 0.251755 0.571924
vt 0.251698 0.571316
vt 0.215598 0.638239
vt 0.215010 0.638314
vt 0.221379 0.658073
vt 0.221904 0.657798
vt 0.214422 0.638389
vt 0.213834 0.638463
vt 0.220330 0.658622
vt 0.220854 0.658348
vt 0.213246 0.638538
vt 0.212658 0.638613
vt 0.219281 0.659171
vt 0.219805 0.658897
vt 0.230900 0.667005
vt 0.230585 0.667491
vt 0.251925 0.676254
vt 0.251982 0.675646
vt 0.230270 0.667976
vt 0.229955 0.668462
vt 0.251812 0.677469
vt 0.251868 0.676861
vt 0.229640 0.668947
vt 0.229325 0.669433
vt 0.251698 0.678684
vt 0.251755 0.678077
vt 0.253326 0.676361
vt 0.253371 0.675864
vt 0.253219 0.677581
vt 0.253264 0.677084
vt 0.278790 0.678804
vt 0.278925 0.679358
vt 0.279117 0.680158
vt 0.279252 0.680712
vt 0.279445 0.681513
vt 0.279580 0.682067
vt 0.213192 0.637235
vt 0.212712 0.637296
vt 0.214368 0.637086
vt 0.213888 0.637147
vt 0.215544 0.636937
vt 0.215064 0.636998
vt 0.212712 0.612704
vt 0.213192 0.612765
vt 0.213888 0.612853
vt 0.214368 0.612914
vt 0.215064 0.613002
vt 0.215544 0.613063
vt 0.279580 0.567933
vt 0.279445 0.568487
vt 0.279252 0.569288
vt 0.279117 0.569842
vt 0.278925 0.570642
vt 0.278790 0.571196
vt 0.253371 0.574136
vt 0.253326 0.573639
vt 0.253264 0.572916
vt 0.253220 0.572419
vt 0.253158 0.571696
vt 0.253113 0.571198
vt 0.310119 0.610955
vt 0.310518 0.610883
vt 0.309144 0.611132
vt 0.309542 0.611059
vt 0.308168 0.611308
vt 0.308566 0.611236
vt 0.308566 0.638764
vt 0.308168 0.638692
vt 0.309542 0.638941
vt 0.309143 0.638868
vt 0.310518 0.639117
vt 0.310119 0.639045
vt 0.308168 0.625000
vt 0.308123 0.625000
vt 0.308566 0.625000
vt 0.308611 0.625000
vt 0.309144 0.625000
vt 0.309099 0.625000
vt 0.309542 0.625000
vt 0.309587 0.625000
vt 0.310119 0.625000
vt 0.310075 0.625000
vt 0.310518 0.625000
vt 0.310563 0.625000
vt 0.253158 0.678304
vt 0.253113 0.678802
s 0
f 49/1/1 76/2/1 77/3/1 57/4/1
f 50/5/1 61/6/1 62/7/1 58/8/1
f 51/9/1 52/10/1 60/11/1 59/12/1
f 37/13/2 78/14/2 79/15/2 53/16/2
f 38/17/3 63/18/3 64/19/3 54/20/3
f 39/21/4 40/22/4 56/23/4 55/24/4
f 17/25/1 80/26/1 76/2/1 49/1/1
f 18/27/1 65/28/1 61/6/1 50/5/1
f 19/29/1 20/30/1 52/10/1 51/9/1
f 53/16/5 79/15/5 81/31/5 45/32/5
f 54/20/5 64/19/5 66/33/5 46/34/5
f 55/24/5 56/23/5 48/35/5 47/36/5
f 41/37/6 83/38/6 134/39/6 133/40/6
f 42/41/7 68/42/7 136/43/7 135/44/7
f 43/45/8 44/46/8 138/47/8 137/48/8
f 45/32/5 81/31/5 83/38/5 41/37/5
f 46/34/5 66/33/5 68/42/5 42/41/5
f 47/36/5 48/35/5 44/46/5 43/45/5
f 33/49/9 84/50/9 78/14/9 37/13/9
f 34/51/9 69/52/9 63/18/9 38/17/9
f 35/53/9 36/54/9 40/22/9 39/21/9
f 97/55/10 98/56/10 84/50/10 33/49/10
f 99/57/11 100/58/11 69/52/11 34/51/11
f 101/59/12 102/60/12 36/54/12 35/53/12
f 29/61/13 85/62/13 119/63/13 120/64/13
f 30/65/14 70/66/14 117/67/14 118/68/14
f 31/69/15 32/70/15 115/71/15 116/72/15
f 25/73/16 86/74/16 85/62/16 29/61/16
f 26/75/16 71/76/16 70/66/16 30/65/16
f 27/77/16 28/78/16 32/70/16 31/69/16
f 57/4/17 77/3/17 86/74/17 25/73/17
f 58/8/18 62/7/18 71/76/18 26/75/18
f 59/12/19 60/11/19 28/78/19 27/77/19
f 132/79/20 131/80/20 80/26/20 17/25/20
f 130/81/21 129/82/21 65/28/21 18/27/21
f 128/83/22 127/84/22 20/30/22 19/29/22
f 13/85/23 87/86/23 113/87/23 114/88/23
f 14/89/24 72/90/24 111/91/24 112/92/24
f 15/93/25 16/94/25 109/95/25 110/96/25
f 9/97/26 88/98/26 87/86/26 13/85/26
f 10/99/26 73/100/26 72/90/26 14/89/26
f 11/101/26 12/102/26 16/94/26 15/93/26
f 121/103/27 122/104/27 88/98/27 9/97/27
f 123/105/28 124/106/28 73/100/28 10/99/28
f 125/107/29 126/108/29 12/102/29 11/101/29
f 108/109/30 107/110/30 3/111/30 4/112/30
f 106/113/31 105/114/31 2/115/31 89/116/31
f 104/117/32 103/118/32 1/119/32 74/120/32
f 5/121/33 90/122/33 92/123/33 91/124/33
f 6/125/34 75/126/34 94/127/34 93/128/34
f 7/129/35 8/130/35 96/131/35 95/132/35
f 4/112/36 3/111/36 90/122/36 5/121/36
f 89/116/36 2/115/36 75/126/36 6/125/36
f 74/120/36 1/119/36 8/130/36 7/129/36
f 146/133/37 145/134/37 91/124/37 92/123/37
f 148/135/37 147/136/37 93/128/37 94/127/37
f 151/137/37 152/138/37 98/56/37 97/55/37
f 153/139/37 154/140/37 100/58/37 99/57/37
f 155/141/37 156/142/37 102/60/37 101/59/37
f 158/143/38 157/144/38 103/118/38 104/117/38
f 160/145/38 159/146/38 105/114/38 106/113/38
f 162/147/38 161/148/38 107/110/38 108/109/38
f 163/149/38 164/150/38 110/96/38 109/95/38
f 165/151/38 166/152/38 112/92/38 111/91/38
f 167/153/38 168/154/38 114/88/38 113/87/38
f 169/155/39 170/156/39 116/72/39 115/71/39
f 171/157/39 172/158/39 118/68/39 117/67/39
f 173/159/39 174/160/39 120/64/39 119/63/39
f 175/161/39 176/162/39 122/104/39 121/103/39
f 177/163/39 178/164/39 124/106/39 123/105/39
f 179/165/39 180/166/39 126/108/39 125/107/39
f 182/167/40 181/168/40 127/84/40 128/83/40
f 184/169/41 183/170/41 129/82/41 130/81/41
f 186/171/42 185/172/42 131/80/42 132/79/42
f 188/173/43 187/174/43 133/40/43 134/39/43
f 190/175/44 189/176/44 135/44/44 136/43/44
f 192/177/45 191/178/45 137/48/45 138/47/45
f 187/174/46 139/179/46 24/180/46 133/40/46
f 140/181/47 188/173/47 134/39/47 23/182/47
f 189/176/48 141/183/48 82/184/48 135/44/48
f 142/185/49 190/175/49 136/43/49 22/186/49
f 191/178/50 143/187/50 67/188/50 137/48/50
f 21/189/51 192/177/51 138/47/51 144/190/51
f 139/179/52 186/171/52 132/79/52 24/180/52
f 185/172/53 140/181/53 23/182/53 131/80/53
f 141/183/54 184/169/54 130/81/54 82/184/54
f 183/170/55 142/185/55 22/186/55 129/82/55
f 143/187/56 182/167/56 128/83/56 67/188/56
f 181/168/57 21/189/57 144/190/57 127/84/57
f 174/160/39 175/161/39 121/103/39 120/64/39
f 176/162/39 173/159/39 119/63/39 122/104/39
f 172/158/39 177/163/39 123/105/39 118/68/39
f 178/164/39 171/157/39 117/67/39 124/106/39
f 170/156/39 179/165/39 125/107/39 116/72/39
f 180/166/39 169/155/39 115/71/39 126/108/39
f 168/154/38 162/147/38 108/109/38 114/88/38
f 161/148/38 167/153/38 113/87/38 107/110/38
f 166/152/38 160/145/38 106/113/38 112/92/38
f 159/146/38 165/151/38 111/91/38 105/114/38
f 164/150/38 158/143/38 104/117/38 110/96/38
f 157/144/38 163/149/38 109/95/38 103/118/38
f 145/134/37 151/137/37 97/55/37 91/124/37
f 152/138/37 146/133/37 92/123/37 98/56/37
f 147/136/37 153/139/37 99/57/37 93/128/37
f 154/140/37 148/135/37 94/127/37 100/58/37
f 149/191/37 155/141/37 101/59/37 95/132/37
f 156/142/37 150/192/37 96/131/37 102/60/37
