# Blender 5.2.1 LTS
# www.blender.org
mtllib Details2.mtl
o Cube.095
v -3.931020 -50.340290 13.220670
v -3.975991 -41.398220 13.516515
v 3.650833 -50.340290 13.220667
v 3.695806 -41.398220 13.516513
v -13.481519 -46.690205 3.809282
v -13.185674 -55.632271 3.764309
v -13.481526 -46.690205 -3.809285
v -13.185679 -55.632271 -3.764312
v 3.669192 -46.690205 -13.341433
v 3.624219 -55.632271 -13.045588
v -3.931019 -50.340290 -13.220667
v -3.975993 -41.398220 -13.516513
v 13.202009 -46.689945 -3.807676
v 12.907080 -55.631073 -3.759631
v 14.933443 -37.795158 0.000000
v 13.080856 -50.339550 3.789320
v 13.375816 -41.398407 3.837303
v 13.202011 -46.689945 3.807676
v 3.669191 -46.690201 13.341429
v 3.695807 -41.398224 -13.516516
v 13.375813 -41.398407 -3.837301
v -13.656610 -41.398224 -3.835900
v -3.949377 -46.690201 -13.341429
v -13.656602 -41.398224 3.835897
v -3.949377 -46.690201 13.341432
v 12.907082 -55.631073 3.759633
v 3.624218 -55.632271 13.045584
v 3.650835 -50.340290 -13.220671
v 13.080854 -50.339550 -3.789320
v -13.360765 -50.340290 -3.790928
v -3.904404 -55.632271 -13.045584
v -13.360757 -50.340290 3.790925
v -3.904405 -55.632271 13.045587
v 14.243443 -59.306000 -0.000000
v 14.360045 -55.660610 -0.000000
v 14.530148 -50.373280 -0.000000
v 14.646742 -46.727882 0.000000
v 14.816847 -41.440559 -0.000000
v -3.886045 -59.330078 14.367200
v -3.904404 -55.679993 14.487962
v -3.931019 -50.388012 14.663045
v -3.949376 -46.737923 14.783807
v -3.975991 -41.445942 14.958890
v -3.994349 -37.795856 15.079653
v 3.605861 -59.330078 14.367196
v 3.624218 -55.679993 14.487959
v 3.650834 -50.388012 14.663042
v 3.669191 -46.737923 14.783804
v 3.695806 -41.445942 14.958888
v 3.714164 -37.795856 15.079651
v -15.219739 -37.795856 3.854256
v -15.098977 -41.445946 3.835898
v -14.923894 -46.737926 3.809283
v -14.803132 -50.388012 3.790926
v -14.628049 -55.679993 3.764310
v -14.507287 -59.330078 3.745953
v -15.219747 -37.795856 -3.854256
v -15.098985 -41.445946 -3.835899
v -14.923902 -46.737926 -3.809284
v -14.803140 -50.388012 -3.790926
v -14.628055 -55.679993 -3.764311
v -14.507291 -59.330078 -3.745953
v 3.714164 -37.795856 -15.079653
v 3.695807 -41.445946 -14.958891
v 3.669191 -46.737926 -14.783808
v 3.650834 -50.388012 -14.663046
v 3.624218 -55.679993 -14.487963
v 3.605861 -59.330078 -14.367201
v -3.886046 -59.330078 -14.367196
v -3.904405 -55.679993 -14.487959
v -3.931020 -50.388012 -14.663042
v -3.949378 -46.737923 -14.783804
v -3.975993 -41.445942 -14.958888
v -3.994351 -37.795856 -15.079651
v 14.939362 -37.795803 -3.854257
v 14.818211 -41.445412 -3.835902
v 14.644406 -46.736958 -3.809289
v 14.523252 -50.386562 -3.790934
v 14.349470 -55.678097 -3.764323
v 14.228312 -59.327690 -3.745967
v 14.228314 -59.327690 3.745967
v 14.349472 -55.678097 3.764324
v 14.523254 -50.386562 3.790933
v 14.644409 -46.736958 3.809289
v 14.818214 -41.445412 3.835902
v 14.939365 -37.795803 3.854256
v 12.917640 -55.613586 0.000000
v 13.087749 -50.326267 0.000000
v 13.204343 -46.680870 0.000001
v 13.374448 -41.393555 0.000000
v -3.994349 -37.781010 14.630929
v -3.989352 -38.741787 13.604403
v -3.992886 -38.048798 13.918683
v 3.709166 -38.741787 13.604401
v 3.714164 -37.781010 14.630927
v 3.712700 -38.048798 13.918681
v -13.744489 -38.741787 3.849257
v -14.771014 -37.781010 3.854256
v -14.058770 -38.048798 3.852791
v -14.771022 -37.781010 -3.854257
v -13.744496 -38.741787 -3.849260
v -14.058778 -38.048798 -3.852794
v 3.714164 -37.781010 -14.630929
v 3.709167 -38.741787 -13.604403
v 3.712701 -38.048798 -13.918683
v -3.989354 -38.741787 -13.604401
v -3.994351 -37.781010 -14.630927
v -3.992887 -38.048798 -13.918681
v 13.463979 -38.742447 -3.850659
v 14.490630 -37.781181 -3.854692
v 13.778341 -38.049316 -3.853910
v 14.490634 -37.781181 3.854692
v 13.463982 -38.742447 3.850660
v 13.778345 -38.049316 3.853911
v 14.484713 -37.780537 0.000000
v 13.459261 -38.741840 0.000001
v 13.772774 -38.048683 0.000001
v -3.890628 -58.371483 12.954961
v -3.886045 -59.312492 13.835700
v -3.887388 -59.024391 13.200440
v 3.605861 -59.312492 13.835696
v 3.610441 -58.371483 12.954957
v 3.607202 -59.024391 13.200437
v -13.975787 -59.312492 3.745952
v -13.095048 -58.371483 3.750533
v -13.340526 -59.024391 3.747294
v -13.095052 -58.371483 -3.750535
v -13.975791 -59.312492 -3.745953
v -13.340529 -59.024391 -3.747296
v 3.610443 -58.371483 -12.954962
v 3.605861 -59.312492 -13.835701
v 3.607203 -59.024391 -13.200441
v -3.886046 -59.312492 -13.835696
v -3.890627 -58.371483 -12.954957
v -3.887387 -59.024391 -13.200437
v 13.696806 -59.310364 -3.744238
v 12.816159 -58.369812 -3.745856
v 13.061569 -59.022583 -3.743484
v 12.816162 -58.369812 3.745858
v 13.696810 -59.310364 3.744239
v 13.061573 -59.022583 3.743486
v 12.830175 -58.348057 0.000000
v 13.711935 -59.288673 0.000000
v 13.076367 -59.000877 0.000000
vn -0.9995 0.0326 -0.0011
vn -0.9995 0.0326 0.0011
vn -0.0000 0.0331 0.9995
vn 0.9995 0.0331 -0.0000
vn -0.0000 0.0331 -0.9995
vn -1.0000 -0.0050 -0.0002
vn 1.0000 -0.0050 -0.0002
vn 0.0002 -0.0050 1.0000
vn 0.0002 -0.0050 -1.0000
vn 1.0000 -0.0050 0.0002
vn -1.0000 -0.0050 0.0002
vn -0.0013 -0.0050 -1.0000
vn -0.0013 -0.0050 1.0000
vn 0.0326 0.9995 0.0047
vn -0.0326 -0.9995 -0.0036
vn 0.0326 0.9995 0.0024
vn -0.0326 -0.9995 -0.0013
vn 0.0326 0.9995 -0.0047
vn -0.0326 -0.9995 0.0036
vn 0.0326 0.9995 -0.0024
vn -0.0326 -0.9995 0.0013
vn -0.0000 0.9995 -0.0331
vn -0.0000 -0.9995 0.0331
vn -0.0331 0.9995 -0.0000
vn 0.0331 -0.9995 -0.0000
vn -0.0000 0.9995 0.0331
vn -0.0000 -0.9995 -0.0331
vn -0.3524 0.9359 0.0007
vn -0.9109 0.4126 0.0013
vn -0.3524 0.9359 -0.0007
vn -0.9109 0.4126 -0.0013
vn -0.0000 0.9360 0.3519
vn -0.0000 0.4130 0.9107
vn 0.3519 0.9360 -0.0000
vn 0.9107 0.4130 -0.0000
vn -0.0000 0.9360 -0.3519
vn -0.0000 0.4130 -0.9107
vn 0.0008 -0.0051 -1.0000
vn -0.9995 0.0326 -0.0008
vn 0.0326 0.9995 -0.0001
vn 0.0008 -0.0051 1.0000
vn -0.9995 0.0326 0.0008
vn 0.0326 0.9995 0.0001
vn -0.9358 -0.3524 -0.0056
vn -0.4126 -0.9109 -0.0069
vn -0.9358 -0.3524 0.0056
vn -0.4126 -0.9109 0.0069
vn -0.0000 -0.3519 0.9360
vn -0.0000 -0.9107 0.4130
vn 0.9360 -0.3519 -0.0000
vn 0.4130 -0.9107 -0.0000
vn -0.0000 -0.3519 -0.9360
vn -0.0000 -0.9107 -0.4130
vn -0.0034 -0.0049 -1.0000
vn -0.9995 0.0326 0.0031
vn -0.0326 -0.9995 0.0059
vn -0.0034 -0.0049 1.0000
vn -0.9995 0.0326 -0.0031
vn -0.0326 -0.9995 -0.0059
vt 0.309143 0.638868
vt 0.309542 0.638941
vt 0.309542 0.625000
vt 0.309144 0.625000
vt 0.309542 0.611059
vt 0.309144 0.611132
vt 0.279117 0.569842
vt 0.279252 0.569288
vt 0.253220 0.572419
vt 0.253264 0.572916
vt 0.214368 0.612914
vt 0.213888 0.612853
vt 0.213888 0.637147
vt 0.214368 0.637086
vt 0.253264 0.677084
vt 0.253219 0.677581
vt 0.279252 0.680712
vt 0.279117 0.680158
vt 0.308566 0.625000
vt 0.308566 0.638764
vt 0.310119 0.639045
vt 0.310119 0.625000
vt 0.308566 0.611236
vt 0.310119 0.610955
vt 0.253326 0.573639
vt 0.278925 0.570642
vt 0.279445 0.568487
vt 0.253158 0.571696
vt 0.215064 0.636998
vt 0.215064 0.613002
vt 0.213192 0.612765
vt 0.213192 0.637235
vt 0.278925 0.679358
vt 0.253326 0.676361
vt 0.253158 0.678304
vt 0.279445 0.681513
vt 0.310518 0.639117
vt 0.310518 0.625000
vt 0.310518 0.625000
vt 0.310507 0.639112
vt 0.310409 0.625000
vt 0.310409 0.639097
vt 0.310518 0.610883
vt 0.310507 0.610888
vt 0.310409 0.610903
vt 0.279580 0.567933
vt 0.253113 0.571198
vt 0.253117 0.571211
vt 0.279573 0.567948
vt 0.253125 0.571334
vt 0.279543 0.568084
vt 0.212712 0.612704
vt 0.212712 0.637296
vt 0.212725 0.637291
vt 0.212725 0.612709
vt 0.212843 0.637279
vt 0.212843 0.612721
vt 0.253113 0.678802
vt 0.279580 0.682067
vt 0.279573 0.682052
vt 0.253117 0.678789
vt 0.279543 0.681916
vt 0.253125 0.678666
vt 0.279580 0.682067
vt 0.253113 0.571198
vt 0.308267 0.638710
vt 0.308267 0.625000
vt 0.308168 0.625000
vt 0.308177 0.638693
vt 0.308168 0.638692
vt 0.308267 0.611290
vt 0.308177 0.611307
vt 0.308168 0.611308
vt 0.278824 0.571058
vt 0.253359 0.574012
vt 0.253370 0.574124
vt 0.278793 0.571183
vt 0.253371 0.574136
vt 0.278790 0.571196
vt 0.215424 0.613047
vt 0.215424 0.636953
vt 0.215532 0.636939
vt 0.215532 0.613061
vt 0.215544 0.636937
vt 0.215544 0.613063
vt 0.253359 0.675988
vt 0.278824 0.678942
vt 0.278793 0.678818
vt 0.253369 0.675876
vt 0.278790 0.678804
vt 0.253371 0.675864
vt 0.253371 0.675864
vt 0.278790 0.678804
vt 0.215544 0.613063
vt 0.308168 0.638692
s 0
f 16/1/1 18/2/1 89/3/1 88/4/1
f 88/4/2 89/3/2 13/5/2 29/6/2
f 28/7/3 9/8/3 23/9/3 11/10/3
f 30/11/4 7/12/4 5/13/4 32/14/4
f 1/15/5 25/16/5 19/17/5 3/18/5
f 25/16/6 1/15/6 41/15/6 42/16/6
f 3/18/7 19/17/7 48/17/7 47/18/7
f 32/14/8 5/13/8 53/13/8 54/14/8
f 7/12/9 30/11/9 60/11/9 59/12/9
f 9/8/10 28/7/10 66/7/10 65/8/10
f 11/10/11 23/9/11 72/9/11 71/10/11
f 29/6/12 13/5/12 77/5/12 78/6/12
f 18/2/13 16/1/13 83/1/13 84/2/13
f 87/19/14 26/20/14 82/20/14 35/19/14
f 16/1/15 88/4/15 36/4/15 83/1/15
f 89/3/16 18/2/16 84/2/16 37/3/16
f 17/21/17 90/22/17 38/22/17 85/21/17
f 14/23/18 87/19/18 35/19/18 79/23/18
f 88/4/19 29/6/19 78/6/19 36/4/19
f 13/5/20 89/3/20 37/3/20 77/5/20
f 90/22/21 21/24/21 76/24/21 38/22/21
f 31/25/22 10/26/22 67/26/22 70/25/22
f 28/7/23 11/10/23 71/10/23 66/7/23
f 23/9/22 9/8/22 65/8/22 72/9/22
f 20/27/23 12/28/23 73/28/23 64/27/23
f 6/29/24 8/30/24 61/30/24 55/29/24
f 30/11/25 32/14/25 54/14/25 60/11/25
f 5/13/24 7/12/24 59/12/24 53/13/24
f 22/31/25 24/32/25 52/32/25 58/31/25
f 27/33/26 33/34/26 40/34/26 46/33/26
f 1/15/27 3/18/27 47/18/27 41/15/27
f 19/17/26 25/16/26 42/16/26 48/17/26
f 2/35/27 4/36/27 49/36/27 43/35/27
f 112/37/28 115/38/28 117/39/28 114/40/28
f 114/40/29 117/39/29 116/41/29 113/42/29
f 115/38/30 110/43/30 111/44/30 117/39/30
f 117/39/31 111/44/31 109/45/31 116/41/31
f 103/46/32 107/47/32 108/48/32 105/49/32
f 105/49/33 108/48/33 106/50/33 104/51/33
f 100/52/34 98/53/34 99/54/34 102/55/34
f 102/55/35 99/54/35 97/56/35 101/57/35
f 91/58/36 95/59/36 96/60/36 93/61/36
f 93/61/37 96/60/37 94/62/37 92/63/37
f 91/58/6 93/61/6 92/63/6 2/35/6 43/35/6 44/58/6
f 2/35/5 92/63/5 94/62/5 4/36/5
f 95/59/26 91/58/26 44/58/26 50/64/26
f 4/36/7 94/62/7 96/60/7 95/59/7 50/64/7 49/36/7
f 24/32/8 97/56/8 99/54/8 98/53/8 51/53/8 52/32/8
f 22/31/4 101/57/4 97/56/4 24/32/4
f 98/53/24 100/52/24 57/52/24 51/53/24
f 100/52/9 102/55/9 101/57/9 22/31/9 58/31/9 57/52/9
f 103/46/10 105/49/10 104/51/10 20/27/10 64/27/10 63/46/10
f 20/27/3 104/51/3 106/50/3 12/28/3
f 107/47/22 103/46/22 63/46/22 74/65/22
f 12/28/11 106/50/11 108/48/11 107/47/11 74/65/11 73/28/11
f 21/24/38 109/45/38 111/44/38 110/43/38 75/43/38 76/24/38
f 90/22/39 116/41/39 109/45/39 21/24/39
f 110/43/40 115/38/40 15/38/40 75/43/40
f 112/37/41 114/40/41 113/42/41 17/21/41 85/21/41 86/37/41
f 17/21/42 113/42/42 116/41/42 90/22/42
f 115/38/43 112/37/43 86/37/43 15/38/43
f 139/66/44 142/67/44 144/68/44 141/69/44
f 141/69/45 144/68/45 143/68/45 140/70/45
f 142/67/46 137/71/46 138/72/46 144/68/46
f 144/68/47 138/72/47 136/73/47 143/68/47
f 130/74/48 134/75/48 135/76/48 132/77/48
f 132/77/49 135/76/49 133/78/49 131/79/49
f 127/80/50 125/81/50 126/82/50 129/83/50
f 129/83/51 126/82/51 124/84/51 128/85/51
f 118/86/52 122/87/52 123/88/52 120/89/52
f 120/89/53 123/88/53 121/90/53 119/91/53
f 33/34/6 118/86/6 120/89/6 119/91/6 39/92/6 40/34/6
f 118/86/5 33/34/5 27/33/5 122/87/5
f 119/91/27 121/90/27 45/93/27 39/92/27
f 121/90/7 123/88/7 122/87/7 27/33/7 46/33/7 45/93/7
f 124/84/8 126/82/8 125/81/8 6/29/8 55/29/8 56/84/8
f 127/80/4 8/30/4 6/29/4 125/81/4
f 128/85/25 124/84/25 56/84/25 62/94/25
f 8/30/9 127/80/9 129/83/9 128/85/9 62/94/9 61/30/9
f 10/26/10 130/74/10 132/77/10 131/79/10 68/79/10 67/26/10
f 130/74/3 10/26/3 31/25/3 134/75/3
f 131/79/23 133/78/23 69/78/23 68/79/23
f 133/78/11 135/76/11 134/75/11 31/25/11 70/25/11 69/78/11
f 136/73/54 138/72/54 137/71/54 14/23/54 79/23/54 80/73/54
f 142/67/55 87/19/55 14/23/55 137/71/55
f 143/68/56 136/73/56 80/73/56 34/68/56
f 26/20/57 139/66/57 141/69/57 140/70/57 81/95/57 82/20/57
f 139/66/58 26/20/58 87/19/58 142/67/58
f 140/70/59 143/68/59 34/68/59 81/95/59
