# Blender 5.2.1 LTS
# www.blender.org
mtllib Lights.mtl
o Cube.091
v 13.411743 3.945209 41.408627
v 13.413561 -3.051912 41.414551
v 13.926838 3.617625 41.249111
v 13.927092 2.349410 41.250217
v 13.927356 1.081172 41.251320
v 13.927621 -0.187067 41.252426
v 13.927885 -1.455310 41.253532
v 13.928141 -2.723574 41.254639
v 15.057369 3.617586 40.898411
v 15.057682 2.349365 40.899494
v 15.058000 1.081136 40.900574
v 15.058317 -0.187092 40.901661
v 15.058636 -1.455325 40.902748
v 15.058949 -2.723567 40.903831
v 16.187927 3.617536 40.547703
v 16.188286 2.349316 40.548767
v 16.188648 1.081097 40.549828
v 16.189013 -0.187123 40.550896
v 16.189377 -1.455346 40.551964
v 16.189735 -2.723569 40.553028
v 17.318485 3.617484 40.196991
v 17.318890 2.349269 40.198040
v 17.319300 1.081058 40.199085
v 17.319710 -0.187153 40.200134
v 17.320118 -1.455365 40.201180
v 17.320526 -2.723573 40.202225
v 18.449043 3.617433 39.846275
v 18.449495 2.349221 39.847305
v 18.449951 1.081019 39.848335
v 18.450409 -0.187182 39.849365
v 18.450865 -1.455383 39.850391
v 18.451315 -2.723573 39.851421
v 19.579624 3.617392 39.495560
v 19.580109 2.349176 39.496574
v 19.580605 1.080984 39.497585
v 19.581100 -0.187208 39.498596
v 19.581596 -1.455397 39.499607
v 19.582081 -2.723565 39.500622
v 20.094688 3.945366 39.335445
v 20.096500 -3.051763 39.341373
v -13.693748 -3.051903 41.414558
v -13.691926 3.945220 41.408630
v -14.208327 -2.723570 41.254642
v -14.208074 -1.455311 41.253536
v -14.207808 -0.187068 41.252434
v -14.207543 1.081174 41.251328
v -14.207278 2.349411 41.250221
v -14.207025 3.617628 41.249115
v -15.339133 -2.723562 40.903828
v -15.338822 -1.455325 40.902744
v -15.338506 -0.187093 40.901665
v -15.338189 1.081139 40.900578
v -15.337873 2.349367 40.899490
v -15.337560 3.617585 40.898407
v -16.469917 -2.723564 40.553032
v -16.469559 -1.455342 40.551964
v -16.469196 -0.187121 40.550896
v -16.468830 1.081100 40.549828
v -16.468468 2.349318 40.548763
v -16.468113 3.617535 40.547699
v -17.600708 -2.723569 40.202232
v -17.600300 -1.455362 40.201183
v -17.599892 -0.187151 40.200134
v -17.599480 1.081059 40.199089
v -17.599072 2.349270 40.198040
v -17.598667 3.617485 40.196991
v -18.731495 -2.723572 39.851429
v -18.731045 -1.455383 39.850399
v -18.730591 -0.187181 39.849369
v -18.730137 1.081019 39.848339
v -18.729679 2.349221 39.847313
v -18.729229 3.617436 39.846283
v -19.862259 -2.723563 39.500629
v -19.861774 -1.455397 39.499615
v -19.861282 -0.187207 39.498604
v -19.860786 1.080984 39.497593
v -19.860294 2.349178 39.496582
v -19.859806 3.617395 39.495564
v -20.376682 -3.051760 39.341377
v -20.374870 3.945366 39.335449
v 12.752197 3.079006 41.614033
v 12.293321 2.080810 41.757317
v 12.058136 1.000655 41.831272
v 12.058429 -0.107280 41.832211
v 12.294181 -1.187440 41.760078
v 12.753567 -2.185676 41.618492
v 20.754681 3.079129 39.131508
v 21.214062 2.080894 38.989922
v 21.449818 1.000735 38.917789
v 21.450109 -0.107203 38.918724
v 21.214924 -1.187362 38.992683
v 20.756046 -2.185557 39.135967
v 14.238859 4.636017 41.151398
v 14.241095 -3.742682 41.158478
v 15.192098 5.116764 40.855236
v 15.194639 -4.223371 40.863113
v 16.223686 5.363326 40.534992
v 16.226364 -4.469890 40.543282
v 17.281876 5.363344 40.206718
v 17.284555 -4.469872 40.215012
v 18.313602 5.116824 39.886887
v 18.316147 -4.223311 39.894760
v 19.267153 4.636134 39.591522
v 19.269384 -3.742569 39.598602
v -13.033751 -2.185668 41.618500
v -12.574363 -1.187436 41.760082
v -12.338611 -0.107281 41.832214
v -12.338317 1.000658 41.831280
v -12.573503 2.080815 41.757317
v -13.032378 3.079013 41.614040
v -21.036232 -2.185559 39.135971
v -21.495106 -1.187363 38.992691
v -21.730293 -0.107204 38.918728
v -21.730003 1.000731 38.917793
v -21.494251 2.080892 38.989925
v -21.034863 3.079130 39.131508
v -14.521281 -3.742673 41.158482
v -14.519044 4.636024 41.151402
v -15.474822 -4.223363 40.863121
v -15.472285 5.116763 40.855240
v -16.506546 -4.469884 40.543289
v -16.503872 5.363323 40.534992
v -17.564735 -4.469867 40.215019
v -17.562061 5.363343 40.206722
v -18.596325 -4.223309 39.894768
v -18.593788 5.116826 39.886887
v -19.549564 -3.742566 39.598610
v -19.547337 4.636137 39.591522
vn -0.2963 -0.0009 -0.9551
vn 0.2963 -0.0009 -0.9551
vt 0.575569 0.807002
vt 0.574949 0.804442
vt 0.553535 0.804442
vt 0.553978 0.807002
vt 0.532121 0.804442
vt 0.532387 0.807002
vt 0.510707 0.804442
vt 0.510795 0.807002
vt 0.489293 0.804442
vt 0.489204 0.807002
vt 0.467879 0.804442
vt 0.467613 0.807002
vt 0.446465 0.804442
vt 0.446022 0.807002
vt 0.425051 0.804443
vt 0.424430 0.807003
vt 0.574329 0.801882
vt 0.553092 0.801882
vt 0.531855 0.801882
vt 0.510618 0.801882
vt 0.489381 0.801882
vt 0.468145 0.801882
vt 0.446908 0.801882
vt 0.425671 0.801882
vt 0.573709 0.799322
vt 0.552649 0.799322
vt 0.531589 0.799322
vt 0.510530 0.799322
vt 0.489470 0.799322
vt 0.468410 0.799322
vt 0.447351 0.799322
vt 0.426291 0.799322
vt 0.573088 0.796762
vt 0.552206 0.796762
vt 0.531324 0.796762
vt 0.510441 0.796762
vt 0.489559 0.796762
vt 0.468676 0.796762
vt 0.447794 0.796762
vt 0.426911 0.796762
vt 0.572468 0.794202
vt 0.551763 0.794202
vt 0.531058 0.794202
vt 0.510352 0.794202
vt 0.489647 0.794202
vt 0.468942 0.794202
vt 0.448237 0.794202
vt 0.427532 0.794202
vt 0.571848 0.791642
vt 0.551320 0.791642
vt 0.530792 0.791642
vt 0.510264 0.791642
vt 0.489736 0.791642
vt 0.469208 0.791642
vt 0.448680 0.791642
vt 0.428152 0.791642
vt 0.571228 0.789083
vt 0.550877 0.789082
vt 0.530526 0.789082
vt 0.510175 0.789082
vt 0.489825 0.789082
vt 0.469474 0.789082
vt 0.449123 0.789082
vt 0.428772 0.789082
vt 0.438952 0.925980
vt 0.438952 0.932799
vt 0.456394 0.932799
vt 0.456394 0.925981
vt 0.473836 0.932799
vt 0.473836 0.925981
vt 0.491279 0.932799
vt 0.491279 0.925981
vt 0.508721 0.932799
vt 0.508721 0.925981
vt 0.526164 0.932800
vt 0.526164 0.925982
vt 0.543606 0.932800
vt 0.543606 0.925982
vt 0.561048 0.932800
vt 0.561049 0.925982
vt 0.438952 0.939617
vt 0.456394 0.939617
vt 0.473837 0.939617
vt 0.491279 0.939617
vt 0.508721 0.939617
vt 0.526164 0.939617
vt 0.543606 0.939617
vt 0.561048 0.939618
vt 0.438952 0.946435
vt 0.456394 0.946435
vt 0.473837 0.946435
vt 0.491279 0.946435
vt 0.508721 0.946435
vt 0.526163 0.946435
vt 0.543606 0.946435
vt 0.561048 0.946435
vt 0.438952 0.953253
vt 0.456394 0.953253
vt 0.473837 0.953253
vt 0.491279 0.953253
vt 0.508721 0.953253
vt 0.526163 0.953253
vt 0.543606 0.953253
vt 0.561048 0.953253
vt 0.438952 0.960071
vt 0.456394 0.960071
vt 0.473837 0.960071
vt 0.491279 0.960071
vt 0.508721 0.960071
vt 0.526163 0.960071
vt 0.543606 0.960070
vt 0.561048 0.960070
vt 0.438952 0.966889
vt 0.456395 0.966889
vt 0.473837 0.966889
vt 0.491279 0.966889
vt 0.508721 0.966888
vt 0.526163 0.966888
vt 0.543605 0.966888
vt 0.561048 0.966888
vt 0.438953 0.973708
vt 0.456395 0.973707
vt 0.473837 0.973707
vt 0.491279 0.973707
vt 0.508721 0.973706
vt 0.526163 0.973706
vt 0.543605 0.973706
vt 0.561047 0.973705
s 0
f 1/1/1 93/2/1 3/3/1 81/4/1
f 81/4/1 3/3/1 4/5/1 82/6/1
f 82/6/1 4/5/1 5/7/1 83/8/1
f 83/8/1 5/7/1 6/9/1 84/10/1
f 84/10/1 6/9/1 7/11/1 85/12/1
f 85/12/1 7/11/1 8/13/1 86/14/1
f 86/14/1 8/13/1 94/15/1 2/16/1
f 93/2/1 95/17/1 9/18/1 3/3/1
f 3/3/1 9/18/1 10/19/1 4/5/1
f 4/5/1 10/19/1 11/20/1 5/7/1
f 5/7/1 11/20/1 12/21/1 6/9/1
f 6/9/1 12/21/1 13/22/1 7/11/1
f 7/11/1 13/22/1 14/23/1 8/13/1
f 8/13/1 14/23/1 96/24/1 94/15/1
f 95/17/1 97/25/1 15/26/1 9/18/1
f 9/18/1 15/26/1 16/27/1 10/19/1
f 10/19/1 16/27/1 17/28/1 11/20/1
f 11/20/1 17/28/1 18/29/1 12/21/1
f 12/21/1 18/29/1 19/30/1 13/22/1
f 13/22/1 19/30/1 20/31/1 14/23/1
f 14/23/1 20/31/1 98/32/1 96/24/1
f 97/25/1 99/33/1 21/34/1 15/26/1
f 15/26/1 21/34/1 22/35/1 16/27/1
f 16/27/1 22/35/1 23/36/1 17/28/1
f 17/28/1 23/36/1 24/37/1 18/29/1
f 18/29/1 24/37/1 25/38/1 19/30/1
f 19/30/1 25/38/1 26/39/1 20/31/1
f 20/31/1 26/39/1 100/40/1 98/32/1
f 99/33/1 101/41/1 27/42/1 21/34/1
f 21/34/1 27/42/1 28/43/1 22/35/1
f 22/35/1 28/43/1 29/44/1 23/36/1
f 23/36/1 29/44/1 30/45/1 24/37/1
f 24/37/1 30/45/1 31/46/1 25/38/1
f 25/38/1 31/46/1 32/47/1 26/39/1
f 26/39/1 32/47/1 102/48/1 100/40/1
f 101/41/1 103/49/1 33/50/1 27/42/1
f 27/42/1 33/50/1 34/51/1 28/43/1
f 28/43/1 34/51/1 35/52/1 29/44/1
f 29/44/1 35/52/1 36/53/1 30/45/1
f 30/45/1 36/53/1 37/54/1 31/46/1
f 31/46/1 37/54/1 38/55/1 32/47/1
f 32/47/1 38/55/1 104/56/1 102/48/1
f 103/49/1 39/57/1 87/58/1 33/50/1
f 33/50/1 87/58/1 88/59/1 34/51/1
f 34/51/1 88/59/1 89/60/1 35/52/1
f 35/52/1 89/60/1 90/61/1 36/53/1
f 36/53/1 90/61/1 91/62/1 37/54/1
f 37/54/1 91/62/1 92/63/1 38/55/1
f 38/55/1 92/63/1 40/64/1 104/56/1
f 41/65/2 117/66/2 43/67/2 105/68/2
f 105/68/2 43/67/2 44/69/2 106/70/2
f 106/70/2 44/69/2 45/71/2 107/72/2
f 107/72/2 45/71/2 46/73/2 108/74/2
f 108/74/2 46/73/2 47/75/2 109/76/2
f 109/76/2 47/75/2 48/77/2 110/78/2
f 110/78/2 48/77/2 118/79/2 42/80/2
f 117/66/2 119/81/2 49/82/2 43/67/2
f 43/67/2 49/82/2 50/83/2 44/69/2
f 44/69/2 50/83/2 51/84/2 45/71/2
f 45/71/2 51/84/2 52/85/2 46/73/2
f 46/73/2 52/85/2 53/86/2 47/75/2
f 47/75/2 53/86/2 54/87/2 48/77/2
f 48/77/2 54/87/2 120/88/2 118/79/2
f 119/81/2 121/89/2 55/90/2 49/82/2
f 49/82/2 55/90/2 56/91/2 50/83/2
f 50/83/2 56/91/2 57/92/2 51/84/2
f 51/84/2 57/92/2 58/93/2 52/85/2
f 52/85/2 58/93/2 59/94/2 53/86/2
f 53/86/2 59/94/2 60/95/2 54/87/2
f 54/87/2 60/95/2 122/96/2 120/88/2
f 121/89/2 123/97/2 61/98/2 55/90/2
f 55/90/2 61/98/2 62/99/2 56/91/2
f 56/91/2 62/99/2 63/100/2 57/92/2
f 57/92/2 63/100/2 64/101/2 58/93/2
f 58/93/2 64/101/2 65/102/2 59/94/2
f 59/94/2 65/102/2 66/103/2 60/95/2
f 60/95/2 66/103/2 124/104/2 122/96/2
f 123/97/2 125/105/2 67/106/2 61/98/2
f 61/98/2 67/106/2 68/107/2 62/99/2
f 62/99/2 68/107/2 69/108/2 63/100/2
f 63/100/2 69/108/2 70/109/2 64/101/2
f 64/101/2 70/109/2 71/110/2 65/102/2
f 65/102/2 71/110/2 72/111/2 66/103/2
f 66/103/2 72/111/2 126/112/2 124/104/2
f 125/105/2 127/113/2 73/114/2 67/106/2
f 67/106/2 73/114/2 74/115/2 68/107/2
f 68/107/2 74/115/2 75/116/2 69/108/2
f 69/108/2 75/116/2 76/117/2 70/109/2
f 70/109/2 76/117/2 77/118/2 71/110/2
f 71/110/2 77/118/2 78/119/2 72/111/2
f 72/111/2 78/119/2 128/120/2 126/112/2
f 127/113/2 79/121/2 111/122/2 73/114/2
f 73/114/2 111/122/2 112/123/2 74/115/2
f 74/115/2 112/123/2 113/124/2 75/116/2
f 75/116/2 113/124/2 114/125/2 76/117/2
f 76/117/2 114/125/2 115/126/2 77/118/2
f 77/118/2 115/126/2 116/127/2 78/119/2
f 78/119/2 116/127/2 80/128/2 128/120/2
o Cube.093
v -39.475536 3.945366 -20.234781
v -39.481464 -3.051767 -20.236595
v -39.635654 3.617394 -19.719719
v -39.636669 2.349177 -19.720201
v -39.637680 1.080985 -19.720694
v -39.638691 -0.187206 -19.721191
v -39.639706 -1.455396 -19.721685
v -39.640720 -2.723566 -19.722170
v -39.986374 3.617435 -18.589134
v -39.987404 2.349221 -18.589584
v -39.988430 1.081019 -18.590042
v -39.989460 -0.187181 -18.590496
v -39.990490 -1.455381 -18.590950
v -39.991520 -2.723573 -18.591402
v -40.337082 3.617485 -17.458576
v -40.338131 2.349271 -17.458982
v -40.339176 1.081059 -17.459393
v -40.340225 -0.187152 -17.459801
v -40.341270 -1.455363 -17.460211
v -40.342319 -2.723572 -17.460615
v -40.687794 3.617539 -16.328022
v -40.688858 2.349320 -16.328382
v -40.689926 1.081099 -16.328747
v -40.690994 -0.187123 -16.329109
v -40.692055 -1.455344 -16.329472
v -40.693123 -2.723569 -16.329830
v -41.038506 3.617590 -15.197465
v -41.039593 2.349369 -15.197775
v -41.040676 1.081138 -15.198091
v -41.041759 -0.187093 -15.198409
v -41.042843 -1.455323 -15.198728
v -41.043930 -2.723568 -15.199039
v -41.389206 3.617632 -14.066925
v -41.390312 2.349411 -14.067179
v -41.391415 1.081172 -14.067442
v -41.392521 -0.187068 -14.067708
v -41.393631 -1.455310 -14.067972
v -41.394737 -2.723577 -14.068226
v -41.548717 3.945222 -13.551826
v -41.554646 -3.051913 -13.553644
v -39.481453 -3.051774 20.236603
v -39.475536 3.945365 20.234781
v -39.640713 -2.723571 19.722176
v -39.639698 -1.455399 19.721687
v -39.638687 -0.187208 19.721191
v -39.637676 1.080983 19.720695
v -39.636665 2.349175 19.720201
v -39.635651 3.617391 19.719717
v -39.991512 -2.723576 18.591404
v -39.990482 -1.455385 18.590954
v -39.989452 -0.187182 18.590500
v -39.988422 1.081019 18.590044
v -39.987396 2.349219 18.589586
v -39.986366 3.617431 18.589138
v -40.342308 -2.723573 17.460621
v -40.341263 -1.455366 17.460217
v -40.340221 -0.187153 17.459806
v -40.339172 1.081059 17.459398
v -40.338123 2.349268 17.458988
v -40.337082 3.617481 17.458582
v -40.693115 -2.723571 16.329834
v -40.692051 -1.455347 16.329475
v -40.690990 -0.187124 16.329111
v -40.689922 1.081099 16.328747
v -40.688854 2.349318 16.328382
v -40.687794 3.617533 16.328022
v -41.043922 -2.723570 15.199043
v -41.042839 -1.455327 15.198730
v -41.041759 -0.187095 15.198413
v -41.040672 1.081138 15.198096
v -41.039589 2.349367 15.197779
v -41.038502 3.617584 15.197466
v -41.394733 -2.723576 14.068232
v -41.393627 -1.455312 14.067978
v -41.392525 -0.187070 14.067715
v -41.391422 1.081172 14.067450
v -41.390316 2.349411 14.067186
v -41.389210 3.617625 14.066933
v -41.554646 -3.051914 13.553653
v -41.548725 3.945210 13.551840
v -39.271595 3.079129 -20.894773
v -39.130016 2.080891 -21.354156
v -39.057884 1.000734 -21.589907
v -39.058819 -0.107203 -21.590200
v -39.132778 -1.187360 -21.355017
v -39.276058 -2.185561 -20.896141
v -41.754124 3.079016 -12.892282
v -41.897400 2.080815 -12.433408
v -41.971363 1.000657 -12.198223
v -41.972301 -0.107278 -12.198516
v -41.900166 -1.187439 -12.434267
v -41.758583 -2.185678 -12.893651
v -39.731613 4.636136 -19.407246
v -39.738697 -3.742571 -19.409475
v -40.026978 5.116826 -18.453695
v -40.034855 -4.223310 -18.456234
v -40.346813 5.363342 -17.421968
v -40.355103 -4.469871 -17.424646
v -40.675083 5.363326 -16.363781
v -40.683372 -4.469892 -16.366457
v -40.995331 5.116768 -15.332190
v -41.003204 -4.223374 -15.334728
v -41.291489 4.636027 -14.378945
v -41.298569 -3.742684 -14.381178
v -39.276047 -2.185565 20.896147
v -39.132771 -1.187362 21.355021
v -39.058807 -0.107205 21.590206
v -39.057873 1.000731 21.589912
v -39.130009 2.080890 21.354160
v -39.271591 3.079129 20.894775
v -41.758587 -2.185678 12.893659
v -41.900173 -1.187443 12.434275
v -41.972309 -0.107283 12.198521
v -41.971375 1.000654 12.198229
v -41.897415 2.080814 12.433415
v -41.754131 3.079009 12.892293
v -39.738682 -3.742577 19.409481
v -39.731613 4.636136 19.407246
v -40.034847 -4.223314 18.456236
v -40.026978 5.116824 18.453699
v -40.355099 -4.469872 17.424646
v -40.346813 5.363342 17.421972
v -40.683365 -4.469893 16.366461
v -40.675087 5.363322 16.363783
v -41.003204 -4.223375 15.334733
v -40.995335 5.116761 15.332194
v -41.298569 -3.742685 14.381185
v -41.291496 4.636017 14.378956
vn 0.9551 -0.0009 0.2963
vn 0.9551 -0.0009 -0.2963
vt 0.561047 0.185762
vt 0.561048 0.182440
vt 0.543605 0.182440
vt 0.543605 0.185763
vt 0.526163 0.182440
vt 0.526163 0.185763
vt 0.508721 0.182440
vt 0.508721 0.185763
vt 0.491279 0.182440
vt 0.491279 0.185763
vt 0.473837 0.182440
vt 0.473837 0.185763
vt 0.456395 0.182440
vt 0.456395 0.185763
vt 0.438952 0.182440
vt 0.438953 0.185763
vt 0.561048 0.179117
vt 0.543606 0.179117
vt 0.526163 0.179117
vt 0.508721 0.179117
vt 0.491279 0.179117
vt 0.473837 0.179117
vt 0.456394 0.179117
vt 0.438952 0.179117
vt 0.561048 0.175794
vt 0.543606 0.175794
vt 0.526163 0.175794
vt 0.508721 0.175794
vt 0.491279 0.175794
vt 0.473837 0.175794
vt 0.456394 0.175794
vt 0.438952 0.175794
vt 0.561048 0.172471
vt 0.543606 0.172471
vt 0.526164 0.172471
vt 0.508721 0.172471
vt 0.491279 0.172471
vt 0.473837 0.172471
vt 0.456394 0.172471
vt 0.438952 0.172471
vt 0.561048 0.169149
vt 0.543606 0.169149
vt 0.526164 0.169149
vt 0.508721 0.169148
vt 0.491279 0.169148
vt 0.473837 0.169148
vt 0.456394 0.169148
vt 0.438952 0.169148
vt 0.561048 0.165826
vt 0.543606 0.165826
vt 0.526164 0.165826
vt 0.508721 0.165826
vt 0.491279 0.165825
vt 0.473836 0.165825
vt 0.456394 0.165825
vt 0.438952 0.165825
vt 0.561049 0.162503
vt 0.543606 0.162503
vt 0.526164 0.162503
vt 0.508721 0.162503
vt 0.491279 0.162503
vt 0.473836 0.162502
vt 0.456394 0.162502
vt 0.438952 0.162502
vt 0.438953 0.064237
vt 0.438952 0.067560
vt 0.456395 0.067560
vt 0.456395 0.064237
vt 0.473837 0.067560
vt 0.473837 0.064237
vt 0.491279 0.067560
vt 0.491279 0.064237
vt 0.508721 0.067560
vt 0.508721 0.064237
vt 0.526163 0.067560
vt 0.526163 0.064237
vt 0.543605 0.067560
vt 0.543605 0.064237
vt 0.561048 0.067560
vt 0.561047 0.064238
vt 0.438952 0.070883
vt 0.456394 0.070883
vt 0.473837 0.070883
vt 0.491279 0.070883
vt 0.508721 0.070883
vt 0.526163 0.070883
vt 0.543606 0.070883
vt 0.561048 0.070883
vt 0.438952 0.074206
vt 0.456394 0.074206
vt 0.473837 0.074206
vt 0.491279 0.074206
vt 0.508721 0.074206
vt 0.526163 0.074206
vt 0.543606 0.074206
vt 0.561048 0.074206
vt 0.438952 0.077529
vt 0.456394 0.077529
vt 0.473837 0.077529
vt 0.491279 0.077529
vt 0.508721 0.077529
vt 0.526163 0.077529
vt 0.543606 0.077529
vt 0.561048 0.077529
vt 0.438952 0.080852
vt 0.456394 0.080852
vt 0.473836 0.080852
vt 0.491279 0.080852
vt 0.508721 0.080852
vt 0.526163 0.080851
vt 0.543606 0.080851
vt 0.561048 0.080851
vt 0.438952 0.084175
vt 0.456394 0.084175
vt 0.473836 0.084175
vt 0.491279 0.084175
vt 0.508721 0.084174
vt 0.526163 0.084174
vt 0.543606 0.084174
vt 0.561048 0.084174
vt 0.438952 0.087498
vt 0.456394 0.087498
vt 0.473836 0.087498
vt 0.491279 0.087497
vt 0.508721 0.087497
vt 0.526164 0.087497
vt 0.543606 0.087497
vt 0.561048 0.087497
s 0
f 129/129/3 221/130/3 131/131/3 209/132/3
f 209/132/3 131/131/3 132/133/3 210/134/3
f 210/134/3 132/133/3 133/135/3 211/136/3
f 211/136/3 133/135/3 134/137/3 212/138/3
f 212/138/3 134/137/3 135/139/3 213/140/3
f 213/140/3 135/139/3 136/141/3 214/142/3
f 214/142/3 136/141/3 222/143/3 130/144/3
f 221/130/3 223/145/3 137/146/3 131/131/3
f 131/131/3 137/146/3 138/147/3 132/133/3
f 132/133/3 138/147/3 139/148/3 133/135/3
f 133/135/3 139/148/3 140/149/3 134/137/3
f 134/137/3 140/149/3 141/150/3 135/139/3
f 135/139/3 141/150/3 142/151/3 136/141/3
f 136/141/3 142/151/3 224/152/3 222/143/3
f 223/145/3 225/153/3 143/154/3 137/146/3
f 137/146/3 143/154/3 144/155/3 138/147/3
f 138/147/3 144/155/3 145/156/3 139/148/3
f 139/148/3 145/156/3 146/157/3 140/149/3
f 140/149/3 146/157/3 147/158/3 141/150/3
f 141/150/3 147/158/3 148/159/3 142/151/3
f 142/151/3 148/159/3 226/160/3 224/152/3
f 225/153/3 227/161/3 149/162/3 143/154/3
f 143/154/3 149/162/3 150/163/3 144/155/3
f 144/155/3 150/163/3 151/164/3 145/156/3
f 145/156/3 151/164/3 152/165/3 146/157/3
f 146/157/3 152/165/3 153/166/3 147/158/3
f 147/158/3 153/166/3 154/167/3 148/159/3
f 148/159/3 154/167/3 228/168/3 226/160/3
f 227/161/3 229/169/3 155/170/3 149/162/3
f 149/162/3 155/170/3 156/171/3 150/163/3
f 150/163/3 156/171/3 157/172/3 151/164/3
f 151/164/3 157/172/3 158/173/3 152/165/3
f 152/165/3 158/173/3 159/174/3 153/166/3
f 153/166/3 159/174/3 160/175/3 154/167/3
f 154/167/3 160/175/3 230/176/3 228/168/3
f 229/169/3 231/177/3 161/178/3 155/170/3
f 155/170/3 161/178/3 162/179/3 156/171/3
f 156/171/3 162/179/3 163/180/3 157/172/3
f 157/172/3 163/180/3 164/181/3 158/173/3
f 158/173/3 164/181/3 165/182/3 159/174/3
f 159/174/3 165/182/3 166/183/3 160/175/3
f 160/175/3 166/183/3 232/184/3 230/176/3
f 231/177/3 167/185/3 215/186/3 161/178/3
f 161/178/3 215/186/3 216/187/3 162/179/3
f 162/179/3 216/187/3 217/188/3 163/180/3
f 163/180/3 217/188/3 218/189/3 164/181/3
f 164/181/3 218/189/3 219/190/3 165/182/3
f 165/182/3 219/190/3 220/191/3 166/183/3
f 166/183/3 220/191/3 168/192/3 232/184/3
f 169/193/4 245/194/4 171/195/4 233/196/4
f 233/196/4 171/195/4 172/197/4 234/198/4
f 234/198/4 172/197/4 173/199/4 235/200/4
f 235/200/4 173/199/4 174/201/4 236/202/4
f 236/202/4 174/201/4 175/203/4 237/204/4
f 237/204/4 175/203/4 176/205/4 238/206/4
f 238/206/4 176/205/4 246/207/4 170/208/4
f 245/194/4 247/209/4 177/210/4 171/195/4
f 171/195/4 177/210/4 178/211/4 172/197/4
f 172/197/4 178/211/4 179/212/4 173/199/4
f 173/199/4 179/212/4 180/213/4 174/201/4
f 174/201/4 180/213/4 181/214/4 175/203/4
f 175/203/4 181/214/4 182/215/4 176/205/4
f 176/205/4 182/215/4 248/216/4 246/207/4
f 247/209/4 249/217/4 183/218/4 177/210/4
f 177/210/4 183/218/4 184/219/4 178/211/4
f 178/211/4 184/219/4 185/220/4 179/212/4
f 179/212/4 185/220/4 186/221/4 180/213/4
f 180/213/4 186/221/4 187/222/4 181/214/4
f 181/214/4 187/222/4 188/223/4 182/215/4
f 182/215/4 188/223/4 250/224/4 248/216/4
f 249/217/4 251/225/4 189/226/4 183/218/4
f 183/218/4 189/226/4 190/227/4 184/219/4
f 184/219/4 190/227/4 191/228/4 185/220/4
f 185/220/4 191/228/4 192/229/4 186/221/4
f 186/221/4 192/229/4 193/230/4 187/222/4
f 187/222/4 193/230/4 194/231/4 188/223/4
f 188/223/4 194/231/4 252/232/4 250/224/4
f 251/225/4 253/233/4 195/234/4 189/226/4
f 189/226/4 195/234/4 196/235/4 190/227/4
f 190/227/4 196/235/4 197/236/4 191/228/4
f 191/228/4 197/236/4 198/237/4 192/229/4
f 192/229/4 198/237/4 199/238/4 193/230/4
f 193/230/4 199/238/4 200/239/4 194/231/4
f 194/231/4 200/239/4 254/240/4 252/232/4
f 253/233/4 255/241/4 201/242/4 195/234/4
f 195/234/4 201/242/4 202/243/4 196/235/4
f 196/235/4 202/243/4 203/244/4 197/236/4
f 197/236/4 203/244/4 204/245/4 198/237/4
f 198/237/4 204/245/4 205/246/4 199/238/4
f 199/238/4 205/246/4 206/247/4 200/239/4
f 200/239/4 206/247/4 256/248/4 254/240/4
f 255/241/4 207/249/4 239/250/4 201/242/4
f 201/242/4 239/250/4 240/251/4 202/243/4
f 202/243/4 240/251/4 241/252/4 203/244/4
f 203/244/4 241/252/4 242/253/4 204/245/4
f 204/245/4 242/253/4 243/254/4 205/246/4
f 205/246/4 243/254/4 244/255/4 206/247/4
f 206/247/4 244/255/4 208/256/4 256/248/4
o Cube.094
v 20.094685 3.945358 -39.335449
v 20.096498 -3.051764 -39.341377
v 19.579620 3.617388 -39.495560
v 19.580105 2.349176 -39.496574
v 19.580601 1.080984 -39.497585
v 19.581097 -0.187207 -39.498596
v 19.581591 -1.455396 -39.499611
v 19.582075 -2.723563 -39.500626
v 18.449045 3.617431 -39.846275
v 18.449497 2.349221 -39.847305
v 18.449955 1.081020 -39.848335
v 18.450409 -0.187181 -39.849365
v 18.450865 -1.455381 -39.850391
v 18.451313 -2.723571 -39.851421
v 17.318485 3.617483 -40.196991
v 17.318893 2.349270 -40.198036
v 17.319302 1.081059 -40.199085
v 17.319714 -0.187151 -40.200134
v 17.320122 -1.455363 -40.201180
v 17.320526 -2.723571 -40.202229
v 16.187929 3.617536 -40.547703
v 16.188290 2.349320 -40.548771
v 16.188652 1.081099 -40.549835
v 16.189014 -0.187122 -40.550903
v 16.189377 -1.455344 -40.551971
v 16.189735 -2.723568 -40.553036
v 15.057372 3.617586 -40.898411
v 15.057683 2.349370 -40.899498
v 15.058001 1.081138 -40.900581
v 15.058316 -0.187094 -40.901665
v 15.058633 -1.455324 -40.902748
v 15.058946 -2.723564 -40.903835
v 13.926843 3.617623 -41.249107
v 13.927093 2.349413 -41.250221
v 13.927356 1.081172 -41.251328
v 13.927622 -0.187070 -41.252430
v 13.927886 -1.455309 -41.253532
v 13.928140 -2.723572 -41.254642
v 13.411755 3.945204 -41.408630
v 13.413561 -3.051909 -41.414555
v -13.691928 3.945210 -41.408627
v -13.693736 -3.051921 -41.414551
v -14.207023 3.617625 -41.249111
v -14.207276 2.349409 -41.250217
v -14.207541 1.081172 -41.251320
v -14.207807 -0.187067 -41.252426
v -14.208070 -1.455310 -41.253532
v -14.208322 -2.723580 -41.254642
v -15.337554 3.617585 -40.898411
v -15.337867 2.349365 -40.899494
v -15.338185 1.081136 -40.900574
v -15.338504 -0.187092 -40.901661
v -15.338820 -1.455325 -40.902748
v -15.339133 -2.723571 -40.903831
v -16.468109 3.617535 -40.547703
v -16.468468 2.349316 -40.548767
v -16.468834 1.081097 -40.549828
v -16.469196 -0.187122 -40.550896
v -16.469559 -1.455345 -40.551964
v -16.469921 -2.723572 -40.553024
v -17.598671 3.617484 -40.196991
v -17.599075 2.349268 -40.198040
v -17.599480 1.081057 -40.199081
v -17.599892 -0.187152 -40.200130
v -17.600304 -1.455366 -40.201180
v -17.600712 -2.723577 -40.202221
v -18.729229 3.617433 -39.846279
v -18.729683 2.349220 -39.847309
v -18.730137 1.081019 -39.848335
v -18.730591 -0.187182 -39.849365
v -18.731049 -1.455385 -39.850391
v -18.731499 -2.723577 -39.851418
v -19.859806 3.617392 -39.495560
v -19.860294 2.349176 -39.496574
v -19.860790 1.080983 -39.497585
v -19.861286 -0.187209 -39.498596
v -19.861782 -1.455400 -39.499607
v -19.862267 -2.723570 -39.500622
v -20.374874 3.945366 -39.335445
v -20.376690 -3.051768 -39.341366
v 20.754677 3.079123 -39.131512
v 21.214062 2.080889 -38.989925
v 21.449814 1.000733 -38.917793
v 21.450108 -0.107203 -38.918732
v 21.214924 -1.187362 -38.992687
v 20.756046 -2.185558 -39.135971
v 12.752205 3.079007 -41.614037
v 12.293323 2.080817 -41.757317
v 12.058135 1.000657 -41.831280
v 12.058430 -0.107280 -41.832214
v 12.294184 -1.187438 -41.760082
v 12.753568 -2.185673 -41.618496
v 19.267151 4.636128 -39.591530
v 19.269382 -3.742567 -39.598606
v 18.313606 5.116819 -39.886890
v 18.316145 -4.223309 -39.894764
v 17.281879 5.363340 -40.206726
v 17.284557 -4.469871 -40.215012
v 16.223690 5.363323 -40.534996
v 16.226364 -4.469890 -40.543285
v 15.192101 5.116761 -40.855240
v 15.194637 -4.223370 -40.863117
v 14.238867 4.636013 -41.151402
v 14.241093 -3.742680 -41.158482
v -13.032382 3.079007 -41.614033
v -12.573503 2.080810 -41.757313
v -12.338317 1.000657 -41.831272
v -12.338607 -0.107278 -41.832207
v -12.574359 -1.187439 -41.760075
v -13.033742 -2.185680 -41.618492
v -21.034863 3.079129 -39.131508
v -21.494247 2.080891 -38.989922
v -21.730003 1.000733 -38.917786
v -21.730297 -0.107204 -38.918720
v -21.495113 -1.187364 -38.992680
v -21.036236 -2.185563 -39.135956
v -14.519042 4.636018 -41.151398
v -14.521272 -3.742690 -41.158470
v -15.472283 5.116761 -40.855244
v -15.474820 -4.223378 -40.863106
v -16.503872 5.363323 -40.534996
v -16.506546 -4.469894 -40.543274
v -17.562061 5.363343 -40.206718
v -17.564739 -4.469876 -40.215004
v -18.593788 5.116825 -39.886887
v -18.596329 -4.223316 -39.894753
v -19.547337 4.636134 -39.591522
v -19.549572 -3.742575 -39.598595
vn -0.2963 -0.0009 0.9551
vn -0.2963 -0.0008 0.9551
vn 0.2963 -0.0009 0.9551
vn 0.2963 -0.0008 0.9551
vt 0.571228 0.460917
vt 0.571848 0.458357
vt 0.551320 0.458358
vt 0.550877 0.460917
vt 0.530792 0.458358
vt 0.530526 0.460918
vt 0.510264 0.458358
vt 0.510176 0.460918
vt 0.489736 0.458358
vt 0.489825 0.460918
vt 0.469208 0.458358
vt 0.469474 0.460918
vt 0.448680 0.458358
vt 0.449123 0.460918
vt 0.428152 0.458358
vt 0.428772 0.460918
vt 0.572468 0.455798
vt 0.551763 0.455798
vt 0.531058 0.455798
vt 0.510353 0.455798
vt 0.489647 0.455798
vt 0.468942 0.455798
vt 0.448237 0.455798
vt 0.427532 0.455798
vt 0.573089 0.453238
vt 0.552206 0.453238
vt 0.531324 0.453238
vt 0.510441 0.453238
vt 0.489559 0.453238
vt 0.468676 0.453238
vt 0.447794 0.453238
vt 0.426911 0.453238
vt 0.573709 0.450678
vt 0.552649 0.450678
vt 0.531590 0.450678
vt 0.510530 0.450678
vt 0.489470 0.450678
vt 0.468410 0.450678
vt 0.447351 0.450678
vt 0.426291 0.450678
vt 0.574329 0.448118
vt 0.553092 0.448118
vt 0.531855 0.448118
vt 0.510618 0.448118
vt 0.489382 0.448118
vt 0.468145 0.448118
vt 0.446908 0.448118
vt 0.425671 0.448118
vt 0.574949 0.445558
vt 0.553535 0.445558
vt 0.532121 0.445558
vt 0.510707 0.445558
vt 0.489293 0.445558
vt 0.467879 0.445558
vt 0.446465 0.445558
vt 0.425051 0.445558
vt 0.575569 0.442998
vt 0.553978 0.442998
vt 0.532387 0.442998
vt 0.510795 0.442998
vt 0.489204 0.442998
vt 0.467613 0.442998
vt 0.446022 0.442998
vt 0.424430 0.442998
vt 0.561049 0.337497
vt 0.561048 0.334174
vt 0.543606 0.334174
vt 0.543606 0.337497
vt 0.526164 0.334174
vt 0.526164 0.337497
vt 0.508721 0.334174
vt 0.508721 0.337497
vt 0.491279 0.334175
vt 0.491279 0.337498
vt 0.473837 0.334175
vt 0.473836 0.337498
vt 0.456394 0.334175
vt 0.456394 0.337498
vt 0.438952 0.334175
vt 0.438952 0.337498
vt 0.561048 0.330851
vt 0.543606 0.330851
vt 0.526164 0.330851
vt 0.508721 0.330852
vt 0.491279 0.330852
vt 0.473837 0.330852
vt 0.456394 0.330852
vt 0.438952 0.330852
vt 0.561048 0.327529
vt 0.543606 0.327529
vt 0.526164 0.327529
vt 0.508721 0.327529
vt 0.491279 0.327529
vt 0.473837 0.327529
vt 0.456394 0.327529
vt 0.438952 0.327529
vt 0.561048 0.324206
vt 0.543606 0.324206
vt 0.526163 0.324206
vt 0.508721 0.324206
vt 0.491279 0.324206
vt 0.473837 0.324206
vt 0.456394 0.324206
vt 0.438952 0.324206
vt 0.561048 0.320883
vt 0.543606 0.320883
vt 0.526163 0.320883
vt 0.508721 0.320883
vt 0.491279 0.320883
vt 0.473837 0.320883
vt 0.456395 0.320883
vt 0.438952 0.320883
vt 0.561048 0.317560
vt 0.543606 0.317560
vt 0.526163 0.317560
vt 0.508721 0.317560
vt 0.491279 0.317560
vt 0.473837 0.317560
vt 0.456395 0.317560
vt 0.438952 0.317560
vt 0.561048 0.314238
vt 0.543605 0.314237
vt 0.526163 0.314237
vt 0.508721 0.314237
vt 0.491279 0.314237
vt 0.473837 0.314237
vt 0.456395 0.314237
vt 0.438953 0.314237
s 0
usemtl Material.004
f 257/257/5 349/258/5 259/259/5 337/260/5
f 337/260/5 259/259/5 260/261/5 338/262/5
f 338/262/5 260/261/5 261/263/5 339/264/5
f 339/264/5 261/263/5 262/265/5 340/266/5
f 340/266/5 262/265/5 263/267/5 341/268/5
f 341/268/5 263/267/5 264/269/5 342/270/5
f 342/270/5 264/269/5 350/271/5 258/272/5
f 349/258/5 351/273/5 265/274/5 259/259/5
f 259/259/5 265/274/5 266/275/5 260/261/5
f 260/261/5 266/275/5 267/276/5 261/263/5
f 261/263/5 267/276/5 268/277/5 262/265/5
f 262/265/5 268/277/5 269/278/5 263/267/5
f 263/267/5 269/278/5 270/279/5 264/269/5
f 264/269/5 270/279/5 352/280/5 350/271/5
f 351/273/5 353/281/5 271/282/5 265/274/5
f 265/274/5 271/282/5 272/283/5 266/275/5
f 266/275/5 272/283/5 273/284/5 267/276/5
f 267/276/5 273/284/5 274/285/5 268/277/5
f 268/277/5 274/285/5 275/286/5 269/278/5
f 269/278/5 275/286/5 276/287/5 270/279/5
f 270/279/5 276/287/5 354/288/5 352/280/5
f 353/281/5 355/289/5 277/290/5 271/282/5
f 271/282/5 277/290/5 278/291/5 272/283/5
f 272/283/5 278/291/5 279/292/5 273/284/5
f 273/284/5 279/292/5 280/293/5 274/285/5
f 274/285/5 280/293/5 281/294/5 275/286/5
f 275/286/5 281/294/5 282/295/5 276/287/5
f 276/287/5 282/295/5 356/296/5 354/288/5
f 355/289/5 357/297/5 283/298/5 277/290/5
f 277/290/5 283/298/5 284/299/5 278/291/5
f 278/291/5 284/299/5 285/300/5 279/292/5
f 279/292/5 285/300/5 286/301/5 280/293/5
f 280/293/5 286/301/5 287/302/5 281/294/5
f 281/294/5 287/302/5 288/303/5 282/295/5
f 282/295/5 288/303/5 358/304/5 356/296/5
f 357/297/5 359/305/5 289/306/5 283/298/5
f 283/298/5 289/306/5 290/307/5 284/299/5
f 284/299/5 290/307/5 291/308/5 285/300/5
f 285/300/5 291/308/5 292/309/5 286/301/5
f 286/301/5 292/309/5 293/310/5 287/302/5
f 287/302/5 293/310/5 294/311/5 288/303/5
f 288/303/5 294/311/5 360/312/5 358/304/5
f 359/305/6 295/313/6 343/314/6 289/306/6
f 289/306/5 343/314/5 344/315/5 290/307/5
f 290/307/5 344/315/5 345/316/5 291/308/5
f 291/308/5 345/316/5 346/317/5 292/309/5
f 292/309/5 346/317/5 347/318/5 293/310/5
f 293/310/5 347/318/5 348/319/5 294/311/5
f 294/311/5 348/319/5 296/320/5 360/312/5
f 297/321/7 373/322/7 299/323/7 361/324/7
f 361/324/7 299/323/7 300/325/7 362/326/7
f 362/326/7 300/325/7 301/327/7 363/328/7
f 363/328/7 301/327/7 302/329/7 364/330/7
f 364/330/7 302/329/7 303/331/7 365/332/7
f 365/332/7 303/331/7 304/333/7 366/334/7
f 366/334/8 304/333/8 374/335/8 298/336/8
f 373/322/7 375/337/7 305/338/7 299/323/7
f 299/323/7 305/338/7 306/339/7 300/325/7
f 300/325/7 306/339/7 307/340/7 301/327/7
f 301/327/7 307/340/7 308/341/7 302/329/7
f 302/329/7 308/341/7 309/342/7 303/331/7
f 303/331/7 309/342/7 310/343/7 304/333/7
f 304/333/7 310/343/7 376/344/7 374/335/7
f 375/337/7 377/345/7 311/346/7 305/338/7
f 305/338/7 311/346/7 312/347/7 306/339/7
f 306/339/7 312/347/7 313/348/7 307/340/7
f 307/340/7 313/348/7 314/349/7 308/341/7
f 308/341/7 314/349/7 315/350/7 309/342/7
f 309/342/7 315/350/7 316/351/7 310/343/7
f 310/343/7 316/351/7 378/352/7 376/344/7
f 377/345/7 379/353/7 317/354/7 311/346/7
f 311/346/7 317/354/7 318/355/7 312/347/7
f 312/347/7 318/355/7 319/356/7 313/348/7
f 313/348/7 319/356/7 320/357/7 314/349/7
f 314/349/7 320/357/7 321/358/7 315/350/7
f 315/350/7 321/358/7 322/359/7 316/351/7
f 316/351/7 322/359/7 380/360/7 378/352/7
f 379/353/7 381/361/7 323/362/7 317/354/7
f 317/354/7 323/362/7 324/363/7 318/355/7
f 318/355/7 324/363/7 325/364/7 319/356/7
f 319/356/7 325/364/7 326/365/7 320/357/7
f 320/357/7 326/365/7 327/366/7 321/358/7
f 321/358/7 327/366/7 328/367/7 322/359/7
f 322/359/7 328/367/7 382/368/7 380/360/7
f 381/361/7 383/369/7 329/370/7 323/362/7
f 323/362/7 329/370/7 330/371/7 324/363/7
f 324/363/7 330/371/7 331/372/7 325/364/7
f 325/364/7 331/372/7 332/373/7 326/365/7
f 326/365/7 332/373/7 333/374/7 327/366/7
f 327/366/7 333/374/7 334/375/7 328/367/7
f 328/367/7 334/375/7 384/376/7 382/368/7
f 383/369/7 335/377/7 367/378/7 329/370/7
f 329/370/7 367/378/7 368/379/7 330/371/7
f 330/371/7 368/379/7 369/380/7 331/372/7
f 331/372/7 369/380/7 370/381/7 332/373/7
f 332/373/7 370/381/7 371/382/7 333/374/7
f 333/374/7 371/382/7 372/383/7 334/375/7
f 334/375/7 372/383/7 336/384/7 384/376/7
