# Blender 5.2.1 LTS
# www.blender.org
mtllib PipeHolders.mtl
o Cube.098
v -8.108993 18.366024 39.445366
v -7.880677 21.213049 37.943455
v -39.585461 18.366024 7.968896
v -38.083549 21.213049 7.740584
v -8.108989 18.366024 -39.445366
v -7.880673 21.213049 -37.943455
v -39.585461 18.366024 -7.968900
v -38.083549 21.213049 -7.740587
v 7.828806 18.366024 -39.445366
v 7.600494 21.213049 -37.943455
v 7.828803 18.366024 39.445366
v 7.600491 21.213049 37.943455
v -8.007958 18.049580 35.792664
v -8.108993 17.454334 37.717167
v -8.058475 17.508684 36.293766
v -8.095456 17.290810 36.998184
v -37.857262 17.454334 7.968896
v -35.932758 18.049578 7.867863
v -37.138279 17.290810 7.955360
v -36.433861 17.508686 7.918379
v -7.880677 20.301361 36.215256
v -7.981711 18.376858 35.620014
v -7.894214 19.800253 35.674358
v -7.931193 19.095837 35.456486
v -35.760109 18.376858 7.841617
v -36.355350 20.301359 7.740584
v -35.596581 19.095837 7.791101
v -35.814453 19.800255 7.754119
v -8.108989 17.454334 -37.717167
v -8.007955 18.049578 -35.792664
v -8.095452 17.290810 -36.998184
v -8.058471 17.508686 -36.293766
v -7.981708 18.376858 -35.620014
v -7.880673 20.301359 -36.215256
v -7.931190 19.095837 -35.456486
v -7.894210 19.800255 -35.674358
v -35.932758 18.049580 -7.867866
v -37.857262 17.454334 -7.968900
v -36.433861 17.508684 -7.918383
v -37.138279 17.290810 -7.955364
v 7.727773 18.049580 -35.792664
v 7.828806 17.454334 -37.717167
v 7.778289 17.508684 -36.293766
v 7.815270 17.290810 -36.998184
v -36.355350 20.301361 -7.740587
v -35.760109 18.376858 -7.841621
v -35.814453 19.800253 -7.754123
v -35.596581 19.095837 -7.791104
v 7.828803 17.454334 37.717167
v 7.727769 18.049578 35.792664
v 7.815267 17.290810 36.998184
v 7.778286 17.508686 36.293766
v 7.600494 20.301361 -36.215256
v 7.701527 18.376858 -35.620014
v 7.614030 19.800253 -35.674358
v 7.651011 19.095837 -35.456486
v 7.701524 18.376858 35.620014
v 7.600491 20.301359 36.215256
v 7.651007 19.095837 35.456486
v 7.614026 19.800255 35.674358
vn 0.6796 0.7336 -0.0000
vn 0.9553 0.2955 -0.0000
vn 0.9751 -0.2218 -0.0000
vn 0.7336 -0.6796 -0.0000
vn 0.2955 -0.9553 -0.0000
vn -0.2218 -0.9751 -0.0000
vn -0.0000 0.7336 -0.6796
vn -0.0000 0.2955 -0.9553
vn -0.0000 -0.2218 -0.9751
vn -0.0000 -0.6796 -0.7336
vn -0.0000 -0.9553 -0.2955
vn -0.0000 -0.9751 0.2218
vn -0.0000 -0.6796 0.7336
vn -0.0000 -0.9553 0.2955
vn -0.0000 -0.9751 -0.2218
vn -0.0000 -0.2218 0.9751
vn -0.0000 0.2955 0.9553
vn -0.0000 0.7336 0.6796
vn -0.9975 0.0626 -0.0330
vn -0.0000 -0.4666 -0.8845
vn -0.0000 -0.8845 0.4666
vn 0.0330 0.0626 0.9975
vn 0.8845 -0.4666 -0.0000
vn -0.4666 -0.8845 -0.0000
vn -0.0000 0.8845 -0.4666
vn 0.4666 0.8845 -0.0000
vn -0.9975 0.0626 0.0330
vn -0.0000 -0.4666 0.8845
vn -0.0000 -0.8845 -0.4666
vn -0.0000 0.8845 0.4666
vn 0.0330 0.0626 -0.9975
vn 0.9975 0.0626 0.0330
vn 0.9975 0.0626 -0.0330
vt 0.861815 0.602057
vt 0.861815 0.647943
vt 0.861883 0.647979
vt 0.861882 0.602021
vt 0.862574 0.648044
vt 0.862574 0.601956
vt 0.863333 0.648144
vt 0.863333 0.601855
vt 0.863727 0.601803
vt 0.863728 0.648197
vt 0.864487 0.648297
vt 0.864487 0.601703
vt 0.865178 0.648362
vt 0.865178 0.601638
vt 0.865246 0.648398
vt 0.865246 0.601602
vt 0.765296 0.744631
vt 0.675508 0.789445
vt 0.675366 0.789614
vt 0.765398 0.744631
vt 0.674504 0.791044
vt 0.765851 0.744925
vt 0.673500 0.792642
vt 0.766406 0.745220
vt 0.766695 0.745373
vt 0.672978 0.793473
vt 0.671974 0.795072
vt 0.767250 0.745668
vt 0.671114 0.796499
vt 0.767700 0.745965
vt 0.670969 0.796671
vt 0.767805 0.745962
vt 0.672978 0.456527
vt 0.766695 0.504627
vt 0.767250 0.504332
vt 0.671974 0.454928
vt 0.767701 0.504035
vt 0.671114 0.453501
vt 0.767805 0.504037
vt 0.670969 0.453329
vt 0.766406 0.504780
vt 0.673500 0.457358
vt 0.674504 0.458957
vt 0.765851 0.505075
vt 0.675366 0.460386
vt 0.765398 0.505369
vt 0.675508 0.460555
vt 0.765296 0.505369
vt 0.765296 0.744630
vt 0.670969 0.796671
vt 0.861815 0.647943
vt 0.865246 0.648398
vt 0.861815 0.602057
vt 0.765296 0.505369
vt 0.670969 0.453329
s 0
f 45/1/1 26/2/1 28/3/1 47/4/1
f 47/4/2 28/3/2 27/5/2 48/6/2
f 48/6/3 27/5/3 25/7/3 46/8/3
f 37/9/4 18/10/4 20/11/4 39/12/4
f 39/12/5 20/11/5 19/13/5 40/14/5
f 40/14/6 19/13/6 17/15/6 38/16/6
f 21/17/7 58/18/7 60/19/7 23/20/7
f 23/20/8 60/19/8 59/21/8 24/22/8
f 24/22/9 59/21/9 57/23/9 22/24/9
f 13/25/10 50/26/10 52/27/10 15/28/10
f 15/28/11 52/27/11 51/29/11 16/30/11
f 16/30/12 51/29/12 49/31/12 14/32/12
f 41/33/13 30/34/13 32/35/13 43/36/13
f 43/36/14 32/35/14 31/37/14 44/38/14
f 44/38/15 31/37/15 29/39/15 42/40/15
f 33/41/16 54/42/16 56/43/16 35/44/16
f 35/44/17 56/43/17 55/45/17 36/46/17
f 36/46/18 55/45/18 53/47/18 34/48/18
f 21/17/19 23/20/19 24/22/19 22/24/19 13/25/19 15/28/19 16/30/19 14/32/19 1/32/19 2/49/19
f 57/23/20 50/26/20 13/25/20 22/24/20
f 14/32/21 49/31/21 11/50/21 1/32/21
f 17/15/22 19/13/22 20/11/22 18/10/22 25/7/22 27/5/22 28/3/22 26/2/22 4/51/22 3/52/22
f 25/7/23 18/10/23 37/9/23 46/8/23
f 38/16/24 17/15/24 3/52/24 7/16/24
f 58/18/25 21/17/25 2/49/25 12/18/25
f 26/2/26 45/1/26 8/53/26 4/51/26
f 29/39/27 31/37/27 32/35/27 30/34/27 33/41/27 35/44/27 36/46/27 34/48/27 6/54/27 5/39/27
f 41/33/28 54/42/28 33/41/28 30/34/28
f 42/40/29 29/39/29 5/39/29 9/55/29
f 34/48/30 53/47/30 10/47/30 6/54/30
f 45/1/31 47/4/31 48/6/31 46/8/31 37/9/31 39/12/31 40/14/31 38/16/31 7/16/31 8/53/31
f 53/47/32 55/45/32 56/43/32 54/42/32 41/33/32 43/36/32 44/38/32 42/40/32 9/55/32 10/47/32
f 49/31/33 51/29/33 52/27/33 50/26/33 57/23/33 59/21/33 60/19/33 58/18/33 12/18/33 11/50/33
