# Blender 5.2.1 LTS
# www.blender.org
mtllib Floor.mtl
o Cube.075
v 40.587978 -3.061630 17.046150
v 43.227451 -3.061630 8.565122
v 43.227451 -3.061630 -0.000002
v 39.268242 -3.061630 21.286667
v 43.227451 -3.061630 -8.565125
v 40.587978 -3.061630 -17.046154
v 38.608376 -3.061630 23.406925
v 39.268242 -3.061630 -21.286667
v 38.608376 -3.061630 -23.406927
v 70.734619 -3.061630 17.046150
v 70.734619 -3.061630 8.565122
v 70.734619 -3.061630 -0.000002
v 70.734619 -3.061630 21.286667
v 70.734619 -3.061630 -8.565125
v 70.734619 -3.061630 -17.046154
v 70.734619 -3.061630 23.406925
v 70.734619 -3.061630 -21.286667
v 70.734619 -3.061630 -23.406927
v 40.587978 -4.061630 17.046150
v 43.227451 -4.061630 8.565122
v 43.227451 -4.061630 -0.000002
v 39.268242 -4.061630 21.286667
v 43.227451 -4.061630 -8.565125
v 40.587978 -4.061630 -17.046154
v 38.608376 -4.061630 23.406925
v 39.268242 -4.061630 -21.286667
v 38.608376 -4.061630 -23.406927
v 70.734619 -4.061630 17.046150
v 70.734619 -4.061630 8.565122
v 70.734619 -4.061630 -0.000002
v 70.734619 -4.061630 21.286667
v 70.734619 -4.061630 -8.565125
v 70.734619 -4.061630 -17.046154
v 70.734619 -4.061630 23.406925
v 70.734619 -4.061630 -21.286667
v 70.734619 -4.061630 -23.406927
vn -0.0000 1.0000 -0.0000
vn -0.0000 -1.0000 -0.0000
vn -1.0000 -0.0000 -0.0000
vn 0.9548 -0.0000 -0.2972
vn -0.9548 -0.0000 0.2972
vn 0.9548 -0.0000 0.2972
vn 1.0000 -0.0000 -0.0000
vn -0.0000 -0.0000 -1.0000
vt 0.371196 0.563645
vt 0.370562 0.557533
vt 0.371196 0.686355
vt 0.370562 0.692467
vt 0.375000 0.600312
vt 0.372464 0.575867
vt 0.375000 0.649688
vt 0.375000 0.625000
vt 0.372464 0.674133
s 0
f 8/1/1 17/1/1 18/2/1 9/2/1
f 4/3/2 13/3/2 16/4/2 7/4/2
f 5/5/1 14/5/1 15/6/1 6/6/1
f 2/7/1 11/7/1 12/8/1 3/8/1
f 8/1/2 17/1/2 15/6/2 6/6/2
f 5/5/2 14/5/2 12/8/2 3/8/2
f 1/9/2 10/9/2 13/3/2 4/3/2
f 2/7/2 11/7/2 10/9/2 1/9/2
f 26/1/2 27/2/2 36/2/2 35/1/2
f 22/3/1 25/4/1 34/4/1 31/3/1
f 23/5/2 24/6/2 33/6/2 32/5/2
f 20/7/2 21/8/2 30/8/2 29/7/2
f 26/1/1 24/6/1 33/6/1 35/1/1
f 23/5/1 21/8/1 30/8/1 32/5/1
f 19/9/1 22/3/1 31/3/1 28/9/1
f 20/7/1 19/9/1 28/9/1 29/7/1
f 16/4/3 13/3/3 31/3/3 34/4/3
f 8/1/4 6/6/4 24/6/4 26/1/4
f 15/6/3 17/1/3 35/1/3 33/6/3
f 8/1/5 9/2/5 27/2/5 26/1/5
f 2/7/6 1/9/6 19/9/6 20/7/6
f 18/2/7 17/1/7 35/1/7 36/2/7
f 10/9/3 11/7/3 29/7/3 28/9/3
f 2/7/3 3/8/3 21/8/3 20/7/3
f 12/8/7 11/7/7 29/7/7 30/8/7
f 1/9/6 4/3/6 22/3/6 19/9/6
f 9/2/8 18/2/8 36/2/8 27/2/8
f 13/3/3 10/9/3 28/9/3 31/3/3
f 5/5/5 6/6/5 24/6/5 23/5/5
f 15/6/7 14/5/7 32/5/7 33/6/7
f 5/5/7 3/8/7 21/8/7 23/5/7
f 7/4/8 16/4/8 34/4/8 25/4/8
f 12/8/3 14/5/3 32/5/3 30/8/3
f 4/3/6 7/4/6 25/4/6 22/3/6
