# Blender 5.2.1 LTS
# www.blender.org
mtllib Screens.mtl
o Cube.080
v 45.269855 15.647360 -8.702021
v 45.169861 15.647360 8.702025
v 46.642574 15.647360 17.054207
v 46.742573 15.647360 -17.054205
v 45.234619 15.647360 0.000002
v 47.378933 15.647360 21.230297
v 47.478931 15.647360 -21.230299
v 47.747112 15.647360 23.318346
v 47.847107 15.647360 -23.318346
v 42.377335 15.547360 -8.435891
v 42.377335 15.547360 8.435895
v 39.765945 15.547360 16.790319
v 39.765945 15.547360 -16.790316
v 42.366528 15.547360 0.000002
v 38.446209 15.547360 21.030832
v 38.446209 15.547360 -21.030832
v 37.760498 15.547360 23.143049
v 37.760498 15.547360 -23.143047
v 44.242573 6.647360 -17.054205
v 42.769855 6.647360 -8.702021
v 42.734619 6.647360 0.000002
v 42.669861 6.647360 8.702025
v 44.142574 6.647360 17.054207
v 44.978931 6.647360 -21.230299
v 44.878933 6.647360 21.230297
v 45.247112 6.647360 23.318346
v 45.347107 6.647360 -23.318346
v 39.765945 6.547360 -16.790316
v 42.377335 6.547360 -8.435891
v 42.366528 6.547360 0.000002
v 42.377335 6.547360 8.435895
v 39.765945 6.547360 16.790319
v 38.446209 6.547360 -21.030832
v 38.446209 6.547360 21.030832
v 37.760498 6.547360 23.143049
v 37.760498 6.547360 -23.143047
vn -0.9548 -0.0000 -0.2972
vn 0.9499 -0.2639 -0.1675
vn 0.9499 -0.2639 0.1675
vn -0.9545 -0.0000 -0.2983
vn 0.0407 -0.9992 -0.0028
vn 0.2545 -0.9671 0.0007
vn 0.0425 -0.9991 0.0029
vn 0.0181 -0.9998 -0.0013
vn 0.2894 -0.9572 0.0009
vn 0.0143 -0.9999 0.0011
vn 0.0184 -0.9998 0.0013
vn 0.0141 -0.9999 -0.0011
vn -1.0000 -0.0000 -0.0013
vn -1.0000 -0.0000 0.0013
vn -0.9548 -0.0000 0.2972
vn 0.9635 -0.2676 0.0039
vn -0.9511 -0.0000 0.3088
vn 0.9635 -0.2676 0.0072
vn -0.9511 -0.0000 -0.3088
vn -0.9545 -0.0000 0.2983
vt 0.628804 0.686355
vt 0.627536 0.674133
vt 0.625000 0.649688
vt 0.629438 0.692467
vt 0.627536 0.575867
vt 0.625000 0.600312
vt 0.628804 0.563645
vt 0.625000 0.625000
vt 0.629438 0.557533
s 0
f 15/1/1 12/2/1 32/2/1 34/1/1
f 2/3/2 3/2/2 23/2/2 22/3/2
f 6/1/2 8/4/2 26/4/2 25/1/2
f 4/5/3 1/6/3 20/6/3 19/5/3
f 3/2/2 6/1/2 25/1/2 23/2/2
f 7/7/3 4/5/3 19/5/3 24/7/3
f 12/2/4 11/3/4 31/3/4 32/2/4
f 19/5/5 20/6/5 29/6/5 28/5/5
f 20/6/6 21/8/6 30/8/6 29/6/6
f 22/3/7 23/2/7 32/2/7 31/3/7
f 24/7/8 19/5/8 28/5/8 33/7/8
f 21/8/9 22/3/9 31/3/9 30/8/9
f 25/1/10 26/4/10 35/4/10 34/1/10
f 23/2/11 25/1/11 34/1/11 32/2/11
f 27/9/12 24/7/12 33/7/12 36/9/12
f 14/8/13 10/6/13 29/6/13 30/8/13
f 11/3/14 14/8/14 30/8/14 31/3/14
f 9/9/3 7/7/3 24/7/3 27/9/3
f 13/5/15 16/7/15 33/7/15 28/5/15
f 1/6/16 5/8/16 21/8/16 20/6/16
f 16/7/17 18/9/17 36/9/17 33/7/17
f 5/8/18 2/3/18 22/3/18 21/8/18
f 17/4/19 15/1/19 34/1/19 35/4/19
f 10/6/20 13/5/20 28/5/20 29/6/20
