# Blender 5.2.1 LTS
# www.blender.org
mtllib Walls.mtl
o Cube.076
v 37.948505 16.484444 -25.527180
v 37.948505 -4.069072 -25.527182
v 38.608376 -4.061630 -23.406927
v 38.608376 16.547359 -23.406925
v 70.733269 -4.061630 -23.404091
v 70.733269 -4.069072 -25.524345
v 70.733269 16.484444 -25.524343
v 70.733269 16.547359 -23.404089
vn 0.0001 -0.0000 -1.0000
vn 1.0000 -0.0000 -0.0000
vn -0.0000 -1.0000 0.0035
vn -0.0001 -0.0000 1.0000
vn -0.0000 0.9996 -0.0297
vt 0.369928 0.551422
vt 0.630072 0.551422
vt 0.629438 0.557533
vt 0.370562 0.557533
s 0
f 2/1/1 1/2/1 7/2/1 6/1/1
f 8/3/2 5/4/2 6/1/2 7/2/2
f 3/4/3 2/1/3 6/1/3 5/4/3
f 4/3/4 3/4/4 5/4/4 8/3/4
f 1/2/5 4/3/5 8/3/5 7/2/5
o Cube.078
v 37.948505 16.484444 25.527182
v 37.948505 -4.069072 25.527180
v 38.608376 16.547359 23.406927
v 38.608376 -4.061630 23.406925
v 70.733269 -4.061630 23.404089
v 70.733269 16.547359 23.404091
v 70.733269 16.484444 25.524345
v 70.733269 -4.069072 25.524343
vn -0.0001 -0.0000 -1.0000
vn -0.0000 -1.0000 -0.0035
vn -0.0000 0.9996 0.0297
vn 0.0001 -0.0000 1.0000
vn 1.0000 -0.0000 -0.0000
vt 0.370562 0.692467
vt 0.629438 0.692467
vt 0.369928 0.698578
vt 0.630072 0.698578
s 0
f 12/5/6 11/6/6 14/6/6 13/5/6
f 10/7/7 12/5/7 13/5/7 16/7/7
f 11/6/8 9/8/8 15/8/8 14/6/8
f 9/8/9 10/7/9 16/7/9 15/8/9
f 15/8/10 16/7/10 13/5/10 14/6/10
