# Blender 5.2.1 LTS
# www.blender.org
mtllib Body.mtl
o Cube.108
v 0.110000 -0.076715 0.440000
v 0.110000 -0.076715 -0.440000
v -0.110000 -0.076715 -0.440000
v -0.110000 -0.076715 0.440000
v 0.110000 0.011285 0.440000
v 0.110000 0.011285 -0.440000
v -0.110000 0.011285 0.440000
v -0.110000 0.011285 -0.440000
v -0.028333 0.011285 -0.138333
v 0.028333 0.011285 -0.138333
v -0.028333 0.011285 0.138333
v 0.028333 0.011285 0.138333
v 0.085000 0.011285 -0.138333
v 0.085000 0.011285 -0.415000
v 0.023838 0.008252 0.410505
v 0.085000 0.011285 0.415000
v -0.023838 0.008252 -0.410505
v -0.085000 0.011285 -0.415000
v -0.085000 0.011285 -0.138333
v 0.085000 0.011285 0.138333
v -0.085000 0.011285 0.415000
v -0.023838 0.008252 0.410505
v 0.023838 0.008252 -0.410505
v -0.085000 0.011285 0.138333
v -0.028333 0.011285 0.415000
v 0.028333 0.011285 0.415000
v 0.028333 0.011285 -0.415000
v -0.028333 0.011285 -0.415000
v -0.023838 0.008252 -0.138333
v 0.023838 0.008252 -0.138333
v -0.023838 0.008252 0.138333
v 0.023838 0.008252 0.138333
v -0.080611 0.002840 -0.410611
v -0.073305 -0.001597 -0.408305
v -0.077516 -0.000297 -0.408980
v -0.073305 -0.001597 0.408305
v -0.080611 0.002840 0.410611
v -0.077516 -0.000297 0.408980
v -0.032723 0.002840 0.410611
v -0.040029 -0.001597 0.408305
v -0.035818 -0.000297 0.408980
v -0.040029 -0.001597 -0.408305
v -0.032723 0.002840 -0.410611
v -0.035818 -0.000297 -0.408980
v -0.073305 -0.001597 0.138333
v -0.080611 0.002840 0.138333
v -0.077516 -0.000297 0.138333
v -0.080611 0.002840 -0.138333
v -0.073305 -0.001597 -0.138333
v -0.077516 -0.000297 -0.138333
v -0.040029 -0.001597 -0.138333
v -0.032723 0.002840 -0.138333
v -0.035818 -0.000297 -0.138333
v -0.040029 -0.001597 0.138333
v -0.032723 0.002840 0.138333
v -0.035818 -0.000297 0.138333
v 0.080611 0.002840 0.410611
v 0.073305 -0.001597 0.408305
v 0.077516 -0.000297 0.408980
v 0.073305 -0.001597 -0.408305
v 0.080611 0.002840 -0.410611
v 0.077516 -0.000297 -0.408980
v 0.080611 0.002840 0.138333
v 0.073305 -0.001597 0.138333
v 0.077516 -0.000297 0.138333
v 0.073305 -0.001597 -0.138333
v 0.080611 0.002840 -0.138333
v 0.077516 -0.000297 -0.138333
v 0.040029 -0.001597 0.408305
v 0.032723 0.002840 0.410611
v 0.035818 -0.000297 0.408980
v 0.032723 0.002840 -0.410611
v 0.040029 -0.001597 -0.408305
v 0.035818 -0.000297 -0.408980
v 0.032723 0.002840 -0.138333
v 0.040029 -0.001597 -0.138333
v 0.035818 -0.000297 -0.138333
v 0.032723 0.002840 0.138333
v 0.040029 -0.001597 0.138333
v 0.035818 -0.000297 0.138333
vn -0.0000 -0.0000 -1.0000
vn 1.0000 -0.0000 -0.0000
vn -0.0000 -1.0000 -0.0000
vn -0.0000 -0.0000 1.0000
vn -0.0000 1.0000 -0.0000
vn -0.0000 0.8289 -0.5593
vn -0.0000 0.8289 0.5593
vn 0.5593 0.8289 -0.0000
vn -0.5593 0.8289 -0.0000
vn 0.1491 0.9888 -0.0000
vn 0.1560 0.9878 -0.0000
vn 0.5512 0.8344 -0.0000
vn 0.5191 0.8547 -0.0000
vn 0.8297 0.5581 -0.0000
vn 0.8086 0.5883 -0.0000
vn -0.8086 0.5883 -0.0000
vn -0.8297 0.5581 -0.0000
vn -0.5512 0.8344 -0.0000
vn -0.5191 0.8547 -0.0000
vn -0.1560 0.9878 -0.0000
vn -0.1491 0.9888 -0.0000
vn -0.0000 0.4612 0.8873
vn 0.8873 0.4612 -0.0000
vn -0.0000 0.4612 -0.8873
vn -0.8873 0.4612 -0.0000
vn -1.0000 -0.0000 -0.0000
vt 0.375000 0.375000
vt 0.375000 0.500000
vt 0.625000 0.500000
vt 0.625000 0.375000
vt 0.375000 0.750000
vt 0.625000 0.750000
vt 0.750000 0.750000
vt 0.750000 0.500000
vt 0.375000 0.875000
vt 0.625000 0.875000
vt 0.360795 0.507102
vt 0.360795 0.585701
vt 0.360795 0.664299
vt 0.360795 0.742898
vt 0.328598 0.742898
vt 0.296402 0.742898
vt 0.264205 0.742898
vt 0.250000 0.750000
vt 0.264205 0.507102
vt 0.296402 0.507102
vt 0.328598 0.507102
vt 0.250000 0.500000
vt 0.264205 0.664299
vt 0.264205 0.585701
vt 0.298956 0.508379
vt 0.298955 0.585701
vt 0.326044 0.585701
vt 0.326044 0.508379
vt 0.298955 0.664299
vt 0.326044 0.664299
vt 0.298955 0.741621
vt 0.326045 0.741621
vt 0.296402 0.585701
vt 0.328598 0.585701
vt 0.296402 0.664299
vt 0.328598 0.664299
vt 0.270850 0.585701
vt 0.270850 0.509004
vt 0.268158 0.508940
vt 0.268009 0.585701
vt 0.266699 0.508349
vt 0.266699 0.585701
vt 0.270850 0.740996
vt 0.270850 0.664299
vt 0.268009 0.664299
vt 0.268158 0.741060
vt 0.266699 0.664299
vt 0.266699 0.741651
vt 0.293908 0.585701
vt 0.293908 0.508349
vt 0.292448 0.508940
vt 0.292597 0.585701
vt 0.289756 0.509004
vt 0.289756 0.585701
vt 0.293908 0.664299
vt 0.292597 0.664299
vt 0.289756 0.664299
vt 0.293908 0.741651
vt 0.292448 0.741060
vt 0.289756 0.740996
vt 0.358301 0.585701
vt 0.358301 0.508349
vt 0.356842 0.508940
vt 0.356991 0.585701
vt 0.354150 0.509004
vt 0.354150 0.585701
vt 0.358301 0.741651
vt 0.358301 0.664299
vt 0.356991 0.664299
vt 0.356842 0.741060
vt 0.354150 0.664299
vt 0.354150 0.740996
vt 0.335243 0.585701
vt 0.335244 0.509004
vt 0.332552 0.508940
vt 0.332403 0.585701
vt 0.331092 0.508349
vt 0.331092 0.585701
vt 0.335243 0.664299
vt 0.332403 0.664299
vt 0.331092 0.664299
vt 0.335244 0.740996
vt 0.332552 0.741060
vt 0.331093 0.741651
s 1
usemtl Material.179
f 8/1/1 6/2/1 2/3/1 3/4/1
f 6/2/2 5/5/2 1/6/2 2/3/2
f 2/3/3 1/6/3 4/7/3 3/8/3
f 5/5/4 7/9/4 4/10/4 1/6/4
f 14/11/5 13/12/5 20/13/5 16/14/5 5/5/5 6/2/5
f 16/14/5 26/15/5 25/16/5 21/17/5 7/18/5 5/5/5
f 18/19/5 28/20/5 27/21/5 14/11/5 6/2/5 8/22/5
f 21/17/5 24/23/5 19/24/5 18/19/5 8/22/5 7/18/5
f 17/25/5 29/26/5 30/27/5 23/28/5
f 29/26/5 31/29/5 32/30/5 30/27/5
f 31/29/5 22/31/5 15/32/5 32/30/5
f 15/32/6 22/31/6 25/16/6 26/15/6
f 17/25/7 23/28/7 27/21/7 28/20/7
f 29/26/8 17/25/8 28/20/8 9/33/8
f 23/28/9 30/27/9 10/34/9 27/21/9
f 31/29/8 29/26/8 9/33/8 11/35/8
f 30/27/9 32/30/9 12/36/9 10/34/9
f 22/31/8 31/29/8 11/35/8 25/16/8
f 32/30/9 15/32/9 26/15/9 12/36/9
f 49/37/10 34/38/11 35/39/12 50/40/13
f 50/40/13 35/39/12 33/41/14 48/42/15
f 36/43/11 45/44/10 47/45/13 38/46/12
f 38/46/12 47/45/13 46/47/15 37/48/14
f 45/44/10 49/37/10 50/40/13 47/45/13
f 47/45/13 50/40/13 48/42/15 46/47/15
f 52/49/16 43/50/17 44/51/18 53/52/19
f 53/52/19 44/51/18 42/53/20 51/54/21
f 55/55/16 52/49/16 53/52/19 56/56/19
f 56/56/19 53/52/19 51/54/21 54/57/21
f 39/58/17 55/55/16 56/56/19 41/59/18
f 41/59/18 56/56/19 54/57/21 40/60/20
f 33/41/22 35/39/22 34/38/22 42/53/22 44/51/22 43/50/22 28/20/22 18/19/22
f 34/38/11 49/37/10 51/54/21 42/53/20
f 48/42/15 33/41/14 18/19/23 19/24/23
f 39/58/24 41/59/24 40/60/24 36/43/24 38/46/24 37/48/24 21/17/24 25/16/24
f 45/44/10 36/43/11 40/60/20 54/57/21
f 37/48/14 46/47/15 24/23/23 21/17/23
f 55/55/16 39/58/17 25/16/25 11/35/25
f 43/50/17 52/49/16 9/33/25 28/20/25
f 46/47/15 48/42/15 19/24/23 24/23/23
f 49/37/10 45/44/10 54/57/21 51/54/21
f 52/49/16 55/55/16 11/35/25 9/33/25
f 67/61/16 61/62/17 62/63/18 68/64/19
f 68/64/19 62/63/18 60/65/20 66/66/21
f 57/67/17 63/68/16 65/69/19 59/70/18
f 59/70/18 65/69/19 64/71/21 58/72/20
f 63/68/16 67/61/16 68/64/19 65/69/19
f 65/69/19 68/64/19 66/66/21 64/71/21
f 76/73/10 73/74/11 74/75/12 77/76/13
f 77/76/13 74/75/12 72/77/14 75/78/15
f 79/79/10 76/73/10 77/76/13 80/80/13
f 80/80/13 77/76/13 75/78/15 78/81/15
f 69/82/11 79/79/10 80/80/13 71/83/12
f 71/83/12 80/80/13 78/81/15 70/84/14
f 57/67/24 59/70/24 58/72/24 69/82/24 71/83/24 70/84/24 26/15/24 16/14/24
f 79/79/10 69/82/11 58/72/20 64/71/21
f 63/68/16 57/67/17 16/14/25 20/13/25
f 61/62/17 67/61/16 13/12/25 14/11/25
f 73/74/11 76/73/10 66/66/21 60/65/20
f 72/77/22 74/75/22 73/74/22 60/65/22 62/63/22 61/62/22 14/11/22 27/21/22
f 76/73/10 79/79/10 64/71/21 66/66/21
f 67/61/16 63/68/16 20/13/25 13/12/25
f 70/84/14 78/81/15 12/36/23 26/15/23
f 75/78/15 72/77/14 27/21/23 10/34/23
f 78/81/15 75/78/15 10/34/23 12/36/23
f 3/4/26 4/10/26 7/18/26 8/1/26
