# Blender 5.2.1 LTS
# www.blender.org
mtllib Det2.mtl
o Cube.109
v 0.102111 0.012672 0.420954
v 0.102111 0.012672 -0.420954
v -0.102111 0.012672 0.420954
v -0.102111 0.012672 -0.420954
v 0.092889 0.012672 -0.138333
v 0.092889 0.012672 -0.411732
v 0.092889 0.012672 0.411732
v -0.092889 0.012672 -0.411732
v -0.092889 0.012672 -0.138333
v 0.092889 0.012672 0.138333
v -0.092889 0.012672 0.411732
v -0.092889 0.012672 0.138333
v 0.102111 0.011285 0.420954
v 0.102111 0.011285 -0.420954
v -0.102111 0.011285 0.420954
v -0.102111 0.011285 -0.420954
v 0.092889 0.011285 -0.138333
v 0.092889 0.011285 -0.411732
v -0.092889 0.011285 -0.138333
v -0.092889 0.011285 -0.411732
v 0.092889 0.011285 0.411732
v -0.092889 0.011285 0.411732
v 0.092889 0.011285 0.138333
v -0.092889 0.011285 0.138333
vn -0.0000 1.0000 -0.0000
vn 1.0000 -0.0000 -0.0000
vn -1.0000 -0.0000 -0.0000
vn -0.7071 -0.0000 -0.7071
vn -0.7071 -0.0000 0.7071
vn 0.7071 -0.0000 0.7071
vn 0.7071 -0.0000 -0.7071
vt 0.365278 0.508031
vt 0.365278 0.585701
vt 0.365278 0.664299
vt 0.365278 0.741969
vt 0.370518 0.744589
vt 0.370518 0.505411
vt 0.259722 0.741969
vt 0.259722 0.664299
vt 0.259722 0.585701
vt 0.259722 0.508031
vt 0.254482 0.505411
vt 0.254482 0.744589
s 1
usemtl Material.177
f 6/1/1 5/2/1 10/3/1 7/4/1 1/5/1 2/6/1
f 11/7/1 12/8/1 9/9/1 8/10/1 4/11/1 3/12/1
f 2/6/2 1/5/2 13/5/2 14/6/2
f 3/12/3 4/11/3 16/11/3 15/12/3
f 5/2/3 6/1/3 18/1/3 17/2/3
f 8/10/2 9/9/2 19/9/2 20/10/2
f 6/1/4 2/6/4 14/6/4 18/1/4
f 1/5/5 7/4/5 21/4/5 13/5/5
f 11/7/6 3/12/6 15/12/6 22/7/6
f 4/11/7 8/10/7 20/10/7 16/11/7
f 7/4/3 10/3/3 23/3/3 21/4/3
f 10/3/3 5/2/3 17/2/3 23/3/3
f 12/8/2 11/7/2 22/7/2 24/8/2
f 9/9/2 12/8/2 24/8/2 19/9/2
