# Blender 5.2.1 LTS
# www.blender.org
mtllib Lever.mtl
o Cube.112
v -0.063502 -0.000978 0.012359
v -0.090125 -0.001263 0.003326
v -0.059355 0.021424 0.007519
v -0.065819 0.021424 0.001055
v -0.090125 -0.001263 -0.003326
v -0.063276 -0.000819 -0.012130
v -0.065819 0.021424 -0.001055
v -0.059355 0.021424 -0.007519
v -0.026475 -0.001263 0.003326
v -0.053098 -0.000978 0.012359
v -0.050781 0.021424 0.001055
v -0.057245 0.021424 0.007519
v -0.053324 -0.000819 -0.012130
v -0.026475 -0.001263 -0.003326
v -0.057245 0.021424 -0.007519
v -0.050781 0.021424 -0.001055
v -0.063490 0.015920 0.012359
v -0.071834 0.013010 0.003315
v -0.071834 0.013010 -0.003315
v -0.063264 0.015762 -0.012130
v -0.053337 0.015762 -0.012130
v -0.044766 0.013010 -0.003315
v -0.044766 0.013010 0.003315
v -0.053110 0.015920 0.012359
v -0.065819 0.041306 0.001069
v -0.059369 0.041306 0.007519
v -0.059369 0.041306 -0.007519
v -0.065819 0.041306 -0.001069
v -0.050781 0.041306 -0.001069
v -0.057231 0.041306 -0.007519
v -0.057231 0.041306 0.007519
v -0.050781 0.041306 0.001069
v -0.072340 0.017299 0.007159
v -0.072340 -0.002357 0.007174
v -0.072340 -0.002357 -0.007174
v -0.072340 0.017299 -0.007159
v -0.044260 0.017299 -0.007159
v -0.044260 -0.002357 -0.007174
v -0.044260 -0.002357 0.007174
v -0.044260 0.017299 0.007159
v -0.090125 0.005873 0.003321
v -0.090125 0.005873 -0.003321
v -0.026475 0.005873 -0.003321
v -0.026475 0.005873 0.003321
v -0.090125 -0.001263 0.000000
v -0.026475 -0.001263 0.000000
v -0.071834 0.013010 0.000000
v -0.044766 0.013010 0.000000
v -0.026475 0.005873 0.000000
v -0.090125 0.005873 0.000000
v -0.071834 0.005873 0.003321
v -0.071834 -0.001263 0.003326
v -0.044766 0.005873 -0.003321
v -0.044766 -0.001263 -0.003326
v -0.071834 -0.001263 0.000000
v -0.071834 -0.001263 -0.003326
v -0.044766 -0.001263 0.000000
v -0.044766 -0.001263 0.003326
v -0.071834 0.005873 -0.003321
v -0.044766 0.005873 0.003321
v -0.044766 0.005873 0.000000
v -0.071834 0.005873 0.000000
v -0.065459 0.017299 -0.014040
v -0.065474 -0.002357 -0.014040
v -0.051126 -0.002357 -0.014040
v -0.051141 0.017299 -0.014040
v -0.063264 0.015762 -0.014040
v -0.063276 -0.000819 -0.014040
v -0.053324 -0.000819 -0.014040
v -0.053337 0.015762 -0.014040
v -0.065474 -0.002357 0.014040
v -0.065459 0.017299 0.014040
v -0.051141 0.017299 0.014040
v -0.051126 -0.002357 0.014040
v -0.063502 -0.000978 0.014040
v -0.063490 0.015920 0.014040
v -0.053110 0.015920 0.014040
v -0.053098 -0.000978 0.014040
v -0.056125 0.020639 -0.009056
v -0.056110 0.042090 -0.009056
v -0.049244 0.042090 -0.002190
v -0.049244 0.020639 -0.002175
v -0.056110 0.042090 0.009056
v -0.056125 0.020639 0.009056
v -0.049244 0.020639 0.002175
v -0.049244 0.042090 0.002190
v -0.060475 0.020639 0.009056
v -0.060490 0.042090 0.009056
v -0.067356 0.042090 0.002190
v -0.067356 0.020639 0.002175
v -0.060490 0.042090 -0.009056
v -0.060475 0.020639 -0.009056
v -0.067356 0.020639 -0.002175
v -0.067356 0.042090 -0.002190
v -0.057245 0.021424 -0.009056
v -0.057231 0.041306 -0.009056
v -0.049244 0.041306 -0.001069
v -0.049244 0.021424 -0.001055
v -0.057231 0.041306 0.009056
v -0.057245 0.021424 0.009056
v -0.049244 0.021424 0.001055
v -0.049244 0.041306 0.001069
v -0.059355 0.021424 0.009056
v -0.059369 0.041306 0.009056
v -0.067356 0.041306 0.001069
v -0.067356 0.021424 0.001055
v -0.059369 0.041306 -0.009056
v -0.059355 0.021424 -0.009056
v -0.067356 0.021424 -0.001055
v -0.067356 0.041306 -0.001069
vn -0.7071 0.0005 0.7071
vn -0.7071 0.0005 -0.7071
vn 0.7071 0.0005 -0.7071
vn 0.7071 0.0005 0.7071
vn -0.3028 0.9037 0.3028
vn -0.3028 0.9037 -0.3028
vn 0.3028 0.9037 -0.3028
vn 0.3028 0.9037 0.3028
vn 0.7071 -0.0005 -0.7071
vn 0.7071 -0.0005 0.7071
vn -0.7071 -0.0005 0.7071
vn -0.7071 -0.0005 -0.7071
vn -0.0000 -1.0000 -0.0000
vn -1.0000 -0.0000 -0.0000
vn -0.0000 -0.0000 1.0000
vn -0.5567 0.8307 -0.0000
vn -0.0000 0.8307 0.5567
vn -0.0000 -0.0000 -1.0000
vn -0.0000 0.8307 -0.5567
vn 1.0000 -0.0000 -0.0000
vn 0.5567 0.8307 -0.0000
vn -0.0000 1.0000 -0.0000
vn -0.9914 -0.0001 -0.1305
vn -0.9914 -0.0001 0.1305
vn 0.9914 -0.0001 0.1305
vn 0.9914 -0.0001 -0.1305
vn -0.9075 0.4200 -0.0000
vn 0.9075 0.4200 -0.0000
vn -0.9931 -0.1172 -0.0000
vn 0.9931 -0.1172 -0.0000
vn -0.0000 0.0007 1.0000
vn -0.0000 0.0007 -1.0000
vn 1.0000 -0.0007 -0.0000
vn -1.0000 -0.0007 -0.0000
vn -1.0000 0.0007 -0.0000
vn 1.0000 0.0007 -0.0000
vt 0.375000 0.000000
vt 0.625000 0.000000
vt 0.625000 0.061263
vt 0.375000 0.061132
vt 0.625000 0.311263
vt 0.375000 0.311132
vt 0.375000 0.188868
vt 0.625000 0.188737
vt 0.625000 0.561263
vt 0.375000 0.561132
vt 0.354623 0.459245
vt 0.655631 0.469369
vt 0.655631 0.780631
vt 0.354623 0.790755
vt 0.375000 0.688868
vt 0.625000 0.688737
vt 0.813737 0.750000
vt 0.769367 0.705629
vt 0.830629 0.644367
vt 0.875000 0.688737
vt 0.769367 0.544371
vt 0.813737 0.500000
vt 0.875000 0.561263
vt 0.830629 0.605633
vt 0.669371 0.605633
vt 0.730633 0.544371
vt 0.730633 0.705629
vt 0.669371 0.644367
vt 0.730503 0.544371
vt 0.669371 0.605503
vt 0.730503 0.705630
vt 0.669371 0.644497
vt 0.769497 0.705630
vt 0.830630 0.644497
vt 0.769497 0.544371
vt 0.830630 0.605503
vt 0.125000 0.561132
vt 0.186132 0.500000
vt 0.186132 0.750000
vt 0.125000 0.688868
vt 0.500000 0.125000
vt 0.590762 0.125000
vt 0.590762 0.154517
vt 0.500000 0.154564
vt 0.377563 0.810580
vt 0.631278 0.802899
vt 0.610694 0.917189
vt 0.390719 0.918323
vt 0.830629 0.615606
vt 0.830629 0.634394
vt 0.830629 0.634515
vt 0.830630 0.615485
vt 0.759394 0.705630
vt 0.740606 0.705629
vt 0.740485 0.705630
vt 0.759515 0.705630
vt 0.392554 0.334045
vt 0.609022 0.335282
vt 0.628505 0.444547
vt 0.380172 0.437135
vt 0.740606 0.544371
vt 0.759394 0.544371
vt 0.759515 0.544371
vt 0.740485 0.544371
vt 0.500000 0.625000
vt 0.590762 0.625000
vt 0.590762 0.654517
vt 0.500000 0.654564
vt 0.669371 0.634394
vt 0.669371 0.615606
vt 0.669371 0.615485
vt 0.669371 0.634515
vt 0.590762 0.095483
vt 0.500000 0.095436
vt 0.409238 0.095389
vt 0.409238 0.154611
vt 0.590762 0.595483
vt 0.500000 0.595436
vt 0.409238 0.595389
vt 0.409238 0.654612
vt 0.409238 0.125000
vt 0.409238 0.625000
vt 0.625000 0.938737
vt 0.375000 0.938868
s 0
f 71/1/1 72/2/1 33/3/1 34/4/1
f 63/5/2 64/6/2 35/7/2 36/8/2
f 37/9/3 38/10/3 65/11/3 66/12/3
f 73/13/4 74/14/4 39/15/4 40/16/4
f 72/17/5 87/18/5 90/19/5 33/20/5
f 92/21/6 63/22/6 36/23/6 93/24/6
f 82/25/7 37/9/7 66/12/7 79/26/7
f 84/27/8 73/13/8 40/16/8 85/28/8
f 79/26/9 80/29/9 81/30/9 82/25/9
f 83/31/10 84/27/10 85/28/10 86/32/10
f 87/18/11 88/33/11 89/34/11 90/19/11
f 91/35/12 92/21/12 93/24/12 94/36/12
f 35/37/13 64/38/13 65/11/13 38/10/13 39/15/13 74/14/13 71/39/13 34/40/13
f 62/41/14 47/42/14 19/43/14 59/44/14
f 10/45/15 24/46/15 17/47/15 1/48/15
f 7/49/14 4/50/14 25/51/14 28/52/14
f 90/19/16 93/24/16 36/23/16 33/20/16
f 3/53/15 12/54/15 31/55/15 26/56/15
f 84/27/17 87/18/17 72/17/17 73/13/17
f 6/57/18 20/58/18 21/59/18 13/60/18
f 92/21/19 79/26/19 66/12/19 63/22/19
f 15/61/18 8/62/18 27/63/18 30/64/18
f 61/65/20 48/66/20 23/67/20 60/68/20
f 82/25/21 85/28/21 40/16/21 37/9/21
f 11/69/20 16/70/20 29/71/20 32/72/20
f 81/30/22 80/29/22 91/35/22 94/36/22 89/34/22 88/33/22 83/31/22 86/32/22
f 18/73/23 51/74/23 52/75/23 34/4/23 33/3/23
f 56/76/24 59/44/24 19/43/24 36/8/24 35/7/24
f 22/77/25 53/78/25 54/79/25 38/10/25 37/9/25
f 58/80/26 60/68/26 23/67/26 40/16/26 39/15/26
f 52/75/27 55/81/27 56/76/27 35/7/27 34/4/27
f 54/79/28 57/82/28 58/80/28 39/15/28 38/10/28
f 19/43/29 47/42/29 18/73/29 33/3/29 36/8/29
f 23/67/30 48/66/30 22/77/30 37/9/30 40/16/30
f 46/82/20 49/65/20 44/68/20 9/80/20
f 14/79/20 43/78/20 49/65/20 46/82/20
f 53/78/20 22/77/20 48/66/20 61/65/20
f 45/81/14 50/41/14 42/44/14 5/76/14
f 2/75/14 41/74/14 50/41/14 45/81/14
f 51/74/14 18/73/14 47/42/14 62/41/14
f 41/74/31 2/75/31 52/75/31 51/74/31
f 43/78/32 14/79/32 54/79/32 53/78/32
f 45/81/13 5/76/13 56/76/13 55/81/13
f 46/82/13 9/80/13 58/80/13 57/82/13
f 5/76/32 42/44/32 59/44/32 56/76/32
f 9/80/31 44/68/31 60/68/31 58/80/31
f 2/75/13 45/81/13 55/81/13 52/75/13
f 14/79/13 46/82/13 57/82/13 54/79/13
f 44/68/22 49/65/22 61/65/22 60/68/22
f 49/65/22 43/78/22 53/78/22 61/65/22
f 42/44/22 50/41/22 62/41/22 59/44/22
f 50/41/22 41/74/22 51/74/22 62/41/22
f 67/58/18 68/57/18 64/6/18 63/5/18
f 69/60/18 70/59/18 66/12/18 65/11/18
f 68/57/18 69/60/18 65/11/18 64/6/18
f 70/59/18 67/58/18 63/5/18 66/12/18
f 20/58/33 6/57/33 68/57/33 67/58/33
f 13/60/34 21/59/34 70/59/34 69/60/34
f 6/57/22 13/60/22 69/60/22 68/57/22
f 21/59/13 20/58/13 67/58/13 70/59/13
f 75/48/15 76/47/15 72/83/15 71/84/15
f 77/46/15 78/45/15 74/14/15 73/13/15
f 78/45/15 75/48/15 71/84/15 74/14/15
f 76/47/15 77/46/15 73/13/15 72/83/15
f 1/48/33 17/47/33 76/47/33 75/48/33
f 24/46/34 10/45/34 78/45/34 77/46/34
f 10/45/22 1/48/22 75/48/22 78/45/22
f 17/47/13 24/46/13 77/46/13 76/47/13
f 95/61/18 96/64/18 80/29/18 79/26/18
f 97/71/20 98/70/20 82/25/20 81/30/20
f 99/55/15 100/54/15 84/27/15 83/31/15
f 101/69/20 102/72/20 86/32/20 85/28/20
f 103/53/15 104/56/15 88/33/15 87/18/15
f 105/51/14 106/50/14 90/19/14 89/34/14
f 107/63/18 108/62/18 92/21/18 91/35/18
f 109/49/14 110/52/14 94/36/14 93/24/14
f 106/50/14 109/49/14 93/24/14 90/19/14
f 110/52/14 105/51/14 89/34/14 94/36/14
f 100/54/15 103/53/15 87/18/15 84/27/15
f 104/56/15 99/55/15 83/31/15 88/33/15
f 108/62/18 95/61/18 79/26/18 92/21/18
f 96/64/18 107/63/18 91/35/18 80/29/18
f 98/70/20 101/69/20 85/28/20 82/25/20
f 102/72/20 97/71/20 81/30/20 86/32/20
f 15/61/35 30/64/35 96/64/35 95/61/35
f 29/71/31 16/70/31 98/70/31 97/71/31
f 31/55/35 12/54/35 100/54/35 99/55/35
f 11/69/32 32/72/32 102/72/32 101/69/32
f 3/53/36 26/56/36 104/56/36 103/53/36
f 25/51/32 4/50/32 106/50/32 105/51/32
f 27/63/36 8/62/36 108/62/36 107/63/36
f 7/49/31 28/52/31 110/52/31 109/49/31
f 4/50/22 7/49/22 109/49/22 106/50/22
f 28/52/13 25/51/13 105/51/13 110/52/13
f 12/54/22 3/53/22 103/53/22 100/54/22
f 26/56/13 31/55/13 99/55/13 104/56/13
f 8/62/22 15/61/22 95/61/22 108/62/22
f 30/64/13 27/63/13 107/63/13 96/64/13
f 16/70/22 11/69/22 101/69/22 98/70/22
f 32/72/13 29/71/13 97/71/13 102/72/13
o Cube.113
v -0.090094 0.039787 0.011628
v -0.090094 0.049147 0.011628
v -0.090094 0.039787 -0.011628
v -0.090094 0.049147 -0.011628
v 0.091647 0.039787 0.011628
v 0.091647 0.049147 0.011628
v 0.091647 0.039787 -0.011628
v 0.091647 0.049147 -0.011628
vn -1.0000 -0.0000 -0.0000
vn -0.0000 -0.0000 -1.0000
vn 1.0000 -0.0000 -0.0000
vn -0.0000 -0.0000 1.0000
vn -0.0000 -1.0000 -0.0000
vn -0.0000 1.0000 -0.0000
vt 0.375000 0.000000
vt 0.625000 0.000000
vt 0.625000 0.250000
vt 0.375000 0.250000
vt 0.625000 0.500000
vt 0.375000 0.500000
vt 0.625000 0.750000
vt 0.375000 0.750000
vt 0.625000 1.000000
vt 0.375000 1.000000
vt 0.125000 0.500000
vt 0.125000 0.750000
vt 0.875000 0.500000
vt 0.875000 0.750000
s 0
f 111/85/37 112/86/37 114/87/37 113/88/37
f 113/88/38 114/87/38 118/89/38 117/90/38
f 117/90/39 118/89/39 116/91/39 115/92/39
f 115/92/40 116/91/40 112/93/40 111/94/40
f 113/95/41 117/90/41 115/92/41 111/96/41
f 118/89/42 114/97/42 112/98/42 116/91/42
o Cube.114
v 0.051944 -0.000978 0.012359
v 0.025321 -0.001263 0.003326
v 0.056091 0.021424 0.007519
v 0.049627 0.021424 0.001055
v 0.025321 -0.001263 -0.003326
v 0.052170 -0.000819 -0.012130
v 0.049627 0.021424 -0.001055
v 0.056091 0.021424 -0.007519
v 0.088971 -0.001263 0.003326
v 0.062348 -0.000978 0.012359
v 0.064665 0.021424 0.001055
v 0.058201 0.021424 0.007519
v 0.062122 -0.000819 -0.012130
v 0.088971 -0.001263 -0.003326
v 0.058201 0.021424 -0.007519
v 0.064665 0.021424 -0.001055
v 0.051956 0.015920 0.012359
v 0.043612 0.013010 0.003315
v 0.043612 0.013010 -0.003315
v 0.052183 0.015762 -0.012130
v 0.062110 0.015762 -0.012130
v 0.070680 0.013010 -0.003315
v 0.070680 0.013010 0.003315
v 0.062336 0.015920 0.012359
v 0.049627 0.041306 0.001069
v 0.056077 0.041306 0.007519
v 0.056077 0.041306 -0.007519
v 0.049627 0.041306 -0.001069
v 0.064665 0.041306 -0.001069
v 0.058215 0.041306 -0.007519
v 0.058215 0.041306 0.007519
v 0.064665 0.041306 0.001069
v 0.043106 0.017299 0.007159
v 0.043106 -0.002357 0.007174
v 0.043106 -0.002357 -0.007174
v 0.043106 0.017299 -0.007159
v 0.071186 0.017299 -0.007159
v 0.071186 -0.002357 -0.007174
v 0.071186 -0.002357 0.007174
v 0.071186 0.017299 0.007159
v 0.025321 0.005873 0.003321
v 0.025321 0.005873 -0.003321
v 0.088971 0.005873 -0.003321
v 0.088971 0.005873 0.003321
v 0.025321 -0.001263 0.000000
v 0.088971 -0.001263 0.000000
v 0.043612 0.013010 0.000000
v 0.070680 0.013010 0.000000
v 0.088971 0.005873 0.000000
v 0.025321 0.005873 0.000000
v 0.043612 0.005873 0.003321
v 0.043612 -0.001263 0.003326
v 0.070680 0.005873 -0.003321
v 0.070680 -0.001263 -0.003326
v 0.043612 -0.001263 0.000000
v 0.043612 -0.001263 -0.003326
v 0.070680 -0.001263 0.000000
v 0.070680 -0.001263 0.003326
v 0.043612 0.005873 -0.003321
v 0.070680 0.005873 0.003321
v 0.070680 0.005873 0.000000
v 0.043612 0.005873 0.000000
v 0.049987 0.017299 -0.014040
v 0.049972 -0.002357 -0.014040
v 0.064320 -0.002357 -0.014040
v 0.064305 0.017299 -0.014040
v 0.052183 0.015762 -0.014040
v 0.052170 -0.000819 -0.014040
v 0.062122 -0.000819 -0.014040
v 0.062110 0.015762 -0.014040
v 0.049972 -0.002357 0.014040
v 0.049987 0.017299 0.014040
v 0.064305 0.017299 0.014040
v 0.064320 -0.002357 0.014040
v 0.051944 -0.000978 0.014040
v 0.051956 0.015920 0.014040
v 0.062336 0.015920 0.014040
v 0.062348 -0.000978 0.014040
v 0.066202 0.020639 0.002175
v 0.066202 0.042090 0.002190
v 0.059336 0.042090 0.009056
v 0.059321 0.020639 0.009056
v 0.048090 0.042090 0.002190
v 0.048090 0.020639 0.002175
v 0.054971 0.020639 0.009056
v 0.054956 0.042090 0.009056
v 0.048090 0.020639 -0.002175
v 0.048090 0.042090 -0.002190
v 0.054956 0.042090 -0.009056
v 0.054971 0.020639 -0.009056
v 0.066202 0.042090 -0.002190
v 0.066202 0.020639 -0.002175
v 0.059321 0.020639 -0.009056
v 0.059336 0.042090 -0.009056
v 0.066202 0.021424 0.001055
v 0.066202 0.041306 0.001069
v 0.058215 0.041306 0.009056
v 0.058201 0.021424 0.009056
v 0.048090 0.041306 0.001069
v 0.048090 0.021424 0.001055
v 0.056091 0.021424 0.009056
v 0.056077 0.041306 0.009056
v 0.048090 0.021424 -0.001055
v 0.048090 0.041306 -0.001069
v 0.056077 0.041306 -0.009056
v 0.056091 0.021424 -0.009056
v 0.066202 0.041306 -0.001069
v 0.066202 0.021424 -0.001055
v 0.058201 0.021424 -0.009056
v 0.058215 0.041306 -0.009056
vn -0.7071 0.0005 0.7071
vn -0.7071 0.0005 -0.7071
vn 0.7071 0.0005 -0.7071
vn 0.7071 0.0005 0.7071
vn -0.3028 0.9037 0.3028
vn -0.3028 0.9037 -0.3028
vn 0.3028 0.9037 -0.3028
vn 0.3028 0.9037 0.3028
vn 0.7071 -0.0005 0.7071
vn -0.7071 -0.0005 0.7071
vn -0.7071 -0.0005 -0.7071
vn 0.7071 -0.0005 -0.7071
vn -0.0000 -1.0000 -0.0000
vn -1.0000 -0.0000 -0.0000
vn -0.0000 -0.0000 1.0000
vn -0.5567 0.8307 -0.0000
vn -0.0000 0.8307 0.5567
vn -0.0000 -0.0000 -1.0000
vn -0.0000 0.8307 -0.5567
vn 1.0000 -0.0000 -0.0000
vn 0.5567 0.8307 -0.0000
vn -0.0000 1.0000 -0.0000
vn -0.9914 -0.0001 -0.1305
vn -0.9914 -0.0001 0.1305
vn 0.9914 -0.0001 0.1305
vn 0.9914 -0.0001 -0.1305
vn -0.9075 0.4200 -0.0000
vn 0.9075 0.4200 -0.0000
vn -0.9931 -0.1172 -0.0000
vn 0.9931 -0.1172 -0.0000
vn -0.0000 0.0007 1.0000
vn -0.0000 0.0007 -1.0000
vn 1.0000 -0.0007 -0.0000
vn -1.0000 -0.0007 -0.0000
vn -1.0000 0.0007 -0.0000
vn 1.0000 0.0007 -0.0000
vt 0.375000 0.000000
vt 0.625000 0.000000
vt 0.625000 0.061263
vt 0.375000 0.061132
vt 0.625000 0.311263
vt 0.375000 0.311132
vt 0.375000 0.188868
vt 0.625000 0.188737
vt 0.625000 0.561263
vt 0.375000 0.561132
vt 0.354623 0.459245
vt 0.655631 0.469369
vt 0.655631 0.780631
vt 0.354623 0.790755
vt 0.375000 0.688868
vt 0.625000 0.688737
vt 0.813737 0.750000
vt 0.769367 0.705629
vt 0.830629 0.644367
vt 0.875000 0.688737
vt 0.769367 0.544371
vt 0.813737 0.500000
vt 0.875000 0.561263
vt 0.830629 0.605633
vt 0.669371 0.605633
vt 0.730633 0.544371
vt 0.730633 0.705629
vt 0.669371 0.644367
vt 0.669371 0.644497
vt 0.730503 0.705630
vt 0.830630 0.644497
vt 0.769497 0.705630
vt 0.830630 0.605503
vt 0.769497 0.544371
vt 0.669371 0.605503
vt 0.730503 0.544371
vt 0.125000 0.561132
vt 0.186132 0.500000
vt 0.186132 0.750000
vt 0.125000 0.688868
vt 0.500000 0.125000
vt 0.590762 0.125000
vt 0.590762 0.154517
vt 0.500000 0.154564
vt 0.377563 0.810580
vt 0.631278 0.802899
vt 0.610694 0.917189
vt 0.390719 0.918323
vt 0.830629 0.615606
vt 0.830629 0.634394
vt 0.830629 0.634515
vt 0.830630 0.615485
vt 0.759394 0.705630
vt 0.740606 0.705629
vt 0.740485 0.705630
vt 0.759515 0.705630
vt 0.392554 0.334045
vt 0.609022 0.335282
vt 0.628505 0.444547
vt 0.380172 0.437135
vt 0.740606 0.544371
vt 0.759394 0.544371
vt 0.759515 0.544371
vt 0.740485 0.544371
vt 0.500000 0.625000
vt 0.590762 0.625000
vt 0.590762 0.654517
vt 0.500000 0.654564
vt 0.669371 0.634394
vt 0.669371 0.615606
vt 0.669371 0.615485
vt 0.669371 0.634515
vt 0.590762 0.095483
vt 0.500000 0.095436
vt 0.409238 0.095389
vt 0.409238 0.154611
vt 0.590762 0.595483
vt 0.500000 0.595436
vt 0.409238 0.595389
vt 0.409238 0.654612
vt 0.409238 0.125000
vt 0.409238 0.625000
vt 0.625000 0.938737
vt 0.375000 0.938868
s 0
f 189/99/43 190/100/43 151/101/43 152/102/43
f 181/103/44 182/104/44 153/105/44 154/106/44
f 155/107/45 156/108/45 183/109/45 184/110/45
f 191/111/46 192/112/46 157/113/46 158/114/46
f 190/115/47 203/116/47 202/117/47 151/118/47
f 208/119/48 181/120/48 154/121/48 205/122/48
f 210/123/49 155/107/49 184/110/49 211/124/49
f 200/125/50 191/111/50 158/114/50 197/126/50
f 197/126/51 198/127/51 199/128/51 200/125/51
f 201/129/52 202/117/52 203/116/52 204/130/52
f 205/122/53 206/131/53 207/132/53 208/119/53
f 209/133/54 210/123/54 211/124/54 212/134/54
f 153/135/55 182/136/55 183/109/55 156/108/55 157/113/55 192/112/55 189/137/55 152/138/55
f 180/139/56 165/140/56 137/141/56 177/142/56
f 128/143/57 142/144/57 135/145/57 119/146/57
f 125/147/56 122/148/56 143/149/56 146/150/56
f 202/117/58 205/122/58 154/121/58 151/118/58
f 121/151/57 130/152/57 149/153/57 144/154/57
f 200/125/59 203/116/59 190/115/59 191/111/59
f 124/155/60 138/156/60 139/157/60 131/158/60
f 208/119/61 211/124/61 184/110/61 181/120/61
f 133/159/60 126/160/60 145/161/60 148/162/60
f 179/163/62 166/164/62 141/165/62 178/166/62
f 129/167/62 134/168/62 147/169/62 150/170/62
f 210/123/63 197/126/63 158/114/63 155/107/63
f 209/133/64 212/134/64 207/132/64 206/131/64 201/129/64 204/130/64 199/128/64 198/127/64
f 136/171/65 169/172/65 170/173/65 152/102/65 151/101/65
f 174/174/66 177/142/66 137/141/66 154/106/66 153/105/66
f 140/175/67 171/176/67 172/177/67 156/108/67 155/107/67
f 176/178/68 178/166/68 141/165/68 158/114/68 157/113/68
f 170/173/69 173/179/69 174/174/69 153/105/69 152/102/69
f 172/177/70 175/180/70 176/178/70 157/113/70 156/108/70
f 137/141/71 165/140/71 136/171/71 151/101/71 154/106/71
f 141/165/72 166/164/72 140/175/72 155/107/72 158/114/72
f 164/180/62 167/163/62 162/166/62 127/178/62
f 132/177/62 161/176/62 167/163/62 164/180/62
f 171/176/62 140/175/62 166/164/62 179/163/62
f 163/179/56 168/139/56 160/142/56 123/174/56
f 120/173/56 159/172/56 168/139/56 163/179/56
f 169/172/56 136/171/56 165/140/56 180/139/56
f 159/172/73 120/173/73 170/173/73 169/172/73
f 161/176/74 132/177/74 172/177/74 171/176/74
f 163/179/55 123/174/55 174/174/55 173/179/55
f 164/180/55 127/178/55 176/178/55 175/180/55
f 123/174/74 160/142/74 177/142/74 174/174/74
f 127/178/73 162/166/73 178/166/73 176/178/73
f 120/173/55 163/179/55 173/179/55 170/173/55
f 132/177/55 164/180/55 175/180/55 172/177/55
f 162/166/64 167/163/64 179/163/64 178/166/64
f 167/163/64 161/176/64 171/176/64 179/163/64
f 160/142/64 168/139/64 180/139/64 177/142/64
f 168/139/64 159/172/64 169/172/64 180/139/64
f 185/156/60 186/155/60 182/104/60 181/103/60
f 187/158/60 188/157/60 184/110/60 183/109/60
f 186/155/60 187/158/60 183/109/60 182/104/60
f 188/157/60 185/156/60 181/103/60 184/110/60
f 138/156/75 124/155/75 186/155/75 185/156/75
f 131/158/76 139/157/76 188/157/76 187/158/76
f 124/155/64 131/158/64 187/158/64 186/155/64
f 139/157/55 138/156/55 185/156/55 188/157/55
f 193/146/57 194/145/57 190/181/57 189/182/57
f 195/144/57 196/143/57 192/112/57 191/111/57
f 196/143/57 193/146/57 189/182/57 192/112/57
f 194/145/57 195/144/57 191/111/57 190/181/57
f 119/146/75 135/145/75 194/145/75 193/146/75
f 142/144/76 128/143/76 196/143/76 195/144/76
f 128/143/64 119/146/64 193/146/64 196/143/64
f 135/145/55 142/144/55 195/144/55 194/145/55
f 213/167/62 214/170/62 198/127/62 197/126/62
f 215/153/57 216/152/57 200/125/57 199/128/57
f 217/149/56 218/148/56 202/117/56 201/129/56
f 219/151/57 220/154/57 204/130/57 203/116/57
f 221/147/56 222/150/56 206/131/56 205/122/56
f 223/161/60 224/160/60 208/119/60 207/132/60
f 225/169/62 226/168/62 210/123/62 209/133/62
f 227/159/60 228/162/60 212/134/60 211/124/60
f 218/148/56 221/147/56 205/122/56 202/117/56
f 222/150/56 217/149/56 201/129/56 206/131/56
f 216/152/57 219/151/57 203/116/57 200/125/57
f 220/154/57 215/153/57 199/128/57 204/130/57
f 224/160/60 227/159/60 211/124/60 208/119/60
f 228/162/60 223/161/60 207/132/60 212/134/60
f 226/168/62 213/167/62 197/126/62 210/123/62
f 214/170/62 225/169/62 209/133/62 198/127/62
f 129/167/74 150/170/74 214/170/74 213/167/74
f 149/153/77 130/152/77 216/152/77 215/153/77
f 143/149/74 122/148/74 218/148/74 217/149/74
f 121/151/78 144/154/78 220/154/78 219/151/78
f 125/147/73 146/150/73 222/150/73 221/147/73
f 145/161/78 126/160/78 224/160/78 223/161/78
f 147/169/73 134/168/73 226/168/73 225/169/73
f 133/159/77 148/162/77 228/162/77 227/159/77
f 122/148/64 125/147/64 221/147/64 218/148/64
f 146/150/55 143/149/55 217/149/55 222/150/55
f 130/152/64 121/151/64 219/151/64 216/152/64
f 144/154/55 149/153/55 215/153/55 220/154/55
f 126/160/64 133/159/64 227/159/64 224/160/64
f 148/162/55 145/161/55 223/161/55 228/162/55
f 134/168/64 129/167/64 213/167/64 226/168/64
f 150/170/55 147/169/55 225/169/55 214/170/55
