# Blender 5.2.1 LTS
# www.blender.org
mtllib Screws.mtl
o Cylinder.019
v 0.101068 0.011262 0.426328
v 0.103543 0.011262 0.426991
v 0.105355 0.011262 0.428803
v 0.106018 0.011262 0.431278
v 0.105355 0.011262 0.433753
v 0.103543 0.011262 0.435565
v 0.101068 0.011262 0.436228
v 0.098593 0.011262 0.435565
v 0.096781 0.011262 0.433753
v 0.096118 0.011262 0.431278
v 0.096781 0.011262 0.428803
v 0.098593 0.011262 0.426991
v 0.101111 0.011992 0.431638
v 0.101024 0.011992 0.430918
v 0.097909 0.012702 0.431827
v 0.098098 0.012513 0.431638
v 0.104038 0.012513 0.431638
v 0.104227 0.012702 0.431827
v 0.098098 0.012513 0.430918
v 0.097909 0.012702 0.430729
v 0.104038 0.012513 0.430918
v 0.104227 0.012702 0.430729
v 0.100708 0.012513 0.430918
v 0.100519 0.012702 0.430729
v 0.101617 0.012702 0.430729
v 0.101428 0.012513 0.430918
v 0.100708 0.012513 0.428308
v 0.100519 0.012702 0.428119
v 0.101428 0.012513 0.428308
v 0.101617 0.012702 0.428119
v 0.101428 0.012513 0.431638
v 0.101617 0.012702 0.431827
v 0.100519 0.012702 0.431827
v 0.100708 0.012513 0.431638
v 0.100708 0.012513 0.434248
v 0.100519 0.012702 0.434437
v 0.101428 0.012513 0.434248
v 0.101617 0.012702 0.434437
v 0.100708 0.012114 0.434248
v 0.100830 0.011992 0.434125
v 0.104038 0.012114 0.431638
v 0.103915 0.011992 0.431515
v 0.100830 0.011992 0.428430
v 0.100708 0.012114 0.428308
v 0.101305 0.011992 0.434125
v 0.101428 0.012114 0.434248
v 0.098220 0.011992 0.431515
v 0.098098 0.012114 0.431638
v 0.101305 0.011992 0.428430
v 0.101428 0.012114 0.428308
v 0.103915 0.011992 0.431040
v 0.104038 0.012114 0.430918
v 0.098220 0.011992 0.431040
v 0.098098 0.012114 0.430918
v 0.100708 0.012114 0.431638
v 0.100830 0.011992 0.431515
v 0.101305 0.011992 0.431515
v 0.101428 0.012114 0.431638
v 0.100830 0.011992 0.431040
v 0.100708 0.012114 0.430918
v 0.101428 0.012114 0.430918
v 0.101305 0.011992 0.431040
v 0.101068 0.012702 0.426794
v 0.101068 0.012251 0.426328
v 0.103310 0.012702 0.427395
v 0.103543 0.012251 0.426991
v 0.104951 0.012702 0.429036
v 0.105355 0.012251 0.428803
v 0.105551 0.012702 0.431278
v 0.106018 0.012251 0.431278
v 0.104951 0.012702 0.433519
v 0.105355 0.012251 0.433753
v 0.103310 0.012702 0.435161
v 0.103543 0.012251 0.435565
v 0.101068 0.012702 0.435761
v 0.101068 0.012251 0.436228
v 0.098826 0.012702 0.435161
v 0.098593 0.012251 0.435565
v 0.097185 0.012702 0.433519
v 0.096781 0.012251 0.433753
v 0.096584 0.012702 0.431278
v 0.096118 0.012251 0.431278
v 0.097185 0.012702 0.429036
v 0.096781 0.012251 0.428803
v 0.098593 0.012251 0.426991
v 0.098826 0.012702 0.427395
v -0.101715 0.011262 0.426328
v -0.099240 0.011262 0.426991
v -0.097428 0.011262 0.428803
v -0.096765 0.011262 0.431278
v -0.097428 0.011262 0.433753
v -0.099240 0.011262 0.435565
v -0.101715 0.011262 0.436228
v -0.104190 0.011262 0.435565
v -0.106002 0.011262 0.433753
v -0.106665 0.011262 0.431278
v -0.106002 0.011262 0.428803
v -0.104190 0.011262 0.426991
v -0.101671 0.011992 0.431638
v -0.101759 0.011992 0.430918
v -0.104874 0.012702 0.431827
v -0.104685 0.012513 0.431638
v -0.098745 0.012513 0.431638
v -0.098556 0.012702 0.431827
v -0.104685 0.012513 0.430918
v -0.104874 0.012702 0.430729
v -0.098745 0.012513 0.430918
v -0.098556 0.012702 0.430729
v -0.102075 0.012513 0.430918
v -0.102264 0.012702 0.430729
v -0.101166 0.012702 0.430729
v -0.101355 0.012513 0.430918
v -0.102075 0.012513 0.428308
v -0.102264 0.012702 0.428119
v -0.101355 0.012513 0.428308
v -0.101166 0.012702 0.428119
v -0.101355 0.012513 0.431638
v -0.101166 0.012702 0.431827
v -0.102264 0.012702 0.431827
v -0.102075 0.012513 0.431638
v -0.102075 0.012513 0.434248
v -0.102264 0.012702 0.434437
v -0.101355 0.012513 0.434248
v -0.101166 0.012702 0.434437
v -0.102075 0.012114 0.434248
v -0.101953 0.011992 0.434125
v -0.098745 0.012114 0.431638
v -0.098868 0.011992 0.431515
v -0.101953 0.011992 0.428430
v -0.102075 0.012114 0.428308
v -0.101478 0.011992 0.434125
v -0.101355 0.012114 0.434248
v -0.104563 0.011992 0.431515
v -0.104685 0.012114 0.431638
v -0.101478 0.011992 0.428430
v -0.101355 0.012114 0.428308
v -0.098868 0.011992 0.431040
v -0.098745 0.012114 0.430918
v -0.104563 0.011992 0.431040
v -0.104685 0.012114 0.430918
v -0.102075 0.012114 0.431638
v -0.101953 0.011992 0.431515
v -0.101478 0.011992 0.431515
v -0.101355 0.012114 0.431638
v -0.101953 0.011992 0.431040
v -0.102075 0.012114 0.430918
v -0.101355 0.012114 0.430918
v -0.101478 0.011992 0.431040
v -0.101715 0.012702 0.426794
v -0.101715 0.012251 0.426328
v -0.099473 0.012702 0.427395
v -0.099240 0.012251 0.426991
v -0.097832 0.012702 0.429036
v -0.097428 0.012251 0.428803
v -0.097232 0.012702 0.431278
v -0.096765 0.012251 0.431278
v -0.097832 0.012702 0.433519
v -0.097428 0.012251 0.433753
v -0.099473 0.012702 0.435160
v -0.099240 0.012251 0.435565
v -0.101715 0.012702 0.435761
v -0.101715 0.012251 0.436228
v -0.103957 0.012702 0.435160
v -0.104190 0.012251 0.435565
v -0.105598 0.012702 0.433519
v -0.106002 0.012251 0.433753
v -0.106198 0.012702 0.431278
v -0.106665 0.012251 0.431278
v -0.105598 0.012702 0.429036
v -0.106002 0.012251 0.428803
v -0.104190 0.012251 0.426991
v -0.103957 0.012702 0.427395
v -0.101715 0.011262 -0.437030
v -0.099240 0.011262 -0.436367
v -0.097428 0.011262 -0.434555
v -0.096765 0.011262 -0.432080
v -0.097428 0.011262 -0.429605
v -0.099240 0.011262 -0.427794
v -0.101715 0.011262 -0.427130
v -0.104190 0.011262 -0.427794
v -0.106002 0.011262 -0.429605
v -0.106665 0.011262 -0.432080
v -0.106002 0.011262 -0.434555
v -0.104190 0.011262 -0.436367
v -0.101671 0.011992 -0.431720
v -0.101759 0.011992 -0.432440
v -0.104874 0.012702 -0.431531
v -0.104685 0.012513 -0.431720
v -0.098745 0.012513 -0.431720
v -0.098556 0.012702 -0.431531
v -0.104685 0.012513 -0.432440
v -0.104874 0.012702 -0.432630
v -0.098745 0.012513 -0.432440
v -0.098556 0.012702 -0.432630
v -0.102075 0.012513 -0.432440
v -0.102264 0.012702 -0.432630
v -0.101166 0.012702 -0.432630
v -0.101355 0.012513 -0.432440
v -0.102075 0.012513 -0.435050
v -0.102264 0.012702 -0.435239
v -0.101355 0.012513 -0.435050
v -0.101166 0.012702 -0.435239
v -0.101355 0.012513 -0.431720
v -0.101166 0.012702 -0.431531
v -0.102264 0.012702 -0.431531
v -0.102075 0.012513 -0.431720
v -0.102075 0.012513 -0.429110
v -0.102264 0.012702 -0.428921
v -0.101355 0.012513 -0.429110
v -0.101166 0.012702 -0.428921
v -0.102075 0.012114 -0.429110
v -0.101953 0.011992 -0.429233
v -0.098745 0.012114 -0.431720
v -0.098868 0.011992 -0.431843
v -0.101953 0.011992 -0.434928
v -0.102075 0.012114 -0.435050
v -0.101478 0.011992 -0.429233
v -0.101355 0.012114 -0.429110
v -0.104563 0.011992 -0.431843
v -0.104685 0.012114 -0.431720
v -0.101478 0.011992 -0.434928
v -0.101355 0.012114 -0.435050
v -0.098868 0.011992 -0.432318
v -0.098745 0.012114 -0.432440
v -0.104563 0.011992 -0.432318
v -0.104685 0.012114 -0.432440
v -0.102075 0.012114 -0.431720
v -0.101953 0.011992 -0.431843
v -0.101478 0.011992 -0.431843
v -0.101355 0.012114 -0.431720
v -0.101953 0.011992 -0.432318
v -0.102075 0.012114 -0.432440
v -0.101355 0.012114 -0.432440
v -0.101478 0.011992 -0.432318
v -0.101715 0.012702 -0.436564
v -0.101715 0.012251 -0.437030
v -0.099473 0.012702 -0.435963
v -0.099240 0.012251 -0.436367
v -0.097832 0.012702 -0.434322
v -0.097428 0.012251 -0.434555
v -0.097232 0.012702 -0.432080
v -0.096765 0.012251 -0.432080
v -0.097832 0.012702 -0.429839
v -0.097428 0.012251 -0.429605
v -0.099473 0.012702 -0.428198
v -0.099240 0.012251 -0.427794
v -0.101715 0.012702 -0.427597
v -0.101715 0.012251 -0.427130
v -0.103957 0.012702 -0.428198
v -0.104190 0.012251 -0.427794
v -0.105598 0.012702 -0.429839
v -0.106002 0.012251 -0.429605
v -0.106198 0.012702 -0.432080
v -0.106665 0.012251 -0.432080
v -0.105598 0.012702 -0.434322
v -0.106002 0.012251 -0.434555
v -0.104190 0.012251 -0.436367
v -0.103957 0.012702 -0.435963
v 0.101068 0.011262 -0.437030
v 0.103543 0.011262 -0.436367
v 0.105355 0.011262 -0.434555
v 0.106018 0.011262 -0.432080
v 0.105355 0.011262 -0.429605
v 0.103543 0.011262 -0.427794
v 0.101068 0.011262 -0.427130
v 0.098593 0.011262 -0.427794
v 0.096781 0.011262 -0.429605
v 0.096118 0.011262 -0.432080
v 0.096781 0.011262 -0.434555
v 0.098593 0.011262 -0.436367
v 0.101111 0.011992 -0.431720
v 0.101024 0.011992 -0.432440
v 0.097909 0.012702 -0.431531
v 0.098098 0.012513 -0.431720
v 0.104038 0.012513 -0.431720
v 0.104227 0.012702 -0.431531
v 0.098098 0.012513 -0.432440
v 0.097909 0.012702 -0.432630
v 0.104038 0.012513 -0.432440
v 0.104227 0.012702 -0.432630
v 0.100708 0.012513 -0.432440
v 0.100519 0.012702 -0.432630
v 0.101617 0.012702 -0.432630
v 0.101428 0.012513 -0.432440
v 0.100708 0.012513 -0.435050
v 0.100519 0.012702 -0.435239
v 0.101428 0.012513 -0.435050
v 0.101617 0.012702 -0.435239
v 0.101428 0.012513 -0.431720
v 0.101617 0.012702 -0.431531
v 0.100519 0.012702 -0.431531
v 0.100708 0.012513 -0.431720
v 0.100708 0.012513 -0.429110
v 0.100519 0.012702 -0.428921
v 0.101428 0.012513 -0.429110
v 0.101617 0.012702 -0.428921
v 0.100708 0.012114 -0.429110
v 0.100830 0.011992 -0.429233
v 0.104038 0.012114 -0.431720
v 0.103915 0.011992 -0.431843
v 0.100830 0.011992 -0.434928
v 0.100708 0.012114 -0.435050
v 0.101305 0.011992 -0.429233
v 0.101428 0.012114 -0.429110
v 0.098220 0.011992 -0.431843
v 0.098098 0.012114 -0.431720
v 0.101305 0.011992 -0.434928
v 0.101428 0.012114 -0.435050
v 0.103915 0.011992 -0.432318
v 0.104038 0.012114 -0.432440
v 0.098220 0.011992 -0.432318
v 0.098098 0.012114 -0.432440
v 0.100708 0.012114 -0.431720
v 0.100830 0.011992 -0.431843
v 0.101305 0.011992 -0.431843
v 0.101428 0.012114 -0.431720
v 0.100830 0.011992 -0.432318
v 0.100708 0.012114 -0.432440
v 0.101428 0.012114 -0.432440
v 0.101305 0.011992 -0.432318
v 0.101068 0.012702 -0.436564
v 0.101068 0.012251 -0.437030
v 0.103310 0.012702 -0.435963
v 0.103543 0.012251 -0.436367
v 0.104951 0.012702 -0.434322
v 0.105355 0.012251 -0.434555
v 0.105551 0.012702 -0.432080
v 0.106018 0.012251 -0.432080
v 0.104951 0.012702 -0.429839
v 0.105355 0.012251 -0.429605
v 0.103310 0.012702 -0.428198
v 0.103543 0.012251 -0.427794
v 0.101068 0.012702 -0.427597
v 0.101068 0.012251 -0.427130
v 0.098826 0.012702 -0.428198
v 0.098593 0.012251 -0.427794
v 0.097185 0.012702 -0.429839
v 0.096781 0.012251 -0.429605
v 0.096584 0.012702 -0.432080
v 0.096118 0.012251 -0.432080
v 0.097185 0.012702 -0.434322
v 0.096781 0.012251 -0.434555
v 0.098593 0.012251 -0.436367
v 0.098826 0.012702 -0.435963
vn -0.0000 -1.0000 -0.0000
vn -0.1101 0.9878 0.1101
vn -0.3002 0.9054 0.3002
vn -0.0000 0.2880 0.9576
vn -0.0000 0.4443 0.8959
vn 0.8959 0.4443 -0.0000
vn 0.2198 0.9505 0.2198
vn 0.1101 0.9878 -0.1101
vn -0.0000 0.2879 0.9577
vn 0.3002 0.9054 0.3003
vn 0.9576 0.2880 -0.0000
vn 0.8958 0.4444 -0.0000
vn 0.2197 0.9505 0.2197
vn -0.0000 0.4444 0.8958
vn -0.2197 0.9505 0.2197
vn -0.8958 0.4444 -0.0000
vn -0.9576 0.2880 -0.0000
vn 0.3002 0.9054 -0.3003
vn -0.0000 0.2879 -0.9577
vn -0.0000 0.4443 -0.8959
vn -0.2198 0.9505 -0.2198
vn -0.8959 0.4443 -0.0000
vn -0.3002 0.9054 -0.3003
vn -0.2197 0.9505 -0.2197
vn 0.2197 0.9505 -0.2197
vn -0.0000 0.4444 -0.8958
vn -0.0000 0.2881 -0.9576
vn -0.0000 0.4445 -0.8958
vn 0.1100 0.9878 -0.1100
vn 0.3002 0.9054 -0.3001
vn -0.3002 0.9054 -0.3001
vn -0.1100 0.9878 -0.1100
vn 0.3002 0.9054 0.3002
vn -0.1100 0.9878 0.1101
vn 0.1100 0.9878 0.1101
vn 0.3002 0.9054 -0.3002
vn -0.3002 0.9054 0.3003
vn -0.3002 0.9054 -0.3002
vn -0.0000 0.2880 -0.9576
vn -0.0000 1.0000 -0.0000
vn -0.0000 0.9049 -0.4257
vn 0.2129 0.9049 -0.3687
vn 0.4647 0.3693 -0.8048
vn -0.0000 0.3693 -0.9293
vn 0.3687 0.9049 -0.2129
vn 0.8048 0.3692 -0.4647
vn 0.4257 0.9048 -0.0000
vn 0.9293 0.3692 -0.0000
vn 0.3687 0.9048 0.2129
vn 0.8048 0.3692 0.4647
vn 0.2129 0.9048 0.3687
vn 0.4647 0.3692 0.8048
vn -0.0000 0.9048 0.4257
vn -0.0000 0.3692 0.9293
vn -0.2129 0.9048 0.3687
vn -0.4647 0.3692 0.8048
vn -0.3687 0.9049 0.2129
vn -0.8048 0.3692 0.4647
vn -0.4257 0.9048 -0.0000
vn -0.9293 0.3692 -0.0000
vn -0.3687 0.9048 -0.2129
vn -0.8048 0.3692 -0.4647
vn -0.4647 0.3693 -0.8048
vn -0.2129 0.9049 -0.3687
vn -0.5000 -0.0000 -0.8660
vn -0.0000 -0.0000 -1.0000
vn 0.5000 -0.0000 -0.8660
vn 0.8660 -0.0000 -0.5000
vn 1.0000 -0.0000 -0.0000
vn 0.8660 -0.0000 0.5000
vn 0.5000 -0.0000 0.8660
vn -0.0000 -0.0000 1.0000
vn -0.5000 -0.0000 0.8660
vn -0.8660 -0.0000 0.5000
vn -1.0000 -0.0000 -0.0000
vn -0.8660 -0.0000 -0.5000
vn 0.8959 0.4444 -0.0000
vn -0.8959 0.4444 -0.0000
vn -0.3002 0.9055 -0.3000
vn -0.0000 0.4446 -0.8957
vn -0.0000 0.2882 -0.9576
vn 0.9576 0.2879 -0.0000
vn -0.9576 0.2879 -0.0000
vn -0.0000 0.9048 -0.4257
vn -0.0000 0.3692 -0.9293
vn 0.8048 0.3693 -0.4647
vn 0.4257 0.9049 -0.0000
vn 0.9293 0.3693 -0.0000
vn 0.3687 0.9049 0.2129
vn 0.8048 0.3693 0.4647
vn 0.2129 0.9049 0.3687
vn 0.4647 0.3693 0.8048
vn -0.2129 0.9049 0.3687
vn -0.4647 0.3693 0.8048
vn -0.8048 0.3693 0.4647
vn -0.4257 0.9049 -0.0000
vn -0.9293 0.3693 -0.0000
vn -0.3687 0.9049 -0.2129
vn -0.8048 0.3693 -0.4647
vn -0.1100 0.9878 0.1100
vn -0.3002 0.9054 0.3001
vn -0.0000 0.2881 0.9576
vn -0.0000 0.4445 0.8958
vn 0.3002 0.9054 0.3001
vn -0.2198 0.9505 0.2198
vn -0.2198 0.9505 -0.2197
vn 0.2198 0.9505 -0.2197
vn -0.0000 0.4442 -0.8959
vn -0.1101 0.9878 -0.1101
vn 0.1101 0.9878 0.1101
vn 0.2198 0.9505 0.2197
vn -0.2198 0.9505 0.2197
vn -0.0000 0.4442 0.8959
vn -0.3687 0.9048 0.2129
vt 0.542154 0.370000
vt 0.630000 0.457846
vt 0.750000 0.490000
vt 0.870000 0.457846
vt 0.957846 0.370000
vt 0.990000 0.250000
vt 0.957846 0.130000
vt 0.870000 0.042154
vt 0.750000 0.010000
vt 0.630000 0.042154
vt 0.542154 0.130000
vt 0.510000 0.250000
vt 0.403169 0.276623
vt 0.276623 0.276623
vt 0.267455 0.267455
vt 0.394000 0.267455
vt 0.106000 0.232545
vt 0.106000 0.267455
vt 0.096831 0.276623
vt 0.096831 0.223377
vt 0.232545 0.267455
vt 0.223377 0.276623
vt 0.232545 0.394000
vt 0.223377 0.403169
vt 0.267455 0.394000
vt 0.276623 0.403169
vt 0.223377 0.223377
vt 0.232545 0.232545
vt 0.403169 0.223377
vt 0.394000 0.232545
vt 0.267455 0.232545
vt 0.276623 0.223377
vt 0.267455 0.106000
vt 0.276623 0.096831
vt 0.223377 0.096831
vt 0.232545 0.106000
vt 0.125000 0.500000
vt 0.125000 0.609848
vt 0.167546 0.615006
vt 0.167546 0.505157
vt 0.167546 0.744843
vt 0.167546 0.634994
vt 0.125000 0.640152
vt 0.125000 0.750000
vt 0.332454 0.505157
vt 0.387764 0.500000
vt 0.387764 0.750000
vt 0.392018 0.640152
vt 0.332454 0.634994
vt 0.332454 0.744843
vt 0.332454 0.615006
vt 0.392018 0.609848
vt 0.167546 0.634994
vt 0.125000 0.640152
vt 0.167546 0.615006
vt 0.167546 0.505157
vt 0.387764 0.500000
vt 0.392018 0.640152
vt 0.332454 0.634994
vt 0.332454 0.744843
vt 0.332454 0.615006
vt 0.447350 0.109848
vt 0.447350 0.000000
vt 0.392018 0.000000
vt 0.392018 0.109848
vt 0.265152 0.640152
vt 0.392018 1.000000
vt 0.447350 1.000000
vt 0.447350 0.750000
vt 0.447350 0.109848
vt 0.392018 0.109848
vt 0.392018 0.250000
vt 0.447350 0.250000
vt 0.447350 0.140152
vt 0.392018 0.140152
vt 0.234848 0.609848
vt 0.447350 0.500000
vt 0.447350 0.640152
vt 0.392018 0.140152
vt 0.447350 0.140152
vt 0.447350 0.609848
vt 0.447350 0.640152
vt 0.375000 0.623163
vt 0.125000 0.626837
vt 0.250000 0.467376
vt 0.358688 0.438253
vt 0.370000 0.457846
vt 0.250000 0.490000
vt 0.438253 0.358688
vt 0.457846 0.370000
vt 0.467376 0.250000
vt 0.490000 0.250000
vt 0.438253 0.141312
vt 0.457846 0.130000
vt 0.358688 0.061747
vt 0.370000 0.042154
vt 0.250000 0.032624
vt 0.250000 0.010000
vt 0.141312 0.061747
vt 0.130000 0.042154
vt 0.061747 0.141312
vt 0.042154 0.130000
vt 0.032624 0.250000
vt 0.010000 0.250000
vt 0.061747 0.358688
vt 0.042154 0.370000
vt 0.130000 0.457846
vt 0.141312 0.438253
vt 0.083333 0.500000
vt 0.083333 0.843501
vt 0.000000 0.843501
vt 0.000000 0.500000
vt 1.000000 0.500000
vt 1.000000 0.843501
vt 0.916667 0.843501
vt 0.916667 0.500000
vt 0.833333 0.843501
vt 0.833333 0.500000
vt 0.750000 0.843501
vt 0.750000 0.500000
vt 0.666667 0.843501
vt 0.666667 0.500000
vt 0.583333 0.843501
vt 0.583333 0.500000
vt 0.500000 0.843501
vt 0.500000 0.500000
vt 0.416667 0.843501
vt 0.416667 0.500000
vt 0.333333 0.843501
vt 0.333333 0.500000
vt 0.250000 0.843501
vt 0.250000 0.500000
vt 0.166667 0.843501
vt 0.166667 0.500000
s 1
usemtl Material.176
f 11/1/1 12/2/1 1/3/1 2/4/1 3/5/1 4/6/1 5/7/1 6/8/1 7/9/1 8/10/1 9/11/1 10/12/1
f 22/13/2 25/14/3 26/15/4 21/16/5
f 16/17/6 19/18/6 20/19/7 15/20/8
f 19/18/5 23/21/9 24/22/10 20/19/7
f 23/21/11 27/23/12 28/24/13 24/22/10
f 27/23/14 29/25/14 30/26/15 28/24/13
f 25/14/3 30/26/15 29/25/16 26/15/17
f 15/20/8 33/27/18 34/28/19 16/17/20
f 18/29/21 22/13/2 21/16/22 17/30/22
f 17/30/20 31/31/19 32/32/23 18/29/21
f 31/31/17 37/33/16 38/34/24 32/32/23
f 36/35/25 38/34/24 37/33/26 35/36/26
f 33/27/18 36/35/25 35/36/12 34/28/11
f 48/37/27 55/38/28 56/39/29 47/40/30
f 42/41/31 57/42/32 58/43/28 41/44/27
f 47/40/30 53/45/33 54/46/11 48/37/11
f 52/47/4 61/48/14 62/49/34 51/50/3
f 53/45/33 59/51/35 60/52/14 54/46/4
f 41/44/17 52/47/17 51/50/3 42/41/31
f 40/41/36 56/53/29 55/54/6 39/44/11
f 44/37/11 60/38/6 59/55/35 43/56/10
f 43/56/10 49/45/37 50/57/9 44/37/9
f 46/47/17 58/58/22 57/59/32 45/60/38
f 49/45/37 62/61/34 61/52/22 50/57/17
f 39/44/39 46/47/39 45/60/38 40/41/36
f 34/62/11 35/63/12 39/64/11 55/65/6
f 56/53/29 40/41/36 45/60/38 57/59/32 13/66/40
f 46/47/39 39/67/39 35/68/26 37/69/26
f 31/70/19 17/63/20 41/64/27 58/71/28
f 57/42/32 42/41/31 51/50/3 62/49/34
f 52/47/17 41/67/17 17/68/22 21/69/22
f 44/72/11 27/73/12 23/74/11 60/75/6
f 62/61/34 49/45/37 43/56/10 59/55/35 14/76/40
f 27/73/14 44/72/9 50/57/9 29/77/14
f 58/58/22 46/47/17 37/69/16 31/78/17
f 55/79/28 48/72/27 16/73/20 34/80/19
f 59/51/35 53/45/33 47/40/30 56/39/29
f 16/73/6 48/72/11 54/46/11 19/77/6
f 26/81/17 29/77/16 50/57/17 61/52/22
f 52/47/4 21/69/5 26/82/4 61/48/14
f 19/77/5 54/46/4 60/52/14 23/81/9
f 14/83/40 59/51/35 56/39/29 13/84/40
f 13/84/40 57/42/32 62/49/34 14/83/40
f 63/85/41 65/86/42 66/87/43 64/88/44
f 65/86/42 67/89/45 68/90/46 66/87/43
f 67/89/45 69/91/47 70/92/48 68/90/46
f 69/91/47 71/93/49 72/94/50 70/92/48
f 71/93/49 73/95/51 74/96/52 72/94/50
f 73/95/51 75/97/53 76/98/54 74/96/52
f 75/97/53 77/99/55 78/100/56 76/98/54
f 77/99/55 79/101/57 80/102/58 78/100/56
f 79/101/57 81/103/59 82/104/60 80/102/58
f 81/103/59 83/105/61 84/106/62 82/104/60
f 64/88/44 85/107/63 86/108/64 63/85/41
f 83/105/61 86/108/64 85/107/63 84/106/62
f 12/109/65 85/110/63 64/111/44 1/112/66
f 1/113/66 64/114/44 66/115/43 2/116/67
f 22/13/2 67/89/45 65/86/42 63/85/41 86/108/64 83/105/61 81/103/59 79/101/57 15/20/8 20/19/7 24/22/10 28/24/13 30/26/15 25/14/3
f 2/116/67 66/115/43 68/117/46 3/118/68
f 3/118/68 68/117/46 70/119/48 4/120/69
f 15/20/8 79/101/57 77/99/55 75/97/53 73/95/51 71/93/49 69/91/47 67/89/45 22/13/2 18/29/21 32/32/23 38/34/24 36/35/25 33/27/18
f 4/120/69 70/119/48 72/121/50 5/122/70
f 5/122/70 72/121/50 74/123/52 6/124/71
f 6/124/71 74/123/52 76/125/54 7/126/72
f 7/126/72 76/125/54 78/127/56 8/128/73
f 8/128/73 78/127/56 80/129/58 9/130/74
f 9/130/74 80/129/58 82/131/60 10/132/75
f 10/132/75 82/131/60 84/133/62 11/134/76
f 11/134/76 84/133/62 85/110/63 12/109/65
f 97/1/1 98/2/1 87/3/1 88/4/1 89/5/1 90/6/1 91/7/1 92/8/1 93/9/1 94/10/1 95/11/1 96/12/1
f 108/13/2 111/14/3 112/15/4 107/16/5
f 102/17/6 105/18/6 106/19/7 101/20/8
f 105/18/5 109/21/4 110/22/33 106/19/7
f 109/21/11 113/23/77 114/24/13 110/22/33
f 113/23/14 115/25/14 116/26/15 114/24/13
f 111/14/3 116/26/15 115/25/78 112/15/17
f 101/20/8 119/27/36 120/28/39 102/17/20
f 104/29/21 108/13/2 107/16/22 103/30/22
f 103/30/20 117/31/39 118/32/38 104/29/21
f 117/31/17 123/33/78 124/34/24 118/32/38
f 122/35/25 124/34/24 123/33/26 121/36/26
f 119/27/36 122/35/25 121/36/77 120/28/11
f 134/37/27 141/38/28 142/39/29 133/40/30
f 128/41/79 143/42/32 144/43/80 127/44/81
f 133/40/30 139/45/33 140/46/82 134/37/82
f 138/47/4 147/48/14 148/49/34 137/50/3
f 139/45/33 145/51/35 146/52/14 140/46/4
f 127/44/83 138/47/83 137/50/3 128/41/79
f 126/41/36 142/53/29 141/54/6 125/44/11
f 130/37/11 146/38/6 145/55/35 129/56/33
f 129/56/33 135/45/3 136/57/4 130/37/4
f 132/47/17 144/58/22 143/59/32 131/60/38
f 135/45/3 148/61/34 147/52/22 136/57/17
f 125/44/39 132/47/39 131/60/38 126/41/36
f 120/62/11 121/63/77 125/64/11 141/65/6
f 142/53/29 126/41/36 131/60/38 143/59/32 99/66/40
f 132/47/39 125/67/39 121/68/26 123/69/26
f 117/70/39 103/63/20 127/64/81 144/71/80
f 143/42/32 128/41/79 137/50/3 148/49/34
f 138/47/83 127/67/83 103/68/22 107/69/22
f 130/72/11 113/73/77 109/74/11 146/75/6
f 148/61/34 135/45/3 129/56/33 145/55/35 100/76/40
f 113/73/14 130/72/4 136/57/4 115/77/14
f 144/58/22 132/47/17 123/69/78 117/78/17
f 141/79/28 134/72/27 102/73/20 120/80/39
f 145/51/35 139/45/33 133/40/30 142/39/29
f 102/73/6 134/72/82 140/46/82 105/77/6
f 112/81/17 115/77/78 136/57/17 147/52/22
f 138/47/4 107/69/5 112/82/4 147/48/14
f 105/77/5 140/46/4 146/52/14 109/81/4
f 100/83/40 145/51/35 142/39/29 99/84/40
f 99/84/40 143/42/32 148/49/34 100/83/40
f 149/85/84 151/86/42 152/87/43 150/88/85
f 151/86/42 153/89/45 154/90/86 152/87/43
f 153/89/45 155/91/87 156/92/88 154/90/86
f 155/91/87 157/93/89 158/94/90 156/92/88
f 157/93/89 159/95/91 160/96/92 158/94/90
f 159/95/91 161/97/53 162/98/54 160/96/92
f 161/97/53 163/99/93 164/100/94 162/98/54
f 163/99/93 165/101/57 166/102/95 164/100/94
f 165/101/57 167/103/96 168/104/97 166/102/95
f 167/103/96 169/105/98 170/106/99 168/104/97
f 150/88/85 171/107/63 172/108/64 149/85/84
f 169/105/98 172/108/64 171/107/63 170/106/99
f 98/109/65 171/110/63 150/111/85 87/112/66
f 87/113/66 150/114/85 152/115/43 88/116/67
f 108/13/2 153/89/45 151/86/42 149/85/84 172/108/64 169/105/98 167/103/96 165/101/57 101/20/8 106/19/7 110/22/33 114/24/13 116/26/15 111/14/3
f 88/116/67 152/115/43 154/117/86 89/118/68
f 89/118/68 154/117/86 156/119/88 90/120/69
f 101/20/8 165/101/57 163/99/93 161/97/53 159/95/91 157/93/89 155/91/87 153/89/45 108/13/2 104/29/21 118/32/38 124/34/24 122/35/25 119/27/36
f 90/120/69 156/119/88 158/121/90 91/122/70
f 91/122/70 158/121/90 160/123/92 92/124/71
f 92/124/71 160/123/92 162/125/54 93/126/72
f 93/126/72 162/125/54 164/127/94 94/128/73
f 94/128/73 164/127/94 166/129/95 95/130/74
f 95/130/74 166/129/95 168/131/97 96/132/75
f 96/132/75 168/131/97 170/133/99 97/134/76
f 97/134/76 170/133/99 171/110/63 98/109/65
f 183/1/1 184/2/1 173/3/1 174/4/1 175/5/1 176/6/1 177/7/1 178/8/1 179/9/1 180/10/1 181/11/1 182/12/1
f 194/13/100 197/14/101 198/15/102 193/16/103
f 188/17/12 191/18/12 192/19/13 187/20/29
f 191/18/103 195/21/102 196/22/104 192/19/13
f 195/21/11 199/23/6 200/24/7 196/22/104
f 199/23/5 201/25/5 202/26/105 200/24/7
f 197/14/101 202/26/105 201/25/22 198/15/17
f 187/20/29 205/27/30 206/28/27 188/17/28
f 190/29/24 194/13/100 193/16/16 189/30/16
f 189/30/28 203/31/27 204/32/31 190/29/24
f 203/31/17 209/33/22 210/34/106 204/32/31
f 208/35/107 210/34/106 209/33/26 207/36/26
f 205/27/30 208/35/107 207/36/6 206/28/11
f 220/37/19 227/38/108 228/39/8 219/40/18
f 214/41/23 229/42/109 230/43/108 213/44/19
f 219/40/18 225/45/10 226/46/11 220/37/11
f 224/47/9 233/48/5 234/49/2 223/50/37
f 225/45/10 231/51/110 232/52/5 226/46/9
f 213/44/17 224/47/17 223/50/37 214/41/23
f 212/41/36 228/53/8 227/54/6 211/44/82
f 216/37/82 232/38/6 231/55/110 215/56/104
f 215/56/104 221/45/101 222/57/102 216/37/102
f 218/47/83 230/58/22 229/59/109 217/60/38
f 221/45/101 234/61/2 233/52/22 222/57/83
f 211/44/39 218/47/39 217/60/38 212/41/36
f 206/62/11 207/63/6 211/64/82 227/65/6
f 228/53/8 212/41/36 217/60/38 229/59/109 185/66/40
f 218/47/39 211/67/39 207/68/26 209/69/26
f 203/70/27 189/63/28 213/64/19 230/71/108
f 229/42/109 214/41/23 223/50/37 234/49/2
f 224/47/17 213/67/17 189/68/16 193/69/16
f 216/72/82 199/73/6 195/74/11 232/75/6
f 234/61/2 221/45/101 215/56/104 231/55/110 186/76/40
f 199/73/5 216/72/102 222/57/102 201/77/5
f 230/58/22 218/47/83 209/69/22 203/78/17
f 227/79/108 220/72/19 188/73/28 206/80/27
f 231/51/110 225/45/10 219/40/18 228/39/8
f 188/73/12 220/72/11 226/46/11 191/77/12
f 198/81/17 201/77/22 222/57/83 233/52/22
f 224/47/9 193/69/103 198/82/102 233/48/5
f 191/77/103 226/46/9 232/52/5 195/81/102
f 186/83/40 231/51/110 228/39/8 185/84/40
f 185/84/40 229/42/109 234/49/2 186/83/40
f 235/85/41 237/86/42 238/87/43 236/88/44
f 237/86/42 239/89/45 240/90/46 238/87/43
f 239/89/45 241/91/87 242/92/88 240/90/46
f 241/91/87 243/93/89 244/94/50 242/92/88
f 243/93/89 245/95/51 246/96/52 244/94/50
f 245/95/51 247/97/53 248/98/54 246/96/52
f 247/97/53 249/99/55 250/100/56 248/98/54
f 249/99/55 251/101/57 252/102/58 250/100/56
f 251/101/57 253/103/96 254/104/97 252/102/58
f 253/103/96 255/105/61 256/106/62 254/104/97
f 236/88/44 257/107/63 258/108/64 235/85/41
f 255/105/61 258/108/64 257/107/63 256/106/62
f 184/109/65 257/110/63 236/111/44 173/112/66
f 173/113/66 236/114/44 238/115/43 174/116/67
f 194/13/100 239/89/45 237/86/42 235/85/41 258/108/64 255/105/61 253/103/96 251/101/57 187/20/29 192/19/13 196/22/104 200/24/7 202/26/105 197/14/101
f 174/116/67 238/115/43 240/117/46 175/118/68
f 175/118/68 240/117/46 242/119/88 176/120/69
f 187/20/29 251/101/57 249/99/55 247/97/53 245/95/51 243/93/89 241/91/87 239/89/45 194/13/100 190/29/24 204/32/31 210/34/106 208/35/107 205/27/30
f 176/120/69 242/119/88 244/121/50 177/122/70
f 177/122/70 244/121/50 246/123/52 178/124/71
f 178/124/71 246/123/52 248/125/54 179/126/72
f 179/126/72 248/125/54 250/127/56 180/128/73
f 180/128/73 250/127/56 252/129/58 181/130/74
f 181/130/74 252/129/58 254/131/97 182/132/75
f 182/132/75 254/131/97 256/133/62 183/134/76
f 183/134/76 256/133/62 257/110/63 184/109/65
f 269/1/1 270/2/1 259/3/1 260/4/1 261/5/1 262/6/1 263/7/1 264/8/1 265/9/1 266/10/1 267/11/1 268/12/1
f 280/13/100 283/14/101 284/15/4 279/16/14
f 274/17/12 277/18/12 278/19/13 273/20/29
f 277/18/14 281/21/4 282/22/104 278/19/13
f 281/21/11 285/23/12 286/24/111 282/22/104
f 285/23/5 287/25/5 288/26/112 286/24/111
f 283/14/101 288/26/112 287/25/16 284/15/17
f 273/20/29 291/27/30 292/28/39 274/17/26
f 276/29/24 280/13/100 279/16/16 275/30/16
f 275/30/26 289/31/39 290/32/31 276/29/24
f 289/31/17 295/33/16 296/34/106 290/32/31
f 294/35/107 296/34/106 295/33/20 293/36/20
f 291/27/30 294/35/107 293/36/12 292/28/11
f 306/37/19 313/38/108 314/39/8 305/40/18
f 300/41/23 315/42/109 316/43/108 299/44/19
f 305/40/18 311/45/10 312/46/11 306/37/11
f 310/47/9 319/48/113 320/49/2 309/50/37
f 311/45/10 317/51/110 318/52/113 312/46/9
f 299/44/17 310/47/17 309/50/37 300/41/23
f 298/41/36 314/53/8 313/54/6 297/44/82
f 302/37/82 318/38/6 317/55/110 301/56/104
f 301/56/104 307/45/101 308/57/102 302/37/102
f 304/47/83 316/58/22 315/59/109 303/60/38
f 307/45/101 320/61/2 319/52/22 308/57/83
f 297/44/39 304/47/39 303/60/38 298/41/36
f 292/62/11 293/63/12 297/64/82 313/65/6
f 314/53/8 298/41/36 303/60/38 315/59/109 271/66/40
f 304/47/39 297/67/39 293/68/20 295/69/20
f 289/70/39 275/63/26 299/64/19 316/71/108
f 315/42/109 300/41/23 309/50/37 320/49/2
f 310/47/17 299/67/17 275/68/16 279/69/16
f 302/72/82 285/73/12 281/74/11 318/75/6
f 320/61/2 307/45/101 301/56/104 317/55/110 272/76/40
f 285/73/5 302/72/102 308/57/102 287/77/5
f 316/58/22 304/47/83 295/69/16 289/78/17
f 313/79/108 306/72/19 274/73/26 292/80/39
f 317/51/110 311/45/10 305/40/18 314/39/8
f 274/73/12 306/72/11 312/46/11 277/77/12
f 284/81/17 287/77/16 308/57/83 319/52/22
f 310/47/9 279/69/14 284/82/4 319/48/113
f 277/77/14 312/46/9 318/52/113 281/81/4
f 272/83/40 317/51/110 314/39/8 271/84/40
f 271/84/40 315/42/109 320/49/2 272/83/40
f 321/85/41 323/86/42 324/87/43 322/88/44
f 323/86/42 325/89/45 326/90/46 324/87/43
f 325/89/45 327/91/87 328/92/88 326/90/46
f 327/91/87 329/93/89 330/94/50 328/92/88
f 329/93/89 331/95/51 332/96/52 330/94/50
f 331/95/51 333/97/53 334/98/54 332/96/52
f 333/97/53 335/99/55 336/100/56 334/98/54
f 335/99/55 337/101/114 338/102/58 336/100/56
f 337/101/114 339/103/59 340/104/60 338/102/58
f 339/103/59 341/105/61 342/106/62 340/104/60
f 322/88/44 343/107/63 344/108/64 321/85/41
f 341/105/61 344/108/64 343/107/63 342/106/62
f 270/109/65 343/110/63 322/111/44 259/112/66
f 259/113/66 322/114/44 324/115/43 260/116/67
f 280/13/100 325/89/45 323/86/42 321/85/41 344/108/64 341/105/61 339/103/59 337/101/114 273/20/29 278/19/13 282/22/104 286/24/111 288/26/112 283/14/101
f 260/116/67 324/115/43 326/117/46 261/118/68
f 261/118/68 326/117/46 328/119/88 262/120/69
f 273/20/29 337/101/114 335/99/55 333/97/53 331/95/51 329/93/89 327/91/87 325/89/45 280/13/100 276/29/24 290/32/31 296/34/106 294/35/107 291/27/30
f 262/120/69 328/119/88 330/121/50 263/122/70
f 263/122/70 330/121/50 332/123/52 264/124/71
f 264/124/71 332/123/52 334/125/54 265/126/72
f 265/126/72 334/125/54 336/127/56 266/128/73
f 266/128/73 336/127/56 338/129/58 267/130/74
f 267/130/74 338/129/58 340/131/60 268/132/75
f 268/132/75 340/131/60 342/133/62 269/134/76
f 269/134/76 342/133/62 343/110/63 270/109/65
