# Blender 5.2.1 LTS
# www.blender.org
mtllib Body.mtl
o Cube.009
v -0.520000 -0.061863 3.240000
v -0.720000 -0.061863 3.040000
v -0.620739 0.052269 2.998885
v -0.478885 0.052269 3.140739
v -0.720000 -0.061863 -3.040000
v -0.520000 -0.061863 -3.240000
v -0.478885 0.052269 -3.140739
v -0.620739 0.052269 -2.998885
v 0.720000 -0.061863 3.040000
v 0.520000 -0.061863 3.240000
v 0.467318 0.086163 3.070375
v 0.550375 0.086163 2.987318
v 0.520000 -0.061863 -3.240000
v 0.720000 -0.061863 -3.040000
v 0.550375 0.086163 -2.987318
v 0.467318 0.086163 -3.070375
v -0.478885 1.030543 3.140739
v -0.620739 1.030543 2.998885
v -0.620739 1.030543 -2.998885
v -0.478885 1.030543 -3.140739
v 0.467318 0.996649 -3.070375
v 0.550375 0.996649 -2.987318
v 0.550375 0.996649 2.987318
v 0.467318 0.996649 3.070375
v 0.478885 0.052269 -3.140739
v 0.620739 0.052269 -2.998885
v 0.478885 0.052269 3.140739
v 0.478885 1.030543 -3.140739
v 0.620739 1.030543 -2.998885
v 0.478885 1.030543 3.140739
v -0.520000 0.015034 3.240000
v -0.501081 0.052269 3.194325
v -0.518560 0.029283 3.236523
v -0.514459 0.041363 3.226622
v -0.508321 0.049435 3.211804
v -0.674325 0.052269 3.021081
v -0.720000 0.015034 3.040000
v -0.691804 0.049435 3.028321
v -0.706622 0.041363 3.034459
v -0.716523 0.029283 3.038560
v -0.720000 0.015034 -3.040000
v -0.674325 0.052269 -3.021081
v -0.716523 0.029283 -3.038560
v -0.706622 0.041363 -3.034459
v -0.691804 0.049435 -3.028321
v -0.501081 0.052269 -3.194325
v -0.520000 0.015034 -3.240000
v -0.508321 0.049435 -3.211804
v -0.514459 0.041363 -3.226622
v -0.518560 0.029283 -3.236523
v 0.520000 0.015034 -3.240000
v 0.501081 0.052269 -3.194325
v 0.518560 0.029283 -3.236523
v 0.514459 0.041363 -3.226622
v 0.508321 0.049435 -3.211804
v 0.674325 0.052269 -3.021081
v 0.720000 0.015034 -3.040000
v 0.691804 0.049435 -3.028321
v 0.706622 0.041363 -3.034459
v 0.716523 0.029283 -3.038560
v 0.720000 0.015034 3.040000
v 0.674325 0.052269 3.021081
v 0.716523 0.029283 3.038560
v 0.706622 0.041363 3.034459
v 0.691804 0.049435 3.028321
v 0.501081 0.052269 3.194325
v 0.520000 0.015034 3.240000
v 0.508321 0.049435 3.211804
v 0.514459 0.041363 3.226622
v 0.518560 0.029283 3.236523
v 0.486100 0.060588 -3.133523
v 0.488496 0.082303 -3.098249
v 0.491369 0.068105 -3.125752
v 0.493675 0.074872 -3.116319
v 0.492666 0.079857 -3.106662
v 0.578249 0.082303 -3.008497
v 0.613523 0.060588 -3.006100
v 0.586661 0.079857 -3.012666
v 0.596319 0.074872 -3.013675
v 0.605752 0.068105 -3.011369
v 0.613523 0.060588 3.006100
v 0.578249 0.082303 3.008497
v 0.605752 0.068105 3.011369
v 0.596319 0.074872 3.013675
v 0.586661 0.079857 3.012666
v 0.488496 0.082303 3.098249
v 0.486100 0.060588 3.133523
v 0.492666 0.079857 3.106662
v 0.493675 0.074872 3.116319
v 0.491369 0.068105 3.125752
v 0.488496 1.000508 -3.098249
v 0.486100 1.022224 -3.133523
v 0.492666 1.002954 -3.106662
v 0.493675 1.007940 -3.116319
v 0.491369 1.014707 -3.125752
v 0.613523 1.022224 -3.006100
v 0.578249 1.000508 -3.008497
v 0.605752 1.014707 -3.011369
v 0.596319 1.007940 -3.013675
v 0.586661 1.002954 -3.012666
v 0.578249 1.000508 3.008497
v 0.613523 1.022224 3.006100
v 0.586661 1.002954 3.012666
v 0.596319 1.007940 3.013675
v 0.605752 1.014707 3.011369
v 0.486100 1.022224 3.133523
v 0.488496 1.000508 3.098249
v 0.491369 1.014707 3.125752
v 0.493675 1.007940 3.116319
v 0.492666 1.002954 3.106662
v -0.438367 1.046847 3.297776
v -0.548410 1.046847 3.252195
v -0.493189 1.040283 3.234550
v -0.466505 1.046847 3.294306
v -0.497299 1.046847 3.284425
v -0.526060 1.046847 3.269638
v -0.606195 1.046847 3.194410
v -0.651776 1.046847 3.084368
v -0.638820 1.040041 3.086237
v -0.623638 1.046847 3.172060
v -0.638425 1.046847 3.143299
v -0.648306 1.046847 3.112505
v -0.651776 1.046847 -3.084368
v -0.606195 1.046847 -3.194410
v -0.638820 1.040041 -3.086237
v -0.648306 1.046847 -3.112505
v -0.638425 1.046847 -3.143299
v -0.623638 1.046847 -3.172060
v -0.548410 1.046847 -3.252195
v -0.438367 1.046847 -3.297776
v -0.493189 1.040283 -3.234550
v -0.526060 1.046847 -3.269638
v -0.497299 1.046847 -3.284425
v -0.466505 1.046847 -3.294306
v 0.438367 1.046847 -3.297776
v 0.548410 1.046847 -3.252195
v 0.493189 1.040283 -3.234550
v 0.466505 1.046847 -3.294306
v 0.497299 1.046847 -3.284425
v 0.526060 1.046847 -3.269638
v 0.606195 1.046847 -3.194410
v 0.651776 1.046847 -3.084368
v 0.638820 1.040041 -3.086237
v 0.623638 1.046847 -3.172060
v 0.638425 1.046847 -3.143299
v 0.648306 1.046847 -3.112505
v 0.651776 1.046847 3.084368
v 0.606195 1.046847 3.194410
v 0.638820 1.040041 3.086237
v 0.648306 1.046847 3.112505
v 0.638425 1.046847 3.143299
v 0.623638 1.046847 3.172060
v 0.548410 1.046847 3.252195
v 0.438367 1.046847 3.297776
v 0.493189 1.040283 3.234550
v 0.526060 1.046847 3.269638
v 0.497299 1.046847 3.284425
v 0.466505 1.046847 3.294306
v -0.548410 1.079794 3.252195
v -0.438367 1.079794 3.297776
v -0.526060 1.079794 3.269638
v -0.497299 1.079794 3.284425
v -0.466505 1.079794 3.294306
v -0.651776 1.079794 3.084368
v -0.606195 1.079794 3.194410
v -0.648306 1.079794 3.112505
v -0.638425 1.079794 3.143299
v -0.623638 1.079794 3.172060
v -0.606195 1.079794 -3.194410
v -0.651776 1.079794 -3.084368
v -0.623638 1.079794 -3.172060
v -0.638425 1.079794 -3.143299
v -0.648306 1.079794 -3.112505
v -0.438367 1.079794 -3.297776
v -0.548410 1.079794 -3.252195
v -0.466505 1.079794 -3.294306
v -0.497299 1.079794 -3.284425
v -0.526060 1.079794 -3.269638
v 0.548410 1.079794 -3.252195
v 0.438367 1.079794 -3.297776
v 0.526060 1.079794 -3.269638
v 0.497299 1.079794 -3.284425
v 0.466505 1.079794 -3.294306
v 0.651776 1.079794 -3.084368
v 0.606195 1.079794 -3.194410
v 0.648306 1.079794 -3.112505
v 0.638425 1.079794 -3.143299
v 0.623638 1.079794 -3.172060
v 0.606195 1.079794 3.194410
v 0.651776 1.079794 3.084368
v 0.623638 1.079794 3.172060
v 0.638425 1.079794 3.143299
v 0.648306 1.079794 3.112505
v 0.438367 1.079794 3.297776
v 0.548410 1.079794 3.252195
v 0.466505 1.079794 3.294306
v 0.497299 1.079794 3.284425
v 0.526060 1.079794 3.269638
v 0.720000 -0.061863 0.000000
v 0.620739 0.052269 0.000000
v 0.620739 1.030543 0.000000
v 0.720000 0.015034 0.000000
v 0.716523 0.029283 0.000000
v 0.706622 0.041363 0.000000
v 0.691804 0.049435 0.000000
v 0.674325 0.052269 0.000000
v 0.720000 -0.061863 1.520000
v 0.716523 0.029283 1.519280
v 0.706622 0.041363 1.517229
v 0.691804 0.049435 1.514161
v 0.674325 0.052269 1.510540
v 0.720000 0.015034 1.520000
v 0.620739 0.052269 -1.499442
v 0.620739 1.030543 -1.499442
v 0.720000 0.015034 -1.520000
v 0.720000 -0.061863 -1.520000
v 0.716523 0.029283 -1.519280
v 0.706622 0.041363 -1.517229
v 0.691804 0.049435 -1.514161
v 0.674325 0.052269 -1.510540
v 0.620739 1.030543 2.998885
v 0.620739 0.052269 2.998885
v 0.620739 0.052269 1.499442
v 0.620739 1.030543 1.499442
v 0.559113 0.106736 2.932073
v 0.520739 0.138020 2.893699
v 0.544428 0.109117 2.929152
v 0.531978 0.115899 2.920834
v 0.523660 0.126048 2.908384
v 0.520739 0.944792 2.893699
v 0.559113 0.976076 2.932073
v 0.523660 0.956764 2.908384
v 0.531978 0.966913 2.920834
v 0.544428 0.973695 2.929152
v 0.559113 0.106736 1.566254
v 0.520739 0.138020 1.604628
v 0.544428 0.109117 1.569175
v 0.531978 0.115899 1.577494
v 0.523660 0.126048 1.589943
v 0.520739 0.944792 1.604628
v 0.559113 0.976076 1.566254
v 0.523660 0.956764 1.589943
v 0.531978 0.966913 1.577494
v 0.544428 0.973695 1.569175
v 0.592512 0.976076 2.932073
v 0.620739 0.999087 2.960300
v 0.603314 0.977828 2.934222
v 0.612471 0.982816 2.940341
v 0.618590 0.990281 2.949498
v 0.620739 0.083725 2.960300
v 0.592512 0.106736 2.932073
v 0.618590 0.092531 2.949498
v 0.612471 0.099996 2.940341
v 0.603314 0.104984 2.934222
v 0.620739 0.083725 1.538027
v 0.592512 0.106736 1.566254
v 0.618590 0.092531 1.548829
v 0.612471 0.099996 1.557987
v 0.603314 0.104984 1.564106
v 0.592512 0.976076 1.566254
v 0.620739 0.999087 1.538027
v 0.603314 0.977828 1.564106
v 0.612471 0.982816 1.557987
v 0.618590 0.990281 1.548829
v -0.542878 1.224657 -3.252195
v -0.520754 1.222076 -3.269638
v -0.492283 1.218754 -3.284425
v -0.461800 1.215197 -3.294306
v -0.433946 1.211947 -3.297776
v 0.520754 1.100557 -3.269638
v 0.542878 1.097976 -3.252195
v 0.492283 1.103879 -3.284425
v 0.461800 1.107436 -3.294306
v 0.433946 1.110686 -3.297776
v 0.542878 1.097976 3.252195
v 0.520754 1.100557 3.269638
v 0.492283 1.103879 3.284425
v 0.461800 1.107436 3.294306
v 0.433946 1.110686 3.297776
v -0.520754 1.222076 3.269638
v -0.542878 1.224657 3.252195
v -0.492283 1.218754 3.284425
v -0.461800 1.215197 3.294306
v -0.433946 1.211947 3.297776
v 0.645201 1.086037 3.084368
v 0.641767 1.086438 3.112505
v 0.631986 1.087579 3.143299
v 0.617347 1.089287 3.172060
v 0.600080 1.091302 3.194410
v -0.645201 1.236596 -3.084368
v -0.641767 1.236195 -3.112505
v -0.631986 1.235054 -3.143299
v -0.617347 1.233346 -3.172060
v -0.600080 1.231331 -3.194410
v 0.600080 1.091302 -3.194410
v 0.617347 1.089287 -3.172060
v 0.631986 1.087579 -3.143299
v 0.641767 1.086438 -3.112505
v 0.645201 1.086037 -3.084368
v -0.600080 1.231331 3.194410
v -0.617347 1.233346 3.172060
v -0.631986 1.235054 3.143299
v -0.641767 1.236195 3.112505
v -0.645201 1.236596 3.084368
v -0.513485 1.231591 -3.220652
v -0.496463 1.229605 -3.234072
v -0.474525 1.227045 -3.245466
v -0.451037 1.224305 -3.253080
v -0.447271 1.227929 -3.263035
v 0.498246 1.103183 -3.234072
v 0.515267 1.101197 -3.220652
v 0.476308 1.105743 -3.245466
v 0.452820 1.108484 -3.253080
v 0.431390 1.110984 -3.255749
v 0.515267 1.101197 3.220652
v 0.498246 1.103183 3.234072
v 0.476308 1.105743 3.245466
v 0.452820 1.108484 3.253080
v 0.431390 1.110984 3.255749
v -0.496463 1.229605 3.234072
v -0.513485 1.231591 3.220652
v -0.474525 1.227045 3.245466
v -0.451037 1.224305 3.253080
v -0.447271 1.227929 3.263035
v 0.603599 1.090891 3.081786
v 0.600956 1.091200 3.103434
v 0.593419 1.092079 3.127162
v 0.582140 1.093395 3.149323
v 0.568855 1.094945 3.166518
v -0.608329 1.246720 -3.100336
v -0.599173 1.241589 -3.103434
v -0.591636 1.240709 -3.127162
v -0.580357 1.239393 -3.149323
v -0.567073 1.237843 -3.166518
v 0.568855 1.094945 -3.166518
v 0.582140 1.093395 -3.149323
v 0.593419 1.092079 -3.127162
v 0.600956 1.091200 -3.103434
v 0.603599 1.090891 -3.081786
v -0.567073 1.237843 3.166518
v -0.580357 1.239393 3.149323
v -0.591636 1.240709 3.127162
v -0.599173 1.241589 3.103434
v -0.608329 1.246720 3.100336
v -0.517078 1.211124 -3.220652
v -0.510779 1.200323 -3.211478
v -0.517129 1.207278 -3.219954
v -0.515950 1.203875 -3.217965
v -0.513721 1.201433 -3.214989
v -0.495243 1.198511 -3.223728
v -0.500056 1.209138 -3.234072
v -0.497616 1.199554 -3.227686
v -0.499364 1.201940 -3.231042
v -0.500221 1.205305 -3.233284
v -0.475203 1.196173 -3.234136
v -0.478118 1.206579 -3.245466
v -0.476850 1.197131 -3.238472
v -0.477982 1.199445 -3.242148
v -0.478427 1.202763 -3.244604
v -0.453750 1.193669 -3.241090
v -0.454630 1.203838 -3.253080
v -0.454618 1.194537 -3.245678
v -0.455090 1.196774 -3.249568
v -0.455094 1.200040 -3.252167
v -0.434191 1.191387 -3.243526
v -0.433201 1.201338 -3.255749
v -0.434343 1.192171 -3.248204
v -0.434208 1.194338 -3.252169
v -0.433807 1.197556 -3.254818
v 0.496436 1.092872 -3.234072
v 0.488159 1.083772 -3.223728
v 0.495275 1.089155 -3.233285
v 0.493294 1.086121 -3.231042
v 0.490795 1.084230 -3.227686
v 0.503696 1.081959 -3.211478
v 0.513457 1.090886 -3.220652
v 0.506900 1.082351 -3.214989
v 0.509881 1.084186 -3.217965
v 0.512183 1.087183 -3.219954
v 0.474498 1.095432 -3.245466
v 0.468119 1.086110 -3.234136
v 0.473482 1.091698 -3.244604
v 0.471912 1.088616 -3.242148
v 0.470030 1.086653 -3.238472
v 0.451010 1.098172 -3.253080
v 0.446666 1.088613 -3.241090
v 0.450148 1.094421 -3.252167
v 0.449020 1.091287 -3.249568
v 0.447798 1.089247 -3.245679
v 0.429580 1.100672 -3.255749
v 0.427107 1.090895 -3.243526
v 0.428861 1.096904 -3.254818
v 0.428139 1.093723 -3.252169
v 0.427523 1.091613 -3.248204
v 0.513457 1.090886 3.220652
v 0.503696 1.081959 3.211478
v 0.512183 1.087183 3.219954
v 0.509881 1.084186 3.217965
v 0.506900 1.082351 3.214989
v 0.488159 1.083772 3.223728
v 0.496436 1.092872 3.234072
v 0.490795 1.084230 3.227686
v 0.493294 1.086121 3.231042
v 0.495275 1.089155 3.233285
v 0.468119 1.086110 3.234136
v 0.474498 1.095432 3.245466
v 0.470030 1.086653 3.238472
v 0.471912 1.088616 3.242148
v 0.473482 1.091698 3.244604
v 0.446666 1.088613 3.241090
v 0.451010 1.098172 3.253080
v 0.447798 1.089247 3.245679
v 0.449020 1.091287 3.249568
v 0.450148 1.094421 3.252167
v 0.427107 1.090895 3.243526
v 0.429580 1.100672 3.255749
v 0.427523 1.091613 3.248204
v 0.428139 1.093723 3.252169
v 0.428861 1.096904 3.254818
v -0.500056 1.209138 3.234072
v -0.495243 1.198511 3.223728
v -0.500221 1.205305 3.233284
v -0.499364 1.201940 3.231042
v -0.497616 1.199554 3.227686
v -0.510779 1.200323 3.211478
v -0.517078 1.211124 3.220652
v -0.513721 1.201433 3.214989
v -0.515950 1.203875 3.217965
v -0.517129 1.207278 3.219954
v -0.478118 1.206579 3.245466
v -0.475203 1.196173 3.234136
v -0.478427 1.202763 3.244604
v -0.477982 1.199445 3.242148
v -0.476850 1.197131 3.238472
v -0.454630 1.203838 3.253080
v -0.453750 1.193669 3.241090
v -0.455094 1.200040 3.252167
v -0.455090 1.196774 3.249568
v -0.454618 1.194537 3.245678
v -0.433201 1.201338 3.255749
v -0.434191 1.191387 3.243526
v -0.433807 1.197556 3.254818
v -0.434208 1.194338 3.252169
v -0.434343 1.192171 3.248204
v 0.601788 1.080580 3.081786
v 0.587957 1.072128 3.081036
v 0.600205 1.076913 3.081729
v 0.597020 1.074019 3.081566
v 0.592719 1.072339 3.081323
v 0.585545 1.072409 3.100796
v 0.599146 1.080888 3.103434
v 0.590219 1.072630 3.101805
v 0.594445 1.074319 3.102661
v 0.597580 1.077219 3.103233
v 0.578661 1.073213 3.122468
v 0.591609 1.081768 3.127162
v 0.583085 1.073462 3.124264
v 0.587100 1.075176 3.125787
v 0.590093 1.078093 3.126805
v 0.568358 1.074414 3.142711
v 0.580330 1.083084 3.149323
v 0.572409 1.074708 3.145241
v 0.576106 1.076459 3.147387
v 0.578888 1.079400 3.148820
v 0.556232 1.075830 3.158407
v 0.567045 1.084634 3.166518
v 0.559839 1.076175 3.161511
v 0.563161 1.077969 3.164142
v 0.565691 1.080940 3.165900
v -0.605409 1.221430 -3.081786
v -0.595041 1.210155 -3.081036
v -0.605151 1.217548 -3.081729
v -0.603090 1.214042 -3.081566
v -0.599540 1.211446 -3.081323
v -0.592629 1.209873 -3.100796
v -0.602766 1.221122 -3.103434
v -0.597039 1.211154 -3.101805
v -0.600515 1.213742 -3.102661
v -0.602526 1.217242 -3.103233
v -0.585745 1.209070 -3.122468
v -0.595230 1.220243 -3.127162
v -0.589906 1.210322 -3.124264
v -0.593169 1.212885 -3.125787
v -0.595039 1.216368 -3.126804
v -0.575442 1.207868 -3.142710
v -0.583950 1.218926 -3.149323
v -0.579229 1.209076 -3.145241
v -0.582175 1.211602 -3.147386
v -0.583833 1.215061 -3.148820
v -0.563316 1.206453 -3.158407
v -0.570666 1.217376 -3.166518
v -0.566659 1.207609 -3.161511
v -0.569230 1.210091 -3.164142
v -0.570637 1.213521 -3.165900
v 0.567045 1.084634 -3.166518
v 0.556232 1.075830 -3.158407
v 0.565691 1.080940 -3.165900
v 0.563161 1.077969 -3.164142
v 0.559839 1.076175 -3.161511
v 0.568358 1.074414 -3.142711
v 0.580330 1.083084 -3.149323
v 0.572409 1.074708 -3.145241
v 0.576106 1.076459 -3.147387
v 0.578888 1.079400 -3.148820
v 0.578661 1.073213 -3.122468
v 0.591609 1.081768 -3.127162
v 0.583085 1.073462 -3.124264
v 0.587100 1.075176 -3.125787
v 0.590093 1.078093 -3.126805
v 0.585545 1.072409 -3.100796
v 0.599146 1.080888 -3.103434
v 0.590219 1.072630 -3.101805
v 0.594445 1.074319 -3.102661
v 0.597580 1.077219 -3.103233
v 0.587957 1.072128 -3.081036
v 0.601788 1.080580 -3.081786
v 0.592719 1.072339 -3.081323
v 0.597020 1.074019 -3.081566
v 0.600205 1.076913 -3.081729
v -0.570666 1.217376 3.166518
v -0.563316 1.206453 3.158407
v -0.570637 1.213521 3.165900
v -0.569230 1.210091 3.164142
v -0.566659 1.207609 3.161511
v -0.575442 1.207868 3.142710
v -0.583950 1.218926 3.149323
v -0.579229 1.209076 3.145241
v -0.582175 1.211602 3.147386
v -0.583833 1.215061 3.148820
v -0.585745 1.209070 3.122468
v -0.595230 1.220243 3.127162
v -0.589906 1.210322 3.124264
v -0.593169 1.212885 3.125787
v -0.595039 1.216368 3.126804
v -0.592629 1.209873 3.100796
v -0.602766 1.221122 3.103434
v -0.597039 1.211154 3.101805
v -0.600515 1.213742 3.102661
v -0.602526 1.217242 3.103233
v -0.595041 1.210155 3.081036
v -0.605409 1.221430 3.081786
v -0.599540 1.211446 3.081323
v -0.603090 1.214042 3.081566
v -0.605151 1.217548 3.081729
v -0.528711 1.305357 -3.252195
v -0.506586 1.302776 -3.269638
v -0.478115 1.299454 -3.284425
v -0.447632 1.295898 -3.294306
v -0.506586 1.302776 3.269638
v -0.528711 1.305357 3.252195
v -0.478115 1.299454 3.284425
v -0.447632 1.295898 3.294306
v -0.627599 1.316895 -3.112505
v -0.617818 1.315754 -3.143299
v -0.603179 1.314046 -3.172060
v -0.585912 1.312032 -3.194410
v -0.585912 1.312032 3.194410
v -0.603179 1.314046 3.172060
v -0.617818 1.315754 3.143299
v -0.627599 1.316895 3.112505
v -0.502883 1.291981 -3.220652
v -0.485861 1.289994 -3.234072
v -0.462141 1.297590 -3.245466
v -0.438652 1.294850 -3.253080
v -0.485861 1.289994 3.234072
v -0.502883 1.291981 3.220652
v -0.463923 1.287435 3.245466
v -0.440435 1.284694 3.253080
v -0.588571 1.301978 -3.103434
v -0.581035 1.301099 -3.127162
v -0.569755 1.299783 -3.149323
v -0.556471 1.298233 -3.166518
v -0.556471 1.298233 3.166518
v -0.567972 1.309938 3.149323
v -0.579252 1.311254 3.127162
v -0.586788 1.312134 3.103434
v -0.439465 1.294945 -3.295324
v -0.422612 1.276508 -3.297776
v -0.434466 1.293800 -3.295958
v -0.430001 1.291634 -3.296550
v -0.426374 1.288593 -3.297058
v -0.423832 1.284885 -3.297447
v -0.422549 1.280763 -3.297692
v -0.422612 1.276508 3.297776
v -0.439465 1.294945 3.295324
v -0.422549 1.280763 3.297692
v -0.423832 1.284885 3.297447
v -0.426374 1.288593 3.297058
v -0.430001 1.291634 3.296550
v -0.434466 1.293800 3.295958
v -0.633867 1.301156 -3.084368
v -0.628606 1.317013 -3.104254
v -0.633051 1.305324 -3.085045
v -0.632125 1.309188 -3.087032
v -0.631153 1.312486 -3.090192
v -0.630200 1.314992 -3.094311
v -0.629331 1.316536 -3.099107
v -0.628606 1.317013 3.104254
v -0.633867 1.301156 3.084368
v -0.629331 1.316536 3.099108
v -0.630199 1.314992 3.094311
v -0.631153 1.312486 3.090192
v -0.632125 1.309188 3.087032
v -0.633051 1.305324 3.085045
v -0.438582 1.277424 -3.263035
v -0.441668 1.280775 -3.262586
v -0.438561 1.278859 -3.263007
v -0.438709 1.279335 -3.262978
v -0.439006 1.279768 -3.262933
v -0.439434 1.280127 -3.262873
v -0.439965 1.280385 -3.262803
v -0.441668 1.280775 3.262586
v -0.438582 1.277424 3.263035
v -0.439965 1.280385 3.262803
v -0.439434 1.280127 3.262873
v -0.439006 1.279768 3.262933
v -0.438709 1.279335 3.262978
v -0.438561 1.278859 3.263007
v -0.598681 1.299094 -3.103973
v -0.599639 1.296215 -3.100336
v -0.598928 1.298932 -3.102220
v -0.599031 1.298748 -3.101649
v -0.599144 1.298452 -3.101163
v -0.599257 1.298068 -3.100794
v -0.599364 1.297620 -3.100564
v -0.599639 1.296215 3.100336
v -0.598681 1.299094 3.103973
v -0.599364 1.297620 3.100564
v -0.599257 1.298068 3.100794
v -0.599144 1.298452 3.101163
v -0.599031 1.298748 3.101649
v -0.598928 1.298932 3.102220
v -0.515267 1.221436 -3.220652
v -0.498246 1.219450 -3.234072
v -0.476308 1.216890 -3.245466
v -0.452820 1.214149 -3.253080
v -0.431391 1.211649 -3.255749
v -0.498246 1.219450 3.234072
v -0.515267 1.221436 3.220652
v -0.476308 1.216890 3.245466
v -0.452820 1.214149 3.253080
v -0.431391 1.211649 3.255749
v -0.603599 1.231742 -3.081786
v -0.600956 1.231433 -3.103434
v -0.593419 1.230554 -3.127162
v -0.582140 1.229238 -3.149323
v -0.568855 1.227688 -3.166518
v -0.568855 1.227688 3.166518
v -0.582140 1.229238 3.149323
v -0.593419 1.230554 3.127162
v -0.600956 1.231433 3.103434
v -0.603599 1.231742 3.081786
v -0.501100 1.302136 -3.220652
v -0.484078 1.300150 -3.234072
v -0.463923 1.287435 -3.245466
v -0.440435 1.284694 -3.253080
v -0.484078 1.300150 3.234072
v -0.501100 1.302136 3.220652
v -0.462141 1.297590 3.245466
v -0.438652 1.294850 3.253080
v -0.586788 1.312134 -3.103434
v -0.579252 1.311254 -3.127162
v -0.567972 1.309938 -3.149323
v -0.554688 1.308388 -3.166518
v -0.554688 1.308388 3.166518
v -0.569755 1.299783 3.149323
v -0.581035 1.301099 3.127162
v -0.588571 1.301978 3.103434
v -0.419994 1.280465 -3.255666
v -0.420056 1.276209 -3.255749
v -0.421277 1.284587 -3.255420
v -0.423819 1.288295 -3.255031
v -0.427446 1.291336 -3.254523
v -0.431911 1.293502 -3.253932
v -0.436909 1.294647 -3.253297
v -0.420056 1.276209 3.255749
v -0.419994 1.280465 3.255666
v -0.421277 1.284587 3.255420
v -0.423819 1.288295 3.255031
v -0.427446 1.291336 3.254523
v -0.431911 1.293502 3.253932
v -0.436909 1.294647 3.253297
v -0.592264 1.296302 -3.081786
v -0.591448 1.300470 -3.082464
v -0.590522 1.304334 -3.084450
v -0.589550 1.307632 -3.087611
v -0.588597 1.310138 -3.091730
v -0.587728 1.311682 -3.096526
v -0.587003 1.312159 -3.101673
v -0.591448 1.300470 3.082464
v -0.592264 1.296302 3.081786
v -0.590522 1.304334 3.084450
v -0.589550 1.307632 3.087611
v -0.588597 1.310138 3.091730
v -0.587728 1.311682 3.096526
v -0.587003 1.312159 3.101673
v -0.519027 1.236301 -3.227783
v -0.500852 1.234181 -3.242112
v -0.477438 1.231449 -3.254274
v -0.452368 1.228524 -3.262400
v -0.441971 1.223247 -3.254209
v -0.500852 1.234181 3.242112
v -0.519027 1.236301 3.227783
v -0.477438 1.231449 3.254274
v -0.452368 1.228524 3.262400
v -0.441971 1.223247 3.254209
v -0.600291 1.241719 -3.094276
v -0.607700 1.246647 -3.105484
v -0.599656 1.245708 -3.130810
v -0.587617 1.244304 -3.154463
v -0.573432 1.242649 -3.172823
v -0.573432 1.242649 3.172823
v -0.587617 1.244304 3.154463
v -0.599656 1.245708 3.130810
v -0.607700 1.246647 3.105484
v -0.600291 1.241719 3.094276
v -0.509824 1.288727 -3.227783
v -0.491649 1.286606 -3.242112
v -0.468234 1.283874 -3.254274
v -0.443164 1.280949 -3.262400
v -0.491649 1.286606 3.242112
v -0.509824 1.288727 3.227783
v -0.468234 1.283874 3.254274
v -0.443164 1.280949 3.262400
v -0.598496 1.299073 -3.105484
v -0.590452 1.298134 -3.130810
v -0.578413 1.296730 -3.154463
v -0.564229 1.295074 -3.172823
v -0.564229 1.295074 3.172823
v -0.578413 1.296730 3.154463
v -0.590452 1.298134 3.130810
v -0.598496 1.299073 3.105484
v -0.432504 1.279215 -3.254165
v -0.432537 1.276985 -3.254209
v -0.432972 1.280718 -3.254076
v -0.433901 1.282073 -3.253934
v -0.435230 1.283187 -3.253747
v -0.436870 1.283983 -3.253531
v -0.439501 1.284585 -3.253196
v -0.432537 1.276985 3.254209
v -0.432504 1.279215 3.254165
v -0.432972 1.280718 3.254076
v -0.433901 1.282073 3.253934
v -0.435230 1.283187 3.253747
v -0.436870 1.283983 3.253531
v -0.439501 1.284585 3.253196
v -0.590857 1.295457 -3.094276
v -0.590429 1.297641 -3.094631
v -0.590092 1.299050 -3.095356
v -0.589736 1.300256 -3.096510
v -0.589387 1.301174 -3.098020
v -0.589068 1.301741 -3.099781
v -0.588687 1.301992 -3.102490
v -0.590429 1.297641 3.094631
v -0.590857 1.295457 3.094276
v -0.590092 1.299050 3.095356
v -0.589736 1.300256 3.096510
v -0.589387 1.301174 3.098020
v -0.589068 1.301741 3.099781
v -0.588687 1.301992 3.102490
v 0.487318 0.086163 -3.090375
v 0.570375 0.086163 -3.007318
v 0.570375 0.086163 2.967318
v 0.487318 0.086163 3.050375
v 0.487318 0.996649 -3.090375
v 0.570375 0.996649 -3.007318
v 0.570375 0.996649 2.967318
v 0.487318 0.996649 3.050375
v -0.462012 1.284121 -3.255160
v -0.471738 1.228722 -3.255160
v -0.445247 1.225631 -3.263747
v -0.435521 1.281030 -3.263747
v -0.609388 1.244783 -3.097933
v -0.599662 1.300182 -3.097933
v -0.600888 1.243791 -3.124694
v -0.591162 1.299190 -3.124694
v -0.515686 1.233850 -3.227167
v -0.505961 1.289249 -3.227167
v -0.563451 1.295956 -3.169091
v -0.573177 1.240558 -3.169091
v -0.588166 1.242306 -3.149689
v -0.578440 1.297705 -3.149689
v -0.496481 1.231609 -3.242309
v -0.486755 1.287008 -3.242309
v -0.439860 1.225003 -3.264418
v -0.610052 1.244860 -3.092492
v -0.430656 1.278821 -3.264388
v -0.430679 1.277305 -3.264418
v -0.430813 1.279325 -3.264358
v -0.431126 1.279782 -3.264310
v -0.431579 1.280161 -3.264247
v -0.432141 1.280434 -3.264173
v -0.433940 1.280846 -3.263944
v -0.600870 1.297162 -3.092492
v -0.600579 1.298647 -3.092733
v -0.600466 1.299119 -3.092977
v -0.600346 1.299526 -3.093366
v -0.600227 1.299838 -3.093879
v -0.600118 1.300033 -3.094483
v -0.599857 1.300204 -3.096336
v -0.614372 1.242900 3.091902
v -0.604022 1.301853 3.091902
v -0.581439 1.299218 3.146979
v -0.591788 1.240265 3.146979
v -0.605326 1.241845 3.120380
v -0.594976 1.300797 3.120380
v -0.575838 1.238404 3.167625
v -0.565488 1.297357 3.167625
v -0.504310 1.290219 3.229426
v -0.514659 1.231266 3.229426
v -0.483872 1.287834 3.245540
v -0.494221 1.228882 3.245540
v -0.457542 1.284762 3.259216
v -0.467892 1.225809 3.259216
v -0.429351 1.281473 3.268353
v -0.439701 1.222520 3.268353
v -0.433969 1.221852 3.269068
v -0.615079 1.242983 3.086112
v -0.424198 1.277508 3.269068
v -0.424174 1.279122 3.269036
v -0.424341 1.279658 3.269004
v -0.424675 1.280145 3.268953
v -0.425156 1.280548 3.268885
v -0.425754 1.280838 3.268806
v -0.427669 1.281277 3.268563
v -0.604998 1.300220 3.086369
v -0.605308 1.298639 3.086112
v -0.604878 1.300722 3.086627
v -0.604750 1.301155 3.087042
v -0.604624 1.301488 3.087589
v -0.604507 1.301694 3.088231
v -0.604230 1.301877 3.090203
vn -0.0000 -1.0000 -0.0000
vn -0.7071 -0.0000 -0.7071
vn 1.0000 -0.0000 -0.0000
vn -1.0000 -0.0000 -0.0000
vn -0.7071 -0.0000 0.7071
vn -0.0000 -0.0000 -1.0000
vn -0.0000 -0.0000 1.0000
vn -0.0000 1.0000 -0.0000
vn -0.1132 0.9871 0.1132
vn -0.3383 0.8782 0.3383
vn -0.5469 0.6339 0.5469
vn -0.6870 0.2371 0.6869
vn -0.1132 0.9871 -0.1132
vn -0.3383 0.8782 -0.3383
vn -0.5469 0.6339 -0.5469
vn -0.6870 0.2370 -0.6870
vn 0.1132 0.9871 -0.1132
vn 0.3383 0.8782 -0.3383
vn 0.5469 0.6339 -0.5469
vn 0.6870 0.2371 -0.6869
vn 0.1132 0.9871 0.1132
vn 0.3383 0.8782 0.3383
vn 0.5469 0.6339 0.5469
vn 0.6870 0.2370 0.6870
vn -0.1601 0.9871 -0.0000
vn -0.4784 0.8782 -0.0000
vn -0.7734 0.6339 -0.0000
vn -0.9715 0.2370 -0.0000
vn -0.0000 0.9871 0.1601
vn -0.0000 0.8782 0.4784
vn -0.0000 0.6339 0.7734
vn -0.0000 0.2370 0.9715
vn 0.9715 0.2370 -0.0000
vn 0.7734 0.6339 -0.0000
vn 0.4784 0.8782 -0.0000
vn 0.1601 0.9871 -0.0000
vn -0.0000 0.2370 -0.9715
vn -0.0000 0.6339 -0.7734
vn -0.0000 0.8782 -0.4784
vn -0.0000 0.9871 -0.1601
vn 0.1875 0.9642 -0.1875
vn 0.3899 0.8342 -0.3899
vn 0.5671 0.5973 -0.5671
vn 0.6883 0.2291 -0.6883
vn 0.1875 0.9642 0.1875
vn 0.3899 0.8342 0.3899
vn 0.5671 0.5973 0.5671
vn 0.6883 0.2291 0.6883
vn 0.6883 -0.2291 -0.6883
vn 0.5671 -0.5973 -0.5671
vn 0.3899 -0.8342 -0.3899
vn 0.1875 -0.9642 -0.1875
vn 0.6883 -0.2291 0.6883
vn 0.5671 -0.5973 0.5671
vn 0.3899 -0.8342 0.3899
vn 0.1875 -0.9642 0.1875
vn -0.4441 -0.0000 -0.8960
vn -0.1039 -0.0000 -0.9946
vn 0.2374 -0.0000 -0.9714
vn 0.5612 -0.0000 -0.8277
vn -0.4441 -0.0000 0.8960
vn -0.1039 -0.0000 0.9946
vn 0.2374 -0.0000 0.9714
vn 0.5612 -0.0000 0.8277
vn 0.8277 -0.0000 -0.5612
vn 0.9714 -0.0000 -0.2374
vn 0.9946 -0.0000 0.1039
vn 0.8960 -0.0000 0.4441
vn 0.8960 -0.0000 -0.4441
vn 0.9946 -0.0000 -0.1039
vn 0.9714 -0.0000 0.2374
vn 0.8277 -0.0000 0.5612
vn 0.0782 0.9939 -0.0782
vn 0.7071 -0.0000 -0.7071
vn 0.7962 -0.0000 0.6050
vn -0.6050 -0.0000 -0.7962
vn 0.0782 0.9939 0.0782
vn 0.7071 -0.0000 0.7071
vn -0.6050 -0.0000 0.7962
vn 0.7962 -0.0000 -0.6050
vn 0.0782 -0.9939 -0.0782
vn 0.0782 -0.9939 0.0782
vn -0.0142 -0.9932 0.1155
vn -0.0408 -0.9911 0.1271
vn -0.0643 -0.9901 0.1250
vn -0.0836 -0.9907 0.1071
vn -0.1296 -0.9864 0.1012
vn -0.2273 -0.9668 0.1169
vn -0.3529 -0.9288 0.1132
vn -0.4708 -0.8803 0.0581
vn -0.4708 -0.8803 -0.0581
vn -0.3529 -0.9288 -0.1132
vn -0.2273 -0.9668 -0.1169
vn -0.1296 -0.9864 -0.1012
vn -0.0836 -0.9907 -0.1071
vn -0.0643 -0.9901 -0.1250
vn -0.0408 -0.9911 -0.1271
vn -0.0142 -0.9932 -0.1155
vn 0.0142 -0.9932 -0.1155
vn 0.0408 -0.9911 -0.1271
vn 0.0643 -0.9901 -0.1250
vn 0.0836 -0.9907 -0.1071
vn 0.1296 -0.9864 -0.1012
vn 0.2273 -0.9668 -0.1169
vn 0.3529 -0.9288 -0.1132
vn 0.4708 -0.8803 -0.0581
vn 0.4708 -0.8803 0.0581
vn 0.3529 -0.9288 0.1132
vn 0.2273 -0.9668 0.1169
vn 0.1296 -0.9864 0.1012
vn 0.0836 -0.9907 0.1071
vn 0.0643 -0.9901 0.1250
vn 0.0408 -0.9911 0.1271
vn 0.0142 -0.9932 0.1155
vn -0.6153 -0.0000 -0.7883
vn -0.4573 -0.0000 -0.8893
vn -0.3055 -0.0000 -0.9522
vn -0.1224 -0.0000 -0.9925
vn 0.6153 -0.0000 -0.7883
vn 0.4573 -0.0000 -0.8893
vn 0.3055 -0.0000 -0.9522
vn 0.1224 -0.0000 -0.9925
vn 0.6153 -0.0000 0.7883
vn 0.4573 -0.0000 0.8893
vn 0.3055 -0.0000 0.9522
vn 0.1224 -0.0000 0.9925
vn -0.6153 -0.0000 0.7883
vn -0.4573 -0.0000 0.8893
vn -0.3055 -0.0000 0.9522
vn -0.1224 -0.0000 0.9925
vn 0.9925 -0.0000 0.1224
vn 0.9522 -0.0000 0.3055
vn 0.8893 -0.0000 0.4573
vn 0.7883 -0.0000 0.6153
vn -0.9925 -0.0000 -0.1224
vn -0.9522 -0.0000 -0.3055
vn -0.8893 -0.0000 -0.4573
vn -0.7883 -0.0000 -0.6153
vn 0.7883 -0.0000 -0.6153
vn 0.8893 -0.0000 -0.4573
vn 0.9522 -0.0000 -0.3055
vn 0.9925 -0.0000 -0.1224
vn -0.7883 -0.0000 0.6153
vn -0.8893 -0.0000 0.4573
vn -0.9522 -0.0000 0.3055
vn -0.9925 -0.0000 0.1224
vn -0.0894 -0.9920 0.0894
vn -0.0000 -0.9947 0.1033
vn -0.4651 -0.8853 -0.0000
vn -0.0894 -0.9920 -0.0894
vn -0.0000 -0.9947 -0.1033
vn 0.0894 -0.9920 -0.0894
vn 0.4651 -0.8853 -0.0000
vn 0.0894 -0.9920 0.0894
vn 0.1951 -0.0000 -0.9808
vn 0.5556 -0.0000 -0.8315
vn 0.8315 -0.0000 -0.5556
vn 0.9808 -0.0000 -0.1951
vn 0.9715 -0.2370 -0.0000
vn 0.7734 -0.6339 -0.0000
vn 0.4784 -0.8782 -0.0000
vn 0.1601 -0.9871 -0.0000
vn 0.1951 -0.0000 0.9808
vn 0.5556 -0.0000 0.8315
vn 0.8315 -0.0000 0.5556
vn 0.9808 -0.0000 0.1951
vn -0.1227 0.0042 -0.9924
vn -0.1227 0.0042 0.9924
vn 0.6987 0.7109 -0.0807
vn 0.4613 0.1062 0.8808
vn -0.9517 0.0396 -0.3046
vn 0.6902 0.2707 -0.6711
vn 0.6142 0.1709 -0.7704
vn 0.3095 0.0582 0.9491
vn -0.8892 0.0367 -0.4560
vn 0.6987 0.7109 0.0807
vn -0.7887 0.0321 0.6139
vn 0.1241 0.0193 0.9921
vn -0.7887 0.0321 -0.6139
vn 0.4613 0.1062 -0.8808
vn 0.7254 0.6524 0.2195
vn -0.8892 0.0367 0.4560
vn 0.6886 0.7251 -0.0000
vn -0.6162 0.0233 0.7873
vn -0.9991 0.0419 -0.0000
vn 0.3095 0.0582 -0.9491
vn 0.7490 0.5518 0.3668
vn -0.9517 0.0396 0.3046
vn -0.6162 0.0233 -0.7873
vn 0.6902 0.2707 0.6711
vn 0.7233 0.4273 -0.5424
vn -0.7078 0.0278 -0.7059
vn 0.1241 0.0193 -0.9921
vn 0.7233 0.4273 0.5424
vn -0.9917 0.0415 0.1220
vn -0.4582 0.0168 -0.8887
vn -0.4582 0.0168 0.8887
vn 0.7490 0.5518 -0.3668
vn -0.3063 0.0109 -0.9519
vn -0.3063 0.0109 0.9519
vn 0.7254 0.6524 -0.2195
vn 0.6142 0.1709 0.7704
vn -0.9917 0.0415 -0.1220
vn -0.7078 0.0278 0.7059
vn -0.9653 -0.2347 -0.1146
vn -0.6982 0.1226 0.7053
vn 0.1159 0.9933 -0.0000
vn -0.4233 0.2495 0.8710
vn -0.9383 0.1647 0.3041
vn -0.9075 0.1593 0.3888
vn -0.8769 0.1539 0.4554
vn -0.3023 0.0531 -0.9517
vn -0.3691 0.7294 0.5760
vn -0.1721 0.0053 -0.9851
vn 0.2134 0.9686 0.1273
vn 0.3996 0.8325 0.3837
vn 0.5541 0.5547 0.6207
vn 0.6232 0.1316 0.7709
vn 0.1879 0.9717 0.1434
vn 0.3223 0.8427 0.4312
vn 0.4292 0.5739 0.6974
vn 0.4696 0.1583 0.8686
vn 0.1634 0.9746 0.1534
vn 0.2486 0.8524 0.4600
vn 0.3102 0.5922 0.7437
vn 0.3224 0.1837 0.9286
vn 0.1340 0.9781 0.1596
vn 0.1603 0.8640 0.4774
vn 0.1677 0.6139 0.7714
vn 0.1453 0.2144 0.9659
vn 0.0165 0.9919 0.1259
vn -0.1875 0.9089 0.3724
vn -0.3912 0.6983 0.5995
vn -0.5589 0.3353 0.7585
vn 0.0415 0.9890 0.1422
vn -0.1141 0.8995 0.4217
vn -0.2735 0.6807 0.6796
vn -0.4095 0.3097 0.8581
vn 0.0656 0.9861 0.1525
vn -0.0430 0.8903 0.4533
vn -0.1595 0.6635 0.7309
vn -0.2653 0.2849 0.9211
vn 0.0948 0.9827 0.1592
vn 0.0435 0.8791 0.4746
vn -0.0204 0.6425 0.7660
vn -0.0902 0.2550 0.9627
vn 0.0165 0.9919 -0.1259
vn -0.1875 0.9089 -0.3724
vn -0.3912 0.6983 -0.5995
vn -0.5589 0.3353 -0.7585
vn 0.0415 0.9890 -0.1422
vn -0.1141 0.8995 -0.4217
vn -0.2736 0.6807 -0.6796
vn -0.4095 0.3097 -0.8581
vn 0.0656 0.9861 -0.1525
vn -0.0430 0.8903 -0.4533
vn -0.1595 0.6635 -0.7309
vn -0.2653 0.2849 -0.9211
vn 0.0948 0.9827 -0.1592
vn 0.0435 0.8791 -0.4746
vn -0.0204 0.6425 -0.7660
vn -0.0902 0.2550 -0.9627
vn 0.2134 0.9686 -0.1273
vn 0.3996 0.8325 -0.3837
vn 0.5541 0.5547 -0.6207
vn 0.6232 0.1317 -0.7709
vn 0.1879 0.9717 -0.1434
vn 0.3223 0.8427 -0.4312
vn 0.4292 0.5739 -0.6974
vn 0.4696 0.1583 -0.8686
vn 0.1634 0.9746 -0.1534
vn 0.2486 0.8524 -0.4600
vn 0.3102 0.5922 -0.7437
vn 0.3224 0.1837 -0.9286
vn 0.1340 0.9781 -0.1596
vn 0.1603 0.8640 -0.4774
vn 0.1677 0.6139 -0.7714
vn 0.1453 0.2144 -0.9659
vn -0.0430 0.9989 -0.0195
vn -0.3605 0.9310 -0.0573
vn -0.6671 0.7393 -0.0920
vn -0.9111 0.3953 -0.1168
vn -0.0366 0.9981 -0.0486
vn -0.3422 0.9287 -0.1431
vn -0.6380 0.7350 -0.2299
vn -0.8738 0.3889 -0.2920
vn -0.0268 0.9970 -0.0728
vn -0.3135 0.9250 -0.2145
vn -0.5924 0.7282 -0.3447
vn -0.8154 0.3790 -0.4375
vn -0.0109 0.9951 -0.0981
vn -0.2673 0.9191 -0.2894
vn -0.5186 0.7173 -0.4653
vn -0.7213 0.3630 -0.5900
vn 0.2746 0.9613 0.0198
vn 0.5866 0.8077 0.0601
vn 0.8560 0.5077 0.0973
vn 0.9905 0.0677 0.1199
vn 0.2681 0.9621 0.0495
vn 0.5665 0.8103 0.1499
vn 0.8235 0.5128 0.2426
vn 0.9512 0.0745 0.2994
vn 0.2578 0.9633 0.0740
vn 0.5351 0.8145 0.2240
vn 0.7730 0.5207 0.3625
vn 0.8900 0.0852 0.4479
vn 0.2415 0.9653 0.0995
vn 0.4850 0.8212 0.3007
vn 0.6920 0.5333 0.4866
vn 0.7916 0.1024 0.6024
vn -0.0109 0.9951 0.0981
vn -0.2673 0.9191 0.2894
vn -0.5186 0.7173 0.4654
vn -0.7212 0.3630 0.5899
vn -0.0268 0.9970 0.0728
vn -0.3135 0.9250 0.2145
vn -0.5923 0.7282 0.3447
vn -0.8154 0.3790 0.4375
vn -0.0366 0.9981 0.0486
vn -0.3422 0.9287 0.1431
vn -0.6380 0.7350 0.2299
vn -0.8738 0.3889 0.2920
vn -0.0430 0.9989 0.0195
vn -0.3605 0.9310 0.0573
vn -0.6671 0.7393 0.0920
vn -0.9111 0.3953 0.1168
vn 0.2415 0.9653 -0.0995
vn 0.4850 0.8212 -0.3007
vn 0.6920 0.5333 -0.4865
vn 0.7916 0.1024 -0.6024
vn 0.2579 0.9633 -0.0740
vn 0.5351 0.8145 -0.2240
vn 0.7730 0.5207 -0.3625
vn 0.8900 0.0852 -0.4479
vn 0.2681 0.9621 -0.0495
vn 0.5665 0.8103 -0.1499
vn 0.8235 0.5128 -0.2426
vn 0.9512 0.0745 -0.2994
vn 0.2746 0.9613 -0.0198
vn 0.5866 0.8077 -0.0601
vn 0.8560 0.5077 -0.0973
vn 0.9905 0.0677 -0.1199
vn 0.2283 0.9669 -0.1143
vn 0.4448 0.8265 -0.3449
vn 0.6272 0.5433 -0.5581
vn 0.7125 0.1161 -0.6920
vn 0.1144 0.9804 -0.1606
vn 0.1017 0.8716 -0.4796
vn 0.0733 0.6283 -0.7745
vn 0.0274 0.2348 -0.9717
vn 0.2759 0.9612 -0.0000
vn 0.5903 0.8072 -0.0000
vn 0.8621 0.5068 -0.0000
vn 0.9978 0.0664 -0.0000
vn 0.2283 0.9669 0.1143
vn 0.4448 0.8265 0.3449
vn 0.6272 0.5433 0.5581
vn 0.7125 0.1161 0.6920
vn 0.1144 0.9804 0.1606
vn 0.1017 0.8716 0.4796
vn 0.0733 0.6283 0.7745
vn 0.0274 0.2348 0.9717
vn 0.0020 0.9936 0.1128
vn -0.2300 0.9144 0.3333
vn -0.4590 0.7084 0.5362
vn -0.6452 0.3499 0.6791
vn -0.0442 0.9990 -0.0000
vn -0.3639 0.9314 -0.0000
vn -0.6725 0.7401 -0.0000
vn -0.9181 0.3964 -0.0000
vn 0.0020 0.9936 -0.1128
vn -0.2300 0.9144 -0.3333
vn -0.4590 0.7084 -0.5362
vn -0.6452 0.3499 -0.6791
vn 0.6079 -0.1067 0.7868
vn 0.6982 -0.1226 0.7053
vn 0.4522 -0.0794 0.8884
vn 0.3023 -0.0531 0.9517
vn 0.1211 -0.0213 0.9924
vn -0.6079 0.1067 0.7868
vn -0.4522 0.0794 0.8884
vn -0.3023 0.0531 0.9517
vn -0.1211 0.0213 0.9924
vn -0.6079 0.1067 -0.7868
vn -0.6982 0.1226 -0.7053
vn -0.4522 0.0794 -0.8884
vn -0.1211 0.0213 -0.9924
vn 0.6079 -0.1067 -0.7868
vn 0.4522 -0.0794 -0.8884
vn 0.6982 -0.1226 -0.7053
vn 0.3023 -0.0531 -0.9517
vn 0.1211 -0.0213 -0.9924
vn -0.9776 0.1716 -0.1218
vn -0.9849 0.1729 -0.0000
vn -0.9383 0.1647 -0.3041
vn -0.8769 0.1540 -0.4554
vn -0.7779 0.1366 -0.6133
vn 0.9776 -0.1716 0.1218
vn 0.9849 -0.1729 -0.0000
vn 0.9383 -0.1647 0.3041
vn 0.8769 -0.1539 0.4554
vn 0.7779 -0.1366 0.6133
vn -0.7779 0.1366 0.6133
vn -0.9776 0.1716 0.1218
vn 0.7779 -0.1366 -0.6133
vn 0.8769 -0.1540 -0.4554
vn 0.9383 -0.1647 -0.3041
vn 0.9776 -0.1716 -0.1218
vn -0.9775 0.1271 -0.1683
vn -0.0908 0.9199 -0.3815
vn -0.8769 0.1539 -0.4554
vn -0.1721 0.0217 -0.9848
vn -0.0085 0.6951 0.7189
vn -0.2480 0.3662 0.8969
vn -0.9745 0.1458 -0.1703
vn -0.3862 0.0678 0.9199
vn -0.0893 0.9626 -0.2557
vn -0.4612 -0.0032 0.8873
vn 0.9981 -0.0135 -0.0608
vn 0.9524 0.2998 -0.0558
vn 0.8217 0.5681 -0.0459
vn 0.6394 0.7682 -0.0334
vn 0.4343 0.9006 -0.0200
vn 0.2224 0.9749 -0.0066
vn 0.9981 -0.0135 0.0608
vn 0.9524 0.2998 0.0558
vn 0.8217 0.5681 0.0459
vn 0.6394 0.7682 0.0334
vn 0.4343 0.9006 0.0200
vn 0.2224 0.9749 0.0066
vn -0.0415 0.1682 0.9849
vn -0.0018 0.4575 0.8892
vn 0.0350 0.6861 0.7266
vn 0.0658 0.8456 0.5297
vn 0.0902 0.9431 0.3200
vn 0.1087 0.9883 0.1068
vn -0.0415 0.1682 -0.9849
vn -0.0018 0.4575 -0.8892
vn 0.0350 0.6861 -0.7266
vn 0.0658 0.8456 -0.5297
vn 0.0902 0.9431 -0.3200
vn 0.1087 0.9883 -0.1068
vn 0.9831 -0.1726 -0.0610
vn 0.9831 -0.1726 0.0610
vn -0.0607 0.0107 0.9981
vn -0.0607 0.0107 -0.9981
vn -0.0981 0.9729 -0.2094
vn -0.1583 -0.8815 0.4448
vn -0.9716 0.1623 -0.1720
vn -0.6129 -0.2921 0.7342
vn 0.1211 -0.0212 0.9924
vn 0.8769 -0.1539 -0.4554
vn 0.1211 -0.0214 0.9924
vn 0.1212 -0.0213 0.9924
vn 0.1211 -0.0212 -0.9924
vn 0.1211 -0.0214 -0.9924
vn 0.1212 -0.0213 -0.9924
vn 0.3492 0.8835 0.3122
vn 0.2863 0.8915 0.3510
vn 0.2263 0.8991 0.3747
vn 0.1544 0.9082 0.3890
vn 0.3492 0.8835 -0.3122
vn 0.2863 0.8915 -0.3510
vn 0.2263 0.8991 -0.3747
vn 0.1544 0.9082 -0.3890
vn 0.5009 0.8641 0.0488
vn 0.4846 0.8662 0.1218
vn 0.4592 0.8695 0.1821
vn 0.4185 0.8747 0.2445
vn 0.4185 0.8747 -0.2445
vn 0.4592 0.8695 -0.1821
vn 0.4846 0.8662 -0.1218
vn 0.5009 0.8641 -0.0488
vn 0.3859 0.8788 -0.2805
vn 0.3859 0.8788 0.2805
vn 0.1298 -0.9437 0.3043
vn 0.0697 -0.9362 0.3444
vn 0.0115 -0.9290 0.3699
vn 0.1298 -0.9437 -0.3043
vn 0.0696 -0.9362 -0.3444
vn 0.0115 -0.9290 -0.3699
vn 0.2567 -0.9594 0.1171
vn 0.2331 -0.9565 0.1755
vn 0.1952 -0.9518 0.2366
vn 0.1952 -0.9518 -0.2366
vn 0.2331 -0.9565 -0.1755
vn 0.2567 -0.9594 -0.1171
vn 0.1645 -0.9480 -0.2724
vn 0.1645 -0.9480 0.2724
vn -0.8250 0.0011 0.5651
vn -0.7873 -0.2777 0.5505
vn -0.6790 -0.5199 0.5183
vn -0.5241 -0.7050 0.4778
vn -0.3451 -0.8304 0.4374
vn -0.1555 -0.9023 0.4021
vn -0.8250 0.0010 -0.5651
vn -0.7873 -0.2777 -0.5505
vn -0.6790 -0.5198 -0.5183
vn -0.5239 -0.7051 -0.4778
vn -0.3451 -0.8304 -0.4375
vn -0.1555 -0.9023 -0.4021
vn 0.5379 -0.2368 -0.8091
vn 0.4832 -0.4892 -0.7261
vn 0.4232 -0.6888 -0.5887
vn 0.3669 -0.8300 -0.4201
vn 0.3200 -0.9172 -0.2374
vn 0.2847 -0.9574 -0.0485
vn 0.5379 -0.2368 0.8091
vn 0.4832 -0.4892 0.7261
vn 0.4232 -0.6888 0.5887
vn 0.3669 -0.8300 0.4201
vn 0.3200 -0.9172 0.2373
vn 0.2847 -0.9574 0.0486
vn -0.0591 -0.9202 0.3871
vn -0.8133 0.1428 0.5641
vn -0.0591 -0.9202 -0.3871
vn -0.8133 0.1428 -0.5641
vn 0.2717 -0.9612 0.0469
vn 0.5594 -0.0982 -0.8230
vn 0.5594 -0.0982 0.8230
vn 0.2717 -0.9612 -0.0468
vn -0.1221 0.7523 -0.6474
vn -0.9810 0.1014 -0.1653
vn -0.1722 -0.0141 -0.9850
vn -0.9701 0.1703 -0.1728
vn -0.9855 0.0577 -0.1598
vn -0.9256 0.3595 -0.1181
vn -0.1720 -0.0408 -0.9843
vn -0.9880 -0.0548 -0.1442
vn -0.9117 -0.3022 -0.2784
vn -0.1713 -0.0861 -0.9814
vn -0.7271 -0.5996 -0.3344
vn -0.1679 -0.1973 -0.9659
vn -0.5463 0.8125 -0.2036
vn -0.5677 -0.7342 -0.3724
vn -0.2716 0.9426 -0.1942
vn -0.1444 0.9693 -0.1989
vn -0.4619 -0.7490 -0.4751
vn -0.4095 -0.6471 -0.6431
vn -0.3245 -0.3997 -0.8573
vn -0.1574 -0.3710 -0.9152
vn -0.0957 0.2170 -0.9715
vn -0.1719 0.0302 -0.9847
vn -0.4934 -0.7728 -0.3991
vn -0.5550 -0.8300 0.0559
vn -0.3159 -0.5395 0.7805
vn -0.9156 0.1168 0.3848
vn -0.9272 0.0297 0.3735
vn -0.3868 0.0239 0.9219
vn -0.9317 -0.0671 0.3571
vn -0.7745 -0.2648 0.5745
vn -0.3847 -0.0650 0.9207
vn -0.9242 -0.1914 0.3303
vn -0.8872 0.0716 0.4558
vn -0.3784 -0.1633 0.9111
vn -0.4916 0.7473 0.4471
vn -0.8855 -0.3708 0.2800
vn -0.8386 0.4651 0.2836
vn -0.3647 -0.2864 0.8860
vn -0.8363 0.3208 0.4447
vn -0.7370 -0.6556 0.1645
vn -0.6156 0.7833 0.0863
vn -0.3325 -0.4620 0.8222
vn -0.8538 -0.4543 0.2543
vn -0.6781 -0.3836 0.6269
vn -0.2478 -0.7261 0.6414
vn -0.3553 0.8212 0.4466
vt 0.125000 0.507716
vt 0.159722 0.500000
vt 0.363426 0.476852
vt 0.375000 0.507716
vt 0.375000 0.566358
vt 0.375000 0.625000
vt 0.375000 0.683642
vt 0.375000 0.742284
vt 0.363426 0.773148
vt 0.159722 0.750000
vt 0.125000 0.742284
vt 0.832042 0.502755
vt 0.857355 0.508915
vt 0.637782 0.564938
vt 0.637782 0.504876
vt 0.857355 0.741085
vt 0.647687 0.490917
vt 0.647687 0.490917
vt 0.832042 0.747245
vt 0.650276 0.487268
vt 0.650276 0.762732
vt 0.647687 0.759083
vt 0.640371 0.748774
vt 0.836488 0.748732
vt 0.866881 0.741732
vt 0.869988 0.741943
vt 0.837938 0.749217
vt 0.874660 0.742253
vt 0.840075 0.749986
vt 0.625000 0.000151
vt 0.625000 0.007747
vt 0.574650 0.007724
vt 0.574650 0.000039
vt 0.543438 0.007716
vt 0.543438 0.000000
vt 0.866881 0.508268
vt 0.836488 0.501268
vt 0.837938 0.500783
vt 0.869988 0.508057
vt 0.840075 0.500014
vt 0.874660 0.507747
vt 0.625000 0.242593
vt 0.625031 0.284818
vt 0.574651 0.284747
vt 0.574650 0.242364
vt 0.543438 0.284722
vt 0.543438 0.242284
vt 0.642879 0.481645
vt 0.630882 0.506409
vt 0.628631 0.506909
vt 0.640466 0.479811
vt 0.625113 0.507521
vt 0.636717 0.476929
vt 0.574655 0.507665
vt 0.581557 0.476797
vt 0.543438 0.507716
vt 0.547460 0.476852
vt 0.630882 0.743591
vt 0.642879 0.768355
vt 0.640466 0.770189
vt 0.628631 0.743091
vt 0.636717 0.773071
vt 0.625113 0.742479
vt 0.581557 0.773203
vt 0.574655 0.742335
vt 0.547460 0.773148
vt 0.543438 0.742284
vt 0.625062 0.964254
vt 0.574651 0.965012
vt 0.543438 0.965278
vt 0.543438 0.566358
vt 0.574655 0.566333
vt 0.625113 0.566260
vt 0.628631 0.565955
vt 0.630882 0.565705
vt 0.637782 0.685062
vt 0.637782 0.745125
vt 0.630882 0.684295
vt 0.647981 0.490502
vt 0.640076 0.501642
vt 0.639944 0.501828
vt 0.648114 0.490315
vt 0.639879 0.501921
vt 0.648179 0.490223
vt 0.638992 0.503171
vt 0.649066 0.488973
vt 0.638417 0.503980
vt 0.649640 0.488164
vt 0.640076 0.748358
vt 0.647981 0.759498
vt 0.648114 0.759685
vt 0.639944 0.748172
vt 0.648179 0.759777
vt 0.639879 0.748080
vt 0.649066 0.761027
vt 0.638992 0.746829
vt 0.649640 0.761836
vt 0.638418 0.746020
vt 0.638992 0.503171
vt 0.649066 0.488973
vt 0.639879 0.501921
vt 0.639944 0.501828
vt 0.648114 0.490315
vt 0.640077 0.501642
vt 0.649640 0.761836
vt 0.649066 0.761027
vt 0.648179 0.759777
vt 0.639879 0.748080
vt 0.648114 0.759685
vt 0.639944 0.748172
vt 0.647981 0.759498
vt 0.640076 0.748358
vt 0.640371 0.501226
vt 0.640371 0.501226
vt 0.640371 0.748774
vt 0.647687 0.759083
vt 0.820391 0.748237
vt 0.825477 0.747804
vt 0.831043 0.747330
vt 0.836241 0.746887
vt 0.840281 0.746543
vt 0.849609 0.742970
vt 0.852990 0.742147
vt 0.857355 0.741085
vt 0.856691 0.741247
vt 0.860147 0.740406
vt 0.862833 0.739752
vt 0.857355 0.511291
vt 0.857355 0.510254
vt 0.857355 0.508915
vt 0.857355 0.509119
vt 0.857355 0.508058
vt 0.857355 0.507234
vt 0.839789 0.504640
vt 0.836407 0.503817
vt 0.832042 0.502755
vt 0.832707 0.502917
vt 0.829250 0.502076
vt 0.826564 0.501422
vt 0.661927 0.488261
vt 0.656841 0.487828
vt 0.650276 0.487268
vt 0.651275 0.487353
vt 0.646077 0.486910
vt 0.642037 0.486566
vt 0.641605 0.499487
vt 0.639936 0.501839
vt 0.638110 0.504413
vt 0.636404 0.506817
vt 0.635078 0.508685
vt 0.637782 0.742665
vt 0.637782 0.743739
vt 0.637782 0.744914
vt 0.637782 0.746011
vt 0.637782 0.746863
vt 0.646453 0.757344
vt 0.648121 0.759696
vt 0.649948 0.762270
vt 0.651654 0.764674
vt 0.652979 0.766542
vt 0.839789 0.504640
vt 0.836266 0.503842
vt 0.831705 0.502888
vt 0.825480 0.502243
vt 0.825477 0.502196
vt 0.820391 0.501763
vt 0.646452 0.492656
vt 0.648121 0.490304
vt 0.648268 0.490347
vt 0.650813 0.487666
vt 0.656871 0.487901
vt 0.661927 0.488261
vt 0.648269 0.759653
vt 0.650813 0.762334
vt 0.656871 0.762099
vt 0.656841 0.762172
vt 0.661927 0.761739
vt 0.839789 0.745360
vt 0.839788 0.745360
vt 0.836407 0.746183
vt 0.836266 0.746158
vt 0.831705 0.747112
vt 0.825480 0.747758
vt 0.637782 0.742665
vt 0.637953 0.743759
vt 0.638359 0.745211
vt 0.640077 0.748125
vt 0.639937 0.748161
vt 0.641605 0.750513
vt 0.857355 0.511291
vt 0.857157 0.510248
vt 0.856595 0.508961
vt 0.852850 0.507878
vt 0.852990 0.507853
vt 0.849609 0.507030
vt 0.849609 0.507030
vt 0.640077 0.501875
vt 0.638359 0.504789
vt 0.637953 0.506241
vt 0.637782 0.506261
vt 0.637782 0.507335
vt 0.852850 0.742122
vt 0.856595 0.741039
vt 0.857157 0.739752
vt 0.857355 0.739746
vt 0.857355 0.738709
vt 0.637782 0.625000
vt 0.630882 0.625000
vt 0.628631 0.684045
vt 0.628631 0.625000
vt 0.625113 0.683740
vt 0.625113 0.625000
vt 0.574655 0.683667
vt 0.574655 0.625000
vt 0.543438 0.683642
vt 0.543438 0.625000
vt 0.637782 0.742448
vt 0.637782 0.742448
vt 0.637782 0.742390
vt 0.637782 0.742390
vt 0.637782 0.742223
vt 0.637782 0.742223
vt 0.637782 0.741499
vt 0.637782 0.741499
vt 0.637782 0.740911
vt 0.637782 0.740911
vt 0.637782 0.687739
vt 0.637782 0.687797
vt 0.637782 0.687964
vt 0.637782 0.688687
vt 0.637782 0.689276
vt 0.637782 0.689276
vt 0.637782 0.688687
vt 0.637782 0.687964
vt 0.637782 0.687739
vt 0.637782 0.743579
vt 0.637782 0.743579
vt 0.637782 0.743146
vt 0.637782 0.742448
vt 0.637782 0.742448
vt 0.637782 0.742491
vt 0.637782 0.742491
vt 0.637782 0.686608
vt 0.637782 0.687041
vt 0.637782 0.687738
vt 0.637782 0.687695
vt 0.637782 0.687696
vt 0.637782 0.687738
vt 0.637782 0.687041
vt 0.850107 0.510325
vt 0.850115 0.510350
vt 0.653270 0.492827
vt 0.651560 0.494424
vt 0.656041 0.491510
vt 0.659736 0.490947
vt 0.663468 0.490974
vt 0.651560 0.755577
vt 0.653270 0.757173
vt 0.656041 0.758490
vt 0.659736 0.759053
vt 0.663468 0.759026
vt 0.832187 0.745103
vt 0.828348 0.745754
vt 0.643698 0.743390
vt 0.643745 0.744448
vt 0.644303 0.745939
vt 0.645317 0.747775
vt 0.646593 0.749503
vt 0.850161 0.739513
vt 0.850163 0.739507
vt 0.646593 0.500497
vt 0.645317 0.502225
vt 0.644304 0.504061
vt 0.643745 0.505552
vt 0.643698 0.506611
vt 0.835076 0.744460
vt 0.820099 0.746663
vt 0.850381 0.738856
vt 0.850381 0.511144
vt 0.823281 0.503629
vt 0.823324 0.503633
vt 0.820099 0.503337
vt 0.833688 0.505812
vt 0.831014 0.505226
vt 0.831464 0.505102
vt 0.834222 0.505709
vt 0.832183 0.504898
vt 0.835075 0.505540
vt 0.832185 0.504897
vt 0.835076 0.505540
vt 0.832186 0.504897
vt 0.835076 0.505540
vt 0.827490 0.504635
vt 0.827818 0.504488
vt 0.828345 0.504246
vt 0.828347 0.504246
vt 0.828348 0.504246
vt 0.823594 0.504136
vt 0.823769 0.503971
vt 0.824046 0.503700
vt 0.824048 0.503700
vt 0.824048 0.503699
vt 0.820013 0.503805
vt 0.820048 0.503627
vt 0.820099 0.503337
vt 0.820099 0.503337
vt 0.654685 0.493527
vt 0.653051 0.494931
vt 0.652474 0.494731
vt 0.654139 0.493254
vt 0.651562 0.494424
vt 0.653275 0.492830
vt 0.651561 0.494424
vt 0.653271 0.492828
vt 0.651560 0.494424
vt 0.657265 0.492370
vt 0.656794 0.492037
vt 0.656047 0.491514
vt 0.656043 0.491511
vt 0.660573 0.491802
vt 0.660246 0.491468
vt 0.659740 0.490951
vt 0.659737 0.490948
vt 0.663923 0.491773
vt 0.663741 0.491460
vt 0.663469 0.490975
vt 0.663468 0.490974
vt 0.663468 0.490974
vt 0.653051 0.755069
vt 0.654685 0.756473
vt 0.654139 0.756746
vt 0.652474 0.755269
vt 0.653276 0.757170
vt 0.651562 0.755576
vt 0.653272 0.757172
vt 0.651560 0.755576
vt 0.657265 0.757630
vt 0.656794 0.757963
vt 0.656047 0.758486
vt 0.656043 0.758489
vt 0.656041 0.758490
vt 0.660573 0.758197
vt 0.660246 0.758532
vt 0.659740 0.759049
vt 0.659737 0.759052
vt 0.663923 0.758227
vt 0.663742 0.758540
vt 0.663469 0.759025
vt 0.663468 0.759026
vt 0.663468 0.759026
vt 0.831015 0.744774
vt 0.833688 0.744188
vt 0.834222 0.744291
vt 0.831464 0.744899
vt 0.835075 0.744460
vt 0.832183 0.745102
vt 0.835075 0.744460
vt 0.832186 0.745103
vt 0.835076 0.744460
vt 0.827490 0.745365
vt 0.827818 0.745512
vt 0.828345 0.745754
vt 0.828347 0.745754
vt 0.823594 0.745863
vt 0.823769 0.746029
vt 0.824046 0.746300
vt 0.824047 0.746300
vt 0.824048 0.746301
vt 0.820013 0.746195
vt 0.820048 0.746373
vt 0.820099 0.746663
vt 0.820099 0.746663
vt 0.645436 0.743610
vt 0.645499 0.744604
vt 0.644835 0.744538
vt 0.644773 0.743521
vt 0.643749 0.744450
vt 0.643699 0.743391
vt 0.643746 0.744448
vt 0.643698 0.743390
vt 0.646012 0.745997
vt 0.645364 0.745971
vt 0.644306 0.745941
vt 0.644304 0.745940
vt 0.646924 0.747647
vt 0.646313 0.747692
vt 0.645320 0.747775
vt 0.645318 0.747775
vt 0.648086 0.749195
vt 0.647516 0.749309
vt 0.646594 0.749503
vt 0.646593 0.749503
vt 0.848322 0.511101
vt 0.848019 0.510355
vt 0.848818 0.510344
vt 0.849113 0.511118
vt 0.850101 0.510325
vt 0.850379 0.511144
vt 0.850106 0.510325
vt 0.850381 0.511144
vt 0.850107 0.510325
vt 0.846912 0.509515
vt 0.847686 0.509472
vt 0.848935 0.509401
vt 0.848939 0.509400
vt 0.848940 0.509400
vt 0.845051 0.508719
vt 0.845742 0.508648
vt 0.846849 0.508533
vt 0.846852 0.508532
vt 0.846854 0.508532
vt 0.842851 0.508083
vt 0.843446 0.507991
vt 0.844398 0.507843
vt 0.844398 0.507843
vt 0.844399 0.507843
vt 0.648086 0.500806
vt 0.646924 0.502353
vt 0.646313 0.502308
vt 0.647516 0.500691
vt 0.645320 0.502225
vt 0.646594 0.500497
vt 0.645318 0.502225
vt 0.646593 0.500497
vt 0.646013 0.504003
vt 0.645364 0.504029
vt 0.644306 0.504059
vt 0.644304 0.504061
vt 0.645499 0.505396
vt 0.644834 0.505462
vt 0.643749 0.505551
vt 0.643746 0.505552
vt 0.645436 0.506390
vt 0.644773 0.506480
vt 0.643698 0.506609
vt 0.643698 0.506610
vt 0.842851 0.741918
vt 0.845052 0.741281
vt 0.845742 0.741352
vt 0.843446 0.742009
vt 0.846849 0.741467
vt 0.844398 0.742157
vt 0.846853 0.741468
vt 0.844399 0.742158
vt 0.846854 0.741468
vt 0.844399 0.742158
vt 0.846912 0.740485
vt 0.847686 0.740529
vt 0.848935 0.740599
vt 0.848939 0.740599
vt 0.848940 0.740599
vt 0.848019 0.739645
vt 0.848818 0.739656
vt 0.850101 0.739675
vt 0.850106 0.739675
vt 0.850107 0.739675
vt 0.848322 0.738899
vt 0.849113 0.738882
vt 0.850380 0.738856
vt 0.850381 0.738856
vt 0.846854 0.741468
vt 0.850152 0.510461
vt 0.850157 0.510475
vt 0.832186 0.504897
vt 0.823241 0.503625
vt 0.823268 0.746372
vt 0.824048 0.746301
vt 0.828348 0.745754
vt 0.850160 0.510484
vt 0.823240 0.746375
vt 0.832187 0.745103
vt 0.820432 0.501767
vt 0.820140 0.503342
vt 0.820551 0.501782
vt 0.820260 0.503356
vt 0.820741 0.501805
vt 0.820453 0.503370
vt 0.822190 0.501932
vt 0.821913 0.503503
vt 0.823057 0.502014
vt 0.822788 0.503584
vt 0.823988 0.502102
vt 0.823727 0.503670
vt 0.820140 0.746658
vt 0.820432 0.748233
vt 0.820260 0.746644
vt 0.820551 0.748218
vt 0.820453 0.746631
vt 0.820741 0.748195
vt 0.821913 0.746497
vt 0.822190 0.748068
vt 0.822788 0.746416
vt 0.823057 0.747986
vt 0.823727 0.746330
vt 0.823988 0.747898
vt 0.850373 0.511135
vt 0.857349 0.511283
vt 0.850352 0.511110
vt 0.857331 0.511258
vt 0.850356 0.511071
vt 0.857302 0.511218
vt 0.850255 0.510768
vt 0.857285 0.510922
vt 0.850195 0.510587
vt 0.857251 0.510745
vt 0.850129 0.510392
vt 0.857215 0.510554
vt 0.850381 0.738856
vt 0.857349 0.738717
vt 0.850373 0.738865
vt 0.857331 0.738742
vt 0.850352 0.738890
vt 0.857302 0.738782
vt 0.850356 0.738929
vt 0.857285 0.739078
vt 0.850255 0.739232
vt 0.857252 0.739255
vt 0.850195 0.739413
vt 0.857215 0.739446
vt 0.850129 0.739608
vt 0.823929 0.746311
vt 0.850163 0.510493
vt 0.822376 0.503546
vt 0.822376 0.746454
vt 0.850223 0.510672
vt 0.850223 0.739328
vt 0.846854 0.741468
vt 0.850107 0.739675
vt 0.822371 0.503546
vt 0.822322 0.503541
vt 0.822498 0.503558
vt 0.822714 0.503577
vt 0.823004 0.503604
vt 0.823346 0.503635
vt 0.823867 0.503683
vt 0.822322 0.746459
vt 0.822371 0.746454
vt 0.822498 0.746442
vt 0.822714 0.746423
vt 0.823004 0.746396
vt 0.823346 0.746365
vt 0.823867 0.746317
vt 0.850226 0.510683
vt 0.850222 0.510673
vt 0.850213 0.510647
vt 0.850198 0.510602
vt 0.850179 0.510542
vt 0.850155 0.510471
vt 0.850119 0.510363
vt 0.850222 0.739327
vt 0.850226 0.739317
vt 0.850213 0.739354
vt 0.850198 0.739398
vt 0.850178 0.739458
vt 0.850155 0.739529
vt 0.850119 0.739637
vt 0.823268 0.503628
vt 0.850161 0.510487
vt 0.823394 0.503639
vt 0.823486 0.503648
vt 0.823595 0.503658
vt 0.823929 0.503688
vt 0.823281 0.746371
vt 0.823324 0.746367
vt 0.823393 0.746361
vt 0.823486 0.746352
vt 0.823595 0.746342
vt 0.850146 0.510442
vt 0.850138 0.510419
vt 0.850160 0.739516
vt 0.850157 0.739525
vt 0.850152 0.739539
vt 0.850146 0.739558
vt 0.850138 0.739581
vt 0.850115 0.739650
s 0
usemtl Material
f 5/1/1 6/2/1 13/3/1 14/4/1 216/5/1 199/6/1 207/7/1 9/8/1 10/9/1 1/10/1 2/11/1
f 7/12/2 8/13/2 19/13/2 20/12/2
f 213/14/3 26/15/3 29/15/3 214/14/3
f 8/13/4 3/16/4 18/16/4 19/13/4
f 16/17/2 21/18/2 765/18/2 761/17/2
f 3/16/5 4/19/5 17/19/5 18/16/5
f 25/20/6 7/12/6 20/12/6 28/20/6
f 4/19/7 27/21/7 30/21/7 17/19/7
f 11/22/8 12/23/8 763/23/8 764/22/8
f 32/24/9 36/25/9 38/26/9 35/27/9
f 35/27/10 38/26/10 39/28/10 34/29/10
f 34/30/11 39/31/11 40/32/11 33/33/11
f 33/33/12 40/32/12 37/34/12 31/35/12
f 42/36/13 46/37/13 48/38/13 45/39/13
f 45/39/14 48/38/14 49/40/14 44/41/14
f 44/42/15 49/43/15 50/44/15 43/45/15
f 43/45/16 50/44/16 47/46/16 41/47/16
f 52/48/17 56/49/17 58/50/17 55/51/17
f 55/51/18 58/50/18 59/52/18 54/53/18
f 54/53/19 59/52/19 60/54/19 53/55/19
f 53/55/20 60/54/20 57/56/20 51/57/20
f 62/58/21 66/59/21 68/60/21 65/61/21
f 65/61/22 68/60/22 69/62/22 64/63/22
f 64/63/23 69/62/23 70/64/23 63/65/23
f 63/65/24 70/64/24 67/66/24 61/67/24
f 36/25/25 42/36/25 45/39/25 38/26/25
f 38/26/26 45/39/26 44/41/26 39/28/26
f 39/31/27 44/42/27 43/45/27 40/32/27
f 40/32/28 43/45/28 41/47/28 37/34/28
f 66/59/29 32/24/29 35/27/29 68/60/29
f 68/60/30 35/27/30 34/29/30 69/62/30
f 69/62/31 34/68/31 33/69/31 70/64/31
f 70/64/32 33/69/32 31/70/32 67/66/32
f 215/71/33 57/56/33 60/54/33 217/72/33
f 217/72/34 60/54/34 59/52/34 218/73/34
f 218/73/35 59/52/35 58/50/35 219/74/35
f 219/74/36 58/50/36 56/49/36 220/75/36
f 51/57/37 47/46/37 50/44/37 53/55/37
f 53/55/38 50/44/38 49/43/38 54/53/38
f 54/53/39 49/40/39 48/38/39 55/51/39
f 55/51/40 48/38/40 46/37/40 52/48/40
f 27/21/8 4/19/8 32/24/8 66/59/8
f 4/19/8 3/16/8 36/25/8 32/24/8
f 3/16/8 8/13/8 42/36/8 36/25/8
f 8/13/8 7/12/8 46/37/8 42/36/8
f 7/12/8 25/20/8 52/48/8 46/37/8
f 25/20/8 26/15/8 56/49/8 52/48/8
f 223/76/8 222/77/8 62/58/8 211/78/8
f 222/77/8 27/21/8 66/59/8 62/58/8
f 72/79/41 76/80/41 78/81/41 75/82/41
f 75/82/42 78/81/42 79/83/42 74/84/42
f 74/84/43 79/83/43 80/85/43 73/86/43
f 73/86/44 80/85/44 77/87/44 71/88/44
f 82/89/45 86/90/45 88/91/45 85/92/45
f 85/92/46 88/91/46 89/93/46 84/94/46
f 84/94/47 89/93/47 90/95/47 83/96/47
f 83/96/48 90/95/48 87/97/48 81/98/48
f 92/88/49 96/87/49 98/99/49 95/100/49
f 95/100/50 98/99/50 99/101/50 94/84/50
f 94/84/51 99/101/51 100/102/51 93/103/51
f 93/103/52 100/102/52 97/104/52 91/79/52
f 102/98/53 106/105/53 108/106/53 105/96/53
f 105/96/54 108/106/54 109/107/54 104/108/54
f 104/108/55 109/107/55 110/109/55 103/110/55
f 103/110/56 110/109/56 107/111/56 101/112/56
f 76/80/57 97/104/57 100/102/57 78/81/57
f 78/81/58 100/102/58 99/101/58 79/83/58
f 79/83/59 99/101/59 98/99/59 80/85/59
f 80/85/60 98/99/60 96/87/60 77/87/60
f 101/112/61 82/89/61 85/92/61 103/110/61
f 103/110/62 85/92/62 84/94/62 104/108/62
f 104/108/63 84/94/63 83/96/63 105/96/63
f 105/96/64 83/96/64 81/98/64 102/98/64
f 71/88/65 92/88/65 95/100/65 73/86/65
f 73/86/66 95/100/66 94/84/66 74/84/66
f 74/84/67 94/84/67 93/103/67 75/82/67
f 75/82/68 93/103/68 91/79/68 72/79/68
f 86/90/69 107/111/69 110/109/69 88/91/69
f 88/91/70 110/109/70 109/107/70 89/93/70
f 89/93/71 109/107/71 108/106/71 90/95/71
f 90/95/72 108/106/72 106/105/72 87/97/72
f 16/17/73 15/113/73 76/80/73 72/79/73
f 71/88/74 77/87/74 26/15/74 25/20/74
f 21/18/75 16/17/75 72/79/75 91/79/75
f 92/88/74 71/88/74 25/20/74 28/20/74
f 77/87/74 96/87/74 29/15/74 26/15/74
f 15/113/76 22/114/76 97/104/76 76/80/76
f 12/23/77 11/22/77 86/90/77 82/89/77
f 81/98/78 87/97/78 27/21/78 222/77/78
f 23/115/79 12/23/79 82/89/79 101/112/79
f 102/98/78 81/98/78 222/77/78 221/77/78
f 87/97/78 106/105/78 30/21/78 27/21/78
f 11/22/80 24/116/80 107/111/80 86/90/80
f 22/114/81 21/18/81 91/79/81 97/104/81
f 96/87/74 92/88/74 28/20/74 29/15/74
f 24/116/82 23/115/82 101/112/82 107/111/82
f 106/105/78 102/98/78 221/77/78 30/21/78
f 111/117/83 114/118/83 113/19/83
f 114/118/84 115/119/84 113/19/84
f 115/119/85 116/120/85 113/19/85
f 116/120/86 112/121/86 113/19/86
f 117/122/87 120/123/87 119/124/87
f 120/123/88 121/125/88 119/16/88
f 121/125/89 122/126/89 119/16/89
f 122/126/90 118/127/90 119/16/90
f 123/128/91 126/129/91 125/130/91
f 126/129/92 127/131/92 125/13/92
f 127/131/93 128/132/93 125/13/93
f 128/132/94 124/133/94 125/13/94
f 129/134/95 132/135/95 131/136/95
f 132/135/96 133/137/96 131/12/96
f 133/137/97 134/138/97 131/12/97
f 134/138/98 130/139/98 131/12/98
f 135/140/99 138/141/99 137/142/99
f 138/141/100 139/143/100 137/20/100
f 139/143/101 140/144/101 137/20/101
f 140/144/102 136/145/102 137/20/102
f 141/146/103 144/147/103 143/15/103
f 144/147/104 145/148/104 143/15/104
f 145/148/105 146/149/105 143/15/105
f 146/149/106 142/150/106 143/15/106
f 147/151/107 150/152/107 149/77/107
f 150/152/108 151/153/108 149/77/108
f 151/153/109 152/154/109 149/77/109
f 152/154/110 148/155/110 149/77/110
f 153/156/111 156/157/111 155/21/111
f 156/157/112 157/158/112 155/21/112
f 157/158/113 158/159/113 155/21/113
f 158/159/114 154/160/114 155/21/114
f 129/134/115 175/161/115 178/162/115 132/135/115
f 132/135/116 178/162/116 177/163/116 133/12/116
f 133/12/117 177/163/117 176/164/117 134/165/117
f 134/165/118 176/164/118 174/166/118 130/166/118
f 179/167/119 136/167/119 140/168/119 181/169/119
f 181/169/120 140/168/120 139/20/120 182/170/120
f 182/170/121 139/20/121 138/141/121 183/171/121
f 183/171/122 138/141/122 135/140/122 180/172/122
f 153/156/123 195/156/123 198/173/123 156/157/123
f 156/157/124 198/173/124 197/174/124 157/21/124
f 157/21/125 197/174/125 196/175/125 158/176/125
f 158/176/126 196/175/126 194/177/126 154/177/126
f 159/178/127 112/179/127 116/180/127 161/181/127
f 161/181/128 116/180/128 115/19/128 162/182/128
f 162/182/129 115/19/129 114/118/129 163/183/129
f 163/183/130 114/118/130 111/117/130 160/117/130
f 147/151/131 190/184/131 193/185/131 150/152/131
f 150/152/132 193/185/132 192/186/132 151/77/132
f 151/77/133 192/186/133 191/187/133 152/188/133
f 152/188/134 191/187/134 189/189/134 148/189/134
f 123/128/135 170/190/135 173/191/135 126/129/135
f 126/129/136 173/191/136 172/192/136 127/13/136
f 127/13/137 172/192/137 171/193/137 128/194/137
f 128/194/138 171/193/138 169/195/138 124/196/138
f 141/146/139 185/146/139 188/197/139 144/147/139
f 144/147/140 188/197/140 187/198/140 145/15/140
f 145/15/141 187/198/141 186/199/141 146/200/141
f 146/200/142 186/199/142 184/201/142 142/201/142
f 117/122/143 165/122/143 168/202/143 120/123/143
f 120/123/144 168/202/144 167/203/144 121/16/144
f 121/16/145 167/203/145 166/204/145 122/205/145
f 122/205/146 166/204/146 164/206/146 118/206/146
f 117/122/5 112/179/5 159/178/5 165/122/5
f 18/16/147 17/19/147 113/19/147 112/179/147 117/122/147 119/124/147
f 111/117/7 154/177/7 194/177/7 160/117/7
f 17/19/148 30/21/148 155/21/148 154/177/148 111/117/148 113/19/148
f 19/13/149 18/16/149 119/124/149 118/206/149 123/128/149 125/130/149
f 123/128/4 118/206/4 164/206/4 170/190/4
f 129/134/2 124/196/2 169/195/2 175/161/2
f 20/12/150 19/13/150 125/130/150 124/196/150 129/134/150 131/136/150
f 28/20/151 20/12/151 131/136/151 130/166/151 135/140/151 137/142/151
f 135/140/6 130/166/6 174/166/6 180/172/6
f 141/146/74 136/167/74 179/167/74 185/146/74
f 29/15/152 28/20/152 137/142/152 136/167/152 141/146/152 143/15/152
f 221/77/153 224/76/153 201/207/153 214/14/153 29/15/153 143/15/153 142/201/153 147/151/153 149/77/153
f 147/151/3 142/201/3 184/201/3 190/184/3
f 153/156/78 148/189/78 189/189/78 195/156/78
f 30/21/154 221/77/154 149/77/154 148/189/154 153/156/154 155/21/154
f 180/172/6 174/166/6 269/166/6 274/172/6
f 213/14/8 200/207/8 206/208/8 220/75/8
f 210/209/36 205/210/36 206/208/36 211/78/36
f 209/211/35 204/212/35 205/210/35 210/209/35
f 208/213/34 203/214/34 204/212/34 209/211/34
f 212/215/33 202/216/33 203/214/33 208/213/33
f 223/76/3 200/207/3 201/207/3 224/76/3
f 61/67/33 212/215/33 208/213/33 63/65/33
f 63/65/34 208/213/34 209/211/34 64/63/34
f 64/63/35 209/211/35 210/209/35 65/61/35
f 65/61/36 210/209/36 211/78/36 62/58/36
f 200/207/8 223/76/8 211/78/8 206/208/8
f 26/15/8 213/14/8 220/75/8 56/49/8
f 205/210/36 219/74/36 220/75/36 206/208/36
f 204/212/35 218/73/35 219/74/35 205/210/35
f 203/214/34 217/72/34 218/73/34 204/212/34
f 202/216/33 215/71/33 217/72/33 203/214/33
f 200/207/3 213/14/3 214/14/3 201/207/3
f 231/217/155 225/218/155 227/219/155 234/220/155
f 234/220/156 227/219/156 228/221/156 233/222/156
f 233/222/157 228/221/157 229/223/157 232/224/157
f 232/224/158 229/223/158 226/225/158 230/226/158
f 225/218/36 235/227/36 237/228/36 227/219/36
f 227/219/35 237/228/35 238/229/35 228/221/35
f 228/221/34 238/229/34 239/230/34 229/223/34
f 229/223/33 239/230/33 236/231/33 226/225/33
f 230/226/159 240/232/159 242/233/159 232/224/159
f 232/224/160 242/233/160 243/234/160 233/222/160
f 233/222/161 243/234/161 244/228/161 234/220/161
f 234/220/162 244/228/162 241/235/162 231/217/162
f 235/227/163 241/235/163 244/228/163 237/228/163
f 237/228/164 244/228/164 243/234/164 238/229/164
f 238/229/165 243/234/165 242/233/165 239/230/165
f 239/230/166 242/233/166 240/232/166 236/231/166
f 226/225/3 236/231/3 240/232/3 230/226/3
f 246/236/158 250/237/158 252/238/158 249/238/158
f 249/238/157 252/238/157 253/239/157 248/240/157
f 248/240/156 253/239/156 254/241/156 247/242/156
f 247/242/155 254/241/155 251/218/155 245/217/155
f 250/237/33 255/243/33 257/244/33 252/238/33
f 252/238/34 257/244/34 258/245/34 253/239/34
f 253/239/35 258/245/35 259/246/35 254/241/35
f 254/241/36 259/246/36 256/227/36 251/218/36
f 245/217/162 260/235/162 262/247/162 247/242/162
f 247/242/161 262/247/161 263/248/161 248/240/161
f 248/240/160 263/248/160 264/249/160 249/238/160
f 249/238/159 264/249/159 261/243/159 246/236/159
f 255/243/166 261/243/166 264/249/166 257/244/166
f 257/244/165 264/249/165 263/248/165 258/245/165
f 258/245/164 263/248/164 262/247/164 259/246/164
f 259/246/163 262/247/163 260/235/163 256/227/163
f 225/218/6 231/217/6 245/217/6 251/218/6
f 246/236/3 261/243/3 224/76/3 221/77/3
f 250/237/3 246/236/3 221/77/3 222/77/3
f 231/217/1 241/235/1 260/235/1 245/217/1
f 235/227/8 225/218/8 251/218/8 256/227/8
f 255/243/3 250/237/3 222/77/3 223/76/3
f 241/235/7 235/227/7 256/227/7 260/235/7
f 261/243/3 255/243/3 223/76/3 224/76/3
f 174/166/167 176/164/167 268/164/167 269/166/167
f 163/183/168 160/117/168 284/117/168 283/183/168
f 184/201/169 186/199/169 298/199/169 299/201/169
f 197/174/170 198/173/170 276/173/170 277/174/170
f 172/192/171 173/191/171 291/191/171 292/192/171
f 185/146/172 179/167/172 271/167/172 295/146/172
f 179/167/173 181/169/173 270/169/173 271/167/173
f 196/175/174 197/174/174 277/174/174 278/175/174
f 171/193/175 172/192/175 292/192/175 293/193/175
f 160/117/7 194/177/7 279/177/7 284/117/7
f 193/185/176 190/184/176 285/184/176 286/185/176
f 168/202/177 165/122/177 300/122/177 301/202/177
f 194/177/178 196/175/178 278/175/178 279/177/178
f 169/195/179 171/193/179 293/193/179 294/195/179
f 181/169/180 182/170/180 272/170/180 270/169/180
f 192/186/181 193/185/181 286/185/181 287/186/181
f 167/203/182 168/202/182 301/202/182 302/203/182
f 190/184/183 184/201/183 299/201/183 285/184/183
f 159/178/184 161/181/184 280/181/184 281/178/184
f 170/190/185 164/206/185 304/206/185 290/190/185
f 182/170/186 183/171/186 273/171/186 272/170/186
f 191/187/187 192/186/187 287/186/187 288/187/187
f 166/204/188 167/203/188 302/203/188 303/204/188
f 178/162/189 175/161/189 265/161/189 266/162/189
f 195/156/190 189/189/190 289/189/190 275/156/190
f 188/197/191 185/146/191 295/146/191 296/197/191
f 175/161/192 169/195/192 294/195/192 265/161/192
f 183/171/193 180/172/193 274/172/193 273/171/193
f 189/189/194 191/187/194 288/187/194 289/189/194
f 164/206/195 166/204/195 303/204/195 304/206/195
f 177/163/196 178/162/196 266/162/196 267/163/196
f 161/181/197 162/182/197 282/182/197 280/181/197
f 187/198/198 188/197/198 296/197/198 297/198/198
f 176/164/199 177/163/199 267/163/199 268/164/199
f 162/182/200 163/183/200 283/183/200 282/182/200
f 186/199/201 187/198/201 297/198/201 298/199/201
f 198/173/202 195/156/202 275/156/202 276/173/202
f 173/191/203 170/190/203 290/190/203 291/191/203
f 165/122/204 159/178/204 281/178/204 300/122/204
f 725/250/205 619/251/205 800/251/205 774/250/205
f 300/122/206 281/178/206 550/178/206 557/122/206
f 310/252/207 311/253/207 271/167/207 270/169/207
f 312/254/207 310/252/207 270/169/207 272/170/207
f 313/255/207 312/254/207 272/170/207 273/171/207
f 314/256/207 313/255/207 273/171/207 274/172/207
f 315/257/207 316/258/207 276/173/207 275/156/207
f 316/258/207 317/259/207 277/174/207 276/173/207
f 317/259/207 318/260/207 278/175/207 277/174/207
f 318/260/207 319/261/207 279/177/207 278/175/207
f 721/262/208 723/263/208 813/263/208 811/262/208
f 325/264/207 326/265/207 286/185/207 285/184/207
f 326/265/207 327/266/207 287/186/207 286/185/207
f 327/266/207 328/267/207 288/187/207 287/186/207
f 328/267/207 329/268/207 289/189/207 288/187/207
f 303/204/209 302/203/209 559/203/209 560/204/209
f 344/269/210 626/270/210 827/270/210 818/269/210
f 335/271/207 336/272/207 296/197/207 295/146/207
f 336/272/207 337/273/207 297/198/207 296/197/207
f 337/273/207 338/274/207 298/199/207 297/198/207
f 338/274/207 339/275/207 299/201/207 298/199/207
f 302/203/211 301/202/211 558/202/211 559/203/211
f 268/164/212 267/163/212 547/163/212 548/164/212
f 722/276/213 721/262/213 811/262/213 809/276/213
f 319/261/207 642/277/207 284/117/207 279/177/207
f 652/278/207 643/279/207 290/190/207 304/206/207
f 607/280/214 608/281/214 789/281/214 787/280/214
f 637/282/207 314/256/207 274/172/207 269/166/207
f 311/253/207 335/271/207 295/146/207 271/167/207
f 339/275/207 325/264/207 285/184/207 299/201/207
f 329/268/207 315/257/207 275/156/207 289/189/207
f 346/283/215 350/284/215 352/285/215 349/286/215
f 349/286/216 352/285/216 353/287/216 348/288/216
f 348/288/217 353/287/217 354/289/217 347/290/217
f 347/290/218 354/289/218 351/291/218 345/292/218
f 350/284/219 355/293/219 357/294/219 352/285/219
f 352/285/220 357/294/220 358/295/220 353/287/220
f 353/287/221 358/295/221 359/296/221 354/289/221
f 354/289/222 359/296/222 356/297/222 351/291/222
f 355/293/223 360/298/223 362/299/223 357/294/223
f 357/294/224 362/299/224 363/300/224 358/295/224
f 358/295/225 363/300/225 364/301/225 359/296/225
f 359/296/226 364/301/226 361/302/226 356/297/226
f 360/298/227 365/303/227 367/304/227 362/299/227
f 362/299/228 367/304/228 368/305/228 363/300/228
f 363/300/229 368/305/229 369/306/229 364/301/229
f 364/301/230 369/306/230 366/282/230 361/302/230
f 371/307/231 375/308/231 377/309/231 374/310/231
f 374/310/232 377/309/232 378/311/232 373/312/232
f 373/312/233 378/311/233 379/313/233 372/314/233
f 372/314/234 379/313/234 376/315/234 370/252/234
f 381/316/235 371/307/235 374/310/235 384/317/235
f 384/317/236 374/310/236 373/312/236 383/318/236
f 383/318/237 373/312/237 372/314/237 382/319/237
f 382/319/238 372/314/238 370/252/238 380/254/238
f 386/320/239 381/316/239 384/317/239 389/321/239
f 389/321/240 384/317/240 383/318/240 388/322/240
f 388/322/241 383/318/241 382/319/241 387/323/241
f 387/323/242 382/319/242 380/254/242 385/255/242
f 391/324/243 386/320/243 389/321/243 394/325/243
f 394/325/244 389/321/244 388/322/244 393/326/244
f 393/326/245 388/322/245 387/323/245 392/327/245
f 392/327/246 387/323/246 385/255/246 390/328/246
f 396/329/247 400/330/247 402/331/247 399/332/247
f 399/332/248 402/331/248 403/333/248 398/334/248
f 398/334/249 403/333/249 404/335/249 397/336/249
f 397/336/250 404/335/250 401/258/250 395/257/250
f 400/330/251 405/337/251 407/338/251 402/331/251
f 402/331/252 407/338/252 408/339/252 403/333/252
f 403/333/253 408/339/253 409/340/253 404/335/253
f 404/335/254 409/340/254 406/341/254 401/258/254
f 405/337/255 410/342/255 412/343/255 407/338/255
f 407/338/256 412/343/256 413/344/256 408/339/256
f 408/339/257 413/344/257 414/345/257 409/340/257
f 409/340/258 414/345/258 411/260/258 406/341/258
f 410/342/259 415/346/259 417/347/259 412/343/259
f 412/343/260 417/347/260 418/348/260 413/344/260
f 413/344/261 418/348/261 419/349/261 414/345/261
f 414/345/262 419/349/262 416/350/262 411/260/262
f 421/351/263 425/352/263 427/353/263 424/354/263
f 424/354/264 427/353/264 428/355/264 423/356/264
f 423/356/265 428/355/265 429/357/265 422/358/265
f 422/358/266 429/357/266 426/359/266 420/262/266
f 431/360/267 421/351/267 424/354/267 434/361/267
f 434/361/268 424/354/268 423/356/268 433/362/268
f 433/362/269 423/356/269 422/358/269 432/363/269
f 432/363/270 422/358/270 420/262/270 430/263/270
f 436/364/271 431/360/271 434/361/271 439/365/271
f 439/365/272 434/361/272 433/362/272 438/366/272
f 438/366/273 433/362/273 432/363/273 437/367/273
f 437/367/274 432/363/274 430/263/274 435/368/274
f 441/369/275 436/364/275 439/365/275 444/370/275
f 444/370/276 439/365/276 438/366/276 443/371/276
f 443/371/277 438/366/277 437/367/277 442/372/277
f 442/372/278 437/367/278 435/368/278 440/277/278
f 446/373/279 450/374/279 452/375/279 449/376/279
f 449/376/280 452/375/280 453/377/280 448/378/280
f 448/378/281 453/377/281 454/379/281 447/380/281
f 447/380/282 454/379/282 451/265/282 445/264/282
f 450/374/283 455/381/283 457/382/283 452/375/283
f 452/375/284 457/382/284 458/383/284 453/377/284
f 453/377/285 458/383/285 459/384/285 454/379/285
f 454/379/286 459/384/286 456/266/286 451/265/286
f 455/381/287 460/385/287 462/386/287 457/382/287
f 457/382/288 462/386/288 463/387/288 458/383/288
f 458/383/289 463/387/289 464/388/289 459/384/289
f 459/384/290 464/388/290 461/267/290 456/266/290
f 460/385/291 465/389/291 467/390/291 462/386/291
f 462/386/292 467/390/292 468/391/292 463/387/292
f 463/387/293 468/391/293 469/392/293 464/388/293
f 464/388/294 469/392/294 466/268/294 461/267/294
f 471/393/295 475/394/295 477/395/295 474/396/295
f 474/396/296 477/395/296 478/397/296 473/398/296
f 473/398/297 478/397/297 479/399/297 472/400/297
f 472/400/298 479/399/298 476/401/298 470/279/298
f 475/394/299 480/402/299 482/403/299 477/395/299
f 477/395/300 482/403/300 483/404/300 478/397/300
f 478/397/301 483/404/301 484/405/301 479/399/301
f 479/399/302 484/405/302 481/406/302 476/401/302
f 480/402/303 485/407/303 487/408/303 482/403/303
f 482/403/304 487/408/304 488/409/304 483/404/304
f 483/404/305 488/409/305 489/410/305 484/405/305
f 484/405/306 489/410/306 486/411/306 481/406/306
f 485/407/307 490/412/307 492/413/307 487/408/307
f 487/408/308 492/413/308 493/414/308 488/409/308
f 488/409/309 493/414/309 494/415/309 489/410/309
f 489/410/310 494/415/310 491/416/310 486/411/310
f 496/417/311 500/418/311 502/419/311 499/420/311
f 499/420/312 502/419/312 503/421/312 498/422/312
f 498/422/313 503/421/313 504/423/313 497/424/313
f 497/424/314 504/423/314 501/272/314 495/271/314
f 500/418/315 505/425/315 507/426/315 502/419/315
f 502/419/316 507/426/316 508/427/316 503/421/316
f 503/421/317 508/427/317 509/428/317 504/423/317
f 504/423/318 509/428/318 506/273/318 501/272/318
f 505/425/319 510/429/319 512/430/319 507/426/319
f 507/426/320 512/430/320 513/431/320 508/427/320
f 508/427/321 513/431/321 514/432/321 509/428/321
f 509/428/322 514/432/322 511/274/322 506/273/322
f 510/429/323 515/433/323 517/434/323 512/430/323
f 512/430/324 517/434/324 518/435/324 513/431/324
f 513/431/325 518/435/325 519/436/325 514/432/325
f 514/432/326 519/436/326 516/275/326 511/274/326
f 521/437/327 525/438/327 527/439/327 524/440/327
f 524/440/328 527/439/328 528/441/328 523/442/328
f 523/442/329 528/441/329 529/443/329 522/444/329
f 522/444/330 529/443/330 526/445/330 520/446/330
f 525/438/331 530/447/331 532/448/331 527/439/331
f 527/439/332 532/448/332 533/449/332 528/441/332
f 528/441/333 533/449/333 534/450/333 529/443/333
f 529/443/334 534/450/334 531/451/334 526/445/334
f 530/447/335 535/452/335 537/453/335 532/448/335
f 532/448/336 537/453/336 538/454/336 533/449/336
f 533/449/337 538/454/337 539/455/337 534/450/337
f 534/450/338 539/455/338 536/456/338 531/451/338
f 535/452/339 540/457/339 542/458/339 537/453/339
f 537/453/340 542/458/340 543/459/340 538/454/340
f 538/454/341 543/459/341 544/460/341 539/455/341
f 539/455/342 544/460/342 541/278/342 536/456/342
f 425/352/343 521/437/343 524/440/343 427/353/343
f 427/353/344 524/440/344 523/442/344 428/355/344
f 428/355/345 523/442/345 522/444/345 429/357/345
f 429/357/346 522/444/346 520/446/346 426/359/346
f 415/346/347 441/369/347 444/370/347 417/347/347
f 417/347/348 444/370/348 443/371/348 418/348/348
f 418/348/349 443/371/349 442/372/349 419/349/349
f 419/349/350 442/372/350 440/277/350 416/350/350
f 540/457/351 471/393/351 474/396/351 542/458/351
f 542/458/352 474/396/352 473/398/352 543/459/352
f 543/459/353 473/398/353 472/400/353 544/460/353
f 544/460/354 472/400/354 470/279/354 541/278/354
f 490/412/355 346/283/355 349/286/355 492/413/355
f 492/413/356 349/286/356 348/288/356 493/414/356
f 493/414/357 348/288/357 347/290/357 494/415/357
f 494/415/358 347/290/358 345/292/358 491/416/358
f 365/303/359 391/324/359 394/325/359 367/304/359
f 367/304/360 394/325/360 393/326/360 368/305/360
f 368/305/361 393/326/361 392/327/361 369/306/361
f 369/306/362 392/327/362 390/328/362 366/282/362
f 375/308/363 496/417/363 499/420/363 377/309/363
f 377/309/364 499/420/364 498/422/364 378/311/364
f 378/311/365 498/422/365 497/424/365 379/313/365
f 379/313/366 497/424/366 495/271/366 376/315/366
f 515/433/367 446/373/367 449/376/367 517/434/367
f 517/434/368 449/376/368 448/378/368 518/435/368
f 518/435/369 448/378/369 447/380/369 519/436/369
f 519/436/370 447/380/370 445/264/370 516/275/370
f 465/389/371 396/329/371 399/332/371 467/390/371
f 467/390/372 399/332/372 398/334/372 468/391/372
f 468/391/373 398/334/373 397/336/373 469/392/373
f 469/392/374 397/336/374 395/257/374 466/268/374
f 345/292/375 351/291/375 634/291/375 633/292/375
f 515/433/207 510/429/207 505/425/207 500/418/207 496/417/207 375/308/207 371/307/207 381/316/207 386/320/207 391/324/207 365/303/207 360/298/207 355/293/207 350/284/207 346/283/207 490/412/207 485/407/207 480/402/207 475/394/207 471/393/207 540/457/207 535/452/207 530/447/207 525/438/207 521/437/207 425/352/207 421/351/207 431/360/207 436/364/207 441/369/207 415/346/207 410/342/207 405/337/207 400/330/207 396/329/207 465/389/207 460/385/207 455/381/207 450/374/207 446/373/207
f 491/416/376 345/292/376 633/292/376 647/416/376
f 351/291/377 356/297/377 635/297/377 634/291/377
f 356/297/378 361/302/378 636/302/378 635/297/378
f 361/302/379 366/282/379 637/282/379 636/302/379
f 366/282/7 390/328/7 314/256/7 637/282/7
f 370/252/380 376/315/380 311/253/380 310/252/380
f 380/254/381 370/252/381 310/252/381 312/254/381
f 376/315/206 495/271/206 335/271/206 311/253/206
f 385/255/382 380/254/382 312/254/382 313/255/382
f 390/328/383 385/255/383 313/255/383 314/256/383
f 395/257/384 401/258/384 316/258/384 315/257/384
f 466/268/385 395/257/385 315/257/385 329/268/385
f 401/258/386 406/341/386 317/259/386 316/258/386
f 406/341/212 411/260/212 318/260/212 317/259/212
f 411/260/387 416/350/387 319/261/387 318/260/387
f 416/350/6 440/277/6 642/277/6 319/261/6
f 420/262/388 426/359/388 639/359/388 638/262/388
f 430/263/389 420/262/389 638/262/389 640/263/389
f 426/359/390 520/446/390 648/446/390 639/359/390
f 435/368/391 430/263/391 640/263/391 641/368/391
f 440/277/392 435/368/392 641/368/392 642/277/392
f 445/264/393 451/265/393 326/265/393 325/264/393
f 516/275/394 445/264/394 325/264/394 339/275/394
f 451/265/395 456/266/395 327/266/395 326/265/395
f 456/266/396 461/267/396 328/267/396 327/266/396
f 461/267/397 466/268/397 329/268/397 328/267/397
f 470/279/398 476/401/398 644/401/398 643/279/398
f 541/278/399 470/279/399 643/279/399 652/278/399
f 476/401/400 481/406/400 645/406/400 644/401/400
f 481/406/401 486/411/401 646/411/401 645/406/401
f 486/411/402 491/416/402 647/416/402 646/411/402
f 495/271/403 501/272/403 336/272/403 335/271/403
f 501/272/211 506/273/211 337/273/211 336/272/211
f 506/273/209 511/274/209 338/274/209 337/273/209
f 511/274/404 516/275/404 339/275/404 338/274/404
f 520/446/405 526/445/405 649/461/405 648/446/405
f 526/445/406 531/451/406 650/451/406 649/461/406
f 531/451/407 536/456/407 651/456/407 650/451/407
f 536/456/408 541/278/408 652/278/408 651/456/408
f 653/292/207 654/291/207 546/162/207 545/161/207
f 654/291/207 563/297/207 547/163/207 546/162/207
f 563/297/207 564/302/207 548/164/207 547/163/207
f 657/262/207 658/359/207 550/178/207 549/181/207
f 659/263/207 657/262/207 549/181/207 551/182/207
f 660/368/207 659/263/207 551/182/207 552/183/207
f 661/401/207 662/406/207 554/192/207 553/191/207
f 662/406/207 663/411/207 555/193/207 554/192/207
f 663/411/207 664/416/207 556/195/207 555/193/207
f 665/446/207 574/461/207 558/202/207 557/122/207
f 574/461/207 575/451/207 559/203/207 558/202/207
f 575/451/207 576/456/207 560/204/207 559/203/207
f 658/359/207 665/446/207 557/122/207 550/178/207
f 664/416/207 653/292/207 545/161/207 556/195/207
f 292/192/395 291/191/395 553/191/395 554/192/395
f 623/462/409 624/463/409 796/463/409 797/462/409
f 719/297/410 718/464/410 784/464/410 769/297/410
f 265/161/385 294/195/385 556/195/385 545/161/385
f 293/193/411 292/192/411 554/192/411 555/193/411
f 605/465/412 607/280/412 787/280/412 788/465/412
f 294/195/397 293/193/397 555/193/397 556/195/397
f 324/466/413 705/467/413 816/467/413 817/466/413
f 281/178/380 280/181/380 549/181/380 550/178/380
f 705/467/414 704/468/414 814/468/414 816/467/414
f 624/463/415 625/469/415 795/469/415 796/463/415
f 280/181/381 282/182/381 551/182/381 549/181/381
f 266/162/384 265/161/384 545/161/384 546/162/384
f 613/470/416 324/466/416 817/466/416 819/470/416
f 718/464/417 717/292/417 778/292/417 784/464/417
f 282/182/382 283/183/382 552/183/382 551/182/382
f 704/468/418 702/471/418 812/471/418 814/468/418
f 267/163/386 266/162/386 546/162/386 547/163/386
f 301/202/403 300/122/403 557/122/403 558/202/403
f 670/282/419 578/166/419 583/472/419 669/473/419
f 669/473/420 583/472/420 582/474/420 671/475/420
f 671/475/421 582/474/421 581/476/421 672/477/421
f 672/477/422 581/476/422 580/478/422 673/479/422
f 673/479/423 580/478/423 579/480/423 674/481/423
f 674/481/424 579/480/424 577/482/424 675/483/424
f 584/117/425 676/277/425 677/484/425 586/485/425
f 586/485/426 677/484/426 678/486/426 587/487/426
f 587/487/427 678/486/427 679/488/427 588/489/427
f 588/489/428 679/488/428 680/490/428 589/491/428
f 589/491/429 680/490/429 681/492/429 590/493/429
f 590/493/430 681/492/430 682/494/430 585/495/430
f 591/190/431 683/279/431 684/496/431 593/497/431
f 593/497/432 684/496/432 685/498/432 594/499/432
f 594/499/433 685/498/433 686/500/433 595/501/433
f 595/501/434 686/500/434 687/502/434 596/503/434
f 596/503/435 687/502/435 688/504/435 597/505/435
f 597/505/436 688/504/436 689/506/436 592/507/436
f 691/508/437 599/206/437 604/509/437 690/510/437
f 690/510/438 604/509/438 603/511/438 692/512/438
f 692/512/439 603/511/439 602/513/439 693/514/439
f 693/514/440 602/513/440 601/515/440 694/516/440
f 694/516/441 601/515/441 600/517/441 695/518/441
f 695/518/442 600/517/442 598/519/442 696/520/442
f 269/166/387 268/164/387 548/164/387 577/482/387 579/480/387 580/478/387 581/476/387 582/474/387 583/472/387 578/166/387
f 564/302/207 675/483/207 577/482/207 548/164/207
f 637/282/443 269/166/443 578/166/443 670/282/443
f 283/183/383 284/117/383 584/117/383 586/485/383 587/487/383 588/489/383 589/491/383 590/493/383 585/495/383 552/183/383
f 682/494/207 660/368/207 552/183/207 585/495/207
f 284/117/444 642/277/444 676/277/444 584/117/444
f 689/506/207 661/401/207 553/191/207 592/507/207
f 290/190/445 643/279/445 683/279/445 591/190/445
f 291/191/393 290/190/393 591/190/393 593/497/393 594/499/393 595/501/393 596/503/393 597/505/393 592/507/393 553/191/393
f 652/278/446 304/206/446 599/206/446 691/508/446
f 304/206/404 303/204/404 560/204/404 598/519/404 600/517/404 601/515/404 602/513/404 603/511/404 604/509/404 599/206/404
f 576/456/207 696/520/207 598/519/207 560/204/207
f 717/292/447 728/416/447 779/416/447 778/292/447
f 724/368/448 612/521/448 825/521/448 815/368/448
f 625/469/449 620/522/449 794/522/449 795/469/449
f 702/471/450 703/359/450 810/359/450 812/471/450
f 306/291/375 305/292/375 633/292/375 634/291/375
f 307/297/377 306/291/377 634/291/377 635/297/377
f 308/302/378 307/297/378 635/297/378 636/302/378
f 701/523/451 308/302/451 636/302/451 637/282/451
f 321/359/388 320/471/388 638/262/388 639/359/388
f 320/471/389 322/468/389 640/263/389 638/262/389
f 322/468/391 323/467/391 641/368/391 640/263/391
f 323/467/392 706/524/392 642/277/392 641/368/392
f 331/401/398 707/525/398 643/279/398 644/401/398
f 332/406/400 331/401/400 644/401/400 645/406/400
f 333/411/401 332/406/401 645/406/401 646/411/401
f 334/416/402 333/411/402 646/411/402 647/416/402
f 341/461/405 340/446/405 648/446/405 649/461/405
f 342/451/452 341/461/452 649/461/452 650/451/452
f 343/456/407 342/451/407 650/451/407 651/456/407
f 716/526/408 343/456/408 651/456/408 652/278/408
f 340/446/390 321/359/390 639/359/390 648/446/390
f 305/292/376 334/416/376 647/416/376 633/292/376
f 561/292/375 562/291/375 654/291/375 653/292/375
f 562/291/377 655/297/377 563/297/377 654/291/377
f 655/297/378 656/302/378 564/302/378 563/297/378
f 565/262/388 566/276/388 658/359/388 657/262/388
f 567/263/389 565/262/389 657/262/389 659/263/389
f 568/368/391 567/263/391 659/263/391 660/368/391
f 569/401/400 570/406/400 662/406/400 661/401/400
f 570/406/401 571/411/401 663/411/401 662/406/401
f 571/411/402 572/416/402 664/416/402 663/411/402
f 573/446/405 666/527/405 574/461/405 665/446/405
f 666/527/452 667/451/452 575/451/452 574/461/452
f 667/451/407 668/528/407 576/456/407 575/451/407
f 566/276/390 573/446/390 665/446/390 658/359/390
f 572/416/376 561/292/376 653/292/376 664/416/376
f 733/529/379 734/530/379 670/282/379 669/473/379
f 735/531/451 733/529/451 669/473/451 671/475/451
f 736/532/453 735/531/453 671/475/453 672/477/453
f 737/533/379 736/532/379 672/477/379 673/479/379
f 738/534/451 737/533/451 673/479/451 674/481/451
f 739/535/454 738/534/454 674/481/454 675/483/454
f 740/536/392 741/537/392 677/484/392 676/277/392
f 741/537/455 742/538/455 678/486/455 677/484/455
f 742/538/456 743/539/456 679/488/456 678/486/456
f 743/539/392 744/540/392 680/490/392 679/488/392
f 744/540/455 745/541/455 681/492/455 680/490/455
f 745/541/457 746/542/457 682/494/457 681/492/457
f 747/543/398 748/544/398 684/496/398 683/279/398
f 748/544/398 749/545/398 685/498/398 684/496/398
f 749/545/398 750/546/398 686/500/398 685/498/398
f 750/546/398 751/547/398 687/502/398 686/500/398
f 751/547/398 752/548/398 688/504/398 687/502/398
f 752/548/398 753/549/398 689/506/398 688/504/398
f 754/550/408 755/551/408 691/508/408 690/510/408
f 756/552/408 754/550/408 690/510/408 692/512/408
f 757/553/408 756/552/408 692/512/408 693/514/408
f 758/554/408 757/553/408 693/514/408 694/516/408
f 759/555/408 758/554/408 694/516/408 695/518/408
f 760/556/408 759/555/408 695/518/408 696/520/408
f 656/302/454 739/535/454 675/483/454 564/302/454
f 734/530/379 701/523/379 637/282/379 670/282/379
f 746/542/457 568/368/457 660/368/457 682/494/457
f 706/524/392 740/536/392 676/277/392 642/277/392
f 753/549/398 569/401/398 661/401/398 689/506/398
f 707/525/398 747/543/398 683/279/398 643/279/398
f 755/551/408 716/526/408 652/278/408 691/508/408
f 668/528/408 760/556/408 696/520/408 576/456/408
f 698/291/458 697/292/458 305/292/458 306/291/458
f 699/297/459 698/291/459 306/291/459 307/297/459
f 700/302/460 699/297/460 307/297/460 308/302/460
f 309/557/461 700/302/461 308/302/461 701/523/461
f 703/359/462 702/471/462 320/471/462 321/359/462
f 702/471/463 704/468/463 322/468/463 320/471/463
f 704/468/464 705/467/464 323/467/464 322/468/464
f 705/467/465 324/466/465 706/524/465 323/467/465
f 708/401/466 330/558/466 707/525/466 331/401/466
f 709/406/467 708/401/467 331/401/467 332/406/467
f 710/411/468 709/406/468 332/406/468 333/411/468
f 711/416/469 710/411/469 333/411/469 334/416/469
f 713/445/470 712/446/470 340/446/470 341/461/470
f 714/451/471 713/445/471 341/461/471 342/451/471
f 715/456/472 714/451/472 342/451/472 343/456/472
f 344/269/473 715/456/473 343/456/473 716/526/473
f 712/446/474 703/359/474 321/359/474 340/446/474
f 697/292/475 711/416/475 334/416/475 305/292/475
f 717/292/476 718/464/476 562/291/476 561/292/476
f 718/464/477 719/297/477 655/297/477 562/291/477
f 719/297/478 720/302/478 656/302/478 655/297/478
f 721/262/479 722/276/479 566/276/479 565/262/479
f 723/263/480 721/262/480 565/262/480 567/263/480
f 724/368/481 723/263/481 567/263/481 568/368/481
f 725/250/482 726/406/482 570/406/482 569/401/482
f 726/406/483 727/411/483 571/411/483 570/406/483
f 727/411/484 728/416/484 572/416/484 571/411/484
f 729/446/485 730/527/485 666/527/485 573/446/485
f 730/527/486 731/451/486 667/451/486 666/527/486
f 731/451/487 732/528/487 668/528/487 667/451/487
f 722/276/488 729/446/488 573/446/488 566/276/488
f 728/416/489 717/292/489 561/292/489 572/416/489
f 607/280/490 605/465/490 734/530/490 733/529/490
f 608/281/491 607/280/491 733/529/491 735/531/491
f 609/559/492 608/281/492 735/531/492 736/532/492
f 610/560/493 609/559/493 736/532/493 737/533/493
f 611/561/494 610/560/494 737/533/494 738/534/494
f 606/562/495 611/561/495 738/534/495 739/535/495
f 613/470/496 618/563/496 741/537/496 740/536/496
f 618/563/497 617/564/497 742/538/497 741/537/497
f 617/564/498 616/565/498 743/539/498 742/538/498
f 616/565/499 615/566/499 744/540/499 743/539/499
f 615/566/500 614/567/500 745/541/500 744/540/500
f 614/567/501 612/521/501 746/542/501 745/541/501
f 620/522/502 625/469/502 748/544/502 747/543/502
f 625/469/503 624/463/503 749/545/503 748/544/503
f 624/463/504 623/462/504 750/546/504 749/545/504
f 623/462/505 622/568/505 751/547/505 750/546/505
f 622/568/506 621/569/506 752/548/506 751/547/506
f 621/569/507 619/251/507 753/549/507 752/548/507
f 628/570/508 626/270/508 755/551/508 754/550/508
f 629/571/509 628/570/509 754/550/509 756/552/509
f 630/572/510 629/571/510 756/552/510 757/553/510
f 631/573/511 630/572/511 757/553/511 758/554/511
f 632/574/512 631/573/512 758/554/512 759/555/512
f 627/575/513 632/574/513 759/555/513 760/556/513
f 720/302/514 606/562/514 739/535/514 656/302/514
f 605/465/515 309/557/515 701/523/515 734/530/515
f 612/521/516 724/368/516 568/368/516 746/542/516
f 324/466/517 613/470/517 740/536/517 706/524/517
f 619/251/518 725/250/518 569/401/518 753/549/518
f 330/558/519 620/522/519 747/543/519 707/525/519
f 626/270/520 344/269/520 716/526/520 755/551/520
f 732/528/521 627/575/521 760/556/521 668/528/521
f 22/114/78 15/113/78 762/113/78 766/114/78
f 21/18/8 22/114/8 766/114/8 765/18/8
f 15/113/1 16/17/1 761/17/1 762/113/1
f 24/116/78 11/22/78 764/22/78 768/116/78
f 12/23/2 23/115/2 767/115/2 763/23/2
f 23/115/8 24/116/8 768/116/8 767/115/8
f 720/302/522 719/297/522 769/297/522 772/302/522
f 622/568/523 623/462/523 797/462/523 798/568/523
f 608/281/524 609/559/524 790/559/524 789/281/524
f 620/522/525 330/558/525 786/558/525 794/522/525
f 621/569/526 622/568/526 798/568/526 799/569/526
f 330/558/527 708/401/527 773/401/527 786/558/527
f 609/559/528 610/560/528 791/560/528 790/559/528
f 619/251/529 621/569/529 799/569/529 800/251/529
f 708/401/530 709/406/530 775/406/530 773/401/530
f 610/560/531 611/561/531 792/561/531 791/560/531
f 709/406/532 710/411/532 781/411/532 775/406/532
f 611/561/533 606/562/533 793/562/533 792/561/533
f 726/406/534 725/250/534 774/250/534 776/406/534
f 710/411/535 711/416/535 780/416/535 781/411/535
f 727/411/536 726/406/536 776/406/536 782/411/536
f 728/416/537 727/411/537 782/411/537 779/416/537
f 697/292/538 698/291/538 783/291/538 777/292/538
f 698/291/539 699/297/539 770/297/539 783/291/539
f 699/297/540 700/302/540 771/302/540 770/297/540
f 606/562/541 720/302/541 772/302/541 793/562/541
f 700/302/542 309/557/542 785/557/542 771/302/542
f 309/557/543 605/465/543 788/465/543 785/557/543
f 711/416/544 697/292/544 777/292/544 780/416/544
f 627/575/545 732/528/545 802/528/545 832/575/545
f 723/263/546 724/368/546 815/368/546 813/263/546
f 626/270/547 628/570/547 826/570/547 827/270/547
f 628/570/548 629/571/548 828/571/548 826/570/548
f 618/563/549 613/470/549 819/470/549 820/563/549
f 629/571/550 630/572/550 829/572/550 828/571/550
f 712/446/551 713/445/551 804/445/551 807/446/551
f 617/564/552 618/563/552 820/563/552 821/564/552
f 630/572/553 631/573/553 830/573/553 829/572/553
f 713/445/554 714/451/554 805/451/554 804/445/554
f 616/565/555 617/564/555 821/564/555 822/565/555
f 730/527/556 729/446/556 808/446/556 803/527/556
f 631/573/557 632/574/557 831/574/557 830/573/557
f 714/451/558 715/456/558 801/456/558 805/451/558
f 615/566/559 616/565/559 822/565/559 823/566/559
f 731/451/560 730/527/560 803/527/560 806/451/560
f 632/574/561 627/575/561 832/575/561 831/574/561
f 715/456/562 344/269/562 818/269/562 801/456/562
f 614/567/563 615/566/563 823/566/563 824/567/563
f 732/528/564 731/451/564 806/451/564 802/528/564
f 703/359/565 712/446/565 807/446/565 810/359/565
f 612/521/566 614/567/566 824/567/566 825/521/566
f 729/446/567 722/276/567 809/276/567 808/446/567
