# Blender 5.2.1 LTS
# www.blender.org
mtllib Bottom.mtl
o Cube.011
v -0.520000 -0.061863 3.240000
v -0.720000 -0.061863 3.040000
v -0.720000 -0.061863 -3.040000
v -0.520000 -0.061863 -3.240000
v 0.720000 -0.061863 3.040000
v 0.520000 -0.061863 3.240000
v 0.520000 -0.061863 -3.240000
v 0.720000 -0.061863 -3.040000
v -0.520000 0.015034 3.240000
v -0.720000 0.015034 3.040000
v -0.720000 0.015034 -3.040000
v -0.520000 0.015034 -3.240000
v 0.520000 0.015034 -3.240000
v 0.720000 0.015034 -3.040000
v 0.720000 0.015034 3.040000
v 0.520000 0.015034 3.240000
v 0.720000 -0.061863 0.000000
v 0.720000 0.015034 0.000000
v 0.720000 -0.061863 1.520000
v 0.720000 0.015034 1.520000
v 0.720000 0.015034 -1.520000
v 0.720000 -0.061863 -1.520000
vn -0.0000 -0.0000 1.0000
vn -0.7071 -0.0000 0.7071
vn -1.0000 -0.0000 -0.0000
vn -0.7071 -0.0000 -0.7071
vn -0.0000 -0.0000 -1.0000
vn 0.7071 -0.0000 -0.7071
vn 1.0000 -0.0000 -0.0000
vn 0.7071 -0.0000 0.7071
vt 0.363426 0.773148
vt 0.547460 0.773148
vt 0.543438 0.965278
vt 0.375000 0.965278
vt 0.375000 0.000000
vt 0.543438 0.000000
vt 0.543438 0.007716
vt 0.375000 0.007716
vt 0.543438 0.242284
vt 0.375000 0.242284
vt 0.543438 0.284722
vt 0.375000 0.284722
vt 0.547460 0.476852
vt 0.363426 0.476852
vt 0.543438 0.507716
vt 0.375000 0.507716
vt 0.375000 0.683642
vt 0.543438 0.683642
vt 0.543438 0.742284
vt 0.375000 0.742284
vt 0.375000 0.566358
vt 0.543438 0.566358
vt 0.543438 0.625000
vt 0.375000 0.625000
s 0
usemtl Material.011
f 6/1/1 16/2/1 9/3/1 1/4/1
f 1/5/2 9/6/2 10/7/2 2/8/2
f 2/8/3 10/7/3 11/9/3 3/10/3
f 12/11/4 4/12/4 3/10/4 11/9/4
f 4/12/5 12/11/5 13/13/5 7/14/5
f 14/15/6 8/16/6 7/14/6 13/13/6
f 19/17/7 20/18/7 15/19/7 5/20/7
f 16/2/8 6/1/8 5/20/8 15/19/8
f 22/21/7 21/22/7 18/23/7 17/24/7
f 17/24/7 18/23/7 20/18/7 19/17/7
f 8/16/7 14/15/7 21/22/7 22/21/7
