# Blender 5.2.1 LTS
# www.blender.org
mtllib Pipes1.mtl
o Cylinder.001
v 0.556707 0.265106 2.607149
v 0.556699 0.265611 1.938273
v 0.561006 0.266825 1.871344
v 0.561015 0.266320 2.540220
v 0.565314 0.265629 1.871245
v 0.565323 0.265125 2.540122
v 0.569455 0.262121 1.871094
v 0.569463 0.261617 2.539970
v 0.573270 0.256435 1.870896
v 0.573279 0.255930 2.539772
v 0.576612 0.248789 1.870658
v 0.576621 0.248284 2.539534
v 0.579354 0.239477 1.870390
v 0.579363 0.238973 2.539266
v 0.581390 0.228857 1.870102
v 0.581399 0.228353 2.538978
v 0.582641 0.217338 1.869805
v 0.582650 0.216834 2.538681
v 0.583059 0.205361 1.869511
v 0.583068 0.204857 2.538387
v 0.582629 0.193388 1.869230
v 0.582638 0.192884 2.538106
v 0.581367 0.181878 1.868974
v 0.581376 0.181373 2.537850
v 0.579321 0.171273 1.868752
v 0.579330 0.170769 2.537628
v 0.576571 0.161982 1.868574
v 0.576580 0.161478 2.537450
v 0.573221 0.154360 1.868445
v 0.573230 0.153856 2.537321
v 0.569400 0.148702 1.868370
v 0.569409 0.148198 2.537247
v 0.565256 0.145225 1.868354
v 0.565265 0.144720 2.537231
v 0.560947 0.144061 1.868396
v 0.560956 0.143557 2.537272
v 0.556640 0.145257 1.868494
v 0.556649 0.144752 2.537370
v 0.552499 0.148765 1.868645
v 0.552508 0.148261 2.537521
v 0.548684 0.154451 1.868844
v 0.548693 0.153947 2.537720
v 0.545341 0.162097 1.869082
v 0.545350 0.161593 2.537958
v 0.542600 0.171409 1.869350
v 0.542608 0.170905 2.538226
v 0.540564 0.182029 1.869638
v 0.540573 0.181524 2.538514
v 0.539313 0.193548 1.869935
v 0.539322 0.193044 2.538811
v 0.538894 0.205525 1.870229
v 0.538903 0.205020 2.539105
v 0.539324 0.217498 1.870510
v 0.539333 0.216994 2.539386
v 0.540587 0.229008 1.870766
v 0.540595 0.228504 2.539642
v 0.542632 0.239613 1.870987
v 0.542641 0.239109 2.539864
v 0.545383 0.248904 1.871166
v 0.545392 0.248400 2.540042
v 0.548733 0.256525 1.871295
v 0.548742 0.256021 2.540171
v 0.552554 0.262183 1.871369
v 0.552562 0.261679 2.540246
v 0.556707 0.428152 2.609816
v 0.556699 0.428656 1.940940
v 0.561006 0.429870 1.874010
v 0.561015 0.429366 2.542886
v 0.565314 0.428675 1.873912
v 0.565323 0.428171 2.542788
v 0.569455 0.425167 1.873761
v 0.569463 0.424662 2.542637
v 0.573270 0.419480 1.873563
v 0.573279 0.418976 2.542439
v 0.576612 0.411834 1.873325
v 0.576621 0.411330 2.542201
v 0.579354 0.402523 1.873057
v 0.579363 0.402018 2.541933
v 0.581390 0.391903 1.872769
v 0.581399 0.391399 2.541645
v 0.582641 0.380383 1.872472
v 0.582650 0.379879 2.541348
v 0.583059 0.368407 1.872178
v 0.583068 0.367903 2.541054
v 0.582629 0.356433 1.871897
v 0.582638 0.355929 2.540773
v 0.581367 0.344923 1.871641
v 0.581376 0.344419 2.540517
v 0.579321 0.334319 1.871419
v 0.579330 0.333814 2.540295
v 0.576571 0.325027 1.871240
v 0.576580 0.324523 2.540116
v 0.573221 0.317406 1.871112
v 0.573229 0.316902 2.539988
v 0.569400 0.311748 1.871038
v 0.569409 0.311244 2.539914
v 0.565256 0.308270 1.871021
v 0.565265 0.307766 2.539897
v 0.560947 0.307107 1.871063
v 0.560956 0.306603 2.539939
v 0.556640 0.308302 1.871161
v 0.556649 0.307798 2.540037
v 0.552499 0.311811 1.871312
v 0.552508 0.311306 2.540188
v 0.548684 0.317497 1.871511
v 0.548693 0.316993 2.540386
v 0.545341 0.325143 1.871748
v 0.545350 0.324639 2.540624
v 0.542600 0.334455 1.872016
v 0.542608 0.333950 2.540892
v 0.540564 0.345074 1.872304
v 0.540573 0.344570 2.541180
v 0.539313 0.356594 1.872601
v 0.539322 0.356089 2.541477
v 0.538894 0.368570 1.872896
v 0.538903 0.368066 2.541772
v 0.539324 0.380544 1.873176
v 0.539333 0.380039 2.542053
v 0.540587 0.392054 1.873432
v 0.540595 0.391550 2.542309
v 0.542632 0.402658 1.873654
v 0.542641 0.402154 2.542530
v 0.545383 0.411950 1.873833
v 0.545392 0.411446 2.542709
v 0.548733 0.419571 1.873962
v 0.548742 0.419067 2.542838
v 0.552554 0.425229 1.874036
v 0.552562 0.424725 2.542912
v 0.556707 0.591197 2.612483
v 0.556699 0.591702 1.943606
v 0.561006 0.592916 1.876677
v 0.561015 0.592411 2.545553
v 0.565314 0.591720 1.876579
v 0.565323 0.591216 2.545455
v 0.569455 0.588212 1.876428
v 0.569463 0.587708 2.545304
v 0.573270 0.582526 1.876230
v 0.573279 0.582021 2.545105
v 0.576612 0.574880 1.875992
v 0.576621 0.574376 2.544868
v 0.579354 0.565568 1.875724
v 0.579363 0.565064 2.544600
v 0.581390 0.554948 1.875436
v 0.581399 0.554444 2.544312
v 0.582641 0.543429 1.875139
v 0.582650 0.542925 2.544015
v 0.583059 0.531452 1.874844
v 0.583068 0.530948 2.543720
v 0.582629 0.519479 1.874563
v 0.582638 0.518975 2.543440
v 0.581367 0.507969 1.874307
v 0.581376 0.507464 2.543183
v 0.579321 0.497364 1.874086
v 0.579330 0.496860 2.542962
v 0.576571 0.488073 1.873907
v 0.576580 0.487569 2.542783
v 0.573221 0.480452 1.873778
v 0.573229 0.479947 2.542655
v 0.569400 0.474794 1.873704
v 0.569409 0.474289 2.542580
v 0.565256 0.471316 1.873688
v 0.565265 0.470812 2.542564
v 0.560947 0.470153 1.873729
v 0.560956 0.469648 2.542605
v 0.556640 0.471348 1.873828
v 0.556649 0.470844 2.542704
v 0.552499 0.474856 1.873979
v 0.552508 0.474352 2.542855
v 0.548684 0.480542 1.874177
v 0.548693 0.480038 2.543053
v 0.545341 0.488188 1.874415
v 0.545350 0.487684 2.543291
v 0.542600 0.497500 1.874683
v 0.542608 0.496996 2.543559
v 0.540564 0.508120 1.874971
v 0.540573 0.507615 2.543847
v 0.539313 0.519639 1.875268
v 0.539322 0.519135 2.544144
v 0.538894 0.531616 1.875562
v 0.538903 0.531112 2.544439
v 0.539324 0.543589 1.875843
v 0.539333 0.543085 2.544719
v 0.540587 0.555099 1.876099
v 0.540595 0.554595 2.544975
v 0.542632 0.565704 1.876321
v 0.542641 0.565200 2.545197
v 0.545383 0.574995 1.876500
v 0.545392 0.574491 2.545376
v 0.548733 0.582616 1.876628
v 0.548742 0.582112 2.545505
v 0.552554 0.588274 1.876702
v 0.552562 0.587770 2.545579
v 0.556707 0.754243 2.615149
v 0.556699 0.754747 1.946273
v 0.561006 0.755961 1.879344
v 0.561015 0.755457 2.548220
v 0.565314 0.754766 1.879246
v 0.565323 0.754262 2.548121
v 0.569455 0.751258 1.879094
v 0.569463 0.750753 2.547970
v 0.573270 0.745571 1.878896
v 0.573279 0.745067 2.547772
v 0.576612 0.737925 1.878658
v 0.576621 0.737421 2.547534
v 0.579354 0.728614 1.878390
v 0.579363 0.728110 2.547266
v 0.581390 0.717994 1.878102
v 0.581399 0.717490 2.546978
v 0.582641 0.706475 1.877805
v 0.582650 0.705970 2.546681
v 0.583059 0.694498 1.877511
v 0.583068 0.693994 2.546387
v 0.582629 0.682525 1.877230
v 0.582638 0.682020 2.546106
v 0.581367 0.671014 1.876974
v 0.581376 0.670510 2.545850
v 0.579321 0.660410 1.876752
v 0.579330 0.659906 2.545629
v 0.576571 0.651118 1.876574
v 0.576580 0.650614 2.545450
v 0.573221 0.643497 1.876445
v 0.573229 0.642993 2.545321
v 0.569400 0.637839 1.876371
v 0.569409 0.637335 2.545247
v 0.565256 0.634362 1.876354
v 0.565265 0.633857 2.545230
v 0.560947 0.633198 1.876396
v 0.560956 0.632694 2.545272
v 0.556640 0.634394 1.876494
v 0.556649 0.633889 2.545371
v 0.552499 0.637902 1.876645
v 0.552508 0.637398 2.545522
v 0.548684 0.643588 1.876844
v 0.548693 0.643084 2.545720
v 0.545341 0.651234 1.877082
v 0.545350 0.650730 2.545958
v 0.542600 0.660546 1.877350
v 0.542608 0.660042 2.546226
v 0.540564 0.671165 1.877638
v 0.540573 0.670661 2.546514
v 0.539313 0.682685 1.877935
v 0.539322 0.682181 2.546811
v 0.538894 0.694661 1.878229
v 0.538903 0.694157 2.547105
v 0.539324 0.706635 1.878510
v 0.539333 0.706131 2.547386
v 0.540587 0.718145 1.878766
v 0.540595 0.717641 2.547642
v 0.542632 0.728750 1.878987
v 0.542641 0.728245 2.547863
v 0.545383 0.738041 1.879166
v 0.545392 0.737537 2.548042
v 0.548733 0.745662 1.879295
v 0.548742 0.745158 2.548171
v 0.552554 0.751320 1.879369
v 0.552562 0.750816 2.548245
v 0.556707 0.917289 2.617816
v 0.556699 0.917793 1.948940
v 0.561006 0.919007 1.882011
v 0.561015 0.918503 2.550887
v 0.565314 0.917812 1.881912
v 0.565323 0.917307 2.550788
v 0.569455 0.914303 1.881761
v 0.569463 0.913799 2.550637
v 0.573270 0.908617 1.881563
v 0.573279 0.908113 2.550439
v 0.576612 0.900971 1.881325
v 0.576621 0.900467 2.550201
v 0.579354 0.891659 1.881057
v 0.579363 0.891155 2.549933
v 0.581390 0.881040 1.880769
v 0.581399 0.880535 2.549645
v 0.582641 0.869520 1.880472
v 0.582650 0.869016 2.549348
v 0.583059 0.857544 1.880177
v 0.583068 0.857039 2.549054
v 0.582629 0.845570 1.879897
v 0.582638 0.845066 2.548773
v 0.581367 0.834060 1.879641
v 0.581376 0.833556 2.548517
v 0.579321 0.823455 1.879419
v 0.579330 0.822951 2.548295
v 0.576571 0.814164 1.879240
v 0.576580 0.813660 2.548116
v 0.573221 0.806543 1.879112
v 0.573229 0.806039 2.547987
v 0.569400 0.800885 1.879037
v 0.569409 0.800381 2.547913
v 0.565256 0.797407 1.879021
v 0.565265 0.796903 2.547897
v 0.560947 0.796244 1.879063
v 0.560956 0.795740 2.547939
v 0.556640 0.797439 1.879161
v 0.556649 0.796935 2.548037
v 0.552499 0.800947 1.879312
v 0.552508 0.800443 2.548188
v 0.548684 0.806634 1.879511
v 0.548693 0.806129 2.548387
v 0.545341 0.814280 1.879748
v 0.545350 0.813775 2.548624
v 0.542600 0.823591 1.880016
v 0.542608 0.823087 2.548892
v 0.540564 0.834211 1.880304
v 0.540573 0.833707 2.549181
v 0.539313 0.845730 1.880601
v 0.539322 0.845226 2.549477
v 0.538894 0.857707 1.880896
v 0.538903 0.857203 2.549772
v 0.539324 0.869681 1.881176
v 0.539333 0.869176 2.550052
v 0.540587 0.881191 1.881433
v 0.540595 0.880686 2.550308
v 0.542632 0.891795 1.881654
v 0.542641 0.891291 2.550530
v 0.545383 0.901087 1.881833
v 0.545392 0.900582 2.550709
v 0.548733 0.908708 1.881962
v 0.548742 0.908204 2.550838
v 0.552554 0.914366 1.882036
v 0.552562 0.913862 2.550912
v 0.552563 0.261629 2.607133
v 0.556707 0.265157 2.540262
v 0.552554 0.262133 1.938257
v 0.556698 0.265661 1.871385
v 0.548743 0.255971 2.607059
v 0.548734 0.256475 1.938182
v 0.545393 0.248350 2.606930
v 0.545384 0.248854 1.938054
v 0.542642 0.239058 2.606751
v 0.542633 0.239563 1.937875
v 0.540596 0.228454 2.606529
v 0.540587 0.228958 1.937653
v 0.539334 0.216944 2.606273
v 0.539325 0.217448 1.937397
v 0.538904 0.204970 2.605993
v 0.538895 0.205474 1.937117
v 0.539323 0.192993 2.605698
v 0.539314 0.193498 1.936822
v 0.540574 0.181474 2.605401
v 0.540565 0.181978 1.936525
v 0.542609 0.170854 2.605113
v 0.542601 0.171359 1.936237
v 0.545351 0.161543 2.604846
v 0.545342 0.162047 1.935969
v 0.548694 0.153897 2.604608
v 0.548685 0.154401 1.935731
v 0.552509 0.148210 2.604409
v 0.552500 0.148714 1.935533
v 0.556650 0.144702 2.604258
v 0.556641 0.145206 1.935382
v 0.560957 0.143507 2.604160
v 0.560948 0.144011 1.935283
v 0.565266 0.144670 2.604119
v 0.565257 0.145174 1.935241
v 0.569410 0.148148 2.604135
v 0.569401 0.148652 1.935258
v 0.573230 0.153806 2.604209
v 0.573222 0.154310 1.935332
v 0.576580 0.161427 2.604337
v 0.576572 0.161931 1.935461
v 0.579331 0.170718 2.604516
v 0.579322 0.171223 1.935640
v 0.581377 0.181323 2.604738
v 0.581368 0.181827 1.935862
v 0.582639 0.192833 2.604994
v 0.582630 0.193337 1.936118
v 0.583069 0.204807 2.605274
v 0.583060 0.205311 1.936399
v 0.582651 0.216783 2.605569
v 0.582642 0.217287 1.936693
v 0.581399 0.228303 2.605866
v 0.581391 0.228807 1.936990
v 0.579364 0.238922 2.606154
v 0.579355 0.239427 1.937278
v 0.576622 0.248234 2.606422
v 0.576613 0.248738 1.937546
v 0.573279 0.255880 2.606659
v 0.573271 0.256384 1.937783
v 0.569464 0.261566 2.606858
v 0.569456 0.262071 1.937982
v 0.565324 0.265074 2.607009
v 0.565315 0.265579 1.938133
v 0.561016 0.266270 2.607108
v 0.561007 0.266774 1.938231
v 0.552563 0.424674 2.609799
v 0.556707 0.428202 2.542928
v 0.552554 0.425179 1.940923
v 0.556698 0.428706 1.874052
v 0.548743 0.419016 2.609725
v 0.548734 0.419521 1.940849
v 0.545393 0.411395 2.609597
v 0.545384 0.411899 1.940720
v 0.542642 0.402104 2.609418
v 0.542633 0.402608 1.940542
v 0.540596 0.391499 2.609196
v 0.540587 0.392004 1.940320
v 0.539334 0.379989 2.608940
v 0.539325 0.380493 1.940064
v 0.538904 0.368016 2.608659
v 0.538895 0.368520 1.939783
v 0.539323 0.356039 2.608365
v 0.539314 0.356543 1.939489
v 0.540574 0.344520 2.608068
v 0.540565 0.345024 1.939192
v 0.542609 0.333900 2.607780
v 0.542601 0.334404 1.938904
v 0.545351 0.324588 2.607512
v 0.545342 0.325092 1.938636
v 0.548694 0.316942 2.607274
v 0.548685 0.317447 1.938398
v 0.552509 0.311256 2.607076
v 0.552500 0.311760 1.938200
v 0.556650 0.307748 2.606925
v 0.556641 0.308252 1.938049
v 0.560957 0.306552 2.606826
v 0.560948 0.307057 1.937950
v 0.565266 0.307716 2.606785
v 0.565257 0.308220 1.937909
v 0.569410 0.311193 2.606801
v 0.569401 0.311698 1.937925
v 0.573230 0.316851 2.606875
v 0.573222 0.317356 1.937999
v 0.576580 0.324473 2.607004
v 0.576572 0.324977 1.938128
v 0.579331 0.333764 2.607183
v 0.579322 0.334268 1.938307
v 0.581377 0.344368 2.607404
v 0.581368 0.344873 1.938528
v 0.582639 0.355879 2.607660
v 0.582630 0.356383 1.938784
v 0.583069 0.367852 2.607941
v 0.583060 0.368356 1.939065
v 0.582651 0.379829 2.608236
v 0.582642 0.380333 1.939360
v 0.581399 0.391348 2.608532
v 0.581391 0.391853 1.939656
v 0.579364 0.401968 2.608821
v 0.579355 0.402472 1.939945
v 0.576622 0.411280 2.609089
v 0.576613 0.411784 1.940212
v 0.573279 0.418925 2.609327
v 0.573271 0.419430 1.940450
v 0.569464 0.424612 2.609524
v 0.569456 0.425116 1.940648
v 0.565324 0.428120 2.609676
v 0.565315 0.428624 1.940800
v 0.561016 0.429315 2.609774
v 0.561007 0.429820 1.940898
v 0.552563 0.587720 2.612466
v 0.556707 0.591248 2.545595
v 0.552554 0.588224 1.943590
v 0.556698 0.591752 1.876719
v 0.548743 0.582062 2.612392
v 0.548734 0.582566 1.943516
v 0.545393 0.574441 2.612263
v 0.545384 0.574945 1.943387
v 0.542642 0.565149 2.612085
v 0.542633 0.565654 1.943208
v 0.540596 0.554545 2.611863
v 0.540587 0.555049 1.942987
v 0.539334 0.543035 2.611607
v 0.539325 0.543539 1.942731
v 0.538904 0.531061 2.611326
v 0.538895 0.531565 1.942450
v 0.539323 0.519085 2.611032
v 0.539314 0.519589 1.942156
v 0.540574 0.507565 2.610735
v 0.540565 0.508069 1.941859
v 0.542609 0.496945 2.610447
v 0.542601 0.497450 1.941571
v 0.545351 0.487634 2.610179
v 0.545342 0.488138 1.941303
v 0.548694 0.479988 2.609941
v 0.548685 0.480492 1.941065
v 0.552509 0.474301 2.609742
v 0.552500 0.474806 1.940867
v 0.556650 0.470793 2.609591
v 0.556641 0.471298 1.940716
v 0.560957 0.469598 2.609493
v 0.560948 0.470102 1.940617
v 0.565266 0.470761 2.609451
v 0.565257 0.471266 1.940575
v 0.569410 0.474239 2.609468
v 0.569401 0.474743 1.940592
v 0.573230 0.479897 2.609542
v 0.573222 0.480401 1.940666
v 0.576580 0.487518 2.609671
v 0.576572 0.488022 1.940795
v 0.579331 0.496810 2.609849
v 0.579322 0.497314 1.940974
v 0.581377 0.507414 2.610071
v 0.581368 0.507918 1.941195
v 0.582639 0.518924 2.610327
v 0.582630 0.519428 1.941451
v 0.583069 0.530898 2.610608
v 0.583060 0.531402 1.941732
v 0.582651 0.542874 2.610902
v 0.582642 0.543378 1.942026
v 0.581399 0.554394 2.611199
v 0.581391 0.554898 1.942323
v 0.579364 0.565013 2.611487
v 0.579355 0.565518 1.942611
v 0.576622 0.574325 2.611755
v 0.576613 0.574829 1.942879
v 0.573279 0.581971 2.611993
v 0.573271 0.582475 1.943117
v 0.569464 0.587657 2.612191
v 0.569456 0.588162 1.943315
v 0.565324 0.591166 2.612343
v 0.565315 0.591670 1.943467
v 0.561016 0.592361 2.612441
v 0.561007 0.592865 1.943565
v 0.552563 0.750766 2.615133
v 0.556707 0.754294 2.548262
v 0.552554 0.751270 1.946257
v 0.556698 0.754798 1.879386
v 0.548743 0.745108 2.615059
v 0.548734 0.745612 1.946183
v 0.545393 0.737486 2.614930
v 0.545384 0.737991 1.946054
v 0.542642 0.728195 2.614751
v 0.542633 0.728699 1.945875
v 0.540596 0.717590 2.614529
v 0.540587 0.718095 1.945653
v 0.539334 0.706080 2.614273
v 0.539325 0.706585 1.945397
v 0.538904 0.694107 2.613993
v 0.538895 0.694611 1.945117
v 0.539323 0.682130 2.613698
v 0.539314 0.682634 1.944822
v 0.540574 0.670611 2.613401
v 0.540565 0.671115 1.944525
v 0.542609 0.659991 2.613113
v 0.542601 0.660495 1.944237
v 0.545351 0.650679 2.612845
v 0.545342 0.651184 1.943969
v 0.548694 0.643033 2.612607
v 0.548685 0.643538 1.943731
v 0.552509 0.637347 2.612409
v 0.552500 0.637851 1.943533
v 0.556650 0.633839 2.612258
v 0.556641 0.634343 1.943382
v 0.560957 0.632644 2.612160
v 0.560948 0.633148 1.943283
v 0.565266 0.633807 2.612118
v 0.565257 0.634311 1.943242
v 0.569410 0.637285 2.612134
v 0.569401 0.637789 1.943258
v 0.573230 0.642943 2.612209
v 0.573222 0.643447 1.943332
v 0.576580 0.650564 2.612337
v 0.576572 0.651068 1.943461
v 0.579331 0.659855 2.612516
v 0.579322 0.660359 1.943640
v 0.581377 0.670460 2.612738
v 0.581368 0.670964 1.943862
v 0.582639 0.681970 2.612994
v 0.582630 0.682474 1.944118
v 0.583069 0.693943 2.613275
v 0.583060 0.694448 1.944399
v 0.582651 0.705920 2.613569
v 0.582642 0.706424 1.944693
v 0.581399 0.717439 2.613866
v 0.581391 0.717944 1.944990
v 0.579364 0.728059 2.614154
v 0.579355 0.728563 1.945278
v 0.576622 0.737371 2.614422
v 0.576613 0.737875 1.945546
v 0.573279 0.745017 2.614660
v 0.573271 0.745521 1.945784
v 0.569464 0.750703 2.614858
v 0.569456 0.751207 1.945982
v 0.565324 0.754211 2.615009
v 0.565315 0.754716 1.946133
v 0.561016 0.755407 2.615108
v 0.561007 0.755911 1.946231
v 0.552563 0.913811 2.617800
v 0.556707 0.917339 2.550928
v 0.552554 0.914315 1.948923
v 0.556698 0.917843 1.882052
v 0.548743 0.908153 2.617725
v 0.548734 0.908657 1.948849
v 0.545393 0.900532 2.617597
v 0.545384 0.901036 1.948720
v 0.542642 0.891241 2.617418
v 0.542633 0.891745 1.948542
v 0.540596 0.880636 2.617196
v 0.540587 0.881140 1.948320
v 0.539334 0.869126 2.616940
v 0.539325 0.869630 1.948064
v 0.538904 0.857152 2.616659
v 0.538895 0.857657 1.947783
v 0.539323 0.845176 2.616365
v 0.539314 0.845680 1.947489
v 0.540574 0.833656 2.616068
v 0.540565 0.834161 1.947192
v 0.542609 0.823037 2.615780
v 0.542601 0.823541 1.946904
v 0.545351 0.813725 2.615512
v 0.545342 0.814229 1.946636
v 0.548694 0.806079 2.615274
v 0.548685 0.806583 1.946398
v 0.552509 0.800393 2.615076
v 0.552500 0.800897 1.946200
v 0.556650 0.796884 2.614925
v 0.556641 0.797389 1.946049
v 0.560957 0.795689 2.614826
v 0.560948 0.796193 1.945950
v 0.565266 0.796853 2.614784
v 0.565257 0.797357 1.945909
v 0.569410 0.800330 2.614801
v 0.569401 0.800834 1.945925
v 0.573230 0.805988 2.614875
v 0.573222 0.806493 1.945999
v 0.576580 0.813609 2.615004
v 0.576572 0.814114 1.946128
v 0.579331 0.822901 2.615183
v 0.579322 0.823405 1.946307
v 0.581377 0.833505 2.615404
v 0.581368 0.834010 1.946528
v 0.582639 0.845016 2.615660
v 0.582630 0.845520 1.946784
v 0.583069 0.856989 2.615941
v 0.583060 0.857493 1.947065
v 0.582651 0.868966 2.616235
v 0.582642 0.869470 1.947360
v 0.581399 0.880485 2.616533
v 0.581391 0.880989 1.947657
v 0.579364 0.891105 2.616821
v 0.579355 0.891609 1.947945
v 0.576622 0.900416 2.617089
v 0.576613 0.900921 1.948213
v 0.573279 0.908062 2.617326
v 0.573271 0.908567 1.948450
v 0.569464 0.913749 2.617525
v 0.569456 0.914253 1.948649
v 0.565324 0.917257 2.617676
v 0.565315 0.917761 1.948800
v 0.561016 0.918452 2.617774
v 0.561007 0.918957 1.948898
vn -0.4631 0.8863 0.0007
vn 0.0062 1.0000 0.0008
vn 0.4708 0.8822 0.0007
vn 0.7472 0.6646 0.0005
vn 0.8776 0.4794 0.0003
vn 0.9400 0.3412 0.0002
vn 0.9720 0.2348 0.0002
vn 0.9890 0.1476 0.0001
vn 0.9975 0.0709 -0.0000
vn 1.0000 -0.0010 -0.0000
vn 0.9973 -0.0730 -0.0001
vn 0.9887 -0.1499 -0.0001
vn 0.9714 -0.2375 -0.0002
vn 0.9388 -0.3444 -0.0003
vn 0.8753 -0.4836 -0.0004
vn 0.7426 -0.6697 -0.0005
vn 0.4631 -0.8863 -0.0007
vn -0.0008 -1.0000 -0.0008
vn -0.4648 -0.8854 -0.0007
vn -0.7439 -0.6683 -0.0005
vn -0.8761 -0.4822 -0.0004
vn -0.9393 -0.3432 -0.0002
vn -0.9717 -0.2364 -0.0002
vn -0.9889 -0.1489 -0.0001
vn -0.9974 -0.0721 -0.0000
vn -1.0000 -0.0000 -0.0000
vn -0.9974 0.0720 0.0001
vn -0.9889 0.1488 0.0001
vn -0.9717 0.2364 0.0002
vn -0.9393 0.3432 0.0003
vn -0.8760 0.4823 0.0004
vn -0.7434 0.6689 0.0005
vn 0.8776 0.4794 0.0004
vn -0.0007 -1.0000 -0.0008
vn -0.7426 0.6697 0.0005
vn -0.4622 0.8868 0.0007
vn -0.8753 0.4836 0.0004
vn -0.9388 0.3444 0.0003
vn -0.9714 0.2375 0.0002
vn -0.9887 0.1499 0.0001
vn -0.9973 0.0730 0.0001
vn -1.0000 0.0010 -0.0000
vn -0.9975 -0.0709 -0.0000
vn -0.9890 -0.1476 -0.0001
vn -0.9720 -0.2348 -0.0002
vn -0.9400 -0.3412 -0.0002
vn -0.9400 -0.3411 -0.0002
vn -0.8776 -0.4794 -0.0003
vn -0.7472 -0.6646 -0.0005
vn -0.4708 -0.8822 -0.0007
vn -0.0062 -1.0000 -0.0008
vn 0.4622 -0.8868 -0.0007
vn 0.7434 -0.6689 -0.0005
vn 0.8760 -0.4823 -0.0004
vn 0.9393 -0.3432 -0.0003
vn 0.9717 -0.2364 -0.0002
vn 0.9889 -0.1488 -0.0001
vn 0.9974 -0.0720 -0.0001
vn 1.0000 -0.0000 -0.0000
vn 0.9974 0.0721 -0.0000
vn 0.9889 0.1489 0.0001
vn 0.9717 0.2364 0.0002
vn 0.9393 0.3432 0.0002
vn 0.8761 0.4822 0.0004
vn 0.7439 0.6683 0.0005
vn 0.4648 0.8854 0.0007
vn 0.0008 1.0000 0.0008
vn 0.0007 1.0000 0.0008
vt 0.031250 0.619048
vt 0.000000 0.619048
vt 0.000000 0.642857
vt 0.031250 0.642857
vt 0.031250 0.857143
vt 0.000000 0.857143
vt 0.000000 0.880952
vt 0.031250 0.880952
vt 0.062500 0.619048
vt 0.062500 0.642857
vt 0.062500 0.857143
vt 0.062500 0.880952
vt 0.093750 0.619048
vt 0.093750 0.642857
vt 0.093750 0.857143
vt 0.093750 0.880952
vt 0.125000 0.619048
vt 0.125000 0.642857
vt 0.125000 0.857143
vt 0.125000 0.880952
vt 0.156250 0.619048
vt 0.156250 0.642857
vt 0.156250 0.857143
vt 0.156250 0.880952
vt 0.187500 0.619048
vt 0.187500 0.642857
vt 0.187500 0.857143
vt 0.187500 0.880952
vt 0.218750 0.619048
vt 0.218750 0.642857
vt 0.218750 0.857143
vt 0.218750 0.880952
vt 0.250000 0.619048
vt 0.250000 0.642857
vt 0.250000 0.857143
vt 0.250000 0.880952
vt 0.281250 0.619048
vt 0.281250 0.642857
vt 0.281250 0.857143
vt 0.281250 0.880952
vt 0.312500 0.619048
vt 0.312500 0.642857
vt 0.312500 0.857143
vt 0.312500 0.880952
vt 0.343750 0.619048
vt 0.343750 0.642857
vt 0.343750 0.857143
vt 0.343750 0.880952
vt 0.375000 0.619048
vt 0.375000 0.642857
vt 0.375000 0.857143
vt 0.375000 0.880952
vt 0.406250 0.619048
vt 0.406250 0.642857
vt 0.406250 0.857143
vt 0.406250 0.880952
vt 0.437500 0.619048
vt 0.437500 0.642857
vt 0.437500 0.857143
vt 0.437500 0.880952
vt 0.468750 0.619048
vt 0.468750 0.642857
vt 0.468750 0.857143
vt 0.468750 0.880952
vt 0.500000 0.619048
vt 0.500000 0.642857
vt 0.500000 0.857143
vt 0.500000 0.880952
vt 0.531250 0.619048
vt 0.531250 0.642857
vt 0.531250 0.857143
vt 0.531250 0.880952
vt 0.562500 0.619048
vt 0.562500 0.642857
vt 0.562500 0.857143
vt 0.562500 0.880952
vt 0.593750 0.619048
vt 0.593750 0.642857
vt 0.593750 0.857143
vt 0.593750 0.880952
vt 0.625000 0.619048
vt 0.625000 0.642857
vt 0.625000 0.857143
vt 0.625000 0.880952
vt 0.656250 0.619048
vt 0.656250 0.642857
vt 0.656250 0.857143
vt 0.656250 0.880952
vt 0.687500 0.619048
vt 0.687500 0.642857
vt 0.687500 0.857143
vt 0.687500 0.880952
vt 0.718750 0.619048
vt 0.718750 0.642857
vt 0.718750 0.857143
vt 0.718750 0.880952
vt 0.750000 0.619048
vt 0.750000 0.642857
vt 0.750000 0.857143
vt 0.750000 0.880952
vt 0.781250 0.619048
vt 0.781250 0.642857
vt 0.781250 0.857143
vt 0.781250 0.880952
vt 0.812500 0.619048
vt 0.812500 0.642857
vt 0.812500 0.857143
vt 0.812500 0.880952
vt 0.843750 0.619048
vt 0.843750 0.642857
vt 0.843750 0.857143
vt 0.843750 0.880952
vt 0.875000 0.619048
vt 0.875000 0.642857
vt 0.875000 0.857143
vt 0.875000 0.880952
vt 0.906250 0.619048
vt 0.906250 0.642857
vt 0.906250 0.857143
vt 0.906250 0.880952
vt 0.937500 0.619048
vt 0.937500 0.642857
vt 0.937500 0.857143
vt 0.937500 0.880952
vt 0.968750 0.619048
vt 0.968750 0.642857
vt 0.968750 0.857143
vt 0.968750 0.880952
vt 1.000000 0.619048
vt 1.000000 0.642857
vt 1.000000 0.857143
vt 1.000000 0.880952
vt 0.031250 0.619048
vt 0.031250 0.642857
vt 0.031250 0.857143
vt 0.062500 0.642857
vt 0.062500 0.857143
vt 0.062500 0.880952
vt 0.093750 0.619048
vt 0.093750 0.642857
vt 0.093750 0.857143
vt 0.093750 0.880952
vt 0.125000 0.642857
vt 0.187500 0.619048
vt 0.187500 0.642857
vt 0.218750 0.619048
vt 0.218750 0.642857
vt 0.250000 0.619048
vt 0.250000 0.642857
vt 0.281250 0.642857
vt 0.312500 0.619048
vt 0.312500 0.642857
vt 0.312500 0.857143
vt 0.343750 0.619048
vt 0.343750 0.642857
vt 0.343750 0.857143
vt 0.343750 0.880952
vt 0.375000 0.619048
vt 0.375000 0.642857
vt 0.375000 0.857143
vt 0.406250 0.642857
vt 0.406250 0.857143
vt 0.406250 0.880952
vt 0.437500 0.619048
vt 0.437500 0.642857
vt 0.437500 0.857143
vt 0.437500 0.880952
vt 0.468750 0.619048
vt 0.468750 0.857143
vt 0.468750 0.880952
vt 0.500000 0.619048
vt 0.500000 0.857143
vt 0.531250 0.619048
vt 0.531250 0.642857
vt 0.531250 0.857143
vt 0.562500 0.619048
vt 0.562500 0.642857
vt 0.593750 0.619048
vt 0.593750 0.642857
vt 0.625000 0.619048
vt 0.625000 0.642857
vt 0.656250 0.619048
vt 0.656250 0.642857
vt 0.687500 0.642857
vt 0.687500 0.857143
vt 0.687500 0.880952
vt 0.718750 0.619048
vt 0.718750 0.857143
vt 0.718750 0.880952
vt 0.750000 0.619048
vt 0.750000 0.642857
vt 0.750000 0.857143
vt 0.750000 0.880952
vt 0.781250 0.619048
vt 0.781250 0.642857
vt 0.812500 0.619048
vt 0.843750 0.619048
vt 0.875000 0.642857
vt 0.906250 0.619048
vt 0.906250 0.857143
vt 0.937500 0.619048
vt 0.937500 0.642857
vt 0.937500 0.880952
vt 0.968750 0.619048
vt 0.031250 0.619048
vt 0.031250 0.857143
vt 0.031250 0.880952
vt 0.062500 0.857143
vt 0.062500 0.880952
vt 0.093750 0.642857
vt 0.093750 0.857143
vt 0.125000 0.619048
vt 0.125000 0.857143
vt 0.125000 0.880952
vt 0.156250 0.857143
vt 0.187500 0.857143
vt 0.187500 0.880952
vt 0.218750 0.619048
vt 0.218750 0.857143
vt 0.250000 0.642857
vt 0.250000 0.857143
vt 0.250000 0.880952
vt 0.281250 0.619048
vt 0.281250 0.642857
vt 0.281250 0.857143
vt 0.281250 0.880952
vt 0.343750 0.619048
vt 0.375000 0.619048
vt 0.375000 0.642857
vt 0.375000 0.880952
vt 0.406250 0.619048
vt 0.406250 0.642857
vt 0.406250 0.857143
vt 0.406250 0.880952
vt 0.437500 0.619048
vt 0.437500 0.857143
vt 0.437500 0.880952
vt 0.468750 0.619048
vt 0.468750 0.880952
vt 0.500000 0.619048
vt 0.500000 0.857143
vt 0.531250 0.857143
vt 0.531250 0.880952
vt 0.593750 0.642857
vt 0.656250 0.619048
vt 0.656250 0.642857
vt 0.656250 0.857143
vt 0.687500 0.857143
vt 0.687500 0.880952
vt 0.718750 0.619048
vt 0.750000 0.619048
vt 0.750000 0.642857
vt 0.781250 0.857143
vt 0.781250 0.880952
vt 0.812500 0.857143
vt 0.812500 0.880952
vt 0.843750 0.619048
vt 0.843750 0.642857
vt 0.843750 0.857143
vt 0.843750 0.880952
vt 0.875000 0.619048
vt 0.875000 0.857143
vt 0.906250 0.619048
vt 0.906250 0.642857
vt 0.906250 0.857143
vt 0.906250 0.880952
vt 0.937500 0.619048
vt 0.937500 0.642857
vt 0.937500 0.857143
vt 0.937500 0.880952
vt 0.968750 0.857143
vt 0.968750 0.880952
vt 1.000000 0.642857
vt 0.031250 0.619048
vt 0.031250 0.642857
vt 0.000000 0.880952
vt 0.031250 0.880952
vt 0.062500 0.857143
vt 0.062500 0.880952
vt 0.093750 0.619048
vt 0.093750 0.857143
vt 0.125000 0.642857
vt 0.125000 0.857143
vt 0.125000 0.880952
vt 0.156250 0.880952
vt 0.187500 0.857143
vt 0.218750 0.642857
vt 0.218750 0.857143
vt 0.218750 0.880952
vt 0.250000 0.880952
vt 0.281250 0.619048
vt 0.281250 0.857143
vt 0.281250 0.880952
vt 0.312500 0.642857
vt 0.312500 0.857143
vt 0.312500 0.880952
vt 0.343750 0.642857
vt 0.375000 0.857143
vt 0.375000 0.880952
vt 0.406250 0.857143
vt 0.437500 0.880952
vt 0.500000 0.619048
vt 0.562500 0.619048
vt 0.562500 0.857143
vt 0.593750 0.880952
vt 0.625000 0.642857
vt 0.625000 0.880952
vt 0.687500 0.619048
vt 0.718750 0.619048
vt 0.718750 0.642857
vt 0.718750 0.857143
vt 0.718750 0.880952
vt 0.750000 0.642857
vt 0.750000 0.857143
vt 0.750000 0.880952
vt 0.781250 0.619048
vt 0.781250 0.857143
vt 0.781250 0.880952
vt 0.812500 0.857143
vt 0.843750 0.880952
vt 0.875000 0.857143
vt 0.875000 0.880952
vt 0.906250 0.642857
vt 0.906250 0.880953
vt 0.937500 0.619048
vt 0.937500 0.642857
vt 0.937500 0.880952
vt 0.968750 0.857143
vt 0.968750 0.880952
vt 1.000000 0.857143
vt 1.000000 0.880952
vt 0.031250 0.857143
vt 0.000000 0.880952
vt 0.062500 0.857143
vt 0.093750 0.619048
vt 0.093750 0.857143
vt 0.093750 0.880952
vt 0.125000 0.857143
vt 0.125000 0.880952
vt 0.156250 0.619048
vt 0.156250 0.880952
vt 0.187500 0.619048
vt 0.187500 0.857143
vt 0.187500 0.880952
vt 0.218750 0.857143
vt 0.218750 0.880952
vt 0.312500 0.642857
vt 0.312500 0.857143
vt 0.312500 0.880952
vt 0.343750 0.619048
vt 0.343750 0.857143
vt 0.406250 0.857143
vt 0.406250 0.880952
vt 0.437500 0.880952
vt 0.500000 0.642857
vt 0.500000 0.857143
vt 0.500000 0.880952
vt 0.531250 0.619048
vt 0.562500 0.619048
vt 0.593750 0.619048
vt 0.593750 0.642857
vt 0.593750 0.857143
vt 0.593750 0.880952
vt 0.625000 0.619048
vt 0.625000 0.857143
vt 0.625000 0.880952
vt 0.656250 0.642857
vt 0.656250 0.880952
vt 0.687500 0.642857
vt 0.687500 0.857143
vt 0.718750 0.642857
vt 0.718750 0.857143
vt 0.718750 0.880952
vt 0.750000 0.619048
vt 0.750000 0.857143
vt 0.750000 0.880952
vt 0.781250 0.619048
vt 0.812500 0.857143
vt 0.812500 0.880952
vt 0.843750 0.619048
vt 0.843750 0.642857
vt 0.875000 0.619048
vt 0.875000 0.857143
vt 0.875000 0.880952
vt 0.906250 0.857143
vt 0.937500 0.880952
vt 0.968750 0.880952
vt 1.000000 0.880952
s 1
usemtl Material.012
f 321/1/35 1/2/1 322/3/36 64/4/32
f 323/5/35 2/6/1 324/7/36 63/8/32
f 325/9/37 321/1/35 64/4/32 62/10/31
f 326/11/37 323/5/35 63/8/32 61/12/31
f 327/13/38 325/9/37 62/10/31 60/14/30
f 328/15/38 326/11/37 61/12/31 59/16/30
f 329/17/39 327/13/38 60/14/30 58/18/29
f 330/19/39 328/15/38 59/16/30 57/20/29
f 331/21/40 329/17/39 58/18/29 56/22/28
f 332/23/40 330/19/39 57/20/29 55/24/28
f 333/25/41 331/21/40 56/22/28 54/26/27
f 334/27/41 332/23/40 55/24/28 53/28/27
f 335/29/42 333/25/41 54/26/27 52/30/26
f 336/31/42 334/27/41 53/28/27 51/32/26
f 337/33/43 335/29/42 52/30/26 50/34/25
f 338/35/43 336/31/42 51/32/26 49/36/25
f 339/37/44 337/33/43 50/34/25 48/38/24
f 340/39/44 338/35/43 49/36/25 47/40/24
f 341/41/45 339/37/44 48/38/24 46/42/23
f 342/43/45 340/39/44 47/40/24 45/44/23
f 343/45/46 341/41/45 46/42/23 44/46/22
f 344/47/47 342/43/45 45/44/23 43/48/22
f 345/49/48 343/45/46 44/46/22 42/50/21
f 346/51/48 344/47/47 43/48/22 41/52/21
f 347/53/49 345/49/48 42/50/21 40/54/20
f 348/55/49 346/51/48 41/52/21 39/56/20
f 349/57/50 347/53/49 40/54/20 38/58/19
f 350/59/50 348/55/49 39/56/20 37/60/19
f 351/61/51 349/57/50 38/58/19 36/62/18
f 352/63/51 350/59/50 37/60/19 35/64/18
f 353/65/52 351/61/51 36/62/18 34/66/17
f 354/67/52 352/63/51 35/64/18 33/68/17
f 355/69/53 353/65/52 34/66/17 32/70/16
f 356/71/53 354/67/52 33/68/17 31/72/16
f 357/73/54 355/69/53 32/70/16 30/74/15
f 358/75/54 356/71/53 31/72/16 29/76/15
f 359/77/55 357/73/54 30/74/15 28/78/14
f 360/79/55 358/75/54 29/76/15 27/80/14
f 361/81/56 359/77/55 28/78/14 26/82/13
f 362/83/56 360/79/55 27/80/14 25/84/13
f 363/85/57 361/81/56 26/82/13 24/86/12
f 364/87/57 362/83/56 25/84/13 23/88/12
f 365/89/58 363/85/57 24/86/12 22/90/11
f 366/91/58 364/87/57 23/88/12 21/92/11
f 367/93/59 365/89/58 22/90/11 20/94/10
f 368/95/59 366/91/58 21/92/11 19/96/10
f 369/97/60 367/93/59 20/94/10 18/98/9
f 370/99/60 368/95/59 19/96/10 17/100/9
f 371/101/61 369/97/60 18/98/9 16/102/8
f 372/103/61 370/99/60 17/100/9 15/104/8
f 373/105/62 371/101/61 16/102/8 14/106/7
f 374/107/62 372/103/61 15/104/8 13/108/7
f 375/109/63 373/105/62 14/106/7 12/110/6
f 376/111/63 374/107/62 13/108/7 11/112/6
f 377/113/64 375/109/63 12/110/6 10/114/5
f 378/115/64 376/111/63 11/112/6 9/116/5
f 379/117/65 377/113/64 10/114/5 8/118/4
f 380/119/65 378/115/64 9/116/5 7/120/4
f 381/121/66 379/117/65 8/118/4 6/122/3
f 382/123/66 380/119/65 7/120/4 5/124/3
f 383/125/67 381/121/66 6/122/3 4/126/2
f 384/127/68 382/123/66 5/124/3 3/128/2
f 1/129/1 383/125/67 4/126/2 322/130/36
f 2/131/1 384/127/68 3/128/2 324/132/36
f 385/133/35 65/2/1 386/3/36 128/134/32
f 387/135/35 66/6/1 388/7/36 127/8/32
f 389/9/37 385/133/35 128/134/32 126/136/31
f 390/137/37 387/135/35 127/8/32 125/138/31
f 391/139/38 389/9/37 126/136/31 124/140/30
f 392/141/38 390/137/37 125/138/31 123/142/30
f 393/17/39 391/139/38 124/140/30 122/143/29
f 394/19/39 392/141/38 123/142/30 121/20/29
f 395/21/40 393/17/39 122/143/29 120/22/28
f 396/23/40 394/19/39 121/20/29 119/24/28
f 397/144/41 395/21/40 120/22/28 118/145/27
f 398/27/41 396/23/40 119/24/28 117/28/27
f 399/146/42 397/144/41 118/145/27 116/147/26
f 400/31/42 398/27/41 117/28/27 115/32/26
f 401/148/43 399/146/42 116/147/26 114/149/25
f 402/35/43 400/31/42 115/32/26 113/36/25
f 403/37/44 401/148/43 114/149/25 112/150/24
f 404/39/44 402/35/43 113/36/25 111/40/24
f 405/151/45 403/37/44 112/150/24 110/152/23
f 406/153/45 404/39/44 111/40/24 109/44/23
f 407/154/46 405/151/45 110/152/23 108/155/22
f 408/156/46 406/153/45 109/44/23 107/157/22
f 409/158/48 407/154/46 108/155/22 106/159/21
f 410/160/48 408/156/46 107/157/22 105/52/21
f 411/53/49 409/158/48 106/159/21 104/161/20
f 412/162/49 410/160/48 105/52/21 103/163/20
f 413/164/50 411/53/49 104/161/20 102/165/19
f 414/166/50 412/162/49 103/163/20 101/167/19
f 415/168/51 413/164/50 102/165/19 100/62/34
f 416/169/51 414/166/50 101/167/19 99/170/34
f 417/171/52 415/168/51 100/62/34 98/66/17
f 418/172/52 416/169/51 99/170/34 97/68/17
f 419/173/53 417/171/52 98/66/17 96/174/16
f 420/175/53 418/172/52 97/68/17 95/72/16
f 421/176/54 419/173/53 96/174/16 94/177/15
f 422/75/54 420/175/53 95/72/16 93/76/15
f 423/178/55 421/176/54 94/177/15 92/179/14
f 424/79/55 422/75/54 93/76/15 91/80/14
f 425/180/56 423/178/55 92/179/14 90/181/13
f 426/83/56 424/79/55 91/80/14 89/84/13
f 427/182/57 425/180/56 90/181/13 88/183/12
f 428/87/57 426/83/56 89/84/13 87/88/12
f 429/89/58 427/182/57 88/183/12 86/184/11
f 430/185/58 428/87/57 87/88/12 85/186/11
f 431/187/59 429/89/58 86/184/11 84/94/10
f 432/188/59 430/185/58 85/186/11 83/189/10
f 433/190/60 431/187/59 84/94/10 82/191/9
f 434/192/60 432/188/59 83/189/10 81/193/9
f 435/194/61 433/190/60 82/191/9 80/195/8
f 436/103/61 434/192/60 81/193/9 79/104/8
f 437/196/62 435/194/61 80/195/8 78/106/7
f 438/107/62 436/103/61 79/104/8 77/108/7
f 439/197/63 437/196/62 78/106/7 76/110/6
f 440/111/63 438/107/62 77/108/7 75/112/6
f 441/113/64 439/197/63 76/110/6 74/198/33
f 442/115/64 440/111/63 75/112/6 73/116/5
f 443/199/65 441/113/64 74/198/33 72/118/4
f 444/200/65 442/115/64 73/116/5 71/120/4
f 445/201/66 443/199/65 72/118/4 70/202/3
f 446/123/66 444/200/65 71/120/4 69/203/3
f 447/204/68 445/201/66 70/202/3 68/126/2
f 448/127/68 446/123/66 69/203/3 67/128/2
f 65/129/1 447/204/68 68/126/2 386/130/36
f 66/131/1 448/127/68 67/128/2 388/132/36
f 449/205/35 129/2/1 450/3/36 192/134/32
f 451/206/35 130/6/1 452/7/36 191/207/32
f 453/9/37 449/205/35 192/134/32 190/10/31
f 454/208/37 451/206/35 191/207/32 189/209/31
f 455/13/38 453/9/37 190/10/31 188/210/30
f 456/211/38 454/208/37 189/209/31 187/16/30
f 457/212/39 455/13/38 188/210/30 186/18/29
f 458/213/39 456/211/38 187/16/30 185/214/29
f 459/21/40 457/212/39 186/18/29 184/22/28
f 460/215/40 458/213/39 185/214/29 183/24/28
f 461/144/41 459/21/40 184/22/28 182/26/27
f 462/216/41 460/215/40 183/24/28 181/217/27
f 463/218/42 461/144/41 182/26/27 180/30/26
f 464/219/42 462/216/41 181/217/27 179/32/26
f 465/148/43 463/218/42 180/30/26 178/220/25
f 466/221/43 464/219/42 179/32/26 177/222/25
f 467/223/44 465/148/43 178/220/25 176/224/24
f 468/225/44 466/221/43 177/222/25 175/226/24
f 469/41/45 467/223/44 176/224/24 174/42/23
f 470/153/45 468/225/44 175/226/24 173/44/23
f 471/227/46 469/41/45 174/42/23 172/46/22
f 472/156/46 470/153/45 173/44/23 171/157/22
f 473/228/48 471/227/46 172/46/22 170/229/21
f 474/160/48 472/156/46 171/157/22 169/230/21
f 475/231/49 473/228/48 170/229/21 168/232/20
f 476/233/49 474/160/48 169/230/21 167/234/20
f 477/235/50 475/231/49 168/232/20 166/165/19
f 478/236/50 476/233/49 167/234/20 165/237/19
f 479/238/51 477/235/50 166/165/19 164/62/18
f 480/169/51 478/236/50 165/237/19 163/239/34
f 481/240/52 479/238/51 164/62/18 162/66/17
f 482/241/52 480/169/51 163/239/34 161/68/17
f 483/173/53 481/240/52 162/66/17 160/70/16
f 484/242/53 482/241/52 161/68/17 159/243/16
f 485/176/54 483/173/53 160/70/16 158/177/15
f 486/75/54 484/242/53 159/243/16 157/76/15
f 487/77/55 485/176/54 158/177/15 156/244/14
f 488/79/55 486/75/54 157/76/15 155/80/14
f 489/81/56 487/77/55 156/244/14 154/82/13
f 490/83/56 488/79/55 155/80/14 153/84/13
f 491/245/57 489/81/56 154/82/13 152/246/12
f 492/247/57 490/83/56 153/84/13 151/88/12
f 493/89/58 491/245/57 152/246/12 150/184/11
f 494/248/58 492/247/57 151/88/12 149/249/11
f 495/250/59 493/89/58 150/184/11 148/94/10
f 496/188/59 494/248/58 149/249/11 147/189/10
f 497/251/60 495/250/59 148/94/10 146/252/9
f 498/99/60 496/188/59 147/189/10 145/100/9
f 499/101/61 497/251/60 146/252/9 144/102/8
f 500/253/61 498/99/60 145/100/9 143/254/8
f 501/196/62 499/101/61 144/102/8 142/106/7
f 502/255/62 500/253/61 143/254/8 141/256/7
f 503/257/63 501/196/62 142/106/7 140/258/6
f 504/259/63 502/255/62 141/256/7 139/260/6
f 505/261/64 503/257/63 140/258/6 138/198/5
f 506/262/64 504/259/63 139/260/6 137/116/5
f 507/263/65 505/261/64 138/198/5 136/264/4
f 508/265/65 506/262/64 137/116/5 135/266/4
f 509/267/66 507/263/65 136/264/4 134/268/3
f 510/269/66 508/265/65 135/266/4 133/270/3
f 511/204/67 509/267/66 134/268/3 132/126/2
f 512/271/67 510/269/66 133/270/3 131/272/2
f 129/129/1 511/204/67 132/126/2 450/273/36
f 130/131/1 512/271/67 131/272/2 452/132/36
f 513/274/35 193/2/1 514/3/36 256/275/32
f 515/135/35 194/6/1 516/276/36 255/277/32
f 517/9/37 513/274/35 256/275/32 254/136/31
f 518/278/37 515/135/35 255/277/32 253/279/31
f 519/280/38 517/9/37 254/136/31 252/14/30
f 520/281/38 518/278/37 253/279/31 251/142/30
f 521/212/39 519/280/38 252/14/30 250/282/29
f 522/283/39 520/281/38 251/142/30 249/284/29
f 523/21/40 521/212/39 250/282/29 248/22/28
f 524/215/40 522/283/39 249/284/29 247/285/28
f 525/144/41 523/21/40 248/22/28 246/26/27
f 526/286/41 524/215/40 247/285/28 245/28/27
f 527/218/42 525/144/41 246/26/27 244/287/26
f 528/288/42 526/286/41 245/28/27 243/289/26
f 529/148/43 527/218/42 244/287/26 242/220/25
f 530/35/43 528/288/42 243/289/26 241/290/25
f 531/291/44 529/148/43 242/220/25 240/150/24
f 532/292/44 530/35/43 241/290/25 239/293/24
f 533/41/45 531/291/44 240/150/24 238/294/23
f 534/295/45 532/292/44 239/293/24 237/296/23
f 535/154/46 533/41/45 238/294/23 236/297/22
f 536/156/46 534/295/45 237/296/23 235/157/22
f 537/228/48 535/154/46 236/297/22 234/50/21
f 538/298/48 536/156/46 235/157/22 233/299/21
f 539/53/49 537/228/48 234/50/21 232/161/20
f 540/300/49 538/298/48 233/299/21 231/56/20
f 541/235/50 539/53/49 232/161/20 230/165/19
f 542/166/50 540/300/49 231/56/20 229/301/19
f 543/61/51 541/235/50 230/165/19 228/62/34
f 544/63/51 542/166/50 229/301/19 227/170/18
f 545/302/52 543/61/51 228/62/34 226/66/17
f 546/67/52 544/63/51 227/170/18 225/68/17
f 547/173/53 545/302/52 226/66/17 224/70/16
f 548/71/53 546/67/52 225/68/17 223/243/16
f 549/303/54 547/173/53 224/70/16 222/177/15
f 550/304/54 548/71/53 223/243/16 221/76/15
f 551/77/55 549/303/54 222/177/15 220/78/14
f 552/79/55 550/304/54 221/76/15 219/305/14
f 553/81/56 551/77/55 220/78/14 218/306/13
f 554/83/56 552/79/55 219/305/14 217/307/13
f 555/182/57 553/81/56 218/306/13 216/86/12
f 556/87/57 554/83/56 217/307/13 215/88/12
f 557/308/58 555/182/57 216/86/12 214/184/11
f 558/91/58 556/87/57 215/88/12 213/92/11
f 559/309/59 557/308/58 214/184/11 212/310/10
f 560/311/59 558/91/58 213/92/11 211/312/10
f 561/190/60 559/309/59 212/310/10 210/313/9
f 562/314/60 560/311/59 211/312/10 209/315/9
f 563/316/61 561/190/60 210/313/9 208/195/8
f 564/317/61 562/314/60 209/315/9 207/318/8
f 565/105/62 563/316/61 208/195/8 206/106/7
f 566/319/62 564/317/61 207/318/8 205/256/7
f 567/257/63 565/105/62 206/106/7 204/110/6
f 568/259/63 566/319/62 205/256/7 203/320/6
f 569/261/64 567/257/63 204/110/6 202/198/5
f 570/321/64 568/259/63 203/320/6 201/322/5
f 571/199/65 569/261/64 202/198/5 200/323/4
f 572/200/65 570/321/64 201/322/5 199/324/4
f 573/325/66 571/199/65 200/323/4 198/326/3
f 574/269/66 572/200/65 199/324/4 197/327/3
f 575/204/68 573/325/66 198/326/3 196/126/2
f 576/328/68 574/269/66 197/327/3 195/329/2
f 193/129/1 575/204/68 196/126/2 514/130/36
f 194/330/1 576/328/68 195/329/2 516/331/36
f 577/1/35 257/2/1 578/3/36 320/134/32
f 579/332/35 258/6/1 580/333/36 319/207/32
f 581/9/37 577/1/35 320/134/32 318/136/31
f 582/334/37 579/332/35 319/207/32 317/12/31
f 583/335/38 581/9/37 318/136/31 316/14/30
f 584/336/38 582/334/37 317/12/31 315/337/30
f 585/212/39 583/335/38 316/14/30 314/143/29
f 586/338/39 584/336/38 315/337/30 313/339/29
f 587/340/40 585/212/39 314/143/29 312/22/28
f 588/215/40 586/338/39 313/339/29 311/341/28
f 589/342/41 587/340/40 312/22/28 310/26/27
f 590/343/41 588/215/40 311/341/28 309/344/27
f 591/146/42 589/342/41 310/26/27 308/30/26
f 592/345/42 590/343/41 309/344/27 307/346/26
f 593/148/43 591/146/42 308/30/26 306/34/25
f 594/35/43 592/345/42 307/346/26 305/36/25
f 595/37/44 593/148/43 306/34/25 304/150/24
f 596/292/44 594/35/43 305/36/25 303/40/24
f 597/41/45 595/37/44 304/150/24 302/347/23
f 598/348/45 596/292/44 303/40/24 301/349/23
f 599/350/46 597/41/45 302/347/23 300/155/22
f 600/351/46 598/348/45 301/349/23 299/48/22
f 601/49/48 599/350/46 300/155/22 298/50/21
f 602/298/48 600/351/46 299/48/22 297/299/21
f 603/53/49 601/49/48 298/50/21 296/161/20
f 604/352/49 602/298/48 297/299/21 295/353/20
f 605/235/50 603/53/49 296/161/20 294/165/19
f 606/59/50 604/352/49 295/353/20 293/354/19
f 607/168/51 605/235/50 294/165/19 292/62/18
f 608/63/51 606/59/50 293/354/19 291/170/18
f 609/302/52 607/168/51 292/62/18 290/355/17
f 610/356/52 608/63/51 291/170/18 289/357/17
f 611/358/53 609/302/52 290/355/17 288/70/16
f 612/175/53 610/356/52 289/357/17 287/243/16
f 613/359/54 611/358/53 288/70/16 286/177/15
f 614/304/54 612/175/53 287/243/16 285/76/15
f 615/360/55 613/359/54 286/177/15 284/361/14
f 616/362/55 614/304/54 285/76/15 283/363/14
f 617/364/56 615/360/55 284/361/14 282/306/13
f 618/365/56 616/362/55 283/363/14 281/366/13
f 619/85/57 617/364/56 282/306/13 280/367/12
f 620/247/57 618/365/56 281/366/13 279/368/12
f 621/89/58 619/85/57 280/367/12 278/369/11
f 622/370/58 620/247/57 279/368/12 277/92/11
f 623/187/59 621/89/58 278/369/11 276/371/10
f 624/372/59 622/370/58 277/92/11 275/373/10
f 625/374/60 623/187/59 276/371/10 274/191/9
f 626/375/60 624/372/59 275/373/10 273/376/9
f 627/377/61 625/374/60 274/191/9 272/195/8
f 628/317/61 626/375/60 273/376/9 271/254/8
f 629/196/62 627/377/61 272/195/8 270/106/7
f 630/378/62 628/317/61 271/254/8 269/379/7
f 631/380/63 629/196/62 270/106/7 268/381/6
f 632/111/63 630/378/62 269/379/7 267/320/6
f 633/382/64 631/380/63 268/381/6 266/114/5
f 634/383/64 632/111/63 267/320/6 265/384/5
f 635/117/65 633/382/64 266/114/5 264/118/4
f 636/385/65 634/383/64 265/384/5 263/266/4
f 637/267/66 635/117/65 264/118/4 262/268/3
f 638/123/66 636/385/65 263/266/4 261/386/3
f 639/204/67 637/267/66 262/268/3 260/126/2
f 640/328/67 638/123/66 261/386/3 259/387/2
f 257/129/1 639/204/67 260/126/2 578/130/36
f 258/330/1 640/328/67 259/387/2 580/388/36
