# Blender 5.2.1 LTS
# www.blender.org
mtllib SideLights.mtl
o Cube.010
v 0.487318 0.086163 -3.090375
v 0.570375 0.086163 -3.007318
v 0.570375 0.086163 2.967318
v 0.487318 0.086163 3.050375
v 0.487318 0.996649 -3.090375
v 0.570375 0.996649 -3.007318
v 0.570375 0.996649 2.967318
v 0.487318 0.996649 3.050375
vn 0.7071 -0.0000 -0.7071
vn 0.7071 -0.0000 0.7071
vt 0.640371 0.501226
vt 0.647687 0.490917
vt 0.647687 0.490917
vt 0.640371 0.501226
vt 0.647687 0.759083
vt 0.640371 0.748774
vt 0.640371 0.748774
vt 0.647687 0.759083
s 0
usemtl Material.009
f 2/1/1 1/2/1 5/3/1 6/4/1
f 4/5/2 3/6/2 7/7/2 8/8/2
