# Blender 5.2.1 LTS
# www.blender.org
mtllib TopLights.mtl
o Cube.012
v -0.614372 1.242900 3.091902
v -0.604022 1.301853 3.091902
v -0.581439 1.299218 3.146979
v -0.591788 1.240265 3.146979
v -0.605326 1.241845 3.120380
v -0.594976 1.300797 3.120380
v -0.575838 1.238404 3.167625
v -0.565488 1.297357 3.167625
v -0.504310 1.290219 3.229426
v -0.514659 1.231266 3.229426
v -0.483872 1.287834 3.245540
v -0.494221 1.228882 3.245540
v -0.457542 1.284762 3.259216
v -0.467892 1.225809 3.259216
v -0.429351 1.281473 3.268353
v -0.439701 1.222520 3.268353
v -0.433969 1.221852 3.269068
v -0.615079 1.242983 3.086112
v -0.424198 1.277508 3.269068
v -0.424174 1.279122 3.269036
v -0.424341 1.279658 3.269004
v -0.424675 1.280145 3.268953
v -0.425156 1.280548 3.268885
v -0.425754 1.280838 3.268806
v -0.427669 1.281277 3.268563
v -0.604998 1.300220 3.086369
v -0.605308 1.298639 3.086112
v -0.604878 1.300722 3.086627
v -0.604750 1.301155 3.087042
v -0.604624 1.301488 3.087589
v -0.604507 1.301694 3.088231
v -0.604230 1.301877 3.090203
v -0.462012 1.284121 -3.255160
v -0.471738 1.228722 -3.255160
v -0.445247 1.225631 -3.263747
v -0.435521 1.281030 -3.263747
v -0.609388 1.244783 -3.097933
v -0.599662 1.300182 -3.097933
v -0.600888 1.243791 -3.124694
v -0.591162 1.299190 -3.124694
v -0.515686 1.233850 -3.227167
v -0.505961 1.289249 -3.227167
v -0.563451 1.295956 -3.169091
v -0.573177 1.240558 -3.169091
v -0.588166 1.242306 -3.149689
v -0.578440 1.297705 -3.149689
v -0.496481 1.231609 -3.242309
v -0.486755 1.287008 -3.242309
v -0.439860 1.225003 -3.264418
v -0.610052 1.244860 -3.092492
v -0.430656 1.278821 -3.264388
v -0.430679 1.277305 -3.264418
v -0.430813 1.279325 -3.264358
v -0.431126 1.279782 -3.264310
v -0.431579 1.280161 -3.264247
v -0.432141 1.280434 -3.264173
v -0.433940 1.280846 -3.263944
v -0.600870 1.297162 -3.092492
v -0.600579 1.298647 -3.092733
v -0.600466 1.299119 -3.092977
v -0.600346 1.299526 -3.093366
v -0.600227 1.299838 -3.093879
v -0.600118 1.300033 -3.094483
v -0.599857 1.300204 -3.096336
vn 0.9776 -0.1716 -0.1218
vn 0.1212 -0.0213 -0.9924
vn 0.7779 -0.1366 -0.6133
vn 0.3023 -0.0531 -0.9517
vn 0.4522 -0.0794 -0.8884
vn 0.6079 -0.1067 -0.7868
vn 0.8769 -0.1539 -0.4554
vn 0.9383 -0.1647 -0.3041
vn 0.6982 -0.1226 -0.7053
vn 0.9383 -0.1647 0.3041
vn 0.3023 -0.0531 0.9517
vn 0.6982 -0.1226 0.7053
vn 0.8769 -0.1539 0.4554
vn 0.7779 -0.1366 0.6133
vn 0.6079 -0.1067 0.7868
vn 0.4522 -0.0794 0.8884
vn 0.1211 -0.0213 0.9924
vn 0.9776 -0.1716 0.1218
vt 0.850107 0.739675
vt 0.850161 0.739513
vt 0.850163 0.739507
vt 0.850160 0.739516
vt 0.850157 0.739525
vt 0.850152 0.739539
vt 0.850146 0.739558
vt 0.850138 0.739581
vt 0.850115 0.739650
vt 0.850107 0.739675
vt 0.823268 0.746372
vt 0.824048 0.746301
vt 0.824048 0.746301
vt 0.823929 0.746311
vt 0.823595 0.746342
vt 0.823486 0.746352
vt 0.823393 0.746361
vt 0.823324 0.746367
vt 0.823281 0.746371
vt 0.823240 0.746375
vt 0.844399 0.742158
vt 0.846854 0.741468
vt 0.846854 0.741468
vt 0.828348 0.745754
vt 0.828348 0.745754
vt 0.832187 0.745103
vt 0.832187 0.745103
vt 0.835076 0.744460
vt 0.835076 0.744460
vt 0.848940 0.740599
vt 0.850107 0.510325
vt 0.848940 0.509400
vt 0.850107 0.510325
vt 0.828348 0.504246
vt 0.824048 0.503699
vt 0.844399 0.507843
vt 0.835076 0.505540
vt 0.846854 0.508532
vt 0.832186 0.504897
vt 0.832186 0.504897
vt 0.823268 0.503628
vt 0.823241 0.503625
vt 0.823281 0.503629
vt 0.823324 0.503633
vt 0.823394 0.503639
vt 0.823486 0.503648
vt 0.823595 0.503658
vt 0.823929 0.503688
vt 0.850161 0.510487
vt 0.850115 0.510350
vt 0.850138 0.510419
vt 0.850146 0.510442
vt 0.850152 0.510461
vt 0.850157 0.510475
vt 0.850160 0.510484
vt 0.850163 0.510493
s 0
usemtl Material.010
f 1/1/1 18/2/1 27/3/1 26/4/1 28/5/1 29/6/1 30/7/1 31/8/1 32/9/1 2/10/1
f 17/11/2 16/12/2 15/13/2 25/14/2 24/15/2 23/16/2 22/17/2 21/18/2 20/19/2 19/20/2
f 7/21/3 4/22/3 3/23/3 8/21/3
f 16/12/4 14/24/4 13/25/4 15/13/4
f 14/24/5 12/26/5 11/27/5 13/25/5
f 12/26/6 10/28/6 9/29/6 11/27/6
f 4/22/7 5/30/7 6/30/7 3/23/7
f 5/30/8 1/1/8 2/10/8 6/30/8
f 10/28/9 7/21/9 8/21/9 9/29/9
f 37/31/10 39/32/10 40/32/10 38/33/10
f 34/34/11 35/35/11 36/35/11 33/34/11
f 44/36/12 41/37/12 42/37/12 43/36/12
f 39/32/13 45/38/13 46/38/13 40/32/13
f 45/38/14 44/36/14 43/36/14 46/38/14
f 41/37/15 47/39/15 48/40/15 42/37/15
f 47/39/16 34/34/16 33/34/16 48/40/16
f 35/35/17 49/41/17 52/42/17 51/43/17 53/44/17 54/45/17 55/46/17 56/47/17 57/48/17 36/35/17
f 50/49/18 37/31/18 38/33/18 64/50/18 63/51/18 62/52/18 61/53/18 60/54/18 59/55/18 58/56/18
